<svg width="16" height="16" viewBox="0 0 16 16" fill="none" xmlns="http://www.w3.org/2000/svg">
  <path fill-rule="evenodd" clip-rule="evenodd"
    d="M12.2305 7.17188H8.05469C7.38269 7.69988 6.6741 8.14432 5.9541 8.52832L9.02637 8.34766C9.47031 8.10768 9.91446 7.85576 10.3584 7.5918L11.0781 8.05957C9.49414 9.03156 7.77836 9.77599 5.94238 10.292C7.71832 10.244 9.50629 10.1483 11.2822 10.0283C11.0182 9.75232 10.7304 9.47591 10.4424 9.21191L11.1025 8.79199C11.9903 9.59582 12.6619 10.292 13.1299 10.8799L12.4463 11.3721C12.2543 11.1081 12.0382 10.8562 11.8223 10.6162C10.6823 10.6882 9.60201 10.7603 8.58203 10.8203V12.668C8.58203 13.3279 8.24644 13.664 7.59863 13.6641H6.49414L6.31445 12.8477C6.66224 12.8836 6.98602 12.9082 7.29785 12.9082C7.56185 12.9082 7.69434 12.7519 7.69434 12.4639V10.8682C6.20653 10.9402 4.83869 10.9877 3.59082 11.0117L3.41016 10.208C3.67416 10.22 3.92671 10.2324 4.17871 10.2324C5.35449 9.96845 6.57815 9.53609 7.83789 8.94824C6.66205 8.99624 5.52211 9.06766 4.40625 9.13965L4.23828 8.39648C4.61014 8.39648 4.87398 8.3595 5.04199 8.31152C5.62993 7.99956 6.242 7.62781 6.87793 7.17188H3.9502V3.13965H12.2305V7.17188ZM4.77832 6.47559H7.6582V5.50391H4.77832V6.47559ZM8.52246 6.47559H11.4023V5.50391H8.52246V6.47559ZM4.77832 4.80762H7.6582V3.83594H4.77832V4.80762ZM8.52246 4.80762H11.4023V3.83594H8.52246V4.80762Z"
    fill="currentColor" />
  <path
    d="M9.84277 11.3242C11.0906 11.7322 12.2308 12.2124 13.2627 12.7764L12.8066 13.5078C11.7026 12.8598 10.5739 12.3437 9.42188 11.9717L9.84277 11.3242Z"
    fill="currentColor" />
  <path
    d="M6.61426 11.9238C5.70226 12.5478 4.54992 13.0644 3.16992 13.4844L2.78613 12.7041C4.13013 12.3441 5.23463 11.8879 6.09863 11.3359L6.61426 11.9238Z"
    fill="currentColor" />
  <path
    d="M14 15V16H2V15H14ZM15 14V2C15 1.44772 14.5523 1 14 1H2C1.44772 1 1 1.44772 1 2V14C1 14.5523 1.44772 15 2 15V16C0.895431 16 0 15.1046 0 14V2C0 0.895431 0.895431 0 2 0H14C15.1046 0 16 0.895431 16 2V14C16 15.1046 15.1046 16 14 16V15C14.5523 15 15 14.5523 15 14Z"
    fill="currentColor" fill-opacity="0.5" />
</svg>