<svg width="16" height="16" viewBox="0 0 16 16" xmlns="http://www.w3.org/2000/svg">
  <path
    d="M14.0714 2.04866L13.42 1.81178C13.3703 1.59585 13.2491 1.40307 13.076 1.26475C12.9029 1.12642 12.6881 1.05068 12.4666 1.04982C12.3387 1.04987 12.2122 1.07521 12.0941 1.12439C11.9761 1.17356 11.869 1.2456 11.779 1.33635C11.6889 1.4271 11.6177 1.53477 11.5694 1.65316C11.5212 1.77154 11.4968 1.89831 11.4977 2.02616C11.4976 2.15441 11.5227 2.28144 11.5717 2.39997C11.6207 2.51849 11.6927 2.62618 11.7833 2.71688C11.874 2.80757 11.9817 2.87948 12.1003 2.92849C12.2188 2.9775 12.3458 3.00264 12.4741 3.00249C12.7256 3.00249 12.9549 2.90616 13.1322 2.74351L13.7461 2.96538C14.1607 3.11343 14.5227 3.68274 14.5227 4.1711V12.8251C14.5227 13.3131 14.1603 13.8753 13.7461 14.0229L13.1914 14.2152C13.1005 14.1153 12.9898 14.0354 12.8663 13.9806C12.7428 13.9259 12.6092 13.8976 12.4741 13.8974C12.3462 13.8974 12.2196 13.9228 12.1016 13.9719C11.9836 14.0211 11.8765 14.0932 11.7864 14.1839C11.6964 14.2747 11.6252 14.3823 11.5769 14.5007C11.5287 14.6191 11.5043 14.7459 11.5052 14.8737C11.5051 15.0019 11.5303 15.1289 11.5793 15.2474C11.6284 15.3659 11.7003 15.4735 11.791 15.5642C11.8817 15.6548 11.9894 15.7267 12.1079 15.7757C12.2264 15.8247 12.3534 15.8498 12.4816 15.8497C12.6851 15.8494 12.8833 15.7849 13.0479 15.6654C13.2126 15.5458 13.3354 15.3774 13.3987 15.184L14.0718 14.9471C14.878 14.6664 15.499 13.7343 15.499 12.8322V4.17821C15.4844 3.26859 14.8701 2.33725 14.0714 2.04866ZM3.70874 13.8974C3.56385 13.8973 3.42078 13.9298 3.29017 13.9925C3.15956 14.0553 3.04476 14.1466 2.95428 14.2598L2.25153 14.0154C1.83699 13.8749 1.46745 13.3648 1.46745 12.9282V4.06767C1.46745 3.63102 1.83739 3.11343 2.25153 2.96538L2.99849 2.69928C3.08959 2.7935 3.19881 2.8683 3.31958 2.91919C3.44036 2.97008 3.57018 2.99599 3.70123 2.99538C3.82952 2.99554 3.95658 2.97038 4.07514 2.92135C4.19369 2.87232 4.3014 2.80037 4.3921 2.70964C4.4828 2.6189 4.5547 2.51117 4.60369 2.3926C4.65268 2.27402 4.67779 2.14695 4.67758 2.01866C4.67837 1.89121 4.65384 1.76487 4.60543 1.64697C4.55702 1.52907 4.48569 1.42196 4.39557 1.33184C4.30545 1.24171 4.19833 1.17038 4.08043 1.12197C3.96253 1.07356 3.83619 1.04904 3.70874 1.04982C3.26498 1.04982 2.90256 1.34592 2.78412 1.74506L1.92622 2.04827C1.13464 2.33686 0.499023 3.22438 0.499023 4.06767V12.9282C0.499023 13.7714 1.13505 14.659 1.93372 14.9325L2.80662 15.2358C2.88072 15.4138 3.00608 15.5659 3.16677 15.6726C3.32746 15.7793 3.51624 15.8359 3.70913 15.8351C3.83739 15.8352 3.96442 15.8101 4.08294 15.7611C4.20147 15.712 4.30916 15.6401 4.39985 15.5494C4.49054 15.4588 4.56245 15.3511 4.61146 15.2325C4.66047 15.114 4.68562 14.987 4.68547 14.8587C4.68547 14.3336 4.24844 13.8974 3.70874 13.8974Z" />
  <path
    d="M6.66029 8.78379L7.91772 5.81805L9.24898 8.78379H6.66029ZM10.7354 12.1199L12.4662 12.127L8.60507 3.55469L7.17788 3.56929L3.54651 12.127L5.2548 12.1048L6.00177 10.3444H9.94422L10.7354 12.1199Z" />
</svg>