<svg xmlns="http://www.w3.org/2000/svg" viewBox="0 0 16 16">
  <path
    d="M1,0 L6,0 C6.55228475,-1.01453063e-16 7,0.44771525 7,1 L7,1 C7,1.55228475 6.55228475,2 6,2 L1,2 C0.44771525,2 6.76353751e-17,1.55228475 0,1 L0,1 C-6.76353751e-17,0.44771525 0.44771525,1.01453063e-16 1,0 Z M1,4 L11,4 C11.5522847,4 12,4.44771525 12,5 L12,5 C12,5.55228475 11.5522847,6 11,6 L1,6 C0.44771525,6 6.76353751e-17,5.55228475 0,5 L0,5 C-6.76353751e-17,4.44771525 0.44771525,4 1,4 Z M1,8 L9,8 C9.55228475,8 10,8.44771525 10,9 L10,9 C10,9.55228475 9.55228475,10 9,10 L1,10 C0.44771525,10 6.76353751e-17,9.55228475 0,9 L0,9 C-6.76353751e-17,8.44771525 0.44771525,8 1,8 Z M1,12 L11,12 C11.5522847,12 12,12.4477153 12,13 L12,13 C12,13.5522847 11.5522847,14 11,14 L1,14 C0.44771525,14 6.76353751e-17,13.5522847 0,13 L0,13 C-6.76353751e-17,12.4477153 0.44771525,12 1,12 Z"
    transform="translate(2 1)" />
</svg>