<svg xmlns="http://www.w3.org/2000/svg" viewBox="0 0 24 24">
  <g fillRule="evenodd">
    <circle fill='#37465c' cx="12" cy="12" r="12" />
    <path fill="#8aaee6" fillRule="nonzero"
      d="M7.71428571,6 L12,6 C12.4733869,6 12.8571429,6.38375593 12.8571429,6.85714286 C12.8571429,7.33052979 12.4733869,7.71428571 12,7.71428571 L7.71428571,7.71428571 C7.24089879,7.71428571 6.85714286,7.33052979 6.85714286,6.85714286 C6.85714286,6.38375593 7.24089879,6 7.71428571,6 Z M7.71428571,9.42857143 L16.2857143,9.42857143 C16.7591012,9.42857143 17.1428571,9.81232736 17.1428571,10.2857143 C17.1428571,10.7591012 16.7591012,11.1428571 16.2857143,11.1428571 L7.71428571,11.1428571 C7.24089879,11.1428571 6.85714286,10.7591012 6.85714286,10.2857143 C6.85714286,9.81232736 7.24089879,9.42857143 7.71428571,9.42857143 Z M7.71428571,12.8571429 L14.5714286,12.8571429 C15.0448155,12.8571429 15.4285714,13.2408988 15.4285714,13.7142857 C15.4285714,14.1876726 15.0448155,14.5714286 14.5714286,14.5714286 L7.71428571,14.5714286 C7.24089879,14.5714286 6.85714286,14.1876726 6.85714286,13.7142857 C6.85714286,13.2408988 7.24089879,12.8571429 7.71428571,12.8571429 Z M7.71428571,16.2857143 L16.2857143,16.2857143 C16.7591012,16.2857143 17.1428571,16.6694702 17.1428571,17.1428571 C17.1428571,17.6162441 16.7591012,18 16.2857143,18 L7.71428571,18 C7.24089879,18 6.85714286,17.6162441 6.85714286,17.1428571 C6.85714286,16.6694702 7.24089879,16.2857143 7.71428571,16.2857143 Z" />
  </g>
</svg>