<svg xmlns="http://www.w3.org/2000/svg" width="16" height="16" viewBox="0 0 16 16">
  <g fill="none" fill-rule="evenodd" transform="rotate(-180 8 8)">
    <circle cx="8" cy="8" r="8" fill="currentColor" />
    <path fill="#FFF"
      d="M8.77565753,10.5647454 L10.2177871,9.00149537 C10.3576904,8.85902623 10.5491441,8.77874645 10.7490057,8.77874645 C10.9488672,8.77874645 11.1403209,8.85902623 11.2802243,9.00149537 C11.5732586,9.29774537 11.5732586,9.77924537 11.2802243,10.0754954 L8.8214911,12.6662454 C8.6120718,12.8807704 8.32436118,13.0012207 8.02428751,12.9999954 C7.7237395,12.9999954 7.43972163,12.8814954 7.22783528,12.6669954 L4.71978612,10.0754954 C4.42673796,9.77666367 4.42673796,9.29882707 4.71978612,8.99999537 C4.85989307,8.85790411 5.05127061,8.77788706 5.25100472,8.77788706 C5.45073883,8.77788706 5.64211638,8.85790411 5.78222333,8.99999537 L7.27291748,10.5639954 L7.27291748,3.74999537 C7.27291748,3.33524537 7.60802851,2.99999537 8.02428751,2.99999537 C8.43754102,2.99999537 8.77565753,3.33599537 8.77565753,3.74999537 L8.77565753,10.5647454 Z" />
  </g>
</svg>