<svg xmlns="http://www.w3.org/2000/svg" width="16" height="16" viewBox="0 0 16 16">
  <g fill="none" fill-rule="evenodd" transform="rotate(-180 8 8)">
    <circle cx="8" cy="8" r="8" fill="currentColor" />
    <path fill="#FFF"
      d="M8.77565753,5.43525463 L10.2177871,6.99850463 C10.3576904,7.14097377 10.5491441,7.22125355 10.7490057,7.22125355 C10.9488672,7.22125355 11.1403209,7.14097377 11.2802243,6.99850463 C11.5732586,6.70225463 11.5732586,6.22075463 11.2802243,5.92450463 L8.8214911,3.33375463 C8.6120718,3.11922959 8.32436118,2.99877928 8.02428751,2.99999537 C7.7237395,2.99999537 7.43972163,3.11850463 7.22783528,3.33300463 L4.71978612,5.92450463 C4.42673796,6.22333633 4.42673796,6.70117293 4.71978612,6.99999537 C4.85989307,7.14209589 5.05127061,7.22211294 5.25100472,7.22211294 C5.45073883,7.22211294 5.64211638,7.14209589 5.78222333,6.99999537 L7.27291748,5.43600463 L7.27291748,12.2500046 C7.27291748,12.6647546 7.60802851,12.9999954 8.02428751,12.9999954 C8.43754102,12.9999954 8.77565753,12.6640046 8.77565753,12.2500046 L8.77565753,5.43525463 Z" />
  </g>
</svg>