<svg xmlns="http://www.w3.org/2000/svg" viewBox="0 0 7 12">
  <path d="M4.27565753,9.56475 L5.71778706,8.0015 C5.85769041,7.85903086 6.04914414,7.77875108 6.24900566,7.77875108 C6.44886718,7.77875108 6.64032091,7.85903086 6.78022427,8.0015 C7.07325858,8.29775 7.07325858,8.77925 6.78022427,9.0755 L4.3214911,11.66625 C4.1120718,11.880775 3.82436118,12.0012253 3.52428751,12 C3.2237395,12 2.93972163,11.8815 2.72783528,11.667 L0.219786117,9.0755 C-0.0732620391,8.7766683 -0.0732620391,8.2988317 0.219786117,8 C0.35989307,7.85790873 0.551270612,7.77789169 0.751004723,7.77789169 C0.950738834,7.77789169 1.14211638,7.85790873 1.28222333,8 L2.77291748,9.564 L2.77291748,0.75 C2.77291748,0.33525 3.10802851,0 3.52428751,0 C3.93754102,0 4.27565753,0.336 4.27565753,0.75 L4.27565753,9.56475 Z" />
</svg>