<svg viewBox="0 0 22 22" fill="none" xmlns="http://www.w3.org/2000/svg">
  <g clip-path="url(#clip0_8331_20268)">
    <path
      d="M0.340942 11.0001C0.340942 16.8851 5.11494 21.6591 10.9999 21.6591C16.8849 21.6591 21.6589 16.8851 21.6589 11.0001C21.6589 5.11506 16.8849 0.341064 10.9999 0.341064C5.11494 0.341064 0.340942 5.11506 0.340942 11.0001Z"
      fill="#DEEDFF" fill-opacity="0.35" />
    <path
      d="M10.9999 0.341064C16.8849 0.341064 21.6589 5.11506 21.6589 11.0001C21.6589 16.8851 16.8849 21.6591 10.9999 21.6591C5.11494 21.6591 0.340942 16.8851 0.340942 11.0001C0.340942 5.11506 5.11494 0.341064 10.9999 0.341064ZM10.9999 1.01206C5.47794 1.01206 1.01194 5.47806 1.01194 11.0001C1.01194 16.5221 5.48894 20.9881 10.9999 20.9881C16.5109 20.9881 20.9879 16.5111 20.9879 11.0001C20.9879 5.48906 16.5219 1.01206 10.9999 1.01206Z"
      fill="#00B4FF" />
    <path
      d="M15.4329 9.75707C15.4329 12.4631 13.4859 14.6631 11.0769 14.6631C8.66795 14.6631 6.72095 12.4631 6.72095 9.75707C6.72095 7.05107 8.66795 4.85107 11.0769 4.85107C13.4859 4.85107 15.4329 7.05107 15.4329 9.75707Z"
      fill="#FFE3CD" />
    <path
      d="M9.39405 13.8929H12.738V16.6539H9.38305L9.39405 13.8929ZM7.27105 10.0429C7.27105 10.4499 6.97405 10.7799 6.60005 10.7799C6.22605 10.7799 5.92905 10.4499 5.92905 10.0429C5.92905 9.63592 6.22605 9.30592 6.60005 9.30592C6.97405 9.30592 7.27105 9.63592 7.27105 10.0429ZM16.214 10.0319C16.214 10.4389 15.917 10.7689 15.543 10.7689C15.169 10.7689 14.872 10.4389 14.872 10.0319C14.872 9.62492 15.169 9.29492 15.543 9.29492C15.917 9.29492 16.214 9.63592 16.214 10.0319Z"
      fill="#FFE3CD" />
    <path
      d="M9.39404 14.2889C9.39404 14.2889 10.032 14.6189 10.945 14.6189C12.023 14.6629 12.727 14.2999 12.727 14.2999V14.6299C12.727 14.6299 11.539 15.2679 11.011 15.2679C10.472 15.2679 9.39404 14.5199 9.39404 14.5199V14.2889ZM10.516 3.64094C10.516 3.64094 7.56804 3.93794 7.53504 5.86294C7.51304 7.79894 9.81204 8.16194 10.67 8.38194C11.528 8.59094 13.871 8.86594 15.246 6.63294C15.246 6.63294 14.872 5.75294 14.663 5.14794C14.575 4.99394 14.806 5.42294 13.981 4.89494C13.167 4.37794 12.056 3.51994 10.516 3.64094Z"
      fill="#ECB485" />
    <path
      d="M8.45897 4.69702C8.45897 4.69702 6.31397 5.06002 6.19297 6.97402C6.07197 8.89902 6.41297 9.40502 6.41297 9.40502C6.41297 9.40502 6.89697 9.40502 7.01797 10.131C7.01797 10.131 7.23797 10.263 7.25997 10.131C7.29297 9.91102 7.06197 8.85502 7.52397 7.88702C7.97497 6.91902 8.41497 6.77602 8.41497 6.77602L8.45897 4.69702ZM14.102 6.79802C14.102 6.79802 14.674 7.53502 14.773 8.28302C14.861 8.91002 14.971 10.098 14.971 10.098C14.971 10.098 15.136 10.208 15.246 9.94402C15.356 9.66902 15.334 9.40502 15.433 9.32802C15.994 8.95402 15.851 7.39202 15.818 7.22702C15.686 6.52302 15.114 5.40102 15.114 5.40102L14.102 6.79802Z"
      fill="#3F3F3F" />
    <path
      d="M10.45 2.99212C10.45 2.99212 7.40303 3.11312 7.37003 5.14812C7.33703 7.17212 9.74602 7.74412 10.604 7.97512C11.462 8.19512 13.805 8.48112 15.18 6.13812C15.18 6.13812 15.521 5.07112 15.323 4.43312C15.235 4.26812 14.751 4.86212 13.926 4.31212C13.09 3.76212 11.99 2.87112 10.45 2.99212Z"
      fill="#3F3F3F" />
    <path
      d="M18.777 18.2819C18.238 17.8529 17.215 17.2259 16.203 16.7419C14.564 15.9389 12.727 15.5869 12.727 15.5869V15.6419C12.595 15.7849 11.946 16.4229 11.066 16.4229C10.197 16.4229 9.53704 15.8289 9.39404 15.6749L9.38304 15.5979C9.38304 15.5979 7.62304 15.8399 5.97304 16.6429C4.85104 17.1929 3.71804 17.9079 3.23404 18.3259C5.24704 20.4709 8.05204 21.6809 10.989 21.6699C14.069 21.6589 16.841 20.3609 18.777 18.2819Z"
      fill="#00B4FF" />
  </g>
  <defs>
    <clipPath id="clip0_8331_20268">
      <rect width="22" height="22" fill="white" />
    </clipPath>
  </defs>
</svg>