<svg xmlns="http://www.w3.org/2000/svg" viewBox="0 0 16 16">
  <path transform="translate(1 1)"
    d="M9.29166667,1.11111111 C10.0050345,1.11111111 10.5833333,1.68940998 10.5833333,2.40277778 L10.5833333,11.0138889 C10.5833333,11.7272567 10.0050345,12.3055556 9.29166667,12.3055556 C8.57829886,12.3055556 8,11.7272567 8,11.0138889 L8,2.40277778 C8,1.68940998 8.57829886,1.11111111 9.29166667,1.11111111 Z M4.98611111,5.41666667 C5.69947891,5.41666667 6.27777778,5.99496553 6.27777778,6.70833333 L6.27777778,11.0138889 C6.27777778,11.7272567 5.69947891,12.3055556 4.98611111,12.3055556 C4.27274331,12.3055556 3.69444444,11.7272567 3.69444444,11.0138889 L3.69444444,6.70833333 C3.69444444,5.99496553 4.27274331,5.41666667 4.98611111,5.41666667 Z M13.5972222,7.13888889 C14.31059,7.13888889 14.8888889,7.71718775 14.8888889,8.43055556 L14.8888889,11.0138889 C14.8888889,11.7272567 14.31059,12.3055556 13.5972222,12.3055556 C12.8838544,12.3055556 12.3055556,11.7272567 12.3055556,11.0138889 L12.3055556,8.43055556 C12.3055556,7.71718775 12.8838544,7.13888889 13.5972222,7.13888889 Z M1.97222222,14.0277778 L14.8888889,14.0277778 C15.3644674,14.0277778 15.75,14.4133104 15.75,14.8888889 C15.75,15.3644674 15.3644674,15.75 14.8888889,15.75 L1.11111111,15.75 C0.635532576,15.75 0.25,15.3644674 0.25,14.8888889 L0.25,1.11111111 C0.25,0.635532576 0.635532576,0.25 1.11111111,0.25 C1.58668965,0.25 1.97222222,0.635532576 1.97222222,1.11111111 L1.97222222,14.0277778 Z" />
</svg>