<svg viewBox="0 0 20 22" fill="none" xmlns="http://www.w3.org/2000/svg">
  <path
    d="M12.5957 20C12.2401 21.1901 11.1888 22 10 22C8.81122 22 7.7599 21.1901 7.4043 20C8.21702 20.0649 9.08091 20.0957 10 20.0957C10.9191 20.0957 11.783 20.0629 12.5957 20ZM10 1.41016C13.8158 1.41016 16.9092 4.50355 16.9092 8.31934V10.0459C16.9521 11.1107 17.4361 12.1101 18.2451 12.8037C18.9644 13.4166 19.4149 14.2874 19.5 15.2285C19.4996 17.3874 15.9484 18.6826 10 18.6826C4.05158 18.6826 0.500366 17.3874 0.5 15.2285C0.585141 14.2874 1.03564 13.4166 1.75488 12.8037C2.56394 12.1101 3.04795 11.1107 3.09082 10.0459V8.31934C3.09082 4.50355 6.18421 1.41016 10 1.41016ZM5.2627 1.4209C3.15779 2.72969 1.57925 5.34671 1.5791 7.96387L0 7.84961C0.150927 4.64978 1.80817 1.93126 4.21094 0.111328L5.2627 1.4209ZM15.8477 0C18.2605 1.81993 19.8491 4.64977 20 7.84961L18.4209 7.96387C18.27 5.31422 16.7979 2.6092 14.7373 1.15918L15.8477 0Z"
    fill="currentColor" />
</svg>