<svg xmlns="http://www.w3.org/2000/svg" viewBox="0 0 15 14">
  <path fillRule="evenodd"
    d="M1.53556034,2.91089109 C1.49245668,4.46132055 1.28771735,5.95525501 0.921336207,7.39273927 L0,7.14631463 C0.355605226,5.79097232 0.549568804,4.35864341 0.581896552,2.84928493 L1.53556034,2.91089109 Z M2.47306034,0 L3.5237069,0 L3.5237069,3.95819582 C4.09483044,3.38320211 4.57973939,2.78254805 4.97844828,2.15621562 L5.60883621,2.94169417 C5.03771266,3.71177503 4.34267651,4.44077397 3.5237069,5.12871287 L3.5237069,5.46754675 C3.50215506,6.60726642 3.43211266,7.60835652 3.31357759,8.47084708 C3.97090846,9.22039245 4.68210824,10.134208 5.44719828,11.2123212 L4.76831897,12.1980198 C4.12176401,11.0891034 3.57220054,10.2112244 3.11961207,9.56435644 C2.69935135,11.4228182 1.98815156,12.9013513 0.985991379,14 L0.145474138,13.2915292 C1.66487829,11.6589577 2.4407326,9.05098968 2.47306034,5.46754675 L2.47306034,0 Z M6.19073276,0.308030803 L13.8523707,0.308030803 L13.8523707,4.3740374 L12.2844828,4.3740374 L12.2844828,5.22112211 L14.4342672,5.22112211 L14.4342672,6.05280528 L12.2844828,6.05280528 L12.2844828,7.10011001 L14.7252155,7.10011001 L14.7252155,7.99339934 L12.3491379,7.99339934 C12.9418133,8.68133824 13.8254252,9.29739369 15,9.84158416 L14.3372845,10.6424642 C13.755385,10.2933609 13.2812518,9.96993182 12.9148707,9.67216722 C12.49461,10.082877 12.009701,10.4525103 11.4601293,10.7810781 L10.9428879,10.1188119 C11.449356,9.79024405 11.8803862,9.44627976 12.2359914,9.08690869 C11.8588343,8.71726988 11.5625011,8.35277041 11.3469828,7.99339934 L8.64762931,7.99339934 C8.34590366,8.44518011 7.96336439,8.86101754 7.5,9.24092409 C7.93103664,9.5181532 8.33512742,9.83131472 8.71228448,10.180418 L8.01724138,10.8272827 C7.72629165,10.5295181 7.30064935,10.1855538 6.74030172,9.79537954 C6.36314467,10.0315377 5.953666,10.2522909 5.51185345,10.4576458 L4.94612069,9.56435644 C6.12069553,9.13311116 7.00430738,8.60946403 7.59698276,7.99339934 L4.96228448,7.99339934 L4.96228448,7.10011001 L7.79094828,7.10011001 L7.79094828,6.05280528 L5.59267241,6.05280528 L5.59267241,5.22112211 L7.79094828,5.22112211 L7.79094828,4.3740374 L6.19073276,4.3740374 L6.19073276,0.308030803 Z M8.84159483,7.10011001 L11.2338362,7.10011001 L11.2338362,6.05280528 L8.84159483,6.05280528 L8.84159483,7.10011001 Z M11.2338362,5.22112211 L11.2338362,4.3740374 L8.84159483,4.3740374 L8.84159483,5.22112211 L11.2338362,5.22112211 Z M12.8178879,3.57315732 L12.8178879,2.71067107 L7.22521552,2.71067107 L7.22521552,3.57315732 L12.8178879,3.57315732 Z M7.22521552,1.94059406 L12.8178879,1.94059406 L12.8178879,1.10891089 L7.22521552,1.10891089 L7.22521552,1.94059406 Z M8.14655172,13.9383938 L7.92025862,12.9834983 C8.35129526,13.0348371 8.71228303,13.0605061 9.00323276,13.0605061 C9.28340657,13.0605061 9.42349138,12.9321612 9.42349138,12.6754675 L9.42349138,8.53245325 L10.5226293,8.53245325 L10.5226293,12.9218922 C10.5226293,13.5995633 10.1347022,13.9383938 9.35883621,13.9383938 L8.14655172,13.9383938 Z M8.77693966,11.7975798 C7.93641821,12.352038 6.88578217,12.8448823 5.625,13.2761276 L5.20474138,12.3212321 C6.47629946,11.9618611 7.58620216,11.5152209 8.53448276,10.9812981 L8.77693966,11.7975798 Z M11.4924569,11.1507151 C12.634704,11.6024958 13.642237,12.1158754 14.5150862,12.6908691 L13.9170259,13.5841584 C12.9579693,12.875684 11.9719878,12.3161003 10.9590517,11.9053905 L11.4924569,11.1507151 Z" />
</svg>