<svg xmlns="http://www.w3.org/2000/svg" viewBox="0 0 20 20">
  <path transform="translate(0.5 2.5)"
    d="M16,4.74423526 C15.4610209,4.5852947 14.8904713,4.5 14.3,4.5 C12.8445785,4.5 11.5101904,5.01820563 10.4712786,5.88017396 C10.4901916,5.75620932 10.5,5.6292501 10.5,5.5 C10.5,4.11928813 9.38071187,3 8,3 C6.61928813,3 5.5,4.11928813 5.5,5.5 C5.5,6.88071187 6.61928813,8 8,8 C8.32851731,8 8.64223483,7.93663459 8.92959718,7.82145914 C8.52668961,8.62771212 8.3,9.53738296 8.3,10.5 L1.5,10.5 C0.671572875,10.5 8.34887715e-14,9.82842712 8.34887715e-14,9 L8.34887715e-14,2 C8.34887715e-14,1.17157288 0.671572875,0.5 1.5,0.5 L14.5,0.5 C15.3284271,0.5 16,1.17157288 16,2 L16,4.74423526 Z M3,6.5 C3.55228475,6.5 4,6.05228475 4,5.5 C4,4.94771525 3.55228475,4.5 3,4.5 C2.44771525,4.5 2,4.94771525 2,5.5 C2,6.05228475 2.44771525,6.5 3,6.5 Z M14.5,15.1 C12.0147186,15.1 10,13.0852814 10,10.6 C10,8.11471863 12.0147186,6.1 14.5,6.1 C16.9852814,6.1 19,8.11471863 19,10.6 C19,13.0852814 16.9852814,15.1 14.5,15.1 Z M14.5038319,7.00073573 C13.874999,7.02037079 13.4551427,7.38662763 13.5038319,7.92073573 L13.5038319,11.6007357 C13.9906116,11.4520785 14.2317248,11.6007357 14.5038319,11.6007357 C14.7831666,11.6007357 15.0143918,11.4520785 15.5038319,11.6007357 L15.5038319,7.92073573 C15.5551851,7.34461581 15.0486192,6.98159065 14.5038319,7.00073573 Z M14.5038319,14.5 C15.0561269,14.5 15.5038319,14.0528792 15.5038319,13.5 C15.5038319,12.9478735 15.0561269,12.5 14.5038319,12.5 C13.9515369,12.5 13.5038319,12.9478735 13.5038319,13.5 C13.5038319,14.0528792 13.9515369,14.5 14.5038319,14.5 Z" />
</svg>