<svg xmlns="http://www.w3.org/2000/svg" viewBox="0 0 20 20">
  <g transform="translate(1 2.5)">
    <path
      d="M16,4.01321713 C15.9345725,4.00449981 15.8678118,4 15.8,4 L10.2919782,4 C9.90619985,3.11704761 9.02515952,2.5 8,2.5 C6.61928813,2.5 5.5,3.61928813 5.5,5 C5.5,6.38071187 6.61928813,7.5 8,7.5 C8.10152722,7.5 8.20164091,7.49394797 8.3,7.482185 L8.3,10 L1.5,10 C0.671572875,10 1.01453063e-16,9.32842712 0,8.5 L0,1.5 C-1.01453063e-16,0.671572875 0.671572875,1.52179594e-16 1.5,0 L14.5,0 C15.3284271,-1.52179594e-16 16,0.671572875 16,1.5 L16,4.01321713 Z M3,6 C3.55228475,6 4,5.55228475 4,5 C4,4.44771525 3.55228475,4 3,4 C2.44771525,4 2,4.44771525 2,5 C2,5.55228475 2.44771525,6 3,6 Z" />
    <path
      d="M17,6.91397849 L17,7.62718099 C17,7.941283 16.913324,8.26419146 16.7399719,8.59590638 C16.5666199,8.9276213 16.3245035,9.25393938 16.0136227,9.57486062 L15.2548077,10.3 L16.0060322,11.0178857 C16.3514472,11.3813778 16.6034622,11.7101137 16.7620773,12.0040936 C16.9206924,12.2980735 17,12.6228738 17,12.9784946 L17,13.6860215 L17.35,13.6860215 C17.7089851,13.6860215 18,13.9801656 18,14.3430108 C18,14.7058559 17.7089851,15 17.35,15 L11.15,15 C10.7910149,15 10.5,14.7058559 10.5,14.3430108 C10.5,13.9801656 10.7910149,13.6860215 11.15,13.6860215 L11.5,13.6860215 L11.5,12.972819 C11.5,12.658717 11.586676,12.3358085 11.7600281,12.0040936 C11.9333801,11.6723787 12.1754965,11.3460606 12.4863773,11.0251394 L13.2451923,10.3 L12.4939678,9.58211428 C12.1485528,9.21862223 11.8965378,8.88988626 11.7379227,8.59590638 C11.5793076,8.3019265 11.5,7.97712616 11.5,7.62150538 L11.5,6.91397849 L11.15,6.91397849 C10.7910149,6.91397849 10.5,6.61983439 10.5,6.25698925 C10.5,5.89414411 10.7910149,5.6 11.15,5.6 L17.35,5.6 C17.7089851,5.6 18,5.89414411 18,6.25698925 C18,6.61983439 17.7089851,6.91397849 17.35,6.91397849 L17,6.91397849 Z" />
  </g>
</svg>