<svg xmlns="http://www.w3.org/2000/svg" viewBox="0 0 20 20">
  <g transform="translate(0.5 2.5)">
    <path
      d="M16,4.24423526 C15.4610209,4.0852947 14.8904713,4 14.3,4 C12.8445785,4 11.5101904,4.51820563 10.4712786,5.38017396 C10.4901916,5.25620932 10.5,5.1292501 10.5,5 C10.5,3.61928813 9.38071187,2.5 8,2.5 C6.61928813,2.5 5.5,3.61928813 5.5,5 C5.5,6.38071187 6.61928813,7.5 8,7.5 C8.32851731,7.5 8.64223483,7.43663459 8.92959718,7.32145914 C8.52668961,8.12771212 8.3,9.03738296 8.3,10 L1.5,10 C0.671572875,10 1.01453063e-16,9.32842712 0,8.5 L0,1.5 C-1.01453063e-16,0.671572875 0.671572875,1.52179594e-16 1.5,0 L14.5,0 C15.3284271,-1.52179594e-16 16,0.671572875 16,1.5 L16,4.24423526 Z M3,6 C3.55228475,6 4,5.55228475 4,5 C4,4.44771525 3.55228475,4 3,4 C2.44771525,4 2,4.44771525 2,5 C2,5.55228475 2.44771525,6 3,6 Z" />
    <path
      d="M14.5,14.6 C12.0147186,14.6 10,12.5852814 10,10.1 C10,7.61471863 12.0147186,5.6 14.5,5.6 C16.9852814,5.6 19,7.61471863 19,10.1 C19,12.5852814 16.9852814,14.6 14.5,14.6 Z M13.84,9.43 L11.8525,9.43 C11.4866114,9.43 11.19,9.72661135 11.19,10.0925 C11.19,10.4583886 11.4866114,10.755 11.8525,10.755 L13.84,10.755 L13.84,12.7425 C13.84,13.1083886 14.1366114,13.405 14.5025,13.405 C14.8683886,13.405 15.165,13.1083886 15.165,12.7425 L15.165,10.755 L17.1525,10.755 C17.5183886,10.755 17.815,10.4583886 17.815,10.0925 C17.815,9.72661135 17.5183886,9.43 17.1525,9.43 L15.165,9.43 L15.165,7.4425 C15.165,7.07661135 14.8683886,6.78 14.5025,6.78 C14.1366114,6.78 13.84,7.07661135 13.84,7.4425 L13.84,9.43 Z" />
  </g>
</svg>