<svg xmlns="http://www.w3.org/2000/svg" viewBox="0 0 24 24">
  <path transform="translate(3 4)"
    d="M0.857142857,0 L17.1428571,0 C17.616244,0 18,0.373096042 18,0.833333333 L18,9.16666667 C18,9.62690392 17.616244,10 17.1428571,10 L0.857142857,10 C0.383755929,10 0,9.62690392 0,9.16666667 L0,0.833333333 C0,0.373096042 0.383755929,0 0.857142857,0 Z M9,8.33333333 C10.8935477,8.33333333 12.4285714,6.84094917 12.4285714,5 C12.4285714,3.15905083 10.8935477,1.66666667 9,1.66666667 C7.10645229,1.66666667 5.57142857,3.15905083 5.57142857,5 C5.57142857,6.84094917 7.10645229,8.33333333 9,8.33333333 Z M13.25,14.5 C13.6642136,14.5 14,14.8357864 14,15.25 C14,15.6642136 13.6642136,16 13.25,16 L4.75,16 C4.33578644,16 4,15.6642136 4,15.25 C4,14.8357864 4.33578644,14.5 4.75,14.5 L13.25,14.5 Z M15.25,11.5 C15.6642136,11.5 16,11.8357864 16,12.25 C16,12.6642136 15.6642136,13 15.25,13 L2.75,13 C2.33578644,13 2,12.6642136 2,12.25 C2,11.8357864 2.33578644,11.5 2.75,11.5 L15.25,11.5 Z M9,3.33333333 C9.94677386,3.33333333 10.7142857,4.07952542 10.7142857,5 C10.7142857,5.92047458 9.94677386,6.66666667 9,6.66666667 C8.05322614,6.66666667 7.28571429,5.92047458 7.28571429,5 C7.28571429,4.07952542 8.05322614,3.33333333 9,3.33333333 Z" />
</svg>