<svg xmlns="http://www.w3.org/2000/svg" viewBox="0 0 24 24">
  <path transform="scale(1.4)"
    d="M14.5,0 C15.3284271,0 16,0.671572875 16,1.5 L16.0007383,5.68921631 C15.5210861,5.5656969 15.0182152,5.5 14.5,5.5 L14.5,5.5 L13.8655723,5.5011143 C13.9510565,5.35377607 14,5.18260372 14,5 C14,4.44771525 13.5522847,4 13,4 C12.4477153,4 12,4.44771525 12,5 C12,5.18260372 12.0489435,5.35377607 12.1344277,5.5011143 L11.5,5.5 C11.1339022,5.5 10.7754624,5.5327883 10.4274572,5.59558852 C10.475183,5.40538857 10.5,5.20559245 10.5,5 C10.5,3.61928813 9.38071187,2.5 8,2.5 C6.61928813,2.5 5.5,3.61928813 5.5,5 C5.5,6.08691142 6.19362394,7.01181828 7.16237526,7.35622402 C6.46388447,8.08538953 5.94854995,8.99149308 5.68895995,10.0002575 L1.5,10 C0.671572875,10 0,9.32842712 0,8.5 L0,1.5 C0,0.671572875 0.671572875,0 1.5,0 L14.5,0 Z M3,4 C2.44771525,4 2,4.44771525 2,5 C2,5.55228475 2.44771525,6 3,6 C3.55228475,6 4,5.55228475 4,5 C4,4.44771525 3.55228475,4 3,4 Z M11.4285714,7 C13.5983214,7 15.3571429,8.75882143 15.3571429,10.9285714 C15.3571429,13.0983214 13.5983214,14.8571429 11.4285714,14.8571429 C9.25882143,14.8571429 7.5,13.0983214 7.5,10.9285714 C7.5,8.75882143 9.25882143,7 11.4285714,7 Z M14.3765345,7.25320869 C15.8662488,7.81145872 16.9285714,9.244 16.9285714,10.9285714 C16.9285714,12.6131429 15.8662488,14.0456842 14.3765345,14.6039342 C15.4525702,13.7400414 16.1428571,12.4159286 16.1428571,10.9285714 C16.1428571,9.44121429 15.4525702,8.11710154 14.3765345,7.25320869 Z M15.9479631,7.25320869 C17.4376774,7.81145872 18.5,9.244 18.5,10.9285714 C18.5,12.6131429 17.4376774,14.0456842 15.9479631,14.6039342 C17.0239988,13.7400414 17.7142857,12.4159286 17.7142857,10.9285714 C17.7142857,9.44121429 17.0239988,8.11710154 15.9479631,7.25320869 Z M13.2999063,7.96853701 L13.2371573,8.02184358 L11.52,9.80768716 L9.80284271,8.02184358 C9.646633,7.85938547 9.393367,7.85938547 9.23715729,8.02184358 C9.10047379,8.16399442 9.08338835,8.38342632 9.18590097,8.54489743 L9.23715729,8.61015642 L11.12,10.5683128 L11.12,10.812 L9.92,10.812 C9.6990861,10.812 9.52,11.0238765 9.52,11.2852394 C9.52,11.517562 9.66150013,11.7107843 9.84809949,11.7508544 L9.92,11.7584789 L11.12,11.7584789 L11.12,12.06 L9.92,12.06 C9.6990861,12.06 9.52,12.2718765 9.52,12.5332394 C9.52,12.765562 9.66150013,12.9587843 9.84809949,12.9988544 L9.92,13.0064789 L11.12,13.0064789 L11.12,13.724 C11.12,13.9537505 11.3318765,14.14 11.5932394,14.14 C11.825562,14.14 12.0187843,13.9928399 12.0588544,13.7987765 L12.0664789,13.724 L12.0664789,13.0064789 L13.12,13.0064789 C13.3409139,13.0064789 13.52,12.7946024 13.52,12.5332394 C13.52,12.3009168 13.3784999,12.1076946 13.1919005,12.0676245 L13.12,12.06 L12.0664789,12.06 L12.0664789,11.7584789 L13.12,11.7584789 C13.3409139,11.7584789 13.52,11.5466024 13.52,11.2852394 C13.52,11.0529168 13.3784999,10.8596946 13.1919005,10.8196245 L13.12,10.812 L12.0664789,10.812 L12.0664789,10.4159748 L13.8028427,8.61015642 C13.9590524,8.44769832 13.9590524,8.18430168 13.8028427,8.02184358 C13.6661592,7.87969274 13.455167,7.86192388 13.2999063,7.96853701 Z" />
</svg>