<svg xmlns="http://www.w3.org/2000/svg" viewBox="0 0 17.5 17.5">
  <path transform="translate(1 3.5)"
    d="M0.765456182,0.904901961 L14.6904262,0.904901961 C15.0951918,0.904901961 15.4233193,1.22700821 15.4233193,1.62434641 L15.4233193,8.81879085 C15.4233193,9.21612901 15.0951918,9.53823529 14.6904262,9.53823529 L0.765456182,9.53823529 C0.360690468,9.53823529 0.0325630252,9.21612901 0.0325630252,8.81879085 L0.0325630252,1.62434641 C0.0325630252,1.22700821 0.360690468,0.904901961 0.765456182,0.904901961 Z M7.72794118,8.09934641 C9.34700403,8.09934641 10.6595138,6.81092141 10.6595138,5.22156863 C10.6595138,3.63221585 9.34700403,2.34379085 7.72794118,2.34379085 C6.10887832,2.34379085 4.79636855,3.63221585 4.79636855,5.22156863 C4.79636855,6.81092141 6.10887832,8.09934641 7.72794118,8.09934641 Z M7.72794118,6.66045752 C8.5374726,6.66045752 9.19372749,6.01624502 9.19372749,5.22156863 C9.19372749,4.42689224 8.5374726,3.78267974 7.72794118,3.78267974 C6.91840975,3.78267974 6.26215486,4.42689224 6.26215486,5.22156863 C6.26215486,6.01624502 6.91840975,6.66045752 7.72794118,6.66045752 Z" />
</svg>