<svg xmlns="http://www.w3.org/2000/svg" viewBox="0 0 24 24">
  <path
    d="M19.4489955,0 C20.8568759,0 22,0.983035714 22,2.19375 L22,21.8089286 C22,23.0196429 20.8568759,24 19.4489955,24 L4.55100452,24 C3.14312412,24 2,23.0169643 2,21.80625 L2,2.19375 C2,0.983035714 3.14312412,0 4.55100452,0 L19.4489955,0 Z M12,18.8439572 L5.99626152,18.8439572 C5.01643192,18.8439572 4.22222222,19.5504128 4.22222222,20.4219786 C4.22222222,21.2935445 5.01643192,22 5.99626152,22 L12,22 C12.9798296,22 13.7740393,21.2962512 13.7740393,20.4219786 C13.7740393,19.5504128 12.9798296,18.8439572 12,18.8439572 Z M18.1111111,18.9214521 C17.1905851,18.9214521 16.4444444,19.6105611 16.4444444,20.4607261 C16.4444444,21.3108911 17.1905851,22 18.1111111,22 C19.0316371,22 19.774919,21.3135314 19.7777778,20.4607261 C19.7777778,19.6105611 19.0316371,18.9214521 18.1111111,18.9214521 Z M18.1111111,14.3907591 C17.1905851,14.3907591 16.4444444,15.079868 16.4444444,15.930033 C16.4444444,16.780198 17.1905851,17.4693069 18.1111111,17.4693069 C19.0316371,17.4693069 19.774919,16.780198 19.7777778,15.930033 C19.7777778,15.079868 19.0316371,14.3907591 18.1111111,14.3907591 Z M5.99626152,14.199215 C5.01643192,14.199215 4.22222222,14.9056706 4.22222222,15.7772364 C4.22222222,16.6488023 5.01643192,17.3552578 5.99626152,17.3552578 C6.97609111,17.3552578 7.77030082,16.6488023 7.77030082,15.7772364 C7.77030082,14.9056706 6.97609111,14.199215 5.99626152,14.199215 Z M12,14.199215 C11.0201704,14.199215 10.2259607,14.9056706 10.2259607,15.7772364 C10.2259607,16.6488023 11.0201704,17.3552578 12,17.3552578 C12.9798296,17.3552578 13.7740393,16.6488023 13.7740393,15.7772364 C13.7740393,14.9056706 12.9798296,14.199215 12,14.199215 Z M18.1111111,10 C17.1905851,10 16.4444444,10.6891089 16.4444444,11.5392739 C16.4444444,12.3894389 17.1905851,13.0785479 18.1111111,13.0785479 C19.0316371,13.0785479 19.774919,12.3894389 19.7777778,11.5392739 C19.7777778,10.6891089 19.0316371,10 18.1111111,10 Z M12,9.69792935 C11.0201704,9.69792935 10.2259607,10.4043849 10.2259607,11.2759507 C10.2259607,12.1475166 11.0201704,12.8539721 12,12.8539721 C12.9798296,12.8539721 13.7740393,12.1475166 13.7740393,11.2759507 C13.7740393,10.4043849 12.9798296,9.69792935 12,9.69792935 Z M5.99626152,9.69792935 C5.01643192,9.69792935 4.22222222,10.4043849 4.22222222,11.2759507 C4.22222222,12.1475166 5.01643192,12.8539721 5.99626152,12.8539721 C6.97609111,12.8539721 7.77030082,12.1475166 7.77030082,11.2759507 C7.77030082,10.4043849 6.97609111,9.69792935 5.99626152,9.69792935 Z M18.7614328,2 L5.23856721,2 C4.67866458,2 4.22222222,2.40330221 4.22222222,2.90404656 L4.22222222,7.27540939 C4.22222222,7.77344702 4.67562163,8.17945595 5.23856721,8.17945595 L18.7614328,8.17945595 C19.3243784,8.17945595 19.7777778,7.77615374 19.7777778,7.27540939 L19.7777778,2.90404656 C19.7777778,2.40600893 19.3243784,2 18.7614328,2 Z" />
</svg>