<svg xmlns="http://www.w3.org/2000/svg" viewBox="0 0 16 16">
  <path
    d="M12,2 L13,2 C14.1045695,2 15,2.8954305 15,4 L15,14 C15,15.1045695 14.1045695,16 13,16 L3,16 C1.8954305,16 1,15.1045695 1,14 L1,4 C1,2.8954305 1.8954305,2 3,2 L4,2 L4,1 C4,0.44771525 4.44771525,1.01453063e-16 5,0 C5.55228475,-1.01453063e-16 6,0.44771525 6,1 L6,2 L10,2 L10,1 C10,0.44771525 10.4477153,1.01453063e-16 11,0 C11.5522847,-1.01453063e-16 12,0.44771525 12,1 L12,2 Z M3,6 C2.72385763,6 2.5,6.22385763 2.5,6.5 L2.5,14 C2.5,14.2761424 2.72385763,14.5 3,14.5 L13,14.5 C13.2761424,14.5 13.5,14.2761424 13.5,14 L13.5,6.5 C13.5,6.22385763 13.2761424,6 13,6 L3,6 Z M9,9 L11,9 C11.5522847,9 12,9.44771525 12,10 L12,12 C12,12.5522847 11.5522847,13 11,13 L9,13 C8.44771525,13 8,12.5522847 8,12 L8,10 C8,9.44771525 8.44771525,9 9,9 Z" />
</svg>