<?xml version="1.0" encoding="UTF-8"?>
<svg viewBox="0 0 16 16" version="1.1" xmlns="http://www.w3.org/2000/svg" xmlns:xlink="http://www.w3.org/1999/xlink">
    <g stroke="none" stroke-width="1" fill="none" fill-rule="evenodd">
        <g>
            <rect x="0" y="0" width="16" height="16"></rect>
            <path
                d="M5.64813614,1 L2.83884795,1 C1.82390243,1.0011203 1.00140593,1.82361679 1.00028563,2.83856232 L1.00028563,5.64785051 C1.00166453,6.66258745 1.8241106,7.48475373 2.83884795,7.48578736 L7.48607299,7.48578736 L7.48607299,2.83856232 C7.4849534,1.82386062 6.6628374,1.00146484 5.64813614,1 L5.64813614,1 Z M6.63809516,6.63780952 L2.83837885,6.63780952 C2.29188965,6.63720629 1.84902307,6.19433971 1.84841984,5.64785051 L1.84841984,2.83856232 C1.84902307,2.29207312 2.29188965,1.84920654 2.83837885,1.8486033 L5.64813614,1.8486033 C6.19462535,1.84920654 6.63749192,2.29207312 6.63809516,2.83856232 L6.63809516,6.63780952 Z M1.00028563,10.3523059 L1.00028563,13.1619068 C1.00157822,14.1767302 1.82402435,14.9990364 2.83884795,15.0001564 L5.64813614,15.0001564 C6.66271548,14.9986919 7.48478115,14.1764864 7.48607299,13.1619068 L7.48607299,8.5138999 L2.83884795,8.5138999 C1.82392772,8.51493404 1.00140609,9.33738572 1.00028563,10.3523059 L1.00028563,10.3523059 Z M6.63809516,13.1619068 C6.63749192,13.708396 6.19462535,14.1512626 5.64813614,14.1518658 L2.83884795,14.1518658 C2.29235875,14.1512626 1.84949217,13.708396 1.84888894,13.1619068 L1.84888894,10.3523059 C1.84940601,9.80575559 2.29229777,9.36279387 2.83884795,9.36219047 L6.63856426,9.36219047 L6.63809516,13.1619068 Z M13.1621924,1 L10.3525915,1 C9.33764596,1.0011203 8.51514947,1.82361679 8.51402917,2.83856232 L8.51402917,7.48578736 L13.1621924,7.48578736 C14.1767466,7.48449532 14.9989073,6.66240456 15.0002856,5.64785051 L15.0002856,2.83856232 C14.9992518,1.82376402 14.1769904,1.00129276 13.1621924,1 L13.1621924,1 Z M14.1521514,5.64785051 C14.1514622,6.19430404 13.7086459,6.63712032 13.1621924,6.63780952 L9.36247611,6.63780952 L9.36247611,2.83809322 C9.36307934,2.29160401 9.80594592,1.84873744 10.3524351,1.8481342 L13.1621924,1.8481342 C13.7086459,1.84882341 14.1514622,2.29163968 14.1521514,2.83809322 L14.1521514,5.64785051 Z M13.1621924,8.5138999 L8.51402917,8.5138999 L8.51402917,13.1619068 C8.51532176,14.1767302 9.33776789,14.9990364 10.3525915,15.0001564 L13.1621924,15.0001564 C14.1768685,14.998864 14.9990795,14.176583 15.0002856,13.1619068 L15.0002856,10.3523059 C14.9991657,9.33756862 14.1769294,8.5151925 13.1621924,8.5138999 L13.1621924,8.5138999 Z M14.1518387,13.1619068 C14.1509777,13.7081163 13.7084019,14.1506921 13.1621924,14.1515531 L10.3525915,14.1515531 C9.80616314,14.1510363 9.3632518,13.7083348 9.36247611,13.1619068 L9.36247611,9.36219047 L13.1621924,9.36219047 C13.7086459,9.36287968 14.1514622,9.80569596 14.1521514,10.3521495 L14.1518387,13.1619068 Z"
                fill="currentColor" fill-rule="nonzero"></path>
        </g>
    </g>
</svg>