<svg viewBox="0 0 24 24" fill="none" xmlns="http://www.w3.org/2000/svg">
  <path
    d="M2 1C2.55228 1 3 1.44772 3 2V21H11.0264C11.0108 21.0797 11 21.1627 11 21.25C11 22.25 11.75 23 13 23H2C1.44772 23 1 22.5523 1 22V2C1 1.44772 1.44772 1 2 1Z"
    fill="currentColor" />
  <path d="M19 21C19 22.1046 18.1046 23 17 23C15.8954 23 15 22.1046 15 21H19Z" fill="currentColor" />
  <path
    d="M17 11C19.2091 11 21 12.7909 21 15V17.5C21.069 18.2981 21.7019 18.931 22.5 19C22.7761 19 23 19.2239 23 19.5C23 19.7761 22.7761 20 22.5 20H11.5C11.2239 20 11 19.7761 11 19.5C11 19.2239 11.2239 19 11.5 19C12.2981 18.931 12.931 18.2981 13 17.5V15C13 12.7909 14.7909 11 17 11Z"
    fill="currentColor" />
  <path
    d="M22.5664 3.87988L18.9004 9.89355L15.8203 6.66699L13.4736 8.42676L10.0996 15.7598L6.87305 10.4805L4.82031 12.6797L3.5 11.2129L7.01953 7.40039L9.95312 11.5068L11.7129 7.40039L15.9668 4.17285L18.6064 6.95996L20.9531 3L22.5664 3.87988Z"
    fill="currentColor" />
</svg>