<svg xmlns="http://www.w3.org/2000/svg" viewBox="0 0 16 16">
  <path d="M13.9836591,2.68989415 L7.73500947,8.86671459 L5.19810645,6.3931905 C4.80267389,6.00763696 4.16955956,6.01564548 3.78400602,6.41107803 C3.39845247,6.80651059 3.40646099,7.43962492 3.80189355,7.82517847 L7.04171527,10.9840604 C7.43200449,11.3645991 8.05516262,11.3624592 8.44282911,10.9792489 L15.1302712,4.36868005 C15.6863815,5.45845262 16,6.69260154 16,8 C16,12.418278 12.418278,16 8,16 C3.581722,16 0,12.418278 0,8 C0,3.581722 3.581722,-4.4408921e-16 8,-4.4408921e-16 C10.3805218,-4.4408921e-16 12.5181962,1.03975283 13.9836591,2.68989415 Z" />
</svg>