<svg width="14" height="14" viewBox="0 0 14 14" xmlns="http://www.w3.org/2000/svg">
  <path
    d="M10.7148 5.52441L6.34375 9.89648L3.25488 6.80762L4.18262 5.87988L6.34375 8.04004L9.78711 4.59668L10.7148 5.52441Z" />
  <path fill-rule="evenodd" clip-rule="evenodd"
    d="M7 0.21875C10.7452 0.21875 13.7812 3.25482 13.7812 7C13.7812 10.7452 10.7452 13.7812 7 13.7812C3.25482 13.7812 0.21875 10.7452 0.21875 7C0.21875 3.25482 3.25482 0.21875 7 0.21875ZM7 1.53125C3.97969 1.53125 1.53125 3.97969 1.53125 7C1.53125 10.0203 3.97969 12.4688 7 12.4688C10.0203 12.4688 12.4688 10.0203 12.4688 7C12.4688 3.97969 10.0203 1.53125 7 1.53125Z" />
</svg>