<svg xmlns="http://www.w3.org/2000/svg" viewBox="0 0 12 12">
  <g transform="translate(-2.000000, -2.000000)">
    <g>
      <path
        d="M14.0059397,0 C15.1072288,0 16,0.894513756 16,1.99406028 L16,14.0059397 C16,15.1072288 15.1054862,16 14.0059397,16 L1.99406028,16 C0.892771196,16 0,15.1054862 0,14.0059397 L0,1.99406028 C0,0.892771196 0.894513756,0 1.99406028,0 L14.0059397,0 Z M14.0059397,1 L1.99406028,1 C1.44606163,1 1,1.44579254 1,1.99406028 L1,14.0059397 C1,14.5539384 1.44579254,15 1.99406028,15 L14.0059397,15 C14.5539384,15 15,14.5542075 15,14.0059397 L15,1.99406028 C15,1.44606163 14.5542075,1 14.0059397,1 Z">
      </path>
      <g transform="translate(2.500000, 7.000000)">
        <polygon points="0 1.4 0 0 11 0 11 1.4"></polygon>
      </g>
    </g>
  </g>
</svg>