<?xml version="1.0" encoding="UTF-8"?>
<svg viewBox="0 0 16 16" version="1.1" xmlns="http://www.w3.org/2000/svg" xmlns:xlink="http://www.w3.org/1999/xlink">
    <g stroke="none" stroke-width="1" fill="none" fill-rule="evenodd">
        <g>
            <rect fill-rule="nonzero" x="0" y="0" width="16" height="16"></rect>
            <path
                d="M8,1 C9.1045695,1 10,1.8954305 10,3 L10,3.767 L14,3.76768714 C14.5522847,3.76768714 15,4.21540239 15,4.76768714 L15,6.76768714 C15,7.31997189 14.5522847,7.76768714 14,7.76768714 L12.494,7.767 L13.2528141,13.875 C13.3300131,14.4963203 12.990204,15 12.4938293,15 L3.50617068,15 C3.009796,15 2.66998694,14.4963203 2.7471859,13.875 L3.505,7.767 L2,7.76768714 C1.44771525,7.76768714 1,7.31997189 1,6.76768714 L1,4.76768714 C1,4.21540239 1.44771525,3.76768714 2,3.76768714 L6,3.767 L6,3 C6,1.8954305 6.8954305,1 8,1 Z M10.982,7.767 L5.017,7.767 L4.3042512,13.5 L5.767,13.5 L6.00220914,10.4424776 C6.02868308,10.0983164 6.28347805,9.82634248 6.60667519,9.76362922 L6.70552647,9.75123014 L6.80752237,9.75220914 C7.22051586,9.78397787 7.52955959,10.1445289 7.49779086,10.5575224 L7.271,13.5 L11.6952512,13.5 L10.982,7.767 Z M13.5,5.26768714 L2.5,5.26768714 L2.5,6.26768714 L13.5,6.26768714 L13.5,5.26768714 Z M8,2.5 C7.72385763,2.5 7.5,2.72385763 7.5,3 L7.5,3.75 L7.502,3.767 L8.49951172,3.76720784 C8.49983724,3.76148891 8.5,3.75575297 8.5,3.75 L8.5,3 C8.5,2.72385763 8.27614237,2.5 8,2.5 Z"
                fill="currentColor"></path>
        </g>
    </g>
</svg>