<svg width="17" height="17" viewBox="0 0 17 17" xmlns="http://www.w3.org/2000/svg">
  <path fill-rule="evenodd" clip-rule="evenodd"
    d="M2.93787 2.92334C5.56877 0.292446 9.83428 0.292515 12.4652 2.92334C14.9409 5.39908 15.0864 9.32178 12.9027 11.9683L14.5824 13.6489L13.6635 14.5679L11.9828 12.8882C9.33631 15.0716 5.41354 14.9263 2.93787 12.4507C0.307125 9.81982 0.307208 5.55425 2.93787 2.92334ZM6.7826 5.08936H4.86659V6.00928H6.54432C6.48309 6.23514 6.41946 6.46166 6.35389 6.68896H4.20252V7.60889H6.08436C6.03455 7.77659 5.98769 7.94255 5.93787 8.10498C5.82059 8.49948 5.70608 8.85141 5.59412 9.16064L6.3617 9.1665V9.16943H9.14686C8.93279 9.38573 8.70619 9.6102 8.4662 9.84131C8.32514 9.97704 8.18335 10.1067 8.04627 10.2358C7.79163 10.1528 7.53725 10.0737 7.2826 10.0015C6.92549 9.89487 6.59177 9.80612 6.2826 9.73682L5.76991 10.4575C6.08985 10.5428 6.42925 10.6439 6.78651 10.7612C7.14889 10.8785 7.50606 11.004 7.8578 11.1372C8.20967 11.2705 8.53826 11.4033 8.84217 11.5366C9.15135 11.6699 9.40713 11.7988 9.60975 11.9214L10.1781 11.0815C9.94881 10.9642 9.67629 10.8413 9.3617 10.7134C9.26118 10.6725 9.15798 10.6326 9.05311 10.5923C9.15221 10.4951 9.25349 10.3978 9.35389 10.2974C9.64719 10.0094 9.93303 9.72604 10.2103 9.44873C10.4875 9.1662 10.7409 8.90197 10.9701 8.65674L10.2338 8.2251L10.0746 8.28076H6.89295C6.90476 8.24122 6.91808 8.20117 6.93006 8.16064C6.98551 7.98171 7.03944 7.79735 7.09608 7.60889H11.3461V6.68896H7.36659C7.43013 6.4632 7.49156 6.23652 7.55213 6.00928H10.7699V5.08936H7.79627C7.85577 4.86494 7.91529 4.6466 7.9701 4.43311L6.9701 4.30518C6.91206 4.55784 6.84939 4.8192 6.7826 5.08936Z" />
</svg>