<svg xmlns="http://www.w3.org/2000/svg" viewBox="0 0 12 12">
  <path
    d="M4.00107296,11 C3.7453505,10.6233403 3.47979256,10.2562893 3.20439914,9.89884696 C4.63251073,9.10709294 5.73408441,8.30765199 6.50912017,7.50052411 C6.02521459,6.80870021 5.62589413,6.02655486 5.3111588,5.15408805 C5.00822604,4.31621244 4.76037196,3.32844165 4.56759657,2.19077568 L5.65933476,1.91404612 L4.16040773,1.91404612 L4.16040773,0.761006289 L10.2682403,0.761006289 L10.2682403,1.91404612 C9.99678112,3.15164221 9.69778255,4.20090846 9.37124464,5.06184486 C9.01716738,5.9881202 8.58637339,6.80101328 8.07886266,7.50052411 C8.79881974,8.28074773 9.77253219,9.00716282 11,9.67976939 C10.9409871,9.77201258 10.8426323,9.92190776 10.7049356,10.1294549 C10.4767525,10.4792103 10.3213519,10.7175052 10.2387339,10.8443396 C8.95225322,10.0218379 7.97067239,9.23392732 7.29399142,8.48060797 C6.45994278,9.34923131 5.36230329,10.1890287 4.00107296,11 Z M1.64645923,10.9365828 L1.64645923,5.63259958 C1.29631617,6.57809224 0.841917024,7.45824598 0.283261803,8.2730608 C0.247854077,8.0001747 0.163268956,7.51397624 0.0295064378,6.81446541 C0.0177038627,6.74143955 0.0078683834,6.68570929 0,6.64727463 C0.361945637,6.15915444 0.666845494,5.65469951 0.914699571,5.13390985 C1.16255365,4.6131202 1.39860515,3.98759609 1.62285408,3.25733753 L0.218347639,3.25733753 L0.218347639,2.15618449 L1.64645923,2.15618449 L1.64645923,0 L2.76180258,0 L2.76180258,2.15618449 L4.0777897,2.15618449 L4.0777897,3.25733753 L2.76180258,3.25733753 L2.76180258,4.98113208 L3.20439914,4.57756813 C3.72764664,5.08106219 4.19778255,5.56918239 4.61480687,6.04192872 L3.86534335,6.83176101 C3.71584406,6.6511181 3.46405579,6.35709294 3.10997854,5.94968553 C2.95261087,5.77672956 2.83655222,5.64605171 2.76180258,5.55765199 L2.76180258,10.9365828 L1.64645923,10.9365828 Z M7.30579399,6.51467505 C7.71888412,5.91893781 8.06509299,5.24056604 8.3444206,4.47955975 C8.60801144,3.75698812 8.83029328,2.90181691 9.01126609,1.91404612 L5.68293991,1.91404612 C5.85604435,2.90566038 6.06652361,3.76275332 6.31437768,4.48532495 C6.57796853,5.24633124 6.90844063,5.92278127 7.30579399,6.51467505 Z">
  </path>
</svg>