<svg xmlns="http://www.w3.org/2000/svg" viewBox="0 0 16 16">
  <path
    d="M3.11044776,16 C2.6691065,16 2.31641791,15.703883 2.31641791,15.2631579 L2.31641791,8.50526316 C2.31641791,8.06453804 2.6691065,7.76842105 3.11044776,7.76842105 C3.55178902,7.76842105 3.90447761,8.06453804 3.90447761,8.50526316 L3.90447761,15.2631579 C3.90447761,15.7010841 3.52302521,16 3.11044776,16 Z M5.22089552,4.21052632 C5.22089552,5.39043568 4.28155184,6.33684211 3.11044776,6.33684211 C1.93934369,6.33684211 1,5.39043568 1,4.21052632 C1,3.34315575 1.53681764,2.57248264 2.31641791,2.24110306 L2.31641791,0.8 C2.31641791,0.340090632 2.65397055,0 3.11044776,0 C3.53654864,0 3.90447761,0.345982333 3.90447761,0.8 L3.90447761,2.24110306 C4.68407788,2.57248264 5.22089552,3.34315575 5.22089552,4.21052632 Z M15,6.10526316 C15,7.28517253 14.0606563,8.23157895 12.8895522,8.23157895 C11.7184482,8.23157895 10.7791045,7.28517253 10.7791045,6.10526316 C10.7791045,5.23789259 11.3159221,4.46721948 12.0955224,4.1358399 L12.0955224,0.8 C12.0955224,0.340090632 12.433075,0 12.8895522,0 C13.3156531,0 13.6835821,0.345982333 13.6835821,0.8 L13.6835821,4.1358399 C14.4631824,4.46721948 15,5.23789259 15,6.10526316 Z M12.8895522,16 C12.4467674,16 12.0955224,15.6991862 12.0955224,15.2568306 L12.0955224,10.0063273 C12.0955224,9.56397172 12.4467674,9.26315789 12.8895522,9.26315789 C13.3323371,9.26315789 13.6835821,9.56397172 13.6835821,10.0063273 L13.6835821,15.2568306 C13.6835821,15.6960916 13.3033766,16 12.8895522,16 Z M5.88955224,11.7894737 C5.88955224,10.6095643 6.82889593,9.66315789 8,9.66315789 C9.17110407,9.66315789 10.1104478,10.6095643 10.1104478,11.7894737 C10.1104478,12.6568443 9.57363012,13.4275174 8.79402985,13.7588969 L8.79402985,15.2 C8.79402985,15.6540177 8.42610088,16 8,16 C7.54352279,16 7.20597015,15.6599094 7.20597015,15.2 L7.20597015,13.7588969 C6.42636988,13.4275174 5.88955224,12.6568443 5.88955224,11.7894737 Z M8,8.23157895 C7.55955693,8.23157895 7.20597015,7.9384657 7.20597015,7.49873418 L7.20597015,0.73284477 C7.20597015,0.293113248 7.55955693,0 8,0 C8.44044307,0 8.79402985,0.293113248 8.79402985,0.73284477 L8.79402985,7.49873418 C8.79402985,7.90728649 8.40283113,8.23157895 8,8.23157895 Z" />
</svg>