<svg viewBox="0 0 16 16" fill="none" xmlns="http://www.w3.org/2000/svg">
  <path fill-rule="evenodd" clip-rule="evenodd"
    d="M12.7046 4.05811C12.3566 6.30207 11.6725 8.23431 10.6646 9.84229C11.4324 10.922 12.3922 11.9059 13.5679 12.7817L12.98 13.478C11.8521 12.5901 10.9046 11.6177 10.1606 10.5737C9.32067 11.7137 8.28861 12.6743 7.07666 13.4663L6.52393 12.77C7.78384 11.9301 8.82807 10.9461 9.64404 9.80615C8.57604 8.07815 7.95267 6.16982 7.78467 4.06982H7.3042V3.2417H12.7046V4.05811ZM8.62451 4.06982C8.7685 5.91765 9.2721 7.5737 10.1479 9.0376C11.0119 7.59763 11.5768 5.94177 11.8647 4.06982H8.62451Z"
    fill="currentColor" />
  <path
    d="M5.43213 4.86182H7.01611V5.68994H5.43213V6.37354C6.03208 6.94949 6.6444 7.60966 7.25635 8.32959L6.76416 9.06201C6.24819 8.31806 5.80411 7.71819 5.43213 7.26221V13.4663H4.56787V7.23779C4.13587 8.50979 3.54792 9.65041 2.81592 10.6704L2.43213 9.69775C3.41611 8.52177 4.12444 7.18992 4.54443 5.68994H2.68408V4.86182H4.56787V2.52197H5.43213V4.86182Z"
    fill="currentColor" />
  <path
    d="M14 15V16H2V15H14ZM15 14V2C15 1.44772 14.5523 1 14 1H2C1.44772 1 1 1.44772 1 2V14C1 14.5523 1.44772 15 2 15V16C0.895431 16 0 15.1046 0 14V2C0 0.895431 0.895431 0 2 0H14C15.1046 0 16 0.895431 16 2V14C16 15.1046 15.1046 16 14 16V15C14.5523 15 15 14.5523 15 14Z"
    fill="currentColor" fill-opacity="0.5" />
</svg>