<svg width="18" height="18" viewBox="0 0 18 18" fill="none" xmlns="http://www.w3.org/2000/svg">
  <circle cx="9" cy="9" r="9" fill="currentColor" fill-opacity="0.2" />
  <path
    d="M6.44385 7.94801V14.152H5.57985V7.92401C5.14785 9.19601 4.55985 10.336 3.82785 11.356L3.44385 10.384C4.42785 9.20801 5.13585 7.87601 5.55585 6.37601H3.69585V5.54801H5.57985V3.20801H6.44385V5.54801H8.02785V6.37601H6.44385V7.06001C7.04385 7.63601 7.65585 8.29601 8.26785 9.01601L7.77585 9.74801C7.25985 9.00401 6.81585 8.40401 6.44385 7.94801ZM12.8758 4.75601H9.63585C9.77985 6.60401 10.2838 8.26001 11.1598 9.72401C12.0238 8.28401 12.5878 6.62801 12.8758 4.75601ZM10.6558 10.492C9.58785 8.76401 8.96385 6.85601 8.79585 4.75601H8.31585V3.92801H13.7158V4.74401C13.3678 6.98801 12.6838 8.92001 11.6758 10.528C12.4438 11.608 13.4038 12.592 14.5798 13.468L13.9918 14.164C12.8638 13.276 11.9158 12.304 11.1718 11.26C10.3318 12.4 9.29985 13.36 8.08785 14.152L7.53585 13.456C8.79585 12.616 9.83985 11.632 10.6558 10.492Z"
    fill="currentColor" />
</svg>