<svg xmlns="http://www.w3.org/2000/svg" viewBox="0 0 24 24">
  <path
    d="M16.4266548,21.9127345 C16.3490491,22.6067373 15.8593448,23.1815629 15.1929627,23.3608692 L13.0318862,23.9450088 C12.1413139,24.1792767 11.2305314,23.6437181 10.9896942,22.7441584 C10.7518173,21.8443546 11.2762813,20.9189372 12.1633094,20.6733128 L14.3239629,20.0891732 C14.8882563,19.9361272 15.4905273,20.0907589 15.9147318,20.4975995 C17.5460095,19.836109 18.9183891,18.6513947 19.8218465,17.1247613 L19.2710004,17.1247613 C17.6235392,17.1247613 16.2883087,15.7764831 16.2883087,14.1136353 L16.2883087,11.1025093 C16.2883087,9.43966144 17.6235392,8.09181184 19.2710004,8.09181184 L20.0168849,8.09181184 C20.1243464,8.09181184 20.2309618,8.09738324 20.3358849,8.1089546 C19.1956928,4.7172593 15.9003472,2.25770165 12,2.25770165 C8.0996563,2.25770165 4.80431074,4.71768787 3.66411864,8.10852603 C3.7690417,8.09738324 3.87565706,8.09138327 3.98311858,8.09138327 L4.72900306,8.09138327 C6.3764643,8.09138327 7.71169483,9.43966144 7.71169483,11.1025093 L7.71169483,14.1136353 C7.71169483,15.7764831 6.3764643,17.1243327 4.72900306,17.1243327 L3.9826955,17.1243327 C2.33565734,17.1243327 1,15.7764831 1,14.1136353 L1,11.1025093 C1,11.0240811 1.00296527,10.9460816 1.00846527,10.8689391 C1.00270867,10.8215934 1,10.773929 1,10.7262257 C1,4.79225888 5.934349,0 12,0 C18.0656545,0 23,4.79225888 23,10.7262257 C23,10.774654 22.9970382,10.8222251 22.9915382,10.8689391 C22.9970382,10.9460816 23,11.0240811 23,11.1025093 L23,14.1136353 C23.0003689,15.0831287 22.5387268,15.9931815 21.7603846,16.5573359 C20.7816804,19.0073288 18.853464,20.9432252 16.4262317,21.9127345 L16.4266548,21.9127345 Z" />
</svg>