<svg xmlns="http://www.w3.org/2000/svg" viewBox="0 0 16 16">
  <path
    d="M1.875,6.425 L3.45,6.425 L3.45,8 L1.875,8 L1.875,6.425 Z M8,13.425 L9.575,13.425 L9.575,15 L8,15 L8,13.425 Z M6.46613546,11.9908367 L1.55776892,11.9908367 C1.22310757,11.9908367 1,11.7677291 1,11.4330677 C1,11.0984064 1.22310757,10.8752988 1.55776892,10.8752988 L6.35458167,10.8752988 L5.12749004,9.64820717 C4.90438247,9.4250996 4.90438247,9.09043825 5.12749004,8.86733068 C5.35059761,8.64422311 5.68525896,8.64422311 5.90836653,8.86733068 L8.13944223,11.0984064 C8.3625498,11.3215139 8.3625498,11.6561753 8.13944223,11.8792829 L5.90836653,14.1103586 C5.79681275,14.2219124 5.68525896,14.2219124 5.46215139,14.2219124 C5.23904382,14.2219124 5.12749004,14.2219124 5.01593625,14.1103586 C4.79282869,13.887251 4.79282869,13.5525896 5.01593625,13.3294821 L6.46613546,11.9908367 Z M12.7689243,8.4375 C13.6613546,8.4375 14.2191235,8.88241525 14.4422311,9.21610169 C14.7768924,9.77224576 15,10.5508475 15,11.6631356 C15,12.7754237 14.7768924,13.5540254 14.4422311,14.1101695 C14.1075697,14.6663136 13.5498008,15 12.7689243,15 C11.7649402,15 11.3187251,14.5550847 11.0956175,14.1101695 C10.7609562,13.5540254 10.5378486,12.7754237 10.5378486,11.6631356 C10.5378486,10.5508475 10.7609562,9.77224576 11.0956175,9.32733051 C11.4302789,8.77118644 11.9880478,8.4375 12.7689243,8.4375 Z M12.7689243,9.43855932 C12.3227092,9.43855932 12.0996016,9.66101695 11.9880478,9.77224576 C11.7649402,10.217161 11.6533865,10.7733051 11.6533865,11.6631356 C11.6533865,12.5529661 11.7649402,13.220339 11.9880478,13.5540254 C12.0996016,13.6652542 12.3227092,13.8877119 12.7689243,13.8877119 C13.2151394,13.8877119 13.438247,13.6652542 13.5498008,13.5540254 C13.7729084,13.220339 13.8844622,12.5529661 13.8844622,11.6631356 C13.8844622,10.7733051 13.7729084,10.1059322 13.5498008,9.77224576 C13.438247,9.66101695 13.2151394,9.43855932 12.7689243,9.43855932 Z M12.7689243,1 C13.7729084,1 14.2191235,1.4375 14.4422311,1.765625 C14.7768924,2.3125 15,3.078125 15,4.171875 C15,5.265625 14.7768924,6.140625 14.4422311,6.6875 C14.1075697,7.234375 13.5498008,7.5625 12.7689243,7.5625 C11.876494,7.5625 11.3187251,7.125 11.0956175,6.796875 C10.7609562,6.25 10.5378486,5.484375 10.5378486,4.390625 C10.5378486,3.296875 10.7609562,2.421875 11.0956175,1.875 C11.4302789,1.328125 11.9880478,1 12.7689243,1 Z M12.7689243,2.09375 C12.3227092,2.09375 12.0996016,2.3125 11.9880478,2.421875 C11.7649402,2.75 11.6533865,3.40625 11.6533865,4.28125 C11.6533865,5.15625 11.7649402,5.8125 11.9880478,6.140625 C12.0996016,6.25 12.3227092,6.46875 12.7689243,6.46875 C13.2151394,6.46875 13.438247,6.25 13.5498008,6.140625 C13.7729084,5.703125 13.8844622,5.15625 13.8844622,4.28125 C13.8844622,3.40625 13.7729084,2.75 13.5498008,2.421875 C13.438247,2.3125 13.2151394,2.09375 12.7689243,2.09375 Z M7.19123506,1 C8.19521912,1 8.64143426,1.44491525 8.86454183,1.88983051 C9.19920319,2.44597458 9.42231076,3.22457627 9.42231076,4.33686441 C9.42231076,5.44915254 9.19920319,6.22775424 8.86454183,6.67266949 C8.52988048,7.22881356 7.97211155,7.5625 7.19123506,7.5625 C6.29880478,7.5625 5.74103586,7.11758475 5.51792829,6.78389831 C5.18326693,6.22775424 4.96015936,5.44915254 4.96015936,4.33686441 C4.96015936,3.22457627 5.18326693,2.44597458 5.51792829,1.88983051 C5.85258964,1.33368644 6.41035857,1 7.19123506,1 Z M7.19123506,2.11228814 C6.74501992,2.11228814 6.52191235,2.33474576 6.41035857,2.44597458 C6.187251,2.77966102 6.07569721,3.4470339 6.07569721,4.33686441 C6.07569721,5.22669492 6.187251,5.8940678 6.41035857,6.22775424 C6.52191235,6.33898305 6.74501992,6.56144068 7.19123506,6.56144068 C7.6374502,6.56144068 7.86055777,6.33898305 7.97211155,6.22775424 C8.19521912,5.78283898 8.30677291,5.22669492 8.30677291,4.33686441 C8.30677291,3.4470339 8.19521912,2.77966102 7.97211155,2.44597458 C7.86055777,2.33474576 7.6374502,2.11228814 7.19123506,2.11228814 Z">
  </path>
</svg>