<svg viewBox="0 0 16 16" fill="none" xmlns="http://www.w3.org/2000/svg">
  <path
    d="M14 15V16H2V15H14ZM15 14V2C15 1.44772 14.5523 1 14 1H2C1.44772 1 1 1.44772 1 2V14C1 14.5523 1.44772 15 2 15V16L1.7959 15.9893C0.787223 15.887 0 15.0357 0 14V2C0 0.895431 0.895431 5.63724e-08 2 0H14C15.1046 0 16 0.895431 16 2V14C16 15.0357 15.2128 15.887 14.2041 15.9893L14 16V15C14.5523 15 15 14.5523 15 14Z"
    fill="currentColor" fill-opacity="0.5" />
  <path
    d="M5.15625 11.144C5.25215 11.216 5.34746 11.3125 5.44336 11.4204C5.73136 11.7684 6.03216 12.0203 6.36816 12.1763C6.72816 12.3442 7.26803 12.4404 7.96387 12.4644C8.58786 12.4764 9.36802 12.4888 10.292 12.4888C10.8558 12.4888 11.4317 12.4764 12.0195 12.4644C12.5955 12.4524 13.0523 12.4405 13.3643 12.4165L13.1602 13.2808H10.4121C9.76411 13.2808 9.0558 13.2683 8.2998 13.2563C7.53181 13.2443 6.91945 13.1725 6.43945 13.0405C5.97158 12.8965 5.5516 12.5964 5.17969 12.1646C5.02369 11.9606 4.86763 11.8647 4.72363 11.8647C4.43563 11.865 3.96742 12.4164 3.30762 13.52L2.66016 12.9321C3.29601 11.9244 3.85965 11.3122 4.35156 11.0962V7.44873H2.63574V6.65674H5.15625V11.144Z"
    fill="currentColor" />
  <path
    d="M9.76367 3.83643H12.7158V4.6167H9.76367V5.81592H12.4043V6.57275H9.76367V7.77197H12.8477C12.8237 9.04397 12.7283 9.87263 12.5723 10.2446C12.3803 10.7246 11.8877 10.9765 11.0957 11.0005C10.9518 11.0005 10.7719 10.9883 10.5801 10.9644L10.3281 10.2202C10.592 10.2442 10.8081 10.2681 11 10.2681C11.4797 10.256 11.7796 10.0885 11.8877 9.77686C11.9597 9.57286 11.9958 9.16425 12.0078 8.55225H9.76367V11.8882H8.92383V8.55225H5.9834V7.77197H8.92383V6.57275H6.54785V5.81592H8.92383V4.6167H6.08008V3.83643H8.92383V2.47998H9.76367V3.83643Z"
    fill="currentColor" />
  <path
    d="M3.43945 2.68408C4.2434 3.30804 4.92751 3.92048 5.47949 4.54443L4.85547 5.15674C4.37547 4.56874 3.70356 3.93253 2.85156 3.24854L3.43945 2.68408Z"
    fill="currentColor" />
</svg>