<svg xmlns="http://www.w3.org/2000/svg" viewBox="0 0 16 16">
  <path
    d="M2.64285714,4.44444444 L13.3571429,4.44444444 L12.5598214,14.7688889 C12.50613,15.4640511 11.9235408,16.0006576 11.2232143,16 L4.77589286,16 C4.07590962,16.0001927 3.49384393,15.4637101 3.44017857,14.7688889 L2.64285714,4.44444444 Z M7.99330357,7 C7.44101882,7 6.99330357,7.44771525 6.99330357,8 L6.99330357,13 C6.99330357,13.5522847 7.44101882,14 7.99330357,14 L8.00223214,14 C8.55451689,14 9.00223214,13.5522847 9.00223214,13 L9.00223214,8 C9.00223214,7.44771525 8.55451689,7 8.00223214,7 L7.99330357,7 Z M9.78571429,1.33333333 L13.8035714,1.33333333 C14.0501271,1.33333333 14.25,1.53231789 14.25,1.77777778 L14.25,2.22222222 C14.25,2.46768211 14.0501271,2.66666667 13.8035714,2.66666667 L2.19642857,2.66666667 C1.94987288,2.66666667 1.75,2.46768211 1.75,2.22222222 L1.75,1.77777778 C1.75,1.53231789 1.94987288,1.33333333 2.19642857,1.33333333 L6.21428571,1.33333333 L6.21428571,0.444444444 C6.21428571,0.198984556 6.41415859,3.79696274e-14 6.66071429,3.79696274e-14 L9.33928571,3.79696274e-14 C9.58584141,3.79696274e-14 9.78571429,0.198984556 9.78571429,0.444444444 L9.78571429,1.33333333 Z" />
</svg>