<?xml version="1.0" encoding="UTF-8"?>
<svg width="24px" height="24px" viewBox="0 0 24 24" version="1.1" xmlns="http://www.w3.org/2000/svg"
  xmlns:xlink="http://www.w3.org/1999/xlink">
  <g stroke="none" stroke-width="1" fill="none" fill-rule="evenodd">
    <g>
      <rect x="0" y="0" width="24" height="24"></rect>
      <g transform="translate(2.000000, 3.000000)" fill="currentColor" fill-rule="nonzero">
        <path
          d="M19.7400535,5.16 L15.5900535,0.65 C15.2125035,0.237309511 14.6793879,0.00157809512 14.1200535,0 L5.8800535,0 C5.32071913,0.00157809512 4.78760347,0.237309511 4.4100535,0.65 L0.260053496,5.16 C0.0910266364,5.34594777 -0.0017968289,5.58871683 2.63566213e-05,5.84 L2.63566213e-05,6.14 C-0.000403016763,6.37365216 0.0809723427,6.60008794 0.230053496,6.78 L9.2300535,17.64 C9.42040999,17.8685401 9.70262126,18.000483 10.0000535,18 C10.2974857,18.000483 10.579697,17.8685401 10.7700535,17.64 L19.7700535,6.78 C19.9191346,6.60008794 20.00051,6.37365216 20.0000806,6.14 L20.0000806,5.84 C20.0019038,5.58871683 19.9090804,5.34594777 19.7400535,5.16 Z M9.1800535,14.47 L2.5300535,6.47 C2.40026658,6.41753295 2.33758645,6.26978692 2.3900535,6.14 C2.44252055,6.01021308 2.59026658,5.94753295 2.7200535,6 L6.2700535,6 C6.72091455,5.97793798 7.1306588,6.26066151 7.2700535,6.69 L9.6600535,14.24 C9.72356624,14.3725483 9.66760184,14.5314873 9.5350535,14.595 C9.40250516,14.6585127 9.24356624,14.6025483 9.1800535,14.47 L9.1800535,14.47 Z M17.2400535,6 L11.0700535,6 C10.9694299,6.00273087 10.8769833,5.94484674 10.8354942,5.85313399 C10.7940051,5.76142123 10.8115672,5.65377126 10.8800535,5.58 L13.9400535,2.2 C13.9874346,2.14787144 14.0546095,2.11815172 14.1250535,2.11815172 C14.1954975,2.11815172 14.2626724,2.14787144 14.3100535,2.2 L17.4200535,5.58 C17.4872564,5.65244468 17.505482,5.75767578 17.4665567,5.84850138 C17.4276315,5.93932699 17.3388603,5.99870234 17.2400535,6 L17.2400535,6 Z">
        </path>
      </g>
    </g>
  </g>
</svg>