<svg width="73" height="16" viewBox="0 0 73 16" fill="none" xmlns="http://www.w3.org/2000/svg">
  <circle cx="8" cy="8" r="8" fill="#D9D9D9" />
  <circle cx="8" cy="8" r="8" fill="url(#paint0_linear_5338_13132)" />
  <path
    d="M4.7793 12.1797C5.68464 12.8931 6.82643 13.3203 8.06836 13.3203C9.3106 13.3203 10.453 12.8934 11.3584 12.1797H13.4814C12.2305 13.7973 10.2715 14.8398 8.06836 14.8398C5.86549 14.8398 3.90721 13.797 2.65625 12.1797H4.7793ZM4.5957 5.72939C5.11149 5.72944 5.55715 5.82945 5.93262 6.03018C6.30978 6.22937 6.60056 6.51699 6.80469 6.89248C7.01042 7.26639 7.11324 7.71475 7.11328 8.23721C7.11328 8.75977 7.01173 9.20926 6.80762 9.58486C6.60351 9.9588 6.31434 10.2463 5.94043 10.4472C5.56652 10.6464 5.12464 10.746 4.61523 10.746H2.68457V5.72939H4.5957ZM10.5801 8.57119H10.6387L11.8047 5.72939H13.5V10.746H12.168V7.84561H12.1289L11.0117 10.7069H10.208L9.09082 7.82607H9.05176V10.746H7.71875V5.72939H9.41406L10.5801 8.57119ZM4.04688 9.58975H4.56641C4.81437 9.5897 5.02559 9.54956 5.2002 9.46963C5.37657 9.38961 5.51108 9.25154 5.60254 9.05557C5.69554 8.85961 5.74219 8.58653 5.74219 8.23721C5.74216 7.88808 5.69419 7.61571 5.59961 7.41982C5.50659 7.224 5.36955 7.08581 5.18848 7.00576C5.00883 6.92574 4.78767 6.88564 4.52637 6.88564H4.04688V9.58975ZM8.06836 1.16016C10.4397 1.16023 12.5289 2.36731 13.7559 4.2002H11.79C10.8306 3.26031 9.51743 2.67975 8.06836 2.67969C6.61924 2.67975 5.30621 3.26025 4.34668 4.2002H2.38086C3.60787 2.36726 5.69702 1.16024 8.06836 1.16016Z"
    fill="#532D00" />
  <path
    d="M25.6279 2.74316C26.8598 2.75252 27.7651 3.02279 28.3438 3.55469C28.9224 4.07735 29.2119 4.90387 29.2119 6.0332C29.2119 6.32243 29.1882 6.67691 29.1416 7.09668L28.9316 8.90332C28.7263 10.4242 28.26 11.5301 27.5322 12.2207C26.8043 12.902 25.7353 13.2474 24.3262 13.2568H20L21.2881 2.74316H25.6279ZM35.6445 11.3389H35.7002L40.1387 2.74316H41.958L40.6699 13.2568H39.1582L40.0684 5.83691L36.4424 12.8232C36.293 13.1124 36.0594 13.2568 35.7422 13.2568H35.168C34.8416 13.2567 34.6454 13.1123 34.5801 12.8232L32.6484 5.83691L31.7383 13.2568H30.2266L31.5146 2.74316H33.334L35.6445 11.3389ZM21.834 11.7168H24.5361C25.3851 11.7167 26.0195 11.5023 26.4395 11.0732C26.8594 10.644 27.1306 9.94846 27.252 8.9873L27.5039 7.0127C27.5412 6.63949 27.5596 6.37782 27.5596 6.22852C27.5595 5.5474 27.3959 5.05305 27.0693 4.74512C26.752 4.4372 26.2245 4.2832 25.4873 4.2832H22.7578L21.834 11.7168Z"
    fill="currentColor" />
  <path
    d="M70.082 3.83545H67.2676L66.7354 8.21729H70.2637L70.124 9.51904H66.582L66.0361 14.0269H64.6641L65.21 9.51904H61.8223L61.9756 8.21729H65.3779L65.9102 3.83545H62.7314L62.8857 2.56104H70.2354L70.082 3.83545ZM45.4697 13.9292H43.958L45.2461 10.9048H46.6318L45.4697 13.9292ZM49.2217 13.9292H47.8779L47.6396 10.9331H48.9697L49.2217 13.9292ZM52.3994 13.9292H51.042L50.4258 10.9331H51.7842L52.3994 13.9292ZM55.6758 13.9292H54.29L53.2676 10.9048H54.6123L55.6758 13.9292ZM60.3096 5.61279C60.5988 5.61279 60.8184 5.69688 60.9678 5.86475C61.1264 6.02334 61.206 6.24749 61.2061 6.53662C61.2061 6.63925 61.2007 6.71891 61.1914 6.7749L60.6182 11.3813C60.6089 11.4093 60.6035 11.4418 60.6035 11.479C60.6035 11.535 60.6228 11.563 60.6602 11.563C60.7067 11.5629 60.7533 11.5445 60.7998 11.5073C61.3411 11.2087 61.8222 10.8955 62.2422 10.5688L62.2695 12.0249C62.1854 12.081 61.9194 12.2446 61.4717 12.5151L61.0654 12.7388L60.7295 12.9351C60.4684 13.0842 60.2214 13.1586 59.9883 13.1587C59.8204 13.1587 59.6847 13.1263 59.582 13.061C59.2927 12.8837 59.1754 12.5286 59.2314 11.9966L59.8477 6.90088H58.2383L58.3916 5.61279H60.3096ZM51.1396 3.17725H55.9834L55.8301 4.39502H51L50.832 5.78076H53.9541C54.2898 5.78081 54.5464 5.86493 54.7236 6.03271C54.901 6.20071 54.9902 6.4439 54.9902 6.76123C54.9902 6.86381 54.9849 6.94355 54.9756 6.99951L54.5977 10.1206H45.4697L45.8896 6.69092C45.9363 6.4017 46.0484 6.17769 46.2256 6.01904C46.4123 5.86038 46.6554 5.78076 46.9541 5.78076H49.4316L49.8936 1.97314H51.2939L51.1396 3.17725ZM47.0098 8.88916H53.2959L53.5195 7.01318H47.2334L47.0098 8.88916ZM68.8916 7.54541H67.6035L68.5557 4.61865H69.8301L68.8916 7.54541ZM64.6074 7.53076H63.334L62.8857 4.60498H64.1035L64.6074 7.53076ZM62.0459 3.41553L61.8496 4.77295L59.1475 3.52686L59.3301 2.16943L62.0459 3.41553Z"
    fill="#F0C390" />
  <defs>
    <linearGradient id="paint0_linear_5338_13132" x1="0" y1="8" x2="16" y2="8" gradientUnits="userSpaceOnUse">
      <stop stop-color="#FFE0B9" />
      <stop offset="1" stop-color="#FFCA7B" />
    </linearGradient>
  </defs>
</svg>