<svg width="71" height="16" viewBox="0 0 71 16" xmlns="http://www.w3.org/2000/svg">
  <circle cx="8" cy="8" r="8" fill="url(#paint0_linear_4928_28406)" />
  <path
    d="M4.7793 12.1797C5.68464 12.8931 6.82643 13.3203 8.06836 13.3203C9.3106 13.3203 10.453 12.8934 11.3584 12.1797H13.4814C12.2305 13.7973 10.2715 14.8398 8.06836 14.8398C5.86549 14.8398 3.90721 13.797 2.65625 12.1797H4.7793ZM3.51953 5.70898C4.03532 5.70903 4.48097 5.80904 4.85645 6.00977C5.23361 6.20896 5.52438 6.49658 5.72852 6.87207C5.93424 7.24598 6.03707 7.69434 6.03711 8.2168C6.03711 8.73936 5.93555 9.18885 5.73145 9.56445C5.52733 9.93839 5.23817 10.2259 4.86426 10.4268C4.49034 10.626 4.04847 10.7255 3.53906 10.7256H1.6084V5.70898H3.51953ZM9.50391 8.55078H9.5625L10.7285 5.70898H12.4238V10.7256H11.0918V7.8252H11.0527L9.93555 10.6865H9.13184L8.01465 7.80566H7.97559V10.7256H6.64258V5.70898H8.33789L9.50391 8.55078ZM14.3916 10.7256H13.0293V5.70898H14.3916V10.7256ZM2.9707 9.56934H3.49023C3.7382 9.56929 3.94942 9.52915 4.12402 9.44922C4.3004 9.3692 4.43491 9.23113 4.52637 9.03516C4.61937 8.8392 4.66602 8.56612 4.66602 8.2168C4.66599 7.86767 4.61802 7.5953 4.52344 7.39941C4.43042 7.20359 4.29338 7.0654 4.1123 6.98535C3.93266 6.90533 3.71149 6.86523 3.4502 6.86523H2.9707V9.56934ZM8.06836 1.16016C10.4397 1.16023 12.5289 2.36731 13.7559 4.2002H11.79C10.8306 3.26031 9.51743 2.67975 8.06836 2.67969C6.61924 2.67975 5.30621 3.26025 4.34668 4.2002H2.38086C3.60787 2.36726 5.69702 1.16024 8.06836 1.16016Z"
    fill="#532D00" />
  <path d="M42.0243 2.74304H43.6763L42.3883 13.257H40.7363L42.0243 2.74304Z" fill='currentColor' />
  <path
    d="M31.3346 2.74304L33.6446 11.339H33.7006L38.1386 2.74304H39.9586L38.6706 13.257H37.1586L38.0686 5.83704L34.4426 12.823C34.2932 13.1124 34.0599 13.257 33.7426 13.257H33.1686C32.8419 13.257 32.6459 13.1124 32.5806 12.823L30.6486 5.83704L29.7386 13.257H28.2266L29.5146 2.74304H31.3346Z"
    fill="currentColor" />
  <path
    d="M23.628 2.74304C24.86 2.75238 25.7653 3.02304 26.344 3.55504C26.9227 4.07771 27.212 4.90371 27.212 6.03304C27.212 6.32238 27.1887 6.67704 27.142 7.09704L26.932 8.90304C26.7267 10.4244 26.26 11.5304 25.532 12.221C24.804 12.9024 23.7353 13.2477 22.326 13.257H18L19.288 2.74304H23.628ZM22.536 11.717C23.3853 11.717 24.02 11.5024 24.44 11.073C24.86 10.6437 25.1307 9.94837 25.252 8.98704L25.504 7.01304C25.5413 6.63971 25.56 6.37838 25.56 6.22904C25.56 5.54771 25.3967 5.05304 25.07 4.74504C24.7527 4.43704 24.2253 4.28304 23.488 4.28304H20.758L19.834 11.717H22.536Z"
    fill="currentColor" />
  <path
    d="M60.0481 2.16907L62.7641 3.41507L62.5681 4.77307L59.8661 3.52707L60.0481 2.16907ZM66.7541 14.0271H65.3821L65.9281 9.51907H62.5401L62.6941 8.21707H66.0961L66.6281 3.83507H63.4501L63.6041 2.56107H70.9541L70.8001 3.83507H67.9861L67.4541 8.21707H70.9821L70.8421 9.51907H67.3001L66.7541 14.0271ZM63.6041 4.60507H64.8221L65.3261 7.53107H64.0521L63.6041 4.60507ZM69.6101 7.54507H68.3221L69.2741 4.61907H70.5481L69.6101 7.54507ZM61.3361 11.3811C61.3267 11.4091 61.3221 11.4417 61.3221 11.4791C61.3221 11.5351 61.3407 11.5631 61.3781 11.5631C61.4247 11.5631 61.4714 11.5444 61.5181 11.5071C62.0594 11.2084 62.5401 10.8957 62.9601 10.5691L62.9881 12.0251C62.9041 12.0811 62.6381 12.2444 62.1901 12.5151L61.7841 12.7391L61.4481 12.9351C61.1867 13.0844 60.9394 13.1591 60.7061 13.1591C60.5381 13.1591 60.4027 13.1264 60.3001 13.0611C60.0107 12.8837 59.8941 12.5291 59.9501 11.9971L60.5661 6.90107H58.9561L59.1101 5.61307H61.0281C61.3174 5.61307 61.5367 5.69707 61.6861 5.86507C61.8447 6.02373 61.9241 6.24773 61.9241 6.53707C61.9241 6.63973 61.9194 6.71907 61.9101 6.77507L61.3361 11.3811Z"
    fill="#F0C390" />
  <path
    d="M56.7023 3.17702L56.5483 4.39502H51.7183L51.5503 5.78102H54.6723C55.0083 5.78102 55.2649 5.86502 55.4423 6.03302C55.6196 6.20102 55.7083 6.44369 55.7083 6.76102C55.7083 6.86369 55.7036 6.94302 55.6943 6.99902L55.3163 10.121H46.1883L46.6083 6.69102C46.6549 6.40169 46.7669 6.17769 46.9443 6.01902C47.1309 5.86036 47.3736 5.78102 47.6723 5.78102H50.1503L50.6123 1.97302H52.0123L51.8583 3.17702H56.7023ZM54.2383 7.01302H47.9523L47.7283 8.88902H54.0143L54.2383 7.01302ZM44.6763 13.929L45.9643 10.905H47.3503L46.1883 13.929H44.6763ZM53.9863 10.905H55.3303L56.3943 13.929H55.0083L53.9863 10.905ZM48.3583 10.933H49.6883L49.9403 13.929H48.5963L48.3583 10.933ZM51.1443 10.933H52.5023L53.1183 13.929H51.7603L51.1443 10.933Z"
    fill="#F0C390" />
  <defs>
    <linearGradient id="paint0_linear_4928_28406" x1="0" y1="8" x2="16" y2="8" gradientUnits="userSpaceOnUse">
      <stop stop-color="#FFE0B9" />
      <stop offset="1" stop-color="#FFCA7B" />
    </linearGradient>
  </defs>
</svg>