<svg xmlns="http://www.w3.org/2000/svg" viewBox="0 0 16 16">
  <path
    d="M7.78188022,10.9802859 C8.07270659,11.2707506 8.07270659,11.7416868 7.78188022,12.0321515 C7.49105384,12.3226162 7.01953111,12.3226162 6.72870473,12.0321515 L3.21811978,8.5259328 C2.92729341,8.23546814 2.92729341,7.76453186 3.21811978,7.4740672 L6.72870473,3.9678485 C7.01953111,3.67738383 7.49105384,3.67738383 7.78188022,3.9678485 C8.07270659,4.25831317 8.07270659,4.72924944 7.78188022,5.01971411 L4.79788301,8 L7.78188022,10.9802859 Z M12.7818802,10.9802859 C13.0727066,11.2707506 13.0727066,11.7416868 12.7818802,12.0321515 C12.4910538,12.3226162 12.0195311,12.3226162 11.7287047,12.0321515 L8.21811978,8.5259328 C7.92729341,8.23546814 7.92729341,7.76453186 8.21811978,7.4740672 L11.7287047,3.9678485 C12.0195311,3.67738383 12.4910538,3.67738383 12.7818802,3.9678485 C13.0727066,4.25831317 13.0727066,4.72924944 12.7818802,5.01971411 L9.79788301,8 L12.7818802,10.9802859 Z" />
</svg>