<svg xmlns="http://www.w3.org/2000/svg" viewBox="0 0 16 16">
  <g stroke="none" strokeWidth="1" fill="currentColor" fillRule="evenodd">
    <g>
      <rect fillRule="nonzero" x="0" y="0"></rect>
      <path
        d="M7,2.25 C7,2.94035594 6.44035594,3.5 5.75,3.5 C5.05964406,3.5 4.5,2.94035594 4.5,2.25 C4.5,1.55964406 5.05964406,1 5.75,1 C6.44035594,1 7,1.55964406 7,2.25 Z M11.5,2.25 C11.5,2.94035594 10.9403559,3.5 10.25,3.5 C9.55964406,3.5 9,2.94035594 9,2.25 C9,1.55964406 9.55964406,1 10.25,1 C10.9403559,1 11.5,1.55964406 11.5,2.25 Z M7,6.1 C7,6.79035594 6.44035594,7.35 5.75,7.35 C5.05964406,7.35 4.5,6.79035594 4.5,6.1 C4.5,5.40964406 5.05964406,4.85 5.75,4.85 C6.44035594,4.85 7,5.40964406 7,6.1 Z M11.5,6.1 C11.5,6.79035594 10.9403559,7.35 10.25,7.35 C9.55964406,7.35 9,6.79035594 9,6.1 C9,5.40964406 9.55964406,4.85 10.25,4.85 C10.9403559,4.85 11.5,5.40964406 11.5,6.1 Z M7,9.95 C7,10.6403559 6.44035594,11.2 5.75,11.2 C5.05964406,11.2 4.5,10.6403559 4.5,9.95 C4.5,9.25964406 5.05964406,8.7 5.75,8.7 C6.44035594,8.7 7,9.25964406 7,9.95 Z M11.5,9.95 C11.5,10.6403559 10.9403559,11.2 10.25,11.2 C9.55964406,11.2 9,10.6403559 9,9.95 C9,9.25964406 9.55964406,8.7 10.25,8.7 C10.9403559,8.7 11.5,9.25964406 11.5,9.95 Z M7,13.75 C7,14.4403559 6.44035594,15 5.75,15 C5.05964406,15 4.5,14.4403559 4.5,13.75 C4.5,13.0596441 5.05964406,12.5 5.75,12.5 C6.44035594,12.5 7,13.0596441 7,13.75 Z M11.5,13.75 C11.5,14.4403559 10.9403559,15 10.25,15 C9.55964406,15 9,14.4403559 9,13.75 C9,13.0596441 9.55964406,12.5 10.25,12.5 C10.9403559,12.5 11.5,13.0596441 11.5,13.75 Z">
      </path>
    </g>
  </g>
</svg>
