<svg viewBox="0 0 51 50" fill="none" xmlns="http://www.w3.org/2000/svg">
  <circle cx="25.5781" cy="25" r="19" fill="url(#paint0_radial_8338_30551)" />
  <circle cx="25.5781" cy="25" r="19" fill="url(#paint1_radial_8338_30551)" />
  <circle cx="25.5781" cy="25" r="17" fill="url(#paint2_linear_8338_30551)" />
  <mask id="mask0_8338_30551" style="mask-type:alpha" maskUnits="userSpaceOnUse" x="6" y="6" width="39" height="38">
    <circle cx="25.5781" cy="25" r="19" fill="#D9D9D9" />
  </mask>
  <g mask="url(#mask0_8338_30551)">
    <rect x="12.5781" y="19" width="7" height="25" fill="url(#paint3_linear_8338_30551)" />
    <rect x="30.5781" y="19" width="7" height="25" fill="url(#paint4_linear_8338_30551)" />
    <path
      d="M25.0781 22.1504C27.2198 22.1506 29.2275 23.6682 29.2275 25.8506C29.2272 26.4026 28.7796 26.8506 28.2275 26.8506C27.6756 26.8505 27.2279 26.4025 27.2275 25.8506C27.2275 25.0508 26.4155 24.1506 25.0781 24.1504C23.7405 24.1504 22.9277 25.0508 22.9277 25.8506C22.9274 26.4026 22.4798 26.8506 21.9277 26.8506C21.3757 26.8506 20.9281 26.4026 20.9277 25.8506C20.9277 23.6681 22.9363 22.1504 25.0781 22.1504Z"
      fill="#6C4325" />
    <path
      d="M19.5781 17C20.1304 17 20.5781 17.4477 20.5781 18C20.5781 18.5523 20.1304 19 19.5781 19H11.5781C11.0258 19 10.5781 18.5523 10.5781 18C10.5781 17.4477 11.0258 17 11.5781 17H19.5781Z"
      fill="#6C4325" />
    <path
      d="M38.5781 17C39.1304 17 39.5781 17.4477 39.5781 18C39.5781 18.5523 39.1304 19 38.5781 19H30.5781C30.0258 19 29.5781 18.5523 29.5781 18C29.5781 17.4477 30.0258 17 30.5781 17H38.5781Z"
      fill="#6C4325" />
  </g>
  <defs>
    <radialGradient id="paint0_radial_8338_30551" cx="0" cy="0" r="1" gradientUnits="userSpaceOnUse"
      gradientTransform="translate(18.849 10.75) rotate(78.559) scale(33.9241)">
      <stop stop-color="#FFEA9F" />
      <stop offset="0.122763" stop-color="#FFE380" />
      <stop offset="0.415997" stop-color="#FFD250" />
      <stop offset="0.643669" stop-color="#FFC122" />
      <stop offset="1" stop-color="#FFB422" />
    </radialGradient>
    <radialGradient id="paint1_radial_8338_30551" cx="0" cy="0" r="1" gradientUnits="userSpaceOnUse"
      gradientTransform="translate(18.849 10.75) rotate(78.559) scale(33.9241)">
      <stop offset="0.557292" stop-color="#E35D12" stop-opacity="0" />
      <stop offset="1" stop-color="#FF24F6" stop-opacity="0.3" />
    </radialGradient>
    <linearGradient id="paint2_linear_8338_30551" x1="25.5781" y1="8" x2="25.5781" y2="42"
      gradientUnits="userSpaceOnUse">
      <stop stop-color="#FEE2AD" />
      <stop offset="1" stop-color="#FEE2AD" stop-opacity="0" />
    </linearGradient>
    <linearGradient id="paint3_linear_8338_30551" x1="16.0781" y1="19" x2="16.0781" y2="44"
      gradientUnits="userSpaceOnUse">
      <stop stop-color="#87C1FE" />
      <stop offset="1" stop-color="#479CFE" />
    </linearGradient>
    <linearGradient id="paint4_linear_8338_30551" x1="34.0781" y1="19" x2="34.0781" y2="44"
      gradientUnits="userSpaceOnUse">
      <stop stop-color="#87C1FE" />
      <stop offset="1" stop-color="#479CFE" />
    </linearGradient>
  </defs>
</svg>