<?xml version="1.0" encoding="UTF-8"?>
<svg viewBox="0 0 16 16" version="1.1" xmlns="http://www.w3.org/2000/svg" xmlns:xlink="http://www.w3.org/1999/xlink">
    <g stroke="none" stroke-width="1" fill="none" fill-rule="evenodd">
        <g>
            <rect x="0" y="0" width="16" height="16"></rect>
            <path
                d="M6.16997886,3.5 L6.16997886,4.83195021 L1.83340381,4.83195021 L1.83340381,7.32780083 L5.24989429,7.32780083 L5.24989429,8.61618257 L1.83340381,8.61618257 L1.83340381,11.1618257 L6.16997886,11.1618257 L6.16997886,12.5 L0,12.5 L0,3.5 L6.16997886,3.5 Z M8.70021142,3.5 C8.78139535,3.5 8.84904863,3.50311203 8.90317125,3.5093361 C8.95729387,3.51556017 9.00577872,3.5280083 9.04862579,3.5466805 C9.09147287,3.5653527 9.13319239,3.59232365 9.17378436,3.62759336 C9.21437632,3.66286307 9.25947851,3.70954357 9.30909091,3.76763485 L14.4439746,9.78630705 C14.4259338,9.64107884 14.4135307,9.49896266 14.4067653,9.35995851 C14.4,9.22095436 14.3966173,9.09128631 14.3966173,8.97095436 L14.3966173,3.5 L16,3.5 L16,12.5 L15.0596195,12.5 C14.9152925,12.5 14.7957717,12.4792531 14.7010571,12.4377593 C14.6063425,12.3962656 14.513883,12.3215768 14.4236786,12.2136929 L9.30909091,6.21991701 C9.32262156,6.3526971 9.33276956,6.48443983 9.33953488,6.61514523 C9.34630021,6.74585062 9.34968288,6.86514523 9.34968288,6.97302905 L9.34968288,12.5 L7.74630021,12.5 L7.74630021,3.5 L8.70021142,3.5 Z"
                fill="currentColor" fill-rule="nonzero"></path>
        </g>
    </g>
</svg>