<svg viewBox="0 0 24 24" fill="none" xmlns="http://www.w3.org/2000/svg">
  <path
    d="M23 12C23 5.92487 18.0751 1 12 1C5.92487 1 1 5.92487 1 12C1 18.0751 5.92487 23 12 23V24C5.37258 24 0 18.6274 0 12C0 5.37258 5.37258 0 12 0C18.6274 0 24 5.37258 24 12C24 18.6274 18.6274 24 12 24V23C18.0751 23 23 18.0751 23 12Z"
    fill="currentColor" fill-opacity="0.3" />
  <circle cx="12" cy="12" r="8.5" fill="currentColor" />
  <path
    d="M15.9263 9.34619L13.272 11.9995L15.9263 14.6538L14.6538 15.9263L11.9995 13.272L9.34619 15.9263L8.07373 14.6538L10.7271 11.9995L8.07373 9.34619L9.34619 8.07373L11.9995 10.7271L14.6538 8.07373L15.9263 9.34619Z"
    fill="white" />
</svg>