<svg viewBox="0 0 32 16" xmlns="http://www.w3.org/2000/svg">
  <path
    d="M0 2C0 0.895431 0.895431 0 2 0H30C31.1046 0 32 0.895431 32 2V14C32 15.1046 31.1046 16 30 16H2C0.895431 16 0 15.1046 0 14V2Z"
    fill="currentColor" fill-opacity="0.2" />
  <path
    d="M12.0468 5.68574H9.11361L8.78929 7.51146H10.486L10.164 9.32431H8.46724L8.15661 11.0729H11.0898L10.7677 12.8857H5.97998L7.57879 3.88574H12.3665L12.0468 5.68574Z"
    fill="currentColor" />
  <path
    d="M19.2855 5.66003H17.3652L16.0816 12.8857H14.227L15.5106 5.66003H13.5902L13.9054 3.88574H19.6007L19.2855 5.66003Z"
    fill="currentColor" />
  <path
    d="M25.6602 5.68574H22.7271L22.4027 7.51146H24.0995L23.7775 9.32431H22.0807L21.4503 12.8729H19.5957L21.1923 3.88574H25.98L25.6602 5.68574Z"
    fill="currentColor" />
</svg>