<?xml version="1.0" encoding="UTF-8"?>
<svg viewBox="0 0 16 16" version="1.1" xmlns="http://www.w3.org/2000/svg" xmlns:xlink="http://www.w3.org/1999/xlink">
  <title>Icon / EXCEL</title>
  <g stroke="none" stroke-width="1" fill="none" fill-rule="evenodd">
    <g fill-rule="nonzero">
      <g>
        <rect x="0" y="0" width="16" height="16"></rect>
        <g>
          <polygon id="路径" fill="#0E512B"
            points="14.9565217 9.04347826 1.04347826 9.04347826 0 7.65217391 1.39130435 6.26086957 14.6086957 6.26086957 16 7.65217391">
          </polygon>
          <path
            d="M13.9130435,16 L2.08695652,16 C1.7026087,16 1.39130435,15.6886957 1.39130435,15.3043478 L1.39130435,0.695652174 C1.39130435,0.311304348 1.7026087,0 2.08695652,0 L10.4347826,0 L14.6086957,4.17391304 L14.6086957,15.3043478 C14.6086957,15.6886957 14.2973913,16 13.9130435,16 Z"
            id="路径" fill="#E6E6E6"></path>
          <path
            d="M10.4347826,0 L10.4347826,3.47826087 C10.4347826,3.8626087 10.746087,4.17391304 11.1304348,4.17391304 L14.6086957,4.17391304 L10.4347826,0 Z"
            id="路径" fill="#B3B3B3"></path>
          <path
            d="M15.3043478,13.9130435 L0.695652174,13.9130435 C0.311304348,13.9130435 0,13.6017391 0,13.2173913 L0,7.65217391 L16,7.65217391 L16,13.2173913 C16,13.6017391 15.6886957,13.9130435 15.3043478,13.9130435 Z"
            id="路径" fill="#1B7343"></path>
          <polygon id="路径" fill="#FFFFFF"
            points="5.77113043 12.173913 4.91721739 12.173913 4.38469565 11.32 3.85808696 12.173913 3.02295652 12.173913 3.92904348 10.7763478 3.07721739 9.44243478 3.89565217 9.44243478 4.38886957 10.2869565 4.86330435 9.44243478 5.70573913 9.44243478 4.84069565 10.834087">
          </polygon>
          <polygon id="路径" fill="#FFFFFF"
            points="6.07756522 12.173913 6.07756522 9.44243478 6.81565217 9.44243478 6.81565217 11.578087 7.86747826 11.578087 7.86747826 12.173913">
          </polygon>
          <path
            d="M10.0904348,11.3443478 C10.0904348,11.5137391 10.0473043,11.664 9.9613913,11.7954783 C9.87547826,11.9269565 9.75130435,12.0292174 9.58956522,12.101913 C9.42782609,12.1749565 9.23756522,12.2111304 9.01982609,12.2111304 C8.83791304,12.2111304 8.68556522,12.1982609 8.56208696,12.1728696 C8.4386087,12.1474783 8.3106087,12.1029565 8.1773913,12.0393043 L8.1773913,11.3815652 C8.31826087,11.453913 8.46434783,11.5102609 8.61634783,11.5506087 C8.76834783,11.5909565 8.90782609,11.6111304 9.03478261,11.6111304 C9.14434783,11.6111304 9.22469565,11.5923478 9.27582609,11.5544348 C9.32695652,11.5165217 9.35234783,11.4674783 9.35234783,11.4076522 C9.35234783,11.3704348 9.34191304,11.3377391 9.32173913,11.3095652 C9.30086957,11.2817391 9.26817391,11.2532174 9.2226087,11.2246957 C9.1773913,11.1961739 9.056,11.1373913 8.85947826,11.0490435 C8.6813913,10.9683478 8.54782609,10.8897391 8.45878261,10.8135652 C8.36973913,10.7373913 8.30365217,10.6504348 8.26086957,10.552 C8.21773913,10.4535652 8.19617391,10.3373913 8.19617391,10.2027826 C8.19617391,9.95095652 8.28765217,9.75478261 8.47095652,9.61426087 C8.65426087,9.47373913 8.90573913,9.40347826 9.22573913,9.40347826 C9.50852174,9.40347826 9.79686957,9.46886957 10.0907826,9.59930435 L9.86469565,10.1690435 C9.6093913,10.0521739 9.38886957,9.99373913 9.20347826,9.99373913 C9.10747826,9.99373913 9.03791304,10.0104348 8.99408696,10.0441739 C8.95026087,10.077913 8.92869565,10.1196522 8.92869565,10.1690435 C8.92869565,10.2226087 8.95652174,10.2706087 9.01182609,10.3130435 C9.06713043,10.3554783 9.2173913,10.4326957 9.46295652,10.5446957 C9.69843478,10.6507826 9.86156522,10.7641739 9.9533913,10.8855652 C10.0445217,11.0073043 10.0904348,11.16 10.0904348,11.3443478 Z"
            id="路径" fill="#FFFFFF"></path>
          <polygon id="路径" fill="#FFFFFF"
            points="12.9732174 12.173913 12.1193043 12.173913 11.5867826 11.32 11.0601739 12.173913 10.2250435 12.173913 11.1311304 10.7763478 10.2793043 9.44243478 11.0977391 9.44243478 11.5909565 10.2869565 12.0653913 9.44243478 12.9078261 9.44243478 12.0427826 10.834087">
          </polygon>
        </g>
      </g>
    </g>
  </g>
</svg>