<svg xmlns="http://www.w3.org/2000/svg" viewBox="0 0 16 16">
  <path
    d="M14,0 C15.1045695,0 16,0.8954305 16,2 L16,14 C16,15.1045695 15.1045695,16 14,16 L2,16 C0.8954305,16 0,15.1045695 0,14 L0,2 C0,0.8954305 0.8954305,0 2,0 L14,0 Z M14,1.5 L2,1.5 C1.75454011,1.5 1.55039163,1.67687516 1.50805567,1.91012437 L1.49998077,2 L1.49998077,9 L4,9 C6.0026071,9 7,10.0184944 7,12 L7,14.5010222 L14,14.5 C14.2454599,14.5 14.4496084,14.3231248 14.4919443,14.0898756 L14.5,14 L14.5,2 C14.5,1.75454011 14.3231248,1.55039163 14.0898756,1.50805567 L14,1.5 Z M11.240662,3 C12.5892782,3 12.990662,3.38864621 12.990662,4.5960083 L12.990662,7.25 C12.990662,7.66421356 12.6548756,8 12.240662,8 C11.8609663,8 11.5471711,7.71784612 11.4975086,7.35177056 L11.490662,7.25 L11.49,5.57 L8.03033009,9.03033009 C7.73743687,9.3232233 7.26256313,9.3232233 6.96966991,9.03033009 C6.70340335,8.76406352 6.6791973,8.34739984 6.89705176,8.05378835 L6.96966991,7.96966991 L10.438,4.5 L8.75,4.5 C8.33578644,4.5 8,4.16421356 8,3.75 C8,3.37030423 8.28215388,3.05650904 8.64822944,3.00684662 L8.75,3 L11.240662,3 Z" />
</svg>