<svg xmlns="http://www.w3.org/2000/svg" viewBox="0 0 16 16">
  <path
    d="M13.5065189,14.1421834 L12.185599,11.576561 C11.9485677,11.116175 12.1406907,10.5564341 12.6115703,10.3277867 C13.0792829,10.1006772 13.6480693,10.2848028 13.8834444,10.7419718 L15.8972531,14.6533922 C16.216108,15.272704 15.7537765,15.9991902 15.0483304,15.9991902 L0.951669588,15.9991902 C0.246223497,15.9991902 -0.216107958,15.272704 0.102746911,14.6533922 L2.1165556,10.7419718 C2.35193069,10.2848028 2.92071707,10.1006772 3.38842972,10.3277867 C3.85930927,10.5564341 4.05143233,11.116175 3.81440095,11.576561 L2.49348114,14.1421834 L13.5065189,14.1421834 Z M10.1879115,6.61094776 C9.36329881,8.05589152 8.82508426,9.94404564 8.58028526,12.2697541 C8.52661346,12.7796621 8.07048187,13.1495987 7.56132497,13.0957536 C7.05224249,13.0419163 6.68327758,12.5848401 6.73694157,12.0750063 C7.00840579,9.4959654 7.62013832,7.36903879 8.57878825,5.68922559 C9.26242385,4.49131166 10.2869393,3.21351583 11.6566799,1.84720555 L9.14892437,1.84876968 C8.6399799,1.84908712 8.22777066,1.43590828 8.22808707,0.926226181 C8.22840336,0.41673339 8.6408301,0.00333653902 9.14958457,0.0030192186 L13.9899536,1.82790037e-07 C14.4988981,-0.00031725614 14.9111074,0.412861586 14.9107909,0.922543684 L14.907779,5.77429832 C14.9074627,6.28379111 14.495036,6.69718796 13.9862815,6.69750528 C13.477337,6.69782272 13.0651278,6.28464388 13.0654442,5.77496178 L13.0671288,3.0613177 C11.7624895,4.35006753 10.801086,5.53650066 10.1879115,6.61094776 Z" />
</svg>