<svg xmlns="http://www.w3.org/2000/svg" viewBox="0 0 16 16">
  <path
    d="M4.24834915,1 C4.66256272,1 4.99834915,1.33578644 4.99834915,1.75 C4.99834915,2.16421356 4.66256272,2.5 4.24834915,2.5 L3.3125,2.5 C2.8876983,2.5 2.5,2.94308378 2.5,3.53571429 L2.5,12.4642857 C2.5,13.0569162 2.8876983,13.5 3.3125,13.5 L12.6875,13.5 C13.1123017,13.5 13.5,13.0569162 13.5,12.4642857 L13.5,9.78318896 C13.5,9.36897539 13.8357864,9.03318896 14.25,9.03318896 C14.6642136,9.03318896 15,9.36897539 15,9.78318896 L15,12.4642857 C15,13.8441007 13.9885881,15 12.6875,15 L3.3125,15 C2.01141185,15 1,13.8441007 1,12.4642857 L1,3.53571429 C1,2.15589926 2.01141185,1 3.3125,1 L4.24834915,1 Z M9.10583422,0.00718144303 L9.17802715,0.0208611811 L14.723225,0.959663979 C14.919042,1.01855392 15.0397764,1.23582783 14.9897158,1.44235462 L12.9912511,6.89455689 C12.9672607,6.99787288 12.9056706,7.08071152 12.8248317,7.1286615 C12.7838049,7.15392509 12.7370218,7.16952856 12.6892737,7.17555956 C12.5418037,7.19374023 12.4020034,7.11077887 12.3263718,6.97395925 L11.2667473,5.0637091 C8.10137202,6.96566884 6.76621066,8.79039218 7.52044717,11.3060157 C7.32781268,11.3060157 7.19464922,11.2990883 6.99054554,11.2990883 C4.40038457,7.28773916 6.49229249,4.55081985 9.85947694,2.52667291 L8.78048704,0.580447117 C8.70417331,0.443329453 8.70595347,0.2765652 8.79419589,0.152894569 C8.8817562,0.0304511776 9.03448347,-0.022214909 9.17802715,0.0208611811 Z">
  </path>
</svg>