<svg width="17" height="16" viewBox="0 0 17 16" xmlns="http://www.w3.org/2000/svg">
  <path
    d="M2.0052 1.05762L6.11948 5.17224L10.8336 9.88625L14.9477 14.0004L14.0049 14.9432L12.0282 12.9666C10.835 13.6255 9.46295 14.0005 8.00492 14.0005C4.28589 14.0005 1.13749 11.5647 0.0646858 8.20318L0 8.00049L0.0646859 7.7978C0.576178 6.19508 1.5586 4.80421 2.84861 3.78691L1.06232 2.00036L2.0052 1.05762ZM3.7992 4.73757C2.70859 5.5586 1.86602 6.69062 1.40305 8.00049C2.36416 10.72 4.95798 12.6672 8.00492 12.6672C9.0928 12.6672 10.1216 12.4194 11.039 11.9774L9.84328 10.7817C9.31644 11.1304 8.68421 11.334 8.00513 11.334C6.16418 11.334 4.6718 9.84158 4.6718 8.00063C4.6718 7.32155 4.87534 6.68932 5.22411 6.16249L3.7992 4.73757ZM6.1999 7.13827C6.07493 7.39934 6.00513 7.69163 6.00513 8.00063C6.00513 9.1052 6.90056 10.0006 8.00513 10.0006C8.31413 10.0006 8.60642 9.93083 8.86749 9.80586L6.1999 7.13827ZM8.00523 3.33376C7.6208 3.33376 7.24407 3.36469 6.87728 3.42406L6.21918 3.53059L6.00613 2.21438L6.66423 2.10786C7.1012 2.03712 7.54916 2.00043 8.00523 2.00043C11.7243 2.00043 14.8727 4.43619 15.9455 7.79774L16.0101 8.00043L15.9455 8.20312C15.6698 9.06702 15.2572 9.86935 14.7336 10.5846L14.3398 11.1226L13.2639 10.335L13.6577 9.79707C14.0565 9.2523 14.3782 8.64809 14.6071 8.00043C13.646 5.28095 11.0522 3.33376 8.00523 3.33376ZM8.34733 4.61798L8.98464 4.81364C10.0385 5.13717 10.8687 5.9674 11.1923 7.02127L11.3879 7.65858L10.1133 8.04989L9.91765 7.41258C9.72388 6.78139 9.22451 6.28203 8.59333 6.08826L7.95602 5.8926L8.34733 4.61798Z" />
</svg>