<svg xmlns="http://www.w3.org/2000/svg" viewBox="0 0 16 16">
  <path
    d="M3.50000257,2.56896969e-06 L7.82254016,8.12120377e-06 L8.16184054,2.59849461e-05 C8.63235282,2.59849461e-05 9.08780137,0.165912464 9.44809774,0.46851507 C10.977739,1.75321697 12.5152525,3.06480108 14.0606383,4.4032674 C14.3771239,4.67737712 14.5235879,5.1235848 14.5000304,5.74189045 L14.5000304,14.0000081 C14.5000304,15.1045776 13.6045999,16.0000081 12.5000304,16.0000081 L3.50000257,16.0000081 C2.39543307,16.0000081 1.50000257,15.1045776 1.50000257,14.0000081 L1.5,2 C1.5,0.8954305 2.3954305,-2.11133759e-14 3.5,-2.13162821e-14 Z M8.97936876,8.50600812 L8.97936876,5.50000812 C8.97936876,5.22386575 8.75551113,5.00000812 8.47936876,5.00000812 L7.45636876,5.00000812 C7.18022638,5.00000812 6.95636876,5.22386575 6.95636876,5.50000812 L6.95636876,8.50800812 L4.99936876,8.50800812 C4.80479422,8.5082682 4.62804189,8.62138267 4.54629974,8.7979543 C4.46455759,8.97452592 4.49267332,9.18248211 4.61836876,9.33100812 L7.58636876,12.8360081 C7.68137046,12.9481468 7.82089796,13.0128089 7.96786876,13.0128089 C8.11483955,13.0128089 8.25436706,12.9481468 8.34936876,12.8360081 L11.3173688,9.33100812 C11.4430642,9.18248211 11.4711799,8.97452592 11.3894378,8.7979543 C11.3076956,8.62138267 11.1309433,8.5082682 10.9363688,8.50800812 L8.97936876,8.50600812 Z" />
</svg>