<svg xmlns="http://www.w3.org/2000/svg" viewBox="0 0 168 113">
  <g fillRule="evenodd">
    <g transform="translate(0 13)">
      <path fillRule="nonzero"
        d="M32,48.5 C27.3055796,48.5 23.5,44.6944204 23.5,40 C23.5,35.3055796 27.3055796,31.5 32,31.5 C36.6944204,31.5 40.5,35.3055796 40.5,40 C40.5,44.6944204 36.6944204,48.5 32,48.5 Z M32,45.5 C35.0375661,45.5 37.5,43.0375661 37.5,40 C37.5,36.9624339 35.0375661,34.5 32,34.5 C28.9624339,34.5 26.5,36.9624339 26.5,40 C26.5,43.0375661 28.9624339,45.5 32,45.5 Z" />
      <circle cx="35" cy="3" r="3" />
      <path
        d="M9,5.5 L13.0017548,5.5 C13.8292128,5.5 14.5,6.16579723 14.5,7 C14.5,7.82842712 13.8247509,8.5 13.0017548,8.5 L9,8.5 L9,12.5017548 C9,13.3292128 8.33420277,14 7.5,14 C6.67157288,14 6,13.3247509 6,12.5017548 L6,8.5 L1.99824524,8.5 C1.17078724,8.5 0.5,7.83420277 0.5,7 C0.5,6.17157288 1.1752491,5.5 1.99824524,5.5 L6,5.5 L6,1.49824524 C6,0.670787242 6.66579723,0 7.5,0 C8.32842712,0 9,0.6752491 9,1.49824524 L9,5.5 Z"
        transform="translate(0 47)" />
    </g>
    <g transform="translate(135)">
      <circle cx="6" cy="3" r="3" />
      <circle cx="30" cy="59" r="3" />
      <path
        d="M9,5.5 L13.0017548,5.5 C13.8292128,5.5 14.5,6.16579723 14.5,7 C14.5,7.82842712 13.8247509,8.5 13.0017548,8.5 L9,8.5 L9,12.5017548 C9,13.3292128 8.33420277,14 7.5,14 C6.67157288,14 6,13.3247509 6,12.5017548 L6,8.5 L1.99824524,8.5 C1.17078724,8.5 0.5,7.83420277 0.5,7 C0.5,6.17157288 1.1752491,5.5 1.99824524,5.5 L6,5.5 L6,1.49824524 C6,0.670787242 6.66579723,0 7.5,0 C8.32842712,0 9,0.6752491 9,1.49824524 L9,5.5 Z"
        transform="translate(0 72)" />
      <rect width="2" height="9" rx="1" transform="translate(24 17)" />
    </g>
    <g fillRule="nonzero" transform="translate(36 12)">
      <g transform="translate(19)">
        <path
          d="M68.361204,86.7521368 L3.79784467,86.7521368 C1.69953549,86.7521368 0,85.0642419 0,82.9803047 L0,3.77183203 C0,1.68789483 1.69953549,0 3.79784467,0 L49.3719807,0 L72.1590487,22.6309922 L72.1590487,82.9803047 C72.1590487,85.0642419 70.4595132,86.7521368 68.361204,86.7521368 Z" />
        <path
          d="M49.3719807,0 L49.3719807,18.8591602 C49.3719807,20.9430974 51.0715162,22.6309922 53.1698253,22.6309922 L72.1590487,22.6309922 L49.3719807,0 Z" />
        <g transform="translate(14.558 14.459)">
          <path
            d="M41.0547009 31.2307692L2.62051282 31.2307692C1.13555556 31.2307692 0 30.1029915 0 28.6282051 0 27.1534188 1.13555556 26.025641 2.62051282 26.025641L41.0547009 26.025641C42.5396581 26.025641 43.6752137 27.1534188 43.6752137 28.6282051 43.6752137 30.1029915 42.5396581 31.2307692 41.0547009 31.2307692zM23.5846154 5.20512821L2.62051282 5.20512821C1.13555556 5.20512821-1.95399252e-14 4.07735043-1.95399252e-14 2.6025641-1.95399252e-14 1.12777778 1.13555556-4.36539693e-13 2.62051282-4.36539693e-13L23.5846154-4.36539693e-13C25.0695726-4.36539693e-13 26.2051282 1.12777778 26.2051282 2.6025641 26.2051282 4.07735043 25.0695726 5.20512821 23.5846154 5.20512821zM41.0547009 44.2435897L2.62051282 44.2435897C1.13555556 44.2435897 0 43.115812 0 41.6410256 0 40.1662393 1.13555556 39.0384615 2.62051282 39.0384615L41.0547009 39.0384615C42.5396581 39.0384615 43.6752137 40.1662393 43.6752137 41.6410256 43.6752137 43.115812 42.5396581 44.2435897 41.0547009 44.2435897zM28.1268376 57.2564103L2.79521368 57.2564103C1.31025641 57.2564103.174700855 56.1286325.174700855 54.6538462.174700855 53.1790598 1.31025641 52.0512821 2.79521368 52.0512821L28.1268376 52.0512821C29.6117949 52.0512821 30.7473504 53.1790598 30.7473504 54.6538462 30.7473504 56.1286325 29.6117949 57.2564103 28.1268376 57.2564103z" />
          <ellipse cx="41.055" cy="54.654" rx="2.621" ry="2.603" />
        </g>
      </g>
      <path
        d="M32.08061,21.6049383 L32.08061,13.3744856 C32.08061,5.98796116 26.0574256,0 18.627451,0 C11.1974764,0 5.17429194,5.98796116 5.17429194,13.3744856 L5.17429194,21.6049383 C2.31660941,21.6049383 0,23.9080003 0,26.7489712 L0,44.2386831 C0,45.6029655 0.54514705,46.9113704 1.51551502,47.8760637 C2.48588299,48.840757 3.80198439,49.382716 5.17429194,49.382716 L32.08061,49.382716 C34.9382926,49.382716 37.254902,47.0796541 37.254902,44.2386831 L37.254902,26.7489712 C37.254902,23.9080003 34.9382926,21.6049383 32.08061,21.6049383 Z M18.627451,39.6090535 C16.341305,39.6090535 14.4880174,37.7666039 14.4880174,35.4938272 C14.4880174,33.2210504 16.341305,31.3786008 18.627451,31.3786008 C20.913597,31.3786008 22.7668845,33.2210504 22.7668845,35.4938272 C22.7668845,37.7666039 20.913597,39.6090535 18.627451,39.6090535 Z M26.9063181,21.6049383 L10.3485839,21.6049383 L10.3485839,13.3744856 C10.3485839,8.8289321 14.0551589,5.14403292 18.627451,5.14403292 C23.199743,5.14403292 26.9063181,8.8289321 26.9063181,13.3744856 L26.9063181,21.6049383 Z"
        transform="translate(0 51)" />
    </g>
  </g>
</svg>