<?xml version="1.0" encoding="UTF-8"?>
<svg viewBox="0 0 16 16" version="1.1" xmlns="http://www.w3.org/2000/svg" xmlns:xlink="http://www.w3.org/1999/xlink">
    <g stroke="none" stroke-width="1" fill="none" fill-rule="evenodd">
        <g>
            <rect x="0" y="0" width="16" height="16"></rect>
            <path
                d="M10.9998332,1 C11.2646912,1 11.5195419,1.11644453 11.7070106,1.3233791 C11.8944793,1.53031366 11.9998888,1.81160437 11.9998888,2.10482012 L11.9998888,4.31516184 L12.9999444,4.31516184 C13.5523434,4.31516184 14,4.80970037 14,5.42068344 L14,13.8944784 C14,14.50476 13.5523434,15 12.9999444,15 L3.0000556,15 C2.44765664,15 2,14.50476 2,13.8944784 L2,2.1055216 C2,1.49524 2.44765664,1 3.0000556,1 L10.9998332,1 Z M11.9992217,12.0524101 L11.9992217,13.3417176 C11.9992217,13.6265157 12.1946962,13.8643151 12.4508812,13.8916725 L12.4989159,13.8944784 C12.7564352,13.8944784 12.9719242,13.6784247 12.9966087,13.3950296 L12.9986101,13.3417176 L12.9986101,5.78965828 C12.9986101,5.69215352 12.9632512,5.59815613 12.9012064,5.52941176 C12.8384945,5.4606674 12.7537666,5.42138491 12.665703,5.42138491 L11.9992217,5.42138491 L11.9992217,12.0524101 Z M10.666259,2.1055216 L3.3329627,2.1055216 C3.16417413,2.1055216 3.0220715,2.24511474 3.00205704,2.43100511 L2.99938845,2.47379497 L2.99938845,13.526205 C2.99938845,13.7127969 3.12614666,13.8699268 3.29360093,13.892374 L3.33229555,13.8951799 L10.9998332,13.8951799 L10.9998332,2.47379497 C10.9998332,2.37629021 10.9644743,2.28229281 10.9024295,2.21354845 C10.8390504,2.14410262 10.7543226,2.1055216 10.666259,2.1055216 Z M9.49941625,10.9468885 C9.77561572,10.9468885 9.99911047,11.1945085 9.99911047,11.4996493 C9.99911047,11.8047901 9.77494857,12.0524101 9.49941625,12.0524101 L4.49980542,12.0524101 C4.22360594,12.0524101 4.00011119,11.8047901 4.00011119,11.4996493 C4.00011119,11.1945085 4.22427309,10.9468885 4.49980542,10.9468885 L9.49941625,10.9468885 Z M9.49941625,8 C9.77561572,8 9.99911047,8.24762 9.99911047,8.5527608 C9.99911047,8.85790159 9.77494857,9.1055216 9.49941625,9.1055216 L4.49980542,9.1055216 C4.22360594,9.1055216 4.00011119,8.85790159 4.00011119,8.5527608 C4.00011119,8.24762 4.22427309,8 4.49980542,8 L9.49941625,8 Z M7.33318508,3.94758994 C7.42191583,3.94758994 7.50664369,3.98617096 7.5686885,4.0556168 C7.63165688,4.12604805 7.66652116,4.21919962 7.66609609,4.31586331 L7.66609609,5.78965828 C7.66609609,5.88716304 7.63073331,5.98116044 7.5686885,6.0499048 C7.50597654,6.11935064 7.42124868,6.15793166 7.33318508,6.15793166 L4.33301829,6.15793166 C4.14888531,6.15793166 3.99944404,5.99308548 3.99944404,5.78965828 L3.99944404,4.31586331 C3.99944404,4.21835855 4.03480291,4.12436116 4.09684772,4.0556168 C4.15955968,3.98687243 4.24428754,3.94758994 4.33235114,3.94758994 L7.33318508,3.94758994 Z"
                fill="currentColor" fill-rule="nonzero"></path>
        </g>
    </g>
</svg>