<?xml version="1.0" encoding="UTF-8"?>
<svg viewBox="0 0 20 21" version="1.1" xmlns="http://www.w3.org/2000/svg" xmlns:xlink="http://www.w3.org/1999/xlink">
    <g stroke="none" stroke-width="1" fill="none" fill-rule="evenodd">
        <g transform="translate(0, 0)">
            <rect x="0" y="0" width="20" height="20"></rect>
            <path
                d="M11.4046345,13.054013 C13.2369824,11.3776961 16.0459876,11.3776961 17.8783356,13.054013 L19.6727742,14.6848411 C19.8817932,14.8757354 20.000604,15.1459343 19.9999977,15.4290053 L19.9999977,16.4243909 C20.0003067,16.7070946 19.8815211,16.9768529 19.6727742,17.1674996 L17.8783356,18.7983277 C16.0458328,20.4752885 13.2360817,20.4752885 11.4035789,18.7983277 L9.60914031,17.1674996 C9.40119655,16.9785558 9.28191684,16.7083345 9.28191684,16.4243909 L9.28191684,15.4290053 C9.28131048,15.1459343 9.40012135,14.8757354 9.60914031,14.6848411 Z M14.5932793,-4.4408921e-16 C16.2501335,-8.8817842e-16 17.5932793,1.34314575 17.5932793,3 L17.5937744,10.6336399 C15.1169142,9.46383589 12.0935528,9.84780289 9.9754508,11.7855409 L7.38705339,14.1365544 C7.08573015,14.411749 6.91445153,14.8012698 6.91532567,15.209347 L6.91532567,16.6443021 C6.91532567,17.0536372 7.08728016,17.4431902 7.38705339,17.7155731 L9.775,19.886 L4,19.8866019 C2.34314575,19.8866019 1,18.5434561 1,16.8866019 L1,3 C1,1.34314575 2.34314575,-4.4408921e-16 4,-4.4408921e-16 L14.5932793,-4.4408921e-16 Z M16.5831732,14.5423415 C15.4836945,13.5365226 13.79822,13.5365226 12.6987414,14.5423415 L11.2315239,15.8765594 L11.2315239,15.9768369 L12.6987414,17.3110547 C13.79822,18.3168736 15.4836945,18.3168736 16.5831732,17.3110547 L18.0503906,15.9768369 L18.0503906,15.8765594 Z M15.6152319,14.9318403 L15.6152319,16.9226115 L13.6666827,16.9226115 L13.6666827,14.9318403 L15.6152319,14.9318403 Z M9.77556921,8.02241931 L5.90438623,8.02241931 C5.36439956,8.02241931 4.92665388,8.460165 4.92665388,9.00015167 C4.92665388,9.54013834 5.36439956,9.97788402 5.90438623,9.97788402 L9.77556921,9.97788402 C10.3155559,9.97788402 10.7533016,9.54013834 10.7533016,9.00015167 C10.7533016,8.460165 10.3155559,8.02241931 9.77556921,8.02241931 Z M12.6888931,4.01120966 L5.90438623,4.01120966 C5.36439956,4.01120966 4.92665388,4.44895534 4.92665388,4.98894201 C4.92665388,5.52892868 5.36439956,5.96667437 5.90438623,5.96667437 L12.6888931,5.96667437 C13.2288797,5.96667437 13.6666254,5.52892868 13.6666254,4.98894201 C13.6666254,4.44895534 13.2288797,4.01120966 12.6888931,4.01120966 Z"
                fill="currentColor"></path>
        </g>
    </g>
</svg>