<svg xmlns="http://www.w3.org/2000/svg" viewBox="0 0 16 16">
  <path d="M13.0000304,6.41053854 C12.38756,6.14316416 11.7111165,5.99483943 11,5.99483943 C8.23857625,5.99483943 6,8.23149029 6,10.990539 C6,13.7495876 8.23857625,15.9862385 11,15.9862385 L11.0074822,15.986233 L11.0000304,15.9862466 L2.00000257,15.9862466 C0.895433069,15.9862466 2.56896788e-06,15.0908161 2.56896787e-06,13.9862466 L2.20937757e-09,2 C2.20937743e-09,0.8954305 0.895430503,-4.24296608e-14 2,-4.26325675e-14 L6.32254016,8.11421874e-06 L6.6622572,-1.46872982e-05 C7.13248728,-1.46872982e-05 7.58768181,0.165669861 7.9478904,0.467938118 C9.47760002,1.75159062 11.0151827,3.06210463 12.5606383,4.39948017 C12.8771239,4.67335413 13.0235879,5.11917803 13.0000304,5.73695187 L13.0000304,6.41053854 Z M2.9991399,2.99741971 C2.44733017,2.99741971 2,3.44474989 2,3.99655962 C2,4.54836935 2.44733017,4.99569952 2.9991399,4.99569952 L7.0008601,4.99569952 C7.55266983,4.99569952 8,4.54836935 8,3.99655962 C8,3.44474989 7.55266983,2.99741971 7.0008601,2.99741971 L2.9991399,2.99741971 Z M2.9991399,6.99397933 C2.44733017,6.99397933 2,7.44130951 2,7.99311924 C2,8.54492897 2.44733017,8.99225914 2.9991399,8.99225914 L4.0008601,8.99225914 C4.55266983,8.99225914 5,8.54492897 5,7.99311924 C5,7.44130951 4.55266983,6.99397933 4.0008601,6.99397933 L2.9991399,6.99397933 Z M14.4112461,13.3236721 L15.7742789,14.6855325 C16.0752404,14.9862351 16.0752404,15.4737704 15.7742789,15.774473 C15.4733174,16.0751757 14.9853625,16.0751757 14.684401,15.774473 L13.2085039,14.2998454 C12.7236089,14.5431952 12.1760234,14.68019 11.5964136,14.68019 C9.61016921,14.68019 8,13.0714056 8,11.0868696 C8,9.1023336 9.61016921,7.49354929 11.5964136,7.49354929 C13.582658,7.49354929 15.1928272,9.1023336 15.1928272,11.0868696 C15.1928272,11.932493 14.9004743,12.7098923 14.4112461,13.3236721 Z M11.5964136,13.1814801 C12.7542309,13.1814801 13.6928272,12.243691 13.6928272,11.0868696 C13.6928272,9.9300482 12.7542309,8.99225914 11.5964136,8.99225914 C10.4385963,8.99225914 9.5,9.9300482 9.5,11.0868696 C9.5,12.243691 10.4385963,13.1814801 11.5964136,13.1814801 Z" />
</svg>