<?xml version="1.0" encoding="UTF-8"?>
<svg viewBox="0 0 16 16" version="1.1" xmlns="http://www.w3.org/2000/svg" xmlns:xlink="http://www.w3.org/1999/xlink">
    <g stroke="none" stroke-width="1" fill="none" fill-rule="evenodd">
        <g>
            <rect fill-rule="nonzero" x="0" y="0" width="16" height="16"></rect>
            <path
                d="M9.75,9.75 L6.25,9.75 L6.25,14.1289657 C6.25,14.6100247 6.64175084,15 7.125,15 C7.26435238,15 7.40168943,14.9668676 7.52558091,14.9033603 L9.27558091,14.0063025 C9.56690926,13.8569663 9.75,13.5581072 9.75,13.231908 L9.75,9.75 Z M14.125,1 C14.6082492,1 15,1.39175084 15,1.875 C15,2.35824916 14.6082492,2.75 14.125,2.75 L13.753,2.75 L9.74972931,8 L6.24972931,8 L2.338,2.75 L1.875,2.75 C1.39175084,2.75 1,2.35824916 1,1.875 C1,1.39175084 1.39175084,1 1.875,1 L14.125,1 Z"
                fill="currentColor"></path>
        </g>
    </g>
</svg>