<svg xmlns="http://www.w3.org/2000/svg" viewBox="0 0 24 24">
  <path
    d="M14.25,0 C12,3.72763636 17.6784375,7.98 19.3125,10.1836364 C20.3745,11.616 21,13.3734545 21,15.2727273 C21,20.0929091 16.9708125,24 12,24 C7.0291875,24 3,20.0929091 3,15.2727273 C3,12.6992727 3.8791875,10.6216364 5.637,9.03981818 C5.98918352,8.72265283 6.5102576,8.65747907 6.93390918,8.87760621 C7.35756077,9.09773335 7.59020362,9.55453447 7.5129375,10.0145455 C7.2255,11.7289091 7.7683125,12.5863636 9.1408125,12.5863636 C10.8383617,12.5863636 10.0619877,10.1812128 9.71691516,7.453205 L9.67086682,7.06151815 C9.352215,4.11076712 9.68749298,0.903217569 14.25,0 Z M17.2352941,15.2727273 C16.6261565,15.2727273 16.1323529,15.7611439 16.1323529,16.3636364 C16.1323529,17.5686213 15.1447458,18.5454545 13.9264706,18.5454545 C13.317333,18.5454545 12.8235294,19.0338712 12.8235294,19.6363636 C12.8235294,20.2388561 13.317333,20.7272727 13.9264706,20.7272727 C16.363021,20.7272727 18.3382353,18.7736062 18.3382353,16.3636364 C18.3382353,15.7611439 17.8444317,15.2727273 17.2352941,15.2727273 Z" />
</svg>