<svg xmlns="http://www.w3.org/2000/svg" viewBox="0 0 12 12">
  <g transform="translate(-2.000000, -2.000000)" fillRule="nonzero">
    <g>
      <path
        d="M14.0059397,0 C15.1072288,0 16,0.894513756 16,1.99406028 L16,14.0059397 C16,15.1072288 15.1054862,16 14.0059397,16 L1.99406028,16 C0.892771196,16 0,15.1054862 0,14.0059397 L0,1.99406028 C0,0.892771196 0.894513756,0 1.99406028,0 L14.0059397,0 Z M14.0059397,1 L1.99406028,1 C1.44606163,1 1,1.44579254 1,1.99406028 L1,14.0059397 C1,14.5539384 1.44579254,15 1.99406028,15 L14.0059397,15 C14.5539384,15 15,14.5542075 15,14.0059397 L15,1.99406028 C15,1.44606163 14.5542075,1 14.0059397,1 Z">
      </path>
      <g transform="translate(2.500000, 2.500000)">
        <path
          d="M1.51600651,11 L0.310363538,10.6865591 C0.656538253,9.38154122 1.00072346,7.9188172 1.34291915,6.2983871 C1.36679327,6.3062724 1.40459396,6.31810036 1.45632122,6.33387097 C1.90992946,6.47580645 2.2600832,6.57240143 2.50678242,6.62365591 C2.49882438,6.65913978 2.48688732,6.71236559 2.47097124,6.78333333 C2.05317417,8.55358423 1.7348526,9.95913978 1.51600651,11 Z M4.542051,10.9231183 C4.46644963,10.3987455 4.39283776,10.0005376 4.32121541,9.72849462 C4.57985169,9.75609319 4.99764876,9.76989247 5.57460662,9.76989247 C5.88894918,9.76989247 6.10381624,9.71173835 6.21920781,9.59543011 C6.33459939,9.47912186 6.39229517,9.27114695 6.39229517,8.97150538 L6.39229517,8.05483871 L2.78133478,8.05483871 L2.78133478,6.94892473 L6.39229517,6.94892473 L6.39229517,6.42258065 L8.28431905,5.29301075 L3.43787303,5.29301075 L3.43787303,4.21075269 L10.1465003,4.21075269 L10.1465003,5.2811828 L7.6098752,6.81290323 L7.6098752,6.94892473 L11,6.94892473 L11,8.05483871 L7.6098752,8.05483871 L7.6098752,9.33225806 C7.6098752,9.86845878 7.50045216,10.2548387 7.28160608,10.4913978 C7.05082293,10.7318996 6.64695243,10.8679211 6.06999457,10.8994624 C5.44130946,10.915233 4.93199494,10.9231183 4.542051,10.9231183 Z M1.83830711,5.45860215 C1.42846808,5.07222222 0.815699041,4.54193548 0,3.86774194 L0.769940315,3.03387097 C0.793814433,3.05358423 0.83161512,3.08315412 0.883342377,3.12258065 C1.75872671,3.78494624 2.35359016,4.24820789 2.66793272,4.51236559 L1.83830711,5.45860215 Z M9.28703201,4.07473118 L8.30819316,3.65483871 C8.78567553,2.88602151 9.14577681,2.24731183 9.38849702,1.73870968 L10.4568638,2.14086022 C10.0470248,2.8702509 9.65708085,3.51487455 9.28703201,4.07473118 Z M4.21975041,4.00376344 C4.12425393,3.77114695 3.91336589,3.33942652 3.58708627,2.70860215 C3.49954784,2.53512545 3.43389401,2.40698925 3.3901248,2.32419355 L4.45849159,2.04032258 C4.77681317,2.63172043 5.06131308,3.18172043 5.31199132,3.69032258 L4.21975041,4.00376344 Z M6.61909929,3.81451613 C6.42412733,3.1718638 6.2172183,2.56272401 5.99837222,1.98709677 L7.07867607,1.78010753 C7.33731235,2.44247312 7.5482004,3.04569892 7.71134021,3.58978495 L6.61909929,3.81451613 Z M2.08301682,2.37150538 C1.69705191,1.98512545 1.1300416,1.4765233 0.381985893,0.845698925 L1.16386327,0 C1.61349249,0.346953405 2.21034545,0.831899642 2.95442214,1.45483871 L2.08301682,2.37150538 Z M3.35431362,1.69139785 C3.3304395,1.47849462 3.25483813,1.10985663 3.1275095,0.585483871 C5.59848074,0.534229391 8.0535359,0.410035842 10.492675,0.212903226 L10.7314162,1.30698925 C8.30023512,1.47258065 5.84120094,1.60071685 3.35431362,1.69139785 Z">
        </path>
      </g>
    </g>
  </g>
</svg>