<svg viewBox="0 0 16 16" fill="none" xmlns="http://www.w3.org/2000/svg">
  <path
    d="M5.18604 9.17627C4.68206 10.6882 4.11761 12.1041 3.49365 13.436L2.70166 13.0884C3.37366 11.7204 3.95018 10.3155 4.43018 8.87549L5.18604 9.17627Z"
    fill="currentColor" />
  <path
    d="M12.4585 7.36377C11.8105 7.86775 11.0782 8.38406 10.2622 8.93604V9.51221H13.4302V10.3521H10.2622V12.3442C10.2621 13.0641 9.90176 13.4243 9.19385 13.4243H7.59814L7.35791 12.6079C7.99385 12.6319 8.49792 12.6558 8.85791 12.6558C9.21789 12.6558 9.40965 12.464 9.40967 12.104V10.3521H5.79834V9.51221H9.40967V8.61182C9.88967 8.32382 10.4779 7.96374 11.1499 7.53174H6.49365V6.72803H12.4585V7.36377Z"
    fill="currentColor" />
  <path
    d="M3.15771 5.56396C3.92571 6.18797 4.56164 6.80032 5.07764 7.42432L4.47803 8.01221C4.02203 7.42421 3.38582 6.80014 2.56982 6.14014L3.15771 5.56396Z"
    fill="currentColor" />
  <path
    d="M6.854 4.37549C7.13 4.90348 7.38186 5.50399 7.60986 6.18799L6.86572 6.36768C6.67375 5.75585 6.42219 5.16786 6.13428 4.604L6.854 4.37549Z"
    fill="currentColor" />
  <path
    d="M12.8296 4.13623C12.5417 4.9759 12.1823 5.71987 11.7505 6.36768L10.9937 6.104C11.4016 5.52807 11.7503 4.79627 12.0503 3.92041L12.8296 4.13623Z"
    fill="currentColor" />
  <path
    d="M9.33838 4.23193C9.65031 4.8798 9.8784 5.46769 10.0464 5.99561L9.33838 6.26025C9.1224 5.63631 8.88221 5.03598 8.59424 4.43604L9.33838 4.23193Z"
    fill="currentColor" />
  <path
    d="M3.31396 2.75635C4.1419 3.35631 4.83761 3.94447 5.41357 4.54443L4.82568 5.13232C4.30972 4.56836 3.60228 3.96778 2.71436 3.31982L3.31396 2.75635Z"
    fill="currentColor" />
  <path
    d="M12.9136 3.24756C11.1977 3.70348 8.91806 3.94382 6.08643 3.94385L5.83447 3.22412C8.52227 3.22409 10.7542 2.99594 12.5181 2.56396L12.9136 3.24756Z"
    fill="currentColor" />
  <path
    d="M14 15V16H2V15H14ZM15 14V2C15 1.44772 14.5523 1 14 1H2C1.44772 1 1 1.44772 1 2V14C1 14.5523 1.44772 15 2 15V16C0.895431 16 0 15.1046 0 14V2C0 0.895431 0.895431 0 2 0H14C15.1046 0 16 0.895431 16 2V14C16 15.1046 15.1046 16 14 16V15C14.5523 15 15 14.5523 15 14Z"
    fill="currentColor" fill-opacity="0.5" />
</svg>