<?xml version="1.0" encoding="UTF-8"?>
<svg viewBox="0 0 16 16" version="1.1" xmlns="http://www.w3.org/2000/svg" xmlns:xlink="http://www.w3.org/1999/xlink">
    <g stroke="none" stroke-width="1" fill="none" fill-rule="evenodd">
        <g>
            <rect x="0" y="0" width="16" height="16"></rect>
            <path
                d="M14.5002856,9.53 C14.8040422,9.53 15.0502856,9.77624339 15.0502856,10.08 L15.0502856,12.42 C15.0502856,13.859494 13.9873338,15.05 12.6431428,15.05 L3.35742849,15.05 C2.01323744,15.05 0.950285633,13.859494 0.950285633,12.42 L0.950285633,10.08 C0.950285633,9.77624339 1.19652902,9.53 1.50028563,9.53 C1.80404225,9.53 2.05028563,9.77624339 2.05028563,10.08 L2.05028563,12.42 C2.05028563,13.2780106 2.65027618,13.95 3.35742849,13.95 L12.6431428,13.95 C13.3502951,13.95 13.9502856,13.2780106 13.9502856,12.42 L13.9502856,10.08 C13.9502856,9.77624339 14.196529,9.53 14.5002856,9.53 Z M4.53778563,3.853125 L6.78153563,10.7421875 L8.66122313,7.5046875 L9.83934813,8.984375 L11.6424731,5.015625 L12.9580981,7.803125 L13.9143481,7.803125 L13.9143481,8.584375 L12.4643481,8.584375 L11.6565356,6.8734375 L10.0221606,10.46875 L8.76122313,8.8859375 L6.57841063,12.646875 L4.44559813,6.0984375 L3.40809813,8.5859375 L2.08466063,8.5859375 L2.08466063,7.8046875 L2.88778563,7.8046875 L4.53778563,3.853125 Z M12.6431428,0.95 C13.9873338,0.95 15.0502856,2.14050602 15.0502856,3.58 L15.0502856,5.92 C15.0502856,6.22375661 14.8040422,6.47 14.5002856,6.47 C14.196529,6.47 13.9502856,6.22375661 13.9502856,5.92 L13.9502856,3.58 C13.9502856,2.72198942 13.3502951,2.05 12.6431428,2.05 L3.35742849,2.05 C2.65027618,2.05 2.05028563,2.72198942 2.05028563,3.58 L2.05028563,5.92 C2.05028563,6.22375661 1.80404225,6.47 1.50028563,6.47 C1.19652902,6.47 0.950285633,6.22375661 0.950285633,5.92 L0.950285633,3.58 C0.950285633,2.14050602 2.01323744,0.95 3.35742849,0.95 L12.6431428,0.95 Z"
                fill="currentColor" fill-rule="nonzero"></path>
        </g>
    </g>
</svg>