<?xml version="1.0" encoding="UTF-8"?>
<svg viewBox="0 0 16 16" version="1.1" xmlns="http://www.w3.org/2000/svg" xmlns:xlink="http://www.w3.org/1999/xlink">
    <g stroke="none" stroke-width="1" fill="none" fill-rule="evenodd">
        <g>
            <rect x="0" y="0" width="16" height="16"></rect>
            <path
                d="M13,1 C14.1045695,1 15,1.8954305 15,3 L15,10 C15,11.1045695 14.1045695,12 13,12 L3,12 C1.8954305,12 1,11.1045695 1,10 L1,3 C1,1.8954305 1.8954305,1 3,1 L13,1 Z M13,2.1 L3,2.1 C2.50294373,2.1 2.1,2.50294373 2.1,3 L2.1,10 C2.1,10.4970563 2.50294373,10.9 3,10.9 L13,10.9 C13.4970563,10.9 13.9,10.4970563 13.9,10 L13.9,3 C13.9,2.50294373 13.4970563,2.1 13,2.1 Z M13.08,3.06 C13.3230053,3.24225397 13.372254,3.58699471 13.19,3.83 L10.19,7.83 C10.0305156,8.0426459 9.74177787,8.11080763 9.50403252,7.99193496 L6.405,6.442 L3.93247509,9.58980185 C3.76565964,9.80211243 3.47393137,9.85848568 3.24341075,9.73658715 L3.16019815,9.68247509 C2.92134875,9.4948077 2.87985753,9.14904754 3.06752491,8.91019815 L5.81752491,5.41019815 C5.97887301,5.20484603 6.26238203,5.14127232 6.49596748,5.25806504 L9.585,6.803 L12.31,3.17 C12.492254,2.92699471 12.8369947,2.87774603 13.08,3.06 Z M14.25,13.9 C14.5537566,13.9 14.8,14.1462434 14.8,14.45 C14.8,14.7537566 14.5537566,15 14.25,15 L1.75,15 C1.44624339,15 1.2,14.7537566 1.2,14.45 C1.2,14.1462434 1.44624339,13.9 1.75,13.9 L14.25,13.9 Z"
                fill="currentColor" fill-rule="nonzero"></path>
        </g>
    </g>
</svg>