<svg viewBox="0 0 16 16" xmlns="http://www.w3.org/2000/svg">
  <path d="M12.9443 8.55566H2.98926V7.52148H12.9443V8.55566Z" fill="currentColor" />
  <path fill-rule="evenodd" clip-rule="evenodd"
    d="M14 0C15.1046 0 16 0.895431 16 2V14C16 15.1046 15.1046 16 14 16H2C0.895431 16 0 15.1046 0 14V2C0 0.895431 0.895431 0 2 0H14ZM2 1.2002C1.55817 1.2002 1.2002 1.55817 1.2002 2V14C1.2002 14.4418 1.55817 14.7998 2 14.7998H14C14.4418 14.7998 14.7998 14.4418 14.7998 14V2C14.7998 1.55817 14.4418 1.2002 14 1.2002H2Z"
    fill="currentColor" />
</svg>