<svg xmlns="http://www.w3.org/2000/svg" viewBox="0 0 16 16">
  <path
    d="M13.5,9.99914551 L13.5,7.99914551 C13.5,4.96157938 11.0375661,2.49914551 8,2.49914551 C4.96243388,2.49914551 2.5,4.96157938 2.5,7.99914551 L2.5,9.99914551 L4.5,9.99914551 C5.32842712,9.99914551 6,10.6707184 6,11.4991455 L6,13.4991455 C6,14.3275726 5.32842712,14.9991455 4.5,14.9991455 L2.5,14.9991455 C1.67157288,14.9991455 1,14.3275726 1,13.4991455 L1,7.99914551 C1,4.13315226 4.13400675,0.999145508 8,0.999145508 C11.8659932,0.999145508 15,4.13315226 15,7.99914551 L15,12.2735713 L14.999,12.2731455 L15,13.4991455 C15,14.3275726 14.3284271,14.9991455 13.5,14.9991455 L11.5,14.9991455 C10.6715729,14.9991455 10,14.3275726 10,13.4991455 L10,11.4991455 C10,10.6707184 10.6715729,9.99914551 11.5,9.99914551 L13.5,9.99914551 Z" />
</svg>