<svg xmlns="http://www.w3.org/2000/svg" width="76" height="20" viewBox="0 0 76 20">
  <g fill="none" fill-rule="evenodd">
    <rect width="76" height="20" fill="#D3BB99" rx="2"/>
    <path fill="#151B24" fill-rule="nonzero" d="M4 17L72 17 72 18 4 18 4 17zM4 2L72 2 72 3 4 3 4 2zM7.35077377 14.9466951L7.35077377 7.56929638C7.71407517 6.8869936 8.00257922 6.18336887 8.2376566 5.44776119L7.28666175 5C6.79513633 6.64179104 6.02579219 8.07036247 5 9.30703625L5.33124539 10.3837953C5.68386146 10 6.01510685 9.59488273 6.32498158 9.18976546L6.32498158 14.9466951 7.35077377 14.9466951zM14.9587325 9.08315565L14.9587325 8.19829424 12.041636 8.19829424 12.041636 7.71855011 14.306927 7.71855011 14.306927 6.92963753 12.041636 6.92963753 12.041636 6.43923241 14.5740604 6.43923241 14.5740604 5.59701493 12.041636 5.59701493 12.041636 5.09594883 11.0265291 5.09594883 11.0265291 5.59701493 8.48341931 5.59701493 8.48341931 6.43923241 11.0265291 6.43923241 11.0265291 6.92963753 8.7826087 6.92963753 8.7826087 7.71855011 11.0265291 7.71855011 11.0265291 8.19829424 8.0560059 8.19829424 8.0560059 9.08315565 14.9587325 9.08315565zM9.81908622 13.2409382L9.81908622 10.4904051 13.2811349 10.4904051 13.2811349 13.1556503 14.2641857 13.1556503 14.2641857 9.59488273 8.83603537 9.59488273 8.83603537 13.2409382 9.81908622 13.2409382zM8.91083272 14.978678C10.3319823 14.466951 11.2295505 13.8272921 11.6142225 13.0597015 11.9134119 12.4626866 12.073692 11.7270789 12.073692 10.8635394L11.1013265 10.8635394C11.0906411 11.6204691 10.9410464 12.249467 10.641857 12.7398721 10.2678703 13.3049041 9.47715549 13.7846482 8.25902727 14.1897655L8.91083272 14.978678zM14.3710391 15L14.9480472 14.1257996C14.1359617 13.6567164 13.2490789 13.2622601 12.266028 12.9317697L11.7210759 13.7206823C12.6293294 14.0298507 13.5162122 14.45629 14.3710391 15zM17.6585606 14.9360341L17.6585606 14.5522388 24.6681405 14.5522388 24.6681405 14.9360341 25.6298207 14.9360341 25.6298207 5.43710021 16.6968804 5.43710021 16.6968804 14.9360341 17.6585606 14.9360341zM24.6681405 13.7100213L17.6585606 13.7100213 17.6585606 6.25799574 24.6681405 6.25799574 24.6681405 10.9808102C23.920167 10.575693 23.3645296 10.1279318 23.0012282 9.61620469L24.2300418 9.61620469 24.2300418 8.84861407 21.0244412 8.84861407C21.0992385 8.67803838 21.1740359 8.49680171 21.2488332 8.30490405L23.9735937 8.30490405 23.9735937 7.53731343 23.0973962 7.53731343C23.2256202 7.28144989 23.3324736 7.02558635 23.3965856 6.75906183L22.5951855 6.56716418C22.5097028 6.89765458 22.3921641 7.21748401 22.2211987 7.53731343L21.4839106 7.53731343C21.5587079 7.23880597 21.6228199 6.91897655 21.6762466 6.59914712L20.7679931 6.48187633C20.7145664 6.84434968 20.6504544 7.19616205 20.5649718 7.53731343L19.9879636 7.53731343C19.8490543 7.1641791 19.6994596 6.84434968 19.5391796 6.56716418L18.7912061 6.84434968C18.9408008 7.0575693 19.0583395 7.29211087 19.1651928 7.53731343L18.3531073 7.53731343 18.3531073 8.30490405 20.3085237 8.30490405C20.2337264 8.49680171 20.1482437 8.67803838 20.062761 8.84861407L18.085974 8.84861407 18.085974 9.61620469 19.5819209 9.61620469C19.1117662 10.2238806 18.502702 10.7036247 17.7654139 11.0660981L18.2355687 11.8017058C18.6416114 11.5884861 19.0155981 11.3326226 19.3575289 11.0447761L19.3575289 12.5906183C19.3575289 13.0383795 19.6246622 13.2729211 20.158929 13.2729211L22.3173667 13.2729211C22.8302628 13.2729211 23.1828789 13.2089552 23.3645296 13.0916844 23.5461803 12.9744136 23.6850897 12.6119403 23.7705723 12.0042644L22.9584869 11.7484009C22.9050602 12.0682303 22.8409482 12.2921109 22.7554655 12.4093817 22.6592975 12.4946695 22.4242201 12.5479744 22.0609187 12.5479744L20.5436011 12.5479744C20.3405797 12.5479744 20.2444117 12.4626866 20.2444117 12.3134328L20.2444117 10.7675906 21.8685827 10.7675906 21.8685827 11.08742C21.8685827 11.2899787 21.751044 11.3965885 21.5159666 11.3965885 21.3022599 11.3965885 21.0564972 11.3752665 20.7786785 11.3539446L20.9603292 12.0149254C21.2488332 12.0362473 21.5480226 12.0469083 21.8685827 12.0469083 22.4349054 12.0255864 22.7234095 11.7803838 22.7234095 11.3326226L22.7234095 10.4264392C23.0867109 10.8635394 23.5568656 11.2793177 24.1338737 11.673774L24.6681405 11.0021322 24.6681405 13.7100213zM22.4990174 10.1279318L20.2444117 10.1279318C20.3726357 9.95735608 20.4901744 9.78678038 20.6077131 9.61620469L22.1784574 9.61620469C22.2639401 9.78678038 22.3707934 9.95735608 22.4990174 10.1279318zM31.588676 12.3134328C32.2191108 11.8230277 32.7106362 11.1940299 33.0632523 10.4371002 33.4265537 10.7356077 33.7898551 11.0660981 34.1531565 11.4498934L34.7301646 10.5863539C34.3134365 10.1705757 33.8753378 9.78678038 33.4158683 9.445629 33.5761484 8.82729211 33.6723164 8.14498934 33.6936871 7.37739872L34.8797593 7.37739872 34.8797593 8.52878465C34.8797593 10.1492537 35.1041513 11.2153518 35.5529354 11.7377399 35.8093834 12.0362473 36.1192582 12.196162 36.5039302 12.206823 36.6962663 12.206823 36.845861 12.1108742 36.974085 11.9189765 37.1450504 11.652452 37.262589 11.0554371 37.3160157 10.1172708L36.5466716 9.73347548C36.5359862 10.1385928 36.5146156 10.4797441 36.4718742 10.7675906 36.4184476 11.0554371 36.3650209 11.2046908 36.3115942 11.2046908 36.2474822 11.2046908 36.1833702 11.098081 36.1192582 10.9061834 35.9482928 10.4690832 35.8734955 9.68017058 35.8734955 8.52878465L35.8734955 6.38592751 33.6936871 6.38592751 33.6936871 5.07462687 32.6999509 5.07462687 32.6999509 6.38592751 31.5673053 6.38592751 31.5673053 7.37739872 32.6999509 7.37739872C32.6785802 7.8891258 32.6251535 8.36886994 32.5396708 8.81663113 32.3152788 8.6673774 32.0908868 8.51812367 31.8558094 8.3901919L31.3108573 9.17910448C31.620732 9.34968017 31.9306067 9.55223881 32.2511668 9.78678038 31.9412921 10.554371 31.4711373 11.1727079 30.8407025 11.652452L31.588676 12.3134328zM29.0455662 12.217484C29.6973717 12.217484 30.028617 11.8656716 30.028617 11.1727079L30.028617 9.64818763C30.4132891 9.55223881 30.7872759 9.445629 31.1719479 9.33901919L31.1719479 8.36886994C30.7979612 8.49680171 30.4132891 8.60341151 30.028617 8.71002132L30.028617 7.32409382 31.2467453 7.32409382 31.2467453 6.34328358 30.028617 6.34328358 30.028617 5.07462687 29.0135102 5.07462687 29.0135102 6.34328358 27.5816753 6.34328358 27.5816753 7.32409382 29.0135102 7.32409382 29.0135102 8.95522388C28.4578728 9.07249467 27.8808647 9.1684435 27.3038565 9.24307036L27.5389339 10.1918977C28.0411447 10.1066098 28.5326701 10 29.0135102 9.89339019L29.0135102 10.9275053C29.0135102 11.1833689 28.9066568 11.3219616 28.6929501 11.3219616 28.4044461 11.3219616 28.1052567 11.2899787 27.795382 11.2473348L28.0304593 12.217484 29.0455662 12.217484zM36.1299435 14.9680171L36.974085 14.3710021C36.6321543 13.7846482 36.1513142 13.0916844 35.5101941 12.3027719L34.6874232 12.8251599C35.2964873 13.6034115 35.7773274 14.3176972 36.1299435 14.9680171zM28.21211 15C28.7143208 14.4029851 29.1524196 13.6993603 29.5370916 12.8891258L28.6822648 12.4733475C28.3189634 13.2196162 27.8808647 13.8592751 27.3786539 14.3923241L28.21211 15zM33.2662736 14.9466951L34.2706952 14.7121535C34.0356178 13.9658849 33.7684844 13.2622601 33.4586097 12.6226013L32.5076148 12.8251599C32.8068042 13.4328358 33.0632523 14.1364606 33.2662736 14.9466951zM30.8086465 14.9680171L31.8237534 14.7334755C31.652788 14.0298507 31.460452 13.3795309 31.2467453 12.771855L30.2957504 12.9637527C30.4987718 13.5394456 30.6697372 14.2004264 30.8086465 14.9680171zM45.0165807 7.86780384L45.8179808 7.31343284C45.4653648 6.65245203 44.963154 5.89552239 44.3006632 5.02132196L43.5420044 5.57569296C44.1510685 6.40724947 44.642594 7.1641791 45.0165807 7.86780384zM40.9988946 7.45202559L41.6934414 6.74840085C41.2232867 6.22601279 40.6462786 5.70362473 39.9731024 5.17057569L39.2678703 5.84221748C40.0051584 6.40724947 40.5821665 6.94029851 40.9988946 7.45202559zM47.9016212 14.9573561L48.5 14.0831557C47.4421518 13.5287846 46.5125276 12.793177 45.7004422 11.8656716 46.7689757 10.3091684 47.4742078 8.28358209 47.8161385 5.79957356L46.8544584 5.59701493C46.555269 7.77185501 45.9568902 9.57356077 45.0379514 11.0127932 44.1190125 9.71215352 43.4137804 8.1130064 42.922255 6.21535181L42.0460575 6.70575693C42.6337509 8.73134328 43.4244657 10.4477612 44.4288873 11.8443497 43.6381724 12.8144989 42.6551216 13.5607676 41.49042 14.0938166L42.0460575 14.9573561C43.2321297 14.424307 44.2472366 13.6567164 45.091378 12.6759062 45.9034635 13.6140725 46.8330877 14.3816631 47.9016212 14.9573561zM40.1226971 14.5202559C40.8492999 14.0191898 41.5331614 13.4648188 42.1742815 12.8464819L41.8964628 11.7697228C41.5759027 12.0895522 41.2767133 12.3773987 40.9882093 12.6332623L40.9882093 8.26226013 38.5198968 8.26226013 38.5198968 9.23240938 40.0158438 9.23240938 40.0158438 13.0597015C40.0158438 13.2729211 39.9196758 13.4541578 39.7380251 13.5927505L40.1226971 14.5202559z"/>
    <path fill="#013D95" d="M61.9465849,6 L61.9465849,14 L59.9347148,14 L59.9347148,6 L61.9465849,6 Z M67.982195,6 C69.6488826,6 70.9999999,7.34314578 70.9999999,9 C70.9999999,10.6568542 69.6488826,12 67.982195,12 L65.9703249,12 L65.9703249,14 L63.9584549,14 L63.9584549,6 L67.982195,6 Z M53.1376119,6 L55.009657,11.113 L56.881702,6 L59.019314,6 L56.015592,13.964 L54.003722,13.964 L51,6 L53.1376119,6 Z M67.982195,7.77777778 L65.9703249,7.77777778 L65.9703249,10.1777778 L67.982195,10.1777778 C68.5377575,10.1777778 68.98813,9.64051948 68.98813,8.97777778 C68.98813,8.31503608 68.5377575,7.77777778 67.982195,7.77777778 Z"/>
  </g>
</svg>
