<svg xmlns="http://www.w3.org/2000/svg" viewBox="0 0 16 16">
  <path
    d="M14.7403403,2.32137635 C12.9942809,0.567863681 10.1728479,0.567863681 8.42678847,2.32137635 L7.99897078,2.7532357 L7.58411727,2.32137635 C5.83767107,0.559541217 3.0072885,0.559541217 1.26084229,2.32137635 C-0.47959782,4.0782587 -0.388848615,7.04565591 1.3515915,8.80253826 L1.6756958,9.12970444 L7.11092499,14.6293678 C7.60175275,15.1235441 8.39618882,15.1235441 8.88701658,14.6293678 L14.3254868,9.13951942 L14.6495911,8.81235325 C16.3867902,7.05874255 16.4807804,4.09134535 14.7403403,2.32137635 Z M14.416236,5.70100293 C14.3577626,6.42992128 14.0386757,7.11249714 13.5184671,7.62146837 L13.1781576,7.98135116 L7.9924887,13.21601 L2.80681983,7.98135116 L2.47623344,7.63455502 C1.95507649,7.12591112 1.63485578,6.44337395 1.57522347,5.71408958 C1.52027392,4.88645181 1.82162122,4.0751045 2.40205197,3.48793704 C2.98248271,2.90076957 3.78559107,2.59484243 4.60559872,2.64854252 C5.32933675,2.70901087 6.00609732,3.03487651 6.50809098,3.56460781 L6.85488259,3.91140396 L7.45447555,4.51666138 L8.31011092,5.38038008 C8.52432485,5.5960333 8.83623959,5.67994369 9.12835988,5.600503 C9.42048016,5.52106231 9.64842597,5.29033949 9.72633232,4.99524558 C9.80423867,4.70015167 9.72026973,4.38551846 9.5060558,4.16986523 L9.19815671,3.84269906 L9.56115353,3.49263125 C10.4007491,2.64633245 11.6716897,2.41313785 12.7526097,2.90705679 C13.8335298,3.40097573 14.4986207,4.51882654 14.4227181,5.71408958 L14.416236,5.70100293 Z" />
</svg>