<svg width="16" height="16" viewBox="0 0 16 16" xmlns="http://www.w3.org/2000/svg">
  <path
    d="M12.7822 12.5244C12.7821 13.2801 12.3378 13.6641 11.4619 13.6641H10.4541L10.25 12.8838L11.21 12.9199C11.702 12.9199 11.9541 12.7278 11.9541 12.3438V9.08008H4.22656V13.7002H3.39844V8.32422H12.7822V12.5244Z"
    fill="currentColor" />
  <path fill-rule="evenodd" clip-rule="evenodd"
    d="M10.4541 12.248H5.73828V9.84766H10.4541V12.248ZM6.51855 11.5996H9.68652V10.4961H6.51855V11.5996Z"
    fill="currentColor" />
  <path fill-rule="evenodd" clip-rule="evenodd"
    d="M11.4502 7.60352H4.74219V5.27637H11.4502V7.60352ZM5.58203 6.93164H10.6104V5.94824H5.58203V6.93164Z"
    fill="currentColor" />
  <path
    d="M8.24609 2.62402C8.37809 2.94801 8.50989 3.30811 8.62988 3.7041H13.3828V4.49609H2.78613V3.7041H7.70605C7.58605 3.3681 7.44185 3.06799 7.29785 2.79199L8.24609 2.62402Z"
    fill="currentColor" />
  <path
    d="M14 15V16H2V15H14ZM15 14V2C15 1.44772 14.5523 1 14 1H2C1.44772 1 1 1.44772 1 2V14C1 14.5523 1.44772 15 2 15V16C0.895431 16 0 15.1046 0 14V2C0 0.895431 0.895431 0 2 0H14C15.1046 0 16 0.895431 16 2V14C16 15.1046 15.1046 16 14 16V15C14.5523 15 15 14.5523 15 14Z"
    fill="currentColor" fill-opacity="0.5" />
</svg>