<svg xmlns="http://www.w3.org/2000/svg" viewBox="0 0 18 18">
  <path transform="translate(1 2.2)"
    d="M0,2.2 L0,11.8 C0,12.68 0.72,13.4 1.6,13.4 L14.4,13.4 C15.28,13.4 16,12.68 16,11.8 L16,2.2 C16,1.32 15.28,0.6 14.4,0.6 L1.6,0.6 C0.716,0.6 0,1.316 0,2.2 Z M4.8,3.8 C5.684,3.8 6.4,4.516 6.4,5.4 C6.4,6.284 5.684,7 4.8,7 C3.916,7 3.2,6.284 3.2,5.4 C3.2,4.516 3.916,3.8 4.8,3.8 Z M2.4,9.48 C2.4,8.6816 3.9992,8.28 4.8,8.28 C5.6008,8.28 7.2,8.6816 7.2,9.48 L7.2,10.2 L2.4,10.2 L2.4,9.48 Z M12.8,6.2 L9.6,6.2 C9.1584,6.2 8.8,5.8416 8.8,5.4 C8.8,4.9584 9.1584,4.6 9.6,4.6 L12.8,4.6 C13.2416,4.6 13.6,4.9584 13.6,5.4 C13.6,5.8416 13.2416,6.2 12.8,6.2 Z M12.8,9.4 L9.6,9.4 C9.1584,9.4 8.8,9.0416 8.8,8.6 C8.8,8.1584 9.1584,7.8 9.6,7.8 L12.8,7.8 C13.2416,7.8 13.6,8.1584 13.6,8.6 C13.6,9.0416 13.2416,9.4 12.8,9.4 Z" />
</svg>