<?xml version="1.0" encoding="UTF-8"?>
<svg viewBox="0 0 16 16" version="1.1" xmlns="http://www.w3.org/2000/svg" xmlns:xlink="http://www.w3.org/1999/xlink">
    <g stroke="none" stroke-width="1" fill="none" fill-rule="evenodd">
        <g>
            <rect x="0" y="0" width="16" height="16"></rect>
            <path
                d="M9.93955286,13.8749081 C10.0110259,13.8749081 10.0689567,13.9309081 10.0689567,13.999999 L10.0689567,14.5003626 C10.0689567,14.7767262 9.83798589,14.9999995 9.55134135,14.9999995 L6.44941102,14.9999995 C6.31206966,15.0001923 6.1802959,14.9475377 6.08318079,14.8536594 C5.98606568,14.759781 5.93159561,14.6323992 5.93179512,14.4996353 L5.93179512,13.999999 C5.93179512,13.9309081 5.98972646,13.8749081 6.06119952,13.8749081 L9.94030521,13.8749081 L9.93955286,13.8749081 Z M8.00000001,1.00072727 C10.3989124,1.00132343 12.4980967,2.55937977 13.1188936,4.79934455 C13.7396905,7.03930933 12.7274468,9.40316186 10.6505216,10.5636356 L10.6505216,12.3745446 C10.6505216,12.6509082 10.4195508,12.8749082 10.1336586,12.8749082 L5.86634141,12.8749082 C5.58088586,12.8749082 5.34947842,12.6512134 5.34947842,12.3752719 L5.34947842,10.5643629 C3.27255326,9.40388915 2.26030954,7.04003661 2.88110641,4.80007181 C3.50190327,2.56010702 5.60108762,1.00205069 8.00000001,1.00072727 Z M9.66994455,3 L6.92711875,3 C6.75123169,3 6.60025625,3.12520275 6.56771715,3.29805374 L5.83629693,7.1823522 C5.81619583,7.28930852 5.84476162,7.39966134 5.91423376,7.48343084 C5.98370589,7.56720035 6.08686975,7.61568713 6.19569854,7.61571868 L7.23696664,7.61571868 L6.88753063,10.5915932 C6.87535395,10.6953028 6.90808554,10.7992718 6.97747757,10.8773018 C7.0468696,10.9553318 7.14630457,11 7.25072648,11 C7.38388455,11 7.50651133,10.9275969 7.57085997,10.8110193 L10.1226022,6.19045497 C10.185177,6.0771675 10.1832156,5.93924387 10.1174446,5.82778163 C10.0516736,5.71631939 9.9318892,5.64792006 9.80246875,5.64792402 L8.68216155,5.64792402 L9.98056957,3.55875933 C10.0506632,3.44598257 10.0541208,3.30407334 9.9896027,3.18801677 C9.92508463,3.07196021 9.80272899,3 9.66994455,3 Z"
                fill="currentColor"></path>
        </g>
    </g>
</svg>