<svg xmlns="http://www.w3.org/2000/svg" viewBox="0 0 16 16">
  <path
    d="M4.92290547,1 L4.92290547,2.09373024 L2.46140886,2.09373024 C1.78107535,2.09373024 1.23059912,2.61616399 1.23059912,3.26046346 L1.23059912,12.7397861 C1.23059912,13.3845015 1.78114555,13.9065193 2.46140886,13.9065193 L13.5382577,13.9065193 C14.2173977,13.9065193 14.7690674,13.3846346 14.7690674,12.7397861 L14.7690674,6.83339988 L15.9998771,6.83339988 L15.9998771,12.6667499 C15.9998771,13.9553321 14.8975206,15 13.5381173,15 L2.46140886,15 C1.10200549,15 0,13.9550826 0,12.6665835 L0,3.33325015 C0,2.04463458 1.10204059,1 2.46140886,1 L4.92290547,1 Z M16,2.84473916 L15.9998596,3.247653 C12.9483276,1.79265122 10.9001313,3.03508259 8.75366891,6.60357695 L10.6659529,7.66320143 C10.8029182,7.73883304 10.8859679,7.87863339 10.8677679,8.02610339 C10.8617305,8.07385146 10.8461104,8.12063458 10.8208199,8.16166132 C10.7728189,8.2425003 10.689892,8.30409031 10.586466,8.32808081 L5.12845871,10.3265455 C4.92171202,10.3766061 4.70420678,10.2558717 4.64525414,10.0600547 L3.70545178,4.5148568 C3.66232983,4.37131313 3.71505199,4.21858586 3.83762575,4.13102555 C3.96142805,4.04278313 4.12836986,4.04100297 4.26563352,4.1173167 L6.21393149,5.1963066 C8.40144486,1.56123113 11.4459215,-0.818885324 16,2.84473916 Z">
  </path>
</svg>