<svg xmlns="http://www.w3.org/2000/svg" viewBox="0 0 16 16">
  <path
    d="M13.5065189,14.1409396 L12.185599,11.5753172 C11.9485677,11.1149312 12.1406907,10.5551903 12.6115703,10.326543 C13.0792829,10.0994334 13.6480693,10.283559 13.8834444,10.740728 L15.8972531,14.6521484 C16.216108,15.2714602 15.7537765,15.9979464 15.0483304,15.9979464 L0.951669588,15.9979464 C0.246223497,15.9979464 -0.216107958,15.2714602 0.102746911,14.6521484 L2.1165556,10.740728 C2.35193069,10.283559 2.92071707,10.0994334 3.38842972,10.326543 C3.85930927,10.5551903 4.05143233,11.1149312 3.81440095,11.5753172 L2.49348114,14.1409396 L13.5065189,14.1409396 Z M6.73382281,4.48844314 C6.46266704,3.49638693 6.04745303,2.53451021 5.47674368,1.63098472 C5.07121135,0.988961231 5.09167698,0.524734493 5.51901309,0.179138696 C5.9973399,-0.207694364 6.73141829,0.0422107922 7.1559403,0.829747391 C7.84527123,2.10853462 8.26603123,3.06075965 8.52340075,4.0023772 C8.88705044,5.33283363 9.0661467,6.96081357 9.06372115,8.89549365 L10.835866,7.12113673 C11.1955197,6.76103418 11.7791572,6.76171979 12.1393331,7.1223432 C12.4993753,7.48283266 12.5000612,8.06677811 12.1405419,8.42674623 L8.72001887,11.8515388 C8.36036524,12.2116414 7.77672773,12.2109557 7.4165518,11.8503323 L3.98797297,8.41749397 C3.62793081,8.05700451 3.62724484,7.47305905 3.98676419,7.11309094 C4.34641782,6.75298839 4.93005533,6.753674 5.29023126,7.1142974 L7.20787619,9.03432474 C7.21911177,7.20052167 7.05999178,5.68177183 6.73382281,4.48844314 Z" />
</svg>