<svg width="14" height="14" viewBox="0 0 14 14" xmlns="http://www.w3.org/2000/svg">
  <path fill-rule="evenodd" clip-rule="evenodd"
    d="M7 0.21875C10.7452 0.21875 13.7812 3.25482 13.7812 7C13.7812 10.7452 10.7452 13.7812 7 13.7812C3.25482 13.7812 0.21875 10.7452 0.21875 7C0.21875 3.25482 3.25482 0.21875 7 0.21875ZM6.25098 1.58301C3.58511 1.94821 1.53125 4.23383 1.53125 7C1.53125 10.0203 3.97969 12.4688 7 12.4688C9.80823 12.4688 12.1205 10.3519 12.4316 7.62695H6.25098V1.58301ZM7.49805 6.41602H12.4365C12.1623 3.83369 10.0921 1.78892 7.49805 1.55469V6.41602Z" />
</svg>