<svg xmlns="http://www.w3.org/2000/svg" viewBox="0 0 16 16">
  <path
    d="M1.875,13.425 L3.45,13.425 L3.45,15 L1.875,15 L1.875,13.425 Z M8,5.9 L9.575,5.9 L9.575,7.475 L8,7.475 L8,5.9 Z M2.84063745,4.56972112 L7.74900398,4.56972112 C8.08366534,4.56972112 8.30677291,4.34661355 8.30677291,4.01195219 C8.30677291,3.67729084 8.08366534,3.45418327 7.74900398,3.45418327 L2.95219124,3.45418327 L4.17928287,2.22709163 C4.40239044,2.00398406 4.40239044,1.66932271 4.17928287,1.44621514 C3.9561753,1.22310757 3.62151394,1.22310757 3.39840637,1.44621514 L1.16733068,3.67729084 C0.944223108,3.90039841 0.944223108,4.23505976 1.16733068,4.45816733 L3.39840637,6.68924303 C3.50996016,6.80079681 3.62151394,6.80079681 3.84462151,6.80079681 C4.06772908,6.80079681 4.17928287,6.80079681 4.29083665,6.68924303 C4.51394422,6.46613546 4.51394422,6.1314741 4.29083665,5.90836653 L2.84063745,4.56972112 Z M12.7689243,1 C13.6613546,1 14.2191235,1.44621514 14.4422311,1.78087649 C14.7768924,2.33864542 15,3.11952191 15,4.23505976 C15,5.35059761 14.7768924,6.1314741 14.4422311,6.68924303 C14.1075697,7.24701195 13.5498008,7.58167331 12.7689243,7.58167331 C11.7649402,7.58167331 11.3187251,7.13545817 11.0956175,6.68924303 C10.7609562,6.1314741 10.5378486,5.35059761 10.5378486,4.23505976 C10.5378486,3.11952191 10.7609562,2.33864542 11.0956175,1.89243028 C11.4302789,1.33466135 11.9880478,1 12.7689243,1 Z M12.7689243,2.00398406 C12.3227092,2.00398406 12.0996016,2.22709163 11.9880478,2.33864542 C11.7649402,2.78486056 11.6533865,3.34262948 11.6533865,4.23505976 C11.6533865,5.12749004 11.7649402,5.79681275 11.9880478,6.1314741 C12.0996016,6.24302789 12.3227092,6.46613546 12.7689243,6.46613546 C13.2151394,6.46613546 13.438247,6.24302789 13.5498008,6.1314741 C13.7729084,5.79681275 13.8844622,5.12749004 13.8844622,4.23505976 C13.8844622,3.34262948 13.7729084,2.67330677 13.5498008,2.33864542 C13.438247,2.22709163 13.2151394,2.00398406 12.7689243,2.00398406 Z M12.7689243,8.4375 C13.7729084,8.4375 14.2191235,8.875 14.4422311,9.203125 C14.7768924,9.75 15,10.515625 15,11.609375 C15,12.703125 14.7768924,13.578125 14.4422311,14.125 C14.1075697,14.671875 13.5498008,15 12.7689243,15 C11.876494,15 11.3187251,14.5625 11.0956175,14.234375 C10.7609562,13.6875 10.5378486,12.921875 10.5378486,11.828125 C10.5378486,10.734375 10.7609562,9.859375 11.0956175,9.3125 C11.4302789,8.765625 11.9880478,8.4375 12.7689243,8.4375 Z M12.7689243,9.53125 C12.3227092,9.53125 12.0996016,9.75 11.9880478,9.859375 C11.7649402,10.1875 11.6533865,10.84375 11.6533865,11.71875 C11.6533865,12.59375 11.7649402,13.25 11.9880478,13.578125 C12.0996016,13.6875 12.3227092,13.90625 12.7689243,13.90625 C13.2151394,13.90625 13.438247,13.6875 13.5498008,13.578125 C13.7729084,13.140625 13.8844622,12.59375 13.8844622,11.71875 C13.8844622,10.84375 13.7729084,10.1875 13.5498008,9.859375 C13.438247,9.75 13.2151394,9.53125 12.7689243,9.53125 Z M7.19123506,8.4375 C8.19521912,8.4375 8.64143426,8.88241525 8.86454183,9.32733051 C9.19920319,9.88347458 9.42231076,10.6620763 9.42231076,11.7743644 C9.42231076,12.8866525 9.19920319,13.6652542 8.86454183,14.1101695 C8.52988048,14.6663136 7.97211155,15 7.19123506,15 C6.29880478,15 5.74103586,14.5550847 5.51792829,14.2213983 C5.18326693,13.6652542 4.96015936,12.8866525 4.96015936,11.7743644 C4.96015936,10.6620763 5.18326693,9.88347458 5.51792829,9.32733051 C5.85258964,8.77118644 6.41035857,8.4375 7.19123506,8.4375 Z M7.19123506,9.54978814 C6.74501992,9.54978814 6.52191235,9.77224576 6.41035857,9.88347458 C6.187251,10.217161 6.07569721,10.8845339 6.07569721,11.7743644 C6.07569721,12.6641949 6.187251,13.3315678 6.41035857,13.6652542 C6.52191235,13.7764831 6.74501992,13.9989407 7.19123506,13.9989407 C7.6374502,13.9989407 7.86055777,13.7764831 7.97211155,13.6652542 C8.19521912,13.220339 8.30677291,12.6641949 8.30677291,11.7743644 C8.30677291,10.8845339 8.19521912,10.217161 7.97211155,9.88347458 C7.86055777,9.77224576 7.6374502,9.54978814 7.19123506,9.54978814 Z">
  </path>
</svg>