<svg xmlns="http://www.w3.org/2000/svg" viewBox="0 0 16 16">
  <path d="M8,0 C12.418,0 16,3.582 16,8 C16,12.418 12.418,16 8,16 C3.581,16 0,12.418 0,8 C0,3.582 3.581,0 8,0 Z M9.619,12.006 C9.832,12.006 10.005,11.805 10.005,11.558 C10.005,11.311 9.832,11.11 9.619,11.11 L9,11 L9,7 C9,6.959 9.004,6.945 9.007,6.93 C8.996,6.956 8.971,6.988 8.894,6.988 L6.38,6.988 C6.167,6.988 5.995,7.189 5.995,7.436 C5.995,7.683 6.167,7.884 6.38,7.884 L7,8 L7,11 L6.38,11.11 C6.167,11.11 5.995,11.311 5.995,11.558 C5.995,11.805 6.167,12.006 6.38,12.006 L9.619,12.006 Z M7,4 L7,4.941 C6.998,4.962 6.987,4.98 6.987,5.001 C6.987,5.023 6.998,5.04 7,5.061 L7,6 L7.967,6 C7.978,6.001 7.988,6.007 8,6.007 C8.011,6.007 8.021,6.001 8.033,6 L9,6 L9,5.062 C9.001,5.041 9.012,5.023 9.012,5.001 C9.012,4.98 9.001,4.962 9,4.94 L9,4 L8.02,4 C8.013,4 8.007,3.996 8,3.996 C7.993,3.996 7.987,4 7.98,4 L7,4 Z" />
</svg>