<svg xmlns="http://www.w3.org/2000/svg" viewBox="0 0 18 18">
  <path transform="translate(1 1)"
    d="M0.0473562813,7.41021233 C0.243655509,3.13122321 3.97210259,-0.182931917 8.37507591,0.00783968171 C12.7780492,0.19861128 16.1882324,3.82206828 15.9919332,8.1010574 C16.0263807,9.43287879 15.6962349,10.7496971 15.0352585,11.9168465 C14.8662989,12.2250466 14.8374008,12.5878026 14.9555357,12.9176034 L15.7793388,15.3323329 C15.8237933,15.450505 15.7919671,15.5830456 15.6982834,15.6698892 C15.6045996,15.7567328 15.466868,15.78137 15.3475065,15.7326357 L13.1285529,14.8932912 C12.7514294,14.7398328 12.3226086,14.7636469 11.9659275,14.9578561 C9.36477606,16.420937 6.13803446,16.3380579 3.62003604,14.7434913 C1.10203761,13.1489247 -0.279254543,10.3136858 0.0473562813,7.41021233 Z M9,12.1428571 L9,7.85714286 C9,7.38375593 8.55228475,7 8,7 C7.44771525,7 7,7.38375593 7,7.85714286 L7,12.1428571 C7,12.6162441 7.44771525,13 8,13 C8.55228475,13 9,12.6162441 9,12.1428571 Z M8,5.66666667 C8.73637967,5.66666667 9.33333333,5.069713 9.33333333,4.33333333 C9.33333333,3.59695367 8.73637967,3 8,3 C7.26362033,3 6.66666667,3.59695367 6.66666667,4.33333333 C6.66666667,5.069713 7.26362033,5.66666667 8,5.66666667 Z" />
</svg>