<svg xmlns="http://www.w3.org/2000/svg" viewBox="0 0 16 16">
  <path
    d="M9.11176065,0.619926601 L15.8541846,12.8423907 C16.2256004,13.4835802 15.8541846,14 15.116916,14 L0.819643832,14 C0.185346364,14 -0.208485281,13.5953971 0.1164081,12.8423907 L6.87650291,0.619926601 C7.34036361,-0.190812312 8.62722937,-0.222321956 9.11176065,0.619926601 Z M8.05228758,4.00073573 C7.46044488,4.02074428 7.06528595,4.39396796 7.11111111,4.93823573 L7.11111111,8.68823573 C7.56925676,8.53675082 7.79618679,8.68823573 8.05228758,8.68823573 C8.31519082,8.68823573 8.53281457,8.53675082 8.99346405,8.68823573 L8.99346405,4.93823573 C9.04179645,4.35115701 8.56502862,3.98122648 8.05228758,4.00073573 Z M8.05228758,11.875 C8.5720946,11.875 8.99346405,11.4558242 8.99346405,10.9375 C8.99346405,10.4198814 8.5720946,10 8.05228758,10 C7.53248056,10 7.11111111,10.4198814 7.11111111,10.9375 C7.11111111,11.4558242 7.53248056,11.875 8.05228758,11.875 Z" />
</svg>