<svg xmlns="http://www.w3.org/2000/svg" viewBox="0 0 19 19">
  <path transform="translate(2.5 0.5)"
    d="M1.98333333,8.77634282 L1.98333333,7.54892454 C2.24011668,7.37088808 2.44040469,7.19456616 2.58420337,7.01995348 C2.93685251,6.58513367 3.24498791,5.82849008 3.50861881,4.75 L4.58196786,4.75 C4.49979718,5.14373447 4.42789892,5.45186987 4.36627092,5.67441544 C4.2909478,5.94147013 4.15742246,6.30780888 3.96569089,6.77344269 L3.96569089,13.470319 L2.97964776,13.470319 L2.97964776,8.14979457 C2.66808396,8.40657793 2.33598247,8.61542525 1.98333333,8.77634282 Z M4.79766479,13.5011329 L4.79766479,12.525361 C5.03732926,12.3678672 5.21878677,12.1864097 5.34204278,11.980983 C5.50638412,11.6933857 5.62107897,11.3869621 5.68613075,11.0617032 C5.72721608,10.849429 5.76658894,10.6046325 5.8042505,10.3273065 L6.80056492,10.3273065 C6.67388513,11.2585741 6.46674967,11.9758449 6.17915232,12.4791402 C5.87443607,13.0132496 5.41394484,13.3539104 4.79766479,13.5011329 Z M4.83874992,9.85996314 L4.83874992,8.90986949 L7.62740318,8.90986949 L7.62740318,8.21655791 L6.28186514,8.21655791 C5.85389289,8.21655791 5.55260495,8.15150711 5.37799227,8.02140354 C5.21022714,7.89814753 5.09895603,7.72524934 5.04417558,7.50270376 C5.01678535,7.38971909 5.00309045,6.97716003 5.00309045,6.2650142 C5.00309045,5.71720972 5.05273448,5.37141332 5.15202405,5.22761465 C5.25473739,5.07012086 5.37285596,4.9605616 5.5063833,4.8989336 C5.66387709,4.82361048 5.97714808,4.78594949 6.44620567,4.78594949 L9.84600024,4.78594949 C10.2910914,4.78594949 10.5940912,4.83730539 10.7550088,4.94001873 C10.9022312,5.03246074 11.0083667,5.14373185 11.0734185,5.27383542 C11.1521654,5.43817676 11.1915383,5.7959562 11.1915383,6.34718446 C11.1915383,6.99427851 11.1761315,7.38115962 11.1453175,7.50783941 C11.0871133,7.73380875 10.9758422,7.90328322 10.8115008,8.0162679 C10.6129217,8.14979524 10.3938032,8.21655791 10.1541387,8.21655791 L8.57749683,8.21655791 L8.57749683,8.90986949 L11.4277778,8.90986949 L11.4277778,9.85996314 L8.57749683,9.85996314 L8.57749683,13.5011329 L7.62740318,13.5011329 L7.62740318,9.85996314 L4.83874992,9.85996314 Z M6.36917105,7.25105734 L9.68679536,7.25105734 C9.86825559,7.25105734 9.99664534,7.23222684 10.0719685,7.19456528 C10.1609867,7.15005617 10.2054951,7.05590369 10.2054951,6.91210501 L10.2054951,6.25474292 C10.2054951,6.05616379 10.1866646,5.92777404 10.1490031,5.86956981 C10.0976464,5.79082292 9.94357871,5.75145006 9.68679536,5.75145006 L6.58486798,5.75145006 C6.29042307,5.75145006 6.1209486,5.77541615 6.07643949,5.82334904 C6.01481149,5.88497705 5.98399795,6.01507866 5.98399795,6.21365779 L5.98399795,6.75803577 C5.98399795,6.98058134 6.00625217,7.11581854 6.05076128,7.16375143 C6.10896551,7.22195566 6.21510104,7.25105734 6.36917105,7.25105734 Z M9.38379252,10.3273065 L10.3749713,10.3273065 C10.457142,10.8785348 10.5393114,11.2722633 10.6214821,11.508504 C10.7447381,11.8508818 10.8988058,12.1127969 11.0836898,12.2942571 C11.1521654,12.3627327 11.2548772,12.4449021 11.3918283,12.5407679 L11.3918283,13.5011329 C11.0905358,13.4292335 10.8491631,13.3299455 10.6677029,13.2032657 C10.1849502,12.8677354 9.8374419,12.3319222 9.62516766,11.5958099 C9.54642077,11.3116363 9.46596319,10.8888061 9.38379252,10.3273065 Z M6.95454545,0.5 L0,3.59090909 C0,3.59090909 0,6.68181818 0,8.22727273 C0,14.2777273 4.97559091,17.1028182 6.95454545,17.5 C8.9335,17.1028182 13.9090909,14.2777273 13.9090909,8.22727273 C13.9090909,6.68181818 13.9090909,3.59090909 13.9090909,3.59090909 L6.95454545,0.5 Z" />
</svg>