<svg width="30" height="16" viewBox="0 0 30 16" fill="none" xmlns="http://www.w3.org/2000/svg">
  <path fill-rule="evenodd" clip-rule="evenodd"
    d="M7.15186 2.71973C6.99587 3.72763 6.80435 4.66383 6.58838 5.55176H12.2046V6.37988H6.35986C6.21586 6.85988 6.07181 7.31605 5.90381 7.74805H10.812V8.49219C10.488 9.52409 9.83988 10.4599 8.85596 11.2998C9.82796 11.8758 11.0167 12.4038 12.4087 12.8838L11.9644 13.6885C10.4284 13.1245 9.15595 12.5116 8.14795 11.8516C7.16402 12.5475 5.94062 13.1724 4.48877 13.7363L4.03271 12.9316C5.37649 12.4397 6.4922 11.8995 7.39209 11.3115C6.45628 10.5916 5.79585 9.81157 5.3999 8.97168C4.5239 10.8677 3.39583 12.3684 2.02783 13.4844L1.58447 12.6924C3.33647 11.1564 4.62045 9.05588 5.46045 6.37988H2.48389L3.43213 3.04395L4.28467 3.18848L3.6001 5.55176H5.70068C5.94062 4.61597 6.1319 3.64405 6.27588 2.6123L7.15186 2.71973ZM6.04834 8.54004C6.4563 9.35593 7.14028 10.1117 8.1001 10.8076C8.98802 10.1117 9.60003 9.35597 9.93604 8.54004H6.04834Z"
    fill="currentColor" />
  <path
    d="M17.6401 5.90039C17.2922 6.57226 16.8604 7.22042 16.3325 7.82031V13.7002H15.48V8.69629C15.0001 9.12816 14.4845 9.54845 13.9087 9.94434L13.6567 9.08008C15.1205 8.04818 16.1879 6.87188 16.8599 5.54004L17.6401 5.90039Z"
    fill="currentColor" />
  <path
    d="M24.4683 7.36426H22.5239V12.6084C22.5238 13.3041 22.1277 13.6523 21.3599 13.6523H19.5962L19.4165 12.7998C19.9923 12.8358 20.5322 12.8603 21.0601 12.8604C21.4441 12.8604 21.6479 12.7036 21.6479 12.3916V7.36426H17.8687V6.51172H24.4683V7.36426Z"
    fill="currentColor" />
  <path
    d="M27.0845 11.0723C27.3004 11.0723 27.4679 11.1324 27.6118 11.2764C27.7438 11.4084 27.8159 11.5763 27.8159 11.7803C27.8159 11.9961 27.7438 12.164 27.6118 12.2959C27.4679 12.4277 27.2883 12.5 27.0845 12.5C26.8805 12.5 26.7126 12.4278 26.5806 12.2959C26.4366 12.152 26.3648 11.9842 26.3647 11.7803C26.3647 11.5763 26.4366 11.4084 26.5806 11.2764C26.7126 11.1324 26.8805 11.0723 27.0845 11.0723Z"
    fill="currentColor" />
  <path d="M27.4683 10.1963H26.7241L26.5327 3.93164H27.6479L27.4683 10.1963Z" fill="currentColor" />
  <path
    d="M17.0767 3.16406C16.4047 4.49606 15.3244 5.67238 13.8364 6.69238L13.5845 5.82812C14.8324 4.94014 15.7324 3.93169 16.2964 2.80371L17.0767 3.16406Z"
    fill="currentColor" />
  <path
    d="M9.16846 2.70801C10.0324 3.36798 10.7399 4.02851 11.3159 4.68848L10.7046 5.2998C10.2006 4.66386 9.49218 3.99239 8.59229 3.27246L9.16846 2.70801Z"
    fill="currentColor" />
  <path d="M23.9399 4.31641H18.1919V3.46387H23.9399V4.31641Z" fill="currentColor" />
  <path
    d="M28 15V16H2V15H28ZM29 14V2C29 1.44772 28.5523 1 28 1H2C1.44772 1 1 1.44772 1 2V14C1 14.5523 1.44772 15 2 15V16L1.7959 15.9893C0.787223 15.887 0 15.0357 0 14V2C0 0.895431 0.895431 5.63724e-08 2 0H28C29.1046 0 30 0.895431 30 2V14C30 15.0357 29.2128 15.887 28.2041 15.9893L28 16V15C28.5523 15 29 14.5523 29 14Z"
    fill="currentColor" fill-opacity="0.5" />
</svg>