<svg xmlns="http://www.w3.org/2000/svg" viewBox="0 0 24 24">
  <path transform="translate(3 3)"
    d="M10.9980182,0.00943243807 C10.8987635,0.0244687225 10.7995088,0.0725844786 10.7092767,0.129722406 L6.13753599,3.01668163 C5.77660909,3.24523257 5.66833102,3.71436344 5.89691806,4.07523334 C6.12550509,4.43610325 6.59471006,4.54436422 6.95563696,4.31581328 L11.5273777,1.42885406 C11.8883045,1.20030312 11.9965826,0.731172244 11.7679956,0.370302341 C11.599563,0.0996502987 11.2927756,-0.038683549 10.9980182,0.00943243807 Z M11.9364281,2.07841988 L7.38874923,4.96537911 C7.38874923,4.96537911 7.19324736,5.69614085 8.03841765,7.34712046 L0.947828863,11.4353586 C-0.104874586,12.0548523 -0.189091247,12.8307222 0.250036862,13.5284041 C0.689164972,14.2260859 1.45011899,14.5268108 2.46372183,13.841158 L9.21744551,9.22364396 C10.3363189,10.6761455 11.0702036,10.8114715 11.0702036,10.8114715 L15.6419443,7.9485703 C15.6419443,7.9485703 15.9186549,6.94715651 14.4388546,4.6045092 C12.9590543,2.26186189 11.9364281,2.07841988 11.9364281,2.07841988 Z M16.3397363,8.47784616 C16.2404816,8.49288221 16.1412269,8.5409982 16.0509948,8.59813613 L11.4792541,11.4610374 C11.1183272,11.6895883 11.0100491,12.1587192 11.2386361,12.5195891 C11.4672232,12.880459 11.9604899,12.9887199 12.3214168,12.760169 L16.8690957,9.89726778 C17.2300226,9.66871684 17.3383007,9.19958597 17.1097137,8.83871606 C16.9382736,8.56806402 16.6344936,8.42973017 16.3397363,8.47784616 Z M8.76027144,16.4602884 C8.333175,16.4602884 7.99029406,16.8061223 7.99029406,17.2301442 L7.99029406,18 L18,18 L18,17.2301442 C18,16.8061223 17.6571198,16.4602884 17.2300226,16.4602884 L8.76027144,16.4602884 Z" />
</svg>