<?xml version="1.0" encoding="UTF-8"?>
<svg viewBox="0 0 18 16" version="1.1" xmlns="http://www.w3.org/2000/svg" xmlns:xlink="http://www.w3.org/1999/xlink">
    <g stroke="none" stroke-width="1" fill="currentColor" fill-rule="evenodd">
        <g>
            <path
                d="M1,0 L2,0 C2.55228475,0 3,0.44771525 3,1 L3,15 C3,15.5522847 2.55228475,16 2,16 L1,16 C0.44771525,16 0,15.5522847 0,15 L0,1 C0,0.44771525 0.44771525,1.11022302e-16 1,0 Z M6,0 L7,0 C7.55228475,0 8,0.44771525 8,1 L8,15 C8,15.5522847 7.55228475,16 7,16 L6,16 C5.44771525,16 5,15.5522847 5,15 L5,1 C5,0.44771525 5.44771525,1.11022302e-16 6,0 Z M11,0 L12,0 C12.5522847,0 13,0.44771525 13,1 L13,15 C13,15.5522847 12.5522847,16 12,16 L11,16 C10.4477153,16 10,15.5522847 10,15 L10,1 C10,0.44771525 10.4477153,1.11022302e-16 11,0 Z M16,0 L17,0 C17.5522847,0 18,0.44771525 18,1 L18,15 C18,15.5522847 17.5522847,16 17,16 L16,16 C15.4477153,16 15,15.5522847 15,15 L15,1 C15,0.44771525 15.4477153,1.11022302e-16 16,0 Z">
            </path>
        </g>
    </g>
</svg>