<svg xmlns="http://www.w3.org/2000/svg" viewBox="0 0 24 24">
  <g stroke="none" strokeWidth="1" fill="none" fillRule="evenodd">
    <g>
      <rect stroke="#B8CAE6" x="0.5" y="0.5" width="23" height="23" rx="4"></rect>
      <path
        d="M6.81818182,3.27272727 L7.09090909,3.27272727 C9.50087891,3.27272727 11.4545455,5.22639382 11.4545455,7.63636364 L11.4545455,11.4545455 L11.4545455,11.4545455 L6.81818182,11.4545455 C4.55883511,11.4545455 2.72727273,9.62298307 2.72727273,7.36363636 C2.72727273,5.10428966 4.55883511,3.27272727 6.81818182,3.27272727 Z M17.1818182,3.27272727 L16.9090909,3.27272727 C14.4991211,3.27272727 12.5454545,5.22639382 12.5454545,7.63636364 L12.5454545,11.4545455 L12.5454545,11.4545455 L17.1818182,11.4545455 C19.4411649,11.4545455 21.2727273,9.62298307 21.2727273,7.36363636 C21.2727273,5.10428966 19.4411649,3.27272727 17.1818182,3.27272727 Z M6.81818182,20.7272727 L7.09090909,20.7272727 C9.50087891,20.7272727 11.4545455,18.7736062 11.4545455,16.3636364 L11.4545455,12.5454545 L11.4545455,12.5454545 L6.81818182,12.5454545 C4.55883511,12.5454545 2.72727273,14.3770169 2.72727273,16.6363636 C2.72727273,18.8957103 4.55883511,20.7272727 6.81818182,20.7272727 Z M17.1818182,20.7272727 L16.9090909,20.7272727 C14.4991211,20.7272727 12.5454545,18.7736062 12.5454545,16.3636364 L12.5454545,12.5454545 L12.5454545,12.5454545 L17.1818182,12.5454545 C19.4411649,12.5454545 21.2727273,14.3770169 21.2727273,16.6363636 C21.2727273,18.8957103 19.4411649,20.7272727 17.1818182,20.7272727 Z"
        fill="currentColor"></path>
    </g>
  </g>
</svg>