<svg xmlns="http://www.w3.org/2000/svg" viewBox="0 0 16 16">
  <path
    d="M2.4,16 C1.0745166,16 0,14.9254834 0,13.6 L0,2.4 C0,1.0745166 1.0745166,0 2.4,0 L13.6,0 C14.9254834,0 16,1.0745166 16,2.4 L16,13.6 C16,14.9254834 14.9254834,16 13.6,16 L2.4,16 Z M4.8,6.4 L1.6,6.4 L1.6,13.6 C1.6,14.0418278 1.9581722,14.4 2.4,14.4 L4.8,14.4 L4.8,6.4 Z M14.4,6.4 L6.4,6.4 L6.4,14.4 L13.6,14.4 C14.0418278,14.4 14.4,14.0418278 14.4,13.6 L14.4,6.4 Z M13.6,1.6 L2.4,1.6 C1.9581722,1.6 1.6,1.9581722 1.6,2.4 L1.6,4.8 L14.4,4.8 L14.4,2.4 C14.4,1.9581722 14.0418278,1.6 13.6,1.6 Z" />
</svg>