<svg xmlns="http://www.w3.org/2000/svg" viewBox="0 0 16 16">
  <g transform="translate(1.000000, 1.000000)">
    <path
      d="M0.123365665,13.1269582 C1.91907562,9.97245446 4.0174587,7.06892945 8.82860612,3.88679499 C9.04996408,3.73943131 8.87603997,3.39174513 8.62757696,3.48614999 C4.97968818,4.90452541 3.44373501,7.02748342 2.16979739,8.3123105 C1.97328573,8.51263301 1.6412488,8.45737163 1.51249978,8.20639286 C0.898118513,7.01366807 -0.057334708,4.19764025 3.71026806,2.14836408 C7.0464487,0.333948771 10.9360242,0.0438265257 13.4161368,0 C13.8430415,-0.00682973925 14.1276446,0.446774088 13.9424267,0.838208863 C13.2467302,2.30724055 12.770133,4.5637469 11.5797693,6.62683841 C9.11546796,10.8980826 6.05937291,11.2112304 3.27432841,10.1313309 C3.075558,10.053044 2.84968254,10.1267258 2.7322273,10.3086279 C2.35727402,10.8888723 1.5960737,12.1529764 1.40633831,13.1269582 C1.14884028,14.4348109 -0.450358019,14.137781 0.123365665,13.1269582 Z" />
  </g>
</svg>