<svg viewBox="0 0 10 11" fill="none" xmlns="http://www.w3.org/2000/svg">
  <path
    d="M4.97656 1.31641C6.03906 1.33984 6.96289 1.63477 7.74805 2.20117L7.02734 3.26758C6.38672 2.8457 5.68164 2.62695 4.91211 2.61133C4.51367 2.61133 4.18164 2.71094 3.91602 2.91016C3.63867 3.11719 3.49609 3.42578 3.48828 3.83594C3.48828 4.08203 3.58398 4.30469 3.77539 4.50391C3.9668 4.70703 4.27344 4.84766 4.69531 4.92578C4.92969 4.96484 5.25 5.00977 5.65625 5.06055C6.45703 5.16992 7.04883 5.45703 7.43164 5.92188C7.81055 6.37891 8 6.91016 8 7.51562C7.95703 9.14844 6.95703 9.97656 5 10C3.73438 10 2.64648 9.60938 1.73633 8.82812L2.58594 7.85547C3.26562 8.41406 4.07422 8.69727 5.01172 8.70508C6.12109 8.68945 6.68359 8.29297 6.69922 7.51562C6.70703 6.87891 6.33594 6.49609 5.58594 6.36719C5.24219 6.32031 4.86523 6.26758 4.45508 6.20898C3.7207 6.08789 3.16211 5.81641 2.7793 5.39453C2.38477 4.96094 2.1875 4.43359 2.1875 3.8125C2.1875 3.06641 2.43555 2.46484 2.93164 2.00781C3.41211 1.55469 4.09375 1.32422 4.97656 1.31641Z"
    fill="white" />
  <path
    d="M4.99902 0.316406C6.24312 0.34392 7.36771 0.694266 8.33301 1.39062L9.12012 1.95801L8.57617 2.76074L7.35156 4.57324C7.67155 4.75694 7.95828 4.99033 8.2002 5.2832C8.73105 5.92351 9 6.68214 9 7.51562V7.54199C8.97302 8.56672 8.63291 9.48801 7.85547 10.1318C7.10942 10.7495 6.10776 10.9869 5.01172 11H5C3.50974 11 2.18701 10.5329 1.08496 9.58691L0.319336 8.92969L2.4707 6.4668L3.2207 7.08301C3.70927 7.48453 4.28962 7.69614 5.00977 7.7041C5.46584 7.69619 5.64565 7.60983 5.68945 7.5791C5.69266 7.56783 5.69716 7.54285 5.69824 7.49805C5.69834 7.46991 5.69526 7.45078 5.69336 7.43848C5.6629 7.42041 5.58691 7.38281 5.42871 7.35449C5.08851 7.30805 4.71657 7.2568 4.31348 7.19922L4.29199 7.19531C3.40395 7.04881 2.61435 6.70034 2.03906 6.06641C1.4673 5.43732 1.1875 4.66566 1.1875 3.8125C1.1875 2.82417 1.52681 1.9478 2.24512 1.28125C2.96348 0.603769 3.91954 0.325683 4.96777 0.316406H4.99902ZM4.90137 3.61133C4.68206 3.613 4.57469 3.66566 4.51562 3.70996L4.51465 3.71191L4.50879 3.71582C4.50675 3.72024 4.49733 3.74684 4.49219 3.80664L4.49609 3.81152L4.50293 3.81836C4.49399 3.80887 4.50566 3.82508 4.56543 3.85254C4.62621 3.88041 4.72481 3.91366 4.87305 3.94141C4.97775 3.9587 5.1032 3.97746 5.25 3.99805L5.78027 4.06836L5.79199 4.06934C6.14555 4.11765 6.48459 4.1989 6.80176 4.31641L6.47754 4.10254C5.99764 3.78651 5.47919 3.62471 4.90137 3.61133ZM2.1875 3.8125C2.1875 4.43359 2.38477 4.96094 2.7793 5.39453C3.16211 5.81641 3.7207 6.08789 4.45508 6.20898C4.86523 6.26758 5.24219 6.32031 5.58594 6.36719C6.33594 6.49609 6.70703 6.87891 6.69922 7.51562C6.68359 8.29297 6.12109 8.68945 5.01172 8.70508C4.07422 8.69727 3.26562 8.41406 2.58594 7.85547L1.73633 8.82812C2.64648 9.60938 3.73438 10 5 10C6.95703 9.97656 7.95703 9.14844 8 7.51562C8 6.91016 7.81055 6.37891 7.43164 5.92188C7.04883 5.45703 6.45703 5.16992 5.65625 5.06055C5.25 5.00977 4.92969 4.96484 4.69531 4.92578C4.27344 4.84766 3.9668 4.70703 3.77539 4.50391C3.58398 4.30469 3.48828 4.08203 3.48828 3.83594C3.49609 3.42578 3.63867 3.11719 3.91602 2.91016C4.18164 2.71094 4.51367 2.61133 4.91211 2.61133C5.68164 2.62695 6.38672 2.8457 7.02734 3.26758L7.74805 2.20117C6.96289 1.63477 6.03906 1.33984 4.97656 1.31641C4.09375 1.32422 3.41211 1.55469 2.93164 2.00781C2.43555 2.46484 2.1875 3.06641 2.1875 3.8125Z"
    fill="currentColor" />
</svg>