<svg xmlns="http://www.w3.org/2000/svg" viewBox="0 0 19 24">
  <path fill='currentColor'
    d="M15.6285714,0 L5.4,10.9714286 L8.4,10.5142857 L4.57142857,16.2 L7.48571429,15.8285714 L2.57142857,23.6 L12.5142857,13.3714286 L9.51428571,13.6285714 L14.1714286,7.68571429 L10.5142857,8.68571429 L15.6285714,0 Z M9.14285714,2.57142857 C4.11428571,2.57142857 0,6.68571429 0,11.7142857 C0,14.9142857 1.56071406,17.6678574 4.02857143,19.3142857 C4.21071451,18.9500005 4.47499977,18.5642862 4.65714286,18.2 C4.75000046,18.0178569 4.85714286,17.921429 4.85714286,17.8285714 C2.93571474,16.4571429 1.65714286,14.2749998 1.65714286,11.7142857 C1.65714286,7.6 4.94285714,4.31428571 9.05714286,4.31428571 C9.42142903,4.31428571 9.77142857,4.30714331 10.2285714,4.4 L11.6,2.94285714 C10.8678574,2.66785737 10.0571429,2.57142857 9.14285714,2.57142857 Z M14.2571429,4.11428571 L13.3428571,5.6 C15.2642862,6.97142857 16.5428571,9.15357166 16.5428571,11.7142857 C16.5428571,15.8285714 13.2571429,19.1142857 9.14285714,19.1142857 C8.86785737,19.1142857 8.5035712,19.121429 8.22857143,19.0285714 L6.77142857,20.4857143 C7.5035712,20.6678574 8.32142903,20.7714286 9.14285714,20.7714286 C14.1714286,20.7714286 18.2857143,16.6571429 18.2857143,11.6285714 C18.2857143,8.52142903 16.6357147,5.76071406 14.2571429,4.11428571 Z" />
</svg>