<?xml version="1.0" encoding="UTF-8"?>
<svg viewBox="0 0 20 20" version="1.1" xmlns="http://www.w3.org/2000/svg" xmlns:xlink="http://www.w3.org/1999/xlink">
    <g stroke="none" stroke-width="1" fill="none" fill-rule="evenodd">
        <g>
            <rect x="0" y="0" width="20" height="20"></rect>
            <path
                d="M4,0 L16,0 C17.6568542,-4.4408921e-16 19,1.34314575 19,3 L19,17 C19,18.6568542 17.6568542,20 16,20 L4,20 C2.34314575,20 1,18.6568542 1,17 L1,3 C1,1.34314575 2.34314575,0 4,0 Z M16.1812,13.75 L3.8188,13.75 C3.2554,13.75 2.8,14.187002 2.8,14.725 C2.8,15.262998 3.2554,15.7 3.8188,15.7 L16.1812,15.7 C16.7446,15.7 17.2,15.262998 17.2,14.725 C17.2,14.187002 16.7446,13.75 16.1812,13.75 Z M15.42842,3.80124499 L12.1085699,3.80124499 C11.6982184,3.80124499 11.3655628,4.12646474 11.3655628,4.52763647 C11.3655628,4.92880819 11.6982184,5.25402214 12.1085699,5.25402215 L13.6819095,5.25402215 L11.241235,8.96119368 L8.11379696,5.62444991 C7.94899175,5.50225761 7.73939971,5.45306986 7.53581543,5.48880729 C7.33223115,5.52454472 7.15323589,5.64194557 7.04220912,5.81255775 L3.944373,10.6888919 C3.72489219,11.0261319 3.82661059,11.473463 4.17156739,11.6880339 C4.51652418,11.9026049 4.97409127,11.803162 5.19357208,11.465922 L7.72009203,7.51710423 L10.68916,10.6874449 C11.0118204,10.9276442 11.5476143,11.0911533 11.9590804,10.4125181 L14.685413,6.3754343 L14.685413,7.77322029 C14.685413,8.17439201 15.0180686,8.49960593 15.42842,8.49960593 C15.8387715,8.49960593 16.1714286,8.17439201 16.1714286,7.77322029 L16.1714286,4.52618949 C16.1718227,4.33355445 16.0936214,4.14871895 15.9541519,4.01264101 C15.8146823,3.87656307 15.6254618,3.80047986 15.42842,3.80124499 L15.42842,3.80124499 Z"
                fill="currentColor" fill-rule="nonzero"></path>
        </g>
    </g>
</svg>