<?xml version="1.0" encoding="UTF-8"?>
<svg width="44px" height="51px" viewBox="0 0 44 51" version="1.1" xmlns="http://www.w3.org/2000/svg"
  xmlns:xlink="http://www.w3.org/1999/xlink">
  <defs>
    <linearGradient x1="20.2290693%" y1="4.1424348%" x2="72.0721835%" y2="60.3950301%" id="linearGradient-1">
      <stop stop-color="currentColor" offset="0%"></stop>
      <stop stop-color="currentColor" stop-opacity="0" offset="100%"></stop>
    </linearGradient>
    <linearGradient x1="21.6682696%" y1="3.85050639%" x2="75.5182355%" y2="73.9482107%" id="linearGradient-2">
      <stop stop-color="currentColor" stop-opacity="0.6" offset="0%"></stop>
      <stop stop-color="currentColor" stop-opacity="0" offset="100%"></stop>
    </linearGradient>
  </defs>
  <g stroke="none" stroke-width="1" fill="none" fill-rule="evenodd" opacity="0.997">
    <g fill-rule="nonzero">
      <path
        d="M21.9991538,50.2842436 C21.8530995,50.2903565 21.7068682,50.2773951 21.5642308,50.2456934 C16.8118541,48.9938045 12.3771607,46.769293 8.54615385,43.7156225 C2.96746154,39.3619626 0,34.283391 0,29.0497805 L0,7.09291997 C0.00168371275,6.57834644 0.21230449,6.08607696 0.584428014,5.7269765 C0.956551539,5.36787604 1.45888889,5.17213852 1.97830769,5.18384637 C8.68094468,5.18061759 15.2721236,3.4852254 21.1293077,0.257799563 C21.74308,-0.0859331876 22.4938431,-0.0859331876 23.1076154,0.257799563 C28.8867123,3.46625332 35.3966086,5.16171294 42.0216923,5.18384637 C42.5411111,5.17213852 43.0434485,5.36787604 43.415572,5.7269765 C43.7876955,6.08607696 43.9983163,6.57834644 44,7.09291997 L44,29.0497805 C44,34.2817149 41.0714615,39.3577723 35.5714615,43.7156225 C34.7220183,44.3653241 33.5087901,44.2482107 32.802,43.4482852 C32.4777895,43.0586313 32.3245792,42.5566422 32.3765651,42.0543601 C32.4285509,41.5520779 32.6814054,41.0913149 33.0786923,40.7749117 C36.2839231,38.254901 40.0823077,34.2071286 40.0823077,29.0900068 L40.0823077,8.9659575 C33.8227759,8.65856596 27.7061149,7.00355816 22.1582308,4.11617307 C16.5353221,7.03453349 10.3372569,8.7027679 3.99638462,9.00450772 L3.99638462,29.1293951 C3.99638462,38.5616266 17.2124615,45.4352972 22.4746923,46.580909 C22.9823132,46.6846541 23.4269197,46.9852473 23.7093846,47.41567 C23.9918495,47.8460927 24.0886874,48.3705576 23.9783077,48.8721325 C23.6946552,49.7159852 22.8971443,50.2850031 21.9991538,50.2842436 Z"
        fill="url(#linearGradient-1)"></path>
      <path
        d="M33.0786923,40.7749117 C36.2839231,38.254901 40.0823077,34.2071286 40.0823077,29.0900068 L40.0823077,8.9659575 C33.8227759,8.65856596 27.7061149,7.00355816 22.1582308,4.11617307 C16.5353221,7.03453349 10.3372569,8.7027679 3.99638462,9.00450772 L3.99638462,29.1293951 C3.99638462,38.5616266 17.2124615,45.4352972 22.4746923,46.580909 C22.9823132,46.6846541 32.6814054,41.0913149 33.0786923,40.7749117 Z"
        fill="url(#linearGradient-2)"></path>
    </g>
  </g>
</svg>