<svg xmlns="http://www.w3.org/2000/svg" viewBox="0 0 16 16">
  <path
    d="M6.81477953,5.28443545 L7.04297021,5.2941722 C8.18573355,5.37607807 9.23659245,5.95065562 9.92280384,6.86875154 L9.92608147,6.87628317 L9.98314062,6.95774359 C10.102536,7.1563425 10.136707,7.39521575 10.0777899,7.61934779 L10.0405376,7.72993068 C9.92029458,8.02023984 9.65131246,8.22179622 9.33901624,8.25554223 C9.02670192,8.2892902 8.720892,8.14982391 8.54627286,7.89851256 C8.15870202,7.3797806 7.56510243,7.05515411 6.91960205,7.00889649 C6.27411009,6.96263948 5.6403662,7.19930495 5.18287454,7.65750239 L3.34025704,9.50211341 C2.92938523,9.92795271 2.70436526,10.4997212 2.7147177,11.0916276 C2.7250701,11.6835323 2.96994504,12.247066 3.39547258,12.6582699 C4.25853556,13.4924675 5.62824133,13.4945231 6.48299802,12.6686338 L7.5425298,11.6083328 C7.87969698,11.2824336 8.41571445,11.287095 8.74716931,11.6188067 C9.07852237,11.9504164 9.08317745,12.4865305 8.75469572,12.8268437 L7.68751397,13.8947922 C6.1360775,15.3903142 3.67315383,15.3654799 2.15214467,13.8389803 C0.631237167,12.3125827 0.613391737,9.8480093 2.1147265,8.29697824 L3.96827613,6.44199268 C4.77823068,5.63111671 5.90019845,5.21226572 7.04297021,5.2941722 L6.81477953,5.28443545 Z M8.30928508,2.10942045 C9.83949386,0.630193183 12.2657159,0.630193183 13.7959246,2.10942045 C14.5498903,2.83930951 14.982838,3.83908093 14.9995007,4.88853743 C15.0161635,5.93799231 14.6151754,6.95102191 13.8823174,7.70699807 L12.0287678,9.56198364 C11.2188132,10.3728596 10.0968455,10.7917106 8.9540737,10.7098041 C7.81131035,10.6278982 6.76045146,10.0533207 6.07422222,9.13520089 C5.79007255,8.75493343 5.86774651,8.21618197 6.24776188,7.93178054 C6.62788939,7.64729518 7.16652961,7.72507348 7.45074524,8.10542922 C7.83831984,8.62397301 8.43179922,8.94846942 9.07715114,8.99472406 C9.72249464,9.0409781 10.3561066,8.80443922 10.8135801,8.34644535 L12.6567869,6.5018629 C13.0676587,6.0760236 13.2926786,5.50425515 13.2823262,4.9123487 C13.2719738,4.32044402 13.0270989,3.75691027 12.6014528,3.34559171 C11.7399556,2.51176811 10.3738042,2.50930334 9.51231202,3.33707624 L8.45251603,4.3914763 C8.23612785,4.61432412 7.91639371,4.70302021 7.6161988,4.62344977 C7.316044,4.54388997 7.08216192,4.30849868 7.00438702,4.00775835 C6.92662229,3.70705735 7.01700799,3.38775647 7.23790057,3.17540175 L8.30928508,2.10942045 Z">
  </path>
</svg>