<svg xmlns="http://www.w3.org/2000/svg" viewBox="0 0 16 16">
  <path
    d="M5.8,6 L10.2,6 L10.2,4 C10.2,2.78497355 9.21502645,1.8 8,1.8 C6.78497355,1.8 5.8,2.78497355 5.8,4 L5.8,6 Z M12,6 C13.1045695,6 14,6.8954305 14,8 L14,14 C14,15.1045695 13.1045695,16 12,16 L4,16 C2.8954305,16 2,15.1045695 2,14 L2,8 C2,6.8954305 2.8954305,6 4,6 L4,4 C4,1.790861 5.790861,0 8,0 C10.209139,0 12,1.790861 12,4 L12,6 Z M8,9 C7.44771525,9 7,9.44771525 7,10 L7,13 C7,13.5522847 7.44771525,14 8,14 C8.55228475,14 9,13.5522847 9,13 L9,10 C9,9.44771525 8.55228475,9 8,9 Z" />
</svg>