<svg width="42" height="16" viewBox="0 0 42 16" xmlns="http://www.w3.org/2000/svg">
  <path
    d="M32.0586 2.98438C31.6386 3.99229 31.0981 4.92847 30.4502 5.81641V13.7236H29.5859V6.87207C29.046 7.45996 28.4582 8.02385 27.8223 8.55176L27.5459 7.65234C29.2498 6.18845 30.4859 4.50814 31.2539 2.6123L32.0586 2.98438Z" />
  <path
    d="M8.92188 2.57617C9.11388 3.02017 9.30605 3.52417 9.49805 4.07617H14.4062V4.9043H9.53418V6.47559H13.4346V10.832C13.4346 11.5519 13.0625 11.9237 12.3428 11.9238H11.1426L10.9268 11.0957L12.0664 11.1436C12.4024 11.1435 12.5703 10.9756 12.5703 10.6396V7.30371H9.53418V13.6758H8.64648V7.30371H5.75391V12.0078H4.90234V6.47559H8.64648V4.9043H3.77441V4.07617H8.62207C8.43007 3.57217 8.21405 3.12773 7.99805 2.71973L8.92188 2.57617Z" />
  <path
    d="M25.3623 4.13574C24.2103 5.11974 22.9383 6.03248 21.5703 6.89648H26.1787C26.1067 9.69213 25.9742 11.4919 25.7822 12.2959C25.5782 13.1119 25.0384 13.5199 24.1504 13.5439C23.7544 13.5439 23.37 13.5315 22.998 13.5195L22.7588 12.6797C23.1906 12.7037 23.6107 12.7275 24.0186 12.7275C24.4863 12.7155 24.8105 12.5001 24.9785 12.0684C25.1345 11.6844 25.2425 10.208 25.3145 7.66406H24.4502C24.1622 9.1158 23.7306 10.2558 23.1787 11.0957C22.5547 11.9957 21.6181 12.7995 20.3701 13.5195L19.8428 12.8477C20.9825 12.2118 21.8467 11.5042 22.4346 10.7363C22.9746 9.96835 23.3701 8.93601 23.6221 7.66406H22.6748C22.2308 9.17601 21.4628 10.3524 20.3828 11.1924L19.8428 10.5322C20.8027 9.78825 21.4744 8.83998 21.8584 7.66406H20.0947V6.86035C21.5467 6.02038 22.8786 5.11984 24.1025 4.17188H20.2383V3.37988H25.3623V4.13574Z" />
  <path
    d="M34.0986 7.04004C35.3585 6.20007 36.4622 5.23981 37.4102 4.17188L38.0107 4.85645C36.8949 6.05632 35.5864 7.12364 34.0986 8.05957V12.1162C34.0987 12.488 34.2904 12.6797 34.6982 12.6797H36.6426C36.9544 12.6796 37.1939 12.5717 37.3379 12.3799C37.4699 12.1879 37.5545 11.4917 37.6025 10.3037L38.4062 10.5684C38.3222 11.9481 38.1786 12.7882 37.9746 13.0762C37.7586 13.3642 37.3621 13.5078 36.7861 13.5078H34.4941C33.6544 13.5077 33.2345 13.076 33.2344 12.2363V8.57617C32.7305 8.86413 32.2144 9.12792 31.6865 9.37988L31.3027 8.56445C31.9746 8.2525 32.6225 7.9283 33.2344 7.56836V2.75586H34.0986V7.04004Z" />
  <path
    d="M18.0303 6.01953H19.5303V6.84766H18.0303V11.0361C18.5583 10.8801 19.0627 10.7115 19.5547 10.5195V11.4199C18.3907 11.8639 17.1301 12.2361 15.7861 12.5361L15.5586 11.624C16.0985 11.528 16.6267 11.4081 17.1426 11.2881V6.84766H15.7021V6.01953H17.1426V2.95996H18.0303V6.01953Z" />
  <path
    d="M40 15V16H2V15H40ZM41 14V2C41 1.44772 40.5523 1 40 1H2C1.44772 1 1 1.44772 1 2V14C1 14.5523 1.44772 15 2 15V16L1.7959 15.9893C0.787223 15.887 0 15.0357 0 14V2C0 0.895431 0.895431 2.0133e-08 2 0H40C41.1046 0 42 0.895431 42 2V14C42 15.0357 41.2128 15.887 40.2041 15.9893L40 16V15C40.5523 15 41 14.5523 41 14Z"
    fill-opacity="0.5" />
</svg>