<svg viewBox="0 0 14 14" fill="none" xmlns="http://www.w3.org/2000/svg">
  <path
    d="M10.9995 13.6499H2.99951V12.3491H10.9995V13.6499ZM6.78857 0.00537109C9.21749 -0.114576 11.1968 1.80468 11.1968 4.20361C11.1967 5.58282 10.5375 6.78243 9.51807 7.56201C8.34859 8.43163 7.59912 9.75087 7.59912 11.2202V11.3999C7.59912 11.7298 7.32839 11.9995 6.99854 11.9995C6.66885 11.9993 6.39893 11.7296 6.39893 11.3999V11.2202C6.39893 9.89898 5.81971 8.60362 4.78369 7.77979L4.35596 7.46338C3.31378 6.63904 2.68791 5.33528 2.80029 3.87354C2.9802 1.77462 4.71969 0.0955507 6.78857 0.00537109ZM6.99854 2.70361C6.15909 2.70381 5.49951 3.36411 5.49951 4.20361C5.49971 5.04293 6.15921 5.70244 6.99854 5.70264C7.83804 5.70264 8.49834 5.04306 8.49854 4.20361C8.49854 3.36399 7.83816 2.70361 6.99854 2.70361Z"
    fill="currentColor" />
</svg>