<svg viewBox="0 0 27 16" fill="none" xmlns="http://www.w3.org/2000/svg">
  <path
    d="M5.79395 3.46191C5.55197 4.25383 5.26601 5.00212 4.91406 5.70605V13.1973H4.14453V7.04883C3.82556 7.52178 3.48432 7.98387 3.11035 8.42383L2.85742 7.57617C3.86932 6.27823 4.61713 4.79298 5.0791 3.12109L5.79395 3.46191Z"
    fill="currentColor" />
  <path fill-rule="evenodd" clip-rule="evenodd"
    d="M10.7988 3.33008C10.7219 3.84692 10.6344 4.3311 10.5244 4.79297H12.9004V5.53027H12.3828C12.3498 7.51015 12.0419 9.16004 11.459 10.458C11.888 11.2719 12.427 11.9983 13.0869 12.6143L12.5371 13.1426C11.9541 12.5596 11.4595 11.9101 11.0635 11.2061C10.5795 12.0091 9.98479 12.6581 9.25879 13.1641L8.79688 12.5596C9.58885 12.0426 10.2157 11.3382 10.6777 10.4473C10.2158 9.42432 9.90764 8.28028 9.76465 7.02637C9.58874 7.38916 9.40199 7.71901 9.2041 8.00488L8.73145 7.43359C9.39145 6.38859 9.8315 4.98024 10.0625 3.19824L10.7988 3.33008ZM10.2598 5.76172C10.3368 7.19144 10.6009 8.46729 11.0518 9.57812C11.4587 8.44514 11.6684 7.09223 11.6904 5.53027H10.3262L10.2598 5.76172Z"
    fill="currentColor" />
  <path
    d="M18.8184 2.97852C18.9943 3.38546 19.1697 3.84761 19.3457 4.35352H23.8447V5.1123H19.3789V6.55371H22.9541V10.5459C22.9541 11.2059 22.6131 11.5469 21.9531 11.5469H20.8535L20.6553 10.7881L21.7002 10.832C22.0081 10.832 22.1621 10.6781 22.1621 10.3701V7.3125H19.3789V13.1533H18.5654V7.3125H15.9141V11.624H15.1328V6.55371H18.5654V5.1123H14.0986V4.35352H18.543C18.367 3.89152 18.1687 3.48435 17.9707 3.11035L18.8184 2.97852Z"
    fill="currentColor" />
  <path fill-rule="evenodd" clip-rule="evenodd"
    d="M7.69727 5.2002H9.10547V5.9375H7.69727V8.09375H8.88477V11.8994H6.52051V12.6143H5.77246V8.09375H6.94922V5.9375H5.51953V5.2002H6.94922V3.24219H7.69727V5.2002ZM6.52051 11.2061H8.13672V8.79688H6.52051V11.2061Z"
    fill="currentColor" />
  <path
    d="M25 15V16H2V15H25ZM26 14V2C26 1.44772 25.5523 1 25 1H2C1.44772 1 1 1.44772 1 2V14C1 14.5523 1.44772 15 2 15V16C0.895431 16 0 15.1046 0 14V2C0 0.895431 0.895431 8.05319e-09 2 0H25L25.2041 0.0107422C26.2128 0.113005 27 0.96435 27 2V14C27 15.0357 26.2128 15.887 25.2041 15.9893L25 16V15C25.5523 15 26 14.5523 26 14Z"
    fill="currentColor" fill-opacity="0.5" />
</svg>