<svg width="12" height="12" viewBox="0 0 12 12" xmlns="http://www.w3.org/2000/svg">
  <rect x="1" y="1" width="10" height="10" rx="5" fill-opacity="0.2" />
  <path
    d="M6 1.5025C3.51472 1.5025 1.5 3.51722 1.5 6.0025C1.5 8.48778 3.51472 10.5025 6 10.5025C8.48528 10.5025 10.5 8.48778 10.5 6.0025C10.5 3.51722 8.48528 1.5025 6 1.5025ZM0.5 6.0025C0.5 2.96494 2.96243 0.502501 6 0.502501C9.03757 0.5025 11.5 2.96493 11.5 6.0025C11.5 9.04007 9.03757 11.5025 6 11.5025C2.96243 11.5025 0.5 9.04007 0.5 6.0025ZM6.5 5.5L6.5 5.5025H8.75V6.5025H6.5H5.5H3.25V5.5025H5.5L6.5 5.5Z" />
</svg>