<svg xmlns="http://www.w3.org/2000/svg" viewBox="0 0 16 16">
  <path
    d="M12.0037973,0 C14.2108391,0 16,1.78883037 16,3.99620271 L16,12.0037973 C16,14.2108391 14.2111696,16 12.0037973,16 L3.99620271,16 C1.78916089,16 0,14.2111696 0,12.0037973 L0,3.99620271 C0,1.78916089 1.78883037,0 3.99620271,0 L12.0037973,0 Z M12.0046024,6.65 L3.99539757,6.65 C3.25908834,6.65 2.65,7.25768355 2.65,8 C2.65,8.7479524 3.25087483,9.35 3.99539757,9.35 L3.99539757,9.35 L12.0046024,9.35 C12.7409117,9.35 13.35,8.74231645 13.35,8 C13.35,7.2520476 12.7491252,6.65 12.0046024,6.65 L12.0046024,6.65 Z" />
</svg>