<svg xmlns="http://www.w3.org/2000/svg" viewBox="0 0 16 16">
  <path
    d="M7.35445549,6.8818841 L7.35445549,3.64554451 C7.35445549,3.28902012 7.64347561,3 8,3 C8.35652439,3 8.64554451,3.28902012 8.64554451,3.64554451 L8.64554451,6.8818841 L11.4482968,5.26371431 C11.757056,5.08545211 12.1518648,5.19124082 12.330127,5.5 C12.5083892,5.80875918 12.4026005,6.20356801 12.0938413,6.38183021 L9.29108903,8 L12.0938413,9.61816979 C12.4026005,9.79643199 12.5083892,10.1912408 12.330127,10.5 C12.1518648,10.8087592 11.757056,10.9145479 11.4482968,10.7362857 L8.64554451,9.1181159 L8.64554451,12.3544555 C8.64554451,12.7109799 8.35652439,13 8,13 C7.64347561,13 7.35445549,12.7109799 7.35445549,12.3544555 L7.35445549,9.1181159 L4.55170319,10.7362857 C4.24294401,10.9145479 3.84813518,10.8087592 3.66987298,10.5 C3.49161079,10.1912408 3.59739949,9.79643199 3.90615867,9.61816979 L6.70891097,8 L3.90615867,6.38183021 C3.59739949,6.20356801 3.49161079,5.80875918 3.66987298,5.5 C3.84813518,5.19124082 4.24294401,5.08545211 4.55170319,5.26371431 L7.35445549,6.8818841 Z" />
</svg>