<svg width="18" height="18" viewBox="0 0 18 18" fill="none" xmlns="http://www.w3.org/2000/svg">
  <circle cx="9" cy="9" r="9" fill="currentColor" fill-opacity="0.2" />
  <path
    d="M4.30817 3.60388C5.10017 4.63588 5.70017 5.54788 6.12017 6.32788L5.40017 6.81988C4.96817 5.99188 4.36817 5.06788 3.60017 4.04788L4.30817 3.60388ZM5.49617 8.59588L6.27617 8.90788C5.71217 10.6599 5.08817 12.3159 4.39217 13.8759L3.57617 13.5159C4.32017 11.9079 4.95617 10.2759 5.49617 8.59588ZM13.4042 11.1159H10.6202V13.0479C10.6202 13.7679 10.2602 14.1399 9.56417 14.1399H7.80017L7.63217 13.3239C8.20817 13.3599 8.74817 13.3839 9.27617 13.3839C9.61217 13.3839 9.79217 13.1919 9.79217 12.8319V11.1159H7.27217V10.3479H9.79217V9.13588H6.80417V8.36788H9.79217V7.17988H7.38017V6.41188H10.2482C10.6922 6.00388 11.1362 5.53588 11.5682 4.99588H9.01217C8.42417 5.59588 7.69217 6.13588 6.81617 6.61588L6.31217 5.94388C7.80017 5.18788 8.79617 4.26388 9.32417 3.17188L10.1762 3.27988C10.0322 3.61588 9.85217 3.92788 9.64817 4.22788H12.6002V4.86388C12.1442 5.47588 11.6882 5.99188 11.2442 6.41188H13.4042V8.36788H14.4842V9.13588H13.4042V11.1159ZM10.6202 7.17988V8.36788H12.6122V7.17988H10.6202ZM10.6202 9.13588V10.3479H12.6122V9.13588H10.6202Z"
    fill="currentColor" />
</svg>