<svg xmlns="http://www.w3.org/2000/svg" viewBox="0 0 20 10">
  <g fillRule="evenodd">
    <rect width="20" height="10" rx="2" fill='currentColor' />
    <polygon fill='#fff'
      points="6.5 8.001 5.3 8.001 2.75 4.501 2.75 8.001 1.5 8.001 1.5 2.001 2.75 2.001 5.25 5.501 5.25 2.001 6.5 2.001" />
    <polygon fill='#fff'
      points="11.5 3.261 9 3.261 9 4.381 11.5 4.381 11.5 5.641 9 5.641 9 6.751 11.5 6.751 11.5 8.001 7.5 8.001 7.5 2.001 11.5 2.001" />
    <path fill='#fff'
      d="M18.5,7.00111643 C18.5,7.55111643 18.05,8.00111643 17.5,8.00111643 L13.5,8.00111643 C12.95,8.00111643 12.5,7.55111643 12.5,7.00111643 L12.5,2.00111643 L13.75,2.00111643 L13.75,6.51111643 L14.88,6.51111643 L14.88,2.99111643 L16.13,2.99111643 L16.13,6.50111643 L17.25,6.50111643 L17.25,2.00111643 L18.5,2.00111643 L18.5,7.00111643 L18.5,7.00111643 Z" />
  </g>
</svg>