<svg xmlns="http://www.w3.org/2000/svg" viewBox="0 0 16 16">
  <path
    d="M6.81779053,7.41312741 L8.45911047,7.41312741 L8.45911047,8.58687259 L6.81779053,8.58687259 L6.81779053,10.2960103 L9.37733142,10.2960103 L9.37733142,11.4697555 L6.62266858,11.4697555 C6.00778628,11.4697555 5.50932568,11.0226164 5.50932568,10.4710425 L5.50932568,5.52895753 C5.50932568,4.97738357 6.00778628,4.53024453 6.62266858,4.53024453 L9.37733142,4.53024453 L9.37733142,5.7039897 L6.81779053,5.7039897 L6.81779053,7.41312741 Z M1.30846485,7.32702366 L1.30846485,11.2947233 L-4.97824004e-13,11.2947233 L-4.97824004e-13,5.11711712 C-4.97824004e-13,4.51530112 0.889410091,4.30342416 1.22226524,4.82594677 L3.67288379,8.67297634 L3.67288379,4.70527671 L4.98134864,4.70527671 L4.98134864,10.8828829 C4.98134864,11.4846989 4.09193855,11.6965758 3.7590834,11.1740532 L1.30846485,7.32702366 Z M11.3094508,11.1939247 C10.9610822,11.6939256 10.1004304,11.4725077 10.1004304,10.8828829 L10.1004304,4.70527671 L11.4088953,4.70527671 L11.4088953,8.83657776 L12.4954272,7.27711774 C12.7516688,6.90934342 13.3487616,6.90934342 13.6050032,7.27711774 L14.6915352,8.83657776 L14.6915352,4.70527671 L16,4.70527671 L16,10.8828829 C16,11.4725077 15.1393482,11.6939256 14.7909796,11.1939247 L13.0502152,8.69546857 L11.3094508,11.1939247 Z M14.3282884,11.7919565 L15.4156427,12.4448518 C13.7710292,14.6488684 11.0126518,16 8,16 L8,14.8262548 C10.571362,14.8262548 12.9240439,13.6738444 14.3282884,11.7919565 Z M1.67125244,4.20804354 L0.583898202,3.55514822 C2.22845361,1.35120946 4.98725953,-1.21680443e-13 8,-1.21680443e-13 L8,1.17374517 C5.42852851,1.17374517 3.07542805,2.32624799 1.67125244,4.20804354 Z M8.91822095,1.17374517 L8.91822095,-9.1038288e-14 L9.83644189,-9.1038288e-14 L9.83644189,1.17374517 L8.91822095,1.17374517 Z M6.16355811,16 L6.16355811,14.8262548 L7.08177905,14.8262548 L7.08177905,16 L6.16355811,16 Z" />
</svg>