<svg viewBox="0 0 24 24" fill="none" xmlns="http://www.w3.org/2000/svg">
  <path
    d="M23 12C23 5.92487 18.0751 1 12 1C5.92487 1 1 5.92487 1 12C1 18.0751 5.92487 23 12 23V24C5.37258 24 0 18.6274 0 12C0 5.37258 5.37258 0 12 0C18.6274 0 24 5.37258 24 12C24 18.6274 18.6274 24 12 24V23C18.0751 23 23 18.0751 23 12Z"
    fill="currentColor" fill-opacity="0.4" />
  <path
    d="M12 3.5C16.6944 3.50001 20.5 7.30559 20.5 12C20.5 16.6944 16.6944 20.5 12 20.5C7.30559 20.5 3.50001 16.6944 3.5 12C3.5 7.30559 7.30559 3.5 12 3.5ZM12 7.75C11.6091 7.75023 11.2922 8.0671 11.292 8.45801V12.708L11.2939 12.7559C11.3086 12.9745 11.4236 13.1753 11.6074 13.2979L14.4404 15.1865L14.4775 15.209C14.7986 15.3962 15.2138 15.3035 15.4229 14.9902L15.4463 14.9531C15.6333 14.632 15.5399 14.2167 15.2266 14.0078L12.709 12.3291V8.45801L12.708 8.41699C12.6865 8.04516 12.3772 7.75 12 7.75Z"
    fill="currentColor" />
</svg>