<svg xmlns="http://www.w3.org/2000/svg" viewBox="0 0 16 16">
  <g stroke="none" strokeWidth="1" fill="none" fillRule="evenodd">
    <g>
      <rect x="0" y="0" width="16" height="16"></rect>
      <path
        d="M14.6220736,3.2090301 C15.106939,3.2090301 15.5,3.60209115 15.5,4.08695652 L15.5,14.6220736 C15.5,15.106939 15.106939,15.5 14.6220736,15.5 L4.08695652,15.5 C3.60209115,15.5 3.2090301,15.106939 3.2090301,14.6220736 L3.2090301,4.08695652 C3.2090301,3.60209115 3.60209115,3.2090301 4.08695652,3.2090301 L14.6220736,3.2090301 Z M14.0953177,4.61371237 L4.61371237,4.61371237 L4.61371237,14.0953177 L14.0953177,14.0953177 L14.0953177,4.61371237 Z M12.6153846,0.5 C13.0032769,0.5 13.3177258,0.814448838 13.3177258,1.20234114 C13.3177258,1.59023344 13.0032769,1.90468227 12.6153846,1.90468227 L2.08026756,1.90468227 C1.98329448,1.90468227 1.90468227,1.98329448 1.90468227,2.08026756 L1.90468227,12.6153846 C1.90468227,13.0032769 1.59023344,13.3177258 1.20234114,13.3177258 C0.814448838,13.3177258 0.5,13.0032769 0.5,12.6153846 L0.5,2.08026756 C0.5,1.20750989 1.20750989,0.5 2.08026756,0.5 L12.6153846,0.5 Z M12.9638221,6.59371554 C13.1745245,6.77105668 13.2254442,7.08096471 13.0928773,7.31800484 L13.0472252,7.38823896 L10.6162469,10.5768677 C10.207837,11.0919248 9.46354371,11.1880756 8.93765158,10.7937155 L8.84722516,10.7199697 L7.64271011,9.63573059 C7.60621034,9.60289779 7.55752889,9.58703019 7.50869191,9.59204769 C7.45985493,9.59706519 7.41541686,9.62249986 7.38635559,9.66206839 L7.36177365,9.70420886 L6.67084556,11.396851 C6.61952298,11.5323693 6.51480738,11.6408699 6.38119609,11.69697 C6.24758479,11.7530701 6.09679937,11.7518482 5.96411479,11.6935901 C5.71320254,11.5744682 5.58401699,11.2924069 5.65771847,11.0246102 L5.68230041,10.9526202 L6.3732285,9.25822223 C6.64538569,8.59099815 7.38284389,8.28109013 8.02021847,8.56817207 C8.09835392,8.60328912 8.17209974,8.64630752 8.24233385,8.69634932 L8.34241747,8.77887441 L9.54781044,9.86223561 C9.58335955,9.89456679 9.63070626,9.91074021 9.67860627,9.90691486 C9.72650628,9.90308951 9.770686,9.87960669 9.80065325,9.8420433 L12.2079275,6.68238611 C12.2932677,6.56595338 12.4231893,6.49026023 12.5665652,6.47344145 C12.7099412,6.45662266 12.8538531,6.50019365 12.9638221,6.59371554 Z"
        fill="currentColor"></path>
    </g>
  </g>
</svg>