<svg xmlns="http://www.w3.org/2000/svg" viewBox="0 0 18 7">
  <path
    d="M5.733,3.4952381 C5.733,4.02222222 5.6745,4.5 5.5575,4.92857143 C5.4405,5.35714286 5.265,5.72698413 5.031,6.03809524 C4.797,6.34920635 4.5,6.58730159 4.14,6.75238095 C3.78,6.91746032 3.357,7 2.871,7 C2.379,7 1.953,6.91587302 1.593,6.74761905 C1.233,6.57936508 0.936,6.34126984 0.702,6.03333333 C0.468,5.72539683 0.2925,5.35555556 0.1755,4.92380952 C0.0585,4.49206349 0,4.01269841 0,3.48571429 C0,2.78095238 0.1035,2.16825397 0.3105,1.64761905 C0.5175,1.12698413 0.834,0.722222222 1.26,0.433333333 C1.686,0.144444444 2.226,0 2.88,0 C3.528,0 4.062,0.144444444 4.482,0.433333333 C4.902,0.722222222 5.2155,1.12857143 5.4225,1.65238095 C5.6295,2.17619048 5.733,2.79047619 5.733,3.4952381 Z M1.278,3.4952381 C1.278,4.00952381 1.332,4.45079365 1.44,4.81904762 C1.548,5.18730159 1.7205,5.46984127 1.9575,5.66666667 C2.1945,5.86349206 2.499,5.96190476 2.871,5.96190476 C3.243,5.96190476 3.546,5.86349206 3.78,5.66666667 C4.014,5.46984127 4.185,5.18730159 4.293,4.81904762 C4.401,4.45079365 4.455,4.00952381 4.455,3.4952381 C4.455,2.72698413 4.332,2.12380952 4.086,1.68571429 C3.84,1.24761905 3.438,1.02857143 2.88,1.02857143 C2.502,1.02857143 2.1945,1.12698413 1.9575,1.32380952 C1.7205,1.52063492 1.548,1.8031746 1.44,2.17142857 C1.332,2.53968254 1.278,2.98095238 1.278,3.4952381 Z M9.576,1.03809524 C9.324,1.03809524 9.096,1.0952381 8.892,1.20952381 C8.688,1.32380952 8.5155,1.48888889 8.3745,1.7047619 C8.2335,1.92063492 8.127,2.18095238 8.055,2.48571429 C7.983,2.79047619 7.947,3.13333333 7.947,3.51428571 C7.947,4.02857143 8.007,4.46825397 8.127,4.83333333 C8.247,5.1984127 8.43,5.47936508 8.676,5.67619048 C8.922,5.87301587 9.231,5.97142857 9.603,5.97142857 C9.861,5.97142857 10.113,5.94126984 10.359,5.88095238 C10.605,5.82063492 10.854,5.73968254 11.106,5.63809524 L11.106,6.67619048 C10.86,6.79047619 10.6065,6.87301587 10.3455,6.92380952 C10.0845,6.97460317 9.792,7 9.468,7 C8.838,7 8.3175,6.85555556 7.9065,6.56666667 C7.4955,6.27777778 7.191,5.87142857 6.993,5.34761905 C6.795,4.82380952 6.696,4.20952381 6.696,3.5047619 C6.696,2.99047619 6.759,2.52063492 6.885,2.0952381 C7.011,1.66984127 7.197,1.3015873 7.443,0.99047619 C7.689,0.679365079 7.992,0.438095238 8.352,0.266666667 C8.712,0.0952380952 9.123,0.00952380952 9.585,0.00952380952 C9.885,0.00952380952 10.194,0.0492063492 10.512,0.128571429 C10.83,0.207936508 11.109,0.317460317 11.349,0.457142857 L10.944,1.45714286 C10.734,1.34920635 10.5165,1.25238095 10.2915,1.16666667 C10.0665,1.08095238 9.828,1.03809524 9.576,1.03809524 Z M18.003,3.4952381 C18.003,4.02222222 17.9445,4.5 17.8275,4.92857143 C17.7105,5.35714286 17.535,5.72698413 17.301,6.03809524 C17.067,6.34920635 16.77,6.58730159 16.41,6.75238095 C16.05,6.91746032 15.627,7 15.141,7 C14.649,7 14.223,6.91587302 13.863,6.74761905 C13.503,6.57936508 13.206,6.34126984 12.972,6.03333333 C12.738,5.72539683 12.5625,5.35555556 12.4455,4.92380952 C12.3285,4.49206349 12.27,4.01269841 12.27,3.48571429 C12.27,2.78095238 12.3735,2.16825397 12.5805,1.64761905 C12.7875,1.12698413 13.104,0.722222222 13.53,0.433333333 C13.956,0.144444444 14.496,0 15.15,0 C15.798,0 16.332,0.144444444 16.752,0.433333333 C17.172,0.722222222 17.4855,1.12857143 17.6925,1.65238095 C17.8995,2.17619048 18.003,2.79047619 18.003,3.4952381 Z M13.548,3.4952381 C13.548,4.00952381 13.602,4.45079365 13.71,4.81904762 C13.818,5.18730159 13.9905,5.46984127 14.2275,5.66666667 C14.4645,5.86349206 14.769,5.96190476 15.141,5.96190476 C15.513,5.96190476 15.816,5.86349206 16.05,5.66666667 C16.284,5.46984127 16.455,5.18730159 16.563,4.81904762 C16.671,4.45079365 16.725,4.00952381 16.725,3.4952381 C16.725,2.72698413 16.602,2.12380952 16.356,1.68571429 C16.11,1.24761905 15.708,1.02857143 15.15,1.02857143 C14.772,1.02857143 14.4645,1.12698413 14.2275,1.32380952 C13.9905,1.52063492 13.818,1.8031746 13.71,2.17142857 C13.602,2.53968254 13.548,2.98095238 13.548,3.4952381 Z" />
</svg>