<svg xmlns="http://www.w3.org/2000/svg" viewBox="0 0 19 10">
  <path transform="translate(-6 -3)"
    d="M14.75,8.20507812 C14.75,9.59961635 14.4013707,10.6835899 13.7041016,11.4570312 C13.0068325,12.2304726 12.0195376,12.6171875 10.7421875,12.6171875 C9.44921229,12.6171875 8.45605815,12.2334023 7.76269531,11.4658203 C7.06933247,10.6982383 6.72265625,9.60742895 6.72265625,8.19335938 C6.72265625,6.7792898 7.07128558,5.69336316 7.76855469,4.93554688 C8.4658238,4.17773059 9.46093104,3.79882812 10.7539062,3.79882812 C12.0273501,3.79882812 13.0117153,4.1835899 13.7070312,4.953125 C14.4023472,5.7226601 14.75,6.80663363 14.75,8.20507812 Z M8.2109375,8.20507812 C8.2109375,9.2597709 8.423826,10.0595676 8.84960938,10.6044922 C9.27539275,11.1494168 9.90624582,11.421875 10.7421875,11.421875 C11.5742229,11.421875 12.2021463,11.1523464 12.6259766,10.6132812 C13.0498068,10.0742161 13.2617188,9.27148971 13.2617188,8.20507812 C13.2617188,7.15429162 13.0517599,6.35742459 12.6318359,5.81445312 C12.211912,5.27148166 11.5859417,5 10.7539062,5 C9.9140583,5 9.28027558,5.27148166 8.85253906,5.81445312 C8.42480255,6.35742459 8.2109375,7.15429162 8.2109375,8.20507812 Z M19.6953125,7.0625 L18.1132812,7.0625 L18.1132812,12.5 L16.7304688,12.5 L16.7304688,7.0625 L15.6640625,7.0625 L15.6640625,6.41796875 L16.7304688,5.99609375 L16.7304688,5.57421875 C16.7304688,4.80858992 16.9101545,4.24121278 17.2695312,3.87207031 C17.628908,3.50292784 18.1777307,3.31835938 18.9160156,3.31835938 C19.400393,3.31835938 19.8769508,3.3984367 20.3457031,3.55859375 L19.9824219,4.6015625 C19.6425764,4.49218695 19.3183609,4.4375 19.0097656,4.4375 C18.6972641,4.4375 18.4697273,4.53417872 18.3271484,4.72753906 C18.1845696,4.9208994 18.1132812,5.21093557 18.1132812,5.59765625 L18.1132812,6.01953125 L19.6953125,6.01953125 L19.6953125,7.0625 Z M24.0839844,5.90234375 C24.3613295,5.90234375 24.5898429,5.9218748 24.7695312,5.9609375 L24.6347656,7.24414062 C24.4394521,7.19726539 24.2363292,7.17382812 24.0253906,7.17382812 C23.4746066,7.17382812 23.028322,7.35351383 22.6865234,7.71289062 C22.3447249,8.07226742 22.1738281,8.53905963 22.1738281,9.11328125 L22.1738281,12.5 L20.796875,12.5 L20.796875,6.01953125 L21.875,6.01953125 L22.0566406,7.16210938 L22.1269531,7.16210938 C22.3417979,6.77538869 22.6220686,6.46875113 22.9677734,6.2421875 C23.3134783,6.01562387 23.6855449,5.90234375 24.0839844,5.90234375 Z" />
</svg>