<svg xmlns="http://www.w3.org/2000/svg" viewBox="0 0 16 16">
  <path
    d="M9.16666667,9.75 L6.83333333,9.75 C6.49950917,9.75 6.19986833,9.93571 6.05061667,10.2342133 C5.901365,10.532145 5.9332675,10.8836267 6.13321667,11.1496617 L7.29988333,12.7059775 C7.4667925,12.9281458 7.72200083,13.05575 8,13.05575 C8.27799917,13.05575 8.53320167,12.9281458 8.70011667,12.7054058 L9.86678333,11.1502275 C10.0667325,10.8836267 10.098635,10.532145 9.94938333,10.2342133 C9.80013167,9.93571 9.50049083,9.75 9.16666667,9.75 Z">
  </path>
  <path
    d="M14.320965,6.6265475 C14.166055,6.2177825 13.9737183,5.80498667 13.7506633,5.39989083 C14.498555,5.00713833 15,4.223325 15,3.33333333 C15,2.04647083 13.9535292,1 12.6666667,1 C11.8263808,1 11.04612,1.49058333 10.622935,2.21555 C9.84954583,1.821275 8.97557833,1.58333333 8,1.58333333 C7.02442167,1.58333333 6.15048917,1.82131 5.377065,2.21555 C4.95388,1.49058333 4.17361917,1 3.33333333,1 C2.04647083,1 1,2.04647083 1,3.33333333 C1,4.22321417 1.501305,5.00699833 2.24905667,5.39978 C2.02589083,5.80491667 1.83348417,6.21774167 1.67846917,6.6265475 C1.02392833,8.35547167 0.51294,10.8061542 1.79809917,12.6672383 C2.86678333,14.2150083 4.95344833,15 8,15 C11.0465517,15 13.1332167,14.2150083 14.2019067,12.6672383 C15.48706,10.8061542 14.9760775,8.35547167 14.3215367,6.6265475 L14.320965,6.6265475 Z M13.2420258,12.0041517 C12.40405,13.2180975 10.6403825,13.8333333 8,13.8333333 C5.3596175,13.8333333 3.59595,13.2180975 2.75797417,12.0041517 C1.7604975,10.5600575 2.21394583,8.50757 2.76936667,7.04011917 C3.041095,6.32348833 4.57007,2.75 8,2.75 C11.42993,2.75 12.958905,6.32348833 13.2306333,7.04011917 C13.7860542,8.50757 14.2395025,10.5600575 13.2420258,12.0041517 Z">
  </path>
  <path
    d="M6.6225575,8.22159667 C7.1489225,7.47306333 7.19449833,7.17512583 7.06290417,6.66015333 C6.813395,5.68318667 6.1913225,5.47810417 5.71394583,5.47810417 C4.5279125,5.47810417 3.60278083,7.0788525 3.59138833,7.87922667 C3.58455167,8.36002167 3.7788075,8.860755 4.09952417,9.1860275 C4.32453917,9.41388917 4.588865,9.5346625 4.8645775,9.5346625 C5.60115833,9.5346625 6.16682833,8.87101 6.6225575,8.22159667 Z">
  </path>
  <path
    d="M10.2860542,5.47811 C9.8086775,5.47811 9.186605,5.68318667 8.93709583,6.66015917 C8.80550167,7.17513167 8.8510775,7.47306333 9.3774425,8.2216025 C9.83317167,8.87101583 10.3988475,9.53467417 11.1354167,9.53467417 C11.411135,9.53467417 11.675455,9.41390667 11.90047,9.18603917 C12.2211867,8.86076083 12.4154425,8.3600275 12.4086058,7.87980417 C12.3972192,7.07885833 11.4720875,5.47811 10.2860542,5.47811 Z">
  </path>
</svg>