<?xml version="1.0" encoding="UTF-8"?>
<svg viewBox="0 0 16 16" version="1.1" xmlns="http://www.w3.org/2000/svg" xmlns:xlink="http://www.w3.org/1999/xlink">
  <g stroke="none" strokeWidth="1" fill="none" fillRule="evenodd">
    <g transform="translate(1, 1)" fillRule="nonzero">
      <path
        d="M12.4446,14 L1.5554,14 C0.7,14 0,13.3 0,12.4446 L0,1.5554 C0,0.7 0.7,0 1.5554,0 L12.4446,0 C13.3,0 14,0.7 14,1.5554 L14,12.4446 C14,13.3 13.3,14 12.4446,14 Z"
        fill="currentColor"></path>
      <g transform="translate(0.7, 4.45)" fill="#FFFFFF">
        <path
          d="M0.9415,3.2795 L0.9415,5.061 L0,5.061 L0,0 L1.6485,0 C1.98683333,0 2.27966667,0.0396666667 2.527,0.119 C2.77433333,0.198333333 2.9785,0.309166667 3.1395,0.4515 C3.3005,0.593833333 3.4195,0.764166667 3.4965,0.9625 C3.5735,1.16083333 3.612,1.37783333 3.612,1.6135 C3.612,1.8585 3.57116667,2.08308333 3.4895,2.28725 C3.40783333,2.49141667 3.28533333,2.667 3.122,2.814 C2.95866667,2.961 2.7545,3.07533333 2.5095,3.157 C2.2645,3.23866667 1.9775,3.2795 1.6485,3.2795 L0.9415,3.2795 Z M0.9415,2.5445 L1.6485,2.5445 C1.82116667,2.5445 1.97166667,2.52291667 2.1,2.47975 C2.22833333,2.43658333 2.3345,2.37475 2.4185,2.29425 C2.5025,2.21375 2.5655,2.11575 2.6075,2.00025 C2.6495,1.88475 2.6705,1.75583333 2.6705,1.6135 C2.6705,1.47816667 2.6495,1.35566667 2.6075,1.246 C2.5655,1.13633333 2.5025,1.043 2.4185,0.966 C2.3345,0.889 2.22833333,0.830083333 2.1,0.78925 C1.97166667,0.748416667 1.82116667,0.728 1.6485,0.728 L0.9415,0.728 L0.9415,2.5445 Z">
        </path>
        <path
          d="M8.8375,2.5305 C8.8375,2.9015 8.77566667,3.24216667 8.652,3.5525 C8.52833333,3.86283333 8.3545,4.13 8.1305,4.354 C7.9065,4.578 7.637,4.75183333 7.322,4.8755 C7.007,4.99916667 6.65816667,5.061 6.2755,5.061 L4.3435,5.061 L4.3435,0 L6.2755,0 C6.65816667,0 7.007,0.0624166667 7.322,0.18725 C7.637,0.312083333 7.9065,0.485916667 8.1305,0.70875 C8.3545,0.931583333 8.52833333,1.19816667 8.652,1.5085 C8.77566667,1.81883333 8.8375,2.1595 8.8375,2.5305 Z M7.875,2.5305 C7.875,2.25283333 7.83766667,2.00375 7.763,1.78325 C7.68833333,1.56275 7.58216667,1.37608333 7.4445,1.22325 C7.30683333,1.07041667 7.13941667,0.953166667 6.94225,0.8715 C6.74508333,0.789833333 6.52283333,0.749 6.2755,0.749 L5.292,0.749 L5.292,4.312 L6.2755,4.312 C6.52283333,4.312 6.74508333,4.27116667 6.94225,4.1895 C7.13941667,4.10783333 7.30683333,3.99058333 7.4445,3.83775 C7.58216667,3.68491667 7.68833333,3.49825 7.763,3.27775 C7.83766667,3.05725 7.875,2.80816667 7.875,2.5305 Z">
        </path>
        <polygon
          points="12.768 0 12.768 0.749 10.5245 0.749 10.5245 2.247 12.418 2.247 12.418 2.9995 10.5245 2.9995 10.5245 5.061 9.576 5.061 9.576 0">
        </polygon>
      </g>
    </g>
  </g>
</svg>