<svg width="14" height="14" viewBox="0 0 14 14" xmlns="http://www.w3.org/2000/svg">
  <path
    d="M0.583496 1.1665H5.58847L6.45577 5.06936L5.37138 6.15375C6.00813 7.14613 6.85387 7.99187 7.84625 8.62862L8.93064 7.54423L12.8335 8.41153V13.4165H12.2502C9.91811 13.4165 7.74423 12.7317 5.92079 11.5519C4.53204 10.6534 3.34656 9.46796 2.44807 8.07921C1.26834 6.25577 0.583496 4.08189 0.583496 1.74984V1.1665ZM1.76608 2.33317C1.86888 4.21195 2.46524 5.958 3.4276 7.44547C4.23655 8.69582 5.30418 9.76345 6.55453 10.5724C8.042 11.5348 9.78805 12.1311 11.6668 12.2339V9.3474L9.30274 8.82205L8.03413 10.0907L7.64778 9.87127C6.18068 9.03819 4.96181 7.81932 4.12873 6.35222L3.90935 5.96586L5.17795 4.69726L4.6526 2.33317H1.76608Z" />
</svg>