<?xml version="1.0" encoding="UTF-8"?>
<svg viewBox="0 0 12 12" version="1.1" xmlns="http://www.w3.org/2000/svg" xmlns:xlink="http://www.w3.org/1999/xlink">
    <g stroke="none" stroke-width="1" fill="none" fill-rule="evenodd">
        <g transform="translate(-2, -2)">
            <rect stroke="#666666" x="0.5" y="0.5" width="15" height="15" rx="2"></rect>
            <g transform="translate(2.5, 2.5)" fill="currentColor" fill-rule="nonzero">
                <path
                    d="M2.71143474,11 C2.5294858,10.6208244 2.3277598,10.2631485 2.10625674,9.92697228 C3.0357785,9.72761194 3.76555196,9.51652452 4.29557713,9.29371002 C4.83351312,9.0669865 5.24092053,8.79726368 5.51779935,8.48454158 C5.77885653,8.18745558 5.95487235,7.81023454 6.04584682,7.35287846 C6.10517799,7.06361052 6.13484358,6.70593461 6.13484358,6.27985075 L7.36893204,6.27985075 C7.35311039,6.72547974 7.31948939,7.0909737 7.26806904,7.37633262 C7.20873786,7.70078181 7.15138439,7.94705046 7.09600863,8.11513859 C8.36174038,8.64676617 9.66307084,9.23507463 11,9.88006397 L10.3710895,10.9530917 C8.9748292,10.1634684 7.73876303,9.50479744 6.66289105,8.97707889 C6.3425027,9.43834399 5.86785329,9.82924662 5.23894283,10.1497868 C4.60212154,10.478145 3.75961884,10.7615494 2.71143474,11 Z M0.961165049,10.9882729 C0.624955052,10.6677328 0.304566703,10.3726013 0,10.1028785 C0.423229054,9.35625444 0.706040992,8.63308458 0.848435814,7.93336887 C0.99874146,7.21801706 1.07389428,6.18994314 1.07389428,4.84914712 L1.07389428,0.463219616 C4.42412801,0.439765458 7.50539374,0.28535892 10.3176915,0 L10.7389428,1.13166311 C9.56814096,1.22938877 8.40722762,1.3075693 7.2562028,1.36620469 L7.2562028,2.5858209 L10.8101402,2.5858209 L10.8101402,3.61780384 L7.2562028,3.61780384 L7.2562028,4.69083156 L10.1574973,4.69083156 L10.1574973,8.43763326 L9.01240561,8.43763326 L9.01240561,5.71108742 L4.40237325,5.71108742 L4.40237325,8.43763326 L3.23354908,8.43763326 L3.23354908,4.69083156 L6.05771305,4.69083156 L6.05771305,3.61780384 L2.72923409,3.61780384 L2.72923409,2.5858209 L6.05771305,2.5858209 L6.05771305,1.43656716 C5.78083423,1.44438522 5.3635383,1.45806681 4.80582524,1.47761194 C3.66666667,1.51279318 2.82218626,1.53624733 2.27238403,1.54797441 L2.27238403,4.90191898 C2.27238403,5.94171997 2.23480762,6.78802416 2.1596548,7.44083156 C2.08450198,8.13663824 1.95199569,8.75817342 1.76213592,9.3054371 C1.58018698,9.82924662 1.31319669,10.3901919 0.961165049,10.9882729 Z">
                </path>
            </g>
        </g>
    </g>
</svg>