<svg viewBox="0 0 16 16" fill="none" xmlns="http://www.w3.org/2000/svg">
  <path
    d="M9.75244 8.43799C9.60846 9.8538 9.17637 10.9459 8.45654 11.6899C7.71257 12.4339 6.57226 13.0343 5.04834 13.4663L4.58057 12.6743C5.99638 12.3143 7.04046 11.8223 7.7124 11.1743C8.38433 10.5264 8.78057 9.59027 8.9126 8.37842L9.75244 8.43799Z"
    fill="currentColor" />
  <path
    d="M9.80029 10.9097C11.1323 11.4137 12.344 12.0142 13.436 12.7222L12.9565 13.4546C11.7925 12.6626 10.5917 12.0261 9.36768 11.5581L9.80029 10.9097Z"
    fill="currentColor" />
  <path
    d="M12.8843 3.31396C10.4603 3.72197 7.73612 3.95054 4.72412 3.99854V5.17432H8.73193C8.79191 4.81444 8.84047 4.44241 8.87646 4.08252L9.73975 4.18994C9.70375 4.52594 9.65591 4.86232 9.60791 5.17432H13.4126V5.96631H9.47607C9.40409 6.37418 9.32009 6.74606 9.22412 7.10596H12.3081V11.186H11.48V7.89795H6.73975V11.2339H5.9126V7.10596H8.34814C8.44411 6.72208 8.52812 6.35019 8.6001 5.96631H4.72412V7.02197C4.66413 9.66178 4.14841 11.7739 3.16455 13.3579L2.56396 12.7222C3.37996 11.3542 3.824 9.44597 3.896 7.02197V3.26611C7.06384 3.24211 9.91975 2.98965 12.4517 2.53369L12.8843 3.31396Z"
    fill="currentColor" />
  <path
    d="M14 15V16H2V15H14ZM15 14V2C15 1.44772 14.5523 1 14 1H2C1.44772 1 1 1.44772 1 2V14C1 14.5523 1.44772 15 2 15V16C0.895431 16 0 15.1046 0 14V2C0 0.895431 0.895431 0 2 0H14C15.1046 0 16 0.895431 16 2V14C16 15.1046 15.1046 16 14 16V15C14.5523 15 15 14.5523 15 14Z"
    fill="currentColor" fill-opacity="0.5" />
</svg>