<svg xmlns="http://www.w3.org/2000/svg" viewBox="0 0 16 16">
  <path d="M12.0037973,0 C14.2108391,0 16,1.78883037 16,3.99620271 L16,12.0037973 C16,14.2108391 14.2111696,16 12.0037973,16 L3.99620271,16 C1.78916089,16 0,14.2111696 0,12.0037973 L0,3.99620271 C0,1.78916089 1.78883037,0 3.99620271,0 L12.0037973,0 Z M12.0037973,1 L3.99620271,1 C2.4003478,1 1.09620316,2.24722108 1.0050855,3.82014039 L1,3.99620271 L1,12.0037973 C1,13.5996522 2.24722108,14.9037968 3.82014039,14.9949145 L3.99620271,15 L12.0037973,15 C13.5996522,15 14.9037968,13.7527789 14.9949145,12.1798596 L15,12.0037973 L15,3.99620271 C15,2.4003478 13.7527789,1.09620316 12.1798596,1.0050855 L12.0037973,1 Z M8,2.65 C8.74231645,2.65 9.35,3.25908834 9.35,3.99539757 L9.35,6.65 L12.0046024,6.65 C12.7491252,6.65 13.35,7.2520476 13.35,8 C13.35,8.74231645 12.7409117,9.35 12.0046024,9.35 L9.35,9.35 L9.35,12.0046024 C9.35,12.7491252 8.7479524,13.35 8,13.35 C7.25768355,13.35 6.65,12.7409117 6.65,12.0046024 L6.65,9.35 L3.99539757,9.35 C3.25087483,9.35 2.65,8.7479524 2.65,8 C2.65,7.25768355 3.25908834,6.65 3.99539757,6.65 L6.65,6.65 L6.65,3.99539757 C6.65,3.25087483 7.2520476,2.65 8,2.65 Z" />
</svg>