<svg xmlns="http://www.w3.org/2000/svg" viewBox="0 0 16 16">
  <path
    d="M2.50569476,3.08823529 L4.14578588,3.08823529 L4.14578588,4 L2.50569476,4 L2.50569476,5.91176471 L1.6309795,5.91176471 L1.6309795,4 L8.8817842e-16,4 L8.8817842e-16,3.08823529 L1.6309795,3.08823529 L1.6309795,1.15686275 L2.50569476,1.15686275 L2.50569476,3.08823529 Z M8,7 L6.7881549,7 L6.7881549,2.6372549 C6.7881549,2.49346405 6.7896735,2.34640523 6.79271071,2.19607843 C6.79574791,2.04575163 6.79878512,1.89379085 6.80182232,1.74019608 C6.80485953,1.58660131 6.80941534,1.44444444 6.81548975,1.31372549 C6.75474563,1.37908497 6.6864085,1.45751634 6.61047836,1.54901961 C6.53454822,1.64052288 6.45102506,1.72875817 6.35990888,1.81372549 L5.6856492,2.44117647 L5.06605923,1.67647059 L6.96127563,0 L8,0 L8,7 Z">
  </path>
</svg>