<svg xmlns="http://www.w3.org/2000/svg" viewBox="0 0 16 16">
  <path
    d="M2.47747748,3.1047619 L4.0990991,3.1047619 L4.0990991,3.99047619 L2.47747748,3.99047619 L2.47747748,5.84761905 L1.61261261,5.84761905 L1.61261261,3.99047619 L0,3.99047619 L0,3.1047619 L1.61261261,3.1047619 L1.61261261,1.22857143 L2.47747748,1.22857143 L2.47747748,3.1047619 Z M9,3.4952381 C9,4.04761905 8.96246246,4.53968254 8.88738739,4.97142857 C8.81231231,5.4031746 8.69219219,5.76984127 8.52702703,6.07142857 C8.36186186,6.37301587 8.14564565,6.6031746 7.87837838,6.76190476 C7.61111111,6.92063492 7.28528529,7 6.9009009,7 C6.42042042,7 6.02552553,6.86031746 5.71621622,6.58095238 C5.40690691,6.3015873 5.17867868,5.9 5.03153153,5.37619048 C4.88438438,4.85238095 4.81081081,4.22857143 4.81081081,3.5047619 C4.81081081,2.76825397 4.87837838,2.13968254 5.01351351,1.61904762 C5.14864865,1.0984127 5.36936937,0.698412698 5.67567568,0.419047619 C5.98198198,0.13968254 6.39039039,0 6.9009009,0 C7.37537538,0 7.76876877,0.138095238 8.08108108,0.414285714 C8.39339339,0.69047619 8.62462462,1.09047619 8.77477477,1.61428571 C8.92492492,2.13809524 9,2.76507937 9,3.4952381 Z M6.00900901,3.5047619 C6.00900901,4.05714286 6.03603604,4.51904762 6.09009009,4.89047619 C6.14414414,5.26190476 6.23723724,5.54126984 6.36936937,5.72857143 C6.5015015,5.91587302 6.67867868,6.00952381 6.9009009,6.00952381 C7.12312312,6.00952381 7.3003003,5.91746032 7.43243243,5.73333333 C7.56456456,5.54920635 7.65915916,5.26984127 7.71621622,4.8952381 C7.77327327,4.52063492 7.8018018,4.05714286 7.8018018,3.5047619 C7.8018018,2.94603175 7.77327327,2.48095238 7.71621622,2.10952381 C7.65915916,1.73809524 7.56456456,1.45873016 7.43243243,1.27142857 C7.3003003,1.08412698 7.12312312,0.99047619 6.9009009,0.99047619 C6.67867868,0.99047619 6.5015015,1.08412698 6.36936937,1.27142857 C6.23723724,1.45873016 6.14414414,1.73650794 6.09009009,2.1047619 C6.03603604,2.47301587 6.00900901,2.93968254 6.00900901,3.5047619 Z">
  </path>
</svg>