<svg xmlns="http://www.w3.org/2000/svg" viewBox="0 0 12 12">
  <g transform="translate(-2, -2)">
    <rect stroke="#666666" x="0.5" y="0.5" rx="2"></rect>
    <g transform="translate(2, 2)">
      <path
        d="M4.08984375,11.5429688 C3.78125,11.3046875 3.48046875,11.0859375 3.1875,10.8867188 C3.66796875,10.3867188 4.01953125,9.87695312 4.2421875,9.35742188 C4.46484375,8.82617188 4.609375,8.15429688 4.67578125,7.34179688 L5.74804688,7.46484375 C5.74023438,7.53125 5.7265625,7.625 5.70703125,7.74609375 C5.65234375,8.12109375 5.609375,8.39257812 5.578125,8.56054688 C5.80078125,9.00585938 6.03710938,9.34960938 6.28710938,9.59179688 C6.52929688,9.82226562 6.81445312,9.98828125 7.14257812,10.0898438 L7.14257812,6.9609375 L3.94335938,6.9609375 L3.94335938,5.98828125 L11.3203125,5.98828125 L11.3203125,6.9609375 L8.25,6.9609375 L8.25,8.02148438 L10.9335938,8.02148438 L10.9335938,8.95898438 L8.25,8.95898438 L8.25,10.2011719 C9.1875,10.2128906 10.2519531,10.2128906 11.4433594,10.2011719 C11.3300781,10.6152344 11.2480469,10.9511719 11.1972656,11.2089844 C10.0019531,11.2089844 8.88476562,11.1972656 7.84570312,11.1738281 C7.20117188,11.1464844 6.68554688,11.0351562 6.29882812,10.8398438 C5.89648438,10.6289062 5.5390625,10.2753906 5.2265625,9.77929688 C4.984375,10.3769531 4.60546875,10.9648438 4.08984375,11.5429688 Z M0.896484375,11.4316406 C0.845703125,10.9902344 0.78515625,10.5878906 0.71484375,10.2246094 C0.8515625,10.2324219 1.08007812,10.2363281 1.40039062,10.2363281 C1.56835938,10.2363281 1.68945312,10.1933594 1.76367188,10.1074219 C1.84570312,10.0136719 1.88671875,9.8515625 1.88671875,9.62109375 L1.88671875,7.16015625 C1.76953125,7.203125 1.59375,7.26953125 1.359375,7.359375 C1.05859375,7.47265625 0.83203125,7.55859375 0.6796875,7.6171875 L0.544921875,6.32226562 C1.01367188,6.18945312 1.4609375,6.0546875 1.88671875,5.91796875 L1.88671875,3.75 L0.703125,3.75 L0.703125,2.6015625 L1.88671875,2.6015625 L1.88671875,0.3984375 L2.98242188,0.3984375 L2.98242188,2.6015625 L3.99609375,2.6015625 L3.99609375,3.75 L2.98242188,3.75 L2.98242188,5.54882812 L3.89648438,5.23828125 C3.89648438,5.7890625 3.90820312,6.19140625 3.93164062,6.4453125 L2.98242188,6.76757812 L2.98242188,9.87890625 C2.98242188,10.375 2.89746094,10.7392578 2.72753906,10.9716797 C2.55761719,11.2041016 2.26953125,11.3417969 1.86328125,11.3847656 C1.6796875,11.4003906 1.43359375,11.4140625 1.125,11.4257812 C1.02734375,11.4257812 0.951171875,11.4277344 0.896484375,11.4316406 Z M4.6875,5.21484375 L4.6875,0.85546875 L10.5292969,0.85546875 L10.5292969,5.21484375 L4.6875,5.21484375 Z M5.77734375,4.30078125 L9.4453125,4.30078125 L9.4453125,3.43945312 L5.77734375,3.43945312 L5.77734375,4.30078125 Z M5.77734375,2.61328125 L9.4453125,2.61328125 L9.4453125,1.76367188 L5.77734375,1.76367188 L5.77734375,2.61328125 Z">
      </path>
    </g>
  </g>
</svg>