<svg xmlns="http://www.w3.org/2000/svg" viewBox="0 0 20 20">
  <path transform="translate(1)"
    d="M2.01389305,7.89138094 C1.90313232,8.15568557 2.05081329,8.34447459 2.01389305,9.36393528 C2.01389305,9.62823991 0.832445245,10.9120052 0.352482075,12.2335284 C-0.127481096,13.5172937 -0.16440134,14.8765746 0.537083294,15.4429417 C1.23856793,15.9715509 1.90313232,13.6683249 2.01389305,14.0081451 C2.05081329,14.1591763 2.08773354,14.3102076 2.16157403,14.4612388 C2.38309549,15.1031214 2.78921817,15.7827619 3.34302183,16.4246445 C3.45378256,16.5756758 2.6415372,16.8022226 2.16157403,17.6328943 C1.68161086,18.4635659 2.309255,19.9738781 4.70907086,19.9738781 C7.81037134,19.9738781 8.47493573,18.8789018 8.54877622,18.8789018 L9.02873939,18.8789018 C9.32410134,18.8789018 9.21334061,18.9166596 9.47178232,18.8789018 C9.61946329,18.8789018 11.1331933,20.2004249 13.200727,19.9738781 C16.7450704,19.5963 16.1912667,18.3880503 15.932825,17.6328943 C15.6374631,16.8399804 14.6036962,16.4624024 14.6775367,16.4246445 C15.5267023,15.4806995 15.6743833,14.8765746 15.932825,14.0081451 C16.0435857,13.6305671 16.8558311,16.0093087 17.5203955,15.4429417 C17.7788372,15.2163948 18.2957206,14.2724497 17.7788372,12.2335284 C17.2619538,10.2323648 16.228187,9.74151332 16.2651072,9.36393528 C16.3020274,8.57102141 16.3020274,8.04241216 16.228187,7.89138094 C16.0435857,7.21174048 15.6374631,7.36277169 15.6374631,7.21174048 C15.6374631,3.2094133 12.7207638,0 9.10257988,0 C5.48439598,0 2.56769671,3.24717111 2.56769671,7.21174048 C2.53077646,7.51380291 2.23541451,7.28725609 2.01389305,7.89138094 L2.01389305,7.89138094 Z" />
</svg>