<svg xmlns="http://www.w3.org/2000/svg" viewBox="0 0 16 16">
  <path d="M8,0 C12.418,0 16,3.582 16,8 C16,12.418 12.418,16 8,16 C3.581,16 0,12.418 0,8 C0,3.582 3.581,0 8,0 Z M8.11736264,4 C7.25646456,4 6.55874985,4.21645013 6.03402525,4.65471443 C5.49913082,5.09437144 5.23,5.71520731 5.23,6.49431818 L5.23,6.74431818 L6.98274725,6.74431818 L6.98274725,6.49431818 C6.98274725,6.1452128 7.05744711,5.89287443 7.19765066,5.72856011 C7.35507672,5.53017833 7.62684357,5.4280303 8.04043956,5.4280303 C8.36592311,5.4280303 8.60144293,5.4990654 8.75636101,5.63256489 C8.90259966,5.76778611 8.97725275,5.94699592 8.97725275,6.18181818 C8.97725275,6.35418144 8.90493525,6.51805747 8.74924986,6.68203167 L8.62143222,6.8104394 C7.9008768,7.3588107 7.45589789,7.77504201 7.2940249,8.06871111 C7.12682689,8.34940354 7.04318681,8.70257692 7.04318681,9.11742424 L8.80692308,9.11742424 C8.80692308,8.94042523 8.85027297,8.77854733 8.93799541,8.62735902 C9.02343136,8.47491092 9.14394482,8.34509647 9.30413604,8.23359974 C9.83380461,7.83604992 10.1525642,7.58371968 10.2803882,7.45979936 C10.6068983,7.08843234 10.762967,6.64134059 10.762967,6.1155303 C10.762967,5.45713648 10.5070639,4.92788233 10.0032214,4.55159086 C9.5268653,4.1827928 8.89450758,4 8.11736264,4 Z M7.97354839,10 C7.69827819,10 7.46172142,10.0903217 7.26387097,10.2709677 C7.07462271,10.4516138 6.98,10.6838695 6.98,10.9677419 C6.98,11.2516143 7.07462271,11.4838701 7.26387097,11.6645161 C7.47032361,11.8537644 7.70688039,11.9483871 7.97354839,11.9483871 C8.25742077,11.9483871 8.49397755,11.8580654 8.68322581,11.6774194 C8.88107626,11.4967733 8.98,11.2602165 8.98,10.9677419 C8.98,10.6924717 8.88537729,10.460216 8.69612903,10.2709677 C8.50688077,10.0903217 8.26602297,10 7.97354839,10 Z" />
</svg>