<svg xmlns="http://www.w3.org/2000/svg" viewBox="0 0 14 14">
  <path
    d="M14.0519791,6.98842172 C14.5755566,6.98842172 15,7.4103174 15,7.93075209 L15,9.62232292 C15,11.7040617 13.3022264,13.3916444 11.2079165,13.3916444 L9.12382157,13.3914217 L9.11089888,14.6961903 C9.10939259,14.8468879 8.99993671,14.9716624 8.85698709,14.9969152 L8.80195638,15.0015761 C8.75447091,15.0013302 8.70774848,14.9899922 8.66548922,14.9684601 L6.05924023,12.6744283 C5.9089028,12.5978276 5.8495024,12.4131219 5.92656572,12.2618766 C5.95675704,12.2026228 6.00523707,12.1547009 6.06472901,12.1253039 L8.71627846,9.88725313 C8.86813158,9.81221735 9.0512476,9.87463169 9.12527955,10.0266595 C9.14608965,10.0693939 9.1566757,10.1164522 9.15619935,10.1641078 L9.14282157,11.5064217 L11.2079165,11.5069837 C12.2550714,11.5069837 13.1039582,10.6631923 13.1039582,9.62232292 L13.1039582,7.93075209 C13.1039582,7.4103174 13.5284016,6.98842172 14.0519791,6.98842172 Z M12.1698528,1 C14.0281951,1 14.39978,1.36051827 14.4612145,3.21924005 L14.4612145,6.02089016 L14.3190113,6.16223972 L13.1446078,6.16223972 L13.0024046,6.02089016 L13.0019444,2.35601341 L2.39927882,2.35601341 L2.39927882,12.871478 L5.15866339,12.8719923 L5.30086652,13.0133419 L5.30086652,14.1806961 L5.15866339,14.3220457 L3.23264152,14.3220457 C1.36901144,14.3220457 1,13.9552492 1,12.1028056 L1,3.21924005 C1,1.36679645 1.36901144,1 3.23264152,1 L12.1698528,1 Z" />
</svg>