<?xml version="1.0" encoding="UTF-8"?>
<svg viewBox="0 0 20 20" version="1.1" xmlns="http://www.w3.org/2000/svg" xmlns:xlink="http://www.w3.org/1999/xlink">
    <g stroke="none" stroke-width="1" fill="none" fill-rule="evenodd">
        <g>
            <rect x="0" y="0" width="20" height="20"></rect>
            <path
                d="M10.2767925,6.55672285 C10.3710339,6.60468726 10.4476421,6.68129546 10.4956065,6.77553691 L12.3565394,10.4319362 C12.4305416,10.5773373 12.5708288,10.6774892 12.7323824,10.7002529 L16.8676255,11.2829302 C17.1410667,11.3214595 17.3315004,11.5743616 17.2929711,11.8478028 C17.2771579,11.9600288 17.2236867,12.0635531 17.1413229,12.1414051 L14.168938,14.9509654 C14.046696,15.0665112 13.9907443,15.235779 14.0200411,15.4014161 L14.7243994,19.3836939 C14.7724951,19.6556156 14.5910482,19.915041 14.3191265,19.9631366 C14.2120865,19.9820691 14.1017923,19.9656032 14.0049493,19.9162326 L10.2770923,18.0157716 C10.1344319,17.9430434 9.96556813,17.9430434 9.82290771,18.0157716 L6.0950507,19.9162326 C5.84903336,20.0416522 5.54792422,19.9438885 5.42250461,19.6978711 C5.37313408,19.6010282 5.35666808,19.4907339 5.3756006,19.3836939 L6.0799589,15.4014161 C6.10925567,15.235779 6.05330403,15.0665112 5.93106195,14.9509654 L2.95867713,12.1414051 C2.75799579,11.9517169 2.74908409,11.6352598 2.93877229,11.4345785 C3.01662428,11.3522147 3.12014856,11.2987435 3.23237453,11.2829302 L7.36761755,10.7002529 C7.52917124,10.6774892 7.66945843,10.5773373 7.74346062,10.4319362 L9.60439347,6.77553691 C9.72964749,6.52943522 10.0306908,6.43146883 10.2767925,6.55672285 Z M4,0 C4.55228475,0 5,0.44771525 5,1 L5,6.27666901 C5,6.82895376 4.55228475,7.27666901 4,7.27666901 L3,7.27666901 C2.44771525,7.27666901 2,6.82895376 2,6.27666901 L2,1 C2,0.44771525 2.44771525,1.11022302e-16 3,0 L4,0 Z M17,0 C17.5522847,0 18,0.44771525 18,1 L18,6.27666901 C18,6.82895376 17.5522847,7.27666901 17,7.27666901 L16,7.27666901 C15.4477153,7.27666901 15,6.82895376 15,6.27666901 L15,1 C15,0.44771525 15.4477153,1.11022302e-16 16,0 L17,0 Z M10.5,0 C11.0522847,0 11.5,0.44771525 11.5,1 L11.5,3.36600141 C11.5,3.91828616 11.0522847,4.36600141 10.5,4.36600141 L9.5,4.36600141 C8.94771525,4.36600141 8.5,3.91828616 8.5,3.36600141 L8.5,1 C8.5,0.44771525 8.94771525,-1.11022302e-16 9.5,-2.22044605e-16 L10.5,0 Z"
                fill="currentColor"></path>
        </g>
    </g>
</svg>