<svg xmlns="http://www.w3.org/2000/svg" viewBox="0 0 24 24">
  <path
    d="M10.4228841,3.29685718 C10.5337639,3.72460313 10.2761983,4.16106583 9.84759512,4.2717239 C8.28091398,4.67621442 6.91005164,5.50321063 5.85497357,6.61081362 L6.03697489,6.84033333 L7.03263438,7.94026714 C7.03263438,7.94026714 7.74270706,8.09070723 7.89545273,8.29341888 C8.32694845,8.86540995 7.68067847,9.81897702 7.54710951,10.0039705 L7.52375716,10.0355916 C7.52375716,10.0355916 7.48048643,10.584443 7.35240507,10.819665 C7.22432371,11.054887 6.32948502,11.3774407 6.32948502,11.3774407 C6.32948502,11.3774407 5.46666667,12.41331 5.46666667,13.0488557 C5.46666667,13.6844013 6.07418771,13.9906999 6.68170876,14.037553 C7.60856779,14.1554828 8.05598714,14.7674425 8.05598714,14.7674425 C8.05598714,14.7674425 9.14251517,14.9793973 9.39824518,15.308963 C9.65397519,15.6385288 9.11049483,16.813364 9.11049483,16.813364 C9.11049483,16.813364 9.29136648,17.3571156 9.09967714,17.7574393 C8.90798781,18.1577629 8.29484157,18.4713922 8.29484157,18.4713922 C8.29484157,18.4713922 8.07336402,18.8708813 7.72889013,19.2605589 C8.97933081,19.9845549 10.4396541,20.4 12,20.4 C12.107173,20.4 12.2138741,20.3980401 12.320068,20.394155 C12.1795082,20.1526061 11.7752678,19.6640747 11.830835,19.4018892 C11.8905418,19.1201713 12.6518313,18.7600489 12.6518313,18.7600489 C12.6518313,18.7600489 12.324973,17.9647995 12.6496096,17.620939 C12.973916,17.277125 13.6139987,17.5850393 13.8232093,17.4809094 C14.0324199,17.3767796 13.7813945,15.945116 13.7813945,15.945116 C13.7813945,15.945116 14.3788239,15.0657453 15.0599303,14.8703857 C15.7410366,14.6750261 16.9652492,15.7046691 16.9652492,15.7046691 C16.9652492,15.7046691 18.460588,15.8324686 19.3445906,16.1131709 L19.3588872,16.151834 C20.0204724,14.9794484 20.3967936,13.6323069 20.3967936,12.2 C20.3967936,11.3344557 20.2596524,10.4879288 19.9934071,9.6814584 C19.8548694,9.2618207 20.0834277,8.80955474 20.5039063,8.67129411 C20.924385,8.53303348 21.3775573,8.76113466 21.516095,9.18077236 C21.8354837,10.1482167 22,11.1637211 22,12.2 C22,17.6158356 17.5191907,22 12,22 C6.48080933,22 2,17.6158356 2,12.2 C2,7.72017782 5.09216855,3.84682074 9.44606373,2.72271879 C9.87466689,2.61206072 10.3120043,2.86911124 10.4228841,3.29685718 Z M15.38,2 C17.313,2 19.38,3.43066667 19.38,5.896 C19.38,8.30066667 15.38,12 15.38,12 C15.38,12 11.38,8.30066667 11.38,5.896 C11.38,3.43066667 13.447,2 15.38,2 Z M15.4133333,4.66666667 C14.6769537,4.66666667 14.08,5.26362033 14.08,6 C14.08,6.73637967 14.6769537,7.33333333 15.4133333,7.33333333 C16.149713,7.33333333 16.7466667,6.73637967 16.7466667,6 C16.7466667,5.26362033 16.149713,4.66666667 15.4133333,4.66666667 Z" />
</svg>