<svg xmlns="http://www.w3.org/2000/svg" viewBox="0 0 16 16">
  <path
    d="M16 11.625H13.835C13.5313 11.6251 13.2852 11.8711 13.2852 12.1748V13.5068C13.2855 13.8103 13.5315 14.0565 13.835 14.0566H16V15.3564H13.835C12.8135 15.3563 11.9847 14.5282 11.9844 13.5068V12.1748C11.9844 11.1532 12.8133 10.3234 13.835 10.3232H16V11.625Z"
    fill="currentColor" />
  <path fillRule="evenodd" clipRule="evenodd"
    d="M10.499 10.3408C11.0511 10.3411 11.499 10.7887 11.499 11.3408V14.3408C11.4988 14.8927 11.0509 15.3406 10.499 15.3408H7.99121L7.88867 15.3359C7.41842 15.2881 7.04422 14.9135 6.99609 14.4434L6.99121 14.3408V11.3408C6.99121 10.7885 7.43893 10.3408 7.99121 10.3408H10.499ZM8.19141 14.1406H10.2988V11.541H8.19141V14.1406Z"
    fill="currentColor" />
  <path
    d="M8.66699 6H14V9.32324H13.835C13.129 9.32342 12.4841 9.58237 11.9863 10.0078C11.6203 9.59964 11.0904 9.34096 10.499 9.34082H7.99121C6.88664 9.34082 5.99023 10.2363 5.99023 11.3408V14.3643L5.99219 14.3887L5.99707 14.4912L5.99805 14.5186L6.00098 14.5449C6.03011 14.8296 6.11933 15.0963 6.25488 15.333H2V0.666016H8.66699V6Z"
    fill="currentColor" />
  <path d="M14 4.39062V4.66699H10V0.666016H10.2764L14 4.39062Z" fill="currentColor" />
</svg>