<svg xmlns="http://www.w3.org/2000/svg" viewBox="0 0 16 16">
  <path d="M15,-0.000854492188 C15.5522847,-0.000854492188 16,0.446860758 16,0.999145508 L16,0.999145508 L16,5.99914551 C16,6.55143026 15.5522847,6.99914551 15,6.99914551 L15,6.99914551 L10,6.99914551 C9.44771525,6.99914551 9,6.55143026 9,5.99914551 C9,5.44686076 9.44771525,4.99914551 10,4.99914551 L10,4.99914551 L12.7965533,4.99905502 C11.7223923,3.4817806 9.93152437,2.52173913 7.95407044,2.52173913 C4.70713563,2.52173913 2.0749749,5.08636888 2.0749749,8.25 C2.0749749,11.4136311 4.70713563,13.9782609 7.95407044,13.9782609 C8.52705893,13.9782609 8.99155789,14.4308426 8.99155789,14.9891304 C8.99155789,15.5474183 8.52705893,16 7.95407044,16 C3.56115864,16 0,12.5302068 0,8.25 C0,3.96979319 3.56115864,0.5 7.95407044,0.5 C10.3401007,0.5 12.5251814,1.53311023 14.0007474,3.21307821 L14,0.999145508 C14,0.446860758 14.4477153,-0.000854492188 15,-0.000854492188 Z" />
</svg>