<svg xmlns="http://www.w3.org/2000/svg" viewBox="0 0 24 24">
  <path
    d="M19.3333333,0.998123169 C19.8856181,0.998123169 20.3333333,1.44583842 20.3333333,1.99812317 L20.333,16.9991232 L22,17 C22.5128358,17 22.9355072,17.3860402 22.9932723,17.8833789 L23,18 L23,18.6666667 C23,21.0602847 21.0602847,23 18.6666667,23 L4.66666667,23 C2.64104858,23 1,21.3589514 1,19.3333333 L1,2 C1,1.44771525 1.44771525,1 2,1 L14.952,1.00012317 L14.9854584,0.998123169 L19.3333333,0.998123169 Z M20.975,18.9991232 L8.333,18.9991232 L8.33333333,19.3333333 C8.33333333,19.921416 8.19501394,20.4770844 7.9491218,20.9695918 L7.933,20.9991232 L18.6666667,21 C19.7945842,21 20.7351044,20.2004695 20.9526107,19.137025 L20.975,18.9991232 Z M18.333,2.99812317 L16,2.99812317 L16,12 L13.539573,9.47759012 L11,12 L11,2.99912317 L3,2.99912317 L3,19.3333333 C3,20.2059057 3.66919739,20.9210279 4.52277894,20.9938869 L4.66666667,21 C5.58771525,21 6.33333333,20.2543819 6.33333333,19.3333333 L6.33333333,18 C6.33333333,17.4477153 6.78104858,17 7.33333333,17 L18.333,16.9991232 L18.333,2.99812317 Z" />
</svg>