<svg xmlns="http://www.w3.org/2000/svg" viewBox="0 0 16 16">
  <path
    d="M7.45210642,12.062908 C7.8103357,12.4211373 7.81129106,13.0009863 7.45424028,13.3580371 C7.0971895,13.7150879 6.51734044,13.7141325 6.15911116,13.3559033 L6.15911116,13.3559033 L0.258081487,7.45487359 C-0.100147796,7.09664431 -0.101103161,6.51679525 0.25594762,6.15974447 L0.25594762,6.15974447 L6.13731394,0.278378148 C6.49436472,-0.0786726326 7.07421378,-0.0777172678 7.43244306,0.280512015 C7.79067235,0.638741298 7.79162771,1.21859036 7.43457693,1.57564114 L7.43457693,1.57564114 L3.109,5.9 L9.75249395,5.90077869 C13.1422091,5.90077869 15.8787007,8.76325848 15.9960767,12.3135477 L16,12.5512288 L16,15.0826965 C16,15.5893093 15.5906603,16 15.0857143,16 C14.5807682,16 14.1714286,15.5893093 14.1714286,15.0826965 L14.1714286,15.0826965 L14.1714286,12.5512288 C14.1714286,9.87790527 12.1783643,7.73538561 9.75249395,7.73538561 L9.75249395,7.73538561 L3.124,7.735 Z" />
</svg>