<svg width="14" height="14" viewBox="0 0 14 14" xmlns="http://www.w3.org/2000/svg">
  <path
    d="M2.33326 1.16669V11.6667H12.8333V12.8334H1.1666V1.16669H2.33326ZM9.33326 2.91669C9.0111 2.91669 8.74993 3.17785 8.74993 3.50002C8.74993 3.82219 9.0111 4.08335 9.33326 4.08335C9.65543 4.08335 9.9166 3.82219 9.9166 3.50002C9.9166 3.17785 9.65543 2.91669 9.33326 2.91669ZM7.58326 3.50002C7.58326 2.53352 8.36676 1.75002 9.33326 1.75002C10.2998 1.75002 11.0833 2.53352 11.0833 3.50002C11.0833 4.46652 10.2998 5.25002 9.33326 5.25002C8.36676 5.25002 7.58326 4.46652 7.58326 3.50002ZM5.83326 7.00002C5.18893 7.00002 4.6666 7.52235 4.6666 8.16669C4.6666 8.81102 5.18893 9.33335 5.83326 9.33335C6.47759 9.33335 6.99993 8.81102 6.99993 8.16669C6.99993 7.52235 6.47759 7.00002 5.83326 7.00002ZM3.49993 8.16669C3.49993 6.87802 4.5446 5.83335 5.83326 5.83335C7.12193 5.83335 8.1666 6.87802 8.1666 8.16669C8.1666 9.45535 7.12193 10.5 5.83326 10.5C4.5446 10.5 3.49993 9.45535 3.49993 8.16669ZM9.9166 8.16669C9.9166 7.52235 10.4389 7.00002 11.0833 7.00002C11.7276 7.00002 12.2499 7.52235 12.2499 8.16669C12.2499 8.81102 11.7276 9.33335 11.0833 9.33335C10.4389 9.33335 9.9166 8.81102 9.9166 8.16669Z"
    fill-opacity="0.8" />
</svg>