<?xml version="1.0" encoding="UTF-8"?>
<svg viewBox="0 0 12 12" version="1.1" xmlns="http://www.w3.org/2000/svg" xmlns:xlink="http://www.w3.org/1999/xlink">
    <g stroke="none" stroke-width="1" fill="none" fill-rule="evenodd">
        <g transform="translate(-2, -2)">
            <rect stroke="#666666" x="0.5" y="0.5" width="15" height="15" rx="2"></rect>
            <g transform="translate(2.5, 2.5)" fill="currentColor" fill-rule="nonzero">
                <path
                    d="M8.25297297,11 L8.25297297,8.0945589 L4.31675676,8.44902272 L4.20378378,7.29265716 L8.25297297,6.92657158 L8.25297297,0 L9.45405405,0 L9.45405405,6.81616482 L10.9345946,6.68251453 L11,7.83888008 L9.45405405,7.97253038 L9.45405405,11 L8.25297297,11 Z M1.78378378,10.9883782 L1.78378378,6.40940306 C1.43891892,7.27716147 0.977117117,8.15266772 0.398378378,9.03592182 L0,7.6703645 C0.701621622,6.7135059 1.25855856,5.6133122 1.67081081,4.36978341 L0.124864865,4.36978341 L0.124864865,3.24828315 L1.78378378,3.24828315 L1.78378378,1.73745378 C1.20108108,1.78394083 0.733333333,1.81493221 0.380540541,1.83042789 C0.340900901,1.4159183 0.283423423,1.04208487 0.208108108,0.708927628 C1.39333333,0.662440571 2.75891892,0.548159887 4.30486486,0.366085578 L4.53081081,1.45272055 C3.97189189,1.5340729 3.4427027,1.59218172 2.94324324,1.62704702 L2.94324324,3.24828315 L4.44162162,3.24828315 L4.44162162,4.36978341 L2.94324324,4.36978341 L2.94324324,5.64236661 L3.27621622,5.26465927 C3.33171171,5.30727241 3.41891892,5.37700299 3.53783784,5.47385103 C4.1245045,5.93872161 4.53279279,6.27187885 4.7627027,6.47332277 L3.99567568,7.31590069 C3.88468468,7.20355696 3.64288288,6.97693256 3.27027027,6.63602747 C3.1236036,6.50431414 3.01459459,6.40552914 2.94324324,6.33967248 L2.94324324,10.9883782 L1.78378378,10.9883782 Z M6.55837838,6.25250924 C5.91621622,5.67916887 5.28,5.14263074 4.64972973,4.64289488 L5.38108108,3.84680401 C6.03513514,4.33491812 6.69117117,4.84433879 7.34918919,5.37506603 L6.55837838,6.25250924 Z M7.12918919,3.48071844 C6.41171171,2.82989963 5.75963964,2.26818102 5.17297297,1.7955626 L5.90432432,1.00528262 C6.65351351,1.58249692 7.32540541,2.12290896 7.92,2.62651875 L7.12918919,3.48071844 Z">
                </path>
            </g>
        </g>
    </g>
</svg>