<svg viewBox="0 0 16 16" fill="none" xmlns="http://www.w3.org/2000/svg">
  <path
    d="M14 15V16H2V15H14ZM15 14V2C15 1.44772 14.5523 1 14 1H2C1.44772 1 1 1.44772 1 2V14C1 14.5523 1.44772 15 2 15V16C0.895431 16 0 15.1046 0 14V2C0 0.895431 0.895431 0 2 0H14C15.1046 0 16 0.895431 16 2V14C16 15.1046 15.1046 16 14 16V15C14.5523 15 15 14.5523 15 14Z"
    fill="currentColor" fill-opacity="0.5" />
  <path
    d="M9.68848 5.93408C9.68847 6.52784 9.65555 7.07767 9.60059 7.5835C10.2606 9.5415 11.4152 11.0928 13.0762 12.2368L12.5596 12.8423C11.1296 11.7643 10.0731 10.4439 9.36914 8.85986C9.30317 9.13476 9.22565 9.38748 9.1377 9.62939C8.66473 10.9493 7.58733 12.0278 5.89355 12.8638L5.37598 12.2368C6.87198 11.5108 7.86242 10.5868 8.35742 9.48682C8.70937 8.55189 8.89595 7.36391 8.91797 5.93408H9.68848Z"
    fill="currentColor" />
  <path
    d="M5.69531 8.21045C5.07931 9.72845 4.3967 11.1587 3.6377 12.4897L2.90137 12.1597C3.7153 10.7847 4.40799 9.37669 5.00195 7.94678L5.69531 8.21045Z"
    fill="currentColor" />
  <path
    d="M8.31348 2.84326C8.22549 3.41513 8.12586 3.94334 8.00488 4.42725H12.625V4.94385C12.394 5.87884 12.0967 6.80331 11.7227 7.71631L10.9424 7.49561C11.2833 6.81371 11.5584 6.04386 11.7783 5.18604H7.78516C7.44416 6.20897 6.99261 7.04514 6.43164 7.68311L5.77246 7.22119C6.67442 6.14324 7.25747 4.63605 7.52148 2.72217L8.31348 2.84326Z"
    fill="currentColor" />
  <path
    d="M3.66016 3.22803C4.5181 4.08597 5.17767 4.8342 5.63965 5.47217L5.02441 5.91162C4.52942 5.22963 3.85845 4.45952 3.02246 3.62354L3.66016 3.22803Z"
    fill="currentColor" />
</svg>