<svg xmlns="http://www.w3.org/2000/svg" viewBox="0 0 16 16">
  <path
    d="M0,2.00212275 C0,1.44866564 0.443716645,1 0.999807492,1 L4.00019251,1 C4.55237094,1 5,1.44346313 5,2.00212275 L5,2.29787725 C5,2.85133436 4.55628335,3.3 4.00019251,3.3 L0.999807492,3.3 C0.447629061,3.3 0,2.85653687 0,2.29787725 L0,2.00212275 Z M0,13.7021227 C0,13.1486656 0.442660332,12.7 0.998956561,12.7 L2.00104344,12.7 C2.55275191,12.7 3,13.1434631 3,13.7021227 L3,13.9978773 C3,14.5513344 2.55733967,15 2.00104344,15 L0.998956561,15 C0.447248087,15 0,14.5565369 0,13.9978773 L0,13.7021227 Z M0,7.85212275 C0,7.29866564 0.443467231,6.85 0.99494398,6.85 L7.25340807,6.85 C7.80290046,6.85 8.24835205,7.29346313 8.24835205,7.85212275 L8.24835205,8.14787725 C8.24835205,8.70133436 7.80488482,9.15 7.25340807,9.15 L0.99494398,9.15 C0.445451593,9.15 0,8.70653687 0,8.14787725 L0,7.85212275 Z M11,7.85212275 C11,7.29866564 11.4437166,6.85 11.9998075,6.85 L15.0001925,6.85 C15.5523709,6.85 16,7.29346313 16,7.85212275 L16,8.14787725 C16,8.70133436 15.5562834,9.15 15.0001925,9.15 L11.9998075,9.15 C11.4476291,9.15 11,8.70653687 11,8.14787725 L11,7.85212275 Z M7.74493408,2.00212275 C7.74493408,1.44866564 8.18876228,1 8.74068791,1 L15.0042462,1 C15.5541858,1 16,1.44346313 16,2.00212275 L16,2.29787725 C16,2.85133436 15.5561718,3.3 15.0042462,3.3 L8.74068791,3.3 C8.19074826,3.3 7.74493408,2.85653687 7.74493408,2.29787725 L7.74493408,2.00212275 Z M6,13.7021227 C6,13.1486656 6.4556644,12.7 6.99539757,12.7 L15.0046024,12.7 C15.5543453,12.7 16,13.1434631 16,13.7021227 L16,13.9978773 C16,14.5513344 15.5443356,15 15.0046024,15 L6.99539757,15 C6.44565467,15 6,14.5565369 6,13.9978773 L6,13.7021227 Z" />
</svg>