<svg xmlns="http://www.w3.org/2000/svg" viewBox="0 0 16 16">
  <path d="M14,0 C15.1045695,0 16,0.8954305 16,2 L16,14 C16,15.1045695 15.1045695,16 14,16 L2,16 C0.8954305,16 0,15.1045695 0,14 L0,2 C0,0.8954305 0.8954305,0 2,0 L14,0 Z M5.5,8.5 L1.5,8.5 L1.5,13.5 C1.5,14.0522847 1.94771525,14.5 2.5,14.5 L2.5,14.5 L7.5,14.5 L7.5,10.5 C7.5,9.3954305 6.6045695,8.5 5.5,8.5 L5.5,8.5 Z M13.7809921,2.21966991 C13.4880989,1.9267767 13.0132252,1.9267767 12.7203319,2.21966991 L12.7203319,2.21966991 L9.26066202,5.68 L9.26,4 L9.25315338,3.89822944 C9.20349096,3.53215388 8.88969577,3.25 8.51,3.25 C8.09578644,3.25 7.76,3.58578644 7.76,4 L7.76,4 L7.76,6.6539917 C7.76,7.86135379 8.16138385,8.25 9.51,8.25 L9.51,8.25 L12.000662,8.25 L12.1024326,8.24315338 C12.4685081,8.19349096 12.750662,7.87969577 12.750662,7.5 C12.750662,7.08578644 12.4148756,6.75 12.000662,6.75 L12.000662,6.75 L10.312662,6.75 L13.7809921,3.28033009 L13.8536103,3.19621165 C14.0714647,2.90260016 14.0472587,2.48593648 13.7809921,2.21966991 Z" />
</svg>