<svg xmlns="http://www.w3.org/2000/svg" viewBox="0 0 18.5 18.5">
  <path transform="translate(0.3 1.5)"
    d="M11.8469908,12.502458 L10.7972607,11.2165845 C11.7427133,10.4290877 12.3,9.261456 12.3,8 C12.3,6.74267375 11.7463905,5.5784867 10.8062419,4.79091768 L11.8595424,3.50802657 C13.1737522,4.60894921 13.95,6.24132299 13.95,8 C13.95,9.7644655 13.16861,11.4016405 11.8469908,12.502458 Z M13.9674167,15.0568023 L12.9136434,13.7743075 C14.6039805,12.3572271 15.6,10.2616748 15.6,8 C15.6,5.74145193 14.6067549,3.6485061 12.920426,2.23138547 L13.9756979,0.950148433 C16.0349249,2.68063703 17.25,5.24101862 17.25,8 C17.25,10.7628056 16.031536,13.3263646 13.9674167,15.0568023 Z M6.15300921,12.502458 C4.83139004,11.4016405 4.05,9.7644655 4.05,8 C4.05,6.24132299 4.82624782,4.60894921 6.14045758,3.50802657 L7.1937581,4.79091768 C6.2536095,5.5784867 5.7,6.74267375 5.7,8 C5.7,9.261456 6.25728663,10.4290877 7.20273933,11.2165845 L6.15300921,12.502458 Z M4.03258326,15.0568023 C1.96846397,13.3263646 0.75,10.7628056 0.75,8 C0.75,5.24101862 1.96507509,2.68063703 4.02430209,0.950148433 L5.07957403,2.23138547 C3.39324505,3.6485061 2.4,5.74145193 2.4,8 C2.4,10.2616748 3.39601956,12.3572271 5.08635663,13.7743075 L4.03258326,15.0568023 Z M9,9.66666667 C8.08873016,9.66666667 7.35,8.92047458 7.35,8 C7.35,7.07952542 8.08873016,6.33333333 9,6.33333333 C9.91126984,6.33333333 10.65,7.07952542 10.65,8 C10.65,8.92047458 9.91126984,9.66666667 9,9.66666667 Z" />
</svg>