<svg xmlns="http://www.w3.org/2000/svg" viewBox="0 0 12 12">
  <g transform="translate(-2.000000, -2.000000)">
    <g>
      <path
        d="M14.0059397,0 C15.1072288,0 16,0.894513756 16,1.99406028 L16,14.0059397 C16,15.1072288 15.1054862,16 14.0059397,16 L1.99406028,16 C0.892771196,16 0,15.1054862 0,14.0059397 L0,1.99406028 C0,0.892771196 0.894513756,0 1.99406028,0 L14.0059397,0 Z M14.0059397,1 L1.99406028,1 C1.44606163,1 1,1.44579254 1,1.99406028 L1,14.0059397 C1,14.5539384 1.44579254,15 1.99406028,15 L14.0059397,15 C14.5539384,15 15,14.5542075 15,14.0059397 L15,1.99406028 C15,1.44606163 14.5542075,1 14.0059397,1 Z">
      </path>
      <g transform="translate(2.500000, 2.350000)">
        <path
          d="M8.16032609,11.3 C5.77699275,10.2601107 3.6009058,9.3531396 1.63206522,8.57908666 L2.2298913,7.55288012 C3.23822464,7.92426916 4.40398551,8.36798132 5.72717391,8.88401661 L8.22608696,7.08962117 L1.60815217,7.08962117 L1.60815217,6.00477426 C1.76757246,5.75066597 1.97880435,5.35582079 2.24184783,4.82023871 L0,4.82023871 L0,3.7353918 L2.75,3.7353918 C2.78586957,3.66111399 2.83768116,3.54969728 2.90543478,3.40114167 C3.09275362,2.99456841 3.23224638,2.68768379 3.32391304,2.4804878 L0.62173913,2.4804878 L0.62173913,1.39564089 L3.78423913,1.39564089 C3.79619565,1.36045667 3.81811594,1.30572565 3.85,1.23144785 C4.07318841,0.660681543 4.22862319,0.250198928 4.31630435,0 L5.75108696,0.064504411 L5.20108696,1.39564089 L10.3782609,1.39564089 L10.3782609,2.4804878 L4.74076087,2.4804878 C4.55344203,2.91051721 4.36811594,3.32881854 4.18478261,3.7353918 L11,3.7353918 L11,4.82023871 L3.64673913,4.82023871 C3.4634058,5.21899325 3.26413043,5.60992908 3.04891304,5.99304619 L9.90597826,5.99304619 L9.90597826,7.24795018 L7.05434783,9.40591593 L8.87173913,10.1213285 L8.16032609,11.3 Z">
        </path>
      </g>
    </g>
  </g>
</svg>