<svg width="12" height="12" viewBox="0 0 12 12" xmlns="http://www.w3.org/2000/svg">
  <path opacity="0.6"
    d="M8.15921 5.1513C7.51613 5.05294 6.9711 4.63623 6.67927 4.01266L5.98729 2.41257L5.2497 4.05016C4.97461 4.63633 4.42971 5.05285 3.82772 5.14435L2.20569 5.44353L3.38619 6.42056L3.49206 6.51815C3.9325 6.96991 4.12918 7.60688 4.02034 8.2704L3.68632 9.97576L5.07146 9.15618C5.65027 8.83601 6.3497 8.83601 6.94102 9.16318L8.36305 9.96965L8.09004 8.29501C7.98867 7.67344 8.18537 7.03642 8.62588 6.58464L8.68842 6.5245L9.8674 5.46142L8.15921 5.1513ZM9.59246 7.5271C9.45311 7.67001 9.38953 7.87592 9.42244 8.07772L9.94498 11.2829C9.98585 11.5369 9.94505 11.7189 9.74712 11.8706C9.63513 11.9563 9.50189 12 9.36865 12C9.26631 12 9.16364 11.9743 9.06935 11.9221L6.27508 10.3375C6.10286 10.2422 5.89712 10.2422 5.7249 10.3375L3.04793 11.9221C2.83101 12.0423 2.56841 12.022 2.36982 11.8706C2.1719 11.7189 2.0138 11.5372 2.05533 11.2829L2.69546 8.01118C2.72835 7.80939 2.66477 7.60348 2.52544 7.46057L0.19482 5.53166C0.0187803 5.35184 -0.043981 5.08262 0.0313325 4.83746C0.107276 4.59229 0.308434 4.41383 0.551085 4.37658L3.58258 3.81679C3.77507 3.78733 3.94147 3.66013 4.02759 3.47662L5.42325 0.377576C5.5314 0.1463 5.75507 0 6.0003 0C6.24552 0 6.46855 0.146286 6.57734 0.377576L7.91826 3.47655C8.00437 3.66012 8.17079 3.78737 8.36333 3.81682L11.4495 4.37658C11.6915 4.41349 11.8933 4.59229 11.9686 4.83746C12.0443 5.08262 11.9805 5.35183 11.8055 5.53164L9.59246 7.5271Z"
    fill="currentColor" />
  <path
    d="M5.99997 10.2656C5.90548 10.2656 5.8107 10.2903 5.72458 10.3379L3.04782 11.9219C2.83106 12.042 2.56863 12.0222 2.37009 11.8711C2.17222 11.7194 2.01423 11.5374 2.05564 11.2832L2.69529 8.01074C2.72802 7.80915 2.66449 7.60375 2.52536 7.46094L0.194309 5.53125C0.0187026 5.35154 -0.0438308 5.08274 0.0312226 4.83789C0.10713 4.59284 0.308262 4.41432 0.550754 4.37695L3.58298 3.81641C3.77526 3.78681 3.94126 3.6599 4.02732 3.47656L5.42282 0.37793C5.53092 0.146747 5.75486 0.000117532 5.99997 0V10.2656Z"
    fill="#F0BB0E" />
</svg>