<svg xmlns="http://www.w3.org/2000/svg" viewBox="0 0 16 16">
  <path
    d="M10.8789485,6.86839761 C10.021506,6.73724775 9.29480063,6.18164513 8.90569363,5.35021106 L7.9830543,3.21675687 L6.99960094,5.40021927 C6.63281403,6.18177138 5.90627799,6.73713321 5.10362688,6.85912783 L2.9409169,7.25804575 L4.51491642,8.56075062 L4.6560749,8.69086851 C5.24333624,9.29321117 5.50557946,10.1424997 5.36044876,11.0271994 L4.9150963,13.301014 L6.76194076,12.2082372 C7.53369614,11.7813441 8.4662701,11.7813441 9.25469676,12.2175748 L11.1507394,13.2928649 L10.7867182,11.0600067 C10.6515642,10.2312543 10.9138319,9.38188669 11.5011769,8.77951613 L11.5845569,8.6993279 L13.1565367,7.28188942 L10.8789485,6.86839761 Z M12.7899411,10.0361334 C12.6041425,10.2266851 12.5193701,10.5012239 12.5632493,10.7702878 L13.2599715,15.0438899 C13.3144719,15.3825292 13.2600609,15.6252342 12.9961594,15.8275071 C12.8468375,15.941729 12.6691926,16 12.4915298,16 C12.355082,16 12.2181873,15.9656796 12.0924679,15.8961418 L8.36677026,13.7833291 C8.1371461,13.6563135 7.86282014,13.6563135 7.63319597,13.7833291 L4.06390092,15.8961607 C3.77468033,16.05644 3.42454013,16.0293474 3.15976248,15.8275259 C2.89586098,15.625253 2.68506521,15.3829995 2.74044179,15.0439087 L3.59394204,10.6815782 C3.63780344,10.4125143 3.55303096,10.1379754 3.36725031,9.9474238 L0.259760537,7.37554115 C0.0250403671,7.13579001 -0.0586413877,6.77683122 0.041776718,6.44995087 C0.143035217,6.12305171 0.41124597,5.88510676 0.73477966,5.8354369 L4.77676934,5.08905321 C5.03342915,5.04976887 5.25529309,4.88017641 5.37012305,4.63549592 L7.23100501,0.503434111 C7.37519511,0.195067078 7.67342759,0 8.00039438,0 C8.32736116,0 8.62473536,0.195048263 8.76978374,0.503434111 L10.5576766,4.63540185 C10.6724887,4.8801576 10.8943884,5.04982531 11.1511018,5.08909084 L15.2660091,5.8354369 C15.5887024,5.88465521 15.8577535,6.12305171 15.9581716,6.44995087 C16.0590189,6.77683122 15.9740497,7.1357712 15.7406348,7.37552233 L12.7899411,10.0361334 Z" />
</svg>