<svg viewBox="0 0 30 16" fill="none" xmlns="http://www.w3.org/2000/svg">
  <path
    d="M6.57666 2.75586C6.45668 3.1518 6.33657 3.53598 6.20459 3.91992H12.3481V4.75977H5.88037C5.43639 5.79173 4.88381 6.73954 4.23584 7.60352V13.7119H3.396V8.63574C2.988 9.07974 2.56781 9.5002 2.11182 9.9082L1.57275 9.22363C3.03653 7.93972 4.15221 6.45159 4.93213 4.75977H2.01611V3.91992H5.28076C5.43669 3.50009 5.58072 3.08025 5.70068 2.64844L6.57666 2.75586Z"
    fill="currentColor" />
  <path
    d="M11.7124 7.02832C11.0644 7.62829 10.3321 8.20417 9.51611 8.74414V9.5H12.5161V10.3281H9.51611V12.5957C9.51611 13.3036 9.15644 13.6639 8.44873 13.6641H6.94873L6.72021 12.8477C7.15216 12.8597 7.60817 12.8721 8.1001 12.8721C8.45999 12.8721 8.65174 12.6801 8.65186 12.3203V10.3281H5.17236V9.5H8.65186V8.38379C9.33572 7.99987 9.98403 7.55618 10.6079 7.02832H6.09619V6.22363H11.7124V7.02832Z"
    fill="currentColor" />
  <path fill-rule="evenodd" clip-rule="evenodd"
    d="M23.2808 10.7842H19.5122V11.4561H23.5806V12.0322H19.5122V12.7402H24.4565V13.4121H13.728V12.7402H18.6479V12.0322H14.6284V11.4561H18.6479V10.7842H14.9282V7.72363H23.2808V10.7842ZM15.7563 10.2441H18.6479V9.51172H15.7563V10.2441ZM19.5122 10.2441H22.4526V9.51172H19.5122V10.2441ZM15.7563 9.00781H18.6479V8.26367H15.7563V9.00781ZM19.5122 9.00781H22.4526V8.26367H19.5122V9.00781Z"
    fill="currentColor" />
  <path
    d="M27.0845 11.0723C27.3004 11.0723 27.4679 11.1324 27.6118 11.2764C27.7438 11.4084 27.8159 11.5763 27.8159 11.7803C27.8159 11.9961 27.7438 12.164 27.6118 12.2959C27.4679 12.4277 27.2883 12.5 27.0845 12.5C26.8805 12.5 26.7126 12.4278 26.5806 12.2959C26.4366 12.152 26.3648 11.9842 26.3647 11.7803C26.3647 11.5763 26.4366 11.4084 26.5806 11.2764C26.7126 11.1324 26.8805 11.0723 27.0845 11.0723Z"
    fill="currentColor" />
  <path d="M27.4683 10.1963H26.7241L26.5327 3.93164H27.6479L27.4683 10.1963Z" fill="currentColor" />
  <path d="M24.4683 7.12402H13.7163V6.47559H24.4683V7.12402Z" fill="currentColor" />
  <path fill-rule="evenodd" clip-rule="evenodd"
    d="M23.0278 5.85156H15.1919V2.8877H23.0278V5.85156ZM16.0327 5.33594H22.188V4.62793H16.0327V5.33594ZM16.0327 4.1123H22.188V3.41602H16.0327V4.1123Z"
    fill="currentColor" />
  <path
    d="M28 15V16H2V15H28ZM29 14V2C29 1.44772 28.5523 1 28 1H2C1.44772 1 1 1.44772 1 2V14C1 14.5523 1.44772 15 2 15V16L1.7959 15.9893C0.787223 15.887 0 15.0357 0 14V2C0 0.895431 0.895431 5.63724e-08 2 0H28C29.1046 0 30 0.895431 30 2V14C30 15.0357 29.2128 15.887 28.2041 15.9893L28 16V15C28.5523 15 29 14.5523 29 14Z"
    fill="currentColor" fill-opacity="0.5" />
</svg>