<svg xmlns="http://www.w3.org/2000/svg" viewBox="0 0 16 16">
  <path
    d="M9.06645824,0.310537045 C11.5312071,1.0716334 13.3955693,3.13803762 13.8785441,5.70496253 C14.3401971,8.15856603 13.4587652,10.5981391 11.6941886,12.1943706 L13.092691,12.1935484 C13.5556469,12.1935484 13.937208,12.5422298 13.9893547,12.991439 L13.9954281,13.0967742 C13.9954281,13.5599808 13.6469353,13.9417484 13.1979692,13.9939233 L13.092691,14 L8.1276373,14 L8.1276373,9.03225806 C8.1276373,8.53342023 8.53180644,8.12903226 9.03037434,8.12903226 C9.49333025,8.12903226 9.87489131,8.47771372 9.92703801,8.92692285 L9.93311139,9.03225806 L9.93324322,11.2876779 C11.6033342,10.145967 12.4918447,8.09923165 12.1042369,6.03916543 C11.7458841,4.13458365 10.3624886,2.60126882 8.53402327,2.03665216 C8.05762767,1.8895447 7.79062237,1.38388651 7.93765022,0.90723298 C8.08467808,0.430579454 8.59006264,0.163429584 9.06645824,0.310537045 Z M5.87079469,0 L5.87079469,4.96774194 C5.87079469,5.46657977 5.46662555,5.87096774 4.96805765,5.87096774 C4.50510174,5.87096774 4.12354068,5.52228628 4.07139398,5.07307715 L4.0653206,4.96774194 L4.06492203,2.71368663 C2.37202497,3.87186081 1.48946949,5.95468245 1.90932549,8.0302541 C2.28895219,9.90695092 3.66484274,11.4097057 5.47253361,11.9653151 C5.94912128,12.1117984 6.21678798,12.6171064 6.07038392,13.0939521 C5.92397986,13.5707978 5.41894528,13.8386095 4.94235761,13.6921261 C2.5056399,12.94318 0.651378826,10.9179464 0.13973188,8.3886032 C-0.361372756,5.91137627 0.514004426,3.42648704 2.30534897,1.80607226 L0.905740952,1.80645161 C0.442785043,1.80645161 0.061223984,1.45777015 0.00907728118,1.00856102 L0.0030039089,0.903225806 C0.0030039089,0.440019242 0.351496689,0.0582515968 0.800462742,0.00607666055 L0.905740952,0 L5.87079469,0 Z">
  </path>
</svg>