<svg viewBox="0 0 17 17" fill="none" xmlns="http://www.w3.org/2000/svg">
  <path
    d="M2.02854 16.4717C1.79933 16.0971 1.53098 15.6862 1.22351 15.239C2.88947 14.6184 4.20883 13.928 5.18158 13.1677C6.15432 12.4074 6.86991 11.4989 7.32833 10.4423H2.86711V5.97273L1.91952 6.72744C1.72386 6.45351 1.4639 6.1069 1.13965 5.68761C2.25216 4.84904 3.19975 4.00487 3.98242 3.15512C4.73154 2.3445 5.4052 1.45002 6.00338 0.47168L7.3451 0.773566C7.32274 0.8127 7.2836 0.8714 7.2277 0.949667C6.89786 1.46399 6.64629 1.83856 6.47298 2.07336H12.67V3.14673L10.7665 5.14254H14.5904V10.4423H8.67005C8.21163 11.784 7.45691 12.9273 6.4059 13.8721C5.37165 14.8057 3.91253 15.6722 2.02854 16.4717ZM10.8336 15.9769C10.1068 15.9769 9.5785 15.8176 9.24866 15.4989C8.92441 15.1803 8.76229 14.6771 8.76229 13.9895V11.0629H10.0034V13.7044C10.0034 14.1069 10.0928 14.392 10.2717 14.5597C10.4618 14.7274 10.8028 14.8113 11.2948 14.8113H13.5757C13.995 14.8113 14.3109 14.7274 14.5233 14.5597C14.7413 14.392 14.8867 14.1181 14.9594 13.7379C15.0768 13 15.1578 12.3124 15.2025 11.675C15.6721 11.8483 16.083 11.9797 16.4352 12.0692C16.357 12.7736 16.2424 13.5115 16.0914 14.283C15.9573 14.8812 15.7141 15.3117 15.3619 15.5744C15.0097 15.8427 14.5065 15.9769 13.8524 15.9769H10.8336ZM4.08304 9.31864H7.73084L7.8734 8.77357C8.01316 8.06916 8.111 7.23338 8.1669 6.26623H4.08304V9.31864ZM9.02225 9.31864H13.3493V6.26623H9.42476C9.38004 7.13276 9.28221 7.9909 9.13126 8.84065L9.02225 9.31864ZM3.77277 5.14254H9.16481L11.0432 3.1635H5.65118C4.92441 4.01326 4.29828 4.67294 3.77277 5.14254Z"
    fill="currentColor" />
</svg>