<svg width="16" height="16" viewBox="0 0 16 16" fill="none" xmlns="http://www.w3.org/2000/svg">
  <path fill-rule="evenodd" clip-rule="evenodd"
    d="M7.18994 2.66602C6.99796 2.97799 6.79459 3.27843 6.57861 3.56641H10.7183V4.22656C10.2143 4.85048 9.72193 5.37859 9.22998 5.81055H12.1704V9.44629H9.43408V11.8945C9.43418 12.2901 9.60211 12.494 9.94971 12.4941H11.8823C12.0981 12.4941 12.2424 12.4104 12.3384 12.2666C12.4584 12.0746 12.5299 11.5338 12.5659 10.6338L13.394 10.8984C13.31 12.0502 13.1657 12.7578 12.9497 13.0098C12.7578 13.2257 12.4583 13.3339 12.0386 13.334H9.68604C8.94212 13.3339 8.56984 12.9141 8.56982 12.0742V9.44629H7.9458C7.86182 9.67421 7.76638 9.89051 7.67041 10.1064C7.02238 11.4984 5.52178 12.6381 3.19385 13.5381L2.64209 12.8545C4.73009 12.0865 6.12243 11.1139 6.79443 9.96191C6.87834 9.79406 6.95004 9.61414 7.02197 9.44629H4.09424V6.0625C3.78227 6.29047 3.46968 6.50598 3.15771 6.70996L2.60596 6.0498C4.11793 5.13781 5.35369 3.94989 6.32568 2.46191L7.18994 2.66602ZM4.93408 8.62988H7.28662C7.44256 8.01801 7.53801 7.34607 7.56201 6.61426H4.93408V8.62988ZM8.42627 6.61426C8.40227 7.34613 8.32999 8.01797 8.18604 8.62988H11.3423V6.61426H8.42627ZM5.94189 4.3584C5.47396 4.8863 4.97037 5.36662 4.41846 5.81055H8.12646C8.63045 5.39056 9.11034 4.91038 9.59033 4.3584H5.94189Z"
    fill="currentColor" />
  <path
    d="M14 15V16H2V15H14ZM15 14V2C15 1.44772 14.5523 1 14 1H2C1.44772 1 1 1.44772 1 2V14C1 14.5523 1.44772 15 2 15V16C0.895431 16 0 15.1046 0 14V2C0 0.895431 0.895431 0 2 0H14C15.1046 0 16 0.895431 16 2V14C16 15.1046 15.1046 16 14 16V15C14.5523 15 15 14.5523 15 14Z"
    fill="currentColor" fill-opacity="0.5" />
</svg>