<?xml version="1.0" encoding="UTF-8"?>
<svg width="38px" height="17px" viewBox="0 0 38 17" version="1.1" xmlns="http://www.w3.org/2000/svg"
  xmlns:xlink="http://www.w3.org/1999/xlink">
  <g stroke="none" stroke-width="1" fill="none" fill-rule="evenodd">
    <g transform="translate(-665.000000, -166.000000)" fill="currentColor" fill-rule="nonzero">
      <g transform="translate(0.000000, 0.000000)">
        <g transform="translate(632.000000, 116.000000)">
          <g transform="translate(-3.000000, 31.000000)">
            <g transform="translate(36.000000, 19.000000)">
              <path
                d="M15.7873817,16.8933054 L17.5495268,15.417364 L17.5675079,15.2395397 C16.5605678,14.1903766 15.6974763,13.3723849 14.7264984,12.6077406 C15.4817035,11.8075314 16.1649842,10.9539749 16.7943218,10.0115063 L16.7943218,9.81589958 L14.8164038,8.71338912 L14.6545741,8.73117155 C12.9104101,11.8253138 10.0154574,13.9058577 6.00567823,15.3462343 L7.42618297,16.8399582 C7.5340694,16.9644351 7.62397476,17 7.69589905,17 C7.76782334,17 7.83974763,16.9822176 7.94763407,16.9466527 C9.87160883,16.2887029 11.5618297,15.3462343 13.0362776,14.1548117 C13.9533123,15.0083682 14.7444795,15.8263598 15.607571,16.8933054 L15.7873817,16.8933054 Z M2.60725552,5.49476987 C1.92397476,7.82426778 1.00694006,9.56694561 0,10.9895397 L1.09684543,12.7677824 C1.16876972,12.8922594 1.27665615,12.9633891 1.36656151,12.9633891 C1.4384858,12.9633891 1.52839117,12.9100418 1.58233438,12.8033473 C2.10378549,11.8964435 2.48138801,11.0606695 2.76908517,10.1715481 L2.64321767,16.9822176 L5.19652997,16.9822176 L5.07066246,10.3849372 L5.07066246,9.10460251 C5.44826498,9.58472803 5.82586751,10.1359833 6.0955836,10.5983264 L6.2214511,10.6516736 L7.80378549,9.42468619 L7.85772871,9.30020921 C7.35425868,8.53556485 6.59905363,7.7709205 5.98769716,7.18410042 L5.80788644,7.18410042 L5.07066246,7.73535565 L5.07066246,5.49476987 L6.79684543,5.54811715 L6.88675079,5.45920502 L6.88675079,4.44560669 L9.22429022,4.39225941 L10.2492114,4.39225941 C9.90757098,5.06799163 9.51198738,5.708159 9.08044164,6.34832636 C8.88264984,6.18828452 8.68485804,6.0460251 8.46908517,5.88598326 L8.23533123,5.92154812 L6.99463722,7.37970711 L7.03059937,7.52196653 C7.91167192,8.19769874 8.86466877,8.98012552 9.74574132,9.88702929 C8.61293375,10.8117155 7.35425868,11.5763598 6.05962145,12.1276151 L7.55205047,13.6569038 C7.65993691,13.7635983 7.7318612,13.7991632 7.80378549,13.7991632 C7.89369085,13.7991632 7.96561514,13.7635983 8.07350158,13.710251 C11.0763407,12.1631799 13.3599369,10.0470711 15.373817,6.65062762 L15.373817,6.45502092 L13.377918,5.44142259 L13.2160883,5.45920502 C12.7305994,6.5083682 12.1012618,7.48640167 11.3280757,8.33995816 C11.148265,8.16213389 10.9684543,7.98430962 10.7706625,7.80648536 C11.4359621,6.9707113 11.9394322,6.18828452 12.6047319,5.05020921 L12.6047319,4.83682008 L11.6697161,4.39225941 L15.0321767,4.39225941 L17.4776025,4.44560669 L17.585489,4.35669456 L17.585489,2.38284519 L17.4776025,2.29393305 L15.0321767,2.34728033 L13.3239748,2.34728033 L13.3239748,0.124476987 L13.1981073,0 L10.89653,0 L10.7706625,0.124476987 L10.7706625,2.34728033 L9.22429022,2.34728033 L6.77886435,2.29393305 L6.67097792,2.40062762 L6.67097792,3.39644351 L5.07066246,3.44979079 L5.07066246,0.124476987 L4.96277603,0.0177824268 L2.84100946,0.0177824268 L2.7511041,0.124476987 L2.7511041,3.44979079 L2.51735016,3.44979079 L0.449526814,3.39644351 L0.341640379,3.50313808 L0.341640379,5.44142259 L0.467507886,5.54811715 L2.51735016,5.49476987 L2.60725552,5.49476987 Z M28.2362776,5.05020921 L28.092429,4.89016736 L25.7548896,4.89016736 L25.6290221,5.03242678 L25.6290221,10.8472803 L25.5930599,14.4215481 C25.5930599,15.915272 26.114511,16.3420502 29.584858,16.3420502 C32.2820189,16.3420502 32.9832808,16.1108787 33.5946372,15.5774059 C34.0981073,15.1506276 34.3858044,14.3682008 34.5835962,12.6788703 C34.6015773,12.4654812 34.5835962,12.4121339 34.3858044,12.3232218 L32.1201893,11.416318 C32.0123028,12.8566946 31.8684543,13.3723849 31.544795,13.6391213 C31.1851735,13.9236402 30.7356467,13.9769874 29.4949527,13.9769874 C28.3621451,13.9769874 28.2362776,13.8525105 28.2362776,13.3368201 L28.2362776,5.05020921 Z M27.1753943,1.76046025 L27.1753943,1.93828452 C28.1643533,2.7207113 29.1712934,3.53870293 30.070347,4.69456067 L30.2321767,4.7123431 L32.0842271,3.11192469 L32.1201893,2.93410042 C31.1851735,1.90271967 30.1602524,1.08472803 29.0993691,0.373430962 L28.9195584,0.408995816 L27.1753943,1.76046025 Z M22.6082019,6.81066946 L22.4463722,6.89958159 C22.1047319,9.06903766 21.4214511,11.167364 20.6662461,12.6610879 L20.7022082,12.8389121 L22.8599369,13.7991632 L23.0397476,13.7458159 C23.866877,11.8608787 24.3883281,9.94037657 24.8018927,7.7709205 L24.7299685,7.57531381 L22.6082019,6.81066946 Z M32.5337539,6.57949791 L32.4977918,6.75732218 C33.8463722,8.55334728 34.7634069,10.207113 35.6804416,12.1987448 L35.8602524,12.2343096 L37.9460568,10.9361925 L38,10.7583682 C37.1189274,8.85564854 36.0760252,7.21966527 34.5835962,5.40585774 L34.3858044,5.38807531 L32.5337539,6.57949791 Z"
                id="形状结合"></path>
            </g>
          </g>
        </g>
      </g>
    </g>
  </g>
</svg>