<?xml version="1.0" encoding="UTF-8"?>
<svg width="38px" height="17px" viewBox="0 0 38 17" version="1.1" xmlns="http://www.w3.org/2000/svg"
  xmlns:xlink="http://www.w3.org/1999/xlink">
  <title>重要</title>
  <g stroke="none" stroke-width="1" fill="none" fill-rule="evenodd">
    <g transform="translate(-704.000000, -147.000000)" fill="currentColor" fill-rule="nonzero">
      <g transform="translate(0.000000, 0.000000)">
        <g transform="translate(632.000000, 116.000000)">
          <g transform="translate(-3.000000, 31.000000)">
            <g transform="translate(75.000000, 0.000000)">
              <path
                d="M9.61327219,5.46555324 L9.61327219,4.84446764 L14.3553278,4.84446764 L16.6064203,4.89770355 L16.6986782,4.79123173 L16.6986782,3.10542797 L16.5510656,2.99895616 L14.3553278,3.05219207 L9.61327219,3.05219207 L9.61327219,2.18267223 C11.6613974,2.05845511 13.6726194,1.89874739 15.2779067,1.73903967 L15.3332614,1.56158664 C14.6321014,0.869519833 14.0970057,0.567849687 13.3220394,0.0177453027 L13.1375236,0 C9.90849744,0.532359081 5.25869976,0.834029228 0.86722417,0.798538622 L1.95586728,2.37787056 C2.01122201,2.46659708 2.14038306,2.51983299 2.38025357,2.51983299 C3.69031562,2.48434238 5.33250607,2.43110647 7.06695441,2.34237996 L7.06695441,3.05219207 L2.76773671,3.05219207 L0.332128406,2.99895616 L0.221418937,3.12317328 L0.221418937,4.80897704 L0.350579984,4.89770355 L2.76773671,4.84446764 L7.06695441,4.84446764 L7.06695441,5.46555324 L4.90811977,5.46555324 L2.23264095,5.43006263 L2.1034799,5.51878914 L2.15883464,7.25782881 L2.15883464,9.38726514 L2.1034799,11.6231733 L2.23264095,11.7296451 L4.81586188,11.6764092 L7.06695441,11.6764092 L7.06695441,12.2797495 L3.76412193,12.2797495 L1.69754518,12.2265136 L1.58683572,12.3507307 L1.58683572,13.9655532 L1.71599676,14.0542797 L3.76412193,14.0010438 L7.06695441,14.0010438 L7.06695441,14.6221294 L2.71238198,14.6221294 L0.147612625,14.5688935 L0,14.6753653 L0,16.4321503 L0.129161047,16.5741127 L2.71238198,16.5208768 L14.1154572,16.5208768 L16.7171298,16.5741127 L16.8462908,16.4498956 L16.8462908,14.6931106 L16.7171298,14.5688935 L14.1154572,14.6221294 L9.61327219,14.6221294 L9.61327219,14.0010438 L13.1559752,14.0010438 L15.2225519,14.0542797 L15.3148098,13.9478079 L15.3148098,12.3329854 L15.1671972,12.2265136 L13.1559752,12.2797495 L9.61327219,12.2797495 L9.61327219,11.6764092 L12.3072026,11.6764092 L14.650553,11.7296451 L14.8166172,11.6231733 L14.7612625,9.31628392 L14.7612625,7.32881002 L14.8166172,5.55427975 L14.6690046,5.43006263 L12.1226868,5.46555324 L9.61327219,5.46555324 Z M9.61327219,7.02713987 L12.2333963,7.02713987 L12.2333963,7.80793319 L9.61327219,7.80793319 L9.61327219,7.02713987 Z M7.06695441,7.02713987 L7.06695441,7.80793319 L4.57599137,7.80793319 L4.57599137,7.02713987 L7.06695441,7.02713987 Z M7.06695441,9.31628392 L7.06695441,10.0793319 L4.57599137,10.0793319 L4.57599137,9.31628392 L7.06695441,9.31628392 Z M9.61327219,9.31628392 L12.2333963,9.31628392 L12.2333963,10.0793319 L9.61327219,10.0793319 L9.61327219,9.31628392 Z M34.8632317,11.6941545 L37.8892905,11.7473904 L38,11.6586639 L38,9.75991649 L37.8892905,9.67118998 L34.8632317,9.72442589 L28.9956299,9.72442589 C29.1432425,9.47599165 29.2908551,9.20981211 29.4200162,8.96137787 L29.3462099,8.81941545 L28.5712436,8.55323591 L33.2948476,8.55323591 L36.0994875,8.60647182 L36.2471001,8.4822547 L36.1917453,6.565762 L36.1917453,5.39457203 L36.2471001,3.85073069 L36.0994875,3.70876827 L33.2948476,3.76200418 L32.2062045,3.76200418 L32.2062045,2.75052192 L34.457297,2.75052192 L37.5756137,2.80375783 L37.6863232,2.71503132 L37.6863232,0.816283925 L37.5756137,0.727557411 L34.457297,0.780793319 L23.9768006,0.780793319 L20.8584839,0.727557411 L20.7477745,0.834029228 L20.7477745,2.69728601 L20.8769355,2.80375783 L23.9768006,2.75052192 L25.9880227,2.75052192 L25.9880227,3.76200418 L25.0654438,3.76200418 L22.2423523,3.70876827 L22.1131913,3.81524008 L22.168546,5.39457203 L22.168546,6.565762 L22.1131913,8.4822547 L22.2423523,8.60647182 L25.0654438,8.55323591 L26.6153763,8.55323591 C26.3939574,8.94363257 26.19099,9.33402923 25.9511195,9.72442589 L23.5708659,9.72442589 L20.5448071,9.67118998 L20.4340977,9.7776618 L20.4340977,11.6409186 L20.5632587,11.7473904 L23.5708659,11.6941545 L24.6779606,11.6941545 C24.2535743,12.2974948 23.7922849,12.9185804 23.2940923,13.5574113 L23.349447,13.7348643 L25.6743458,14.4269311 L25.8588616,14.3559499 C25.9695711,14.2317328 26.061829,14.0897704 26.1725384,13.9478079 C26.7998921,14.0720251 27.4272458,14.1962422 28.0361478,14.3382046 C26.4493121,14.8528184 24.2535743,14.9592902 21.2459671,14.9592902 L22.297707,16.6450939 C22.4637712,16.9112735 22.6298354,16.9645094 22.8881575,16.9645094 C26.3939574,16.9290188 29.2170488,16.5208768 31.2098193,15.2077244 C32.7043971,15.6868476 34.1436202,16.2724426 35.6197464,17 L35.8227138,16.9645094 L37.2619369,15.1012526 L37.2250337,14.9415449 C35.7673591,14.3382046 34.4019423,13.8590814 33.0180739,13.4686848 C33.3871055,12.9185804 33.7007823,12.3152401 33.9222012,11.6941545 L34.8632317,11.6941545 Z M31.0253035,11.6941545 C30.8407877,12.1022965 30.6378203,12.4749478 30.3425951,12.8298539 C29.3646615,12.6346555 28.3867278,12.4572025 27.3903426,12.2797495 C27.5379552,12.0845511 27.6671163,11.8893528 27.7962773,11.6941545 L31.0253035,11.6941545 Z M29.7152414,2.75052192 L29.7152414,3.76200418 L28.423631,3.76200418 L28.423631,2.75052192 L29.7152414,2.75052192 Z M32.2062045,6.81419624 L32.2062045,5.53653445 L33.5716213,5.53653445 L33.5716213,6.81419624 L32.2062045,6.81419624 Z M29.7152414,6.81419624 L28.423631,6.81419624 L28.423631,5.53653445 L29.7152414,5.53653445 L29.7152414,6.81419624 Z M25.9880227,5.53653445 L25.9880227,6.81419624 L24.7148638,6.81419624 L24.7148638,5.53653445 L25.9880227,5.53653445 Z"
                id="形状结合"></path>
            </g>
          </g>
        </g>
      </g>
    </g>
  </g>
</svg>