<?xml version="1.0" encoding="UTF-8"?>
<svg width="38px" height="17px" viewBox="0 0 38 17" version="1.1" xmlns="http://www.w3.org/2000/svg"
  xmlns:xlink="http://www.w3.org/1999/xlink">
  <title>次要</title>
  <g stroke="none" stroke-width="1" fill="none" fill-rule="evenodd">
    <g transform="translate(-703.000000, -165.000000)" fill="currentColor" fill-rule="nonzero">
      <g transform="translate(0.000000, 0.000000)">
        <g transform="translate(632.000000, 116.000000)">
          <g transform="translate(-3.000000, 31.000000)">
            <g transform="translate(74.000000, 18.000000)">
              <path
                d="M17.7250509,14.6018809 C14.2973523,13.1807732 12.5376782,11.2800418 11.4928717,8.01149425 C11.5112016,7.42528736 11.5295316,6.80355277 11.5295316,6.14629049 L11.3828921,6.02194357 L9.03665988,6.02194357 L8.90835031,6.16405434 L8.90835031,7.2476489 C8.90835031,8.33124347 8.78004073,9.29049112 8.54175153,10.1431557 C7.80855397,12.5945664 5.95723014,14.0512017 2.67617108,15.0282132 L4.19755601,16.8934169 C4.25254582,16.9644723 4.30753564,17 4.3808554,17 C4.45417515,17 4.54582485,16.9644723 4.65580448,16.9289446 C7.97352342,15.738767 9.75152749,14.0689655 10.6680244,11.6708464 C11.6395112,13.9090909 13.3625255,15.5788924 15.6354379,16.7335423 C15.7270876,16.7868339 15.8187373,16.8045977 15.892057,16.8045977 C15.9653768,16.8045977 16.0386965,16.76907 16.1303462,16.6624869 L17.7250509,14.6018809 Z M9.23828921,3.2507837 C9.53156823,2.48693835 9.78818737,1.68756531 10.0448065,0.799373041 L10.0081466,0.621734587 L7.73523422,0 L7.55193483,0.0888192268 C6.87372709,2.8599791 5.90224033,4.81400209 4.12423625,6.99895507 L6.15885947,8.08254963 C6.25050916,8.13584117 6.32382892,8.17136886 6.39714868,8.17136886 C6.48879837,8.17136886 6.56211813,8.11807732 6.65376782,7.99373041 C7.31364562,7.10553814 7.84521385,6.25287356 8.30346232,5.3646813 L14.114053,5.3646813 C13.8391039,6.02194357 13.2158859,7.0522466 12.7026477,7.90491118 L14.7189409,8.72204807 C14.7922607,8.75757576 14.8472505,8.7753396 14.9022403,8.7753396 C14.99389,8.7753396 15.0672098,8.72204807 15.1588595,8.5799373 C15.7270876,7.70950888 16.496945,6.19958203 17.1384929,4.70741902 C17.1751527,4.61859979 17.1934827,4.52978056 17.1934827,4.45872518 C17.1934827,4.31661442 17.1201629,4.21003135 16.9918534,4.10344828 L15.9837067,3.16196447 L14.8105906,3.2507837 L9.23828921,3.2507837 Z M5.02240326,3.42842215 L5.0407332,3.2507837 C4.0509165,2.36259143 3.31771894,1.79414838 2.43788187,1.24346917 L2.21792261,1.24346917 L0.531568228,2.78892372 L0.549898167,2.94879833 C1.33808554,3.49947753 2.21792261,4.26332288 3.07942974,5.11598746 L3.28105906,5.09822362 L5.02240326,3.42842215 Z M0,11.7596656 L1.15478615,13.7492163 L1.35641548,13.8025078 C3.44602851,12.8077325 4.65580448,12.0971787 6.14052953,11.0846395 C6.28716904,10.9780564 6.3604888,10.8892372 6.30549898,10.6938349 L5.64562118,8.66875653 C3.7209776,9.87669801 2.0712831,10.7648903 0.0733197556,11.5820272 L0,11.7596656 Z M34.8839104,11.6708464 L37.8900204,11.7241379 L38,11.6353187 L38,9.73458725 L37.8900204,9.64576803 L34.8839104,9.69905956 L29.0549898,9.69905956 C29.2016293,9.45036573 29.3482688,9.18390805 29.4765784,8.93521421 L29.4032587,8.79310345 L28.6334012,8.52664577 L33.3258656,8.52664577 L36.1120163,8.5799373 L36.2586558,8.45559039 L36.203666,6.53709509 L36.203666,5.3646813 L36.2586558,3.81922675 L36.1120163,3.67711599 L33.3258656,3.73040752 L32.2443992,3.73040752 L32.2443992,2.71786834 L34.4806517,2.71786834 L37.5784114,2.77115987 L37.688391,2.68234065 L37.688391,0.781609195 L37.5784114,0.692789969 L34.4806517,0.746081505 L24.0692464,0.746081505 L20.9714868,0.692789969 L20.8615071,0.799373041 L20.8615071,2.6645768 L20.9898167,2.77115987 L24.0692464,2.71786834 L26.0672098,2.71786834 L26.0672098,3.73040752 L25.1507128,3.73040752 L22.3462322,3.67711599 L22.2179226,3.78369906 L22.2729124,5.3646813 L22.2729124,6.53709509 L22.2179226,8.45559039 L22.3462322,8.5799373 L25.1507128,8.52664577 L26.6904277,8.52664577 C26.4704684,8.91745037 26.2688391,9.30825496 26.0305499,9.69905956 L23.6659878,9.69905956 L20.6598778,9.64576803 L20.5498982,9.7523511 L20.5498982,11.6175549 L20.6782077,11.7241379 L23.6659878,11.6708464 L24.7657841,11.6708464 C24.3441955,12.2748171 23.885947,12.8965517 23.3910387,13.5360502 L23.4460285,13.7136886 L25.7556008,14.4064786 L25.9389002,14.3354232 C26.0488798,14.2110763 26.1405295,14.0689655 26.2505092,13.9268548 C26.8737271,14.0512017 27.496945,14.1755486 28.101833,14.3176594 C26.5254582,14.8328109 24.3441955,14.9393939 21.3564155,14.9393939 L22.401222,16.6269592 C22.5661914,16.8934169 22.7311609,16.9467085 22.98778,16.9467085 C26.4704684,16.9111808 29.2749491,16.5026123 31.2545825,15.1880878 C32.7393075,15.6677116 34.1690428,16.2539185 35.6354379,16.9822362 L35.8370672,16.9467085 L37.2668024,15.0815047 L37.2301426,14.9216301 C35.7820774,14.3176594 34.4256619,13.8380355 33.0509165,13.4472309 C33.4175153,12.8965517 33.7291242,12.292581 33.9490835,11.6708464 L34.8839104,11.6708464 Z M31.0712831,11.6708464 C30.8879837,12.0794148 30.6863544,12.4524556 30.3930754,12.8077325 C29.4215886,12.6123302 28.4501018,12.4346917 27.4602851,12.2570533 C27.6069246,12.061651 27.7352342,11.8662487 27.8635438,11.6708464 L31.0712831,11.6708464 Z M29.7698574,2.71786834 L29.7698574,3.73040752 L28.4867617,3.73040752 L28.4867617,2.71786834 L29.7698574,2.71786834 Z M32.2443992,6.78578892 L32.2443992,5.50679206 L33.6008147,5.50679206 L33.6008147,6.78578892 L32.2443992,6.78578892 Z M29.7698574,6.78578892 L28.4867617,6.78578892 L28.4867617,5.50679206 L29.7698574,5.50679206 L29.7698574,6.78578892 Z M26.0672098,5.50679206 L26.0672098,6.78578892 L24.802444,6.78578892 L24.802444,5.50679206 L26.0672098,5.50679206 Z"
                id="形状结合"></path>
            </g>
          </g>
        </g>
      </g>
    </g>
  </g>
</svg>