<svg xmlns="http://www.w3.org/2000/svg" viewBox="0 0 23 10">
  <path transform="translate(-4 -3)"
    d="M7.95605469,12.5 L6.55566406,12.5 L6.55566406,5.13476562 L4.03613281,5.13476562 L4.03613281,3.93359375 L10.4755859,3.93359375 L10.4755859,5.13476562 L7.95605469,5.13476562 L7.95605469,12.5 Z M13.1884766,7.91796875 L14.1611328,7.91796875 C14.8134798,7.91796875 15.2861313,7.79687621 15.5791016,7.5546875 C15.8720718,7.31249879 16.0185547,6.95312738 16.0185547,6.4765625 C16.0185547,5.99218508 15.8603531,5.6445323 15.5439453,5.43359375 C15.2275375,5.2226552 14.7509797,5.1171875 14.1142578,5.1171875 L13.1884766,5.1171875 L13.1884766,7.91796875 Z M13.1884766,9.078125 L13.1884766,12.5 L11.7880859,12.5 L11.7880859,3.93359375 L14.2080078,3.93359375 C15.3134821,3.93359375 16.1318333,4.14062293 16.6630859,4.5546875 C17.1943386,4.96875207 17.4599609,5.59374582 17.4599609,6.4296875 C17.4599609,7.49609908 16.905279,8.25585711 15.7958984,8.70898438 L18.2158203,12.5 L16.6220703,12.5 L14.5712891,9.078125 L13.1884766,9.078125 Z M26.4248047,8.13476562 C26.4248047,9.5488352 26.0322305,10.6298791 25.2470703,11.3779297 C24.4619101,12.1259803 23.3310621,12.5 21.8544922,12.5 L19.4580078,12.5 L19.4580078,3.93359375 L22.1064453,3.93359375 C23.4697334,3.93359375 24.5302696,4.30077758 25.2880859,5.03515625 C26.0459022,5.76953492 26.4248047,6.80272771 26.4248047,8.13476562 Z M24.9482422,8.18164062 C24.9482422,6.13084912 23.9892674,5.10546875 22.0712891,5.10546875 L20.8583984,5.10546875 L20.8583984,11.3222656 L21.8544922,11.3222656 C23.9170025,11.3222656 24.9482422,10.2754011 24.9482422,8.18164062 Z" />
</svg>