<svg width="14" height="14" viewBox="0 0 14 14" fill="none" xmlns="http://www.w3.org/2000/svg">
  <path
    d="M4.68457 1.63269L2.88867 3.42859H9.56641C11.8073 3.42878 13.6237 5.24538 13.624 7.48621C13.624 9.72732 11.8075 11.5446 9.56641 11.5448H3.24902V10.2323H9.56641C11.0826 10.2321 12.3115 9.00245 12.3115 7.48621C12.3112 5.97025 11.0824 4.74128 9.56641 4.74109H2.88867L4.68457 6.53699L3.75684 7.46472L0.376953 4.08484L3.75684 0.704956L4.68457 1.63269Z"
    fill="black" />
  <path
    d="M4.68457 1.63269L2.88867 3.42859H9.56641C11.8073 3.42878 13.6237 5.24538 13.624 7.48621C13.624 9.72732 11.8075 11.5446 9.56641 11.5448H3.24902V10.2323H9.56641C11.0826 10.2321 12.3115 9.00245 12.3115 7.48621C12.3112 5.97025 11.0824 4.74128 9.56641 4.74109H2.88867L4.68457 6.53699L3.75684 7.46472L0.376953 4.08484L3.75684 0.704956L4.68457 1.63269Z"
    fill="currentColor" />
</svg>