<svg xmlns="http://www.w3.org/2000/svg" viewBox="0 0 16 16" width="16" height="16">
  <path
    d="M5.04854 10.1455L5.57282 9.86395L7.59223 10.9999V8.20375L7.18447 7.99987L5.16505 6.82511V9.12608L4.71845 9.3688L3.01942 8.39793L1 9.53385V11.8834L3.01942 13.0193L5.04854 11.8834V10.1455ZM11.233 9.37851L10.8252 9.13579V6.82511L8.39806 8.20375V10.9999L10.4175 9.86395L10.9417 10.1455V11.8834L12.9612 13.0193L14.9806 11.8834V9.53385L12.9612 8.39793L11.233 9.37851ZM11.233 2.09695V3.96103L13.3786 5.13579V7.24259L13.5825 7.35909L15 8.16492V4.15521L11.233 2.09695ZM10.0194 12.7377L8 13.8251L5.98058 12.7377L5.66019 12.9416L4.3301 13.6698L8.00971 15.6892L11.6893 13.6698L10.3495 12.9416L10.0194 12.7377ZM2.62136 7.23288V5.12608L4.76699 3.95132V2.09695L1 4.15521V8.15521L2.41748 7.34938L2.62136 7.23288ZM5.57282 6.13579L8 7.51443L8.40777 7.27171L10.4272 6.13579L8.40777 4.99987V4.71831L10.0291 3.78627V1.4853L8 0.310547L5.98058 1.4853V3.78627L7.60194 4.71831V4.99987L5.57282 6.13579Z" />
</svg>