<svg xmlns="http://www.w3.org/2000/svg" viewBox="0 0 16 16">
  <path
    d="M11.928754,5.9 L12,5.9 C13.1045695,5.9 14,6.7954305 14,7.9 L14,13.9 C14,15.0045695 13.1045695,15.9 12,15.9 L4,15.9 C2.8954305,15.9 2,15.0045695 2,13.9 L2,7.9 C2,6.7954305 2.8954305,5.9 4,5.9 L10.128754,5.9 L10.128754,3.9 C10.128754,2.74020203 9.18855195,1.8 8.02875397,1.8 C7.50066071,1.8 7.0180957,1.99492958 6.64908615,2.3167615 C6.09213516,2.6676294 5.65722148,2.65155029 5.34434509,2.26852417 C5.03146871,1.88549805 5.08335368,1.43959852 5.5,0.930825581 C6.18088898,0.350372729 7.06390451,3.71258579e-13 8.02875397,4.40536496e-13 C10.1826645,4.40536496e-13 11.928754,1.74608948 11.928754,3.9 L11.928754,5.9 Z M8,8.9 C7.44771525,8.9 7,9.34771525 7,9.9 L7,12.9 C7,13.4522847 7.44771525,13.9 8,13.9 C8.55228475,13.9 9,13.4522847 9,12.9 L9,9.9 C9,9.34771525 8.55228475,8.9 8,8.9 Z" />
</svg>