<svg width="14" height="14" viewBox="0 0 14 14" fill="none" xmlns="http://www.w3.org/2000/svg">
  <path
    d="M1.74996 3.50122H1.16663V2.91789V2.91561V2.33228H1.74996H1.75224H2.33557V2.91561V2.91789V3.50122H1.75224H1.74996ZM1.74996 7.58455H1.16663V7.00122V6.99894V6.41561H1.74996H1.75224H2.33557V6.99894V7.00122V7.58455H1.75224H1.74996ZM1.16663 11.6679H1.74996H1.75224H2.33557V11.0846V11.0823V10.4989H1.75224H1.74996H1.16663V11.0823V11.0846V11.6679ZM4.66663 2.33228H4.08329V3.49894H4.66663H12.25H12.8333V2.33228H12.25H4.66663ZM4.08329 6.41561H4.66663H12.25H12.8333V7.58228H12.25H4.66663H4.08329V6.41561ZM4.66663 10.4989H4.08329V11.6656H4.66663H12.25H12.8333V10.4989H12.25H4.66663Z"
    fill="currentColor" />
</svg>