<svg xmlns="http://www.w3.org/2000/svg" viewBox="0 0 24 24">
  <path transform="translate(3 3)"
    d="M9,0 C13.9705627,0 18,4.02943725 18,9 C18,13.9705627 13.9705627,18 9,18 C4.02943725,18 0,13.9705627 0,9 C0,4.02943725 4.02943725,0 9,0 Z M9,1.2 C4.69217895,1.2 1.2,4.69217895 1.2,9 C1.2,13.307821 4.69217895,16.8 9,16.8 C13.307821,16.8 16.8,13.307821 16.8,9 C16.8,4.69217895 13.307821,1.2 9,1.2 Z M9,9.9085439 C11.5073431,9.9085439 14.8125,11.4016913 14.8125,13.243582 C14.8125,15.0854727 3.1875,15.0854727 3.1875,13.243582 C3.1875,11.4016913 6.49265694,9.9085439 9,9.9085439 Z M9,3 C10.6050776,3 11.90625,4.41765271 11.90625,6.16641595 C11.90625,7.9151792 10.6050776,9.33283191 9,9.33283191 C7.39492245,9.33283191 6.09375,7.9151792 6.09375,6.16641595 C6.09375,4.41765271 7.39492245,3 9,3 Z" />
</svg>