<svg xmlns="http://www.w3.org/2000/svg" viewBox="0 0 16 16" width="16" height="16">
  <path
    d="M9.00688171,4.43933983 L12.2784747,8.62132034 C12.5738418,8.91421356 12.5738418,9.3890873 12.2784747,9.68198052 C12.1289783,9.83022486 11.9217087,9.90343713 11.7257767,9.90161733 L10.5581818,9.90187332 C10.4842261,9.90192835 10.4076765,9.90198712 10.3288057,9.90204919 L9.28840011,9.9029239 C9.11627485,9.90307437 8.93994328,9.90323007 8.76113079,9.90338821 L8.75795033,14.1179352 C8.75795033,14.6050862 8.41932778,15 8.00161571,15 C7.58390363,15 7.24528108,14.6050862 7.24528108,14.1179352 L7.24161717,9.90471014 C7.04947003,9.90487094 6.86001379,9.90502557 6.67537532,9.90517059 L5.6342535,9.90590266 C5.55530463,9.90594918 5.47867233,9.90599149 5.40462939,9.90602915 L4.41043483,9.90610933 C4.37728539,9.90607528 4.34836216,9.90603394 4.32393794,9.90598485 L4.23356334,9.90559387 C4.04394089,9.90268667 3.85545603,9.8254598 3.71076489,9.68198052 C3.41539785,9.3890873 3.41539785,8.91421356 3.71076489,8.62132034 L6.99911499,4.43933983 C7.58984908,3.85355339 8.41614763,3.85355339 9.00688171,4.43933983 Z M12.2561983,1 C12.6669887,1 13,1.33578644 13,1.75 C13,2.12969577 12.720178,2.44349096 12.3571278,2.49315338 L12.2561983,2.5 L3.74380165,2.5 C3.33301134,2.5 3,2.16421356 3,1.75 C3,1.37030423 3.27982203,1.05650904 3.64287217,1.00684662 L3.74380165,1 L12.2561983,1 Z">
  </path>
</svg>