<svg xmlns="http://www.w3.org/2000/svg" width="36" height="20" viewBox="0 0 36 20">
  <g fill="none" fill-rule="evenodd">
    <rect width="36" height="20" fill="#D3BB99" rx="2"/>
    <path fill="#151B24" fill-rule="nonzero" d="M4 17L32 17 32 18 4 18 4 17zM4 2L32 2 32 3 4 3 4 2zM18.9465849 6L18.9465849 14 16.9347148 14 16.9347148 6 18.9465849 6zM24.982195 6C26.6488826 6 27.9999999 7.34314578 27.9999999 9 27.9999999 10.6568542 26.6488826 12 24.982195 12L22.9703249 12 22.9703249 14 20.9584549 14 20.9584549 6 24.982195 6zM10.1376119 6L12.009657 11.113 13.881702 6 16.019314 6 13.015592 13.964 11.003722 13.964 8 6 10.1376119 6zM24.982195 8L22.9703249 8 22.9703249 10 24.982195 10C25.5377575 10 25.98813 9.55228475 25.98813 9 25.98813 8.44771525 25.5377575 8 24.982195 8z"/>
  </g>
</svg>
