<svg xmlns="http://www.w3.org/2000/svg" viewBox="0 0 16 16">
  <g stroke="none" strokeWidth="1" fill="none" fillRule="evenodd">
    <g>
      <rect x="0" y="0" width="16" height="16"></rect>
      <path
        d="M4.75717694,3.1970345 C4.75717694,3.1970345 9.39594937,7.29816557 9.41529418,10.9101796 C9.43482865,14.5220036 6.72010652,16 4.75717694,16 C3.16540225,16 -0.0767505264,14.7079175 0.00138734691,11.1156734 C0.0795252202,7.52342933 4.75717694,3.1970345 4.75717694,3.1970345 Z M8.24341574,10.2638532 C8.14593305,9.96046003 7.8821229,9.79412603 7.65757134,9.88214048 C7.51115766,9.94088014 7.41348532,10.0878244 7.39395085,10.2737382 C7.19860616,11.70288 6.44662396,12.9067579 5.31381445,13.3766752 C5.07959049,13.4648798 4.98191815,13.7878529 5.07959049,14.0912461 C5.17707318,14.3946393 5.44088333,14.5609733 5.66543488,14.4729588 C7.08139936,13.8954472 8.01886418,12.3978709 8.27262261,10.6162912 C8.29215708,10.5085068 8.28248467,10.3813326 8.24341574,10.2638532 Z M12.7187055,0 C12.7187055,0 12.849173,0.115502329 13.0580776,0.320664576 L13.2551342,0.517872723 C14.181768,1.46236693 15.9854253,3.54193925 15.9999638,5.43237335 C16.0095997,7.97737858 14.0956011,9.01492254 12.7187055,9.01492254 C11.5957581,9.01492254 9.3106046,8.1045528 9.36920801,5.57931756 C9.42781141,3.04400722 12.7187055,0 12.7187055,0 Z M14.7499109,4.6982226 C14.6425662,4.73738238 14.5839628,4.84497671 14.5644283,4.97234103 C14.427687,5.98061021 13.900446,6.82235529 13.0995328,7.15502329 C12.9432571,7.22345785 12.8749813,7.4487216 12.9432571,7.66410037 C13.0115329,7.87947914 13.1972052,8.00665336 13.3534809,7.9382188 C14.3495492,7.52704116 15.0135314,6.4798023 15.1796692,5.21718468 C15.1893416,5.14856002 15.1893416,5.06054558 15.1601348,4.97234103 C15.091859,4.75696227 14.9061867,4.62978804 14.7499109,4.6982226 Z"
        fill="currentColor" fillRule="nonzero"></path>
    </g>
  </g>
</svg>