<svg width="14" height="14" viewBox="0 0 14 14" xmlns="http://www.w3.org/2000/svg">
  <path
    d="M3.56775 3.73328C3.44049 3.73328 3.31609 3.77101 3.21028 3.84171C3.10447 3.91242 3.02199 4.01291 2.97329 4.13048C2.9246 4.24805 2.91185 4.37742 2.93668 4.50224C2.96151 4.62705 3.02279 4.7417 3.11277 4.83168C3.20276 4.92167 3.31741 4.98295 3.44222 5.00778C3.56704 5.03261 3.69641 5.01986 3.81398 4.97116C3.93155 4.92246 4.03204 4.83999 4.10274 4.73418C4.17345 4.62837 4.21118 4.50397 4.21118 4.37671C4.21118 4.20606 4.14339 4.0424 4.02272 3.92173C3.90206 3.80107 3.7384 3.73328 3.56775 3.73328ZM6.89343 5.01929C7.02073 5.01929 7.14516 4.98153 7.25099 4.91079C7.35682 4.84005 7.43929 4.73951 7.48797 4.62189C7.53664 4.50427 7.54934 4.37485 7.52444 4.25001C7.49954 4.12518 7.43818 4.01053 7.3481 3.92058C7.25803 3.83063 7.14331 3.76941 7.01844 3.74468C6.89357 3.71995 6.76417 3.73282 6.64661 3.78165C6.52905 3.83048 6.42862 3.91308 6.35802 4.019C6.28742 4.12493 6.24983 4.24941 6.25 4.37671C6.25 4.46117 6.26665 4.54479 6.299 4.62281C6.33134 4.70083 6.37875 4.7717 6.43851 4.83138C6.49827 4.89106 6.56921 4.93838 6.64727 4.97062C6.72533 5.00286 6.80898 5.0194 6.89343 5.01929Z" />
  <path
    d="M14 8.28015C14 6.41992 12.3927 4.86902 10.277 4.5426C9.71216 2.60889 7.63831 1.23572 5.2124 1.23572C2.33618 1.23572 0 3.18481 0 5.58081C0 6.76086 0.57251 7.88196 1.58081 8.698L1.28943 9.68067C1.25624 9.79266 1.24961 9.91085 1.27004 10.0259C1.29048 10.1409 1.33743 10.2495 1.40717 10.3432C1.47692 10.4369 1.56753 10.5131 1.67183 10.5657C1.77613 10.6183 1.89125 10.6459 2.00806 10.6462C2.14679 10.646 2.28279 10.6076 2.40112 10.5352L3.69312 9.74048C4.18876 9.8651 4.69791 9.92795 5.20898 9.92761H5.34058C6.07629 11.2025 7.63916 12.0844 9.44214 12.0844C9.87868 12.0849 10.3137 12.0324 10.7375 11.928L11.8364 12.5996C11.9586 12.6771 12.1017 12.7151 12.2463 12.7086C12.3908 12.702 12.5299 12.6512 12.6446 12.5629C12.7593 12.4747 12.8441 12.3534 12.8876 12.2154C12.931 12.0773 12.931 11.9293 12.8875 11.7913L12.6473 10.9829C13.5112 10.2737 14 9.30212 14 8.28015ZM4.99365 9.06799C4.57191 9.05157 4.15366 8.98473 3.7478 8.8689C3.69075 8.85241 3.63089 8.848 3.57204 8.85595C3.51319 8.86389 3.45664 8.88402 3.40601 8.91504L2.18066 9.66528L2.47974 8.65784C2.5049 8.57247 2.50279 8.48138 2.47368 8.39728C2.44457 8.31318 2.38993 8.24027 2.31738 8.18872C1.38599 7.52393 0.85022 6.57373 0.85022 5.58081C0.85022 3.65649 2.80701 2.09021 5.2124 2.09021C7.12476 2.09021 8.77051 3.06689 9.35156 4.48279H9.1687L9.05078 4.49048L8.9397 4.49988L8.82349 4.51184L8.71411 4.52551L8.59961 4.5426C8.56372 4.54773 8.52869 4.55371 8.4928 4.56055C8.45691 4.56738 8.4176 4.57422 8.38001 4.58191L8.2749 4.60413C8.23731 4.61182 8.20056 4.62122 8.16382 4.63062C8.12708 4.64002 8.09546 4.64685 8.06128 4.65625C8.0271 4.66565 7.98779 4.67676 7.9519 4.68701L7.85193 4.71692L7.74426 4.75281C7.71179 4.76306 7.67932 4.77417 7.64771 4.78613C7.61609 4.7981 7.57678 4.81177 7.5426 4.82544L7.44775 4.86304L7.34521 4.90662L7.25378 4.94678L7.15381 4.99548L7.06836 5.03906L6.97095 5.09119L6.8855 5.13818L6.79065 5.19458L6.7052 5.245C6.67444 5.26465 6.64368 5.2843 6.61377 5.30481L6.53516 5.35779C6.50525 5.3783 6.4762 5.39966 6.44971 5.42102C6.42322 5.44238 6.39844 5.45776 6.37366 5.47742C6.34888 5.49707 6.31726 5.52185 6.28821 5.54407L6.21558 5.60303C6.18823 5.6261 6.16174 5.65002 6.13525 5.67395L6.0669 5.73462L5.98914 5.80896C5.96777 5.83032 5.94556 5.85083 5.92505 5.87219C5.90454 5.89356 5.87634 5.92346 5.85242 5.94995C5.82849 5.97644 5.81055 5.99353 5.79089 6.01575L5.72253 6.09607L5.66528 6.16443C5.64307 6.19177 5.62256 6.21997 5.6012 6.24988C5.57983 6.27979 5.56531 6.29688 5.54822 6.3208C5.53113 6.34473 5.50806 6.37805 5.4884 6.40625C5.46875 6.43445 5.45508 6.45496 5.4397 6.47888C5.42432 6.50281 5.40295 6.53784 5.38501 6.56433C5.36707 6.59082 5.35425 6.61389 5.33972 6.63867C5.3252 6.66345 5.30725 6.69934 5.29016 6.7301C5.27307 6.76086 5.26282 6.78052 5.25 6.80615C5.23718 6.83179 5.22009 6.86853 5.20557 6.90015C5.19104 6.93176 5.18079 6.95227 5.16882 6.97791C5.15686 7.00354 5.14233 7.04285 5.12952 7.07532C5.1167 7.10779 5.10815 7.12744 5.0979 7.15393C5.08765 7.18042 5.07568 7.22058 5.06372 7.25391C5.05176 7.28723 5.04578 7.30603 5.03723 7.33337C5.02869 7.36072 5.01843 7.40173 5.00903 7.43591C4.99963 7.47009 4.99365 7.48889 4.98682 7.51624C4.97998 7.54358 4.97144 7.58801 4.96375 7.6239C4.95605 7.65979 4.95264 7.67517 4.94751 7.70166C4.94238 7.72815 4.93555 7.77857 4.92957 7.81702C4.92957 7.8418 4.92188 7.86572 4.91846 7.8905C4.91333 7.93323 4.91077 7.97595 4.90649 8.02039C4.90649 8.04089 4.90649 8.0614 4.90137 8.08276C4.90137 8.14685 4.89539 8.21179 4.89539 8.27673C4.89539 8.34168 4.89539 8.40833 4.90137 8.47327C4.90137 8.50488 4.90735 8.5365 4.90991 8.56812C4.91248 8.59973 4.91504 8.63477 4.91931 8.66724C4.92358 8.69971 4.93042 8.74414 4.93726 8.78259C4.93726 8.80823 4.94409 8.83386 4.94922 8.8595C4.95606 8.8988 4.96545 8.93897 4.974 8.97827C4.97998 9.00134 4.98425 9.02527 4.99023 9.04834C4.99078 9.05498 4.99192 9.06156 4.99365 9.06799ZM11.9065 10.4779C11.8341 10.5296 11.7796 10.6025 11.7507 10.6866C11.7217 10.7707 11.7197 10.8617 11.745 10.947L11.9586 11.6665L11.0332 11.1008C10.966 11.0599 10.8888 11.0383 10.8102 11.0385C10.7706 11.0383 10.7312 11.0438 10.6931 11.0547C10.2881 11.1692 9.86904 11.2268 9.44812 11.2256C7.86646 11.2256 6.51379 10.4301 5.98657 9.31409V9.30298C5.9319 9.18614 5.8862 9.0653 5.84985 8.94153L5.84216 8.91675C5.83362 8.88513 5.82593 8.85266 5.81824 8.82105C5.81824 8.80566 5.81055 8.78943 5.80713 8.77405C5.80371 8.75867 5.79602 8.71936 5.79175 8.6886C5.78748 8.65784 5.78406 8.64587 5.78064 8.62366C5.77722 8.60144 5.7738 8.57752 5.77124 8.55444C5.76868 8.53137 5.76526 8.49805 5.76355 8.469L5.75842 8.41516C5.75842 8.36816 5.75415 8.32117 5.75415 8.27417C5.75415 6.65063 7.41272 5.32617 9.45239 5.32617C9.52332 5.32617 9.59509 5.32617 9.66858 5.33215H9.67712C9.7489 5.33215 9.82239 5.34155 9.89758 5.34839C11.7262 5.52527 13.1447 6.76941 13.1447 8.27417C13.1455 9.11585 12.6943 9.9165 11.9065 10.4779Z" />
  <path
    d="M7.62817 7.41455C7.62817 7.56027 7.68606 7.70002 7.7891 7.80306C7.89214 7.9061 8.03189 7.96399 8.17761 7.96399C8.32333 7.96399 8.46308 7.9061 8.56612 7.80306C8.66916 7.70002 8.72705 7.56027 8.72705 7.41455C8.72705 7.26883 8.66916 7.12908 8.56612 7.02604C8.46308 6.923 8.32333 6.86511 8.17761 6.86511C8.03189 6.86511 7.89214 6.923 7.7891 7.02604C7.68606 7.12908 7.62817 7.26883 7.62817 7.41455Z" />
  <path
    d="M10.2244 7.41455C10.2244 7.56027 10.2823 7.70002 10.3853 7.80306C10.4883 7.9061 10.6281 7.96399 10.7738 7.96399C10.9195 7.96399 11.0593 7.9061 11.1623 7.80306C11.2654 7.70002 11.3232 7.56027 11.3232 7.41455C11.3232 7.26883 11.2654 7.12908 11.1623 7.02604C11.0593 6.923 10.9195 6.86511 10.7738 6.86511C10.6281 6.86511 10.4883 6.923 10.3853 7.02604C10.2823 7.12908 10.2244 7.26883 10.2244 7.41455Z" />
</svg>