<svg xmlns="http://www.w3.org/2000/svg" viewBox="0 0 18 8">
  <path
    d="M0.453210011,1.38173817 L0.453210011,3.05390539 L1.79434168,3.05390539 C1.19314472,3.40594059 0.591947769,3.66116612 0,3.83718372 L0.416213275,4.55885589 C0.915669206,4.32123212 1.40587595,4.0220022 1.88683351,3.65236524 L1.88683351,4.4620462 L2.73775843,4.4620462 L2.73775843,3.669967 C3.03373232,3.8459846 3.39445049,4.09240924 3.81991295,4.40044004 L4.3101197,3.7139714 C3.78291621,3.47634763 3.25571273,3.26512651 2.73775843,3.08030803 L2.73775843,3.05390539 L4.17138194,3.05390539 L4.17138194,2.13861386 L4.68933624,2.78107811 C4.80032644,2.65786579 4.92056583,2.52585259 5.03155604,2.3850385 C5.23503808,2.69306931 5.47551687,2.97469747 5.75299238,3.23872387 C5.39227421,3.43234323 4.9390642,3.59075908 4.40261153,3.72277228 L4.72633297,4.47084708 C5.42927095,4.27722772 6.00272035,4.04840484 6.43743199,3.77557756 C6.88139282,4.07480748 7.39934712,4.31243124 7.99129489,4.48844884 L8.5,3.76677668 C7.9820457,3.6259626 7.51033732,3.43234323 7.09412405,3.19471947 C7.47334059,2.72827283 7.73231774,2.13861386 7.86180631,1.42574257 L8.33351469,1.42574257 L8.33351469,0.651265127 L5.95647443,0.651265127 C6.01196953,0.475247525 6.06746464,0.299229923 6.11371055,0.105610561 L5.25353645,0 C5.05930359,0.809680968 4.69858542,1.5049505 4.17138194,2.06820682 L4.17138194,1.38173817 L2.73775843,1.38173817 L2.73775843,1.04730473 L4.3656148,1.04730473 L4.3656148,0.360836084 L2.73775843,0.360836084 L2.73775843,0.00880088009 L1.88683351,0.00880088009 L1.88683351,0.360836084 L0.157236126,0.360836084 L0.157236126,1.04730473 L1.88683351,1.04730473 L1.88683351,1.38173817 L0.453210011,1.38173817 Z M5.53101197,1.6369637 L5.64200218,1.42574257 L7.02937976,1.42574257 C6.91838955,1.95379538 6.71490751,2.39383938 6.41893362,2.72827283 C6.05821545,2.42024202 5.76224157,2.05940594 5.53101197,1.6369637 Z M3.41294886,2.46424642 L2.73775843,2.46424642 L2.73775843,1.99779978 L3.41294886,1.99779978 L3.41294886,2.46424642 Z M1.88683351,2.46424642 L1.21164309,2.46424642 L1.21164309,1.99779978 L1.88683351,1.99779978 L1.88683351,2.46424642 Z M3.77366703,5.44774477 L3.77366703,7.19031903 L2.44178455,7.19031903 L2.44178455,5.72057206 L1.55386289,5.72057206 L1.55386289,7.19031903 L0.175734494,7.19031903 L0.175734494,8 L8.46300326,8 L8.46300326,7.19031903 L4.73558215,7.19031903 L4.73558215,6.70627063 L7.45484222,6.70627063 L7.45484222,5.93179318 L4.73558215,5.93179318 L4.73558215,5.44774477 L8.01904244,5.44774477 L8.01904244,4.65566557 L0.638193689,4.65566557 L0.638193689,5.44774477 L3.77366703,5.44774477 Z M10.8248337,3.70517052 L10.8248337,6.0110011 L13.5299335,6.0110011 L13.5299335,6.35423542 L10.6563193,6.35423542 L10.6563193,6.94389439 L13.5299335,6.94389439 L13.5299335,7.31353135 L10,7.31353135 L10,8 L18,8 L18,7.31353135 L14.4523282,7.31353135 L14.4523282,6.94389439 L17.3614191,6.94389439 L17.3614191,6.35423542 L14.4523282,6.35423542 L14.4523282,6.0110011 L17.1929047,6.0110011 L17.1929047,3.70517052 L10.8248337,3.70517052 Z M16.3148559,5.48294829 L14.4523282,5.48294829 L14.4523282,5.10451045 L16.3148559,5.10451045 L16.3148559,5.48294829 Z M13.5299335,5.48294829 L11.7028825,5.48294829 L11.7028825,5.10451045 L13.5299335,5.10451045 L13.5299335,5.48294829 Z M11.7028825,4.61166117 L11.7028825,4.2420242 L13.5299335,4.2420242 L13.5299335,4.61166117 L11.7028825,4.61166117 Z M14.4523282,4.2420242 L16.3148559,4.2420242 L16.3148559,4.61166117 L14.4523282,4.61166117 L14.4523282,4.2420242 Z M11.0199557,0.132013201 L11.0199557,2.39383938 L17.0066519,2.39383938 L17.0066519,0.132013201 L11.0199557,0.132013201 Z M16.1197339,1.88338834 L11.9068736,1.88338834 L11.9068736,1.52255226 L16.1197339,1.52255226 L16.1197339,1.88338834 Z M11.9068736,1.01210121 L11.9068736,0.651265127 L16.1197339,0.651265127 L16.1197339,1.01210121 L11.9068736,1.01210121 Z M10,2.72827283 L10,3.37953795 L18,3.37953795 L18,2.72827283 L10,2.72827283 Z" />
</svg>