<svg xmlns="http://www.w3.org/2000/svg" viewBox="0 0 16 16">
  <g stroke="none" strokeWidth="1" fill="none" fillRule="evenodd">
    <g transform="translate(1, 1)" fillRule="nonzero">
      <path
        d="M12.4446,14 L1.5554,14 C0.7,14 0,13.3 0,12.4446 L0,1.5554 C0,0.7 0.7,0 1.5554,0 L12.4446,0 C13.3,0 14,0.7 14,1.5554 L14,12.4446 C14,13.3 13.3,14 12.4446,14 Z"
        fill="currentColor"></path>
      <g transform="translate(0.7, 4.4)" fill="#FFFFFF">
        <path
          d="M1.6835,2.513 L0.07,0.056 L1.008,0.056 C1.07333333,0.056 1.12058333,0.06475 1.14975,0.08225 C1.17891667,0.09975 1.20516667,0.128333333 1.2285,0.168 L2.38,2.0265 C2.39166667,1.99616667 2.4045,1.96641667 2.4185,1.93725 C2.4325,1.90808333 2.44883333,1.87833333 2.4675,1.848 L3.521,0.1855 C3.57233333,0.0991666667 3.63883333,0.056 3.7205,0.056 L4.6235,0.056 L2.9925,2.4745 L4.669,5.117 L3.7275,5.117 C3.6645,5.117 3.61375,5.10066667 3.57525,5.068 C3.53675,5.03533333 3.50466667,4.998 3.479,4.956 L2.3065,3.017 C2.29716667,3.045 2.28666667,3.07125 2.275,3.09575 C2.26333333,3.12025 2.25166667,3.143 2.24,3.164 L1.1165,4.956 C1.09083333,4.99566667 1.05933333,5.03241667 1.022,5.06625 C0.984666667,5.10008333 0.938,5.117 0.882,5.117 L0,5.117 L1.6835,2.513 Z">
        </path>
        <polygon points="6.5055 4.34 8.532 4.34 8.532 5.117 5.564 5.117 5.564 0.056 6.5055 0.056"></polygon>
        <path
          d="M12.1975,0.9765 C12.1718333,1.02783333 12.1420833,1.064 12.10825,1.085 C12.0744167,1.106 12.0341667,1.1165 11.9875,1.1165 C11.9408333,1.1165 11.8883333,1.09841667 11.83,1.06225 C11.7716667,1.02608333 11.7028333,0.985833333 11.6235,0.9415 C11.5441667,0.897166667 11.4514167,0.856916667 11.34525,0.82075 C11.2390833,0.784583333 11.1136667,0.7665 10.969,0.7665 C10.8383333,0.7665 10.7245833,0.78225 10.62775,0.81375 C10.5309167,0.84525 10.44925,0.889 10.38275,0.945 C10.31625,1.001 10.2666667,1.06808333 10.234,1.14625 C10.2013333,1.22441667 10.185,1.31016667 10.185,1.4035 C10.185,1.5225 10.21825,1.62166667 10.28475,1.701 C10.35125,1.78033333 10.4393333,1.848 10.549,1.904 C10.6586667,1.96 10.7835,2.01016667 10.9235,2.0545 C11.0635,2.09883333 11.2064167,2.14608333 11.35225,2.19625 C11.4980833,2.24641667 11.641,2.30475 11.781,2.37125 C11.921,2.43775 12.0458333,2.52175 12.1555,2.62325 C12.2651667,2.72475 12.35325,2.849 12.41975,2.996 C12.48625,3.143 12.5195,3.3215 12.5195,3.5315 C12.5195,3.76016667 12.4804167,3.97425 12.40225,4.17375 C12.3240833,4.37325 12.20975,4.54708333 12.05925,4.69525 C11.90875,4.84341667 11.725,4.96008333 11.508,5.04525 C11.291,5.13041667 11.0425,5.173 10.7625,5.173 C10.6015,5.173 10.4428333,5.15725 10.2865,5.12575 C10.1301667,5.09425 9.98025,5.04933333 9.83675,4.991 C9.69325,4.93266667 9.55908333,4.86266667 9.43425,4.781 C9.30941667,4.69933333 9.198,4.60833333 9.1,4.508 L9.373,4.0565 C9.39866667,4.02383333 9.42958333,3.99641667 9.46575,3.97425 C9.50191667,3.95208333 9.54216667,3.941 9.5865,3.941 C9.64483333,3.941 9.70783333,3.96491667 9.7755,4.01275 C9.84316667,4.06058333 9.92308333,4.11366667 10.01525,4.172 C10.1074167,4.23033333 10.2159167,4.28341667 10.34075,4.33125 C10.4655833,4.37908333 10.6155,4.403 10.7905,4.403 C11.0588333,4.403 11.2665,4.33941667 11.4135,4.21225 C11.5605,4.08508333 11.634,3.9025 11.634,3.6645 C11.634,3.5315 11.60075,3.423 11.53425,3.339 C11.46775,3.255 11.3796667,3.18441667 11.27,3.12725 C11.1603333,3.07008333 11.0355,3.02166667 10.8955,2.982 C10.7555,2.94233333 10.6131667,2.89916667 10.4685,2.8525 C10.3238333,2.80583333 10.1815,2.74983333 10.0415,2.6845 C9.9015,2.61916667 9.77666667,2.534 9.667,2.429 C9.55733333,2.324 9.46925,2.19275 9.40275,2.03525 C9.33625,1.87775 9.303,1.6835 9.303,1.4525 C9.303,1.26816667 9.33975,1.0885 9.41325,0.9135 C9.48675,0.7385 9.59408333,0.583333333 9.73525,0.448 C9.87641667,0.312666667 10.0496667,0.204166667 10.255,0.1225 C10.4603333,0.0408333333 10.6948333,0 10.9585,0 C11.2571667,0 11.5325,0.0466666667 11.7845,0.14 C12.0365,0.233333333 12.2511667,0.364 12.4285,0.532 L12.1975,0.9765 Z">
        </path>
      </g>
    </g>
  </g>
</svg>