<svg width="16" height="16" viewBox="0 0 16 16" fill="none" xmlns="http://www.w3.org/2000/svg">
  <path
    d="M7.5625 8.62402C8.07845 8.91201 8.55827 9.24829 8.99023 9.65625L8.69043 10.0039H11.2461V10.6035C10.5261 11.2875 9.75797 11.8876 8.91797 12.3916C9.49397 12.6196 10.0586 12.8717 10.5986 13.1357L10.1543 13.8203C8.6303 13.0523 7.0582 12.4401 5.4502 11.9961L5.88281 11.3604C6.63862 11.5763 7.37057 11.8044 8.06641 12.0684C8.81041 11.6844 9.48273 11.2276 10.0947 10.7236H4.69434V10.0039H8.33008C7.92217 9.656 7.50249 9.35574 7.05859 9.0918L7.5625 8.62402Z"
    fill="currentColor" />
  <path
    d="M12.4941 3.77637H8.49805V4.49609H12.9863V6.77637H12.1582V5.16797H8.49805V7.33984C9.67405 8.22784 11.3668 8.97185 13.5508 9.54785L13.0703 10.2559C10.9943 9.64386 9.32611 8.84002 8.07812 7.83203C6.6862 8.83995 5.00635 9.64389 3.0625 10.2559L2.58203 9.55957C4.64603 8.95957 6.35062 8.21641 7.68262 7.31641V5.16797H4.02246V6.77637H3.19434V4.49609H7.68262V3.77637H3.68652V3.08008H12.4941V3.77637Z"
    fill="currentColor" />
  <path d="M7.08203 7.58008H4.59863V7.01562H7.08203V7.58008Z" fill="currentColor" />
  <path d="M11.582 7.58008H9.12207V7.01562H11.582V7.58008Z" fill="currentColor" />
  <path d="M7.07031 6.3916H4.62207V5.82812H7.07031V6.3916Z" fill="currentColor" />
  <path d="M11.5459 6.3916H9.13477V5.82812H11.5459V6.3916Z" fill="currentColor" />
  <path
    d="M14 15V16H2V15H14ZM15 14V2C15 1.44772 14.5523 1 14 1H2C1.44772 1 1 1.44772 1 2V14C1 14.5523 1.44772 15 2 15V16C0.895431 16 0 15.1046 0 14V2C0 0.895431 0.895431 0 2 0H14C15.1046 0 16 0.895431 16 2V14C16 15.1046 15.1046 16 14 16V15C14.5523 15 15 14.5523 15 14Z"
    fill="currentColor" fill-opacity="0.5" />
</svg>