<?xml version="1.0" encoding="UTF-8"?>
<svg viewBox="0 0 16 16" version="1.1" xmlns="http://www.w3.org/2000/svg" xmlns:xlink="http://www.w3.org/1999/xlink">
    <g stroke="none" stroke-width="1" fill="none" fill-rule="evenodd">
        <g fill-rule="nonzero">
            <rect x="0" y="0" width="16" height="16"></rect>
            <g transform="translate(1, 1)" opacity="0.99">
                <path
                    d="M12.6,0 L1.40000001,0 C0.630000016,0 0,0.63 0,1.40000001 L0,12.6 C0,13.37 0.63,14 1.40000001,14 L12.6,14 C13.37,14 14,13.37 14,12.6 L14,1.40000001 C14,0.630000016 13.37,0 12.6,0 L12.6,0 Z"
                    fill="#D93838"></path>
                <path
                    d="M12.6,8.69399999 C12.6,9.751 11.571,9.751 11.046,9.751 C10.206,9.688 9.40099999,9.38 8.743,8.81999999 C7.46900001,9.1 6.258,9.50599999 5.04,10.003 C4.074,11.711 3.171,12.586 2.394,12.586 C2.23999999,12.586 2.05099999,12.558 1.92500001,12.46 C1.582,12.306 1.393,11.963 1.393,11.62 C1.393,11.34 1.456,10.563 4.41,9.289 C5.09599999,8.04299999 5.62099999,6.769 6.055,5.43200001 C5.68400001,4.68300001 4.872,2.84900001 5.43200001,1.918 C5.62100001,1.575 5.992,1.386 6.39800001,1.42100001 C6.706,1.42100001 7.021,1.57500002 7.21,1.827 C7.616,2.38699999 7.58099999,3.57 7.05599999,5.313 C7.55299999,6.244 8.20399999,7.084 8.981,7.798 C9.632,7.672 10.29,7.58099999 10.941,7.58099999 C12.411,7.609 12.628,8.29499999 12.6,8.69399999 Z"
                    fill="#FFFFFF"></path>
                <path
                    d="M6.685,6.86000001 L6.65699999,6.92300001 L6.62900001,6.895 C6.349,7.609 6.04100001,8.323 5.698,9.00899999 L5.761,8.981 L5.761,9.044 C6.44699999,8.792 7.189,8.575 7.87499999,8.42099999 L7.847,8.393 L7.93799999,8.393 C7.462,7.91700001 7.02799999,7.39200001 6.685,6.86000001 L6.685,6.86000001 Z M6.46799999,2.352 L6.37700001,2.352 C6.349,2.352 6.286,2.352 6.25100001,2.38 C6.12500001,2.91200001 6.223,3.472 6.44000001,3.969 C6.622,3.43699999 6.622,2.877 6.46799999,2.352 L6.46799999,2.352 Z M2.331,11.683 L2.422,11.655 C2.856,11.501 3.199,11.186 3.451,10.787 C2.989,10.969 2.611,11.277 2.331,11.683 L2.331,11.683 Z M10.92,8.512 C10.64,8.512 10.388,8.512 10.108,8.575 C10.416,8.729 10.731,8.792 11.039,8.827 C11.256,8.855 11.473,8.827 11.662,8.764 C11.662,8.666 11.543,8.512 10.92,8.512 Z"
                    fill="#D93838"></path>
            </g>
        </g>
    </g>
</svg>