<svg xmlns="http://www.w3.org/2000/svg" viewBox="0 0 16 16">
  <g stroke="none" strokeWidth="1" fill="none" fillRule="evenodd">
    <g>
      <rect x="0" y="0" width="16" height="16" />
      <path
        d="M13.5201229,10.6597365 L16,15 C13.3015779,13.2851378 10.6031558,12.4277067 7.90473366,12.4277067 C5.20631154,12.4277067 2.57140032,13.2851378 0,15 L0.404721902,14.2940089 C2.43085508,12.3251742 4.50929592,11.0987838 6.64004443,10.6148376 C8.84958998,10.1129947 11.1429495,10.127961 13.5201229,10.6597365 Z M11.0848975,6.39715737 L12.776,9.358 L12.3339856,9.32495915 C9.83275071,9.15456042 7.76613344,9.29444876 6.13413379,9.74462416 C4.62876421,10.1598696 3.18413041,10.8613341 1.8002324,11.8490178 L3.54,8.805 L3.61112085,8.75428672 C5.70356208,7.28187765 8.19482097,6.49616787 11.0848975,6.39715737 Z M8.00190659,1 L10.521,5.41 L10.1929453,5.42055677 C8.02448907,5.51744638 6.14966786,6.04521385 4.56848167,7.0038592 L8.00190659,1 Z"
        fill="currentColor" />
    </g>
  </g>
</svg>