<svg xmlns="http://www.w3.org/2000/svg" viewBox="0 0 24 24">
  <path transform="translate(4 4)"
    d="M15.3043478,6.56521739 C15.6886957,6.56521739 16,6.84668841 16,7.1942029 L16,7.1942029 L16,15.3710145 C16,15.718529 15.6886957,16 15.3043478,16 L15.3043478,16 L0.695652174,16 C0.311304348,16 0,15.718529 0,15.3710145 L0,15.3710145 L0,7.1942029 C0,6.84668841 0.311304348,6.56521739 0.695652174,6.56521739 L0.695652174,6.56521739 Z M8,0 C8.91533756,0 9.68268772,0.655093956 9.85039238,1.53540698 L13.4623297,5.86956522 L11.2548673,5.86956522 L9.17265042,3.3710937 C8.8460721,3.63219943 8.43644845,3.7826087 8,3.7826087 C7.56355155,3.7826087 7.1539279,3.63219943 6.82734958,3.3710937 L4.74513267,5.86956522 L2.53767033,5.86956522 L6.14960762,1.53540698 C6.31731228,0.655093956 7.08466244,0 8,0 Z" />
</svg>