<svg xmlns="http://www.w3.org/2000/svg" viewBox="0 0 16 16">
  <path d="M5,9 C6.1045695,9 7,9.8954305 7,11 L7,11 L7,14 C7,15.1045695 6.1045695,16 5,16 L5,16 L2,16 C0.8954305,16 0,15.1045695 0,14 L0,14 L0,11 C0,9.8954305 0.8954305,9 2,9 L2,9 Z M14,9 C15.1045695,9 16,9.8954305 16,11 L16,11 L16,14 C16,15.1045695 15.1045695,16 14,16 L14,16 L11,16 C9.8954305,16 9,15.1045695 9,14 L9,14 L9,11 C9,9.8954305 9.8954305,9 11,9 L11,9 Z M5,11 L2,11 L2,14 L5,14 L5,11 Z M14,11 L11,11 L11,14 L14,14 L14,11 Z M5,0 C6.1045695,0 7,0.8954305 7,2 L7,2 L7,5 C7,6.1045695 6.1045695,7 5,7 L5,7 L2,7 C0.8954305,7 0,6.1045695 0,5 L0,5 L0,2 C0,0.8954305 0.8954305,0 2,0 L2,0 Z M14,0 C15.1045695,0 16,0.8954305 16,2 L16,2 L16,5 C16,6.1045695 15.1045695,7 14,7 L14,7 L11,7 C9.8954305,7 9,6.1045695 9,5 L9,5 L9,2 C9,0.8954305 9.8954305,0 11,0 L11,0 Z M5,2 L2,2 L2,5 L5,5 L5,2 Z M14,2 L11,2 L11,5 L14,5 L14,2 Z" />
</svg>