<svg xmlns="http://www.w3.org/2000/svg" viewBox="0 0 16 16">
  <path
    d="M1.70921276,1 C2.07077035,1 2.36913663,1.27051337 2.41289974,1.6201571 L2.41842552,1.70910583 L2.418,6.208 L3.09316406,6.84698559 C3.40898437,7.14656093 3.90539876,7.17152554 4.25194994,6.92187942 L4.3425,6.84698559 L7.28332031,3.89017502 C7.62785156,3.56336556 8.18730469,3.56336556 8.53265625,3.89017502 L10.2741797,5.53819519 C10.6187109,5.86500466 11.1781641,5.86500466 11.5235156,5.53819519 L14.3593359,2.85463149 C14.5955859,2.63106587 15,2.78942485 15,3.10614281 L15,5.0949453 C15,5.32472108 14.9032031,5.54595789 14.7301172,5.70897448 L11.5366406,8.73099169 C11.1921094,9.05780115 10.6326563,9.05780115 10.2873047,8.73099169 L8.31117187,6.86095844 C7.96664063,6.53414897 7.4071875,6.53414897 7.06183594,6.86095844 L4.1915625,9.57712546 C3.84703125,9.90393492 3.28757813,9.90393492 2.94222656,9.57712546 L2.418,9.081 L2.418,11.276 L2.94222656,11.7724156 C3.25804688,12.071991 3.75446126,12.0969556 4.10101244,11.8473095 L4.1915625,11.7724156 L7.06183594,9.05624862 C7.40636719,8.72943915 7.96582031,8.72943915 8.31117187,9.05624862 L10.2873047,10.9262819 C10.6326563,11.2530913 11.1921094,11.2530913 11.5374609,10.9262819 L14.4183984,8.20002334 C14.6333203,7.997417 15,8.14102686 15,8.42824658 L15,14.125 L14.980496,14.1250424 C14.9932471,14.1782462 15,14.2337817 15,14.2908942 C15,14.6523972 14.7294458,14.9507185 14.3797494,14.9944751 L14.2907872,15 L2.59572871,15 C1.75849691,15 1.07186037,14.3553223 1.00528979,13.5353667 L1,13.4045119 L1,1.70910583 C1,1.3174775 1.31752537,1 1.70921276,1 Z">
  </path>
</svg>