<svg xmlns="http://www.w3.org/2000/svg" viewBox="0 0 16 16">
  <path
    d="M1.70921276,1 C2.07077035,1 2.36913663,1.27051337 2.41289974,1.6201571 L2.41842552,1.70910583 L2.41842552,13.4045119 C2.41842552,13.4861011 2.47355145,13.5548169 2.5485945,13.5754558 L2.59572871,13.5817883 L14.2907872,13.5817883 C14.6824746,13.5817883 15,13.8992658 15,14.2908942 C15,14.6523972 14.7294458,14.9507185 14.3797494,14.9944751 L14.2907872,15 L2.59572871,15 C1.75849691,15 1.07186037,14.3553223 1.00528979,13.5353667 L1,13.4045119 L1,1.70910583 C1,1.3174775 1.31752537,1 1.70921276,1 Z M8.875,4.53977273 C9.01307119,4.53977273 9.125,4.62880701 9.125,4.73863636 L9.125,6.52840909 L9.875,6.52840909 C10.0130712,6.52840909 10.125,6.61744337 10.125,6.72727273 L10.125,9.90909091 C10.125,10.0189203 10.0130712,10.1079545 9.875,10.1079545 L9.125,10.1079545 L9.125,11.3011364 C9.125,11.4109657 9.01307119,11.5 8.875,11.5 C8.73692881,11.5 8.625,11.4109657 8.625,11.3011364 L8.625,10.1079545 L7.875,10.1079545 C7.73692881,10.1079545 7.625,10.0189203 7.625,9.90909091 L7.625,6.72727273 C7.625,6.61744337 7.73692881,6.52840909 7.875,6.52840909 L8.625,6.52840909 L8.625,4.73863636 C8.625,4.62880701 8.73692881,4.53977273 8.875,4.53977273 Z M12.875,2.75 C13.0130712,2.75 13.125,2.83903428 13.125,2.94886364 L13.125,4.9375 L13.875,4.9375 C14.0130712,4.9375 14.125,5.02653428 14.125,5.13636364 L14.125,9.71022727 C14.125,9.82005663 14.0130712,9.90909091 13.875,9.90909091 L13.125,9.90909091 L13.125,10.9034091 C13.125,11.0132384 13.0130712,11.1022727 12.875,11.1022727 C12.7369288,11.1022727 12.625,11.0132384 12.625,10.9034091 L12.625,9.90909091 L11.875,9.90909091 C11.7369288,9.90909091 11.625,9.82005663 11.625,9.71022727 L11.625,5.13636364 C11.625,5.02653428 11.7369288,4.9375 11.875,4.9375 L12.625,4.9375 L12.625,2.94886364 C12.625,2.83903428 12.7369288,2.75 12.875,2.75 Z M4.875,2.75 C5.01307119,2.75 5.125,2.83903428 5.125,2.94886364 L5.125,3.54545455 L5.875,3.54545455 C6.01307119,3.54545455 6.125,3.63448883 6.125,3.74431818 L6.125,8.51704545 C6.125,8.62687481 6.01307119,8.71590909 5.875,8.71590909 L5.125,8.71590909 L5.125,10.3068182 C5.125,10.4166475 5.01307119,10.5056818 4.875,10.5056818 C4.73692881,10.5056818 4.625,10.4166475 4.625,10.3068182 L4.625,8.71590909 L3.875,8.71590909 C3.73692881,8.71590909 3.625,8.62687481 3.625,8.51704545 L3.625,3.74431818 C3.625,3.63448883 3.73692881,3.54545455 3.875,3.54545455 L4.625,3.54545455 L4.625,2.94886364 C4.625,2.83903428 4.73692881,2.75 4.875,2.75 Z">
  </path>
</svg>