<svg xmlns="http://www.w3.org/2000/svg" viewBox="0 0 16 16">
  <path
    d="M1.77777778,14.2222222 L15.1111111,14.2222222 C15.6020308,14.2222222 16,14.6201914 16,15.1111111 C16,15.6020308 15.6020308,16 15.1111111,16 L0.888888889,16 C0.397969111,16 0,15.6020308 0,15.1111111 L0,0.888888889 C0,0.397969111 0.397969111,0 0.888888889,0 C1.37980867,0 1.77777778,0.397969111 1.77777778,0.888888889 L1.77777778,14.2222222 Z M15,12 L4,12 L4,10.625 C6.9601,10.625 7.7818,8.5714375 8.73275,6.1926875 C9.70625,3.7589375 10.8101,1 14.45,1 L15,1 L15,12 Z" />
</svg>