<svg xmlns="http://www.w3.org/2000/svg" viewBox="0 0 16 16">
  <path
    d="M12.8112105,7.99315382 C12.9110049,7.99074756 12.9971844,8.06259939 13.0127045,8.16121045 L13.1691998,9.22117855 C13.4171416,9.32060192 13.6508311,9.45240953 13.8641788,9.61316675 L14.887648,9.21317879 C14.9786453,9.18117975 15.089142,9.21317879 15.1386405,9.30117614 L15.9611157,10.6851345 C16.0108302,10.7708579 15.9897043,10.880115 15.9116172,10.9411268 L15.0436434,11.6011069 C15.0601429,11.7291031 15.0726425,11.8570992 15.0726425,11.9930951 C15.0726425,12.129091 15.0601429,12.2570872 15.0436434,12.3850833 L15.9116172,13.0450635 C15.9897043,13.1060753 16.0108302,13.2153324 15.9611157,13.3010558 L15.1386405,14.6850141 C15.089142,14.7730115 14.9826452,14.8090104 14.887648,14.7730115 L13.8636789,14.3730235 C13.6501853,14.5290188 13.4196922,14.6650147 13.1686998,14.7650117 L13.0127045,15.8249798 C12.9971844,15.9235909 12.9110049,15.9954427 12.8112105,15.9930365 L11.16626,15.9930365 C11.0664656,15.9954427 10.9802862,15.9235909 10.9647661,15.8249798 L10.8087708,14.7650117 C10.5577783,14.6650147 10.3272853,14.5330187 10.1137917,14.3730235 L9.08982252,14.7730115 C8.99882526,14.8050105 8.88832858,14.7730115 8.83883007,14.6850141 L8.01635482,13.3010558 C7.96641059,13.2153713 7.98756756,13.1059535 8.06585333,13.0450635 L8.93332723,12.3850833 C8.91682773,12.2570872 8.90482809,12.1250912 8.90482809,11.9930951 C8.90482809,11.8610991 8.91682773,11.7291031 8.93332723,11.6011069 L8.06585333,10.9411268 C7.98570862,10.8813907 7.96425551,10.7704412 8.01635482,10.6851345 L8.83883007,9.30117614 C8.88895064,9.21348545 8.99591714,9.17598325 9.08982252,9.21317879 L10.1137917,9.61316675 C10.3272853,9.45717145 10.5577783,9.32117554 10.8087708,9.22117855 L10.9647661,8.16121045 C10.9802862,8.06259939 11.0664656,7.99074756 11.16626,7.99315382 Z M4.5559286,13.3930951 L6.2830647,13.856806 C6.50822929,14.5464928 6.85497842,15.1812142 7.29799231,15.7356503 C6.89441731,15.916789 6.42857962,15.9654228 5.97014217,15.8425849 C4.90762376,15.5578839 4.27122765,14.4556135 4.5559286,13.3930951 Z M11.9887353,10.5931373 C11.1952592,10.5931373 10.5492786,11.2211184 10.5492786,11.9930951 C10.5492786,12.7650719 11.1952592,13.393053 11.9887353,13.393053 C12.7822114,13.393053 13.428192,12.7650719 13.428192,11.9930951 C13.428192,11.2211184 12.7822114,10.5931373 11.9887353,10.5931373 Z M4.75161466,3.71309675 C5.47630799,1.00850443 8.17074671,-0.547130484 10.875339,0.177562842 C13.5799313,0.902256168 15.1355663,3.59669489 14.4108729,6.3012872 L14.3627341,6.48138694 C13.6344531,6.16718111 12.8315459,5.99309514 11.9879789,5.99309514 C8.67427036,5.99309514 5.98797886,8.67938664 5.98797886,11.9930951 C5.98797886,12.1060625 5.99110084,12.2183006 5.99726323,12.329728 L0.749210649,10.9228653 C0.169655153,10.7675738 -0.11318756,10.2776759 0.0421038674,9.6981204 C0.197395295,9.1185649 0.687293243,8.83572219 1.26684874,8.99101362 L1.74981165,9.12042314 C2.60713306,8.62544839 3.63869277,7.8665778 3.97515753,6.61087423 Z" />
</svg>