<svg xmlns="http://www.w3.org/2000/svg" viewBox="0 0 16 16">
  <path d="M5.39961985,14.2 L4.72912528,16 L3,16 C1.34314575,16 2.02906125e-16,14.6568542 0,13 L0,3 C-2.02906125e-16,1.34314575 1.34314575,3.04359188e-16 3,0 L9,0 C10.6568542,-3.04359188e-16 12,1.34314575 12,3 L12,6.92463398 L10.2,8.57227907 L10.2,3 C10.2,2.3372583 9.6627417,1.8 9,1.8 L3,1.8 C2.3372583,1.8 1.8,2.3372583 1.8,3 L1.8,13 C1.8,13.6627417 2.3372583,14.2 3,14.2 L5.39961985,14.2 Z M15.7404607,10.2780341 C16.1238826,10.7041492 16.0770826,11.3486788 15.6358119,11.7192577 L11.4946232,15.1841422 C11.3676606,15.2910719 11.2160874,15.3673556 11.0524402,15.4066839 L8.5221665,15.9891454 C8.36832311,16.0239432 8.20713476,15.9736607 8.10369613,15.858604 C8.0002575,15.7435473 7.97165243,15.5827191 8.02943285,15.4410687 L8.97854148,13.1069259 C9.04238522,12.9561774 9.14266059,12.8222766 9.27103667,12.716348 L13.4037463,9.2508925 C13.8465611,8.88030254 14.5174639,8.92548234 14.9024133,9.35181542 L15.7404607,10.2780341 Z" />
</svg>