<svg xmlns="http://www.w3.org/2000/svg" viewBox="0 0 17 10">
  <path transform="translate(-7 -3)"
    d="M7.25878906,3.93359375 L9.80175781,3.93359375 C10.9814512,3.93359375 11.8339817,4.10546703 12.359375,4.44921875 C12.8847683,4.79297047 13.1474609,5.33593379 13.1474609,6.078125 C13.1474609,6.5781275 13.018556,6.99413896 12.7607422,7.32617188 C12.5029284,7.65820479 12.1318384,7.86718707 11.6474609,7.953125 L11.6474609,8.01171875 C12.2490264,8.12500057 12.6914048,8.34863114 12.9746094,8.68261719 C13.2578139,9.01660323 13.3994141,9.46874715 13.3994141,10.0390625 C13.3994141,10.8085976 13.1308621,11.4111306 12.59375,11.8466797 C12.0566379,12.2822287 11.3095751,12.5 10.3525391,12.5 L7.25878906,12.5 L7.25878906,3.93359375 Z M8.65917969,7.47265625 L10.0068359,7.47265625 C10.5927764,7.47265625 11.0205065,7.37988374 11.2900391,7.19433594 C11.5595717,7.00878813 11.6943359,6.6933616 11.6943359,6.24804688 C11.6943359,5.84570111 11.5488296,5.5546884 11.2578125,5.375 C10.9667954,5.1953116 10.504886,5.10546875 9.87207031,5.10546875 L8.65917969,5.10546875 L8.65917969,7.47265625 Z M8.65917969,8.609375 L8.65917969,11.3222656 L10.1474609,11.3222656 C10.7334014,11.3222656 11.1757798,11.2099621 11.4746094,10.9853516 C11.773439,10.7607411 11.9228516,10.4062524 11.9228516,9.921875 C11.9228516,9.47656027 11.7705093,9.14648545 11.4658203,8.93164062 C11.1611313,8.7167958 10.6982453,8.609375 10.0771484,8.609375 L8.65917969,8.609375 Z M16.4111328,12.5 L15.0341797,12.5 L15.0341797,6.01953125 L16.4111328,6.01953125 L16.4111328,12.5 Z M14.9521484,4.30273438 C14.9521484,4.05663939 15.0195306,3.86718816 15.1542969,3.734375 C15.2890632,3.60156184 15.4814441,3.53515625 15.7314453,3.53515625 C15.973634,3.53515625 16.1621087,3.60156184 16.296875,3.734375 C16.4316413,3.86718816 16.4990234,4.05663939 16.4990234,4.30273438 C16.4990234,4.53711055 16.4316413,4.72167901 16.296875,4.85644531 C16.1621087,4.99121161 15.973634,5.05859375 15.7314453,5.05859375 C15.4814441,5.05859375 15.2890632,4.99121161 15.1542969,4.85644531 C15.0195306,4.72167901 14.9521484,4.53711055 14.9521484,4.30273438 Z M20.5654297,12.6171875 C19.7568319,12.6171875 19.1259788,12.3242217 18.6728516,11.7382812 C18.2197243,11.1523408 17.9931641,10.3300834 17.9931641,9.27148438 C17.9931641,8.20897906 18.222654,7.3818389 18.6816406,6.79003906 C19.1406273,6.19823923 19.7763631,5.90234375 20.5888672,5.90234375 C21.4404339,5.90234375 22.088865,6.21679373 22.5341797,6.84570312 L22.6044922,6.84570312 C22.5380856,6.38085705 22.5048828,6.01367322 22.5048828,5.74414062 L22.5048828,3.3828125 L23.8876953,3.3828125 L23.8876953,12.5 L22.8095703,12.5 L22.5693359,11.6503906 L22.5048828,11.6503906 C22.0634744,12.2949251 21.4169964,12.6171875 20.5654297,12.6171875 Z M20.9345703,11.5039062 C21.5009794,11.5039062 21.9130846,11.3447282 22.1708984,11.0263672 C22.4287122,10.7080062 22.5615234,10.1914098 22.5693359,9.4765625 L22.5693359,9.28320312 C22.5693359,8.46679279 22.4365248,7.88672047 22.1708984,7.54296875 C21.9052721,7.19921703 21.4892606,7.02734375 20.9228516,7.02734375 C20.4384741,7.02734375 20.065431,7.22363085 19.8037109,7.61621094 C19.5419909,8.00879103 19.4111328,8.56835574 19.4111328,9.29492188 C19.4111328,10.0136755 19.5380847,10.5615216 19.7919922,10.9384766 C20.0458997,11.3154316 20.4267553,11.5039062 20.9345703,11.5039062 Z" />
</svg>