<svg xmlns="http://www.w3.org/2000/svg" viewBox="0 0 20 20">
  <path transform="translate(-2 -2)"
    d="M4.6875,6.37 L19.3125,6.37 C20.2444805,6.37 21,7.12551948 21,8.0575 L21,15.9325 C21,16.8644805 20.2444805,17.62 19.3125,17.62 L4.6875,17.62 C3.75551948,17.62 3,16.8644805 3,15.9325 L3,8.0575 C3,7.12551948 3.75551948,6.37 4.6875,6.37 Z M12,14.8075 C13.5533009,14.8075 14.8125,13.5483009 14.8125,11.995 C14.8125,10.4416991 13.5533009,9.1825 12,9.1825 C10.4466991,9.1825 9.1875,10.4416991 9.1875,11.995 C9.1875,13.5483009 10.4466991,14.8075 12,14.8075 Z M6.375,13.12 C6.99632034,13.12 7.5,12.6163203 7.5,11.995 C7.5,11.3736797 6.99632034,10.87 6.375,10.87 C5.75367966,10.87 5.25,11.3736797 5.25,11.995 C5.25,12.6163203 5.75367966,13.12 6.375,13.12 Z M17.625,13.12 C18.2463203,13.12 18.75,12.6163203 18.75,11.995 C18.75,11.3736797 18.2463203,10.87 17.625,10.87 C17.0036797,10.87 16.5,11.3736797 16.5,11.995 C16.5,12.6163203 17.0036797,13.12 17.625,13.12 Z" />
</svg>