<svg xmlns="http://www.w3.org/2000/svg" viewBox="0 0 18 18">
  <path
    d="M16.2867194,7.06863 L17.9062394,8.49005538 C17.9659345,8.54252136 18,8.6181812 18,8.69765556 C18,8.77712992 17.965522,8.85269861 17.9056876,8.90500564 L16.2861676,10.3176023 C16.2047125,10.3887793 16.0891774,10.405789 15.990665,10.3611079 C15.8921526,10.3164267 15.8288391,10.2182987 15.8287291,10.1101272 L15.8287291,9.21952912 L14.970687,9.21952912 C14.2896734,9.21956727 13.6468107,9.53397334 13.2286684,10.0715015 L12.239,11.343 L13.2281166,12.6141877 C13.6463779,13.1518688 14.2894796,13.4662922 14.970687,13.4661601 L15.8287291,13.4661601 L15.8287291,12.6257755 C15.8288661,12.5174834 15.8923431,12.4192852 15.9910302,12.3746976 C16.0897173,12.3301101 16.2053633,12.3473792 16.2867194,12.4188521 L17.9062394,13.8402775 C17.9659345,13.8927435 18,13.9684033 18,14.0478777 C18,14.127352 17.965522,14.2029207 17.9056876,14.2552278 L16.2861676,15.6678244 C16.2047125,15.7390014 16.0891774,15.7560111 15.990665,15.71133 C15.8921526,15.6666489 15.8288391,15.5685208 15.8287291,15.4603493 L15.8287291,14.5697512 L14.970687,14.5697512 C13.9490697,14.5697791 12.9846562,14.0981614 12.3573832,13.2917927 L11.541,12.241 L11.0231415,12.9077307 C10.3958685,13.7140994 9.43145495,14.1856892 8.40983767,14.1856892 L7,14.1856892 L7,13.0820981 L8.40983767,13.0820981 C9.09085126,13.0820599 9.73371394,12.7676539 10.1518563,12.2301257 L10.841,11.342 L10.1518563,10.4555635 C9.73371394,9.91803536 9.09085126,9.60362929 8.40983767,9.60359113 L7,9.60359113 L7,8.5 L8.40983767,8.5 C9.43126116,8.50014235 10.3954357,8.97174281 11.0225897,9.77795853 L11.54,10.443 L12.3573832,9.39389652 C12.9846562,8.58752785 13.9490697,8.11591008 14.970687,8.11593798 L15.8287291,8.11593798 L15.8287291,7.27555333 C15.8288661,7.16726129 15.8923431,7.06906305 15.9910302,7.02447552 C16.0897173,6.97988799 16.2053633,6.99715711 16.2867194,7.06863 Z M14.5,0.5 C15.3284271,0.5 16,1.17157288 16,2 L16,6 L13.8655723,6.0011143 C13.9510565,5.85377607 14,5.68260372 14,5.5 C14,4.94771525 13.5522847,4.5 13,4.5 C12.4477153,4.5 12,4.94771525 12,5.5 C12,5.68260372 12.0489435,5.85377607 12.1344277,6.0011143 L10.4499027,6.00043449 C10.482754,5.83874484 10.5,5.67138643 10.5,5.5 C10.5,4.11928813 9.38071187,3 8,3 C6.61928813,3 5.5,4.11928813 5.5,5.5 C5.5,5.98743313 5.63949732,6.44228492 5.88074738,6.82681078 C5.675438,7.10869017 5.54235479,7.44700423 5.508521,7.81415143 L5.5,8 L5.5,10.5 L1.5,10.5 C0.671572875,10.5 0,9.82842712 0,9 L0,2 C0,1.17157288 0.671572875,0.5 1.5,0.5 L14.5,0.5 Z M3,4.5 C2.44771525,4.5 2,4.94771525 2,5.5 C2,6.05228475 2.44771525,6.5 3,6.5 C3.55228475,6.5 4,6.05228475 4,5.5 C4,4.94771525 3.55228475,4.5 3,4.5 Z" />
</svg>