<svg xmlns="http://www.w3.org/2000/svg" viewBox="0 0 16 16">
  <path d="M11.2019828,2.4004352 C12.527634,2.4004352 13.6022866,3.47508781 13.6022866,4.80073898 L13.6022866,9.7021593 C15.1627295,10.1050639 16.180153,11.6054296 15.9770822,13.2042029 C15.7740113,14.8029763 14.4138038,16.0013432 12.8021853,16.0013432 C11.1905669,16.0013432 9.83035933,14.8029763 9.62728849,13.2042029 C9.42421764,11.6054296 10.4416412,10.1050639 12.0020841,9.7021593 L12.0020841,4.80073898 C12.0020841,4.35885525 11.6438665,4.00063772 11.2019828,4.00063772 L8.80167903,4.00063772 C8.3597953,4.00063772 8.00157777,3.64242018 8.00157777,3.20053646 C8.00157777,2.75865273 8.3597953,2.4004352 8.80167903,2.4004352 L11.2019828,2.4004352 Z M5.46365657,0.937850093 C6.27609895,1.74997299 6.59096906,2.93522717 6.28868728,4.04348344 C5.98640551,5.15173971 5.11334488,6.01298055 4.00107146,6.30012874 L4.00107146,15.2020554 C4.00107146,15.6439391 3.64285393,16.0021566 3.2009702,16.0021566 C2.75908648,16.0021566 2.40086894,15.6439391 2.40086894,15.2020554 L2.40086894,6.29932864 C1.09541421,5.96121241 0.141965669,4.8410716 0.0167302591,3.49836883 C-0.10850515,2.15566606 0.621345911,0.878521981 1.84175392,0.304815673 C3.06216193,-0.268890634 4.51124857,-0.0160517815 5.46525677,0.937049991 L5.46365657,0.937850093 Z M11.6708421,11.6704084 C11.254859,12.0721784 11.0880282,12.6671392 11.2344715,13.2266171 C11.3809147,13.786095 11.8178419,14.2230222 12.3773198,14.3694654 C12.9367977,14.5159087 13.5317585,14.349078 13.9335285,13.9330948 C14.5399608,13.3052091 14.531288,12.3071533 13.9140358,11.6899011 C13.2967836,11.072649 12.2987278,11.0639761 11.6708421,11.6704084 Z M2.06962702,2.06919328 C1.65364384,2.47096328 1.4868131,3.06592405 1.63325634,3.62540195 C1.77969958,4.18487985 2.21662681,4.62180708 2.77610471,4.76825032 C3.33558261,4.91469356 3.93054338,4.74786282 4.33231338,4.33187964 C4.93874567,3.70399396 4.93007283,2.70593822 4.31282064,2.08868602 C3.69556844,1.47143382 2.6975127,1.46276099 2.06962702,2.06919328 Z" />
</svg>