<?xml version="1.0" encoding="UTF-8"?>
<svg viewBox="0 0 16 16" version="1.1" xmlns="http://www.w3.org/2000/svg" xmlns:xlink="http://www.w3.org/1999/xlink">
    <g stroke="none" stroke-width="1" fill="none" fill-rule="evenodd">
        <g>
            <rect x="0" y="0" width="16" height="16"></rect>
            <path
                d="M13.833091,13.9926829 L14.0143043,13.9926829 C14.2861244,13.9926829 14.5002856,14.2231707 14.5002856,14.4963415 C14.5002856,14.7695122 14.2778874,15 14.0143043,15 L1.98832618,15 C1.85653464,15 1.73298007,14.9487805 1.64237339,14.854878 C1.45292305,14.6585366 1.45292305,14.3341463 1.64237339,14.1378049 C1.73298007,14.0439024 1.85653464,13.9926829 1.98008921,13.9926829 L2.15306561,13.9926829 L2.15306561,2.17804878 C2.15306561,1.52926829 2.66375783,1 3.28976765,1 L9.94524049,1 C10.5712503,1 11.0819425,1.52926829 11.0819425,2.17804878 L11.0819425,4.87560976 L12.6881519,4.87560976 C13.3141618,4.87560976 13.824854,5.40487805 13.824854,6.05365854 L13.833091,13.9926829 Z M12.8528914,13.9926829 L12.8528914,6.05365854 C12.8528914,5.9597561 12.7787586,5.88292683 12.6881519,5.88292683 L11.0819425,5.88292683 L11.0819425,13.9841463 L12.8528914,13.9841463 L12.8528914,13.9926829 Z M3.12502823,13.9926829 L10.1017429,13.9926829 L10.1017429,2.17804878 C10.1017429,2.13536585 10.085269,2.09268293 10.0523211,2.05853659 C10.0193732,2.02439024 9.97818837,2.00731707 9.93700352,2.00731707 L3.28153068,2.00731707 C3.24034583,2.00731707 3.19916097,2.02439024 3.16621308,2.05853659 C3.1332652,2.09268293 3.11679126,2.13536585 3.11679126,2.17804878 L3.12502823,13.9926829 Z M5.43961717,7.76097561 C5.16779712,7.76097561 4.95363586,7.5304878 4.95363586,7.25731707 C4.95363586,6.98414634 5.17603409,6.75365854 5.43961717,6.75365854 L7.93541948,6.75365854 C8.20723954,6.75365854 8.42140079,6.98414634 8.42140079,7.25731707 C8.42140079,7.5304878 8.19900257,7.76097561 7.93541948,7.76097561 L5.43961717,7.76097561 L5.43961717,7.76097561 Z M5.43961717,11.4658537 C5.16779712,11.4658537 4.95363586,11.2353659 4.95363586,10.9621951 C4.95363586,10.6804878 5.17603409,10.4585366 5.43961717,10.4585366 L7.93541948,10.4585366 C8.20723954,10.4585366 8.42140079,10.6890244 8.42140079,10.9621951 C8.42140079,11.2439024 8.19900257,11.4658537 7.93541948,11.4658537 L5.43961717,11.4658537 L5.43961717,11.4658537 Z"
                fill="currentColor" fill-rule="nonzero"></path>
        </g>
    </g>
</svg>