<svg xmlns="http://www.w3.org/2000/svg" viewBox="0 0 16 16">
  <path
    d="M14,0 L2,0 C1.4,0 1,0.4 1,1 L1,15 C1,15.6 1.4,16 2,16 L14,16 C14.6,16 15,15.6 15,15 L15,1 C15,0.4 14.6,0 14,0 Z M12,7 C12.5522847,7 13,7.44771525 13,8 L13,12.5 C13,13.0522847 12.5522847,13.5 12,13.5 C11.4477153,13.5 11,13.0522847 11,12.5 L11,8 C11,7.44771525 11.4477153,7 12,7 Z M4.25,9.5 C3.55964406,9.5 3,8.94035594 3,8.25 C3,7.55964406 3.55964406,7 4.25,7 C4.94035594,7 5.5,7.55964406 5.5,8.25 C5.5,8.94035594 4.94035594,9.5 4.25,9.5 Z M8.25,9.5 C7.55964406,9.5 7,8.94035594 7,8.25 C7,7.55964406 7.55964406,7 8.25,7 C8.94035594,7 9.5,7.55964406 9.5,8.25 C9.5,8.94035594 8.94035594,9.5 8.25,9.5 Z M8.25,13.5 C7.55964406,13.5 7,12.9403559 7,12.25 C7,11.5596441 7.55964406,11 8.25,11 C8.94035594,11 9.5,11.5596441 9.5,12.25 C9.5,12.9403559 8.94035594,13.5 8.25,13.5 Z M4.25,13.5 C3.55964406,13.5 3,12.9403559 3,12.25 C3,11.5596441 3.55964406,11 4.25,11 C4.94035594,11 5.5,11.5596441 5.5,12.25 C5.5,12.9403559 4.94035594,13.5 4.25,13.5 Z M13,5 L3,5 L3,2 L13,2 L13,5 Z" />
</svg>