<?xml version="1.0" encoding="UTF-8"?>
<svg viewBox="0 0 16 16" version="1.1" xmlns="http://www.w3.org/2000/svg" xmlns:xlink="http://www.w3.org/1999/xlink">
    <g stroke="none" stroke-width="1" fill="none" fill-rule="evenodd">
        <g>
            <rect x="0" y="0" width="16" height="16"></rect>
            <path
                d="M6.52098299,10.3261164 C6.60970384,10.3261164 6.6863264,10.3606225 6.75085066,10.4296346 L7.39206049,11.1299053 C7.03717706,11.5723951 6.60063012,11.9113667 6.08241966,12.14682 C5.5642092,12.3822733 4.94215501,12.5 4.21625709,12.5 C3.56698173,12.5 2.98323882,12.3883627 2.46502836,12.165088 C1.9468179,11.9418133 1.5042218,11.6312585 1.13724008,11.2334235 C0.770258349,10.8355886 0.488972905,10.3606225 0.293383743,9.80852503 C0.097794581,9.2564276 0,8.65358593 0,8 C0,7.33829499 0.108884688,6.73240866 0.326654064,6.182341 C0.54442344,5.63227334 0.850913674,5.15832206 1.24612476,4.76048714 C1.64133585,4.36265223 2.11417769,4.05311231 2.66465028,3.83186739 C3.21512287,3.61062246 3.82306238,3.5 4.48846881,3.5 C5.13774417,3.5 5.70535602,3.60453315 6.19130435,3.81359946 C6.67725268,4.02266576 7.09363579,4.29972936 7.44045369,4.64479026 L6.89603025,5.40595399 C6.86376812,5.45466847 6.82243226,5.49729364 6.77202268,5.5338295 C6.72161311,5.57036536 6.65204789,5.58863329 6.56332703,5.58863329 C6.47057341,5.58863329 6.3758034,5.55209743 6.27901701,5.47902571 C6.18223062,5.40595399 6.05923125,5.32679296 5.9100189,5.24154263 C5.76080655,5.15629229 5.57227473,5.07713126 5.34442344,5.00405954 C5.11657215,4.93098782 4.82722117,4.89445196 4.47637051,4.89445196 C4.06502836,4.89445196 3.68695652,4.9665088 3.34215501,5.11062246 C2.9973535,5.25473613 2.70094518,5.46075778 2.45293006,5.72868742 C2.20491493,5.99661705 2.01134216,6.32239513 1.87221172,6.70602165 C1.73308129,7.08964817 1.66351607,7.52097429 1.66351607,8 C1.66351607,8.49526387 1.73308129,8.93572395 1.87221172,9.32138024 C2.01134216,9.70703654 2.19987398,10.0317997 2.43780718,10.2956698 C2.67574039,10.5595399 2.95601764,10.761502 3.27863894,10.9015562 C3.60126024,11.0416103 3.94807813,11.1116373 4.31909263,11.1116373 C4.54089477,11.1116373 4.74152489,11.0994587 4.92098299,11.0751015 C5.10044108,11.0507442 5.2657845,11.0121786 5.41701323,10.9594046 C5.56824197,10.9066306 5.71140517,10.8386333 5.84650284,10.7554127 C5.9816005,10.6721922 6.11568998,10.5696888 6.24877127,10.4479026 C6.28909893,10.4113667 6.33144297,10.381935 6.3758034,10.3596076 C6.42016383,10.3372801 6.46855703,10.3261164 6.52098299,10.3261164 Z M9.47296786,3.59742896 C9.54555766,3.59742896 9.60604915,3.60047361 9.65444234,3.60656292 C9.70283554,3.61265223 9.74618778,3.62483085 9.78449905,3.64309878 C9.82281033,3.66136671 9.86011342,3.68775372 9.89640832,3.72225981 C9.93270321,3.7567659 9.97303088,3.80243572 10.0173913,3.85926928 L14.6086957,9.74763194 C14.5925646,9.60554804 14.5814745,9.4665088 14.5754253,9.33051421 C14.5693762,9.19451962 14.5663516,9.067659 14.5663516,8.94993234 L14.5663516,3.59742896 L16,3.59742896 L16,12.402571 L15.1591682,12.402571 C15.0301197,12.402571 14.9232514,12.3822733 14.8385633,12.3416779 C14.7538752,12.3010825 14.6712035,12.2280108 14.5905482,12.1224628 L10.0173913,6.25845737 C10.0294896,6.38836265 10.0385633,6.51725304 10.0446125,6.64512855 C10.0506616,6.77300406 10.0536862,6.88971583 10.0536862,6.99526387 L10.0536862,12.402571 L8.62003781,12.402571 L8.62003781,3.59742896 L9.47296786,3.59742896 Z"
                fill="currentColor" fill-rule="nonzero"></path>
        </g>
    </g>
</svg>