<svg viewBox="0 0 17 17" fill="none" xmlns="http://www.w3.org/2000/svg">
  <path d="M13.4111 8.76807H3.52246V7.97607H13.4111V8.76807Z" fill="currentColor" />
  <path
    d="M14.5 15.3335V16.3335H2.5V15.3335H14.5ZM15.5 14.3335V2.3335C15.5 1.78121 15.0523 1.3335 14.5 1.3335H2.5C1.94772 1.3335 1.5 1.78121 1.5 2.3335V14.3335C1.5 14.8858 1.94772 15.3335 2.5 15.3335V16.3335C1.39543 16.3335 0.5 15.4381 0.5 14.3335V2.3335C0.5 1.22893 1.39543 0.333496 2.5 0.333496H14.5C15.6046 0.333496 16.5 1.22893 16.5 2.3335V14.3335C16.5 15.4381 15.6046 16.3335 14.5 16.3335V15.3335C15.0523 15.3335 15.5 14.8858 15.5 14.3335Z"
    fill="currentColor" fill-opacity="0.5" />
</svg>