<svg xmlns="http://www.w3.org/2000/svg" viewBox="0 0 24 24">
  <g>
    <circle cx="12" cy="12" r="12" />
    <path
      d="M1.69256198,11.107438 L12.4826446,11.107438 C12.6579152,11.107438 12.8,11.2495229 12.8,11.4247934 C12.8,11.6000639 12.6579152,11.7421488 12.4826446,11.7421488 L1.69256198,11.7421488 L1.69256198,12.4826446 C1.69256198,12.6579152 1.55047714,12.8 1.37520661,12.8 C1.19993608,12.8 1.05785124,12.6579152 1.05785124,12.4826446 L1.05785124,11.7421488 L0.317355372,11.7421488 C0.14208484,11.7421488 0,11.6000639 0,11.4247934 C0,11.2495229 0.14208484,11.107438 0.317355372,11.107438 L1.05785124,11.107438 L1.05785124,0.317355372 C1.05785124,0.14208484 1.19993608,0 1.37520661,0 C1.55047714,0 1.69256198,0.14208484 1.69256198,0.317355372 L1.69256198,11.107438 Z M4.54876033,4.81322314 C4.6947438,4.81322314 4.81322314,4.93170248 4.81322314,5.07768595 L4.81322314,9.83801653 C4.81322314,9.984 4.6947438,10.1024793 4.54876033,10.1024793 L2.96198347,10.1024793 C2.816,10.1024793 2.69752066,9.984 2.69752066,9.83801653 L2.69752066,5.07768595 C2.69752066,4.93170248 2.816,4.81322314 2.96198347,4.81322314 L4.54876033,4.81322314 Z M10.8958678,3.22644628 C11.0418512,3.22644628 11.1603306,3.34492562 11.1603306,3.49090909 L11.1603306,9.83801653 C11.1603306,9.984 11.0418512,10.1024793 10.8958678,10.1024793 L9.30909091,10.1024793 C9.16310744,10.1024793 9.0446281,9.984 9.0446281,9.83801653 L9.0446281,3.49090909 C9.0446281,3.34492562 9.16310744,3.22644628 9.30909091,3.22644628 L10.8958678,3.22644628 Z M7.72231405,0.581818182 C7.86829752,0.581818182 7.98677686,0.700297521 7.98677686,0.846280992 L7.98677686,9.83801653 C7.98677686,9.984 7.86829752,10.1024793 7.72231405,10.1024793 L6.13553719,10.1024793 C5.98955372,10.1024793 5.87107438,9.984 5.87107438,9.83801653 L5.87107438,0.846280992 C5.87107438,0.700297521 5.98955372,0.581818182 6.13553719,0.581818182 L7.72231405,0.581818182 Z"
      transform="translate(5.6 5.6)" />
  </g>
</svg>