<svg xmlns="http://www.w3.org/2000/svg" viewBox="0 0 16 16">
  <path
    d="M8,0 C12.418278,0 16,3.581722 16,8 C16,12.418278 12.418278,16 8,16 C3.581722,16 0,12.418278 0,8 C0,3.581722 3.581722,0 8,0 Z M8,1.6 C4.4653776,1.6 1.6,4.4653776 1.6,8 C1.6,11.5346224 4.4653776,14.4 8,14.4 C11.5346224,14.4 14.4,11.5346224 14.4,8 C14.4,4.4653776 11.5346224,1.6 8,1.6 Z M7.88663104,4 C8.3767003,4 8.77326209,4.3489611 8.77326209,4.77799542 L8.77326209,8.63535008 L10.5589167,9.54778944 C10.8330151,9.68782447 11.0011529,9.94553493 11,10.2238438 C10.9988352,10.5021527 10.8285559,10.7587782 10.5532987,10.897052 C10.2780415,11.0353259 9.93962452,11.0342409 9.66552611,10.8942059 L7.73566718,9.90762467 C7.28022143,9.67431112 7.00014509,9.24639583 7,8.78363384 L7,4.77799542 C7,4.3489611 7.39768838,4 7.88663104,4 Z" />
</svg>