<svg xmlns="http://www.w3.org/2000/svg" viewBox="0 0 16 16">
  <path
    d="M8,16 C3.581722,16 0,12.418278 0,8 C0,3.581722 3.581722,0 8,0 C12.418278,0 16,3.581722 16,8 C16,12.418278 12.418278,16 8,16 Z M9.43224218,8.01802861 L11.7251354,5.7251354 C12.6679444,4.78232635 11.2537309,3.36811279 10.3109218,4.31092183 L8.01802861,6.60381505 L5.7251354,4.31092183 C4.78232635,3.36811279 3.36811279,4.78232635 4.31092183,5.7251354 L6.60381505,8.01802861 L4.31092183,10.3109218 C3.36811279,11.2537309 4.78232635,12.6679444 5.7251354,11.7251354 L8.01802861,9.43224218 L10.3109218,11.7251354 C11.2537309,12.6679444 12.6679444,11.2537309 11.7251354,10.3109218 L9.43224218,8.01802861 Z" />
</svg>