<svg viewBox="0 0 14 14" fill="none" xmlns="http://www.w3.org/2000/svg">
  <path
    d="M9.87109 5.49512L8.14746 7.21875L9.87109 8.94238L8.94238 9.87012L7.21875 8.14648L5.49512 9.87012L4.56738 8.94238L6.29102 7.21875L4.56738 5.49512L5.49512 4.56738L7.21875 6.29102L8.94238 4.56738L9.87109 5.49512Z"
    fill="currentColor" />
  <path fill-rule="evenodd" clip-rule="evenodd"
    d="M7 0.21875C10.7452 0.21875 13.7812 3.25482 13.7812 7C13.7812 10.7452 10.7452 13.7812 7 13.7812C3.25482 13.7812 0.21875 10.7452 0.21875 7C0.21875 3.25482 3.25482 0.21875 7 0.21875ZM7 1.53125C3.97969 1.53125 1.53125 3.97969 1.53125 7C1.53125 10.0203 3.97969 12.4688 7 12.4688C10.0203 12.4688 12.4688 10.0203 12.4688 7C12.4688 3.97969 10.0203 1.53125 7 1.53125Z"
    fill="currentColor" />
</svg>