<svg xmlns="http://www.w3.org/2000/svg" viewBox="0 0 16 16">
  <path transform="translate(4 4)"
    d="M4,2.94292589 L6.72399867,0.218927217 C7.01590163,-0.0729757389 7.48916983,-0.0729757389 7.78107278,0.218927217 C8.07297574,0.510830172 8.07297574,0.984098373 7.78107278,1.27600133 L5.05707411,4 L7.78107278,6.72399867 C8.07297574,7.01590163 8.07297574,7.48916983 7.78107278,7.78107278 C7.48916983,8.07297574 7.01590163,8.07297574 6.72399867,7.78107278 L4,5.05707411 L1.27600133,7.78107278 C0.984098373,8.07297574 0.510830172,8.07297574 0.218927217,7.78107278 C-0.0729757389,7.48916983 -0.0729757389,7.01590163 0.218927217,6.72399867 L2.94292589,4 L0.218927217,1.27600133 C-0.0729757389,0.984098373 -0.0729757389,0.510830172 0.218927217,0.218927217 C0.510830172,-0.0729757389 0.984098373,-0.0729757389 1.27600133,0.218927217 L4,2.94292589 Z" />
</svg>