<svg xmlns="http://www.w3.org/2000/svg" viewBox="0 0 19 19">
  <path transform="translate(0.5 3)"
    d="M6.57142857,0.9 C9.92467857,0.9 12.6428571,3.61817857 12.6428571,6.97142857 C12.6428571,10.3246786 9.92467857,13.0428571 6.57142857,13.0428571 C3.21817857,13.0428571 0.5,10.3246786 0.5,6.97142857 C0.5,3.61817857 3.21817857,0.9 6.57142857,0.9 Z M7.07738095,8.59047619 L7.07738095,8.06428571 L8.5952381,8.06428571 C8.87466788,8.06428571 9.10119048,7.82870221 9.10119048,7.53809524 C9.10119048,7.24748826 8.87466788,7.01190476 8.5952381,7.01190476 L7.07738095,7.01190476 L7.07738095,6.70366952 L9.45895284,4.22683476 C9.65653953,4.0213446 9.65653953,3.68817921 9.45895284,3.48268905 C9.26136614,3.27719889 8.94101481,3.27719889 8.74342812,3.48268905 L6.57142857,5.74156858 L4.39942903,3.48268905 C4.20184233,3.27719889 3.881491,3.27719889 3.68390431,3.48268905 C3.48631761,3.68817921 3.48631761,4.0213446 3.68390431,4.22683476 L6.06547619,6.70366952 L6.06547619,7.01190476 L4.54761905,7.01190476 C4.26818926,7.01190476 4.04166667,7.24748826 4.04166667,7.53809524 C4.04166667,7.82870221 4.26818926,8.06428571 4.54761905,8.06428571 L6.06547619,8.06428571 L6.06547619,8.59047619 L4.54761905,8.59047619 C4.26818926,8.59047619 4.04166667,8.82605969 4.04166667,9.11666667 C4.04166667,9.40727364 4.26818926,9.64285714 4.54761905,9.64285714 L6.06547619,9.64285714 L6.06547619,10.6952381 C6.06547619,10.9858451 6.29199879,11.2214286 6.57142857,11.2214286 C6.85085836,11.2214286 7.07738095,10.9858451 7.07738095,10.6952381 L7.07738095,9.64285714 L8.5952381,9.64285714 C8.87466788,9.64285714 9.10119048,9.40727364 9.10119048,9.11666667 C9.10119048,8.82605969 8.87466788,8.59047619 8.5952381,8.59047619 L7.07738095,8.59047619 Z M11.1273715,1.29132251 C13.4296572,2.15407257 15.0714286,4.368 15.0714286,6.97142857 C15.0714286,9.57485714 13.4296572,11.7887847 11.1273715,12.6515347 C12.7903358,11.3164276 13.8571429,9.27007143 13.8571429,6.97142857 C13.8571429,4.67278571 12.7903358,2.62642966 11.1273715,1.29132251 Z M13.5559429,1.29132251 C15.8582286,2.15407257 17.5,4.368 17.5,6.97142857 C17.5,9.57485714 15.8582286,11.7887847 13.5559429,12.6515347 C15.2189072,11.3164276 16.2857143,9.27007143 16.2857143,6.97142857 C16.2857143,4.67278571 15.2189072,2.62642966 13.5559429,1.29132251 Z" />
</svg>