<svg viewBox="0 0 17 17" fill="none" xmlns="http://www.w3.org/2000/svg">
  <path fill-rule="evenodd" clip-rule="evenodd"
    d="M12.7949 4.84131C12.4759 6.89811 11.8487 8.66918 10.9248 10.1431C11.6287 11.133 12.5091 12.0345 13.5869 12.8374L13.0479 13.4761C12.0139 12.6621 11.1449 11.7709 10.4629 10.814C9.69291 11.8589 8.74668 12.7394 7.63574 13.4653L7.12988 12.8267C8.28488 12.0567 9.24223 11.1549 9.99023 10.1099C9.01127 8.52592 8.43918 6.77697 8.28516 4.85205H7.84473V4.09326H12.7949V4.84131ZM9.05469 4.85205C9.1867 6.54596 9.64919 8.06382 10.4521 9.40576C11.2441 8.08582 11.7614 6.56795 12.0254 4.85205H9.05469Z"
    fill="currentColor" />
  <path
    d="M6.12891 5.57764H7.58105V6.33643H6.12891V6.96338C6.67891 7.49138 7.23978 8.09732 7.80078 8.75732L7.35059 9.42822C6.87759 8.74622 6.46991 8.19583 6.12891 7.77783V13.4653H5.33691V7.75537C4.94094 8.92131 4.40239 9.9669 3.73145 10.9019L3.37891 10.0112C4.28091 8.93323 4.93043 7.71143 5.31543 6.33643H3.61035V5.57764H5.33691V3.43311H6.12891V5.57764Z"
    fill="currentColor" />
  <path
    d="M14.5 15.3335V16.3335H2.5V15.3335H14.5ZM15.5 14.3335V2.3335C15.5 1.78121 15.0523 1.3335 14.5 1.3335H2.5C1.94772 1.3335 1.5 1.78121 1.5 2.3335V14.3335C1.5 14.8858 1.94772 15.3335 2.5 15.3335V16.3335C1.39543 16.3335 0.5 15.4381 0.5 14.3335V2.3335C0.5 1.22893 1.39543 0.333496 2.5 0.333496H14.5C15.6046 0.333496 16.5 1.22893 16.5 2.3335V14.3335C16.5 15.4381 15.6046 16.3335 14.5 16.3335V15.3335C15.0523 15.3335 15.5 14.8858 15.5 14.3335Z"
    fill="currentColor" fill-opacity="0.5" />
</svg>