<svg viewBox="0 0 16 16" xmlns="http://www.w3.org/2000/svg">
  <path fill-rule="evenodd" clip-rule="evenodd"
    d="M12.3506 4.62793C12.0426 6.61885 11.459 8.33515 10.5791 9.78711C11.2611 10.7331 12.1086 11.5913 13.1426 12.3613L12.4268 13.208C11.4589 12.4271 10.6335 11.5806 9.97363 10.6787C9.2257 11.6575 8.31267 12.4936 7.25684 13.1865L6.58594 12.3398C7.69685 11.6029 8.62071 10.7333 9.34668 9.73242C8.43377 8.20353 7.89477 6.50949 7.71875 4.63965H7.3125V3.63867H12.3506V4.62793ZM8.71973 4.63965C8.85174 6.15748 9.25924 7.54324 9.95215 8.78613C10.645 7.57627 11.1066 6.19043 11.3486 4.63965H8.71973Z"
    fill="currentColor" />
  <path
    d="M5.75 5.12305H7.11426V6.12402H5.75V6.62988C6.289 7.12488 6.82819 7.68673 7.36719 8.30273L6.76172 9.21582C6.37672 8.62182 6.036 8.12621 5.75 7.74121V13.1641H4.71582V7.8623C4.34183 8.90728 3.88058 9.86467 3.30859 10.7227L2.8457 9.53418C3.6817 8.53318 4.28688 7.40002 4.67188 6.12402H3.07715V5.12305H4.71582V3.06641H5.75V5.12305Z"
    fill="currentColor" />
  <path fill-rule="evenodd" clip-rule="evenodd"
    d="M14 0C15.1046 0 16 0.895431 16 2V14C16 15.1046 15.1046 16 14 16H2C0.895431 16 0 15.1046 0 14V2C0 0.895431 0.895431 0 2 0H14ZM2 0.799805C1.33726 0.799805 0.799805 1.33726 0.799805 2V14C0.799805 14.6627 1.33726 15.2002 2 15.2002H14C14.6627 15.2002 15.2002 14.6627 15.2002 14V2C15.2002 1.33726 14.6627 0.799805 14 0.799805H2Z"
    fill="currentColor" />
</svg>