<svg viewBox="0 0 16 16" fill="none" xmlns="http://www.w3.org/2000/svg">
  <path
    d="M10.4688 3.14355C10.3918 3.58341 10.315 4.00132 10.249 4.4082H12.8008V5.41992H10.04C9.96305 5.77189 9.88656 6.11339 9.80957 6.44336H13.0762V7.44434H9.55566C9.4347 7.86221 9.31407 8.25819 9.2041 8.62109H12.6357V9.47949C12.2838 10.1833 11.7561 10.8762 11.0303 11.5801C11.4263 11.8221 11.8001 12.0866 12.1631 12.3506L11.5801 13.252C10.4473 12.3722 9.29224 11.6798 8.10449 11.1738L8.66504 10.3486C9.19303 10.5686 9.6996 10.8217 10.1836 11.0967C10.7555 10.5907 11.2176 10.0729 11.5586 9.54492H7.90625C8.12619 8.87405 8.3245 8.17018 8.52246 7.44434H7.22363V6.44336H8.77539C8.85239 6.09138 8.92886 5.7499 9.00586 5.41992H7.54297V4.4082H9.2041C9.29209 3.95725 9.3693 3.5059 9.44629 3.04395L10.4688 3.14355Z"
    fill="currentColor" />
  <path
    d="M5.38672 3.19824C5.29873 3.61619 5.21104 4.02324 5.12305 4.4082H7.10352V5.41992H4.85938C4.6174 6.25585 4.36384 7.0041 4.08887 7.66406H5.0127V6.11328H6.01367V7.66406H7.1582V8.59961H6.01367V9.85352C6.5086 9.75453 6.98193 9.64416 7.42188 9.53418V10.5244C6.97095 10.6344 6.49759 10.7445 6.01367 10.8545V13.1973H5.0127V11.0527C4.37484 11.1627 3.70357 11.2724 3.01074 11.3604L2.87891 10.3369C3.62677 10.2489 4.3418 10.15 5.0127 10.04V8.59961H3.25293L3.0332 7.67578C3.3192 7.08178 3.59368 6.33292 3.84668 5.41992H2.87891V4.4082H4.11133C4.2103 3.97933 4.30949 3.52851 4.39746 3.05566L5.38672 3.19824Z"
    fill="currentColor" />
  <path fill-rule="evenodd" clip-rule="evenodd"
    d="M14 0C15.1046 0 16 0.895431 16 2V14C16 15.1046 15.1046 16 14 16H2C0.895431 16 0 15.1046 0 14V2C0 0.895431 0.895431 0 2 0H14ZM2 0.799805C1.33726 0.799805 0.799805 1.33726 0.799805 2V14C0.799805 14.6627 1.33726 15.2002 2 15.2002H14C14.6627 15.2002 15.2002 14.6627 15.2002 14V2C15.2002 1.33726 14.6627 0.799805 14 0.799805H2Z"
    fill="currentColor" />
</svg>