<svg viewBox="0 0 17 17" fill="none" xmlns="http://www.w3.org/2000/svg">
  <path
    d="M5.77734 3.51025C5.67838 3.98308 5.57943 4.43394 5.48047 4.86279H7.57031V5.6333H5.28223C5.01826 6.57911 4.73178 7.40376 4.42383 8.11865H5.63379V6.44678H6.39355V8.11865H7.61426V8.8335H6.39355V10.3413C6.93235 10.2313 7.43804 10.1097 7.92188 9.98877V10.7368C7.42708 10.8688 6.92133 11.0009 6.39355 11.1108V13.4976H5.63379V11.2651C4.9519 11.3861 4.24787 11.4962 3.5 11.5952L3.40137 10.814C4.19316 10.715 4.92996 10.6049 5.63379 10.4839V8.8335H3.78613L3.62109 8.12939C3.93997 7.46957 4.23681 6.64488 4.51172 5.6333H3.41211V4.86279H4.70996C4.81996 4.4008 4.9193 3.90589 5.0293 3.3999L5.77734 3.51025Z"
    fill="currentColor" />
  <path
    d="M10.8477 3.45459C10.7597 3.93859 10.6827 4.41179 10.5947 4.86279H13.2686V5.6333H10.4414L10.1553 6.89795H13.543V7.65674H9.96777C9.83577 8.16274 9.6928 8.6252 9.5498 9.0542H13.0596V9.71338C12.6856 10.4613 12.113 11.2096 11.332 11.9575C11.783 12.2325 12.2122 12.5187 12.6191 12.8267L12.1787 13.4976C11.0349 12.6178 9.85822 11.9136 8.64844 11.4077L9.06641 10.7808C9.63833 11.0227 10.1777 11.2975 10.6836 11.5835C11.3433 11.0007 11.8602 10.396 12.2451 9.7583H8.56055C8.78055 9.0763 8.98878 8.38274 9.17578 7.65674H7.75684V6.89795H9.36328C9.46225 6.46908 9.56143 6.05118 9.64941 5.6333H8.07617V4.86279H9.80273C9.89073 4.37879 9.97938 3.88344 10.0674 3.37744L10.8477 3.45459Z"
    fill="currentColor" />
  <path
    d="M14.5 15.3335V16.3335H2.5V15.3335H14.5ZM15.5 14.3335V2.3335C15.5 1.78121 15.0523 1.3335 14.5 1.3335H2.5C1.94772 1.3335 1.5 1.78121 1.5 2.3335V14.3335C1.5 14.8858 1.94772 15.3335 2.5 15.3335V16.3335C1.39543 16.3335 0.5 15.4381 0.5 14.3335V2.3335C0.5 1.22893 1.39543 0.333496 2.5 0.333496H14.5C15.6046 0.333496 16.5 1.22893 16.5 2.3335V14.3335C16.5 15.4381 15.6046 16.3335 14.5 16.3335V15.3335C15.0523 15.3335 15.5 14.8858 15.5 14.3335Z"
    fill="currentColor" fill-opacity="0.5" />
</svg>