<?xml version="1.0" encoding="UTF-8"?>
<svg viewBox="0 0 32 32" version="1.1" xmlns="http://www.w3.org/2000/svg" xmlns:xlink="http://www.w3.org/1999/xlink" preserveAspectRatio="xMidYMid meet">
    <g stroke="none" stroke-width="1" fill="none" fill-rule="evenodd">
        <g>
            <path
                d="M20.8,19.2 L20.8,9.6 C20.8,8.7163444 20.0836556,8 19.2,8 L9.6,8 C8.7163444,8 8,8.7163444 8,9.6 L8,19.2 C8,20.0836556 8.7163444,20.8 9.6,20.8 L19.2,20.8 C20.0836556,20.8 20.8,20.0836556 20.8,19.2 Z M9.6,9.6 L19.2,9.6 L19.2,19.2 L9.6,19.2 L9.6,9.6 Z M22.4,11.2 L22.4,20.8 C22.4,21.6836556 21.6836556,22.4 20.8,22.4 L11.2,22.4 C11.2,23.2836556 11.9163444,24 12.8,24 L20.8,24 C22.5673112,24 24,22.5673112 24,20.8 L24,12.8 C24,11.9163444 23.2836556,11.2 22.4,11.2 Z"
                fill="currentColor"></path>
        </g>
    </g>
</svg>