<svg xmlns="http://www.w3.org/2000/svg" viewBox="0 0 16 16">
  <path
    d="M8.6,6.4 C9.15228475,6.4 9.6,6.84771525 9.6,7.4 L9.6,14 C9.6,14.5522847 9.15228475,15 8.6,15 L2,15 C1.44771525,15 1,14.5522847 1,14 L1,7.4 C1,6.84771525 1.44771525,6.4 2,6.4 L8.6,6.4 Z M10.602081,3.6 C11.4845873,3.6 12.2,4.3163444 12.2,5.2 L12.2,12.2524909 C12.2,12.5838618 11.9317202,12.8524909 11.6007804,12.8524909 C11.2698405,12.8524909 11.0015608,12.5838618 11.0015608,12.2524909 L11.0015608,5.2 C11.0015608,4.9790861 10.8227076,4.8 10.602081,4.8 L4.19921962,4.8 L4.09051765,4.79209589 C3.40207183,4.68843537 3.43830582,3.6 4.19921962,3.6 L10.602081,3.6 Z M13.402081,1 C14.2845873,1 15,1.7163444 15,2.6 L15,9.65249092 C15,9.98386177 14.7317202,10.2524909 14.4007804,10.2524909 C14.0698405,10.2524909 13.8015608,9.98386177 13.8015608,9.65249092 L13.8015608,2.6 C13.8015608,2.3790861 13.6227076,2.2 13.402081,2.2 L6.99921962,2.2 L6.89051765,2.19209589 C6.20207183,2.08843537 6.23830582,1 6.99921962,1 L13.402081,1 Z" />
</svg>