<svg viewBox="0 0 16 16" xmlns="http://www.w3.org/2000/svg">
  <path
    d="M0 2C0 0.895431 0.895431 0 2 0H14C15.1046 0 16 0.895431 16 2V14C16 15.1046 15.1046 16 14 16H2C0.895431 16 0 15.1046 0 14V2Z"
    fill="currentColor" fill-opacity="0.2" />
  <path
    d="M12.6689 8.95117H9.28027L9.00586 9.85352H12.2285C12.1516 11.4147 11.9869 12.3385 11.7451 12.625C11.5031 12.9 11.0187 13.0439 10.3037 13.0439C10.0289 13.0439 9.78702 13.0107 9.57812 12.9668L9.24805 12.0869C9.5558 12.1419 9.84165 12.1748 10.1055 12.1748C10.5455 12.1748 10.8099 12.0866 10.9199 11.9326C11.0189 11.7676 11.0956 11.3825 11.1396 10.7666H7.78516L8.24707 8.95117H7.17969V8.0498H12.6689V8.95117Z"
    fill="currentColor" />
  <path fill-rule="evenodd" clip-rule="evenodd"
    d="M10.4023 3.07715C10.3253 3.42915 10.2379 3.77059 10.1279 4.10059H12.7129V5.03516H11.1729C11.6128 5.82714 12.2836 6.45474 13.1855 6.92773L12.7461 7.84082C12.1742 7.49986 11.6902 7.11424 11.2832 6.69629V7.18066H8.57715V6.72949C8.13715 7.18049 7.64134 7.56551 7.06934 7.89551L6.58594 7.01562C6.59693 7.00463 6.60815 6.99316 6.61914 6.99316H5.80469V8.52246H6.82812V9.49023H5.80469V11.2285C6.23369 11.0965 6.64111 10.9535 7.03711 10.8105V11.8115C5.93721 12.2075 4.67203 12.5816 3.24219 12.9336L2.94434 11.9766L3.37402 11.8779V7.9834H4.27539V11.6572C4.46239 11.6132 4.64991 11.5586 4.83691 11.5146V6.99316H3.40723V3.36328H6.78418V6.89453C7.57605 6.39956 8.20309 5.78307 8.66504 5.03516H7.19043V4.10059H9.1377C9.28065 3.73769 9.39053 3.36365 9.47852 2.96777L10.4023 3.07715ZM9.74316 5.03516C9.51226 5.49697 9.24802 5.91518 8.95117 6.28906H10.9199C10.59 5.89311 10.3364 5.4751 10.1494 5.03516H9.74316ZM4.38574 6.04785H5.80469V4.30957H4.38574V6.04785Z"
    fill="currentColor" />
</svg>