<?xml version="1.0" encoding="UTF-8"?>
<svg viewBox="0 0 31 16" version="1.1" xmlns="http://www.w3.org/2000/svg" xmlns:xlink="http://www.w3.org/1999/xlink">
    <g stroke="none" stroke-width="1" fill="none" fill-rule="evenodd">
        <g>
            <rect fill="#D3BB99" x="0" y="0" width="31" height="16" rx="2"></rect>
            <path
                d="M3.998,14 L26.998,14 L26.998,15 L3.998,15 L3.998,14 Z M3.998,1 L26.998,1 L26.998,2 L3.998,2 L3.998,1 Z"
                fill="#151B24" fill-rule="nonzero"></path>
            <g transform="translate(4.516, 3)" fill="#151B24" fill-rule="nonzero">
                <path
                    d="M5.08267544,1.98777193 C4.71732456,2.78294737 4.1370614,3.4169386 3.35263158,3.90049123 L4.16929825,4.59895614 C4.93223684,4.08316667 5.55548246,3.33097368 6.02828947,2.36386842 L5.08267544,1.98777193 Z M7.38223684,1.90180702 L6.55482456,2.41759649 C7.28552632,3.20202632 7.86578947,3.91123684 8.28486842,4.55597368 L9.1875,3.93272807 C8.76842105,3.35246491 8.16666667,2.67549123 7.38223684,1.90180702 Z M0.999342105,0.204 L0.247149123,0.92395614 C1.11754386,1.51496491 1.78377193,2.06299123 2.25657895,2.5787807 L2.99802632,1.82658772 C2.45,1.28930702 1.78377193,0.741280702 0.999342105,0.204 Z M0.741447368,2.71847368 L0,3.44917544 C0.816666667,4.04018421 1.43991228,4.58821053 1.89122807,5.104 L2.63267544,4.36255263 C2.11688596,3.81452632 1.49364035,3.2665 0.741447368,2.71847368 Z M2.00942982,5.77022807 C1.49364035,7.03821053 0.870394737,8.27395614 0.161184211,9.48821053 L1.20350877,9.95027193 C1.8375,8.76825439 2.41776316,7.50027193 2.93355263,6.14632456 L2.00942982,5.77022807 Z M4.92149123,6.1785614 C4.38421053,7.10268421 3.57828947,7.86562281 2.50372807,8.47812281 L3.08399123,9.43448246 C4.29824561,8.57483333 5.19013158,7.48952632 5.74890351,6.1785614 L5.82412281,6.1785614 L5.82412281,10.004 L6.89868421,10.004 L6.89868421,6.1785614 L6.98464912,6.1785614 C7.43596491,7.33908772 8.18815789,8.39215789 9.25197368,9.33777193 L9.97192982,8.43514035 C8.98333333,7.76891228 8.25263158,7.0167193 7.80131579,6.1785614 L9.59583333,6.1785614 L9.59583333,5.15772807 L6.89868421,5.15772807 L6.89868421,4.11540351 L5.82412281,4.11540351 L5.82412281,5.15772807 L3.14846491,5.15772807 L3.14846491,6.1785614 L4.92149123,6.1785614 Z M9.44539474,0.440403509 L3.28815789,0.440403509 L3.28815789,2.64325439 L4.33048246,2.64325439 L4.33048246,1.45049123 L8.39232456,1.45049123 L8.39232456,2.60027193 L9.44539474,2.60027193 L9.44539474,0.440403509 Z M14.2498193,5.90860786 L14.2498193,6.8544102 L14.9830818,6.8544102 C15.4081615,7.38575983 15.9288842,7.8639745 16.5452497,8.2890542 C15.6419554,8.61849097 14.6217641,8.8629118 13.4846759,9.01168969 L13.9628905,10 C15.3550266,9.76620616 16.5877577,9.40488842 17.650457,8.91604676 C18.6493943,9.40488842 19.8608714,9.76620616 21.2636344,10 L21.7418491,9.02231668 C20.6047609,8.87353879 19.5951966,8.65037194 18.7237832,8.33156217 C19.4464187,7.87460149 20.0627843,7.34325186 20.5835069,6.72688629 L20.5835069,5.90860786 L14.2498193,5.90860786 Z M16.194559,6.8544102 L19.074474,6.8544102 C18.6281403,7.21572795 18.1286716,7.54516472 17.576068,7.83209352 C17.0447184,7.55579171 16.5877577,7.22635494 16.194559,6.8544102 Z M13.8566206,3.75132837 L15.3656536,3.75132837 L15.3656536,5.38788523 L19.8821254,5.38788523 L19.8821254,3.75132837 L21.4549203,3.75132837 L21.4549203,2.73113709 L19.8821254,2.73113709 L19.8821254,2.06163656 L18.8087991,2.06163656 L18.8087991,2.73113709 L16.4496068,2.73113709 L16.4496068,2.07226355 L15.3656536,2.07226355 L15.3656536,2.73113709 L13.8566206,2.73113709 L13.8566206,1.83846971 L21.4549203,1.83846971 L21.4549203,0.797024442 L17.9055048,0.797024442 C17.7992349,0.49946865 17.6823379,0.233793836 17.576068,0 L16.3964718,0.191285866 C16.5239957,0.382571732 16.6408927,0.584484591 16.7471626,0.797024442 L12.7514134,0.797024442 L12.7514134,4.25079702 C12.7301594,6.33368757 12.4326036,7.97024442 11.88,9.1392136 L12.7195324,9.89373007 C13.4421679,8.46971307 13.8141126,6.58873539 13.8566206,4.25079702 L13.8566206,3.75132837 Z M16.4496068,3.75132837 L18.8087991,3.75132837 L18.8087991,4.47396387 L16.4496068,4.47396387 L16.4496068,3.75132837 Z">
                </path>
            </g>
        </g>
    </g>
</svg>