<svg viewBox="0 0 16 16" fill="none" xmlns="http://www.w3.org/2000/svg">
  <path
    d="M5.57422 10.9531C5.61822 10.9971 5.67352 11.0414 5.72852 11.1074C5.97041 11.4042 6.23392 11.6246 6.50879 11.7676C6.82779 11.9216 7.30145 12.02 7.93945 12.042C8.55534 12.053 9.28116 12.0645 10.1279 12.0645C10.6559 12.0645 11.2066 12.053 11.7676 12.042C12.3173 12.031 12.7461 12.0093 13.043 11.9873L12.79 13.0215H10.2715C9.67748 13.0215 9.02796 13.01 8.33496 12.999C7.63119 12.988 7.05932 12.9224 6.6084 12.8125C6.1684 12.6805 5.79387 12.416 5.46387 12.042C5.32097 11.8552 5.18856 11.7676 5.05664 11.7676C4.83656 11.7683 4.44042 12.2628 3.87988 13.252L3.11035 12.5371C3.66017 11.6465 4.15484 11.0853 4.59473 10.8652V7.75195H3.11035V6.78418H5.57422V10.9531Z"
    fill="currentColor" />
  <path
    d="M9.79785 4.19922H12.416V5.13477H9.79785V6.01465H12.1299V6.92773H9.79785V7.8291H12.6143C12.5813 9.12694 12.4816 9.95189 12.3057 10.293C12.1077 10.711 11.6457 10.9206 10.9307 10.9316C10.7769 10.9316 10.6122 10.9097 10.4365 10.8877L10.1387 9.99609C10.4027 10.0291 10.6235 10.0518 10.8105 10.0518C11.1733 10.0407 11.4042 9.93033 11.4922 9.73242C11.5472 9.58945 11.5805 9.27049 11.6025 8.76465H9.79785V11.624H8.78613V8.76465H6.17871V7.8291H8.78613V6.92773H6.69629V6.01465H8.78613V5.13477H6.26758V4.19922H8.78613V3.0332H9.79785V4.19922Z"
    fill="currentColor" />
  <path
    d="M3.97949 3.16504C4.70546 3.73702 5.32117 4.30986 5.82715 4.88184L5.0791 5.62891C4.65011 5.07899 4.04479 4.49629 3.25293 3.8584L3.97949 3.16504Z"
    fill="currentColor" />
  <path fill-rule="evenodd" clip-rule="evenodd"
    d="M14 0C15.1046 0 16 0.895431 16 2V14C16 15.1046 15.1046 16 14 16H2C0.895431 16 0 15.1046 0 14V2C0 0.895431 0.895431 0 2 0H14ZM2 1.2002C1.55817 1.2002 1.2002 1.55817 1.2002 2V14C1.2002 14.4418 1.55817 14.7998 2 14.7998H14C14.4418 14.7998 14.7998 14.4418 14.7998 14V2C14.7998 1.55817 14.4418 1.2002 14 1.2002H2Z"
    fill="currentColor" />
</svg>