<svg viewBox="0 0 17 17" fill="none" xmlns="http://www.w3.org/2000/svg">
  <path
    d="M5.95264 11.353C6.04064 11.419 6.12928 11.507 6.21729 11.606C6.48125 11.9249 6.75601 12.1563 7.06396 12.2993C7.39392 12.4533 7.88901 12.541 8.52686 12.563C9.09875 12.574 9.81385 12.5845 10.6606 12.5845C11.1775 12.5845 11.7058 12.574 12.2446 12.563C12.7726 12.552 13.1911 12.541 13.4771 12.519L13.2905 13.311H10.771C10.1771 13.311 9.52828 13.2996 8.83545 13.2886C8.13164 13.2776 7.57032 13.2122 7.13037 13.0913C6.70137 12.9593 6.3161 12.6836 5.9751 12.2876C5.83215 12.1007 5.68908 12.0132 5.55713 12.0132C5.29314 12.0132 4.86423 12.5189 4.25928 13.5308L3.66553 12.9917C4.24845 12.0679 4.76536 11.5071 5.21631 11.3091V7.96533H3.64307V7.23877H5.95264V11.353Z"
    fill="currentColor" />
  <path
    d="M10.1772 4.65381H12.8833V5.36865H10.1772V6.46924H12.5972V7.16162H10.1772V8.26221H13.0044C12.9824 9.42785 12.8944 10.1868 12.7515 10.5278C12.5755 10.9678 12.1239 11.1992 11.3979 11.2212C11.266 11.2212 11.1011 11.21 10.9253 11.188L10.6938 10.5054C10.9358 10.5274 11.1341 10.5503 11.3101 10.5503C11.75 10.5393 12.0255 10.385 12.1245 10.0991C12.1905 9.91214 12.2229 9.53794 12.2339 8.97705H10.1772V12.0347H9.40674V8.97705H6.7124V8.26221H9.40674V7.16162H7.229V6.46924H9.40674V5.36865H6.80029V4.65381H9.40674V3.41064H10.1772V4.65381Z"
    fill="currentColor" />
  <path
    d="M4.38037 3.59814C5.11724 4.17006 5.74456 4.7313 6.25049 5.30322L5.67822 5.86377C5.23824 5.32478 4.62228 4.74173 3.84131 4.11475L4.38037 3.59814Z"
    fill="currentColor" />
  <path
    d="M14.5 15.3335V16.3335H2.5V15.3335H14.5ZM15.5 14.3335V2.3335C15.5 1.78121 15.0523 1.3335 14.5 1.3335H2.5C1.94772 1.3335 1.5 1.78121 1.5 2.3335V14.3335C1.5 14.8858 1.94772 15.3335 2.5 15.3335V16.3335C1.39543 16.3335 0.5 15.4381 0.5 14.3335V2.3335C0.5 1.22893 1.39543 0.333496 2.5 0.333496H14.5C15.6046 0.333496 16.5 1.22893 16.5 2.3335V14.3335C16.5 15.4381 15.6046 16.3335 14.5 16.3335V15.3335C15.0523 15.3335 15.5 14.8858 15.5 14.3335Z"
    fill="currentColor" fill-opacity="0.5" />
</svg>