<svg viewBox="0 0 16 16" fill="none" xmlns="http://www.w3.org/2000/svg">
  <path
    d="M0 2C0 0.895431 0.895431 0 2 0H14C15.1046 0 16 0.895431 16 2V14C16 15.1046 15.1046 16 14 16H2C0.895431 16 0 15.1046 0 14V2Z"
    fill="currentColor" fill-opacity="0.2" />
  <path fill-rule="evenodd" clip-rule="evenodd"
    d="M9.59961 2.91211C9.75361 3.24211 9.89704 3.61644 10.04 4.02344H12.7461V7.02637H7.13574C7.09174 9.34737 6.66263 11.3499 5.84863 13.0439L5.15527 12.4277V13.1426H4.1543V7.26855C3.87942 7.64238 3.59373 8.01632 3.29688 8.36816L2.98828 7.32324C3.92328 6.08024 4.61638 4.62805 5.06738 2.95605L6.00293 3.39648C5.78293 4.15548 5.49627 4.88122 5.15527 5.57422V12.2627C5.85927 10.7997 6.21165 8.94051 6.22266 6.68555V4.02344H9.0166C8.87364 3.68254 8.71939 3.3748 8.56543 3.08887L9.59961 2.91211ZM7.14648 6.13574H11.8213V4.93652H7.14648V6.13574Z"
    fill="currentColor" />
  <path fill-rule="evenodd" clip-rule="evenodd"
    d="M12.7783 12.3398C12.7782 12.8236 12.4926 13.0761 11.9209 13.0762H11.4473L11.2383 12.3066L11.6572 12.3398C11.8109 12.3397 11.8876 12.2734 11.8877 12.1416V10.7881H11.1182V12.8896H10.3809V10.7881H9.64355V12.8896H8.90723V10.7881H8.13672V13.0654H7.27832V7.8623H12.7783V12.3398ZM8.13672 9.95215H8.90723V8.6875H8.13672V9.95215ZM9.64355 9.95215H10.3809V8.6875H9.64355V9.95215ZM11.1182 9.95215H11.8877V8.6875H11.1182V9.95215Z"
    fill="currentColor" />
</svg>