<svg width="16" height="16" viewBox="0 0 16 16" fill="none" xmlns="http://www.w3.org/2000/svg">
  <path
    d="M5.62988 8.76758C5.60588 10.0996 5.38986 11.1562 5.00586 11.9482C4.62184 12.6921 3.9862 13.2685 3.11035 13.6885L2.64258 12.9561C3.4704 12.5601 4.04682 12.0444 4.38281 11.3965C4.69481 10.7245 4.85002 9.84758 4.87402 8.76758V4.80762H5.62988V8.76758Z"
    fill="currentColor" />
  <path fill-rule="evenodd" clip-rule="evenodd"
    d="M10.79 4.87988H13.5508V5.69629H10.79V8.03613H13.0586V13.6641H12.2305V13.124H9.02637V13.6641H8.20996V8.03613H9.93848V2.69629H10.79V4.87988ZM9.02637 12.3076H12.2305V8.83984H9.02637V12.3076Z"
    fill="currentColor" />
  <path
    d="M6.03809 11.0479C6.71009 11.7199 7.26275 12.38 7.71875 13.04L7.09473 13.6523C6.69874 13.0044 6.15857 12.3199 5.47461 11.5879L6.03809 11.0479Z"
    fill="currentColor" />
  <path d="M7.40625 10.6885H6.62598V3.96777H3.90234V10.6885H3.11035V3.17578H7.40625V10.6885Z" fill="currentColor" />
  <path
    d="M14 15V16H2V15H14ZM15 14V2C15 1.44772 14.5523 1 14 1H2C1.44772 1 1 1.44772 1 2V14C1 14.5523 1.44772 15 2 15V16C0.895431 16 0 15.1046 0 14V2C0 0.895431 0.895431 0 2 0H14C15.1046 0 16 0.895431 16 2V14C16 15.1046 15.1046 16 14 16V15C14.5523 15 15 14.5523 15 14Z"
    fill="currentColor" fill-opacity="0.5" />
</svg>