<svg viewBox="0 0 20 20" fill="none" xmlns="http://www.w3.org/2000/svg">
  <path
    d="M10.4219 0.408691L10.4258 0.412598C10.4289 0.41531 10.4338 0.419653 10.4404 0.425293C10.4537 0.436633 10.4737 0.453884 10.5 0.476074C10.5526 0.52051 10.6305 0.585123 10.7285 0.665527C10.9248 0.826539 11.2027 1.04964 11.5264 1.29443C12.1821 1.7903 12.9954 2.3534 13.6982 2.69482C14.4058 3.03853 15.4552 3.37882 16.3574 3.63818C16.8023 3.76608 17.201 3.87152 17.4883 3.94482C17.6318 3.98145 17.7479 4.00949 17.8271 4.02881C17.8664 4.03839 17.8966 4.0464 17.917 4.05127C17.9272 4.05371 17.9354 4.05496 17.9404 4.05615C17.9429 4.05675 17.9451 4.05783 17.9463 4.05811H17.9473L18.4443 4.17432V11.6167C18.4443 13.4714 17.4968 15.1978 15.9316 16.1929L10 19.9634L4.06836 16.1929C2.50333 15.1978 1.55566 13.4713 1.55566 11.6167V4.17432L2.05273 4.05811H2.05469C2.05583 4.05784 2.05734 4.05668 2.05957 4.05615C2.0646 4.05496 2.0728 4.05371 2.08301 4.05127C2.10336 4.0464 2.13353 4.0384 2.17285 4.02881C2.25206 4.00949 2.36817 3.98145 2.51172 3.94482C2.79901 3.87152 3.1976 3.76611 3.64258 3.63818C4.54472 3.37884 5.59415 3.03852 6.30176 2.69482C7.00479 2.35332 7.81878 1.79039 8.47461 1.29443C8.79827 1.04968 9.07517 0.826531 9.27148 0.665527C9.36951 0.585135 9.44737 0.520517 9.5 0.476074C9.52628 0.453886 9.5463 0.436642 9.55957 0.425293C9.56616 0.419661 9.57105 0.415323 9.57422 0.412598C9.5758 0.411236 9.57744 0.410263 9.57812 0.409668V0.408691L10 0.0444336L10.4219 0.408691ZM14.2803 7.58545C13.9271 7.25578 13.3786 7.25573 13.0254 7.58545L8.91699 11.4214C8.87856 11.4571 8.81863 11.4572 8.78027 11.4214L6.97461 9.73486C6.62141 9.40512 6.07293 9.40512 5.71973 9.73486C5.33052 10.0982 5.33055 10.7152 5.71973 11.0786L8.16699 13.3628C8.55123 13.7213 9.14708 13.7214 9.53125 13.3628L14.2803 8.9292C14.6694 8.56578 14.6695 7.94879 14.2803 7.58545Z"
    fill="currentColor" />
  <path
    d="M10.4219 0.408691L10.4258 0.412598C10.4289 0.41531 10.4338 0.419653 10.4404 0.425293C10.4537 0.436633 10.4737 0.453884 10.5 0.476074C10.5526 0.52051 10.6305 0.585123 10.7285 0.665527C10.9248 0.826539 11.2027 1.04964 11.5264 1.29443C12.1821 1.7903 12.9954 2.3534 13.6982 2.69482C14.4058 3.03853 15.4552 3.37882 16.3574 3.63818C16.8023 3.76608 17.201 3.87152 17.4883 3.94482C17.6318 3.98145 17.7479 4.00949 17.8271 4.02881C17.8664 4.03839 17.8966 4.0464 17.917 4.05127C17.9272 4.05371 17.9354 4.05496 17.9404 4.05615C17.9429 4.05675 17.9451 4.05783 17.9463 4.05811H17.9473L18.4443 4.17432V11.6167C18.4443 13.4714 17.4968 15.1978 15.9316 16.1929L10 19.9634L4.06836 16.1929C2.50333 15.1978 1.55566 13.4713 1.55566 11.6167V4.17432L2.05273 4.05811H2.05469C2.05583 4.05784 2.05734 4.05668 2.05957 4.05615C2.0646 4.05496 2.0728 4.05371 2.08301 4.05127C2.10336 4.0464 2.13353 4.0384 2.17285 4.02881C2.25206 4.00949 2.36817 3.98145 2.51172 3.94482C2.79901 3.87152 3.1976 3.76611 3.64258 3.63818C4.54472 3.37884 5.59415 3.03852 6.30176 2.69482C7.00479 2.35332 7.81878 1.79039 8.47461 1.29443C8.79827 1.04968 9.07517 0.826531 9.27148 0.665527C9.36951 0.585135 9.44737 0.520517 9.5 0.476074C9.52628 0.453886 9.5463 0.436642 9.55957 0.425293C9.56616 0.419661 9.57105 0.415323 9.57422 0.412598C9.5758 0.411236 9.57744 0.410263 9.57812 0.409668V0.408691L10 0.0444336L10.4219 0.408691ZM14.2803 7.58545C13.9271 7.25578 13.3786 7.25573 13.0254 7.58545L8.91699 11.4214C8.87856 11.4571 8.81863 11.4572 8.78027 11.4214L6.97461 9.73486C6.62141 9.40512 6.07293 9.40512 5.71973 9.73486C5.33052 10.0982 5.33055 10.7152 5.71973 11.0786L8.16699 13.3628C8.55123 13.7213 9.14708 13.7214 9.53125 13.3628L14.2803 8.9292C14.6694 8.56578 14.6695 7.94879 14.2803 7.58545Z"
    fill="white" fill-opacity="0.2" />
</svg>