<svg xmlns="http://www.w3.org/2000/svg" viewBox="0 0 16 16">
  <g fill="currentColor">
    <path
      d="M7.86206897,0 C6.71941086,0 5.79310345,0.910607289 5.79310345,2.03389831 C5.79310345,3.15718932 6.71941086,4.06779661 7.86206897,4.06779661 C9.00472707,4.06779661 9.93103448,3.15718932 9.93103448,2.03389831 C9.93103448,0.910607289 9.00472707,0 7.86206897,0 Z M12.2510345,1.85491525 C11.146465,1.85491525 10.2510345,2.73516897 10.2510345,3.82101695 C10.2510345,4.90686493 11.146465,5.78711864 12.2510345,5.78711864 C13.355604,5.78711864 14.2510345,4.90686493 14.2510345,3.82101695 C14.2510345,2.73516897 13.355604,1.85491525 12.2510345,1.85491525 Z M3.47310345,2.26169492 C2.59706557,2.26169492 1.88689655,2.95982717 1.88689655,3.82101695 C1.88689655,4.68220673 2.59706557,5.38033898 3.47310345,5.38033898 C4.34914133,5.38033898 5.05931034,4.68220673 5.05931034,3.82101695 C5.05931034,2.95982717 4.34914133,2.26169492 3.47310345,2.26169492 Z">
    </path>
    <path
      d="M14.0689655,6.23728814 C13.0024846,6.23728814 12.137931,7.08718827 12.137931,8.13559322 C12.137931,9.18399817 13.0024846,10.0338983 14.0689655,10.0338983 C15.1354464,10.0338983 16,9.18399817 16,8.13559322 C16,7.08718827 15.1354464,6.23728814 14.0689655,6.23728814 Z"
      opacity="0.85"></path>
    <path
      d="M12.2510345,10.619661 C11.2226422,10.619661 10.3889655,11.4392076 10.3889655,12.4501695 C10.3889655,13.4611314 11.2226422,14.280678 12.2510345,14.280678 C13.2794268,14.280678 14.1131034,13.4611314 14.1131034,12.4501695 C14.1131034,11.4392076 13.2794268,10.619661 12.2510345,10.619661 Z"
      opacity="0.7"></path>
    <path
      d="M7.86206897,12.4745763 C6.87176528,12.4745763 6.06896552,13.2637693 6.06896552,14.2372881 C6.06896552,15.210807 6.87176528,16 7.86206897,16 C8.85237265,16 9.65517241,15.210807 9.65517241,14.2372881 C9.65517241,13.2637693 8.85237265,12.4745763 7.86206897,12.4745763 Z"
      opacity="0.55"></path>
    <path
      d="M3.47310345,10.7552542 C2.52088836,10.7552542 1.74896552,11.5140936 1.74896552,12.4501695 C1.74896552,13.3862453 2.52088836,14.1450847 3.47310345,14.1450847 C4.42531853,14.1450847 5.19724138,13.3862453 5.19724138,12.4501695 C5.19724138,11.5140936 4.42531853,10.7552542 3.47310345,10.7552542 Z"
      opacity="0.4"></path>
    <path
      d="M1.65517241,6.50847458 C0.741045931,6.50847458 0,7.23696041 0,8.13559322 C0,9.03422603 0.741045931,9.76271186 1.65517241,9.76271186 C2.5692989,9.76271186 3.31034483,9.03422603 3.31034483,8.13559322 C3.31034483,7.23696041 2.5692989,6.50847458 1.65517241,6.50847458 Z"
      opacity="0.25"></path>
  </g>
</svg>