<svg xmlns="http://www.w3.org/2000/svg" viewBox="0 0 18 18">
  <path
    d="M2.64705882,12.7058824 C4.10898904,12.7058824 5.29411765,13.891011 5.29411765,15.3529412 C5.29411765,16.8148714 4.10898904,18 2.64705882,18 C1.1851286,18 -4.28833439e-13,16.8148714 -4.28833439e-13,15.3529412 C-4.28833439e-13,13.891011 1.1851286,12.7058824 2.64705882,12.7058824 Z M9,12.7058824 C10.4619302,12.7058824 11.6470588,13.891011 11.6470588,15.3529412 C11.6470588,16.8148714 10.4619302,18 9,18 C7.53806978,18 6.35294118,16.8148714 6.35294118,15.3529412 C6.35294118,13.891011 7.53806978,12.7058824 9,12.7058824 Z M15.3529412,12.7058824 C16.8148714,12.7058824 18,13.891011 18,15.3529412 C18,16.8148714 16.8148714,18 15.3529412,18 C13.891011,18 12.7058824,16.8148714 12.7058824,15.3529412 C12.7058824,13.891011 13.891011,12.7058824 15.3529412,12.7058824 Z M2.64705882,14.2766645 C2.05264764,14.2766645 1.57078216,14.75853 1.57078216,15.3529412 C1.57078216,15.9473524 2.05264764,16.4292178 2.64705882,16.4292178 C3.24147001,16.4292178 3.72333549,15.9473524 3.72333549,15.3529412 C3.72333549,14.75853 3.24147001,14.2766645 2.64705882,14.2766645 Z M9,14.2766645 C8.40558881,14.2766645 7.92372334,14.75853 7.92372334,15.3529412 C7.92372334,15.9473524 8.40558881,16.4292178 9,16.4292178 C9.59441119,16.4292178 10.0762767,15.9473524 10.0762767,15.3529412 C10.0762767,14.75853 9.59441119,14.2766645 9,14.2766645 Z M15.3529412,14.2766645 C14.75853,14.2766645 14.2766645,14.75853 14.2766645,15.3529412 C14.2766645,15.9473524 14.75853,16.4292178 15.3529412,16.4292178 C15.9473524,16.4292178 16.4292178,15.9473524 16.4292178,15.3529412 C16.4292178,14.75853 15.9473524,14.2766645 15.3529412,14.2766645 Z M2.64705882,6.35294118 C4.10898904,6.35294118 5.29411765,7.53806978 5.29411765,9 C5.29411765,10.4619302 4.10898904,11.6470588 2.64705882,11.6470588 C1.1851286,11.6470588 -4.28833439e-13,10.4619302 -4.28833439e-13,9 C-4.28833439e-13,7.53806978 1.1851286,6.35294118 2.64705882,6.35294118 Z M9,6.35294118 C10.4619302,6.35294118 11.6470588,7.53806978 11.6470588,9 C11.6470588,10.4619302 10.4619302,11.6470588 9,11.6470588 C7.53806978,11.6470588 6.35294118,10.4619302 6.35294118,9 C6.35294118,7.53806978 7.53806978,6.35294118 9,6.35294118 Z M15.3529412,6.35294118 C16.8148714,6.35294118 18,7.53806978 18,9 C18,10.4619302 16.8148714,11.6470588 15.3529412,11.6470588 C13.891011,11.6470588 12.7058824,10.4619302 12.7058824,9 C12.7058824,7.53806978 13.891011,6.35294118 15.3529412,6.35294118 Z M2.64705882,7.92372334 C2.05264764,7.92372334 1.57078216,8.40558881 1.57078216,9 C1.57078216,9.59441119 2.05264764,10.0762767 2.64705882,10.0762767 C3.24147001,10.0762767 3.72333549,9.59441119 3.72333549,9 C3.72333549,8.40558881 3.24147001,7.92372334 2.64705882,7.92372334 Z M9,7.92372334 C8.40558881,7.92372334 7.92372334,8.40558881 7.92372334,9 C7.92372334,9.59441119 8.40558881,10.0762767 9,10.0762767 C9.59441119,10.0762767 10.0762767,9.59441119 10.0762767,9 C10.0762767,8.40558881 9.59441119,7.92372334 9,7.92372334 Z M15.3529412,7.92372334 C14.75853,7.92372334 14.2766645,8.40558881 14.2766645,9 C14.2766645,9.59441119 14.75853,10.0762767 15.3529412,10.0762767 C15.9473524,10.0762767 16.4292178,9.59441119 16.4292178,9 C16.4292178,8.40558881 15.9473524,7.92372334 15.3529412,7.92372334 Z M2.64705882,5.37347944e-14 C4.10898904,5.37347944e-14 5.29411765,1.1851286 5.29411765,2.64705882 C5.29411765,4.10898904 4.10898904,5.29411765 2.64705882,5.29411765 C1.1851286,5.29411765 -8.56935438e-13,4.10898904 -8.56935438e-13,2.64705882 C-8.56935438e-13,1.1851286 1.1851286,5.37347944e-14 2.64705882,5.37347944e-14 Z M9,0 C10.4619302,0 11.6470588,1.1851286 11.6470588,2.64705882 C11.6470588,4.10898904 10.4619302,5.29411765 9,5.29411765 C7.53806978,5.29411765 6.35294118,4.10898904 6.35294118,2.64705882 C6.35294118,1.1851286 7.53806978,0 9,0 Z M15.3529412,8.8817842e-16 C16.8148714,8.8817842e-16 18,1.1851286 18,2.64705882 C18,4.10898904 16.8148714,5.29411765 15.3529412,5.29411765 C13.891011,5.29411765 12.7058824,4.10898904 12.7058824,2.64705882 C12.7058824,1.1851286 13.891011,8.8817842e-16 15.3529412,8.8817842e-16 Z M2.64705882,1.57078216 C2.05264764,1.57078216 1.57078216,2.05264764 1.57078216,2.64705882 C1.57078216,3.24147001 2.05264764,3.72333549 2.64705882,3.72333549 C3.24147001,3.72333549 3.72333549,3.24147001 3.72333549,2.64705882 C3.72333549,2.05264764 3.24147001,1.57078216 2.64705882,1.57078216 Z M9,1.57078216 C8.40558881,1.57078216 7.92372334,2.05264764 7.92372334,2.64705882 C7.92372334,3.24147001 8.40558881,3.72333549 9,3.72333549 C9.59441119,3.72333549 10.0762767,3.24147001 10.0762767,2.64705882 C10.0762767,2.05264764 9.59441119,1.57078216 9,1.57078216 Z M15.3529412,1.57078216 C14.75853,1.57078216 14.2766645,2.05264764 14.2766645,2.64705882 C14.2766645,3.24147001 14.75853,3.72333549 15.3529412,3.72333549 C15.9473524,3.72333549 16.4292178,3.24147001 16.4292178,2.64705882 C16.4292178,2.05264764 15.9473524,1.57078216 15.3529412,1.57078216 Z" />
</svg>