<svg fill="currentColor" viewBox="0 0 16 16">
  <path transform="translate(8.000000, 8.000000) rotate(-90.000000) translate(-8.000000, -8.000000)"
    d="M8.21811978,5.01971411 C7.92729341,4.72924944 7.92729341,4.25831317 8.21811978,3.9678485 C8.50894616,3.67738383 8.98046889,3.67738383 9.27129527,3.9678485 L12.7818802,7.4740672 C13.0727066,7.76453186 13.0727066,8.23546814 12.7818802,8.5259328 L9.27129527,12.0321515 C8.98046889,12.3226162 8.50894616,12.3226162 8.21811978,12.0321515 C7.92729341,11.7416868 7.92729341,11.2707506 8.21811978,10.9802859 L11.202117,8 L8.21811978,5.01971411 Z M3.21811978,5.01971411 C2.92729341,4.72924944 2.92729341,4.25831317 3.21811978,3.9678485 C3.50894616,3.67738383 3.98046889,3.67738383 4.27129527,3.9678485 L7.78188022,7.4740672 C8.07270659,7.76453186 8.07270659,8.23546814 7.78188022,8.5259328 L4.27129527,12.0321515 C3.98046889,12.3226162 3.50894616,12.3226162 3.21811978,12.0321515 C2.92729341,11.7416868 2.92729341,11.2707506 3.21811978,10.9802859 L6.20211699,8 L3.21811978,5.01971411 Z">
  </path>
</svg>