<?xml version="1.0" encoding="UTF-8"?>
<svg viewBox="0 0 16 16" version="1.1" xmlns="http://www.w3.org/2000/svg" xmlns:xlink="http://www.w3.org/1999/xlink">
    <g stroke="none" stroke-width="1" fill="none" fill-rule="evenodd">
        <g>
            <rect x="0" y="0" width="16" height="16"></rect>
            <path
                d="M8.00031354,1 C4.13393348,1 1.00028563,4.134072 1.00028563,7.99980482 C1.00028563,11.8660117 4.13386372,15 8.00031354,15 C11.8662192,15 15.0002856,11.8660117 15.0002856,7.99980482 C15.0002856,4.134072 11.8662192,1 8.00031354,1 L8.00031354,1 Z M8.00031354,14.0667243 C7.00860885,14.0667243 6.07300418,13.8260998 5.24588834,13.402445 C5.25042266,13.3990989 5.23263418,13.3867464 5.18431925,13.3637003 C4.63382486,13.1014936 4.01453437,12.2560662 3.9853473,11.9936086 C3.95620208,11.7310812 3.95620208,11.2940561 4.1603302,11.1190983 C4.36455599,10.9440847 4.68490223,10.5070038 5.09320034,9.80725619 C5.50110779,9.10743883 4.42284643,8.96187068 4.13118499,8.8453855 C3.8394538,8.72874694 3.37325591,8.05819379 2.81907825,8.00434989 C2.26545866,7.9508406 2.46958678,8.40790032 2.29458993,8.55371941 C2.13149392,8.68952817 2.0594331,8.67183581 1.9560227,8.50361196 C1.94230813,8.33727027 1.93361618,8.16954834 1.93361618,7.99987452 C1.93361618,6.98715745 2.18431527,6.03262023 2.62500935,5.19226777 C2.78040399,5.09159278 2.921233,4.96674241 2.921233,4.96674241 L3.15453425,4.96674241 C3.18367946,4.96674241 3.33321437,5.13847965 3.15823146,5.28431268 C2.98365316,5.42993659 2.83420196,5.9292126 3.24484395,5.90001812 C3.6559045,5.87089333 4.20088795,5.80115558 4.25927604,5.37750083 C4.31755253,4.95390185 4.23692533,4.87593833 4.44106741,4.78849428 C4.64523739,4.70125935 4.82024821,4.81761906 4.76191592,5.08016036 C4.70351387,5.34268772 4.76191592,5.69581003 5.02394383,5.75237262 C5.28646005,5.80882366 5.19896859,6.10055946 5.46148482,6.0130457 C5.72351273,5.92553193 5.57812148,5.45904743 5.78180315,5.22604918 C5.98595917,4.99271631 6.07346459,4.87593834 6.07346459,4.5845511 C6.07346459,4.29309414 6.23209604,4.01139657 6.55290269,3.86563323 C6.87377909,3.71974442 7.47260236,3.8266933 7.61842611,4.17645558 C7.76427776,4.52621787 8.14885788,4.81761906 8.00031355,4.93425761 C7.85178316,5.05096588 7.5308928,5.19678497 7.44393151,5.31347929 C7.35642611,5.42992265 7.21057447,5.51742248 6.94805824,5.75049045 C6.68559783,5.98383725 6.394341,6.42112726 6.8021787,6.74176476 C7.21057447,7.06254169 7.44393153,7.2373601 7.88090048,7.2373601 C8.31835776,7.2373601 8.69713395,7.58715027 8.95965016,7.76216386 C9.22169201,7.93717745 9.30912767,8.08274561 9.39663307,8.22829981 C9.48412453,8.37413284 9.42584805,8.75328482 9.57164389,9.01556123 C9.71749554,9.27787946 9.71749554,9.83180801 9.71749554,10.123265 C9.71749554,10.4149171 9.83414616,10.8230684 9.89250635,11.0852751 C9.95086654,11.3478722 9.77945529,11.9374643 10.1003317,11.9667285 C10.4210686,11.9957836 10.5628603,11.7848833 10.8836669,11.1728586 C11.2040829,10.5606944 11.3499346,10.5899447 11.5541046,10.3274173 C11.7582606,10.0649596 11.8166068,9.83180801 11.8453614,9.56955949 C11.8745066,9.30703213 12.1953133,9.2778934 12.1953133,8.78250721 C12.1953133,8.28663303 12.1953133,8.26665419 12.0786626,7.99986059 C11.962012,7.73292756 11.7874756,7.70385855 11.8453614,7.44126148 C11.9036518,7.17906873 11.7874756,7.17906873 12.1953133,6.97511159 C12.6036951,6.77090351 12.8948821,6.74177872 13.0115328,6.45032178 C13.1281694,6.15886481 13.0989684,5.77969891 13.1573286,5.60475503 C13.2148098,5.43220916 13.2152005,5.35084381 13.4955052,5.43293415 C13.8614318,6.21311305 14.066997,7.08260422 14.066997,7.9998606 C14.066997,11.3450977 11.3453444,14.0667243 8.00031354,14.0667243 L8.00031354,14.0667243 Z"
                fill="currentColor" fill-rule="nonzero"></path>
        </g>
    </g>
</svg>