<svg xmlns="http://www.w3.org/2000/svg" viewBox="0 0 16 16">
  <g fill="none">
    <path d="M0 0h16v16H0z" />
    <path
      d="M2.421 11.436l2.16 2.164-.571.573a.576.576 0 01-.445.19c-.064 0-.127 0-.19-.063l-1.906-.636c-.255-.064-.382-.255-.445-.446a.514.514 0 01.19-.573l1.207-1.209zm7.687-10.245a.613.613 0 01.89 0l.826.827-4.257 4.264a.616.616 0 000 .89l1.27 1.273c.128.128.255.191.445.191.191 0 .318-.063.445-.19l4.257-4.264.825.827a.616.616 0 010 .891l-7.623 7.636a.576.576 0 01-.445.191.576.576 0 01-.444-.19L2.485 9.717a.616.616 0 010-.89z"
      fill="currentColor" />
  </g>
</svg>