<svg xmlns="http://www.w3.org/2000/svg" viewBox="0 0 16 16">
  <path d="M14.5458062,2.32241345 C15.2167946,3.09673986 15.1348946,4.26796385 14.3626708,4.94137104 L7.11559067,11.2376776 C6.89340599,11.4319877 6.62815288,11.5706087 6.34177032,11.6420752 L1.91379137,12.7005106 C1.64456543,12.7637443 1.36248582,12.672372 1.18146822,12.4632937 C1.00045062,12.2542154 0.950391746,11.9619622 1.05150749,11.7045584 L2.71244758,7.46300903 C2.82417413,7.18907247 2.99965603,6.94575109 3.22431417,6.75326011 L10.456556,0.455915941 C11.2314819,-0.217511405 12.4055619,-0.135411735 13.0792232,0.639310694 L14.5458062,2.32241345 Z M12.1278165,2.94360578 L12.1386859,2.94809355 C12.3393295,2.77367667 12.4316816,2.5054667 12.380954,2.24449574 C12.3302264,1.98352478 12.1441258,1.76944052 11.8927545,1.68288645 C11.6413832,1.59633237 11.3629305,1.6504581 11.1622869,1.82487499 L4.41503756,7.69016932 C4.15889077,7.96811031 4.15195114,8.39397206 4.39890596,8.68011134 C4.64586078,8.96625062 5.06816026,9.02165408 5.38056724,8.80890012 L12.1278165,2.94360578 Z M1.74314542,15.9826531 C1.33271754,15.9826531 1,15.6171712 1,15.1663265 C1,14.7154818 1.33271754,14.35 1.74314542,14.35 L14.2568546,14.35 C14.6672825,14.35 15,14.7154818 15,15.1663265 C15,15.6171712 14.6672825,15.9826531 14.2568546,15.9826531 L1.74314542,15.9826531 Z" />
</svg>