<svg xmlns="http://www.w3.org/2000/svg" viewBox="0 0 16 16">
  <path
    d="M8,0 C12.418278,-8.11624501e-16 16,3.581722 16,8 C16,12.418278 12.418278,16 8,16 C3.581722,16 5.41083001e-16,12.418278 0,8 C-5.41083001e-16,3.581722 3.581722,8.11624501e-16 8,0 Z M8,0.8 C4.0235498,0.8 0.8,4.0235498 0.8,8 C0.8,11.9764502 4.0235498,15.2 8,15.2 C11.9764502,15.2 15.2,11.9764502 15.2,8 C15.2,4.0235498 11.9764502,0.8 8,0.8 Z M3.45665129,11.8825861 L4.1066314,6.9696742 C4.21085,6.51959205 4.62271373,6.38697905 4.96650807,6.7304091 L9.30901248,11.0683123 C9.65229749,11.4112335 9.52005315,11.8231697 9.06898427,11.926769 L4.11267724,12.550097 C3.76994278,12.6421459 3.30983848,12.4393243 3.45665129,11.8825861 Z M12.5433487,4.11741386 L11.8933686,9.0303258 C11.78915,9.48040795 11.3772863,9.61302095 11.0334919,9.2695909 L6.69098752,4.93168772 C6.34770251,4.58876645 6.47994685,4.17683034 6.93101573,4.07323095 L11.8873228,3.44990301 C12.2300572,3.35785406 12.6901615,3.56067569 12.5433487,4.11741386 Z" />
</svg>