<svg viewBox="0 0 16 16" fill="none" xmlns="http://www.w3.org/2000/svg">
  <path fill-rule="evenodd" clip-rule="evenodd"
    d="M12.5781 5.58203H10.9102V6.79395H12.7939V7.5625H10.9102V8.81055H13.1895V9.60254H9.33789C9.64986 10.1544 10.0461 10.6224 10.502 11.0303C11.042 10.7423 11.5578 10.2978 12.0498 9.67383L12.6494 10.2617C12.2174 10.7897 11.7258 11.2222 11.1738 11.5342C11.8698 11.9782 12.6622 12.2904 13.5742 12.4824L13.1543 13.2979C10.9464 12.7459 9.38565 11.5104 8.47363 9.60254H6.8418V12.2305C7.6218 12.0385 8.29412 11.8096 8.87012 11.5576L9.03809 12.3496C8.12609 12.6856 7.04585 12.9746 5.79785 13.2266L5.55762 12.4697C5.84561 12.3617 5.99022 12.1581 5.99023 11.8701V9.60254H4.30957C4.06956 10.9463 3.674 12.1584 3.12207 13.2383L2.42578 12.6143C3.24178 11.1023 3.66183 9.14581 3.67383 6.75781V2.70215H12.5781V5.58203ZM4.5498 6.75781C4.5498 7.47781 4.50169 8.16255 4.42969 8.81055H6.81738V7.5625H5.06543V6.79395H6.81738V5.58203H4.5498V6.75781ZM7.64551 8.81055H10.0703V7.5625H7.64551V8.81055ZM7.64551 6.79395H10.0703V5.58203H7.64551V6.79395ZM4.5498 4.80176H11.7139V3.49414H4.5498V4.80176Z"
    fill="currentColor" />
  <path
    d="M14 15V16H2V15H14ZM15 14V2C15 1.44772 14.5523 1 14 1H2C1.44772 1 1 1.44772 1 2V14C1 14.5523 1.44772 15 2 15V16L1.7959 15.9893C0.787223 15.887 0 15.0357 0 14V2C0 0.895431 0.895431 5.63724e-08 2 0H14C15.1046 0 16 0.895431 16 2V14C16 15.0357 15.2128 15.887 14.2041 15.9893L14 16V15C14.5523 15 15 14.5523 15 14Z"
    fill="currentColor" fill-opacity="0.5" />
</svg>