<svg viewBox="0 0 16 16" xmlns="http://www.w3.org/2000/svg">
  <path fill-rule="evenodd" clip-rule="evenodd"
    d="M12.2842 6.27832H10.7549V7.1582H12.4053V8.08203H10.7549V9.00684H12.7793V9.95215H11.6787L12.3174 10.5791C11.9764 10.9971 11.6021 11.3385 11.2061 11.6025C11.767 11.9215 12.405 12.1519 13.1309 12.2949L12.6357 13.2852C10.656 12.7681 9.24831 11.657 8.40137 9.95215H7.03711V12.042C7.69708 11.877 8.28041 11.6904 8.77539 11.4814L8.97266 12.4385C8.08175 12.7464 7.02548 13.0105 5.80469 13.2305L5.51953 12.3174C5.84924 12.1854 6.01362 11.9543 6.01367 11.6025V9.95215H4.68359C4.47462 11.151 4.13308 12.2401 3.66016 13.208L2.81348 12.4492C3.50639 11.0633 3.85814 9.29212 3.86914 7.11426V3.41797H12.2842V6.27832ZM9.45703 9.95215C9.72102 10.3591 10.0289 10.7115 10.3809 11.0195C10.7989 10.7665 11.1841 10.4141 11.5361 9.95215H9.45703ZM4.9248 7.11426C4.9248 7.77426 4.88143 8.41284 4.81543 9.00684H6.76172V8.08203H5.24414V7.1582H6.76172V6.27832H4.9248V7.11426ZM7.7627 9.00684H9.74316V8.08203H7.7627V9.00684ZM7.7627 7.1582H9.74316V6.27832H7.7627V7.1582ZM4.9248 5.34375H11.2285V4.375H4.9248V5.34375Z"
    fill="currentColor" />
  <path fill-rule="evenodd" clip-rule="evenodd"
    d="M14 0C15.1046 0 16 0.895431 16 2V14C16 15.1046 15.1046 16 14 16H2C0.895431 16 0 15.1046 0 14V2C0 0.895431 0.895431 0 2 0H14ZM2 1.2002C1.55817 1.2002 1.2002 1.55817 1.2002 2V14C1.2002 14.4418 1.55817 14.7998 2 14.7998H14C14.4418 14.7998 14.7998 14.4418 14.7998 14V2C14.7998 1.55817 14.4418 1.2002 14 1.2002H2Z"
    fill="currentColor" />
</svg>