<svg viewBox="0 0 17 17" fill="none" xmlns="http://www.w3.org/2000/svg">
  <path fill-rule="evenodd" clip-rule="evenodd"
    d="M12.6636 6.49072H11.1343V7.60205H12.8608V8.30615H11.1343V9.44971H13.2241V10.1763H9.69287C9.97885 10.6822 10.3423 11.1109 10.7603 11.4849C11.2552 11.2209 11.7282 10.8137 12.1792 10.2417L12.729 10.7808C12.3331 11.2647 11.8823 11.6608 11.3765 11.9468C12.0143 12.3536 12.7399 12.6399 13.5757 12.8159L13.1909 13.564C11.1671 13.058 9.73687 11.9251 8.90088 10.1763H7.40479V12.5845C8.11974 12.4085 8.73618 12.2002 9.26416 11.9692L9.41846 12.6948C8.58246 13.0028 7.59175 13.2666 6.44775 13.4976L6.22803 12.8052C6.49203 12.7062 6.62451 12.5184 6.62451 12.2544V10.1763H5.08447C4.86447 11.4081 4.50058 12.5194 3.99463 13.5093L3.35693 12.937C4.10493 11.551 4.49046 9.75785 4.50146 7.56885V3.85107H12.6636V6.49072ZM5.3042 7.56885C5.3042 8.2288 5.25984 8.85574 5.19385 9.44971H7.3833V8.30615H5.77686V7.60205H7.3833V6.49072H5.3042V7.56885ZM8.14209 9.44971H10.3638V8.30615H8.14209V9.44971ZM8.14209 7.60205H10.3638V6.49072H8.14209V7.60205ZM5.3042 5.77588H11.8716V4.57666H5.3042V5.77588Z"
    fill="currentColor" />
  <path
    d="M14.5 15.3335V16.3335H2.5V15.3335H14.5ZM15.5 14.3335V2.3335C15.5 1.78121 15.0523 1.3335 14.5 1.3335H2.5C1.94772 1.3335 1.5 1.78121 1.5 2.3335V14.3335C1.5 14.8858 1.94772 15.3335 2.5 15.3335V16.3335C1.39543 16.3335 0.5 15.4381 0.5 14.3335V2.3335C0.5 1.22893 1.39543 0.333496 2.5 0.333496H14.5C15.6046 0.333496 16.5 1.22893 16.5 2.3335V14.3335C16.5 15.4381 15.6046 16.3335 14.5 16.3335V15.3335C15.0523 15.3335 15.5 14.8858 15.5 14.3335Z"
    fill="currentColor" fill-opacity="0.5" />
</svg>