<svg xmlns="http://www.w3.org/2000/svg" viewBox="0 0 14 14" fill="none">
  <path
    d="M1.22766 7C2.06864 9.37954 4.33823 11.0833 7.00431 11.0833C9.67039 11.0833 11.94 9.37954 12.781 7C11.94 4.62046 9.67039 2.91667 7.00431 2.91667C4.33823 2.91667 2.06864 4.62046 1.22766 7ZM0.0566001 6.82265C0.995305 3.88129 3.75015 1.75 7.00431 1.75C10.2585 1.75 13.0133 3.88129 13.952 6.82265L14.0086 7L13.952 7.17735C13.0133 10.1187 10.2585 12.25 7.00431 12.25C3.75015 12.25 0.995305 10.1187 0.0566001 7.17735L0 7L0.0566001 6.82265ZM7.00449 5.25C6.03799 5.25 5.25449 6.0335 5.25449 7C5.25449 7.9665 6.03799 8.75 7.00449 8.75C7.97099 8.75 8.75449 7.9665 8.75449 7C8.75449 6.0335 7.97099 5.25 7.00449 5.25ZM4.08782 7C4.08782 5.38917 5.39366 4.08333 7.00449 4.08333C8.61532 4.08333 9.92116 5.38917 9.92116 7C9.92116 8.61083 8.61532 9.91667 7.00449 9.91667C5.39366 9.91667 4.08782 8.61083 4.08782 7Z"
    fill="currentColor" />
</svg>