<svg xmlns="http://www.w3.org/2000/svg" viewBox="0 0 16 16">
  <path transform="translate(0 3)"
    d="M11.8182133,7.58186114 C10.69221,8.2903426 9.40116691,8.6647395 8.08480929,8.6647395 C6.7680274,8.6647395 5.47712577,8.2903426 4.35126382,7.58186114 C3.3403781,6.94559273 2.48491536,6.05776896 1.86265778,5.00218872 C2.48477393,3.94676718 3.34023668,3.05894342 4.35126382,2.42267501 C4.70326362,2.20111584 5.07138555,2.01225093 5.45124551,1.85734997 C4.95556078,2.48838095 4.65701857,3.30050004 4.65701857,4.186578 C4.65701857,6.1963228 6.19173203,7.825481 8.08480929,7.825481 C9.97788655,7.825481 11.5123172,6.1963228 11.5123172,4.186578 C11.5123172,3.87693478 11.4756888,3.57649674 11.4072405,3.28954905 C11.2591715,4.10642945 10.5828906,4.72381137 9.77027879,4.72381137 C8.84933758,4.72381137 8.10291133,3.93153102 8.10291133,2.95387739 C8.10291133,2.30713412 8.4298794,1.74149166 8.91778591,1.4328007 C8.92315995,1.41899293 8.92867542,1.40550258 8.93447373,1.39201223 C9.95243056,1.51755185 10.9360218,1.86750741 11.8183548,2.42283372 C12.8292405,3.05894342 13.6847032,3.94692589 14.3071022,5.00234743 C13.6845618,6.05776896 12.8290991,6.94559273 11.8182133,7.58186114 L11.8182133,7.58186114 Z M16,4.72140056 C15.20752,3.31292564 14.06288,2.13111371 12.68976,1.30339823 C11.27504,0.450574396 9.65328,0 8,0 C6.34672,0 4.72496,0.450574396 3.31008,1.30339823 C1.93712,2.13094173 0.79248,3.31275366 0,4.72140056 L0,5.27877141 C0.79248,6.68707436 1.93712,7.86905827 3.31024,8.69660177 C4.72496,9.54925363 6.34672,10 8,10 C9.65328,10 11.27504,9.54925363 12.68976,8.69660177 C14.06288,7.86905827 15.20752,6.68707436 16,5.27877141 L16,4.72140056 Z" />
</svg>