<svg xmlns="http://www.w3.org/2000/svg" viewBox="0 0 35 37">
  <g>
    <g transform="translate(7.91)">
      <path
        d="M25.2386002,31.300813 L1.40214446,31.300813 C0.627459644,31.300813 0,30.6918081 0,29.9399081 L0,1.36090491 C0,0.609004949 0.627459644,0 1.40214446,0 L18.2278779,0 L26.6407447,8.16542948 L26.6407447,29.9399081 C26.6407447,30.6918081 26.013285,31.300813 25.2386002,31.300813 Z" />
      <path
        d="M18.2278779,0 L18.2278779,6.80452457 C18.2278779,7.55642453 18.8553376,8.16542948 19.6300224,8.16542948 L26.6407447,8.16542948 L18.2278779,0 Z" />
      <g transform="translate(5.375 5.217)">
        <path
          d="M15.1571816 11.2682927L.967479675 11.2682927C.419241192 11.2682927 0 10.8613821 0 10.3292683 0 9.79715447.419241192 9.3902439.967479675 9.3902439L15.1571816 9.3902439C15.7054201 9.3902439 16.1246612 9.79715447 16.1246612 10.3292683 16.1246612 10.8613821 15.7054201 11.2682927 15.1571816 11.2682927zM8.70731707 1.87804878L.967479675 1.87804878C.419241192 1.87804878-1.95399252e-14 1.47113821-1.95399252e-14.93902439-1.95399252e-14.406910569.419241192-4.36539693e-13.967479675-4.36539693e-13L8.70731707-4.36539693e-13C9.25555556-4.36539693e-13 9.67479675.406910569 9.67479675.93902439 9.67479675 1.47113821 9.25555556 1.87804878 8.70731707 1.87804878zM15.1571816 15.9634146L.967479675 15.9634146C.419241192 15.9634146 0 15.5565041 0 15.0243902 0 14.4922764.419241192 14.0853659.967479675 14.0853659L15.1571816 14.0853659C15.7054201 14.0853659 16.1246612 14.4922764 16.1246612 15.0243902 16.1246612 15.5565041 15.7054201 15.9634146 15.1571816 15.9634146zM10.3842818 20.6585366L1.03197832 20.6585366C.483739837 20.6585366.064498645 20.251626.064498645 19.7195122.064498645 19.1873984.483739837 18.7804878 1.03197832 18.7804878L10.3842818 18.7804878C10.9325203 18.7804878 11.3517615 19.1873984 11.3517615 19.7195122 11.3517615 20.251626 10.9325203 20.6585366 10.3842818 20.6585366z" />
        <ellipse cx="15.157" cy="19.72" rx="1" ry="1" />
      </g>
    </g>
    <path
      d="M11.9015357,7.82520325 L11.9015357,4.84417344 C11.9015357,2.16881032 9.66700383,0 6.91056911,0 C4.15413438,0 1.91960253,2.16881032 1.91960253,4.84417344 L1.91960253,7.82520325 C0.859435327,7.82520325 0,8.65936107 0,9.68834688 L0,16.0230352 C0,16.5171716 0.202243257,16.9910695 0.562238564,17.3404767 C0.92223387,17.6898839 1.41049228,17.8861789 1.91960253,17.8861789 L11.9015357,17.8861789 C12.9617029,17.8861789 13.8211382,17.052021 13.8211382,16.0230352 L13.8211382,9.68834688 C13.8211382,8.65936107 12.9617029,7.82520325 11.9015357,7.82520325 Z M6.91056911,14.346206 C6.06243534,14.346206 5.37488708,13.6788797 5.37488708,12.8556911 C5.37488708,12.0325024 6.06243534,11.3651762 6.91056911,11.3651762 C7.75870287,11.3651762 8.44625113,12.0325024 8.44625113,12.8556911 C8.44625113,13.6788797 7.75870287,14.346206 6.91056911,14.346206 Z M9.98193315,7.82520325 L3.83920506,7.82520325 L3.83920506,4.84417344 C3.83920506,3.19779614 5.21430158,1.86314363 6.91056911,1.86314363 C8.60683663,1.86314363 9.98193315,3.19779614 9.98193315,4.84417344 L9.98193315,7.82520325 Z"
      transform="translate(0 18.333)" />
  </g>
</svg>
