<?xml version="1.0" encoding="UTF-8"?>
<svg viewBox="0 0 16 16" version="1.1" xmlns="http://www.w3.org/2000/svg" xmlns:xlink="http://www.w3.org/1999/xlink">
    <g stroke="none" stroke-width="1" fill="none" fill-rule="evenodd">
        <g>
            <rect x="0" y="0" width="16" height="16"></rect>
            <path
                d="M11.0896887,1 L13.996858,4.07912025 L13.996858,13.2485004 C13.996858,14.2162239 13.1411025,15 12.201371,15 L3.69980006,15 C2.76406741,14.9960011 2.00028563,14.2122251 2.00028563,13.2485004 L2.00028563,2.75149957 C2.00028563,1.78377606 2.76006855,1 3.69980006,1 L11.0896887,1 Z M9.6660954,1.99971437 L3.83176235,1.99971437 C3.37189374,1.99971437 3,2.38360468 3,2.85546987 L3,13.1405313 C3,13.6123965 3.37189374,13.9962868 3.83176235,13.9962868 L12.1653813,13.9962868 C12.6252499,13.9962868 12.9971437,13.6123965 12.9971437,13.1405313 L12.9971437,5.42673522 L10.4978578,5.42673522 C10.0379891,5.42673522 9.6660954,5.0428449 9.6660954,4.57097972 L9.6660954,1.99971437 Z M8.0585547,6.63039132 L7.7106541,8.30191374 L8.75035704,8.30191374 L9.09825764,6.63039132 L9.6660954,6.63039132 L9.3181948,8.30191374 L10.3898886,8.30191374 L10.293916,8.78977435 L9.22222222,8.78977435 L8.9702942,10.0294202 L10.097972,10.0294202 L10.0019994,10.5092831 L8.86632391,10.5092831 L8.51442445,12.1608112 L7.94658669,12.1608112 L8.29848615,10.5092831 L7.2587832,10.5092831 L6.90688375,12.1608112 L6.33904599,12.1608112 L6.69094544,10.5092831 L5.61925164,10.5092831 L5.71522422,10.0294202 L6.79491574,10.0294202 L7.04684376,8.78977435 L5.91116824,8.78977435 L6.00714082,8.30191374 L7.14281634,8.30191374 L7.49071694,6.63039132 L8.0585547,6.63039132 Z M8.65438446,8.78977435 L7.61468152,8.78977435 L7.3627535,10.0294202 L8.40245644,10.0294202 L8.65438446,8.78977435 Z M10.4978578,1.99971437 L10.4978578,4.09111682 C10.4978578,4.31505284 10.6818052,4.49900029 10.9057412,4.49900029 L12.9971437,4.49900029 L10.4978578,1.99971437 Z"
                fill="currentColor" fill-rule="nonzero"></path>
        </g>
    </g>
</svg>