<svg xmlns="http://www.w3.org/2000/svg" viewBox="0 0 16 16">
  <path
    d="M2.50000257,2.56896967e-06 L6.82254016,8.12120375e-06 L7.16184054,2.59849461e-05 C7.63235282,2.59849461e-05 8.08780137,0.165912464 8.44809774,0.46851507 C9.97773896,1.75321697 11.5152525,3.06480108 13.0606383,4.4032674 C13.3771239,4.67737712 13.5235879,5.1235848 13.5000304,5.74189045 L13.5000304,14.0000081 C13.5000304,15.1045776 12.6045999,16.0000081 11.5000304,16.0000081 L2.50000257,16.0000081 C1.39543307,16.0000081 0.500002569,15.1045776 0.500002569,14.0000081 L0.5,2 C0.5,0.8954305 1.3954305,-4.06533012e-14 2.5,-4.08562073e-14 Z M4,5 C3.44771525,5 3,5.44771525 3,6 C3,6.55228475 3.44771525,7 4,7 L6,7 C6.55228475,7 7,6.55228475 7,6 C7,5.44771525 6.55228475,5 6,5 L4,5 Z M4,9 C3.44771525,9 3,9.44771525 3,10 C3,10.5522847 3.44771525,11 4,11 L9,11 C9.55228475,11 10,10.5522847 10,10 C10,9.44771525 9.55228475,9 9,9 L4,9 Z" />
</svg>