<svg xmlns="http://www.w3.org/2000/svg" viewBox="0 0 168 112">
  <g fillRule="evenodd">
    <g transform="translate(0 13)">
      <path fillRule="nonzero"
        d="M32,48.5 C27.3055796,48.5 23.5,44.6944204 23.5,40 C23.5,35.3055796 27.3055796,31.5 32,31.5 C36.6944204,31.5 40.5,35.3055796 40.5,40 C40.5,44.6944204 36.6944204,48.5 32,48.5 Z M32,45.5 C35.0375661,45.5 37.5,43.0375661 37.5,40 C37.5,36.9624339 35.0375661,34.5 32,34.5 C28.9624339,34.5 26.5,36.9624339 26.5,40 C26.5,43.0375661 28.9624339,45.5 32,45.5 Z" />
      <circle cx="35" cy="3" r="3" />
      <path
        d="M9,5.5 L13.0017548,5.5 C13.8292128,5.5 14.5,6.16579723 14.5,7 C14.5,7.82842712 13.8247509,8.5 13.0017548,8.5 L9,8.5 L9,12.5017548 C9,13.3292128 8.33420277,14 7.5,14 C6.67157288,14 6,13.3247509 6,12.5017548 L6,8.5 L1.99824524,8.5 C1.17078724,8.5 0.5,7.83420277 0.5,7 C0.5,6.17157288 1.1752491,5.5 1.99824524,5.5 L6,5.5 L6,1.49824524 C6,0.670787242 6.66579723,0 7.5,0 C8.32842712,0 9,0.6752491 9,1.49824524 L9,5.5 Z"
        transform="translate(0 47)" />
    </g>
    <g transform="translate(102)">
      <circle cx="5.5" cy="43.5" r="5.5" strokeWidth="3" />
      <circle cx="39" cy="3" r="3" />
      <circle cx="63" cy="59" r="3" />
      <path
        d="M9,5.5 L13.0017548,5.5 C13.8292128,5.5 14.5,6.16579723 14.5,7 C14.5,7.82842712 13.8247509,8.5 13.0017548,8.5 L9,8.5 L9,12.5017548 C9,13.3292128 8.33420277,14 7.5,14 C6.67157288,14 6,13.3247509 6,12.5017548 L6,8.5 L1.99824524,8.5 C1.17078724,8.5 0.5,7.83420277 0.5,7 C0.5,6.17157288 1.1752491,5.5 1.99824524,5.5 L6,5.5 L6,1.49824524 C6,0.670787242 6.66579723,0 7.5,0 C8.32842712,0 9,0.6752491 9,1.49824524 L9,5.5 Z"
        transform="translate(33 72)" />
      <rect width="2" height="9" rx="1" transform="translate(57 17)" />
    </g>
    <g fillRule="nonzero" transform="translate(48 14)">
      <path
        d="M68.361204,85.7549858 L3.79784467,85.7549858 C1.69953549,85.7549858 0,84.086492 0,82.0265081 L0,3.72847764 C0,1.66849374 1.69953549,0 3.79784467,0 L49.3719807,0 L72.1590487,22.3708658 L72.1590487,82.0265081 C72.1590487,84.086492 70.4595132,85.7549858 68.361204,85.7549858 Z" />
      <path
        d="M49.3719807,0 L49.3719807,18.6423882 C49.3719807,20.7023721 51.0715162,22.3708658 53.1698253,22.3708658 L72.1590487,22.3708658 L49.3719807,0 Z" />
    </g>
  </g>
</svg>
