<svg xmlns="http://www.w3.org/2000/svg" viewBox="0 0 16 16">
  <path
    d="M12.9639413,5.16466603 C12.4934265,5.05636025 12.003396,4.99913203 11.5,4.99913203 C7.91014913,4.99913203 5,7.90947035 5,11.4995546 C5,13.2462292 5.68885838,14.8320017 6.80970476,15.9999853 L2.00000257,15.9999853 C0.895433069,15.9999853 2.56896425e-06,15.1045548 2.56896424e-06,13.9999853 L-1.44773082e-13,2 C-1.44908353e-13,0.8954305 0.8954305,2.59600803e-14 2,2.57571742e-14 L6.32254016,8.12119224e-06 L6.66184054,2.54732273e-05 C7.13235245,2.54732273e-05 7.58780069,0.165911654 7.94809698,0.468513771 C9.47773845,1.75321404 11.0152522,3.06479649 12.5606383,4.40326112 C12.768206,4.5830363 12.9026404,4.83683794 12.9639413,5.16466603 Z M2.99999857,2.99999572 C2.44771461,2.99999572 2,3.44771033 2,3.99999429 C2,4.55227826 2.44771461,4.99999287 2.99999857,4.99999287 L7.00000143,4.99999287 C7.55228539,4.99999287 8,4.55227826 8,3.99999429 C8,3.44771033 7.55228539,2.99999572 7.00000143,2.99999572 L2.99999857,2.99999572 Z M2.99999857,6.99999002 C2.44771461,6.99999002 2,7.44770463 2,7.99998859 C2,8.55227255 2.44771461,8.99998716 2.99999857,8.99998716 L4.00000143,8.99998716 C4.55228539,8.99998716 5,8.55227255 5,7.99998859 C5,7.44770463 4.55228539,6.99999002 4.00000143,6.99999002 L2.99999857,6.99999002 Z M11.5,16 C9.01471863,16 7,13.9852814 7,11.5 C7,9.01471863 9.01471863,7 11.5,7 C13.9852814,7 16,9.01471863 16,11.5 C16,13.9852814 13.9852814,16 11.5,16 Z M13.7721654,12.6231168 L12.6591896,11.5101411 L13.7721654,10.3971654 C14.1178056,10.0515252 14.089195,9.56514653 13.7721654,9.24811684 C13.4551357,8.93108714 12.968757,8.90247664 12.6231168,9.24811684 L11.5101411,10.3610926 L10.3971654,9.24811684 C9.63113301,8.48208449 8.48208449,9.63113301 9.24811684,10.3971654 L10.3610926,11.5101411 L9.24811684,12.6231168 C8.48208449,13.3891492 9.63113301,14.5381977 10.3971654,13.7721654 L11.5101411,12.6591896 L12.6231168,13.7721654 C13.3891492,14.5381977 14.5381977,13.3891492 13.7721654,12.6231168 Z" />
</svg>