<svg xmlns="http://www.w3.org/2000/svg" viewBox="0 0 16 16">
  <path
    d="M14.9996906,0 C15.3786906,0 15.7246906,0.214 15.8946906,0.553 C16.0626906,0.892 16.0266906,1.297 15.7996906,1.6 L9.99969064,8 L9.99969064,15 C9.99969064,15.553 9.59637033,16 9.02123605,16 L6.99969064,15 C6.50750314,14.7391968 5.99969064,14.553 5.99969064,14 L5.99969064,8 L0.199690643,1.6 C-0.0273093571,1.297 -0.0633093571,0.892 0.104690643,0.553 C0.274690643,0.214 0.620690643,0 0.999690643,0 L14.9996906,0 Z M13.64,1.6 L2.359,1.6 L7.18526977,6.92556892 L7.59969064,7.38286092 L7.599,13.508 L7.63782486,13.5283504 L7.69502537,13.5579489 L7.70911196,13.5658726 L8.399,13.906 L8.39969064,7.38286092 L8.81411152,6.92556892 L13.64,1.6 Z" />
</svg>