<svg xmlns="http://www.w3.org/2000/svg" viewBox="0 0 12 16">
  <path fill="currentColor" fillRule="evenodd"
    d="M10.2359106,3.87043467 C9.2868465,2.35035506 8.00091766,1.06889512 6.4775433,0.125128547 C6.23797099,-0.0493164237 5.91096891,-0.0405756352 5.6810579,0.146418659 C5.45114688,0.333412952 5.37597139,0.651776584 5.49795146,0.921863241 C6.2105808,3.17194777 5.66917744,5.63128809 4.0775433,7.37410814 C4.0775433,7.37410814 3.20570657,6.43369998 3.34938004,4.54635304 C3.38033547,4.26407214 3.22532651,3.99414118 2.96592087,3.87860131 C2.70651524,3.76306145 2.40217725,3.82839823 2.21305351,4.04023059 C1.04357767,5.26085963 0.289360226,6.81957568 0.0579514647,8.49410814 C-0.422048535,12.108802 2.13795146,15.4949245 5.57958412,15.6745163 C8.95917595,15.8508428 11.754278,12.9969653 11.754278,9.45084283 C11.7573064,7.48826084 11.2328991,5.56092313 10.2359106,3.87043467 Z" />
</svg>