<svg width="16" height="16" viewBox="0 0 16 16" fill="none" xmlns="http://www.w3.org/2000/svg">
  <path fill-rule="evenodd" clip-rule="evenodd"
    d="M8.52246 5.87598H11.4385V6.69238H8.52246V8H10.5742V11.2998H5.61816V8H7.6582V6.69238H4.74219V5.87598H7.6582V4.58008H8.52246V5.87598ZM6.43457 10.5439H9.75879V8.74414H6.43457V10.5439Z"
    fill="currentColor" />
  <path fill-rule="evenodd" clip-rule="evenodd"
    d="M12.9385 13.7002H12.0742V13.1602H4.10645V13.7002H3.25391V3.22363H12.9385V13.7002ZM4.10645 12.3438H12.0742V4.04004H4.10645V12.3438Z"
    fill="currentColor" />
  <path
    d="M14 15V16H2V15H14ZM15 14V2C15 1.44772 14.5523 1 14 1H2C1.44772 1 1 1.44772 1 2V14C1 14.5523 1.44772 15 2 15V16C0.895431 16 0 15.1046 0 14V2C0 0.895431 0.895431 0 2 0H14C15.1046 0 16 0.895431 16 2V14C16 15.1046 15.1046 16 14 16V15C14.5523 15 15 14.5523 15 14Z"
    fill="currentColor" fill-opacity="0.5" />
</svg>