<svg xmlns="http://www.w3.org/2000/svg" width="18" height='18'>
  <g stroke="none" strokeWidth="1" fill="none" fillRule="evenodd">
    <g id="Flag">
      <polygon id="bound" points="0 0 16 0 16 16 0 16"></polygon>
      <path
        d="M2.33333333,2 L3.33333333,2 L3.33333333,13 C3.33333333,13.5522847 2.88561808,14 2.33333333,14 C1.78104859,14 1.33333333,13.5522847 1.33333333,13 L1.33333333,3 C1.33333333,2.44771525 1.78104858,2 2.33333333,2 Z"
        fill="#B8CAE6"></path>
      <path
        d="M4.66666667,2 L13.17,2 C13.4332479,2.00006907 13.671805,2.15504168 13.7788671,2.39553528 C13.8859293,2.63602888 13.8414462,2.91700438 13.6653333,3.11266667 L11.6666667,5.33333333 L13.6653333,7.554 C13.8414462,7.74966229 13.8859293,8.03063779 13.7788671,8.27113139 C13.671805,8.51162499 13.4332479,8.6665976 13.17,8.66666667 L4.66666667,8.66666667 L4.66666667,2 Z"
        fill="#B8CAE6" fillRule="nonzero" opacity="0.3"></path>
    </g>
  </g>
</svg>