<svg viewBox="0 0 24 24" fill="none" xmlns="http://www.w3.org/2000/svg">
  <path
    d="M18.8574 22.2861H5.14258V20.5713H18.8574V22.2861ZM22.2861 0C23.2326 0.000225674 23.9998 0.767425 24 1.71387V17.1426C24 18.0892 23.2327 18.8572 22.2861 18.8574H1.71387C0.767285 18.8572 0 18.0892 0 17.1426V1.71387C0.000227081 0.767426 0.767426 0.000226157 1.71387 0H22.2861ZM2.57129 1.71387C2.09805 1.71398 1.71492 2.09804 1.71484 2.57129V14.5713C1.71484 15.0446 2.098 15.4286 2.57129 15.4287H21.4287C21.9021 15.4287 22.2861 15.0447 22.2861 14.5713V2.57129C22.2861 2.09799 21.902 1.71391 21.4287 1.71387H2.57129ZM12.8574 9.42871C13.3306 9.42892 13.7139 9.81287 13.7139 10.2861V12.8574C13.7137 13.3305 13.3305 13.7137 12.8574 13.7139H4.28516C3.81208 13.7136 3.42887 13.3305 3.42871 12.8574V10.2861C3.42871 9.8129 3.81198 9.42896 4.28516 9.42871H12.8574ZM19.7139 3.42871C20.1873 3.42871 20.5713 3.81275 20.5713 4.28613V12.8574C20.5711 13.3307 20.1872 13.7139 19.7139 13.7139H16.2852C15.8121 13.7136 15.4289 13.3305 15.4287 12.8574V4.28613C15.4287 3.8129 15.812 3.42896 16.2852 3.42871H19.7139ZM6.85742 3.42871C7.33063 3.42892 7.71387 3.81287 7.71387 4.28613V6.85742C7.71371 7.33055 7.33053 7.71366 6.85742 7.71387H4.28516C3.81208 7.71362 3.42887 7.33052 3.42871 6.85742V4.28613C3.42871 3.8129 3.81198 3.42896 4.28516 3.42871H6.85742ZM12.8574 3.42871C13.3306 3.42892 13.7139 3.81287 13.7139 4.28613V6.85742C13.7137 7.33055 13.3305 7.71366 12.8574 7.71387H10.2852C9.81208 7.71362 9.42887 7.33052 9.42871 6.85742V4.28613C9.42871 3.8129 9.81198 3.42896 10.2852 3.42871H12.8574Z"
    fill="currentColor" />
</svg>