<svg viewBox="0 0 17 17" fill="none" xmlns="http://www.w3.org/2000/svg">
  <path
    d="M5.93066 9.49365C5.46866 10.8797 4.95188 12.1779 4.37988 13.3989L3.6543 13.0796C4.27019 11.8258 4.79833 10.539 5.23828 9.21924L5.93066 9.49365Z"
    fill="currentColor" />
  <path
    d="M12.5967 7.83252C12.0027 8.29449 11.3319 8.76796 10.584 9.27393V9.80225H13.4883V10.5718H10.584V12.3979C10.584 13.0578 10.2542 13.3881 9.60547 13.3882H8.14258L7.92188 12.6401C8.50473 12.6621 8.96689 12.6841 9.29688 12.6841C9.62675 12.6841 9.8026 12.508 9.80273 12.1782V10.5718H6.49219V9.80225H9.80273V8.97705C10.2427 8.71305 10.7824 8.38282 11.3984 7.98682H7.12988V7.24951H12.5967V7.83252Z"
    fill="currentColor" />
  <path
    d="M4.07227 6.18311C4.77617 6.75505 5.35908 7.31624 5.83203 7.88818L5.28223 8.42725C4.86423 7.88825 4.2812 7.31545 3.5332 6.71045L4.07227 6.18311Z"
    fill="currentColor" />
  <path
    d="M7.45996 5.09424C7.71286 5.57809 7.94439 6.12764 8.15332 6.75439L7.4707 6.91943C7.29474 6.35867 7.06369 5.82002 6.7998 5.30322L7.45996 5.09424Z"
    fill="currentColor" />
  <path
    d="M12.9385 4.87354C12.6745 5.64338 12.3441 6.32552 11.9482 6.91943L11.2549 6.67822C11.6288 6.15034 11.9477 5.47904 12.2227 4.67627L12.9385 4.87354Z"
    fill="currentColor" />
  <path
    d="M9.7373 4.96143C10.0232 5.55529 10.2318 6.0947 10.3857 6.57861L9.7373 6.8208C9.5393 6.2488 9.31869 5.69893 9.05469 5.14893L9.7373 4.96143Z"
    fill="currentColor" />
  <path
    d="M4.21484 3.60889C4.97367 4.15876 5.61172 4.69769 6.13965 5.24756L5.60156 5.78662C5.12856 5.26962 4.47904 4.71949 3.66504 4.12549L4.21484 3.60889Z"
    fill="currentColor" />
  <path
    d="M13.0146 4.06006C11.4417 4.47798 9.35159 4.69775 6.75586 4.69775L6.52539 4.0376C8.98927 4.03758 11.0354 3.82909 12.6523 3.43311L13.0146 4.06006Z"
    fill="currentColor" />
  <path
    d="M14.5 15.3335V16.3335H2.5V15.3335H14.5ZM15.5 14.3335V2.3335C15.5 1.78121 15.0523 1.3335 14.5 1.3335H2.5C1.94772 1.3335 1.5 1.78121 1.5 2.3335V14.3335C1.5 14.8858 1.94772 15.3335 2.5 15.3335V16.3335C1.39543 16.3335 0.5 15.4381 0.5 14.3335V2.3335C0.5 1.22893 1.39543 0.333496 2.5 0.333496H14.5C15.6046 0.333496 16.5 1.22893 16.5 2.3335V14.3335C16.5 15.4381 15.6046 16.3335 14.5 16.3335V15.3335C15.0523 15.3335 15.5 14.8858 15.5 14.3335Z"
    fill="currentColor" fill-opacity="0.5" />
</svg>