<svg viewBox="0 0 16 16" fill="none" xmlns="http://www.w3.org/2000/svg">
  <path
    d="M5.53027 9.2041C5.09027 10.5901 4.58418 11.8886 4.03418 13.0986L3.07715 12.6689C3.67103 11.4261 4.17751 10.1506 4.60645 8.8418L5.53027 9.2041Z"
    fill="currentColor" />
  <path
    d="M12.1299 7.60938C11.5689 8.02734 10.9308 8.47842 10.2158 8.98438V9.3584H13.0215V10.3818H10.2158V11.9434C10.2158 12.7022 9.84223 13.0868 9.10547 13.0869H7.63086L7.34473 12.1084C7.91673 12.1414 8.36824 12.1631 8.69824 12.1631C9.01712 12.163 9.1816 11.9874 9.18164 11.6465V10.3818H5.95898V9.3584H9.18164V8.63281C9.51164 8.42381 9.96341 8.14862 10.5244 7.80762H6.59668V6.83984H12.1299V7.60938Z"
    fill="currentColor" />
  <path
    d="M3.6709 5.75C4.3639 6.322 4.94718 6.90554 5.40918 7.47754L4.69434 8.19238C4.28734 7.65338 3.70405 7.0701 2.95605 6.4541L3.6709 5.75Z"
    fill="currentColor" />
  <path
    d="M12.5479 4.5625C12.2839 5.3434 11.9538 6.0252 11.5469 6.61914L10.6455 6.30078C11.0085 5.77279 11.3275 5.11254 11.6025 4.30957L12.5479 4.5625Z"
    fill="currentColor" />
  <path
    d="M7.07031 4.72754C7.31227 5.21148 7.54324 5.76177 7.74121 6.38867L6.85059 6.6084C6.67462 6.0585 6.46511 5.51959 6.20117 5.01367L7.07031 4.72754Z"
    fill="currentColor" />
  <path
    d="M9.34668 4.60645C9.62168 5.18945 9.83135 5.71743 9.98535 6.19043L9.12695 6.50977C8.93998 5.93784 8.72001 5.38757 8.45605 4.84863L9.34668 4.60645Z"
    fill="currentColor" />
  <path
    d="M3.81445 3.17676C4.5621 3.72653 5.19996 4.28714 5.7168 4.83691L5.00195 5.55273C4.53995 5.02473 3.91263 4.46314 3.09863 3.86914L3.81445 3.17676Z"
    fill="currentColor" />
  <path
    d="M12.6035 3.8252C11.0085 4.2432 8.89586 4.46289 6.25586 4.46289L5.95898 3.60547C8.40098 3.60547 10.4581 3.396 12.1191 3L12.6035 3.8252Z"
    fill="currentColor" />
  <path fill-rule="evenodd" clip-rule="evenodd"
    d="M14 0C15.1046 0 16 0.895431 16 2V14C16 15.1046 15.1046 16 14 16H2C0.895431 16 0 15.1046 0 14V2C0 0.895431 0.895431 0 2 0H14ZM2 0.799805C1.33726 0.799805 0.799805 1.33726 0.799805 2V14C0.799805 14.6627 1.33726 15.2002 2 15.2002H14C14.6627 15.2002 15.2002 14.6627 15.2002 14V2C15.2002 1.33726 14.6627 0.799805 14 0.799805H2Z"
    fill="currentColor" />
</svg>