<svg xmlns="http://www.w3.org/2000/svg" viewBox="0 0 16 16">
  <g stroke="none" strokeWidth="1" fill="none" fillRule="evenodd">
    <g>
      <rect x="0" y="0" width="16" height="16"></rect>
      <path
        d="M5.64285714,1.77777778 C5.64285714,1.34822297 5.99463341,1 6.42857143,1 L12.7142857,1 C13.1482237,1 13.5,1.34822297 13.5,1.77777778 C13.5,2.20733258 13.1482237,2.55555556 12.7142857,2.55555556 L10.1842857,2.55555556 L7.43428571,13.4444444 L9.57142857,13.4444444 C10.0053666,13.4444444 10.3571429,13.7926674 10.3571429,14.2222222 C10.3571429,14.651777 10.0053666,15 9.57142857,15 L3.28571429,15 C2.85177627,15 2.5,14.651777 2.5,14.2222222 C2.5,13.7926674 2.85177627,13.4444444 3.28571429,13.4444444 L5.81571429,13.4444444 L8.56571429,2.55555556 L6.42857143,2.55555556 C5.99463341,2.55555556 5.64285714,2.20733258 5.64285714,1.77777778 Z"
        fill="currentColor"></path>
    </g>
  </g>
</svg>