<svg xmlns="http://www.w3.org/2000/svg" viewBox="0 0 16 16">
  <g transform="translate(2.5, 2.5)" fillRule="nonzero">
    <path
      d="M1.02973568,0 L0.157488987,0.823210412 C1.02973568,1.51518438 1.69603524,2.14750542 2.15638767,2.74403471 L3.06497797,1.86117137 C2.50770925,1.24078091 1.82929515,0.620390456 1.02973568,0 Z M7.92290749,10.7494577 L10.6971366,10.7494577 L11,9.52060738 C10.6729075,9.54446855 10.2004405,9.56832972 9.58259912,9.59219089 C8.95264317,9.59219089 8.3469163,9.60412148 7.74118943,9.60412148 C6.82048458,9.60412148 6.00881057,9.59219089 5.31828194,9.5802603 C4.61563877,9.55639913 4.09471366,9.46095445 3.74339207,9.28199566 C3.46475771,9.12689805 3.18612335,8.88828633 2.91960352,8.57809111 L2.79845815,8.45878525 L2.79845815,3.9132321 L0.0242290749,3.9132321 L0.0242290749,5.05856833 L1.62334802,5.05856833 L1.62334802,8.32754881 C1.13876652,8.59002169 0.605726872,9.19848156 0,10.1529284 L0.932819383,11 C1.53854626,9.92624729 1.95044053,9.40130152 2.18061674,9.40130152 C2.32599119,9.40130152 2.47136564,9.4967462 2.62885463,9.69956616 C2.98017621,10.1052061 3.39207048,10.3796095 3.87665198,10.5227766 C4.38546256,10.6420824 5.0154185,10.7136659 5.7907489,10.7255965 C6.55396476,10.7375271 7.26872247,10.7494577 7.92290749,10.7494577 Z M4.42180617,0.35791757 L4.42180617,1.55097614 L9.89757709,1.55097614 L9.89757709,0.35791757 L4.42180617,0.35791757 Z M3.64647577,3.07809111 L3.64647577,4.25921909 L5.28193833,4.25921909 C5.23348018,4.9989154 5.13656388,5.63123644 4.99118943,6.15618221 C4.73678414,6.89587852 4.19162996,7.54013015 3.34361233,8.06507592 L4.15528634,9.04338395 C5.2092511,8.37527115 5.87555066,7.54013015 6.15418502,6.53796095 C6.34801762,5.89370933 6.45704846,5.14208243 6.49339207,4.25921909 L7.51101322,4.25921909 L7.51101322,7.86225597 C7.51101322,8.18438178 7.59581498,8.45878525 7.78964758,8.67353579 C7.97136564,8.88828633 8.23788546,9.00759219 8.58920705,9.00759219 L9.49779736,9.00759219 C9.9339207,8.99566161 10.2246696,8.90021692 10.3942731,8.73318872 C10.5517621,8.56616052 10.685022,7.98156182 10.7819383,6.97939262 L9.64317181,6.59761388 C9.59471366,7.31344902 9.54625551,7.70715835 9.47356828,7.77874187 C9.40088106,7.85032538 9.32819383,7.88611714 9.23127753,7.88611714 L9.00110132,7.88611714 C8.80726872,7.88611714 8.72246696,7.79067245 8.72246696,7.59978308 L8.72246696,4.25921909 L10.5396476,4.25921909 L10.5396476,3.07809111 L3.64647577,3.07809111 Z">
    </path>
  </g>
</svg>