<svg xmlns="http://www.w3.org/2000/svg" viewBox="0 0 20 20">
  <path
    d="M10,19 C5.02943725,19 1,14.9705627 1,10 C1,5.02943725 5.02943725,1 10,1 L10.0403361,1 L10.1252557,1.00051188 C10.1347127,1.00017181 10.1442227,1 10.1537815,1 L10.195,1.002 L10.2653623,1.00383711 C10.2710597,1.00400208 10.2767557,1.00417234 10.2824505,1.0043479 L10.0403361,1 C12.5035592,1 14.7948821,1.98199553 16.4699367,3.70113044 C16.5146428,3.747013 16.549027,3.79820236 16.5735566,3.85225375 C18.0784973,5.46120125 19,7.62298638 19,10 C19,14.7351115 15.3432633,18.6161463 10.6996904,18.9732041 C10.6491715,18.9769403 10.5988479,18.9806311 10.5484353,18.9838452 C10.5282101,18.9847807 10.5075532,18.9859527 10.4868778,18.9870548 C10.4219164,18.9911632 10.3572092,18.9939926 10.2923674,18.9960351 C10.2611881,18.9963365 10.2298371,18.9971763 10.1984465,18.9978554 C10.1840901,18.9995646 10.1689975,19 10.1537815,19 L10.1254017,18.9991442 C10.1003621,18.9994861 10.0752979,18.9997258 10.0502094,18.9998629 C10.0448642,18.9999752 10.0392026,19 10.0335422,19 L10,19 Z M7.15416774,14.4406793 L6.97481407,14.5010197 C7.56707244,16.2862986 8.49048506,17.5352155 9.51044118,17.8584754 L9.5087273,14.1002466 C8.54212626,14.1266268 7.81618687,14.2307045 7.15416774,14.4406793 Z M10.7978729,14.109091 L10.7963905,17.6951571 C11.6666293,17.1734571 12.5875153,15.8904 13.0809368,14.5113155 C12.4244271,14.2760029 11.7223239,14.1505086 10.7978729,14.109091 Z M14.049959,14.9470913 L13.9836962,15.1283678 C13.6538306,15.9729837 13.1887911,16.7742154 12.6497876,17.4263198 C13.5224043,17.0722109 14.3337277,16.5384917 15.0509386,15.8474511 L15.2441513,15.6530313 L15.0816373,15.556274 L14.8873114,15.4383133 C14.856663,15.4195111 14.8336767,15.4054094 14.8145414,15.3936719 L14.7154512,15.3329272 L14.643397,15.2887878 C14.4389096,15.1638782 14.2425958,15.0501958 14.049959,14.9470913 Z M6.00224919,14.9353747 L5.91315885,14.9825242 C5.7039364,15.0970705 5.4896393,15.2243556 5.26444628,15.3653081 L5.2096307,15.399655 C5.18219235,15.4168494 5.16563157,15.4272329 5.11594923,15.4583834 C5.05113288,15.4989941 4.99092865,15.5365198 4.9343528,15.5715115 L4.82215126,15.6403254 L5.02973369,15.8474511 C5.68777729,16.4814834 6.42504595,16.9830804 7.21580852,17.3361772 C6.7334279,16.6851594 6.32237324,15.8702637 6.00224919,14.9353747 Z M5.26298726,10.9174634 L2.11128428,10.9177591 C2.28787316,12.4522748 2.90187462,13.8536798 3.82543839,14.9941238 L3.74495773,15.0365506 C3.98302573,14.9122958 4.18699581,14.7909337 4.55377362,14.5611287 C4.62779596,14.5147172 4.62779596,14.5147172 4.70267824,14.4677982 C5.04893057,14.2510725 5.37545368,14.0624028 5.69783586,13.8995141 C5.46771244,12.9809078 5.3180904,11.9751302 5.26298726,10.9174634 Z M17.8887157,10.9177591 L14.7399193,10.9171398 C14.6885791,11.8519016 14.5709143,12.795502 14.391905,13.7298672 L14.3530909,13.9112355 C14.6277067,14.0504818 14.905353,14.2080662 15.1953437,14.3852048 C15.3190784,14.4609995 15.3190784,14.4609995 15.4401622,14.5352833 C15.7632383,14.7330761 15.9785383,14.8578353 16.195798,14.9676146 C17.1073796,13.8324931 17.7134612,12.4406794 17.8887157,10.9177591 Z M13.6792481,10.9174013 L10.796,10.917 L10.797651,13.0495446 C11.822334,13.0927234 12.6194889,13.2309499 13.3598791,13.4865188 L13.3519942,13.530637 C13.5185096,12.6614856 13.6289716,11.7847124 13.6792481,10.9174013 Z M9.51,10.917 L6.32361822,10.9179008 C6.37474628,11.8302202 6.50090806,12.6928099 6.68702385,13.4806478 C7.4854896,13.2068674 8.35247991,13.071537 9.50856586,13.0412234 L9.51,10.917 Z M4.08030441,4.70687955 L3.99294577,4.8058098 C2.86288339,6.11157019 2.15142716,7.78958061 2.06723647,9.63118168 L5.24303764,9.63161806 C5.27175116,8.24417837 5.46210892,6.93359519 5.78365831,5.77254038 C5.58211409,5.66144274 5.38023431,5.53911651 5.17578764,5.40626236 C5.14197966,5.38429316 5.08465592,5.34643989 5.01802267,5.30227375 L4.62015904,5.03809213 L4.56569262,5.00221149 C4.38286657,4.88295612 4.22692338,4.78743585 4.08030441,4.70687955 Z M10.797913,6.71644625 L10.796,9.631 L13.7090769,9.63118404 C13.695456,8.54184486 13.5804788,7.48176362 13.3555586,6.48644043 L13.2964106,6.23755794 C12.5705204,6.50915254 11.7792146,6.66544132 10.797913,6.71644625 Z M15.9471149,4.73734347 L15.8589368,4.78746979 C15.7531558,4.84976919 15.6403926,4.92040602 15.5149796,5.00221149 C15.4296085,5.05789809 15.0232126,5.32937015 14.9048846,5.40626236 C14.6929074,5.54401004 14.4836896,5.67043995 14.2737533,5.78583188 C14.3141889,5.93828834 14.352482,6.09437283 14.3883406,6.25305537 C14.6311676,7.32762008 14.7544231,8.46603783 14.7681498,9.63186156 L17.9327635,9.63118168 C17.8470939,7.75723053 17.1119278,6.05266787 15.9471149,4.73734347 Z M6.75930137,6.22816378 L6.70267965,6.45384075 C6.47038849,7.41478598 6.32761517,8.4891751 6.30216325,9.63087307 L9.51,9.631 L9.50893397,6.72622385 C8.41003925,6.68803978 7.54685607,6.52631243 6.75930137,6.22816378 Z M7.12517289,5.07579901 L7.07451386,5.21481012 C7.76536963,5.48498935 8.52053041,5.63007287 9.50867217,5.66684982 L9.51044118,2.14152459 C8.57312609,2.43859265 7.71734361,3.51739346 7.12517289,5.07579901 Z M10.7965986,2.23614059 L10.7982915,5.65630219 C11.670713,5.60712444 12.3588512,5.46607573 12.9921363,5.22027325 C12.4524617,3.69662631 11.6569406,2.63669092 10.7965986,2.23614059 Z M12.7758162,2.55746351 L12.8926096,2.71266875 C13.3038563,3.27778828 13.6607937,3.96598403 13.9491781,4.7516394 C14.074205,4.67956263 14.2002607,4.60140125 14.3279486,4.51842673 C14.375548,4.48749556 14.4772046,4.42008344 14.5850921,4.34841115 L14.7950041,4.20893324 C14.8582968,4.16691179 14.9101881,4.13254383 14.9365071,4.11537625 C15.0077191,4.06892546 15.0758321,4.02536262 15.1416646,3.9843047 L15.1666011,3.96917878 C14.4651651,3.36769763 13.6575833,2.88647244 12.7758162,2.55746351 Z M7.31613971,2.53472512 L7.23383619,2.5648623 C6.45127754,2.85895744 5.72149788,3.27605528 5.06910042,3.80245581 L4.88885714,3.95305882 L4.93900763,3.9843047 L5.1441652,4.11537625 L5.20105154,4.15283454 L5.4955802,4.34841115 C5.60346767,4.42008344 5.70512427,4.48749556 5.75272364,4.51842673 C5.8755755,4.59825869 5.99691656,4.67363519 6.11774602,4.74465569 C6.44225438,3.88057192 6.84717633,3.13145362 7.31613971,2.53472512 Z">
  </path>
</svg>