<svg xmlns="http://www.w3.org/2000/svg">
  <g>
    <path fill="#8AB0E6"
      d="M1.5,3.99922997 L1.5,16.00077 C1.5,17.3789972 2.62361302,18.5 4.00989318,18.5 L43.9901068,18.5 C45.3779143,18.5 46.5,17.3806595 46.5,16.00077 L46.5,3.99922997 C46.5,2.62100278 45.376387,1.5 43.9901068,1.5 L4.00989318,1.5 C2.62208571,1.5 1.5,2.61934051 1.5,3.99922997 Z M5.5264435e-14,3.99922997 C5.5264435e-14,1.79051625 1.79405245,-1.50990331e-13 4.00989318,-1.50990331e-13 L43.9901068,-1.50990331e-13 C46.2047097,-1.50990331e-13 48,1.79246765 48,3.99922997 L48,16.00077 C48,18.2094838 46.2059475,20 43.9901068,20 L4.00989318,20 C1.79529033,20 5.5264435e-14,18.2075324 5.5264435e-14,16.00077 L5.5264435e-14,3.99922997 Z" />
    <path fill="#8AB0E6"
      d="M8.4453125,15.0800781 C7.77343414,15.0800781 7.27734535,14.9140642 6.95703125,14.5820312 C6.63671715,14.2578109 6.4765625,13.759769 6.4765625,13.0878906 L6.4765625,7.62109375 L8.08789062,7.62109375 L8.08789062,8.8046875 L13.6367188,8.8046875 L13.6367188,6.3671875 L6.20117188,6.3671875 L6.20117188,4.90820312 L15.2304688,4.90820312 L15.2304688,10.2695312 L8.08789062,10.2695312 L8.08789062,12.6777344 C8.08789062,13.0253924 8.15917897,13.2705071 8.30175781,13.4130859 C8.44433665,13.5556648 8.68554518,13.6269531 9.02539062,13.6269531 L13.4140625,13.6269531 C13.8281271,13.6269531 14.1201163,13.5634772 14.2900391,13.4365234 C14.4599618,13.3095697 14.5761716,13.0683612 14.6386719,12.7128906 C14.7324223,12.1152314 14.7988279,11.6171895 14.8378906,11.21875 C15.2949242,11.363282 15.8124971,11.5136711 16.390625,11.6699219 C16.3007808,12.4316444 16.1992193,13.0683568 16.0859375,13.5800781 C15.9687494,14.1308621 15.7460954,14.5195301 15.4179688,14.7460938 C15.1015609,14.9687511 14.6191439,15.0800781 13.9707031,15.0800781 L8.4453125,15.0800781 Z M19.3125,15.5136719 L19.3125,11.9160156 C19.2812498,11.9550783 19.2363284,12.0117184 19.1777344,12.0859375 C19.0097648,12.2890635 18.8808598,12.4394526 18.7910156,12.5371094 C18.6464837,11.8183558 18.5332035,11.2929704 18.4511719,10.9609375 C19.0566437,10.2226526 19.5429669,9.36328615 19.9101562,8.3828125 L21.2695312,8.546875 C21.2499999,8.5859377 21.2226564,8.64453086 21.1875,8.72265625 C21.085937,8.96093869 21.0078128,9.13281197 20.953125,9.23828125 L22.0546875,9.23828125 L21.8144531,8.59375 L23.1679688,8.44140625 L23.4550781,9.23828125 L24.7734375,9.23828125 L24.7734375,10.234375 L23.1679688,10.234375 L23.1679688,10.84375 L24.6855469,10.84375 L24.6855469,11.8457031 L23.1679688,11.8457031 L23.1679688,12.4433594 L24.6972656,12.4433594 L24.6972656,13.3222656 C24.716797,13.3066405 24.7460936,13.2812502 24.7851562,13.2460938 C25.1953146,12.8984358 25.4824211,12.6386727 25.6464844,12.4667969 C25.3691392,11.3339787 25.1992191,9.92969588 25.1367188,8.25390625 L18.6035156,8.25390625 L18.6035156,7.046875 L21.2226562,7.046875 L21.2226562,6.3671875 L19.1601562,6.3671875 L19.1601562,5.25976562 L21.2226562,5.25976562 L21.2226562,4.35742188 L22.6582031,4.35742188 L22.6582031,5.25976562 L24.5449219,5.25976562 L24.5449219,6.3671875 L22.6582031,6.3671875 L22.6582031,7.046875 L25.1015625,7.046875 C25.0781249,6.14843301 25.0664062,5.24805139 25.0664062,4.34570312 L26.4902344,4.34570312 C26.4902344,5.61524072 26.4941406,6.51562234 26.5019531,7.046875 L29.3847656,7.046875 L29.3847656,8.25390625 L26.5371094,8.25390625 C26.5800783,9.33594291 26.6562495,10.2617149 26.765625,11.03125 C27.0507827,10.5664039 27.4179665,9.79688037 27.8671875,8.72265625 L29.0800781,9.30859375 C28.7050762,10.0976602 28.384767,10.7324195 28.1191406,11.2128906 C27.8105453,11.7714872 27.5019547,12.2636697 27.1933594,12.6894531 C27.216797,12.7558597 27.2402343,12.8212887 27.2636719,12.8857422 C27.2871095,12.9501956 27.3105468,13.0136716 27.3339844,13.0761719 C27.4667975,13.5683618 27.6328115,13.8144531 27.8320312,13.8144531 C27.9453131,13.8144531 28.0195311,13.7167979 28.0546875,13.5214844 C28.1523442,13.0292944 28.2324216,12.4550814 28.2949219,11.7988281 C28.7285178,12.0019541 29.1113265,12.1621088 29.4433594,12.2792969 C29.3574214,13.0566445 29.2519538,13.7285128 29.1269531,14.2949219 C29.0371089,14.6933614 28.8808605,14.9960927 28.6582031,15.203125 C28.439452,15.4023447 28.1718766,15.5019531 27.8554688,15.5019531 C27.4882794,15.5019531 27.1757825,15.3945323 26.9179688,15.1796875 C26.6210923,14.9335925 26.3515637,14.5214873 26.109375,13.9433594 C25.7695296,14.2871111 25.4941417,14.5527334 25.2832031,14.7402344 L24.890625,14.1425781 L24.890625,15.0449219 L20.6191406,15.0449219 L20.6191406,15.5136719 L19.3125,15.5136719 Z M20.6191406,14.0488281 L21.8671875,14.0488281 L21.8671875,13.4394531 L20.6191406,13.4394531 L20.6191406,14.0488281 Z M23.1679688,14.0488281 L24.8203125,14.0488281 L24.4628906,13.5097656 L24.5449219,13.4394531 L23.1679688,13.4394531 L23.1679688,14.0488281 Z M20.6191406,12.4433594 L21.8671875,12.4433594 L21.8671875,11.8457031 L20.6191406,11.8457031 L20.6191406,12.4433594 Z M20.6191406,10.84375 L21.8671875,10.84375 L21.8671875,10.234375 L20.6191406,10.234375 L20.6191406,10.84375 Z M28.0546875,6.89453125 C27.6484355,6.38671621 27.1992212,5.86523705 26.7070312,5.33007812 L27.65625,4.58007812 C28.2187528,5.12304959 28.6914043,5.61327906 29.0742188,6.05078125 L28.0546875,6.89453125 Z M32.8691406,15.5605469 L32.8691406,10.8789062 C32.5878892,11.5742222 32.2363302,12.2792933 31.8144531,12.9941406 C31.8027343,12.9199215 31.7851564,12.798829 31.7617188,12.6308594 C31.6406244,11.798824 31.5449222,11.2148454 31.4746094,10.8789062 C32.0722686,9.9882768 32.5332015,8.97266195 32.8574219,7.83203125 L31.7207031,7.83203125 L31.7207031,6.47265625 L32.8691406,6.47265625 L32.8691406,4.34570312 L34.2226562,4.34570312 L34.2226562,6.47265625 L35.2773438,6.47265625 L35.2773438,7.83203125 L34.2226562,7.83203125 L34.2226562,9.4609375 L34.6152344,9.02734375 C35.2011748,9.62109672 35.6210925,10.0507799 35.875,10.3164062 L35.03125,11.3886719 L34.2226562,10.3984375 L34.2226562,15.5605469 L32.8691406,15.5605469 Z M36.765625,15.4667969 C36.7343748,15.1855455 36.6464851,14.6933629 36.5019531,13.9902344 C36.7558606,14.0058595 37.0917948,14.0136719 37.5097656,14.0136719 C37.7402355,14.0136719 37.9003902,13.9658208 37.9902344,13.8701172 C38.0800786,13.7744136 38.125,13.6113293 38.125,13.3808594 L38.125,9.42578125 L35.4003906,9.42578125 L35.4003906,8.04296875 L42.3847656,8.04296875 L42.3847656,9.42578125 L39.5722656,9.42578125 L39.5722656,13.9199219 C39.5722656,14.4160181 39.4589855,14.7832019 39.2324219,15.0214844 C39.001952,15.2714856 38.6250026,15.4121092 38.1015625,15.4433594 L38.0136719,15.4433594 C37.4707004,15.4589845 37.0546889,15.4667969 36.765625,15.4667969 Z M36.0625,14.3886719 C35.6640605,14.1503894 35.2402366,13.939454 34.7910156,13.7558594 C35.4121125,12.4941343 35.9472634,11.2812558 36.3964844,10.1171875 L37.6972656,10.5390625 C37.2363258,11.6992246 36.6914094,12.9824148 36.0625,14.3886719 Z M41.2246094,14.2832031 C41.1933592,14.1933589 41.1425785,14.0585946 41.0722656,13.8789062 C40.5136691,12.4062426 40.085939,11.3164098 39.7890625,10.609375 L41.0429688,10.1054688 C41.4531271,11.0390672 41.9550752,12.2363208 42.5488281,13.6972656 L41.2246094,14.2832031 Z M35.8398438,6.35546875 L35.8398438,4.99023438 L41.921875,4.99023438 L41.921875,6.35546875 L35.8398438,6.35546875 Z" />
  </g>
</svg>