<svg xmlns="http://www.w3.org/2000/svg" viewBox="0 0 24 24">
  <path
    d="M9.58826722,4.6573842 C9.92168092,3.74314137 11.2319981,3.79541325 11.4915252,4.73331001 L14.688,16.288 L16.4146643,12.9829796 C16.5678858,12.6894635 16.8548312,12.4932696 17.1783167,12.4532947 L17.3011467,12.4457418 L23,12.4457418 C23.5522847,12.4457418 24,12.8934571 24,13.4457418 C24,13.9980266 23.5522847,14.4457418 23,14.4457418 L17.907,14.445 L15.288191,19.4627622 C14.8872992,20.2307236 13.786397,20.1508996 13.476635,19.381307 L13.4379262,19.26669 L10.396,8.278 L8.44718444,13.6237525 C8.31762446,13.9790147 8.00063172,14.2272862 7.63222771,14.2733878 L7.50770884,14.2811367 L1,14.2811367 C0.44771525,14.2811367 0,13.8334215 0,13.2811367 C0,12.728852 0.44771525,12.2811367 1,12.2811367 L6.808,12.281 L9.58826722,4.6573842 Z" />
</svg>