<svg width="16" height="16" viewBox="0 0 16 16" fill="none" xmlns="http://www.w3.org/2000/svg">
  <path
    d="M15.0001 8C15.0001 4.13401 11.8661 1 8.00007 1C6.80156 1 5.67154 1.30176 4.68383 1.83399C3.75406 2.33499 2.95061 3.04006 2.3334 3.88962V1.66667H1.00007V6.33333H5.66674V5H3.19167C3.71348 4.16562 4.44671 3.47634 5.31631 3.00776C6.11447 2.57767 7.02774 2.33333 8.00007 2.33333C11.1297 2.33333 13.6667 4.87039 13.6667 8C13.6667 11.1296 11.1297 13.6667 8.00007 13.6667C5.07234 13.6667 2.66244 11.4458 2.36445 8.5973L2.29509 7.93426L0.968994 8.07298L1.03836 8.73603C1.40663 12.2564 4.38251 15 8.00007 15C11.8661 15 15.0001 11.866 15.0001 8ZM7.3334 4V8.27614L9.66674 10.6095L10.6095 9.66667L8.66674 7.72386V4H7.3334Z"
    fill="currentColor" />
</svg>