<svg xmlns="http://www.w3.org/2000/svg" viewBox="0 0 16 16">
  <path
    d="M12.4305633,5.1235865 C12.4305633,5.60178869 12.0459435,5.98604452 11.5694367,5.98604452 C11.0918173,5.98604452 10.7083101,5.5996345 10.7083101,5.1213535 L10.7083101,1.54913144 C10.7083101,1.07137973 11.0946268,0.684440426 11.5715279,0.684440426 L15.1367822,0.684440426 C15.613719,0.684440426 16,1.07047793 16,1.54703614 C16,2.0252712 15.6154401,2.40963185 15.1390108,2.40963185 L13.7486463,2.40963185 C15.1868036,3.89683228 16,5.88601982 16,7.98457895 C16,12.411326 12.4183259,16 8,16 C3.58167415,16 0,12.411326 0,7.98457895 C0,3.83085756 3.16689931,0.375049029 7.26807449,0.00226479456 C7.28488392,0.000736924894 7.29864118,-0.000513520987 7.31014837,0.000211586988 C7.772139,-0.00857301347 8.14723926,0.362259448 8.14723926,0.831753605 C8.14723926,1.26837889 7.8317049,1.64220911 7.41848475,1.718754 L7.39682411,1.72247886 C7.3692271,1.72685982 7.34121797,1.72991804 7.31286007,1.73158532 L7.28488317,1.43826613 L7.3359211,1.43273142 C7.37414022,1.42858682 7.37419946,1.4285804 7.41848475,1.718754 C7.41129374,1.72008607 7.40407314,1.7213281 7.39682411,1.72247886 L7.31661546,1.73117694 C4.14361487,2.07931334 1.72225321,4.76808174 1.72225321,7.98457895 C1.72225321,11.4586246 4.53294403,14.2748086 8,14.2748086 C11.467056,14.2748086 14.2777468,11.4586246 14.2777468,7.98457895 C14.2777468,6.29639695 13.6085199,4.70200783 12.4305633,3.52765376 L12.4305633,5.1235865 Z M7.85276074,8.19490703 L7.85276074,5.12054626 C7.85276074,4.64605748 8.23856608,4.2608531 8.71388734,4.2608531 C9.19127544,4.2608531 9.57501394,4.64480253 9.57501394,5.12054626 L9.57501394,9.06040529 C9.57501394,9.53489407 9.1892086,9.92009846 8.71388734,9.92009846 L5.50125689,9.92009846 C5.02377359,9.92009846 4.64026771,9.53472743 4.64026771,9.05750275 C4.64026771,8.57926768 5.02482759,8.19490703 5.50125689,8.19490703 L7.85276074,8.19490703 Z" />
</svg>