<svg xmlns="http://www.w3.org/2000/svg" viewBox="0 0 16 16">
  <g transform="translate(2.5, 2.5)" fillRule="nonzero">
    <path
      d="M1.35868393,11 L1.35868393,5.03419253 C0.971053578,5.63598106 0.613088817,6.15868841 0.284789644,6.60231457 C0.265012585,6.49430124 0.237324703,6.33421006 0.201725998,6.12204103 C0.11470694,5.58968964 0.0474649407,5.19814133 0,4.94739611 C1.02049622,3.51236191 1.80564545,1.86322988 2.35544768,0 L3.53020496,0.329826407 C3.23354908,1.23636682 2.90920532,2.06961248 2.55717368,2.82956339 L2.55717368,11 L1.35868393,11 Z M6.33063646,11 L6.33063646,5.54339821 C5.99442647,6.30720673 5.60679612,7.00543574 5.16774542,7.63808522 C4.72869471,8.26301946 4.18680331,8.90145537 3.5420712,9.55339295 C3.44714132,9.41837629 3.27903632,9.19656321 3.0377562,8.88795371 C2.88349515,8.69507277 2.77669903,8.55619849 2.71736785,8.47133088 C3.60338008,7.69209188 4.29953254,6.93985622 4.80582524,6.21462388 C5.32002877,5.48167631 5.75907947,4.60985446 6.12297735,3.59915834 L3.32254585,3.59915834 L3.32254585,2.41872699 L6.33063646,2.41872699 L6.33063646,0.0867964229 L7.52912621,0.0867964229 L7.52912621,2.41872699 L10.6677454,2.41872699 L10.6677454,3.59915834 L7.73085221,3.59915834 C8.12243797,4.68314922 8.5545667,5.56750833 9.0272384,6.25223567 C9.4999101,6.936963 10.1574973,7.63229879 11,8.33824303 C10.9288026,8.44239874 10.8160734,8.60056111 10.6618123,8.81273014 C10.4600863,9.08662108 10.3097807,9.2968613 10.2108954,9.44345082 C9.55825243,8.79151324 9.02427184,8.16175697 8.60895361,7.55418201 C8.19363538,6.94660705 7.83369292,6.27248816 7.52912621,5.53182536 L7.52912621,11 L6.33063646,11 Z">
    </path>
  </g>
</svg>