<svg xmlns="http://www.w3.org/2000/svg" viewBox="0 0 20 10">
  <g fillRule="evenodd">
    <rect width="20" height="10" fillRule="nonzero" rx="2" fill='currentColor' />
    <path fill="#fff"
      d="M6.67742743,7.9197861 L5.19269269,7.9197861 L5.19269269,5.48128342 L2.99324324,5.48128342 L2.99324324,7.9197861 L1.5,7.9197861 L1.5,2.0802139 L2.99324324,2.0802139 L2.99324324,4.39839572 L5.19269269,4.39839572 L5.19269269,2.0802139 L6.67742743,2.0802139 L6.67742743,7.9197861 Z M12.8673674,5.12032086 C12.8673674,5.68984242 12.7553398,6.19384807 12.5312813,6.63235294 C12.3072228,7.07085781 11.9888659,7.40842128 11.5762012,7.64505348 C11.1635365,7.88168568 10.6934461,8 10.1659159,8 C9.63838575,8 9.17042246,7.88569633 8.76201201,7.65708556 C8.35360156,7.42847479 8.03524472,7.1016064 7.80693193,6.67647059 C7.57861915,6.25133477 7.45879218,5.76337174 7.44744745,5.21256684 L7.44744745,4.88368984 C7.44744745,4.31149447 7.55876599,3.80682037 7.78140641,3.36965241 C8.00404683,2.93248445 8.3231127,2.59492098 8.73861361,2.35695187 C9.15411452,2.11898277 9.62704106,2 10.1574074,2 C10.6821014,2 11.1500647,2.11764588 11.5613113,2.35294118 C11.9725579,2.58823647 12.2923329,2.92312617 12.5206456,3.35762032 C12.7489584,3.79211447 12.8645312,4.29010414 12.8673674,4.85160428 L12.8673674,5.12032086 Z M11.3485986,4.87566845 C11.3485986,4.29545164 11.2457885,3.85494803 11.0401652,3.55414439 C10.8345418,3.25334074 10.5402922,3.10294118 10.1574074,3.10294118 C9.40865491,3.10294118 9.01301323,3.63234765 8.97047047,4.69117647 L8.96621622,5.12032086 C8.96621622,5.69251623 9.06689923,6.1323514 9.26826827,6.43983957 C9.46963731,6.74732774 9.7688502,6.90106952 10.1659159,6.90106952 C10.5431283,6.90106952 10.8338328,6.75000151 11.038038,6.44786096 C11.2422433,6.14572041 11.3457624,5.71123278 11.3485986,5.14438503 L11.3485986,4.87566845 Z M18.5,3.1671123 L16.6408909,3.1671123 L16.6408909,7.9197861 L15.1476476,7.9197861 L15.1476476,3.1671123 L13.3225726,3.1671123 L13.3225726,2.0802139 L18.5,2.0802139 L18.5,3.1671123 Z" />
  </g>
</svg>