<svg xmlns="http://www.w3.org/2000/svg" width="16" height="16">
  <g stroke="none" strokeWidth="1" fill="none" fillRule="evenodd">
    <g>
      <rect fillRule="nonzero" x="0" y="0" width="16" height="16" rx="2"></rect>
      <path
        d="M8.4,0 C7,2.17445455 10.53325,4.655 11.55,5.94045455 C12.2108,6.776 12.6,7.80118182 12.6,8.90909091 C12.6,11.7208636 10.09295,14 7,14 C3.90705,14 1.4,11.7208636 1.4,8.90909091 C1.4,7.40790909 1.94705,6.19595455 3.0408,5.27322727 C3.25993641,5.08821415 3.58416028,5.05019612 3.84776572,5.17860362 C4.11137115,5.30701112 4.2561267,5.57347844 4.20805,5.84181818 C4.0292,6.84186364 4.36695,7.34204545 5.22095,7.34204545 C7.4592,7.34204545 2.7853,1.04204545 8.4,0 Z M9.8,8.90909091 C9.41340068,8.90909091 9.1,9.19400061 9.1,9.54545455 C9.1,10.2483624 8.47319865,10.8181818 7.7,10.8181818 C7.31340068,10.8181818 7,11.1030915 7,11.4545455 C7,11.8059994 7.31340068,12.0909091 7.7,12.0909091 C9.2463973,12.0909091 10.5,10.9512703 10.5,9.54545455 C10.5,9.19400061 10.1865993,8.90909091 9.8,8.90909091 Z"
        fill="#FF5023"></path>
    </g>
  </g>
</svg>