<svg xmlns="http://www.w3.org/2000/svg" viewBox="0 0 24 24">
  <path transform="translate(4 4)"
    d="M12.6315789,13.4736842 C12.6315789,13.9387661 13.0086023,14.3157895 13.4736842,14.3157895 C13.9387661,14.3157895 14.3157895,13.9387661 14.3157895,13.4736842 L14.3157895,8 C14.3157895,7.53491811 14.6928128,7.15789474 15.1578947,7.15789474 C15.6229766,7.15789474 16,7.53491811 16,8 L16,13.4736842 C16,14.8689299 14.8689299,16 13.4736842,16 L2.52631579,16 C1.13107011,16 0,14.8689299 0,13.4736842 L0,1.68421053 C0,0.754046737 0.754046737,0 1.68421053,0 L10.9473684,0 C11.8775322,0 12.6315789,0.754046737 12.6315789,1.68421053 L12.6315789,13.4736842 Z M3.15789474,7.57894737 C2.80908332,7.57894737 2.52631579,7.86171489 2.52631579,8.21052632 C2.52631579,8.55933774 2.80908332,8.84210526 3.15789474,8.84210526 L9.47368421,8.84210526 C9.82249563,8.84210526 10.1052632,8.55933774 10.1052632,8.21052632 C10.1052632,7.86171489 9.82249563,7.57894737 9.47368421,7.57894737 L3.15789474,7.57894737 Z M3.15789474,10.1052632 C2.80908332,10.1052632 2.52631579,10.3880307 2.52631579,10.7368421 C2.52631579,11.0856535 2.80908332,11.3684211 3.15789474,11.3684211 L6.52631579,11.3684211 C6.87512721,11.3684211 7.15789474,11.0856535 7.15789474,10.7368421 C7.15789474,10.3880307 6.87512721,10.1052632 6.52631579,10.1052632 L3.15789474,10.1052632 Z M3.36842105,2.52631579 C2.90333916,2.52631579 2.52631579,2.90333916 2.52631579,3.36842105 L2.52631579,5.05263158 C2.52631579,5.51771347 2.90333916,5.89473684 3.36842105,5.89473684 L9.26315789,5.89473684 C9.72823979,5.89473684 10.1052632,5.51771347 10.1052632,5.05263158 L10.1052632,3.36842105 C10.1052632,2.90333916 9.72823979,2.52631579 9.26315789,2.52631579 L3.36842105,2.52631579 Z" />
</svg>