<svg xmlns="http://www.w3.org/2000/svg" viewBox="0 0 24 24">
  <path
    d="M19.2822 12.8047C21.6834 12.8048 23.6298 14.7512 23.6299 17.1523C23.6296 19.5533 21.6832 21.4999 19.2822 21.5C16.8812 21.4999 14.9348 19.5533 14.9346 17.1523C14.9347 14.7512 16.8811 12.8048 19.2822 12.8047ZM21.6084 14.7764C21.4 14.5634 20.9823 14.4412 20.6953 14.7344L16.9053 18.6055C16.7785 18.7353 16.7194 18.9025 16.7354 19.0752C16.751 19.2424 16.8343 19.3952 16.9531 19.5166L17.0508 19.6025C17.1538 19.6804 17.2723 19.732 17.3994 19.7422C17.5738 19.756 17.7377 19.6896 17.8604 19.5645L21.6553 15.6875C21.7823 15.5577 21.842 15.3905 21.8262 15.2178C21.8107 15.0505 21.7272 14.8978 21.6084 14.7764ZM20.9375 17.8291C20.6863 17.8279 20.4454 17.9285 20.2686 18.1074C20.0922 18.286 19.9935 18.5279 19.9922 18.7793C19.9912 19.0309 20.0878 19.2748 20.2627 19.4551C20.4378 19.6353 20.6777 19.739 20.9287 19.7402L21.0225 19.7354C21.2394 19.7137 21.4431 19.616 21.5977 19.459C21.7739 19.2798 21.873 19.0369 21.874 18.7852V18.7783L21.873 18.7451V18.7393L21.8643 18.6494C21.8349 18.4404 21.7374 18.2453 21.5859 18.0967C21.4124 17.9267 21.1801 17.8304 20.9375 17.8291ZM18.1514 3.5C18.6315 3.5 19.0213 3.88909 19.0215 4.36914V11.5068C16.021 11.6431 13.6299 14.1182 13.6299 17.1523C13.6299 17.8566 13.7598 18.5305 13.9951 19.1523H4.23828C3.75823 19.1521 3.36914 18.7623 3.36914 18.2822V4.36914C3.36937 3.88923 3.75837 3.50023 4.23828 3.5H18.1514ZM17.6367 14.5723C17.3855 14.5711 17.1446 14.6716 16.9678 14.8506C16.7914 15.0293 16.6926 15.2719 16.6914 15.5234C16.6905 15.7749 16.7871 16.018 16.9619 16.1982C17.1371 16.3786 17.3769 16.4822 17.6279 16.4834H17.6348L17.668 16.4824H17.6729C17.9162 16.471 18.1455 16.3634 18.3125 16.1855C18.4791 16.0079 18.5723 15.7723 18.5732 15.5283V15.5215L18.5723 15.4883V15.4824L18.5635 15.3926C18.5341 15.1835 18.4367 14.9885 18.2852 14.8398C18.1115 14.6699 17.8793 14.5735 17.6367 14.5723ZM12.2158 8.06543C11.8558 8.06563 11.5635 8.35771 11.5635 8.71777C11.5637 9.07761 11.856 9.36992 12.2158 9.37012H13.9102L11.3838 11.7695L9.33789 9.82617C9.11756 9.61677 8.78777 9.59091 8.54004 9.74805L8.43945 9.82617L5.52832 12.5928C5.26769 12.8409 5.25697 13.2537 5.50488 13.5146C5.75289 13.7755 6.16568 13.7858 6.42676 13.5381L8.8877 11.1982L10.9346 13.1436C11.1861 13.3823 11.5813 13.382 11.833 13.1436L14.8906 10.2373V11.8799C14.8909 12.2397 15.1831 12.532 15.543 12.5322C15.9029 12.5321 16.195 12.2397 16.1953 11.8799V8.71777C16.1953 8.35766 15.9031 8.06554 15.543 8.06543H12.2158Z"
    fill="currentColor" />
</svg>