<svg viewBox="0 0 31 17" fill="none" xmlns="http://www.w3.org/2000/svg">
  <path fill-rule="evenodd" clip-rule="evenodd"
    d="M7.6958 3.44385C7.55281 4.36777 7.3762 5.22561 7.17822 6.03955H12.3267V6.79932H6.96924C6.83729 7.23913 6.70521 7.65738 6.55127 8.05322H11.0503V8.73486C10.7533 9.68083 10.1593 10.5391 9.25732 11.3091C10.1483 11.8371 11.2373 12.3213 12.5132 12.7612L12.1069 13.4976C10.6991 12.9806 9.53285 12.4199 8.60889 11.8149C7.70689 12.4529 6.58442 13.0245 5.25342 13.5415L4.83545 12.8052C6.06744 12.3542 7.09053 11.8588 7.91553 11.3198C7.05765 10.6599 6.45236 9.94518 6.08936 9.17529C5.28638 10.9131 4.25243 12.2881 2.99854 13.311L2.59131 12.5845C4.19722 11.1765 5.37502 9.25216 6.14502 6.79932H3.4165L4.28564 3.74072L5.06689 3.87256L4.43994 6.03955H6.36475C6.58467 5.18178 6.76011 4.29094 6.89209 3.34521L7.6958 3.44385ZM6.68311 8.77881C7.05711 9.52681 7.68494 10.2199 8.56494 10.8579C9.37883 10.22 9.93958 9.52675 10.2476 8.77881H6.68311Z"
    fill="currentColor" />
  <path
    d="M17.3101 6.35889C16.9911 6.97479 16.5947 7.56872 16.1108 8.11865V13.5093H15.3296V8.92139C14.8896 9.31739 14.4162 9.70292 13.8882 10.0659L13.6577 9.27393C14.9996 8.32796 15.9782 7.24975 16.5942 6.02881L17.3101 6.35889Z"
    fill="currentColor" />
  <path
    d="M23.5688 7.70068H21.7866V12.5083C21.7865 13.146 21.4231 13.4653 20.7192 13.4653H19.103L18.938 12.6841C19.4658 12.7171 19.961 12.7388 20.4448 12.7388C20.7966 12.7387 20.9838 12.5959 20.9839 12.3101V7.70068H17.519V6.91943H23.5688V7.70068Z"
    fill="currentColor" />
  <path
    d="M25.9663 11.1001C26.1643 11.1001 26.3187 11.1547 26.4507 11.2866C26.5716 11.4076 26.6371 11.5617 26.6372 11.7485C26.6372 11.9465 26.5717 12.1012 26.4507 12.2222C26.3187 12.3431 26.1533 12.4087 25.9663 12.4087C25.7795 12.4086 25.6253 12.3431 25.5044 12.2222C25.3724 12.0902 25.3062 11.9355 25.3062 11.7485C25.3062 11.5617 25.3725 11.4076 25.5044 11.2866C25.6253 11.1547 25.7794 11.1001 25.9663 11.1001Z"
    fill="currentColor" />
  <path d="M26.3188 10.2964H25.6362L25.4604 4.55518H26.4839L26.3188 10.2964Z" fill="currentColor" />
  <path
    d="M16.7925 3.85107C16.1765 5.0719 15.1865 6.14957 13.8228 7.08447L13.5913 6.29248C14.7353 5.4785 15.5606 4.55496 16.0776 3.521L16.7925 3.85107Z"
    fill="currentColor" />
  <path
    d="M9.54346 3.43311C10.3353 4.03798 10.9843 4.64269 11.5122 5.24756L10.9517 5.80908C10.4897 5.22608 9.84014 4.60971 9.01514 3.94971L9.54346 3.43311Z"
    fill="currentColor" />
  <path d="M23.0845 4.90674H17.8159V4.12549H23.0845V4.90674Z" fill="currentColor" />
  <path
    d="M28.5 15.3335V16.3335H2.5V15.3335H28.5ZM29.5 14.3335V2.3335C29.5 1.78121 29.0523 1.3335 28.5 1.3335H2.5C1.94772 1.3335 1.5 1.78121 1.5 2.3335V14.3335C1.5 14.8858 1.94772 15.3335 2.5 15.3335V16.3335L2.2959 16.3228C1.28722 16.2205 0.5 15.3691 0.5 14.3335V2.3335C0.5 1.22893 1.39543 0.333496 2.5 0.333496H28.5C29.6046 0.333496 30.5 1.22893 30.5 2.3335V14.3335C30.5 15.3691 29.7128 16.2205 28.7041 16.3228L28.5 16.3335V15.3335C29.0523 15.3335 29.5 14.8858 29.5 14.3335Z"
    fill="currentColor" fill-opacity="0.5" />
</svg>