<svg viewBox="0 0 32 16" fill="none" xmlns="http://www.w3.org/2000/svg">
  <path fill-rule="evenodd" clip-rule="evenodd"
    d="M8.31641 3.14355C8.18444 4.01229 8.01994 4.82616 7.83301 5.58496H12.8701V6.58594H7.56836C7.45838 6.94886 7.33752 7.29018 7.22754 7.62012H11.6279V8.5C11.3419 9.402 10.8023 10.2164 9.98828 10.9424C10.8243 11.4044 11.8367 11.8335 13.0137 12.2295L12.4746 13.2197C11.1436 12.7357 10.0211 12.196 9.11914 11.624C8.25023 12.2289 7.18375 12.7795 5.91895 13.2744L5.36816 12.2842C6.46803 11.8882 7.41437 11.4485 8.19531 10.9756C7.48047 10.4037 6.94184 9.78753 6.58984 9.13867C5.79788 10.7666 4.79657 12.0643 3.59766 13.0322L3.05859 12.0645C4.57659 10.7225 5.71001 8.89594 6.45801 6.58594H3.77344L4.64258 3.37402L5.6875 3.55078L5.11523 5.58496H6.74316C6.95211 4.77113 7.11802 3.91351 7.25 3.01172L8.31641 3.14355ZM7.34863 8.56641C7.7116 9.21533 8.28358 9.82017 9.06445 10.3701C9.75737 9.80917 10.2633 9.20434 10.5713 8.56641H7.34863Z"
    fill="currentColor" />
  <path
    d="M17.8535 6.0918C17.5565 6.68566 17.1824 7.24652 16.7314 7.77441V13.208H15.709V8.79688C15.313 9.13784 14.8946 9.46814 14.4326 9.78711L14.125 8.75293C15.3787 7.87304 16.3133 6.83915 16.9072 5.65137L17.8535 6.0918Z"
    fill="currentColor" />
  <path
    d="M24.1016 7.44434H22.3857V12.1084C22.3857 12.8122 21.9897 13.1639 21.209 13.1641H19.6133L19.3828 12.1416C19.8887 12.1856 20.3838 12.207 20.8457 12.207C21.1646 12.207 21.329 12.0864 21.3291 11.8555V7.44434H17.9854V6.4209H24.1016V7.44434Z"
    fill="currentColor" />
  <path
    d="M26.4668 10.502C26.6977 10.502 26.8959 10.5687 27.0498 10.7227C27.2036 10.8656 27.2802 11.0524 27.2803 11.2832C27.2803 11.5142 27.2038 11.7015 27.0498 11.8555C26.8849 11.9984 26.6867 12.0751 26.4668 12.0752C26.2468 12.0752 26.0593 11.9987 25.9053 11.8447C25.7403 11.6907 25.6631 11.5032 25.6631 11.2832C25.6631 11.0524 25.7405 10.8656 25.9053 10.7227C26.0593 10.5687 26.2468 10.502 26.4668 10.502Z"
    fill="currentColor" />
  <path d="M26.9062 9.85352H26.0371L25.7842 4.22168H27.1592L26.9062 9.85352Z" fill="currentColor" />
  <path
    d="M17.3477 3.57227C16.7537 4.78225 15.7634 5.86013 14.3555 6.82812L14.0361 5.7832C15.103 5.02429 15.8846 4.14467 16.3906 3.13281L17.3477 3.57227Z"
    fill="currentColor" />
  <path
    d="M10.165 3.02246C10.9239 3.59437 11.5612 4.17783 12.0781 4.76074L11.3311 5.50879C10.8911 4.93689 10.2747 4.34269 9.46094 3.71582L10.165 3.02246Z"
    fill="currentColor" />
  <path d="M23.6289 4.69434H18.2607V3.6709H23.6289V4.69434Z" fill="currentColor" />
  <path fill-rule="evenodd" clip-rule="evenodd"
    d="M30 0C31.1046 0 32 0.895431 32 2V14C32 15.1046 31.1046 16 30 16H2L1.7959 15.9893C0.787223 15.887 0 15.0357 0 14V2C0 0.964349 0.787223 0.113005 1.7959 0.0107422L2 0H30ZM2 0.799805C1.33726 0.799805 0.799805 1.33726 0.799805 2V14C0.799805 14.6627 1.33726 15.2002 2 15.2002H30C30.6627 15.2002 31.2002 14.6627 31.2002 14V2C31.2002 1.33726 30.6627 0.799805 30 0.799805H2Z"
    fill="currentColor" />
</svg>