<svg xmlns="http://www.w3.org/2000/svg" width="16" height="16" viewBox="0 0 16 16">
  <g stroke="none" strokeWidth="1" fill="none" fillRule="evenodd">
    <g>
      <polygon points="0 0 16 0 16 16 0 16"></polygon>
      <path
        d="M2,2.66666667 L13.3333333,2.66666667 C13.7015232,2.66666667 14,2.9651435 14,3.33333333 L14,4.66666667 C14,5.0348565 13.7015232,5.33333333 13.3333333,5.33333333 L2,5.33333333 C1.63181017,5.33333333 1.33333333,5.0348565 1.33333333,4.66666667 L1.33333333,3.33333333 C1.33333333,2.9651435 1.63181017,2.66666667 2,2.66666667 Z M2,6.66666667 L8.66666667,6.66666667 C9.0348565,6.66666667 9.33333333,6.9651435 9.33333333,7.33333333 L9.33333333,8.66666667 C9.33333333,9.0348565 9.0348565,9.33333333 8.66666667,9.33333333 L2,9.33333333 C1.63181017,9.33333333 1.33333333,9.0348565 1.33333333,8.66666667 L1.33333333,7.33333333 C1.33333333,6.9651435 1.63181017,6.66666667 2,6.66666667 Z M2,10.6666667 L8.66666667,10.6666667 C9.0348565,10.6666667 9.33333333,10.9651435 9.33333333,11.3333333 L9.33333333,12.6666667 C9.33333333,13.0348565 9.0348565,13.3333333 8.66666667,13.3333333 L2,13.3333333 C1.63181017,13.3333333 1.33333333,13.0348565 1.33333333,12.6666667 L1.33333333,11.3333333 C1.33333333,10.9651435 1.63181017,10.6666667 2,10.6666667 Z"
        fill="#B8CAE6"></path>
      <rect fill="#B8CAE6" fillRule="nonzero" opacity="0.3" x="10.6666667" y="6.66666667" width="3.33333333"
        height="6.66666667" rx="1"></rect>
    </g>
  </g>
</svg>