<svg viewBox="0 0 16 16" fill="none" xmlns="http://www.w3.org/2000/svg">
  <path fill-rule="evenodd" clip-rule="evenodd"
    d="M1.8 2C1.35817 2 1 2.35817 1 2.8C1 3.24183 1.35817 3.6 1.8 3.6H14.2C14.6418 3.6 15 3.24183 15 2.8C15 2.35817 14.6418 2 14.2 2H1.8ZM1.8 7.2C1.35817 7.2 1 7.55817 1 8C1 8.44183 1.35817 8.8 1.8 8.8H6.2C6.64183 8.8 7 8.44183 7 8C7 7.55817 6.64183 7.2 6.2 7.2H1.8ZM1 13.2C1 12.7582 1.35817 12.4 1.8 12.4H5.6C6.04183 12.4 6.4 12.7582 6.4 13.2C6.4 13.6418 6.04183 14 5.6 14H1.8C1.35817 14 1 13.6418 1 13.2ZM13.4377 8.4175L14.2754 8.1438L15 9.3562L14.3362 9.9197C14.4198 10.3024 14.4198 10.6976 14.3362 11.0803L15 11.6438L14.2754 12.8562L13.4377 12.5825C13.1406 12.8415 12.787 13.041 12.3978 13.1635L12.2246 14H10.7754L10.6014 13.1628C10.2169 13.0414 9.86287 12.8435 9.56232 12.5818L8.72464 12.8562L8 11.6438L8.66377 11.0803C8.58022 10.6976 8.58022 10.3024 8.66377 9.9197L8 9.3562L8.72464 8.1438L9.56232 8.4175C9.85942 8.1585 10.213 7.959 10.6022 7.8365L10.7754 7H12.2246L12.3986 7.8372C12.787 7.959 13.1406 8.1592 13.4377 8.4182V8.4175ZM11.5 12C12.3284 12 13 11.3284 13 10.5C13 9.67157 12.3284 9 11.5 9C10.6716 9 10 9.67157 10 10.5C10 11.3284 10.6716 12 11.5 12Z"
    fill="currentColor" />
</svg>