<svg viewBox="0 0 24 24">
  <path
    d="M12,1.3 C17.2509796,1.3 21.6185217,5.08244538 22.5266439,10.0713537 C23.3758937,10.3014474 24,11.0778398 24,12 C24,12.9221602 23.3758937,13.6985526 22.5270265,13.9298318 C21.6185217,18.9175546 17.2509796,22.7 12,22.7 C6.09055318,22.7 1.3,17.9094468 1.3,12 C1.3,6.09055318 6.09055318,1.3 12,1.3 Z M12,2.7 C6.86375183,2.7 2.7,6.86375183 2.7,12 C2.7,17.1362482 6.86375183,21.3 12,21.3 C16.5209082,21.3 20.2883787,18.0741497 21.1262023,13.7986583 C20.4590478,13.4745272 20,12.7908718 20,12 C20,11.2091282 20.4590478,10.5254728 21.1252321,10.2009451 C20.2883787,5.9258503 16.5209082,2.7 12,2.7 Z M12,10 C13.1045695,10 14,10.8954305 14,12 C14,13.1045695 13.1045695,14 12,14 C10.8954305,14 10,13.1045695 10,12 C10,10.8954305 10.8954305,10 12,10 Z"
    fillRule="nonzero"></path>
</svg>