<svg viewBox="0 0 24 24">
  <path
    d="M12,1.3 C17.2509796,1.3 21.6185217,5.08244538 22.5266439,10.0713537 C23.3758937,10.3014474 24,11.0778398 24,12 C24,12.9221602 23.3758937,13.6985526 22.5270265,13.9298318 C21.6185217,18.9175546 17.2509796,22.7 12,22.7 C6.09055318,22.7 1.3,17.9094468 1.3,12 C1.3,6.09055318 6.09055318,1.3 12,1.3 Z M12,2.7 C6.86375183,2.7 2.7,6.86375183 2.7,12 C2.7,17.1362482 6.86375183,21.3 12,21.3 C16.5209082,21.3 20.2883787,18.0741497 21.1262023,13.7986583 C20.6947211,13.589334 20.350714,13.2296347 20.1611968,12.7879426 C19.766377,16.9467774 16.2631039,20.2 12,20.2 C7.47126505,20.2 3.8,16.5287349 3.8,12 C3.8,7.47126505 7.47126505,3.8 12,3.8 C16.2631039,3.8 19.766377,7.05322255 20.1626764,11.2125248 C20.350714,10.7703653 20.6947211,10.410666 21.1252321,10.2009451 C20.2883787,5.9258503 16.5209082,2.7 12,2.7 Z M12,5.2 C8.2444637,5.2 5.2,8.2444637 5.2,12 C5.2,15.7555363 8.2444637,18.8 12,18.8 C15.7555363,18.8 18.8,15.7555363 18.8,12 C18.8,8.2444637 15.7555363,5.2 12,5.2 Z M12,6.8 C14.8718807,6.8 17.2,9.1281193 17.2,12 C17.2,14.8718807 14.8718807,17.2 12,17.2 C9.1281193,17.2 6.8,14.8718807 6.8,12 C6.8,9.1281193 9.1281193,6.8 12,6.8 Z M12,8.2 C9.90131795,8.2 8.2,9.90131795 8.2,12 C8.2,14.098682 9.90131795,15.8 12,15.8 C14.098682,15.8 15.8,14.098682 15.8,12 C15.8,9.90131795 14.098682,8.2 12,8.2 Z M12,10 C13.1045695,10 14,10.8954305 14,12 C14,13.1045695 13.1045695,14 12,14 C10.8954305,14 10,13.1045695 10,12 C10,10.8954305 10.8954305,10 12,10 Z">
  </path>
</svg>