<svg viewBox="0 0 16 16" fill="none" xmlns="http://www.w3.org/2000/svg">
  <path fill-rule="evenodd" clip-rule="evenodd"
    d="M8.65182 2.12186V0H7.60324H7.34818V2.12186H8.65182ZM12.8247 1.63302L12.6444 1.4508L12.4641 1.63315L11.3421 2.7684L11.1617 2.95088L11.3421 3.13336L12.0835 3.88353L12.2639 3.70092L13.3859 2.56487L13.5663 2.38226L13.3857 2.19984L12.8247 1.63302ZM12.6194 7.08244C12.6194 4.53131 10.5214 2.4086 8 2.4086C5.47857 2.4086 3.38057 4.53131 3.38057 7.08244L3.38572 7.32383C3.45776 9.00126 4.28249 10.4128 5.70436 11.151L5.76045 11.1783L5.76113 13.362H10.2389L10.2383 11.1802C11.7638 10.4162 12.6194 8.88805 12.6194 7.08244ZM10.2389 16V14.681H5.76113V16H10.2389ZM8 3.7276C6.15706 3.7276 4.68421 5.21779 4.68421 7.08244C4.68421 8.95011 4.95397 9.55058 6.54418 10.0726L6.94094 10.3135L7.06478 10.3887L7.06432 12.0423H8.93443L8.93522 10.3887L9.05906 10.3135L9.45582 10.0726L9.47298 10.0631C10.6406 9.47243 11.3158 8.36726 11.3158 7.08244C11.3158 5.21779 9.84294 3.7276 8 3.7276ZM12.9028 7.74194H15V6.42294H12.9028V7.74194ZM3.09717 6.42294V7.74194H1V7.48387V6.42294H3.09717ZM3.35596 1.45125L3.53581 1.63308L4.65705 2.76673L4.83754 2.94921L4.65712 3.13176L3.9158 3.8818L3.73545 3.69945L2.61262 2.56419L2.43162 2.3812L2.61306 2.19865L3.17567 1.63263L3.35596 1.45125Z"
    fill="currentColor" fill-opacity="0.75" />
</svg>