<svg xmlns="http://www.w3.org/2000/svg" width="16" height="16" viewBox="0 0 16 16">
  <path
    d="M1.77777372,14.2221898 L15.1110766,14.2221898 C15.6019953,14.2221898 15.9999635,14.620158 15.9999635,15.1110766 C15.9999635,15.6019953 15.6019953,15.9999635 15.1110766,15.9999635 L0.888886861,15.9999635 C0.397968203,15.9999635 0,15.6019953 0,15.1110766 L0,0.888886861 C0,0.397968203 0.397968203,0 0.888886861,0 C1.37980552,0 1.77777372,0.397968203 1.77777372,0.888886861 L1.77777372,14.2221898 Z M5.09291034,10.3857017 C4.75715088,10.7438452 4.19463144,10.761991 3.83648802,10.4262315 C3.4783446,10.090472 3.46019881,9.52795258 3.79595827,9.16980922 L7.129284,5.61426174 C7.454003,5.26789484 7.99359768,5.23785728 8.35475365,5.54604366 L10.9856238,7.79105289 L14.4134046,3.44919721 C14.7175996,3.06388362 15.2765567,2.99812395 15.6618703,3.30231889 C16.0471839,3.60651384 16.1129436,4.16547095 15.8087486,4.55078454 L11.8087578,9.61743966 C11.4963269,10.0131854 10.9176379,10.0701028 10.5340921,9.74281031 L7.84605268,7.44901661 L5.09291034,10.3857017 Z" />
</svg>