<svg xmlns="http://www.w3.org/2000/svg" viewBox="0 0 16 16">
  <path
    d="M14.8117802,6.92769479 C16.3959421,5.34304776 16.3959421,2.77434181 14.8117802,1.18969479 C14.0514852,0.428020375 13.0194756,3.11521642e-14 11.9432802,3.10862447e-14 C10.8670849,3.10203252e-14 9.83507525,0.428020375 9.07478021,1.18969479 L6.20978021,4.05669479 C5.8135159,4.45240681 5.81306819,5.09443048 6.20878021,5.49069479 C6.60449223,5.88695909 7.2465159,5.88740681 7.64278021,5.49169479 L10.5087802,2.62669479 C11.0210991,2.11437591 11.7678201,1.91429261 12.4676607,2.10181432 C13.1675012,2.28933604 13.714139,2.83597376 13.9016607,3.53581434 C14.0891824,4.23565492 13.8890991,4.98237593 13.3767802,5.49469479 L10.5117802,8.36069479 C10.1160682,8.75668295 10.116292,9.39848276 10.5122802,9.79419479 C10.9082684,10.1899068 11.5500682,10.189683 11.9457802,9.79369479 L14.8117802,6.92769479 Z M6.92578021,10.5106948 L10.5117802,6.92569479 C10.9077684,6.52943048 10.9075445,5.88718295 10.5112802,5.49119479 C10.1150159,5.09520662 9.47276838,5.09543048 9.07678021,5.49169479 L5.49178021,9.07769479 C5.23383134,9.33349409 5.13243257,9.70774062 5.22596635,10.058771 C5.31950013,10.4098014 5.59367359,10.6839749 5.94470398,10.7775086 C6.29573438,10.8710424 6.66998091,10.7696437 6.92578021,10.5116948 L6.92578021,10.5106948 Z M5.49278021,13.3786948 C4.70078021,14.1706948 3.41278021,14.1686948 2.62278021,13.3786948 C2.24187115,12.9981561 2.02801368,12.4817047 2.02838889,11.9432799 C2.0287641,11.404855 2.24334115,10.8887023 2.62478021,10.5086948 L5.48978021,7.64469479 C5.68042981,7.45479467 5.78759886,7.19678459 5.78759886,6.92769479 C5.78759886,6.65860498 5.68042981,6.4005949 5.48978021,6.21069479 C5.29988009,6.02004519 5.04187002,5.91287614 4.77278021,5.91287614 C4.50369041,5.91287614 4.24568033,6.02004519 4.05578021,6.21069479 L1.18978021,9.07469479 C0.428045153,9.83516067 5.25343386e-14,10.8673358 5.24025268e-14,11.9436948 C5.2270742e-14,13.0200538 0.428045153,14.0522289 1.18978021,14.8126948 C2.77454093,16.3956389 5.34201949,16.3956389 6.92678021,14.8126948 L9.79278021,11.9456948 C10.0507291,11.6898955 10.1521278,11.315649 10.0585941,10.9646186 C9.9650603,10.6135882 9.69088683,10.3394147 9.33985644,10.2458809 C8.98882604,10.1523471 8.61457951,10.2537459 8.35878021,10.5116948 L5.49178021,13.3776948 L5.49278021,13.3786948 Z" />
</svg>