<svg xmlns="http://www.w3.org/2000/svg" viewBox="0 0 16 16">
  <g stroke="none" strokeWidth="1" fill="none" fillRule="evenodd">
    <g>
      <rect x="0" y="0" width="16" height="16"></rect>
      <path
        d="M11.75,1 C12.7164983,1 13.5,1.78350169 13.5,2.75 L13.5,6.75 C13.5,7.16421356 13.1642136,7.5 12.75,7.5 C12.3357864,7.5 12,7.16421356 12,6.75 L12,2.75 C12,2.61192881 11.8880712,2.5 11.75,2.5 L2.75,2.5 C2.61192881,2.5 2.5,2.61192881 2.5,2.75 L2.5,13.25 C2.5,13.3880712 2.61192881,13.5 2.75,13.5 L7,13.5 C7.41421356,13.5 7.75,13.8357864 7.75,14.25 C7.75,14.6642136 7.41421356,15 7,15 L2.75,15 C1.78350169,15 1,14.2164983 1,13.25 L1,2.75 C1,1.78350169 1.78350169,1 2.75,1 L11.75,1 Z M11.64,8.28 C13.4955839,8.28 15,9.7842787 15,11.64 C15,13.4957213 13.4957213,15 11.64,15 C9.7842787,15 8.28,13.4957213 8.28,11.64 C8.28,9.7842787 9.7842787,8.28 11.64,8.28 Z M12.7182336,10.4815309 L11.3589009,12.033896 L10.6950343,11.3833562 C10.4999136,11.1921812 10.186759,11.1953798 9.99558391,11.3905005 C9.80440884,11.5856212 9.80760743,11.8987759 10.0027282,12.0899509 L11.0404318,13.106634 C11.1328552,13.1972209 11.2571018,13.247975 11.3865162,13.2480079 L11.405476,13.2480079 C11.541444,13.242919 11.6693106,13.1820419 11.7589794,13.0797056 L13.4626104,11.132895 C13.6383208,10.9269246 13.6157796,10.6179613 13.4120346,10.439675 C13.2082897,10.2613888 12.8990674,10.2800437 12.7182336,10.4815309 Z M6,9.75 C6.41421356,9.75 6.75,10.0857864 6.75,10.5 C6.75,10.9142136 6.41421356,11.25 6,11.25 L4.5,11.25 C4.08578644,11.25 3.75,10.9142136 3.75,10.5 C3.75,10.0857864 4.08578644,9.75 4.5,9.75 L6,9.75 Z M8,6.75 C8.41421356,6.75 8.75,7.08578644 8.75,7.5 C8.75,7.91421356 8.41421356,8.25 8,8.25 L4.5,8.25 C4.08578644,8.25 3.75,7.91421356 3.75,7.5 C3.75,7.08578644 4.08578644,6.75 4.5,6.75 L8,6.75 Z M9.5,3.75 C9.91421356,3.75 10.25,4.08578644 10.25,4.5 C10.25,4.91421356 9.91421356,5.25 9.5,5.25 L4.5,5.25 C4.08578644,5.25 3.75,4.91421356 3.75,4.5 C3.75,4.08578644 4.08578644,3.75 4.5,3.75 L9.5,3.75 Z"
        fill="currentColor"></path>
    </g>
  </g>
</svg>