<svg xmlns="http://www.w3.org/2000/svg" viewBox="0 0 16 16">
  <path
    d="M8,0 C5.23857625,0 3,2.26294079 3,5.05441972 C3,7.69715043 6.21846321,13 8,13 C9.78153679,13 13,7.69715043 13,5.05441972 C13,2.26294079 10.7614237,0 8,0 Z M8,2.86764706 C9.30558817,2.86764706 10.3639765,3.93755483 10.3639765,5.25735294 C10.3639765,6.57715106 9.30558817,7.64705882 8,7.64705882 C6.69441183,7.64705882 5.6360235,6.57715106 5.6360235,5.25735294 C5.6360235,3.93755483 6.69441183,2.86764706 8,2.86764706 Z M1.75,14.5 L14.25,14.5 C14.6642136,14.5 15,14.8357864 15,15.25 C15,15.6642136 14.6642136,16 14.25,16 L1.75,16 C1.33578644,16 1,15.6642136 1,15.25 C1,14.8357864 1.33578644,14.5 1.75,14.5 Z">
  </path>
</svg>