<svg viewBox="0 0 20 20">
  <path
    d="M16.372549,6.36666667 C18.3759349,6.36666667 20,8.01497157 20,10.0482587 L20,16.018408 C20,18.0516951 18.3759349,19.7 16.372549,19.7 L3.62745098,19.7 C1.62406512,19.7 0,18.0516951 0,16.018408 L0,10.0482587 C0,8.01497157 1.62406512,6.36666667 3.62745098,6.36666667 L16.372549,6.36666667 Z M16.372549,7.75970149 L3.62745098,7.75970149 C2.38210302,7.75970149 1.37254902,8.78432346 1.37254902,10.0482587 L1.37254902,16.018408 C1.37254902,17.2823432 2.38210302,18.3069652 3.62745098,18.3069652 L16.372549,18.3069652 C17.617897,18.3069652 18.627451,17.2823432 18.627451,16.018408 L18.627451,10.0482587 C18.627451,8.78432346 17.617897,7.75970149 16.372549,7.75970149 Z M10,9.84925373 C10.3790189,9.84925373 10.6862745,10.1610952 10.6862745,10.5457711 L10.6862745,13.5308458 C10.6862745,13.9155217 10.3790189,14.2273632 10,14.2273632 C9.62098105,14.2273632 9.31372549,13.9155217 9.31372549,13.5308458 L9.31372549,10.5457711 C9.31372549,10.1610952 9.62098105,9.84925373 10,9.84925373 Z M10,-8.8817842e-16 C12.8718807,0 15.2,2.3281193 15.2,5.2 L15.2,6.7 C15.2,7.08659932 14.8865993,7.4 14.5,7.4 C14.1134007,7.4 13.8,7.08659932 13.8,6.7 L13.8,5.2 C13.8,3.10131795 12.098682,1.4 10,1.4 C7.90131795,1.4 6.2,3.10131795 6.2,5.2 L6.2,6.7 C6.2,7.08659932 5.88659932,7.4 5.5,7.4 C5.11340068,7.4 4.8,7.08659932 4.8,6.7 L4.8,5.2 C4.8,2.3281193 7.1281193,-8.8817842e-16 10,-8.8817842e-16 Z">
  </path>
</svg>