<svg xmlns="http://www.w3.org/2000/svg" viewBox="0 0 16 16">
  <path
    d="M8.01065323,0 C12.4152116,0 16,3.589748 16,8 C16,12.410252 12.4152116,16 8.01065323,16 C4.75102686,16 1.85235466,14.0190626 0.629976522,11.0536128 C0.491166397,10.7352101 0.535089604,10.3665664 0.744841364,10.0897674 C0.954697646,9.81283047 1.29777221,9.67109143 1.64172594,9.71930448 C1.98563072,9.76751067 2.27656906,9.99806561 2.40018334,10.3164609 C3.3323051,12.5776406 5.52802478,14.0806705 8.01065323,14.0806705 C11.371904,14.0806705 14.0825232,11.3663012 14.0825232,8 C14.0825232,4.63369887 11.371904,1.91932949 8.01065323,1.91932949 C5.52798436,1.91932949 3.33246046,3.42263704 2.40238578,5.67869178 C2.27656906,6.00258918 1.98563072,6.23314412 1.64172594,6.28135031 C1.29777221,6.32956336 0.954697646,6.18782432 0.744841364,5.91088738 C0.535089604,5.63408837 0.491166397,5.26544472 0.627706213,4.95239594 C1.85246625,1.98132167 4.75103446,0 8.01065323,0 Z M7.9932317,6.33436905 C7.71379237,6.06202703 7.62702244,5.64741524 7.77371565,5.28573001 C7.92046461,4.92390732 8.27163285,4.68711161 8.66185025,4.68700902 C8.92088115,4.68700902 9.168786,4.79186984 9.34648603,4.97482802 L11.6900644,7.32164875 C12.0641259,7.69638273 12.0641259,8.30361697 11.6900222,8.67839326 L9.3505987,11.0209687 C9.1101296,11.2717698 8.75294972,11.3728251 8.41686803,11.2850886 C8.08087135,11.1973743 7.81855671,10.9346967 7.73101515,10.5984333 C7.64349568,10.2622547 7.74430639,9.90495289 7.99044381,9.66838482 L8.6981873,8.95966236 L0.972369531,8.95963577 C0.62652694,8.96453361 0.304897837,8.78261081 0.130636952,8.48362821 C-0.0435456506,8.18477991 -0.0435456506,7.81522012 0.130636952,7.51637183 C0.304897837,7.21738922 0.62652694,7.03546642 0.968274889,7.04033527 L8.69820048,7.04033527 L7.9932317,6.33436905 Z">
  </path>
</svg>