<svg xmlns="http://www.w3.org/2000/svg" viewBox="0 0 16 16">
  <path transform="translate(0 2)"
    d="M14,5.68434189e-14 L2,5.68434189e-14 C0.8954305,5.68434189e-14 0,0.8954305 0,2 L0,5.33333333 C0,5.70152317 0.298476833,6 0.666666667,6 L3.33333333,6 C3.70152317,6 4,6.29847683 4,6.66666667 C4,7.0348565 3.70152317,7.33333333 3.33333333,7.33333333 L0.666666667,7.33333333 C0.298476833,7.33333333 0,7.63181017 0,8 C0,8.36818983 0.298476833,8.66666667 0.666666667,8.66666667 L2,8.66666667 C2.36818983,8.66666667 2.66666667,8.9651435 2.66666667,9.33333333 C2.66666667,9.70152317 2.36818983,10 2,10 L0.846666667,10 C0.614418731,9.998378 0.398065989,10.1177432 0.275584067,10.3150752 C0.153102144,10.5124072 0.142146883,10.7592604 0.246666667,10.9666667 C0.599067836,11.6049538 1.27089354,12.0008967 2,12 L14,12 C15.1045695,12 16,11.1045695 16,10 L16,2 C16,0.8954305 15.1045695,5.68434189e-14 14,5.68434189e-14 Z M14.4266667,2.58666667 L9.28,6.86666667 C8.53843788,7.48433358 7.46156212,7.48433358 6.72,6.86666667 L1.57333333,2.58666667 C1.32204003,2.34364632 1.30114533,1.94778926 1.52545864,1.67966475 C1.74977196,1.41154024 2.1431003,1.36222272 2.42666667,1.56666667 L7.57333333,5.84666667 C7.82052071,6.05255564 8.17947929,6.05255564 8.42666667,5.84666667 L13.5733333,1.56666667 C13.8568395,1.33102518 14.2776918,1.36982717 14.5133333,1.65333334 C14.7489748,1.93683951 14.7101728,2.35769184 14.4266667,2.59333333 L14.4266667,2.58666667 Z" />
</svg>