<svg xmlns="http://www.w3.org/2000/svg" viewBox="0 0 24 24">
  <path
    d="M16.4435346,9.50037473 L17.4873981,9.77033006 C17.7373419,9.83485871 17.9410581,10.016904 18.0345213,10.2592515 L21.9456686,20.4007471 C22.1822552,21.0142095 21.6290742,21.6394124 20.9972685,21.4726249 L16.292,20.230026 L12.2751807,21.4639575 C12.1621763,21.4986442 12.043437,21.5075406 11.9274705,21.4906257 L11.8127434,21.4651062 L7.717,20.2290183 L3.00242273,21.4727064 C2.40401123,21.6304212 1.87714368,21.0780813 2.02302813,20.4990813 L2.0558784,20.3967671 L4.97643025,12.9426815 C5.42403364,13.7419553 5.93600304,14.5054002 6.47895197,15.1729548 L5.69447407,15.4956567 L4.123,19.5105208 L6.95247407,18.7646567 L7.37108369,16.15208 C7.85100841,16.6162067 8.340358,16.9884798 8.8188358,17.2323862 L8.56647407,18.8036567 L11.1994741,19.5966567 L11.2001227,17.2226578 C11.7294472,16.9492511 12.2717336,16.519521 12.7995513,15.9828141 L12.7994741,19.6166567 L15.3704741,18.8276567 L14.6724741,14.6586567 L13.6910135,14.9595733 C14.4962867,13.927542 15.2237444,12.6933647 15.7602184,11.4606274 L16.0124741,12.9736567 L17.5344741,13.4126567 L16.692,11.2291569 L15.9379271,11.0347616 C16.1459711,10.5136632 16.3173775,9.99703687 16.4435346,9.50037473 Z M16.3074741,14.7356567 L16.9784741,18.7446567 L19.887,19.5125362 L18.2624741,15.3006567 L16.3074741,14.7356567 Z M10,2.5 C12.9203164,2.5 15.2877006,4.86738421 15.2877006,7.78770063 C15.2877006,10.5524035 11.8840466,16.1 10,16.1 C8.11595336,16.1 4.71229937,10.5524035 4.71229937,7.78770063 C4.71229937,4.86738421 7.07968358,2.5 10,2.5 Z M10,5.5 C8.61928813,5.5 7.5,6.61928813 7.5,8 C7.5,9.38071187 8.61928813,10.5 10,10.5 C11.3807119,10.5 12.5,9.38071187 12.5,8 C12.5,6.61928813 11.3807119,5.5 10,5.5 Z" />
</svg>