<svg viewBox="0 0 27 16" fill="none" xmlns="http://www.w3.org/2000/svg">
  <path
    d="M5.89355 3.53906C5.67355 4.29806 5.38716 5.02452 5.03516 5.72852V13.2412H4.02344V7.42188C3.74852 7.79577 3.45146 8.1703 3.14355 8.5332L2.80176 7.41113C3.76976 6.17913 4.49601 4.73789 4.95801 3.08789L5.89355 3.53906Z"
    fill="currentColor" />
  <path fill-rule="evenodd" clip-rule="evenodd"
    d="M10.8867 3.36328C10.8207 3.8251 10.7442 4.26501 10.6562 4.67188H12.9443V5.65137H12.4932C12.4492 7.55436 12.1518 9.14953 11.5908 10.4365C11.9978 11.2065 12.5156 11.8777 13.1426 12.4717L12.416 13.1641C11.8882 12.6362 11.4481 12.0536 11.0742 11.4268C10.6123 12.1526 10.0515 12.7468 9.3916 13.2197L8.78613 12.4277C9.52307 11.9328 10.1174 11.2617 10.5684 10.4258C10.1614 9.50178 9.88642 8.47819 9.73242 7.36719C9.60043 7.63117 9.45672 7.86204 9.30273 8.08203L8.69824 7.33398C9.29212 6.30005 9.69896 4.92524 9.91895 3.1875L10.8867 3.36328ZM10.3594 5.81641C10.4364 7.09238 10.6668 8.24778 11.0518 9.25977C11.3818 8.22577 11.5581 7.02636 11.5801 5.65137H10.4033L10.3594 5.81641Z"
    fill="currentColor" />
  <path
    d="M18.9941 2.95605C19.1591 3.34104 19.3128 3.77044 19.4668 4.23242H23.8779V5.2334H19.5V6.43262H23.0752V10.5137C23.0751 11.2173 22.7012 11.5799 21.9756 11.5801H20.8643L20.6006 10.5908L21.6455 10.6455C21.9092 10.6454 22.041 10.5133 22.041 10.2715V7.43359H19.5V13.1973H18.4443V7.43359H16.0352V11.6572H15.0117V6.43262H18.4443V5.2334H14.0664V4.23242H18.4004C18.2354 3.83655 18.059 3.46273 17.8721 3.13281L18.9941 2.95605Z"
    fill="currentColor" />
  <path fill-rule="evenodd" clip-rule="evenodd"
    d="M7.7959 5.14551H9.1377V6.10254H7.7959V8.03809H8.96191V11.998H6.65234V12.6475H5.67285V8.03809H6.80566V6.10254H5.47559V5.14551H6.80566V3.20898H7.7959V5.14551ZM6.65234 11.085H7.97168V8.96191H6.65234V11.085Z"
    fill="currentColor" />
  <path fill-rule="evenodd" clip-rule="evenodd"
    d="M25.2041 0.0107422C26.2128 0.113005 27 0.96435 27 2V14C27 15.0357 26.2128 15.887 25.2041 15.9893L25 16H2C0.895431 16 0 15.1046 0 14V2C0 0.895431 0.895431 8.05319e-09 2 0H25L25.2041 0.0107422ZM2 0.799805C1.33726 0.799805 0.799805 1.33726 0.799805 2V14C0.799805 14.6627 1.33726 15.2002 2 15.2002H25C25.6627 15.2002 26.2002 14.6627 26.2002 14V2C26.2002 1.33726 25.6627 0.799805 25 0.799805H2Z"
    fill="currentColor" />
</svg>