<svg width="18" height="18" viewBox="0 0 18 18" fill="none" xmlns="http://www.w3.org/2000/svg">
  <circle cx="9" cy="9" r="9" fill="currentColor" fill-opacity="0.2" />
  <path
    d="M9.77982 12.1959V13.0479C7.93182 13.4319 5.93982 13.7679 3.80382 14.0319L3.61182 13.2039C4.57182 13.0959 5.50782 12.9759 6.41982 12.8319V10.5639H4.07982V9.72393H6.41982V8.33193H7.28382V9.72393H9.44382V10.5639H7.28382V12.6879C8.13582 12.5439 8.96382 12.3759 9.77982 12.1959ZM3.76782 3.72393H9.73182V4.53993H6.64782C6.07182 5.73993 5.53182 6.63993 5.02782 7.25193C6.21582 7.13193 7.34382 6.98793 8.42382 6.79593C8.15982 6.36393 7.85982 5.93193 7.53582 5.48793L8.19582 5.05593C8.99982 6.13593 9.61182 7.08393 10.0438 7.88793L9.32382 8.39193C9.16782 8.07993 8.99982 7.76793 8.80782 7.44393C7.29582 7.70793 5.62782 7.93593 3.82782 8.11593L3.62382 7.33593C3.76782 7.31193 3.88782 7.28793 3.97182 7.25193C4.46382 6.81993 5.05182 5.91993 5.73582 4.53993H3.76782V3.72393ZM12.8998 14.0919H11.1358L10.9438 13.2519C11.5198 13.2759 12.0718 13.2999 12.5998 13.2999C12.9358 13.2999 13.1158 13.1199 13.1158 12.7719V3.23193H13.9918V12.9879C13.9918 13.7199 13.6198 14.0919 12.8998 14.0919ZM10.7158 4.31193H11.5558V11.7399H10.7158V4.31193Z"
    fill="currentColor" />
</svg>