<svg xmlns="http://www.w3.org/2000/svg" viewBox="0 0 16 16">
  <g stroke="none" strokeWidth="1" fill="none" fillRule="evenodd">
    <g>
      <rect fillRule="nonzero" x="0" y="0" width="16" height="16"></rect>
      <g transform="translate(6.25, 1)" fill="currentColor">
        <path
          d="M3.5,1.75 C3.5,2.71649831 2.71649831,3.5 1.75,3.5 C0.783501688,3.5 0,2.71649831 0,1.75 C0,0.783501688 0.783501688,0 1.75,0 C2.71649831,0 3.5,0.783501688 3.5,1.75 Z M3.5,7 C3.5,7.96649831 2.71649831,8.75 1.75,8.75 C0.783501688,8.75 0,7.96649831 0,7 C0,6.03350169 0.783501688,5.25 1.75,5.25 C2.71649831,5.25 3.5,6.03350169 3.5,7 Z M3.5,12.25 C3.5,13.2164983 2.71649831,14 1.75,14 C0.783501688,14 0,13.2164983 0,12.25 C0,11.2835017 0.783501688,10.5 1.75,10.5 C2.71649831,10.5 3.5,11.2835017 3.5,12.25 Z">
        </path>
      </g>
    </g>
  </g>
</svg>