<svg viewBox="0 0 26 16" xmlns="http://www.w3.org/2000/svg">
  <g clip-path="url(#clip0_738_170909)">
    <path
      d="M12.9697 10.3828C13.2423 10.3828 13.4811 10.482 13.6855 10.6807C13.89 10.8795 13.9931 11.1182 13.9932 11.3965C13.9932 11.5839 13.9443 11.7559 13.8477 11.9121C13.754 12.0653 13.6307 12.1896 13.4775 12.2832C13.3241 12.374 13.1543 12.4189 12.9697 12.4189C12.6887 12.4188 12.4467 12.3199 12.2451 12.1211C12.0465 11.9194 11.9482 11.6776 11.9482 11.3965C11.9482 11.1183 12.0465 10.8794 12.2451 10.6807C12.4467 10.4819 12.6887 10.3829 12.9697 10.3828Z"
      fill="currentColor" />
    <path
      d="M9.10449 9.07031H9.18164V3.58105H11.0186V12.3086H9.4248L5.62891 6.81543H5.56348V12.3086H3.71973V3.58105H5.33789L9.10449 9.07031Z"
      fill="currentColor" />
    <path fill-rule="evenodd" clip-rule="evenodd"
      d="M18.0361 3.58105C18.9139 3.58105 19.6703 3.75618 20.3037 4.10547C20.9371 4.45202 21.4239 4.9512 21.7646 5.60156C22.1083 6.2521 22.2812 7.03035 22.2812 7.93652C22.2812 8.84558 22.1084 9.62686 21.7646 10.2803C21.4239 10.9334 20.9339 11.4348 20.2949 11.7842C19.6587 12.1334 18.897 12.3086 18.0107 12.3086H14.918V3.58105H18.0361ZM16.7617 10.7275H17.9346C18.4796 10.7275 18.9386 10.6305 19.3105 10.4375C19.6854 10.2415 19.9678 9.93926 20.1553 9.53027C20.3455 9.11839 20.4395 8.58696 20.4395 7.93652C20.4395 7.29177 20.3455 6.76452 20.1553 6.35547C19.9678 5.94638 19.6867 5.64533 19.3145 5.45215C18.9426 5.25921 18.4844 5.16219 17.9395 5.16211H16.7617V10.7275Z"
      fill="currentColor" />
    <path fill-rule="evenodd" clip-rule="evenodd"
      d="M24 0C25.1046 0 26 0.89543 26 2V14C26 15.1046 25.1046 16 24 16H2C0.89543 16 0 15.1046 0 14V2C0 0.89543 0.89543 0 2 0H24ZM2 1.5C1.72386 1.5 1.5 1.72386 1.5 2V14C1.5 14.2761 1.72386 14.5 2 14.5H24C24.2761 14.5 24.5 14.2761 24.5 14V2C24.5 1.72386 24.2761 1.5 24 1.5H2Z"
      fill="currentColor" />
  </g>
  <defs>
    <clipPath id="clip0_738_170909">
      <rect width="26" height="16" fill="white" />
    </clipPath>
  </defs>
</svg>