<svg xmlns="http://www.w3.org/2000/svg" viewBox="0 0 16 16">
  <path d="M4,1.8 C3.3372583,1.8 2.8,2.3372583 2.8,3 L2.8,13 C2.8,13.6627417 3.3372583,14.2 4,14.2 L12,14.2 C12.6627417,14.2 13.2,13.6627417 13.2,13 L13.2,3 C13.2,2.3372583 12.6627417,1.8 12,1.8 L4,1.8 Z M4,0 L12,0 C13.6568542,-3.04359188e-16 15,1.34314575 15,3 L15,13 C15,14.6568542 13.6568542,16 12,16 L4,16 C2.34314575,16 1,14.6568542 1,13 L1,3 C1,1.34314575 2.34314575,3.04359188e-16 4,0 Z M5.5,4 L7.5,4 C8.05228475,4 8.5,4.44771525 8.5,5 L8.5,5 C8.5,5.55228475 8.05228475,6 7.5,6 L5.5,6 C4.94771525,6 4.5,5.55228475 4.5,5 L4.5,5 C4.5,4.44771525 4.94771525,4 5.5,4 Z M5.5,7 L10.5,7 C11.0522847,7 11.5,7.44771525 11.5,8 L11.5,8 C11.5,8.55228475 11.0522847,9 10.5,9 L5.5,9 C4.94771525,9 4.5,8.55228475 4.5,8 L4.5,8 C4.5,7.44771525 4.94771525,7 5.5,7 Z M5.5,10 L8.5,10 C9.05228475,10 9.5,10.4477153 9.5,11 L9.5,11 C9.5,11.5522847 9.05228475,12 8.5,12 L5.5,12 C4.94771525,12 4.5,11.5522847 4.5,11 L4.5,11 C4.5,10.4477153 4.94771525,10 5.5,10 Z" />
</svg>