<svg xmlns="http://www.w3.org/2000/svg" viewBox="0 0 21 7">
  <path
    d="M1.88661143,0.0953678474 C2.68033144,0.0953678474 3.26341038,0.279745686 3.63584823,0.648501362 C4.00828609,1.01725704 4.19450502,1.52588556 4.19450502,2.17438692 C4.19450502,2.56221617 4.12123855,2.92620345 3.97470563,3.26634877 C3.8281727,3.6064941 3.58089839,3.87988193 3.23288269,4.08651226 C2.88486699,4.2931426 2.41168775,4.39645777 1.81334496,4.39645777 L1.22721326,4.39645777 L1.22721326,6.90463215 L0,6.90463215 L0,0.0953678474 L1.88661143,0.0953678474 Z M7.83035325,0.0667574932 L10.0375055,6.90463215 L8.71870911,6.90463215 L8.21500218,5.10217984 L5.98037505,5.10217984 L5.47666812,6.90463215 L4.15787178,6.90463215 L6.35586568,0.0667574932 L7.83035325,0.0667574932 Z M7.09768862,1.05858311 C7.05494985,1.2938238 7.00610554,1.5195277 6.95115569,1.73569482 C6.89620584,1.95186194 6.84736154,2.13941871 6.80462276,2.29836512 L6.29175752,4.05313351 L7.92193633,4.05313351 L7.39991278,2.29836512 C7.37549062,2.19663942 7.34343655,2.07425068 7.30375055,1.93119891 C7.26406454,1.78814714 7.22743131,1.64032698 7.19385085,1.48773842 C7.16027039,1.33514986 7.12821631,1.19209809 7.09768862,1.05858311 Z M1.84081989,1.10626703 L1.22721326,1.10626703 L1.22721326,3.38555858 L1.68512865,3.38555858 C1.95377235,3.38555858 2.18273005,3.34582198 2.37200174,3.26634877 C2.56127344,3.18687557 2.70627998,3.0613079 2.80702137,2.88964578 C2.90776276,2.71798365 2.95813345,2.49545867 2.95813345,2.22207084 C2.95813345,1.84695731 2.86655037,1.56721163 2.68338421,1.38283379 C2.50021805,1.19845595 2.21936328,1.10626703 1.84081989,1.10626703 Z M13.2795464,1.02997275 C13.0231138,1.02997275 12.7911034,1.08719346 12.583515,1.20163488 C12.3759267,1.31607629 12.2003925,1.48138056 12.0569123,1.69754768 C11.9134322,1.9137148 11.8050589,2.17438692 11.7317924,2.47956403 C11.6585259,2.78474114 11.6218927,3.1280654 11.6218927,3.50953678 C11.6218927,4.02452316 11.6829481,4.46480472 11.8050589,4.83038147 C11.9271696,5.19595822 12.1133886,5.47729337 12.3637157,5.67438692 C12.6140427,5.87148047 12.928478,5.97002725 13.3070214,5.97002725 C13.5695595,5.97002725 13.8259922,5.93982743 14.0763192,5.87942779 C14.3266463,5.81902816 14.5800262,5.73796549 14.8364588,5.63623978 L14.8364588,6.67574932 C14.5861317,6.79019074 14.3281727,6.87284287 14.0625818,6.92370572 C13.7969908,6.97456857 13.4993458,7 13.1696468,7 C12.5285652,7 11.9989097,6.85535876 11.5806803,6.56607629 C11.1624509,6.27679382 10.8525949,5.86989101 10.6511121,5.34536785 C10.4496293,4.82084469 10.3488879,4.20572207 10.3488879,3.5 C10.3488879,2.98501362 10.4129961,2.51453224 10.5412124,2.08855586 C10.6694287,1.66257947 10.8587004,1.2938238 11.1090275,0.982288828 C11.3593546,0.67075386 11.6676843,0.429155313 12.0340166,0.257493188 C12.4003489,0.0858310627 12.8185783,0 13.2887048,0 C13.5939817,0 13.9084169,0.0397366031 14.2320105,0.119209809 C14.555604,0.198683015 14.8395116,0.30835604 15.0837331,0.448228883 L14.6716092,1.44959128 C14.4579154,1.34150772 14.2365896,1.24455041 14.0076319,1.15871935 C13.7786742,1.07288828 13.5359791,1.02997275 13.2795464,1.02997275 Z M21,6.90463215 L19.5987789,6.90463215 L17.9136502,3.89100817 L17.3549935,4.39645777 L17.3549935,6.90463215 L16.1277802,6.90463215 L16.1277802,0.0953678474 L17.3549935,0.0953678474 L17.3549935,3.29972752 C17.4648932,3.14078111 17.579372,2.97865577 17.69843,2.8133515 C17.817488,2.64804723 17.9380724,2.48274296 18.0601832,2.31743869 L19.5987789,0.0953678474 L20.9725251,0.0953678474 L18.8020061,3.08991826 L21,6.90463215 Z" />
</svg>