<svg xmlns="http://www.w3.org/2000/svg" viewBox="0 0 16 16">
  <path
    d="M5.53020134,16 C4.06984568,16 2.6874412,15.449966 1.6221215,14.3975949 C0.584648982,13.3727326 -1.11910481e-13,11.98663 -1.11910481e-13,10.5370166 C-1.11910481e-13,9.08740331 0.584648982,7.70130072 1.6221215,6.67643838 L7.20601412,1.16041635 C8.77183686,-0.386374272 11.3773769,-0.386374272 13.0150207,1.15783091 C14.6315457,2.6821222 14.6084946,5.25523387 13.0176995,6.90146241 L7.93492548,11.9224568 C6.8697851,12.9746507 5.19285472,12.9746507 4.12771434,11.9224568 C3.06257397,10.8702629 3.06257397,9.21371514 4.12771434,8.16152123 L8.42301636,3.91842736 C8.77227307,3.57341577 9.30378957,3.57341577 9.65304628,3.91842736 C10.002303,4.26343896 10.002303,4.78849504 9.65304628,5.13350663 L5.35774427,9.3766005 C4.99111731,9.73877122 4.99111731,10.2744886 5.35774427,10.6366593 C5.72437123,10.99883 6.26668023,10.99883 6.63330719,10.6366593 L11.7160812,5.61566491 C12.1773009,5.16005119 12.3847875,4.63975646 12.3847875,3.96022115 C12.3847875,3.38922943 12.1336519,2.78674202 11.7160812,2.30477739 C10.7774629,1.37756771 9.30776879,1.37756771 8.43604405,2.30477739 L2.85215143,7.82079941 C2.15489772,8.50957821 1.75391499,9.46384056 1.75391499,10.4662984 C1.75391499,11.4437891 2.13393001,12.3310889 2.85215143,13.1117974 C4.2930401,14.5351725 6.69868578,14.5351725 8.20825126,13.1117974 L14.5080275,6.88859307 C14.8572843,6.54358147 15.3888008,6.54358147 15.7380575,6.88859307 C16.0873142,7.23360467 16.0873142,7.75866074 15.7380575,8.10367234 L9.44560519,14.3191433 C8.45668027,15.435606 7.08546789,16 5.53020134,16 Z" />
</svg>