<svg xmlns="http://www.w3.org/2000/svg" viewBox="0 0 16 16">
  <g fill="none">
    <rect width="16" height="16" />
    <polygon fill="#870000" points="14.957 9.043 1.043 9.043 0 7.652 1.391 6.261 14.609 6.261 16 7.652" />
    <path fill="#E6E6E6"
      d="M13.9130435,16 L2.08695652,16 C1.7026087,16 1.39130435,15.6886957 1.39130435,15.3043478 L1.39130435,0.695652174 C1.39130435,0.311304348 1.7026087,0 2.08695652,0 L10.4347826,0 L14.6086957,4.17391304 L14.6086957,15.3043478 C14.6086957,15.6886957 14.2973913,16 13.9130435,16 Z" />
    <path fill="#B3B3B3"
      d="M10.4347826,0 L10.4347826,3.47826087 C10.4347826,3.8626087 10.746087,4.17391304 11.1304348,4.17391304 L14.6086957,4.17391304 L10.4347826,0 Z" />
    <path fill="#BD0100"
      d="M15.3043478,13.9130435 L0.695652174,13.9130435 C0.311304348,13.9130435 0,13.6017391 0,13.2173913 L0,7.65217391 L16,7.65217391 L16,13.2173913 C16,13.6017391 15.6886957,13.9130435 15.3043478,13.9130435 Z" />
    <path fill="#FFF"
      d="M6.6333913 10.3113043C6.6333913 10.6166957 6.54330435 10.8525217 6.36347826 11.0184348 6.18330435 11.1850435 5.928 11.2678261 5.59652174 11.2678261L5.38921739 11.2678261 5.38921739 12.173913 4.65113043 12.173913 4.65113043 9.44243478 5.59652174 9.44243478C5.94156522 9.44243478 6.20069565 9.51791304 6.37356522 9.66817391 6.54678261 9.81913043 6.6333913 10.0337391 6.6333913 10.3113043zM5.38921739 10.6664348L5.52382609 10.6664348C5.63478261 10.6664348 5.72278261 10.6351304 5.78817391 10.5725217 5.85356522 10.5102609 5.88626087 10.4243478 5.88626087 10.3151304 5.88626087 10.1307826 5.78434783 10.0386087 5.57982609 10.0386087L5.38921739 10.0386087 5.38921739 10.6664348zM9.38713043 10.7502609C9.38713043 11.2062609 9.26156522 11.5572174 9.01043478 11.8038261 8.75965217 12.0507826 8.40695652 12.173913 7.95234783 12.173913L7.06852174 12.173913 7.06852174 9.44243478 8.01391304 9.44243478C8.45217391 9.44243478 8.7906087 9.55443478 9.02921739 9.77878261 9.26782609 10.0031304 9.38713043 10.3266087 9.38713043 10.7502609zM8.62121739 10.7763478C8.62121739 10.525913 8.57182609 10.3405217 8.47269565 10.2194783 8.37391304 10.0984348 8.22330435 10.0382609 8.02156522 10.0382609L7.8066087 10.0382609 7.8066087 11.568 7.97113043 11.568C8.19547826 11.568 8.35965217 11.5026087 8.46434783 11.3725217 8.56904348 11.2424348 8.62121739 11.0441739 8.62121739 10.7763478z" />
    <polygon fill="#FFF"
      points="10.603 12.174 9.877 12.174 9.877 9.442 11.491 9.442 11.491 10.034 10.603 10.034 10.603 10.556 11.422 10.556 11.422 11.148 10.603 11.148 10.603 12.174" />
  </g>
</svg>