<svg viewBox="0 0 16 16" xmlns="http://www.w3.org/2000/svg">
  <path
    d="M8.73145 6.05859C8.92941 6.57548 9.1494 7.05958 9.40234 7.52148C10.3593 6.96049 11.1952 6.1899 11.9102 5.21094L12.7129 5.88281C11.899 6.94962 10.9526 7.76354 9.88574 8.31348C10.6997 9.55645 11.767 10.6125 13.0869 11.4814L12.3506 12.3506C10.7997 11.1517 9.58944 9.71046 8.73145 8.0166V12.1523C8.73145 12.8562 8.32424 13.2196 7.52148 13.2197H6.11328L5.83789 12.207L7.21289 12.251C7.52083 12.251 7.68646 12.0974 7.68652 11.8115V6.15723H4.50684V5.14551H8.73145V6.05859Z"
    fill="currentColor" />
  <path
    d="M7.00391 8.10449C6.44292 9.97429 5.26614 11.4041 3.48438 12.3721L2.8457 11.5361C4.3417 10.7661 5.37624 9.67727 5.94824 8.28027H3.1543V7.30176H7.00391V8.10449Z"
    fill="currentColor" />
  <path
    d="M6.87207 2.98926C7.92806 3.23126 8.94021 3.59413 9.9082 4.07812L9.52344 5.02441C8.5335 4.50744 7.51029 4.11119 6.44336 3.8252L6.87207 2.98926Z"
    fill="currentColor" />
  <path fill-rule="evenodd" clip-rule="evenodd"
    d="M14 0C15.1046 0 16 0.895431 16 2V14C16 15.1046 15.1046 16 14 16H2C0.895431 16 0 15.1046 0 14V2C0 0.895431 0.895431 0 2 0H14ZM2 1.2002C1.55817 1.2002 1.2002 1.55817 1.2002 2V14C1.2002 14.4418 1.55817 14.7998 2 14.7998H14C14.4418 14.7998 14.7998 14.4418 14.7998 14V2C14.7998 1.55817 14.4418 1.2002 14 1.2002H2Z"
    fill="currentColor" />
</svg>