<svg viewBox="0 0 17 17" fill="none" xmlns="http://www.w3.org/2000/svg">
  <path
    d="M9.11035 6.45752C9.31935 7.01852 9.5724 7.55796 9.8584 8.06396C10.8702 7.49202 11.7609 6.67785 12.5088 5.64404L13.1143 6.1499C12.2783 7.2499 11.3207 8.08571 10.2207 8.65771C11.0567 9.96669 12.1683 11.0665 13.5322 11.9575L12.9707 12.6069C11.2768 11.353 9.99031 9.81271 9.11035 7.98682V12.5845C9.11035 13.2005 8.74697 13.52 8.04297 13.52H6.60254L6.39355 12.7495L7.8125 12.7827C8.14224 12.7826 8.30664 12.6284 8.30664 12.3315V6.34814H5.01855V5.58838H9.11035V6.45752Z"
    fill="currentColor" />
  <path
    d="M7.49316 8.3501C6.88817 10.2309 5.68901 11.6605 3.90723 12.6284L3.43457 12.0015C4.99629 11.1765 6.0855 9.99977 6.69043 8.48193H3.69824V7.73389H7.49316V8.3501Z"
    fill="currentColor" />
  <path
    d="M7.38281 3.37744C8.41681 3.64144 9.39605 4.03818 10.3311 4.55518L10.0449 5.27002C9.08806 4.73111 8.09829 4.3131 7.06445 4.01611L7.38281 3.37744Z"
    fill="currentColor" />
  <path
    d="M14.5 15.3335V16.3335H2.5V15.3335H14.5ZM15.5 14.3335V2.3335C15.5 1.78121 15.0523 1.3335 14.5 1.3335H2.5C1.94772 1.3335 1.5 1.78121 1.5 2.3335V14.3335C1.5 14.8858 1.94772 15.3335 2.5 15.3335V16.3335C1.39543 16.3335 0.5 15.4381 0.5 14.3335V2.3335C0.5 1.22893 1.39543 0.333496 2.5 0.333496H14.5C15.6046 0.333496 16.5 1.22893 16.5 2.3335V14.3335C16.5 15.4381 15.6046 16.3335 14.5 16.3335V15.3335C15.0523 15.3335 15.5 14.8858 15.5 14.3335Z"
    fill="currentColor" fill-opacity="0.5" />
</svg>