<svg viewBox="0 0 16 16" fill="none" xmlns="http://www.w3.org/2000/svg">
  <path
    d="M8.68359 5.82764C8.91158 6.4396 9.18802 7.02762 9.5 7.57959C10.6038 6.95563 11.5757 6.06777 12.3916 4.93994L13.0518 5.4917C12.1398 6.6917 11.0955 7.60403 9.89551 8.22803C10.8075 9.656 12.0199 10.8556 13.5078 11.8276L12.8955 12.5356C11.0476 11.1677 9.64355 9.48751 8.68359 7.49561V12.5122C8.68344 13.184 8.28739 13.5317 7.51953 13.5317H5.94824L5.71973 12.6919L7.26758 12.728C7.62757 12.728 7.80761 12.5598 7.80762 12.2358V5.70752H4.21973V4.87939H8.68359V5.82764Z"
    fill="currentColor" />
  <path
    d="M6.91992 7.89209C6.2599 9.94399 4.95175 11.5041 3.00781 12.5601L2.49219 11.8755C4.19595 10.9755 5.384 9.6915 6.04395 8.03564H2.78027V7.22021H6.91992V7.89209Z"
    fill="currentColor" />
  <path
    d="M6.7998 2.46826C7.92766 2.75624 8.99574 3.18756 10.0156 3.75146L9.7041 4.53174C8.66018 3.94378 7.58005 3.48757 6.45215 3.16357L6.7998 2.46826Z"
    fill="currentColor" />
  <path
    d="M14 15V16H2V15H14ZM15 14V2C15 1.44772 14.5523 1 14 1H2C1.44772 1 1 1.44772 1 2V14C1 14.5523 1.44772 15 2 15V16C0.895431 16 0 15.1046 0 14V2C0 0.895431 0.895431 0 2 0H14C15.1046 0 16 0.895431 16 2V14C16 15.1046 15.1046 16 14 16V15C14.5523 15 15 14.5523 15 14Z"
    fill="currentColor" fill-opacity="0.5" />
</svg>