<svg xmlns="http://www.w3.org/2000/svg" viewBox="0 0 20 20">
  <path
    d="M20,9.6 C20,10.0418278 19.6418278,10.4 19.2,10.4 C18.7581722,10.4 18.4,10.0418278 18.4,9.6 C18.4,5.1816 14.8184,1.6 10.4,1.6 C9.9581722,1.6 9.6,1.2418278 9.6,0.8 C9.6,0.3581722 9.9581722,-9.76996262e-15 10.4,-9.76996262e-15 C15.7016,-9.76996262e-15 20,4.2984 20,9.6 Z M16.8,9.6 C16.8,10.0418278 16.4418278,10.4 16,10.4 C15.5581722,10.4 15.2,10.0418278 15.2,9.6 C15.2,6.9490332 13.0509668,4.8 10.4,4.8 C9.9581722,4.8 9.6,4.4418278 9.6,4 C9.6,3.5581722 9.9581722,3.2 10.4,3.2 C13.9346224,3.2 16.8,6.0653776 16.8,9.6 Z M13.6,9.6 C13.6,10.0418278 13.2418278,10.4 12.8,10.4 C12.3581722,10.4 12,10.0418278 12,9.6 C12,8.7163444 11.2836556,8 10.4,8 C9.9581722,8 9.6,7.6418278 9.6,7.2 C9.6,6.7581722 9.9581722,6.4 10.4,6.4 C12.1673112,6.4 13.6,7.8326888 13.6,9.6 Z M4.77876616,10.2964038 C4.38417088,11.4542446 4.92965369,12.4420244 6.42410319,14.0699206 C7.42040286,15.1551847 8.56113004,15.5061108 9.84628472,15.1226987 C10.3139316,14.8883583 11.180181,14.6101627 12.4450327,14.288112 C13.7098845,13.9660613 14.7567715,14.2442568 15.5856936,15.1226987 C16.5285645,15.9414147 17,16.7074347 17,17.4207587 C17,18.1340828 16.2774739,18.9616634 14.8324216,19.9035005 C11.3216213,20.363411 7.93948703,19.1793931 4.68601878,16.351447 C-0.194183587,12.1095279 -0.194183587,6.36039397 0.108830038,5.17431295 C0.842430469,3.98823193 2.01324772,3 2.8954771,3 C3.77770648,3 4.08917156,3.49588959 5.20432581,4.66640619 C5.94776198,5.44675059 6.0896152,6.44634816 5.62988546,7.66519892 C5.26681311,8.8604738 4.98310668,9.73754211 4.77876616,10.2964038 Z" />
</svg>