<svg xmlns="http://www.w3.org/2000/svg" width="16" height="16">
  <g stroke="none" strokeWidth="1" fill="none" fillRule="evenodd">
    <g id="Pixels">
      <polygon id="bound" points="0 0 16 0 16 16 0 16"></polygon>
      <path
        d="M3.66666667,10.6666667 L4.33333333,10.6666667 C4.88561808,10.6666667 5.33333333,11.1143819 5.33333333,11.6666667 L5.33333333,12.3333333 C5.33333333,12.8856181 4.88561808,13.3333333 4.33333333,13.3333333 L3.66666667,13.3333333 C3.11438192,13.3333333 2.66666667,12.8856181 2.66666667,12.3333333 L2.66666667,11.6666667 C2.66666667,11.1143819 3.11438192,10.6666667 3.66666667,10.6666667 Z M3.66666667,6.66666667 L4.33333333,6.66666667 C4.88561808,6.66666667 5.33333333,7.11438192 5.33333333,7.66666667 L5.33333333,8.33333333 C5.33333333,8.88561808 4.88561808,9.33333333 4.33333333,9.33333333 L3.66666667,9.33333333 C3.11438192,9.33333333 2.66666667,8.88561808 2.66666667,8.33333333 L2.66666667,7.66666667 C2.66666667,7.11438192 3.11438192,6.66666667 3.66666667,6.66666667 Z M7.66666667,10.6666667 L8.33333333,10.6666667 C8.88561808,10.6666667 9.33333333,11.1143819 9.33333333,11.6666667 L9.33333333,12.3333333 C9.33333333,12.8856181 8.88561808,13.3333333 8.33333333,13.3333333 L7.66666667,13.3333333 C7.11438192,13.3333333 6.66666667,12.8856181 6.66666667,12.3333333 L6.66666667,11.6666667 C6.66666667,11.1143819 7.11438192,10.6666667 7.66666667,10.6666667 Z M3.66666667,2.66666667 L4.33333333,2.66666667 C4.88561808,2.66666667 5.33333333,3.11438192 5.33333333,3.66666667 L5.33333333,4.33333333 C5.33333333,4.88561808 4.88561808,5.33333333 4.33333333,5.33333333 L3.66666667,5.33333333 C3.11438192,5.33333333 2.66666667,4.88561808 2.66666667,4.33333333 L2.66666667,3.66666667 C2.66666667,3.11438192 3.11438192,2.66666667 3.66666667,2.66666667 Z M11.6666667,10.6666667 L12.3333333,10.6666667 C12.8856181,10.6666667 13.3333333,11.1143819 13.3333333,11.6666667 L13.3333333,12.3333333 C13.3333333,12.8856181 12.8856181,13.3333333 12.3333333,13.3333333 L11.6666667,13.3333333 C11.1143819,13.3333333 10.6666667,12.8856181 10.6666667,12.3333333 L10.6666667,11.6666667 C10.6666667,11.1143819 11.1143819,10.6666667 11.6666667,10.6666667 Z"
        fill="#B8CAE6"></path>
      <rect id="Rectangle-187-Copy-4" fill="#B8CAE6" fillRule="nonzero" opacity="0.3" x="6.66666667" y="6.66666667"
        width="2.66666667" height="2.66666667" rx="1"></rect>
    </g>
  </g>
</svg>