<svg viewBox="0 0 16 17" fill="none" xmlns="http://www.w3.org/2000/svg">
  <path
    d="M9.46777 8.8999C9.33579 10.1977 8.94007 11.1984 8.28027 11.8804C7.59828 12.5624 6.55324 13.1133 5.15625 13.5093L4.72754 12.7827C6.0252 12.4528 6.98172 12.0016 7.59766 11.4077C8.21359 10.8138 8.5772 9.95605 8.69824 8.84521L9.46777 8.8999Z"
    fill="currentColor" />
  <path
    d="M9.51172 11.1655C10.7326 11.6275 11.8438 12.1778 12.8447 12.8267L12.4053 13.4976C11.3384 12.7716 10.2381 12.1892 9.11621 11.7603L9.51172 11.1655Z"
    fill="currentColor" />
  <path
    d="M12.3389 4.20264C10.117 4.5766 7.62018 4.78558 4.85938 4.82959V5.90771H8.5332C8.58819 5.57776 8.63204 5.23669 8.66504 4.90674L9.45703 5.00537C9.42404 5.31333 9.37993 5.62175 9.33594 5.90771H12.8232V6.63428H9.21484C9.14886 7.0081 9.07234 7.34933 8.98438 7.6792H11.8115V11.4185H11.0518V8.40479H6.70703V11.4624H5.94824V7.6792H8.18066C8.26863 7.32734 8.34613 6.98613 8.41211 6.63428H4.85938V7.60205C4.80435 10.022 4.33069 11.9577 3.42871 13.4097L2.87891 12.8267C3.62687 11.5727 4.03457 9.82393 4.10059 7.60205V4.15869C7.0044 4.13667 9.62249 3.90577 11.9434 3.48779L12.3389 4.20264Z"
    fill="currentColor" />
  <path
    d="M14 15.3335V16.3335H2V15.3335H14ZM15 14.3335V2.3335C15 1.78121 14.5523 1.3335 14 1.3335H2C1.44772 1.3335 1 1.78121 1 2.3335V14.3335C1 14.8858 1.44772 15.3335 2 15.3335V16.3335C0.895431 16.3335 0 15.4381 0 14.3335V2.3335C0 1.22893 0.895431 0.333496 2 0.333496H14C15.1046 0.333496 16 1.22893 16 2.3335V14.3335C16 15.4381 15.1046 16.3335 14 16.3335V15.3335C14.5523 15.3335 15 14.8858 15 14.3335Z"
    fill="currentColor" fill-opacity="0.5" />
</svg>