<svg viewBox="0 0 16 16" xmlns="http://www.w3.org/2000/svg">
  <path
    d="M9.61133 8.61035C9.47933 9.90835 9.08337 10.9098 8.40137 11.5918C7.71936 12.2848 6.66307 12.8345 5.24414 13.2305L4.68359 12.2627C5.9591 11.9548 6.90481 11.5256 7.50977 10.9648C8.11477 10.3928 8.47763 9.58895 8.59863 8.54395L9.61133 8.61035Z"
    fill="currentColor" />
  <path
    d="M9.58887 10.7334C10.7989 11.1624 11.8879 11.6906 12.8779 12.3066L12.3057 13.208C11.25 12.4933 10.1722 11.9326 9.06152 11.5146L9.58887 10.7334Z"
    fill="currentColor" />
  <path
    d="M12.3828 4.00098C10.183 4.37494 7.70824 4.59564 4.98047 4.63965V5.45312H8.43457C8.47855 5.15623 8.51096 4.86989 8.54395 4.58398L9.58887 4.7168C9.56687 4.96956 9.53395 5.21134 9.50098 5.45312H12.8672V6.4209H9.33594C9.26994 6.6959 9.21541 6.96061 9.14941 7.22461H11.9316V11.0635H10.9307V8.19238H6.82812V11.0742H5.82715V7.22461H8.09277C8.15877 6.94961 8.21453 6.6849 8.26953 6.4209H4.98047V7.25781C4.92542 9.7216 4.45175 11.6794 3.5498 13.1533L2.82422 12.3838C3.52817 11.1519 3.91345 9.4356 3.97949 7.25781V3.75977C6.92734 3.72675 9.55631 3.49539 11.8662 3.06641L12.3828 4.00098Z"
    fill="currentColor" />
  <path fill-rule="evenodd" clip-rule="evenodd"
    d="M14 0C15.1046 0 16 0.895431 16 2V14C16 15.1046 15.1046 16 14 16H2C0.895431 16 0 15.1046 0 14V2C0 0.895431 0.895431 0 2 0H14ZM2 0.799805C1.33726 0.799805 0.799805 1.33726 0.799805 2V14C0.799805 14.6627 1.33726 15.2002 2 15.2002H14C14.6627 15.2002 15.2002 14.6627 15.2002 14V2C15.2002 1.33726 14.6627 0.799805 14 0.799805H2Z"
    fill="currentColor" />
</svg>