<svg viewBox="0 0 16 16" xmlns="http://www.w3.org/2000/svg">
  <path
    d="M9.61133 8.61035C9.47934 9.90819 9.08321 10.9098 8.40137 11.5918C7.71943 12.2846 6.66268 12.8345 5.24414 13.2305L4.68359 12.2627C5.95924 11.9547 6.90581 11.5257 7.51074 10.9648C8.11559 10.3929 8.47863 9.5888 8.59961 8.54395L9.61133 8.61035Z"
    fill="currentColor" />
  <path
    d="M9.58984 10.7334C10.7996 11.1624 11.8891 11.6908 12.8789 12.3066L12.3066 13.208C11.2508 12.4931 10.1723 11.9326 9.06152 11.5146L9.58984 10.7334Z"
    fill="currentColor" />
  <path
    d="M12.3838 4.00098C10.1839 4.37495 7.70828 4.59563 4.98047 4.63965V5.45312H8.43457C8.47855 5.15623 8.51193 4.86989 8.54492 4.58398L9.58984 4.7168C9.56785 4.96953 9.53492 5.21137 9.50195 5.45312H12.8672V6.4209H9.33691C9.27092 6.69586 9.2154 6.96065 9.14941 7.22461H11.9326V11.0635H10.9316V8.19238H6.82812V11.0742H5.82715V7.22461H8.09375C8.15974 6.94965 8.21454 6.68486 8.26953 6.4209H4.98047V7.25781C4.92542 9.72142 4.4526 11.6794 3.55078 13.1533L2.82422 12.3838C3.52809 11.1519 3.91346 9.43547 3.97949 7.25781V3.75977C6.92713 3.72675 9.55643 3.49534 11.8662 3.06641L12.3838 4.00098Z"
    fill="currentColor" />
  <path fill-rule="evenodd" clip-rule="evenodd"
    d="M14 0C15.1046 0 16 0.895431 16 2V14C16 15.1046 15.1046 16 14 16H2C0.895431 16 0 15.1046 0 14V2C0 0.895431 0.895431 0 2 0H14ZM2 1.2002C1.55817 1.2002 1.2002 1.55817 1.2002 2V14C1.2002 14.4418 1.55817 14.7998 2 14.7998H14C14.4418 14.7998 14.7998 14.4418 14.7998 14V2C14.7998 1.55817 14.4418 1.2002 14 1.2002H2Z"
    fill="currentColor" />
</svg>