<svg viewBox="0 0 16 16" xmlns="http://www.w3.org/2000/svg">
  <path
    d="M0 2C0 0.895431 0.895431 0 2 0H14C15.1046 0 16 0.895431 16 2V14C16 15.1046 15.1046 16 14 16H2C0.895431 16 0 15.1046 0 14V2Z"
    fill="currentColor" fill-opacity="0.2" />
  <path
    d="M12.834 8.78613H10.1934V9.79883H12.3604V10.7227H10.1934V11.8887C10.6004 11.9327 11.074 11.9658 11.624 11.9658C12.2178 11.9658 12.7237 11.9434 13.1416 11.8994L12.8555 12.9111C12.4266 12.9111 12.0414 12.9006 11.6895 12.8896C10.2266 12.8786 9.22549 12.7464 8.68652 12.4824C8.30164 12.2844 7.94953 11.9326 7.6416 11.4268C7.38862 12.0316 7.0583 12.5925 6.65137 13.1094L5.87109 12.4385C6.66301 11.4485 7.10243 10.3593 7.19043 9.14941L8.11523 9.25977C8.09322 9.65567 8.03792 10.0297 7.96094 10.3926C8.29088 11.0304 8.66485 11.448 9.09375 11.624L9.19238 11.6572V8.78613H6.50879V7.85156H12.834V8.78613Z"
    fill="currentColor" />
  <path
    d="M5.45312 4.99121H6.47559V5.99219H5.45312V7.81836C5.739 7.6864 6.01418 7.54359 6.28906 7.38965V8.45605C6.00323 8.59897 5.72796 8.74209 5.45312 8.87402V11.9541C5.45312 12.658 5.08983 13.0214 4.375 13.0215H3.40723L3.17578 12.0098C3.46175 12.0428 3.74775 12.0645 4.01172 12.0645C4.26465 12.0645 4.39641 11.9325 4.39648 11.6797V9.3252C4.02259 9.46815 3.63782 9.60046 3.25293 9.73242L3 8.67676C3.47282 8.56679 3.93465 8.42372 4.39648 8.25879V5.99219H3.15332V4.99121H4.39648V3H5.45312V4.99121Z"
    fill="currentColor" />
  <path fill-rule="evenodd" clip-rule="evenodd"
    d="M12.1738 7.2793H7.22363V3.30859H12.1738V7.2793ZM8.23535 6.43262H11.1504V5.68457H8.23535V6.43262ZM8.23535 4.89258H11.1504V4.15527H8.23535V4.89258Z"
    fill="currentColor" />
</svg>