<svg viewBox="0 0 16 16" fill="none" xmlns="http://www.w3.org/2000/svg">
  <path
    d="M10.8442 2.86328L8.21631 12.0557C9.70401 11.8397 10.9759 11.6242 12.0317 11.4082C11.6957 10.0882 11.3124 8.81577 10.8804 7.5918L11.6479 7.32812C12.2959 9.05606 12.8722 11.0242 13.3882 13.2441L12.5239 13.46C12.4279 13.028 12.3318 12.6079 12.2358 12.2119C10.6639 12.5239 8.95969 12.8122 7.11182 13.0762L6.94385 12.2354C7.19585 12.1634 7.34018 12.0675 7.38818 11.9355L9.97998 2.74414L10.8442 2.86328Z"
    fill="currentColor" />
  <path
    d="M7.76025 3.34375C7.16029 3.51174 6.51229 3.65609 5.84033 3.78809V5.69531H7.78369V6.52344H5.84033V7.00391C6.44027 7.57986 7.04019 8.22831 7.64014 8.94824L7.15967 9.67969C6.65586 8.88801 6.21223 8.26408 5.84033 7.78418V13.4238H4.96436V7.95215C4.47242 9.09192 3.81239 10.1237 2.99658 11.0596L2.61182 10.0879C3.67982 9.04389 4.44781 7.85544 4.90381 6.52344H2.82861V5.69531H4.96436V3.93164C4.36448 4.02762 3.72843 4.10016 3.08057 4.16016L2.8999 3.33203C4.6159 3.18803 6.14045 2.92404 7.46045 2.54004L7.76025 3.34375Z"
    fill="currentColor" />
  <path
    d="M14 15V16H2V15H14ZM15 14V2C15 1.44772 14.5523 1 14 1H2C1.44772 1 1 1.44772 1 2V14C1 14.5523 1.44772 15 2 15V16C0.895431 16 0 15.1046 0 14V2C0 0.895431 0.895431 0 2 0H14C15.1046 0 16 0.895431 16 2V14C16 15.1046 15.1046 16 14 16V15C14.5523 15 15 14.5523 15 14Z"
    fill="currentColor" fill-opacity="0.5" />
</svg>