<svg viewBox="0 0 17 17" fill="none" xmlns="http://www.w3.org/2000/svg">
  <path
    d="M11.0459 3.79541L8.63672 12.2222C10.0006 12.0242 11.1668 11.8254 12.1348 11.6274C11.8268 10.4176 11.4751 9.25125 11.0791 8.12939L11.7832 7.88818C12.3772 9.47211 12.905 11.2762 13.3779 13.311L12.5859 13.5093C12.4979 13.1133 12.4103 12.7277 12.3223 12.3647C10.8813 12.6507 9.319 12.9147 7.625 13.1567L7.4707 12.3872C7.70169 12.3212 7.83392 12.2328 7.87793 12.1118L10.2539 3.68604L11.0459 3.79541Z"
    fill="currentColor" />
  <path
    d="M8.21875 4.23584C7.66884 4.3898 7.07486 4.52209 6.45898 4.64307V6.39209H8.24121V7.15088H6.45898V7.59131C7.00892 8.11926 7.55944 8.71264 8.10938 9.37256L7.66895 10.0435C7.20708 9.3177 6.79991 8.74606 6.45898 8.30615V13.4761H5.65625V8.45947C5.20526 9.50444 4.60051 10.4511 3.85254 11.3091L3.5 10.4175C4.47893 9.46051 5.18358 8.37183 5.60156 7.15088H3.69824V6.39209H5.65625V4.7749C5.10625 4.8629 4.52271 4.92889 3.92871 4.98389L3.76367 4.2251C5.33667 4.0931 6.73434 3.85054 7.94434 3.49854L8.21875 4.23584Z"
    fill="currentColor" />
  <path
    d="M14.5 15.3335V16.3335H2.5V15.3335H14.5ZM15.5 14.3335V2.3335C15.5 1.78121 15.0523 1.3335 14.5 1.3335H2.5C1.94772 1.3335 1.5 1.78121 1.5 2.3335V14.3335C1.5 14.8858 1.94772 15.3335 2.5 15.3335V16.3335C1.39543 16.3335 0.5 15.4381 0.5 14.3335V2.3335C0.5 1.22893 1.39543 0.333496 2.5 0.333496H14.5C15.6046 0.333496 16.5 1.22893 16.5 2.3335V14.3335C16.5 15.4381 15.6046 16.3335 14.5 16.3335V15.3335C15.0523 15.3335 15.5 14.8858 15.5 14.3335Z"
    fill="currentColor" fill-opacity="0.5" />
</svg>