<svg viewBox="0 0 16 16" fill="none" xmlns="http://www.w3.org/2000/svg">
  <path
    d="M10.667 3.49512L8.38965 11.5918C9.57749 11.4158 10.6008 11.2502 11.4697 11.0742C11.1837 9.9523 10.8649 8.87403 10.502 7.8291L11.4258 7.51074C12.0197 9.09468 12.537 10.8985 12.999 12.9443L11.9648 13.208C11.8769 12.8122 11.7999 12.4275 11.7119 12.0537C10.282 12.3287 8.73113 12.5813 7.07031 12.8232L6.87207 11.8223C7.15789 11.7453 7.32306 11.6246 7.36719 11.4707L9.62207 3.35254L10.667 3.49512Z"
    fill="currentColor" />
  <path
    d="M7.7959 4.05664C7.25699 4.18861 6.68496 4.30897 6.08008 4.41895V5.9375H7.77441V6.93848H6.08008V7.29004C6.60808 7.78504 7.14752 8.33517 7.68652 8.95117L7.0918 9.83105C6.69593 9.19327 6.36601 8.66545 6.08008 8.26953V13.1758H5.03516V8.5332C4.60616 9.4682 4.06722 10.3264 3.40723 11.1074L2.93457 9.91895C3.85831 9.03909 4.54007 8.04924 4.95801 6.93848H3.16504V5.9375H5.03516V4.57324C4.51816 4.63924 3.97871 4.70502 3.42871 4.74902L3.20898 3.74805C4.79298 3.63805 6.20159 3.41789 7.43359 3.08789L7.7959 4.05664Z"
    fill="currentColor" />
  <path fill-rule="evenodd" clip-rule="evenodd"
    d="M14 0C15.1046 0 16 0.895431 16 2V14C16 15.1046 15.1046 16 14 16H2C0.895431 16 0 15.1046 0 14V2C0 0.895431 0.895431 0 2 0H14ZM2 1.2002C1.55817 1.2002 1.2002 1.55817 1.2002 2V14C1.2002 14.4418 1.55817 14.7998 2 14.7998H14C14.4418 14.7998 14.7998 14.4418 14.7998 14V2C14.7998 1.55817 14.4418 1.2002 14 1.2002H2Z"
    fill="currentColor" />
</svg>