<svg viewBox="0 0 27 16" fill="none" xmlns="http://www.w3.org/2000/svg">
  <path
    d="M0 2C0 0.895431 0.895431 0 2 0H25C26.1046 0 27 0.895431 27 2V14C27 15.1046 26.1046 16 25 16H2C0.895431 16 0 15.1046 0 14V2Z"
    fill="currentColor" fill-opacity="0.2" />
  <path fill-rule="evenodd" clip-rule="evenodd"
    d="M23.0752 13.1641H22.0518V12.6914H16.4854V13.1641H15.4521V9.82031H23.0752V13.1641ZM16.4854 11.7891H22.0518V10.7002H16.4854V11.7891Z"
    fill="currentColor" />
  <path fill-rule="evenodd" clip-rule="evenodd"
    d="M10.2822 10.0625H5.88184V5.99219H10.2822V10.0625ZM6.84961 9.19336H9.29199V6.87207H6.84961V9.19336Z"
    fill="currentColor" />
  <path fill-rule="evenodd" clip-rule="evenodd"
    d="M12.5811 12.9111H11.5684V12.5264H4.57227V12.9111H3.56055V3.58301H12.5811V12.9111ZM4.57227 11.6025H11.5684V4.50781H4.57227V11.6025Z"
    fill="currentColor" />
  <path fill-rule="evenodd" clip-rule="evenodd"
    d="M19.9619 2.87988C20.1158 3.20977 20.2591 3.57266 20.4131 3.97949H23.5146V4.83789H20.292V5.45312H23.0303V6.26758H20.292V6.85059H23.0527V7.66406H20.292V8.29102H23.7129V9.16016H15.4736V6.15723C15.1216 6.54223 14.7364 6.9163 14.3184 7.2793L13.9883 6.25684C15.0992 5.2339 15.881 4.12274 16.332 2.92383L17.3545 3.12109C17.2445 3.41809 17.1125 3.70449 16.9805 3.97949H19.3789C19.2249 3.64955 19.0598 3.34162 18.8838 3.05566L19.9619 2.87988ZM16.4639 8.29102H19.2578V7.66406H16.4639V8.29102ZM16.4639 6.85059H19.2578V6.26758H16.4639V6.85059ZM16.4639 4.87012V5.45312H19.2578V4.83789H16.4854C16.4746 4.84864 16.4641 4.85937 16.4639 4.87012Z"
    fill="currentColor" />
</svg>