<svg xmlns="http://www.w3.org/2000/svg" viewBox="0 0 24 24">
  <path
    d="M12,1 C12.5522847,1 13,1.44771525 13,2 L13.0010412,10.1210317 C13.6719876,10.4792327 14.1285714,11.1862959 14.1285714,12 C14.1285714,13.1755775 13.1755775,14.1285714 12,14.1285714 C10.8244225,14.1285714 9.87142857,13.1755775 9.87142857,12 C9.87142857,11.185887 10.3284714,10.4785221 10.9999704,10.120492 L11.00047,7.68469104 C9.03603284,8.13786979 7.57142857,9.89789657 7.57142857,12 C7.57142857,14.4458325 9.55416754,16.4285714 12,16.4285714 C14.4458325,16.4285714 16.4285714,14.4458325 16.4285714,12 C16.4285714,11.1694031 16.2005046,10.3748252 15.7755256,9.68387339 C15.4861843,9.21344798 15.632982,8.59753538 16.1034074,8.30819409 C16.5738328,8.0188528 17.1897454,8.16565049 17.4790867,8.6360759 C18.0965269,9.6399408 18.4285714,10.7967736 18.4285714,12 C18.4285714,15.550402 15.550402,18.4285714 12,18.4285714 C8.44959804,18.4285714 5.57142857,15.550402 5.57142857,12 C5.57142857,8.78961891 7.92471337,6.12887693 11.0003719,5.64868517 L11,3.055 L10.9504099,3.06054958 C6.56043956,3.57043775 3.13399974,7.2393827 3.00383711,11.7346377 L3,12 C3,16.9705627 7.02943725,21 12,21 C16.9705627,21 21,16.9705627 21,12 C21,10.1408883 20.4361763,8.36880258 19.3993648,6.87500601 C19.2822986,6.70634164 19.1594914,6.54169302 19.0311814,6.38135797 C18.6861032,5.95015101 18.7559243,5.32084751 19.1871312,4.97576925 C19.6183382,4.630691 20.2476417,4.70051211 20.59272,5.13171907 C20.7494097,5.32751723 20.899395,5.5286038 21.0423867,5.73462049 C22.3097924,7.56064792 23,9.72995577 23,12 C23,18.0751322 18.0751322,23 12,23 C5.92486775,23 1,18.0751322 1,12 C1,5.92486775 5.92486775,1 12,1 Z" />
</svg>