<svg viewBox="0 0 16 16" fill="none" xmlns="http://www.w3.org/2000/svg">
  <path
    d="M10.6562 4.94727H12.5156V5.95898H10.6562V6.34473C10.6452 6.87256 10.6123 7.37844 10.5684 7.8623H12.8789V8.86328H10.7773C11.0634 10.3262 11.8339 11.4707 13.0879 12.3066L12.5156 13.252C11.3718 12.416 10.5901 11.3384 10.1611 10.0186C10.0622 10.3154 9.96345 10.5906 9.85352 10.8545C9.36961 11.8992 8.57761 12.7025 7.5 13.2744L6.92773 12.3838C7.96153 11.7898 8.66608 11.0408 9.04004 10.1279C9.18293 9.74312 9.30365 9.32501 9.3916 8.86328H7.25781V7.8623H9.5459C9.58988 7.38945 9.62278 6.88354 9.63379 6.34473V5.95898H8.52246C8.33551 6.50883 8.13789 7.02638 7.91797 7.48828L7.00488 6.91602C7.51073 5.91518 7.86305 4.84788 8.08301 3.7041L9.05078 3.90234C8.97379 4.27629 8.89633 4.61731 8.81934 4.94727H9.63379V3.08789H10.6562V4.94727Z"
    fill="currentColor" />
  <path
    d="M5.2002 3.28613C5.11224 3.60499 5.03522 3.91309 4.94727 4.20996H6.7959V5.21094H4.61719C4.44122 5.65086 4.26534 6.05842 4.06738 6.44336H6.58691V7.37793H5.61816V8.5H6.98242V9.46875H5.61816V11.6904C6.07998 11.5255 6.53185 11.3166 6.97168 11.0527L7.14746 11.9766C6.39968 12.3724 5.55259 12.7029 4.58496 12.9668L4.16699 12.0859C4.45238 11.9979 4.5957 11.855 4.5957 11.6572V9.46875H3.2207V8.5H4.5957V7.37793H3.95801V6.66309C3.85905 6.83901 3.75911 7.01573 3.66016 7.18066L2.81348 6.6416C3.46241 5.54166 3.92424 4.35307 4.19922 3.07715L5.2002 3.28613Z"
    fill="currentColor" />
  <path fill-rule="evenodd" clip-rule="evenodd"
    d="M14 0C15.1046 0 16 0.895431 16 2V14C16 15.1046 15.1046 16 14 16H2C0.895431 16 0 15.1046 0 14V2C0 0.895431 0.895431 0 2 0H14ZM2 1.2002C1.55817 1.2002 1.2002 1.55817 1.2002 2V14C1.2002 14.4418 1.55817 14.7998 2 14.7998H14C14.4418 14.7998 14.7998 14.4418 14.7998 14V2C14.7998 1.55817 14.4418 1.2002 14 1.2002H2Z"
    fill="currentColor" />
</svg>