<svg viewBox="0 0 17 17" fill="none" xmlns="http://www.w3.org/2000/svg">
  <path
    d="M10.9912 5.40186H12.9707V6.17139H10.9912V6.6665C10.9802 7.2605 10.9476 7.8109 10.8926 8.31689H13.334V9.07568H11.123C11.42 10.6926 12.2338 11.9471 13.5537 12.8491L13.1143 13.5532C11.8604 12.6403 11.0352 11.4301 10.6172 9.92334C10.5072 10.3632 10.3749 10.7702 10.21 11.144C9.72595 12.1779 8.93391 12.9917 7.83398 13.5747L7.39453 12.8931C8.45041 12.3101 9.1875 11.5394 9.60547 10.5825C9.78139 10.1316 9.91275 9.62552 10.0117 9.07568H7.72363V8.31689H10.1221C10.1771 7.78889 10.2097 7.2385 10.2207 6.6665V6.17139H8.90137C8.7034 6.7433 8.49365 7.27143 8.2627 7.75537L7.57031 7.32666C8.07618 6.33687 8.44967 5.23702 8.68066 4.04932L9.41797 4.20264C9.32997 4.62064 9.23084 5.02786 9.13184 5.40186H10.2207V3.45459H10.9912V5.40186Z"
    fill="currentColor" />
  <path
    d="M7.05273 7.60205H5.97559V8.95459H7.44922V9.68115H5.97559V12.2329C6.47046 12.0569 6.97656 11.8257 7.48242 11.5288L7.625 12.2329C6.91003 12.6289 6.09583 12.9477 5.17188 13.2007L4.85352 12.5405C5.08416 12.4635 5.20502 12.3428 5.20508 12.189V9.68115H3.75293V8.95459H5.20508V7.60205H4.45703V6.88721H7.05273V7.60205Z"
    fill="currentColor" />
  <path
    d="M5.5791 3.59814C5.49114 3.97193 5.39216 4.32373 5.28223 4.66455H7.26172V5.42432H5.01855C4.73258 6.16122 4.41302 6.83208 4.03906 7.43701L3.38965 7.02979C4.04965 5.95179 4.52357 4.75285 4.80957 3.44385L5.5791 3.59814Z"
    fill="currentColor" />
  <path
    d="M14.5 15.3335V16.3335H2.5V15.3335H14.5ZM15.5 14.3335V2.3335C15.5 1.78121 15.0523 1.3335 14.5 1.3335H2.5C1.94772 1.3335 1.5 1.78121 1.5 2.3335V14.3335C1.5 14.8858 1.94772 15.3335 2.5 15.3335V16.3335C1.39543 16.3335 0.5 15.4381 0.5 14.3335V2.3335C0.5 1.22893 1.39543 0.333496 2.5 0.333496H14.5C15.6046 0.333496 16.5 1.22893 16.5 2.3335V14.3335C16.5 15.4381 15.6046 16.3335 14.5 16.3335V15.3335C15.0523 15.3335 15.5 14.8858 15.5 14.3335Z"
    fill="currentColor" fill-opacity="0.5" />
</svg>