<svg viewBox="0 0 16 16" fill="none" xmlns="http://www.w3.org/2000/svg">
  <path
    d="M10.6562 4.94727H12.5146V5.95898H10.6562V6.34473C10.6452 6.87257 10.6123 7.37844 10.5684 7.8623H12.8779V8.86328H10.7773C11.0633 10.3263 11.8329 11.4706 13.0869 12.3066L12.5146 13.252C11.371 12.416 10.5901 11.3383 10.1611 10.0186C10.0622 10.3155 9.96349 10.5906 9.85352 10.8545C9.36952 11.8995 8.57702 12.7024 7.49902 13.2744L6.92676 12.3838C7.96076 11.7898 8.66506 11.0409 9.03906 10.1279C9.182 9.74303 9.30363 9.32514 9.3916 8.86328H7.25684V7.8623H9.54492C9.58891 7.38942 9.62181 6.88357 9.63281 6.34473V5.95898H8.52246C8.33546 6.50898 8.13699 7.02629 7.91699 7.48828L7.00391 6.91602C7.50986 5.91507 7.86204 4.84803 8.08203 3.7041L9.0498 3.90234C8.97282 4.27627 8.89632 4.61732 8.81934 4.94727H9.63281V3.08789H10.6562V4.94727Z"
    fill="currentColor" />
  <path
    d="M5.2002 3.28613C5.11224 3.60499 5.03522 3.91309 4.94727 4.20996H6.79492V5.21094H4.61719C4.4412 5.6509 4.26536 6.05839 4.06738 6.44336H6.58594V7.37793H5.61816V8.5H6.98242V9.46875H5.61816V11.6904C6.07999 11.5255 6.53086 11.3166 6.9707 11.0527L7.14746 11.9766C6.39946 12.3726 5.55198 12.7028 4.58398 12.9668L4.16602 12.0859C4.452 11.9979 4.59473 11.8552 4.59473 11.6572V9.46875H3.21973V8.5H4.59473V7.37793H3.95703V6.66309C3.85803 6.83909 3.75916 7.01566 3.66016 7.18066L2.81348 6.6416C3.46248 5.5416 3.92422 4.35315 4.19922 3.07715L5.2002 3.28613Z"
    fill="currentColor" />
  <path fill-rule="evenodd" clip-rule="evenodd"
    d="M14 0C15.1046 0 16 0.895431 16 2V14C16 15.1046 15.1046 16 14 16H2C0.895431 16 0 15.1046 0 14V2C0 0.895431 0.895431 0 2 0H14ZM2 0.799805C1.33726 0.799805 0.799805 1.33726 0.799805 2V14C0.799805 14.6627 1.33726 15.2002 2 15.2002H14C14.6627 15.2002 15.2002 14.6627 15.2002 14V2C15.2002 1.33726 14.6627 0.799805 14 0.799805H2Z"
    fill="currentColor" />
</svg>