<svg viewBox="0 0 16 16" fill="none" xmlns="http://www.w3.org/2000/svg">
  <path
    d="M10.7476 4.61035H12.9077V5.4502H10.7476V5.99023C10.7356 6.63811 10.7001 7.23813 10.6401 7.79004H13.3042V8.61816H10.8921C11.2161 10.382 12.1045 11.7504 13.5444 12.7344L13.064 13.502C11.696 12.506 10.7963 11.1859 10.3403 9.54199C10.2203 10.022 10.076 10.466 9.896 10.874C9.36799 12.002 8.50416 12.8904 7.3042 13.5264L6.82373 12.7822C7.97573 12.1462 8.77984 11.3057 9.23584 10.2617C9.4278 9.76981 9.57219 9.21804 9.68018 8.61816H7.18408V7.79004H9.80029C9.86028 7.21414 9.89571 6.61411 9.90771 5.99023V5.4502H8.46826C8.2523 6.07408 8.02392 6.64982 7.77197 7.17773L7.01611 6.70996C7.56811 5.62996 7.97603 4.42979 8.22803 3.13379L9.03174 3.30176C8.93574 3.75776 8.82821 4.20235 8.72021 4.61035H9.90771V2.48633H10.7476V4.61035Z"
    fill="currentColor" />
  <path
    d="M6.45166 7.00977H5.27588V8.48633H6.88428V9.27832H5.27588V12.0615C5.81587 11.8695 6.36841 11.6179 6.92041 11.2939L7.07568 12.0615C6.2957 12.4935 5.40787 12.8422 4.3999 13.1182L4.05225 12.3975C4.30401 12.3135 4.43604 12.1816 4.43604 12.0137V9.27832H2.85205V8.48633H4.43604V7.00977H3.61963V6.22949H6.45166V7.00977Z"
    fill="currentColor" />
  <path
    d="M4.84424 2.6416C4.74826 3.04952 4.63999 3.43373 4.52002 3.80566H6.68018V4.63379H4.23193C3.91993 5.43779 3.57157 6.17008 3.16357 6.83008L2.45557 6.38574C3.17557 5.20974 3.69239 3.90163 4.00439 2.47363L4.84424 2.6416Z"
    fill="currentColor" />
  <path
    d="M14 15V16H2V15H14ZM15 14V2C15 1.44772 14.5523 1 14 1H2C1.44772 1 1 1.44772 1 2V14C1 14.5523 1.44772 15 2 15V16C0.895431 16 0 15.1046 0 14V2C0 0.895431 0.895431 0 2 0H14C15.1046 0 16 0.895431 16 2V14C16 15.1046 15.1046 16 14 16V15C14.5523 15 15 14.5523 15 14Z"
    fill="currentColor" fill-opacity="0.5" />
</svg>