<?xml version="1.0" encoding="UTF-8"?>
<svg viewBox="0 0 32 32" version="1.1" xmlns="http://www.w3.org/2000/svg" xmlns:xlink="http://www.w3.org/1999/xlink">
    <g stroke="none" stroke-width="1" fill="none" fill-rule="evenodd">
        <g>
            <polygon fill="#37639D" points="0 0 0 32 32 0"></polygon>
            <path
                d="M3.09677419,13.2645161 L4.43870969,14.6064516 L5.16129031,13.883871 L5.67741934,14.4 L4.95483872,15.1225807 L6.45161291,16.6193548 C6.60645163,16.2064516 6.70967744,15.8967742 6.81290322,15.6387097 L7.32903225,16.1548387 C7.22580644,16.4645161 7.07096772,16.8258065 6.96774194,17.1354839 L9.08387097,19.2516129 C9.49677419,19.6129032 9.49677419,20.0774193 9.03225806,20.4903226 L8.36129031,21.1612903 L7.74193547,20.7483871 C8,20.5419355 8.20645159,20.3354839 8.36129031,20.1806452 C8.56774194,19.9741935 8.56774194,19.7677419 8.41290322,19.6129032 L6.65806453,17.8580645 C6.4,18.3741936 6.19354841,18.7354839 6.03870969,19.0451613 L5.36774194,18.6322581 C5.62580647,18.2193548 5.88387097,17.7548387 6.09032259,17.2903226 L4.38709678,15.5870968 L3.45806453,16.516129 L2.94193547,16 L3.87096775,15.0709677 L2.58064516,13.7806452 L3.09677419,13.2645161 Z M9.39354838,9.49677419 L9.90967741,10.0129032 L8.56774194,11.3548387 L9.54838709,12.3354839 L10.683871,11.2 L11.2,11.716129 L10.0645161,12.8516129 L11.0451613,13.8322581 L12.1806452,12.6967742 L12.6451613,13.1612903 L11.5096774,14.2967742 L12.5935484,15.3806452 L13.9354839,14.0387097 L14.4516129,14.5548387 L11.3032258,17.7032258 L11.6645161,18.0645161 L11.1483871,18.5806452 L6.86451613,14.2967742 C6.96774194,14.7096774 7.01935484,15.1741935 7.07096775,15.6387097 L6.34838709,15.2774193 C6.14193547,13.9354839 5.72903225,12.6451613 5.00645163,11.4064516 L5.62580644,10.9935484 C5.88387097,11.4580645 6.14193547,11.9741935 6.34838709,12.5419355 L7.69032259,11.2 C7.17419356,10.9419355 6.65806453,10.683871 6.14193547,10.4774193 L6.50322581,9.85806453 C7.12258066,10.1161291 7.63870969,10.3741936 8.10322581,10.6322581 L8,10.8903226 L9.39354838,9.49677419 Z M11.044129,14.7938064 L9.73058066,16.107871 L10.8252903,17.2025807 L12.1388387,15.8890322 L11.044129,14.7938064 Z M9.54322581,13.339871 L8.22967741,14.6539355 L9.21496775,15.6392258 L10.5290322,14.3256774 L9.54322581,13.339871 Z M8.11509678,11.8549677 L6.80103225,13.1690322 L7.78632259,14.1543226 L9.10038709,12.8407742 L8.11509678,11.8549677 Z M17.3935484,3.09677419 L17.8580645,3.56129031 L14.0387097,7.38064516 C14.1935484,8 14.2967742,8.61935484 14.3483871,9.23870969 L17.4451613,12.3354839 L16.9290322,12.8516129 L14.3483871,10.2709677 C14.2967742,10.8387097 14.2451613,11.4064516 14.1419355,12.0774193 L13.3677419,11.9741936 C13.6774193,10.5290323 13.6774193,9.18709678 13.4193548,8 L11.6129032,9.80645162 L11.2,9.29032259 L13.2645161,7.22580644 C13.1612903,6.91612903 13.0580645,6.6580645 12.9548387,6.45161291 L13.5741936,6.03870969 L13.7290322,6.34838709 L13.883871,6.65806453 L17.3935484,3.09677419 Z M17.9096774,4.59354837 L18.2709677,4.95483872 C18.1677419,5.62580647 18.116129,6.29677419 17.9612903,6.91612903 L18.2709677,7.22580644 L19.8709677,5.62580644 L20.3870968,6.14193547 L18.7870968,7.74193547 L19.7677419,8.72258066 C20.283871,9.08387097 20.283871,9.44516131 19.8709677,9.85806453 L18.9935484,10.7354839 L18.3225807,10.3741936 C18.6322581,10.1032258 18.8548387,9.8903226 19.0120968,9.73548388 L19.1483871,9.6 C19.3032258,9.44516128 19.3548387,9.23870969 19.1483871,9.08387097 L18.3225807,8.25806453 L16.3096774,10.2709677 L15.7935484,9.75483872 L17.8064516,7.74193547 L17.3419355,7.27741934 C17.4451613,6.96774194 17.5483871,6.45161291 17.6516129,5.78064516 L15.2258064,8.20645162 L14.7612903,7.74193547 L17.9096774,4.59354837 Z M15.8967742,1.54838709 L16.3612903,2.01290322 L14.7096774,3.66451613 L15.2258064,4.18064516 L14.7096774,4.69677419 L14.1935484,4.18064516 L12.283871,6.09032259 L12.8,6.60645163 L12.283871,7.12258066 L11.7677419,6.60645163 L10.116129,8.25806453 L9.65161291,7.79354838 L11.3032258,6.14193547 L10.7354839,5.67741934 L11.2516129,5.16129031 L11.7677419,5.67741934 L13.6774193,3.76774194 L13.1612903,3.25161291 L13.6774193,2.73548388 L14.1935484,3.25161291 L15.8967742,1.54838709 Z"
                fill="#F0D5B6"></path>
        </g>
    </g>
</svg>