<svg viewBox="0 0 27 16" xmlns="http://www.w3.org/2000/svg">
  <path
    d="M0 2C0 0.895431 0.895431 0 2 0H25C26.1046 0 27 0.895431 27 2V14C27 15.1046 26.1046 16 25 16H2C0.895431 16 0 15.1046 0 14V2Z"
    fill="currentColor" fill-opacity="0.2" />
  <path
    d="M10.9971 8.59961C10.9861 8.84149 10.9634 9.06135 10.9414 9.28125H13.1523V10.2051H10.7656C10.7216 10.3371 10.6885 10.4698 10.6445 10.5908C11.5685 11.0748 12.427 11.6359 13.208 12.2959L12.6689 13.1201C11.8881 12.3943 11.096 11.8008 10.2822 11.3389C10.2383 11.4047 10.205 11.4703 10.1611 11.5361C9.66618 12.2181 8.8628 12.7461 7.75195 13.1201L7.22363 12.2842C8.27963 11.9212 9.00537 11.4592 9.40137 10.9092C9.53336 10.6892 9.65517 10.4581 9.74316 10.2051H7.27832V9.28125H9.96289C9.99586 9.06137 10.0173 8.83047 10.0283 8.59961V6.55371H10.9971V8.59961Z"
    fill="currentColor" />
  <path
    d="M5.5293 8.61035C5.5073 9.82035 5.33144 10.7886 5.02344 11.5146C4.71543 12.1855 4.22025 12.7022 3.52734 13.0762L3 12.252C3.6379 11.889 4.07757 11.4376 4.30859 10.8877C4.53959 10.2937 4.66062 9.53435 4.68262 8.61035V5.00293H5.5293V8.61035Z"
    fill="currentColor" />
  <path fill-rule="evenodd" clip-rule="evenodd"
    d="M21.2822 10.0625H16.8818V5.99219H21.2822V10.0625ZM17.8496 9.19336H20.292V6.87207H17.8496V9.19336Z"
    fill="currentColor" />
  <path fill-rule="evenodd" clip-rule="evenodd"
    d="M23.5811 12.9111H22.5684V12.5264H15.5723V12.9111H14.5605V3.58301H23.5811V12.9111ZM15.5723 11.6025H22.5684V4.50781H15.5723V11.6025Z"
    fill="currentColor" />
  <path
    d="M5.93652 10.623C6.43152 11.085 6.85015 11.5585 7.20215 12.0205L6.51953 12.7021C6.23354 12.2402 5.82645 11.7564 5.30957 11.2285L5.93652 10.623Z"
    fill="currentColor" />
  <path d="M6.9043 10.3379H6.02441V4.32031H4.20996V10.3379H3.30762V3.37402H6.9043V10.3379Z" fill="currentColor" />
  <path
    d="M7.66406 7.45508C8.24689 7.71901 8.78564 8.03824 9.26953 8.41211L8.81836 9.13867C8.29054 8.70983 7.75196 8.37966 7.20215 8.1377L7.66406 7.45508Z"
    fill="currentColor" />
  <path
    d="M10.7324 3.61621H12.7568V4.51855H10.7324V5.32129H13.0205V5.9375C12.8665 6.64147 12.6573 7.33437 12.4043 8.02734L11.459 7.76367C11.668 7.32367 11.844 6.81712 11.998 6.24512H7.36719V5.32129H9.74316V4.51855H7.72949V3.61621H9.74316V2.94531H10.7324V3.61621Z"
    fill="currentColor" />
  <path
    d="M8.45605 6.42188C8.96189 6.64184 9.42365 6.90595 9.85254 7.21387L9.39062 7.92871C8.95063 7.55471 8.48863 7.26831 8.01562 7.07031L8.45605 6.42188Z"
    fill="currentColor" />
</svg>