<?xml version="1.0" encoding="UTF-8"?>
<svg viewBox="0 0 16 16" version="1.1" xmlns="http://www.w3.org/2000/svg" xmlns:xlink="http://www.w3.org/1999/xlink">
    <g stroke="none" stroke-width="1" fill="none" fill-rule="evenodd">
        <g>
            <rect x="0" y="0" width="16" height="16"></rect>
            <path
                d="M14.0666667,13.9966667 L6.6,13.9966667 C6.08456667,13.9966667 5.66666667,13.5787667 5.66666667,13.0633333 L5.66666667,7.46333333 C5.66666667,6.9479 6.08456667,6.53 6.6,6.53 L8,6.53 C8.25783333,6.53 8.46666667,6.73906667 8.46666667,6.99666667 C8.46666667,7.2545 8.25783333,7.46333333 8,7.46333333 L6.6,7.46333333 L6.6,13.0633333 L14.0666667,13.0633333 L14.0666667,7.46333333 L11.7333333,7.46333333 C11.4755,7.46333333 11.2666667,7.2545 11.2666667,6.99666667 C11.2666667,6.73906667 11.4755,6.53 11.7333333,6.53 L14.0666667,6.53 C14.5821,6.53 15,6.9479 15,7.46333333 L15,13.0633333 C15,13.5787667 14.5821,13.9966667 14.0666667,13.9966667 Z M9.4,9.46666667 L8,9.46666667 C7.7424,9.46666667 7.53333333,9.25783333 7.53333333,9 C7.53333333,8.74216667 7.7424,8.53333333 8,8.53333333 L9.4,8.53333333 L9.4,2.93333333 L1.93333333,2.93333333 L1.93333333,8.53333333 L4.26666667,8.53333333 C4.5245,8.53333333 4.73333333,8.74216667 4.73333333,9 C4.73333333,9.25783333 4.5245,9.46666667 4.26666667,9.46666667 L1.93333333,9.46666667 C1.4179,9.46666667 1,9.04876667 1,8.53333333 L1,2.93333333 C1,2.4179 1.4179,2 1.93333333,2 L9.4,2 C9.91543333,2 10.3333333,2.4179 10.3333333,2.93333333 L10.3333333,8.53333333 C10.3333333,9.04876667 9.91543333,9.46666667 9.4,9.46666667 Z"
                fill="currentColor" fill-rule="nonzero"></path>
        </g>
    </g>
</svg>