<?xml version="1.0" encoding="UTF-8"?>
<svg viewBox="0 0 32 32" version="1.1" xmlns="http://www.w3.org/2000/svg" xmlns:xlink="http://www.w3.org/1999/xlink">
    <g stroke="none" stroke-width="1" fill="none" fill-rule="evenodd">
        <g>
            <rect x="0" y="0" width="32" height="32"></rect>
            <path
                d="M23.5510844,14.2192029 L19.1067784,14.2192029 C18.8613261,14.2192029 18.6623477,14.0202246 18.6623477,13.7747723 L18.6623477,13.5170026 C18.6606001,13.3964856 18.7088722,13.2806327 18.7956769,13.1970125 L20.3778499,11.6148396 C19.2220997,10.4400202 17.6437791,9.77731764 15.9957641,9.77489688 C12.6155607,9.78252534 9.85975705,12.487441 9.78913564,15.8669152 C9.71851422,19.2463893 12.3589113,22.0640702 15.7358451,22.2129037 C19.1127789,22.3617371 21.9908269,19.7872737 22.2177926,16.4146901 C22.2319165,16.179709 22.4268184,15.9965013 22.6622232,15.9969253 L23.5510844,15.9969253 C23.672272,16.0005284 23.7871918,16.0516039 23.8710744,16.1391431 C23.952771,16.2284594 23.9945026,16.347234 23.9866264,16.4680218 C23.7658655,20.2341329 20.9439722,23.3341503 17.2151291,23.9069136 C13.4862861,24.4796769 9.86408787,22.3694945 8.52319699,18.8432586 C7.18230611,15.3170226 8.48721088,11.3332539 11.6544844,9.28369135 C14.8217579,7.23412878 18.9904545,7.67589569 21.65781,10.3437681 L22.9822132,9.01936486 C23.0636979,8.93479764 23.17588,8.88671958 23.2933146,8.88603567 L23.5510844,8.88603567 C23.7965366,8.88603567 23.995515,9.08501403 23.995515,9.33046628 L23.995515,13.7747723 C23.995515,14.0202246 23.7965366,14.2192029 23.5510844,14.2192029 L23.5510844,14.2192029 Z"
                fill="currentColor" fill-rule="nonzero"></path>
        </g>
    </g>
</svg>