<svg xmlns="http://www.w3.org/2000/svg" viewBox="0 0 24 24">
  <path fillRule="evenodd"
    d="M20.0599005,3 L20.0024161,3.00652284 L20.046244,3.00882576 C21.1373018,3.11934973 22,4.11905476 22,5.32173281 L18.3928521,5.32104368 L18.3934169,18.6779259 C18.3946702,19.2941903 18.1691155,19.8856048 17.7666373,20.3213705 C17.3641591,20.7571363 16.8179219,21.0013457 16.2487331,21 L5.82497372,21 L5.82459719,20.9845553 L3.68028993,20.9853804 C3.21589608,20.9853804 2.79229357,20.7781443 2.49169268,20.4526818 C2.17700086,20.1111763 2,19.6485254 2,19.1661197 L5.82459719,19.1657703 L5.82497372,4.75981738 C5.85258633,4.28657179 6.0163793,3.85749126 6.30317388,3.54697693 C6.62432386,3.19548727 7.0624233,2.99840953 7.51906996,3 L20.0599005,3 Z M16.5,8 L11.4718767,8 L11.4718767,8.8685446 L12.2360736,8.8685446 L12.2360736,11.3896714 L11.4718767,11.3896714 L11.4718767,12.258216 L12.2360736,12.258216 L12.2263386,13.5399061 L12.2259412,13.7273163 C12.225279,13.8608157 12.2237889,13.9376258 12.2214711,13.9577465 C12.2020011,14.0923318 12.1484586,14.2363067 12.0608437,14.3896714 C11.9364521,14.6113719 11.7433297,14.8069901 11.4814765,14.9765258 L11.3161168,15.0751174 L11.3161168,15.9765258 C11.7963764,15.8607199 12.2036236,15.6181534 12.5378583,15.2488263 C12.8926447,14.8565467 13.0897482,14.3740026 13.1291689,13.801194 L13.1365603,13.5821596 L13.1365603,12.258216 L15.0786912,12.258216 L15.0786912,16 L15.9791779,16 L15.9791779,12.258216 L16.5,12.258216 L16.5,11.3896714 L15.9791779,11.3896714 L15.9791779,8.8685446 L16.5,8.8685446 L16.5,8 Z M10.9169822,8.17840376 L7.51460249,8.17840376 L7.51460249,9.04694836 L8.32260681,9.04694836 C8.28691184,9.55086072 8.24310438,9.92488263 8.19118442,10.1690141 C8.09464575,10.6345853 7.9061824,11.0282668 7.62579435,11.3500587 L7.5,11.4835681 L7.5,12.6431925 L7.72755544,12.5105634 L7.72755544,12.5105634 L7.94294213,12.3755869 L7.94294213,15.1784038 C7.94294213,15.4068858 8.02406706,15.599374 8.18631693,15.7558685 C8.31611682,15.8810642 8.4635695,15.9561815 8.62867496,15.9812207 L8.75581395,15.9906103 L10.0943753,15.9906103 C10.3507301,15.9906103 10.5648999,15.8920188 10.7368848,15.6948357 C10.8355327,15.5796557 10.8947215,15.4474491 10.9144511,15.298216 L10.9218496,15.1830986 L10.9169822,11.3098592 C10.9169822,11.056338 10.8374797,10.8513302 10.6784749,10.6948357 C10.5616549,10.5796557 10.4199135,10.5105477 10.2532504,10.4875117 L10.1235803,10.4788732 L9.04786371,10.4788732 C9.11016766,10.1558685 9.16727961,9.7857903 9.21919957,9.3686385 L9.25716604,9.04694836 L10.9169822,9.04694836 L10.9169822,8.17840376 Z M9.71957815,11.3239437 C9.89202658,11.3239437 9.99056854,11.4009773 10.015204,11.5550446 L10.0213629,11.6384977 L10.0213629,14.8215962 C10.0213629,14.8873239 10.0035154,14.9499218 9.96782044,15.0093897 C9.91914548,15.084507 9.84937804,15.1220657 9.75851812,15.1220657 L9.09653867,15.1220657 C8.9519045,15.1220657 8.86925641,15.0542301 8.84859439,14.918559 L8.84342888,14.8450704 L8.84342888,11.6807512 C8.84342888,11.4726135 8.91672019,11.355536 9.0633028,11.3295188 L9.13061114,11.3239437 L9.71957815,11.3239437 Z M15.0786912,8.8685446 L15.0786912,11.3896714 L13.1365603,11.3896714 L13.1365603,8.8685446 L15.0786912,8.8685446 Z" />
</svg>