<svg xmlns="http://www.w3.org/2000/svg" viewBox="0 0 16 16">
  <path
    d="M14.7371969,4.76272585 L11.2372741,1.26280307 C11.0814442,1.08977612 10.857552,0.993822298 10.6247877,1.00030886 L10.0086955,1.00030886 L10.0086955,4.13043059 C10.0086955,4.61366908 9.61695333,5.00541128 9.13371484,5.00541128 L4.87509603,5.00541128 C4.39185753,5.00541128 4.00011533,4.61366908 4.00011533,4.13043059 L4.00011533,1.00030886 L2.74996139,1.00030886 C1.7834844,1.00030886 1,1.78379326 1,2.75027025 L1,13.2500386 C1,14.2165156 1.7834844,15 2.74996139,15 L13.2497297,15 C14.2162067,15 14.9996911,14.2165156 14.9996911,13.2500386 L14.9996911,5.37521234 C15.0061777,5.14244804 14.9102239,4.91855579 14.7371969,4.76272585 Z M11.1132847,9 C11.6103409,9 12.0132847,9.33578644 12.0132847,9.75 L12.0132847,13.259868 C12.0132847,13.6740816 11.6103409,14.009868 11.1132847,14.009868 L4.9,14.009868 C4.40294373,14.009868 4,13.6740816 4,13.259868 L4,9.75 C4,9.33578644 4.40294373,9 4.9,9 L11.1132847,9 Z M8.25,1 C8.62969577,1 8.94349096,1.28215388 8.99315338,1.64822944 L9,1.75 L9,3.25 C9,3.66421356 8.66421356,4 8.25,4 C7.87030423,4 7.55650904,3.71784612 7.50684662,3.35177056 L7.5,3.25 L7.5,1.75 C7.5,1.33578644 7.83578644,1 8.25,1 Z">
  </path>
</svg>