<svg xmlns="http://www.w3.org/2000/svg" width="24px" height="24px">
  <path
    d="M15.6488485,14.5072148 L18.7726832,17.661883 C19.0795184,17.9717467 19.075178,18.4698271 18.7629887,18.7743766 C18.4507993,19.0789261 17.9489808,19.074618 17.6421456,18.7647542 L14.5212124,15.6130163 C13.5259743,16.3583071 12.2871766,16.8002182 10.9443904,16.8002182 C7.66139425,16.8002182 5,14.1586494 5,10.9001091 C5,7.64156883 7.66139425,5 10.9443904,5 C14.2273866,5 16.8887809,7.64156883 16.8887809,10.9001091 C16.8887809,12.2586173 16.4262001,13.5098888 15.6488485,14.5072148 Z M10.9443904,15.2268558 C13.351921,15.2268558 15.3036101,13.2897053 15.3036101,10.9001091 C15.3036101,8.51051291 13.351921,6.57336243 10.9443904,6.57336243 C8.5368599,6.57336243 6.58517078,8.51051291 6.58517078,10.9001091 C6.58517078,13.2897053 8.5368599,15.2268558 10.9443904,15.2268558 Z" />

</svg>