<svg viewBox="0 0 16 16" xmlns="http://www.w3.org/2000/svg">
  <path
    d="M9.80957 6.30078C9.80955 6.87259 9.77569 7.40039 9.7207 7.90625C10.3477 9.80925 11.4809 11.3167 13.1309 12.4277L12.4385 13.2305C11.1186 12.2185 10.1061 10.9866 9.41309 9.5127C9.3691 9.67759 9.31375 9.84292 9.25879 10.0078C8.80774 11.3164 7.74106 12.3941 6.05859 13.252L5.37598 12.416C6.82796 11.69 7.79582 10.7992 8.25781 9.74316C8.59876 8.85226 8.77485 7.70855 8.79688 6.30078H9.80957Z"
    fill="currentColor" />
  <path
    d="M5.76074 8.56641C5.17778 10.0953 4.52867 11.536 3.80273 12.8779L2.83496 12.4385C3.60487 11.0636 4.27595 9.65567 4.83691 8.21484L5.76074 8.56641Z"
    fill="currentColor" />
  <path
    d="M8.43457 3.16504C8.34657 3.69304 8.25844 4.17765 8.14844 4.63965H12.7236V5.32129C12.4927 6.24516 12.1962 7.16916 11.8223 8.08203L10.7988 7.7959C11.1178 7.17999 11.3826 6.45446 11.6025 5.64062H7.87305C7.53206 6.6745 7.09169 7.48854 6.55273 8.10449L5.68457 7.48828C6.56445 6.4103 7.13569 4.91384 7.38867 3L8.43457 3.16504Z"
    fill="currentColor" />
  <path
    d="M3.79199 3.47363C4.61684 4.33148 5.25508 5.09008 5.70605 5.75L4.88086 6.32227C4.39687 5.61831 3.75924 4.8479 2.94531 4.00098L3.79199 3.47363Z"
    fill="currentColor" />
  <path fill-rule="evenodd" clip-rule="evenodd"
    d="M14 0C15.1046 0 16 0.895431 16 2V14C16 15.1046 15.1046 16 14 16H2C0.895431 16 0 15.1046 0 14V2C0 0.895431 0.895431 0 2 0H14ZM2 0.799805C1.33726 0.799805 0.799805 1.33726 0.799805 2V14C0.799805 14.6627 1.33726 15.2002 2 15.2002H14C14.6627 15.2002 15.2002 14.6627 15.2002 14V2C15.2002 1.33726 14.6627 0.799805 14 0.799805H2Z"
    fill="currentColor" />
</svg>