<svg viewBox="0 0 27 16" xmlns="http://www.w3.org/2000/svg">
  <path
    d="M0 2C0 0.895431 0.895431 0 2 0H25C26.1046 0 27 0.895431 27 2V14C27 15.1046 26.1046 16 25 16H2C0.895431 16 0 15.1046 0 14V2Z"
    fill="currentColor" fill-opacity="0.2" />
  <path
    d="M17.2773 3.33008C17.0244 4.13302 16.7055 4.89221 16.3096 5.61816V13.1426H15.2539V7.24609C14.9349 7.66409 14.5935 8.06031 14.2305 8.44531L13.8896 7.33398C14.9675 6.05811 15.7711 4.57366 16.2881 2.87988L17.2773 3.33008Z"
    fill="currentColor" />
  <path fill-rule="evenodd" clip-rule="evenodd"
    d="M23.0635 7.07031H20.9082V8.03809H23.9873V9.05078H21.8428C22.4147 10.0405 23.1956 10.9094 24.1963 11.6572L23.5146 12.5703C22.5028 11.6244 21.667 10.4585 20.9961 9.05078H20.9082V13.1201H19.874V9.05078H19.7744C19.0815 10.5574 18.2239 11.7342 17.2012 12.5811L16.6064 11.6357C17.5523 10.9758 18.3225 10.1176 18.9385 9.05078H16.9033V8.03809H19.874V7.07031H17.7402V3.41895H23.0635V7.07031ZM18.7734 6.06934H22.0293V4.41992H18.7734V6.06934Z"
    fill="currentColor" />
  <path
    d="M5.63965 4.88184H6.9375V5.89355H5.63965V7.91699C6.10162 7.719 6.54173 7.51028 6.9707 7.2793V8.31348C6.53072 8.52247 6.09063 8.72023 5.63965 8.90723V11.8008C5.63955 12.5706 5.27643 12.9551 4.56152 12.9551H3.5166L3.27441 11.9541C3.59341 11.9981 3.90222 12.0205 4.19922 12.0205C4.48492 12.0203 4.63867 11.855 4.63867 11.5361V9.30371C4.17681 9.45766 3.71504 9.61192 3.24219 9.75488L3 8.75391C3.56095 8.62191 4.11072 8.467 4.63867 8.29102V5.89355H3.19727V4.88184H4.63867V2.98926H5.63965V4.88184Z"
    fill="currentColor" />
  <path d="M13.1084 12.6914H6.44238V11.7129H13.1084V12.6914Z" fill="currentColor" />
  <path fill-rule="evenodd" clip-rule="evenodd"
    d="M12.416 10.5244H7.41113V3.66016H12.416V10.5244ZM8.41211 9.58984H11.4258V7.57617H8.41211V9.58984ZM8.41211 6.65234H11.4258V4.5957H8.41211V6.65234Z"
    fill="currentColor" />
</svg>