<svg xmlns="http://www.w3.org/2000/svg" viewBox="0 0 24 24">
  <path transform="translate(4 4)"
    d="M5.35031704,1.58601871 L5.35031704,4.44113163 C3.37598073,5.37447393 2.31380337,7.55297566 2.79439372,9.6832725 C3.27498407,11.8135693 5.16960744,13.3250232 7.35343649,13.3202924 C9.1523527,13.3134618 10.7876952,12.2748194 11.5586519,10.6494665 L11.5586519,10.6494665 L14.4137648,10.6494665 C13.4523741,14.0563321 10.1976752,16.2927423 6.67262576,15.9686569 C3.14757629,15.6445714 0.355212126,12.8522072 0.0311266825,9.32715778 C-0.292958761,5.8021083 1.94345148,2.54740947 5.35031704,1.58601871 L5.35031704,1.58601871 Z M8.74894303,0.00221893649 C12.5995669,0.34880537 15.6509782,3.40021668 15.9975646,7.25084051 C16.0134577,7.43742559 15.9510539,7.6222181 15.8252963,7.76096826 C15.6988974,7.89950675 15.5200645,7.97850337 15.3325289,7.97864057 L15.3325289,7.97864057 L8.68884945,7.97864057 C8.32008534,7.97864057 8.02114297,7.6796982 8.02114297,7.31093409 L8.02114297,7.31093409 L8.02114297,0.667254593 C8.02128017,0.479719015 8.10027679,0.300886172 8.23881528,0.174487209 C8.3779775,0.0494329894 8.56245668,-0.0128649538 8.74894303,0.00221893649 Z" />
</svg>