<?xml version="1.0" encoding="UTF-8"?>
<svg viewBox="0 0 24 24" version="1.1" xmlns="http://www.w3.org/2000/svg" xmlns:xlink="http://www.w3.org/1999/xlink">
    <g stroke="none" stroke-width="1" fill="none" fill-rule="evenodd">
        <rect x="0" y="0" width="24" height="24"></rect>
        <path
            d="M21.5849584,2.41322057 C21.9809369,2.80919899 22.1054584,3.40192142 21.9012431,3.92491179 L15.1920237,21.0341683 C14.9653945,21.6219099 14.412519,22.0004553 13.7849306,22.0004553 L13.7674975,22.0004553 C13.1324378,21.992984 12.5795623,21.6019865 12.3604044,21.0042832 L10.6694022,16.3845349 C10.1489022,14.9649896 9.03567987,13.8517672 7.61613457,13.3312672 L2.99638626,11.640265 C2.39868297,11.4211072 2.0076854,10.8707221 2.0001055,10.2331719 C1.99274282,9.59811214 2.37128824,9.03776531 2.96401066,8.80366486 L20.0732672,2.09693591 C20.5962576,1.89272062 21.18898,2.01724214 21.5849584,2.41322057 Z M19.9811213,4.01954815 L4.19179283,10.210758 L8.21881871,11.6850928 C8.89003581,11.9304463 9.51007269,12.2744605 10.0622233,12.7003208 L13.2565378,9.50645245 C13.5982544,9.16473592 14.1522863,9.16473592 14.4940029,9.50645245 C14.8357194,9.84816899 14.8357194,10.402201 14.4940029,10.7439175 L11.3006255,13.937533 C11.7275661,14.4900008 12.0723095,15.1104059 12.3180671,15.7818507 L13.7924018,19.8088766 L19.9811213,4.01954815 Z"
            fill="currentColor" fill-rule="nonzero"></path>
    </g>
</svg>