<svg xmlns="http://www.w3.org/2000/svg" width='16' height='16'>
  <g stroke="none" strokeWidth="1" fill="none" fillRule="evenodd">
    <g id="Server">
      <polygon id="bound" points="0 0 16 0 16 16 0 16"></polygon>
      <path
        d="M3.33333333,1.33333333 L12.6666667,1.33333333 C13.4030463,1.33333333 14,1.930287 14,2.66666667 L14,4 C14,4.73637967 13.4030463,5.33333333 12.6666667,5.33333333 L3.33333333,5.33333333 C2.59695367,5.33333333 2,4.73637967 2,4 L2,2.66666667 C2,1.930287 2.59695367,1.33333333 3.33333333,1.33333333 Z M7.33333333,2.66666667 C6.9651435,2.66666667 6.66666667,2.9651435 6.66666667,3.33333333 C6.66666667,3.70152317 6.9651435,4 7.33333333,4 L10.6666667,4 C11.0348565,4 11.3333333,3.70152317 11.3333333,3.33333333 C11.3333333,2.9651435 11.0348565,2.66666667 10.6666667,2.66666667 L7.33333333,2.66666667 Z M4.66666667,4 C5.0348565,4 5.33333333,3.70152317 5.33333333,3.33333333 C5.33333333,2.9651435 5.0348565,2.66666667 4.66666667,2.66666667 C4.29847683,2.66666667 4,2.9651435 4,3.33333333 C4,3.70152317 4.29847683,4 4.66666667,4 Z"
        fill="#B8CAE6" fillRule="nonzero" opacity="0.3"></path>
      <path
        d="M3.33333333,6 L12.6666667,6 C13.4030463,6 14,6.59695367 14,7.33333333 L14,8.66666667 C14,9.40304633 13.4030463,10 12.6666667,10 L3.33333333,10 C2.59695367,10 2,9.40304633 2,8.66666667 L2,7.33333333 C2,6.59695367 2.59695367,6 3.33333333,6 Z M7.33333333,7.33333333 C6.9651435,7.33333333 6.66666667,7.63181017 6.66666667,8 C6.66666667,8.36818983 6.9651435,8.66666667 7.33333333,8.66666667 L10.6666667,8.66666667 C11.0348565,8.66666667 11.3333333,8.36818983 11.3333333,8 C11.3333333,7.63181017 11.0348565,7.33333333 10.6666667,7.33333333 L7.33333333,7.33333333 Z M4.66666667,8.66666667 C5.0348565,8.66666667 5.33333333,8.36818983 5.33333333,8 C5.33333333,7.63181017 5.0348565,7.33333333 4.66666667,7.33333333 C4.29847683,7.33333333 4,7.63181017 4,8 C4,8.36818983 4.29847683,8.66666667 4.66666667,8.66666667 Z"
        fill="#B8CAE6"></path>
      <path
        d="M3.33333333,10.6666667 L12.6666667,10.6666667 C13.4030463,10.6666667 14,11.2636203 14,12 L14,13.3333333 C14,14.069713 13.4030463,14.6666667 12.6666667,14.6666667 L3.33333333,14.6666667 C2.59695367,14.6666667 2,14.069713 2,13.3333333 L2,12 C2,11.2636203 2.59695367,10.6666667 3.33333333,10.6666667 Z M7.33333333,12 C6.9651435,12 6.66666667,12.2984768 6.66666667,12.6666667 C6.66666667,13.0348565 6.9651435,13.3333333 7.33333333,13.3333333 L10.6666667,13.3333333 C11.0348565,13.3333333 11.3333333,13.0348565 11.3333333,12.6666667 C11.3333333,12.2984768 11.0348565,12 10.6666667,12 L7.33333333,12 Z M4.66666667,13.3333333 C5.0348565,13.3333333 5.33333333,13.0348565 5.33333333,12.6666667 C5.33333333,12.2984768 5.0348565,12 4.66666667,12 C4.29847683,12 4,12.2984768 4,12.6666667 C4,13.0348565 4.29847683,13.3333333 4.66666667,13.3333333 Z"
        fill="#B8CAE6"></path>
    </g>
  </g>
</svg>