<svg xmlns="http://www.w3.org/2000/svg" viewBox="0 0 16 16">
  <path
    d="M15.2463158,6.65726316 L14.1397895,6.54105263 C13.9827368,5.87705263 13.7208421,5.25557895 13.3726316,4.69136842 L14.0732632,3.82568421 C14.3444211,3.49052632 14.3187368,3.00505263 14.0143158,2.70021053 L13.2997895,1.98610526 C12.9953684,1.68126316 12.5094737,1.656 12.1747368,1.92673684 L11.3090526,2.62778947 C10.7448421,2.27957895 10.1229474,2.01768421 9.45936842,1.86021053 L9.34273684,0.753684211 C9.29768421,0.325473684 8.93642105,0 8.50526316,0 L7.49515789,0 C7.06442105,0 6.70273684,0.325473684 6.65768421,0.753684211 L6.54105263,1.86021053 C5.87747368,2.01768421 5.25557895,2.27957895 4.69136842,2.62778947 L3.82568421,1.92673684 C3.49094737,1.656 3.00505263,1.68126316 2.70063158,1.98610526 L1.98610526,2.70021053 C1.68168421,3.00505263 1.656,3.49052632 1.92715789,3.82568421 L2.62778947,4.69136842 C2.27957895,5.25557895 2.01768421,5.87705263 1.86063158,6.54105263 L0.754105263,6.65726316 C0.325473684,6.70273684 0.000421052631,7.064 0.000421052631,7.49473684 L0.000421052631,8.50484211 C0.000421052631,8.936 0.325473684,9.29726316 0.754105263,9.34231579 L1.86063158,9.45894737 C2.01768421,10.1229474 2.27957895,10.7444211 2.62778947,11.3086316 L1.92715789,12.1743158 C1.656,12.5094737 1.68168421,12.9949474 1.98610526,13.2997895 L2.70063158,14.0138947 C3.00505263,14.3187368 3.49094737,14.344 3.82568421,14.0732632 L4.69136842,13.3722105 C5.25557895,13.7204211 5.87747368,13.9823158 6.54105263,14.1397895 L6.65768421,15.2458947 C6.70273684,15.6745263 7.06442105,16 7.49515789,16 L8.50526316,16 C8.93642105,16 9.29768421,15.6745263 9.34273684,15.2458947 L9.45936842,14.1397895 C10.1229474,13.9823158 10.7448421,13.7204211 11.3090526,13.3722105 L12.1747368,14.0732632 C12.5094737,14.3444211 12.9953684,14.3187368 13.2997895,14.0138947 L14.0143158,13.2997895 C14.3187368,12.9949474 14.3444211,12.5094737 14.0732632,12.1743158 L13.3726316,11.3086316 C13.7208421,10.7444211 13.9827368,10.1229474 14.1397895,9.45894737 L15.2463158,9.34231579 C15.6749474,9.29726316 16,8.936 16,8.50484211 L16,7.49473684 C16,7.064 15.6749474,6.70273684 15.2463158,6.65726316 Z M8,10.9473684 C6.37263158,10.9473684 5.05305263,9.62778947 5.05305263,8 C5.05305263,6.37221053 6.37263158,5.05263158 8,5.05263158 C9.62821053,5.05263158 10.9473684,6.37221053 10.9473684,8 C10.9473684,9.62778947 9.62821053,10.9473684 8,10.9473684 Z" />
</svg>