<svg xmlns="http://www.w3.org/2000/svg" viewBox="0 0 16 16">
  <path
    d="M8,1 C12.411,1 16,4.589 16,9 C16,11.479 14.873,13.778 12.908,15.31 C12.466,15.652 11.84,15.565 11.505,15.135 C11.166,14.699 11.244,14.072 11.68,13.732 C13.154,12.583 14,10.858 14,9 C14,5.691 11.309,3 8,3 C4.691,3 2,5.691 2,9 C2,10.858 2.846,12.583 4.32,13.731 C4.756,14.071 4.834,14.699 4.495,15.134 C4.155,15.57 3.527,15.646 3.092,15.309 C1.127,13.778 0,11.479 0,9 C0,4.589 3.589,1 8,1 Z M8,5 C10.206,5 12,6.794 12,9 C12,10.232 11.435,11.38 10.448,12.147 C10.014,12.487 9.385,12.409 9.045,11.973 C8.706,11.537 8.784,10.908 9.22,10.569 C9.716,10.184 10,9.611 10,9 C10,7.897 9.103,7 8,7 C6.897,7 6,7.897 6,9 C6,9.611 6.284,10.184 6.78,10.569 C7.216,10.908 7.294,11.537 6.955,11.972 C6.615,12.408 5.987,12.487 5.552,12.147 C4.565,11.38 4,10.232 4,9 C4,6.794 5.794,5 8,5 Z" />
</svg>