<svg xmlns="http://www.w3.org/2000/svg" viewBox="0 0 16 16">
  <path transform="translate(0 1)"
    d="M14.5245361,12 C15.0765361,12 15.5245361,12.448 15.5245361,13 L15.5245361,13 L15.5,13 C15.5,13.552 15.0765361,14 14.5245361,14 L14.5245361,14 L8.5,14 C7.948,14 7.5,13.552 7.5,13 C7.5,12.448 7.948,12 8.5,12 L8.5,12 Z M4.02428751,0 C4.43754102,0 4.77565753,0.336 4.77565753,0.75 L4.77565753,13.667 C4.56623823,13.881525 4.32436118,14.0012253 4.02428751,14 C3.7237395,14 3.43972163,13.8815 3.22783528,13.667 L0.719786117,11.0755 C0.426737961,10.7766683 0.426737961,10.2988317 0.719786117,10 C0.85989307,9.85790873 1.05127061,9.77789169 1.25100472,9.77789169 C1.45073883,9.77789169 1.64211638,9.85790873 1.78222333,10 L3.27291748,11.564 L3.27291748,0.75 C3.27291748,0.33525 3.60802851,0 4.02428751,0 Z M12.5,8 C13.052,8 13.5,8.448 13.5,9 C13.5,9.552 13.052,10 12.5,10 L12.5,10 L8.5,10 C7.948,10 7.5,9.552 7.5,9 C7.5,8.448 7.948,8 8.5,8 L8.5,8 Z M10.5098877,4 C11.0618877,4 11.5098877,4.448 11.5098877,5 L11.5098877,5 C11.5,5.552 11.0618877,6 10.5098877,6 L10.5098877,6 L8.5,6 C7.948,6 7.5,5.552 7.5,5 C7.5,4.448 7.948,4 8.5,4 L8.5,4 Z M9.5,0 C10.052,0 10.5,0.448 10.5,1 C10.5,1.552 10.052,2 9.5,2 L9.5,2 L8.5,2 C7.948,2 7.5,1.552 7.5,1 C7.5,0.448 7.948,0 8.5,0 L8.5,0 Z" />
</svg>