<svg viewBox="0 0 16 16" fill="none" xmlns="http://www.w3.org/2000/svg">
  <path
    d="M7.78369 2.46143C7.68769 2.94143 7.6043 3.41028 7.5083 3.84229H12.6802V4.646H7.32764C7.20765 5.17391 7.08824 5.66635 6.96826 6.13428H13.3882V6.97412H6.73975C6.57177 7.538 6.39209 8.0662 6.22412 8.55811H11.936V9.30225C11.36 10.1902 10.46 11.0901 9.22412 11.978C9.94406 12.242 10.6403 12.542 11.3003 12.854L10.8198 13.6099C9.02003 12.722 7.16021 12.0262 5.25244 11.5103L5.70752 10.8374C6.60752 11.0774 7.47229 11.3541 8.30029 11.6421C9.40415 10.9222 10.2796 10.1537 10.9155 9.36182H4.98779C5.27577 8.59388 5.55222 7.80205 5.8042 6.97412H2.61182V6.13428H6.04443C6.17641 5.64236 6.29555 5.1499 6.41553 4.646H3.42822V3.84229H6.59619C6.70417 3.35039 6.80002 2.87004 6.896 2.39014L7.78369 2.46143Z"
    fill="currentColor" />
  <path
    d="M14 15V16H2V15H14ZM15 14V2C15 1.44772 14.5523 1 14 1H2C1.44772 1 1 1.44772 1 2V14C1 14.5523 1.44772 15 2 15V16C0.895431 16 0 15.1046 0 14V2C0 0.895431 0.895431 0 2 0H14C15.1046 0 16 0.895431 16 2V14C16 15.1046 15.1046 16 14 16V15C14.5523 15 15 14.5523 15 14Z"
    fill="currentColor" fill-opacity="0.5" />
</svg>