<svg viewBox="0 0 17 16" fill="none" xmlns="http://www.w3.org/2000/svg">
  <path
    d="M14.5 15V16H2.5V15H14.5ZM15.5 14V2C15.5 1.44772 15.0523 1 14.5 1H2.5C1.94772 1 1.5 1.44772 1.5 2V14C1.5 14.5523 1.94772 15 2.5 15V16C1.39543 16 0.5 15.1046 0.5 14V2C0.5 0.895431 1.39543 0 2.5 0H14.5C15.6046 0 16.5 0.895431 16.5 2V14C16.5 15.1046 15.6046 16 14.5 16V15C15.0523 15 15.5 14.5523 15.5 14Z"
    fill="currentColor" fill-opacity="0.5" />
  <path
    d="M8.30225 2.92334C8.21425 3.36334 8.13732 3.79296 8.04932 4.18896H12.7896V4.92529H7.88428C7.77428 5.40927 7.66419 5.86057 7.5542 6.28955H13.439V7.05908H7.34521C7.19123 7.57602 7.02556 8.06028 6.87158 8.51123H12.1079V9.19385C11.5799 10.0078 10.7545 10.833 9.62158 11.647C10.2816 11.889 10.9199 12.1637 11.5249 12.4497L11.0845 13.1421C9.43465 12.3282 7.72976 11.6902 5.98096 11.2173L6.39893 10.6011C7.22389 10.8211 8.01593 11.0744 8.7749 11.3384C9.78688 10.6784 10.5903 9.97452 11.1733 9.24854H5.73877C6.00277 8.54454 6.25582 7.81808 6.48682 7.05908H3.56104V6.28955H6.70654C6.82754 5.83855 6.93834 5.38729 7.04834 4.92529H4.30908V4.18896H7.21338C7.31235 3.73809 7.39982 3.29778 7.48779 2.85791L8.30225 2.92334Z"
    fill="currentColor" />
</svg>