<svg viewBox="0 0 16 16" xmlns="http://www.w3.org/2000/svg">
  <path
    d="M7.91699 3.04395C7.83999 3.45095 7.76327 3.84768 7.69727 4.22168H12.2949V5.2002H7.48828C7.40028 5.58519 7.31163 5.95952 7.22363 6.31152H12.9443V7.3125H6.94922C6.81728 7.75228 6.69638 8.15911 6.56445 8.54395H11.6572V9.44629C11.1513 10.1942 10.3703 10.9422 9.31445 11.7012C9.90837 11.9211 10.4803 12.1526 11.0303 12.3945L10.458 13.2959C8.81909 12.526 7.13583 11.9107 5.41992 11.4707L5.96973 10.6562C6.73961 10.8542 7.47676 11.0637 8.18066 11.3057C9.11566 10.7117 9.85358 10.117 10.3926 9.50098H5.06836C5.33227 8.79718 5.57376 8.07126 5.80469 7.3125H3V6.31152H6.09082C6.17882 5.93752 6.27821 5.5742 6.36621 5.2002H3.74805V4.22168H6.58594C6.67394 3.80368 6.75087 3.37406 6.83887 2.95605L7.91699 3.04395Z"
    fill="currentColor" />
  <path fill-rule="evenodd" clip-rule="evenodd"
    d="M14 0C15.1046 0 16 0.895431 16 2V14C16 15.1046 15.1046 16 14 16H2C0.895431 16 0 15.1046 0 14V2C0 0.895431 0.895431 0 2 0H14ZM2 1.2002C1.55817 1.2002 1.2002 1.55817 1.2002 2V14C1.2002 14.4418 1.55817 14.7998 2 14.7998H14C14.4418 14.7998 14.7998 14.4418 14.7998 14V2C14.7998 1.55817 14.4418 1.2002 14 1.2002H2Z"
    fill="currentColor" />
</svg>