<svg xmlns="http://www.w3.org/2000/svg" viewBox="0 0 24 24">
  <path
    d="M12.0204892,3 C12.6761423,3 13.2088605,3.36818182 13.4957088,3.94090909 L15.3807116,7.95 L19.6014788,8.60454545 C20.2161537,8.68636364 20.7078935,9.13636364 20.9127851,9.70909091 C21.1176768,10.3227273 20.9537635,10.9772727 20.5030019,11.4272727 L17.4296277,14.5363636 L17.4296277,14.5772727 L18.1672375,18.9954545 C18.2901725,19.65 18.0033242,20.2636364 17.4706061,20.6727273 C17.2247361,20.8772727 16.8969095,21 16.569083,21 C16.2822347,21 16.0363648,20.9181818 15.7904948,20.7954545 L12.0204892,18.7090909 L8.25048349,20.7954545 C7.7177653,21.0818182 7.06211214,21.0409091 6.52939395,20.7136364 C5.99667576,20.3454545 5.75080582,19.6909091 5.83276247,19.0363636 L6.57037227,14.6181818 L6.57037227,14.5772727 L3.49699808,11.4681818 C3.04623654,11.0181818 2.88232325,10.3636364 3.08721486,9.75 C3.29210647,9.13636364 3.78384634,8.72727273 4.39852118,8.64545455 L8.66026672,7.95 L10.5452696,3.94090909 C10.8321178,3.36818182 11.4058143,3 12.0204892,3 Z M12.0204892,4.63636364 L10.1354863,8.64545455 C9.88961639,9.13636364 9.43885484,9.50454545 8.90613665,9.58636364 L4.64439111,10.2 L4.64439111,10.2818182 L7.7177653,13.3909091 C8.0865702,13.7590909 8.25048349,14.3318182 8.16852685,14.8636364 L7.43091704,19.2818182 L7.43091704,19.3227273 L11.2009227,17.2363636 C11.6926626,16.95 12.2663591,16.95 12.758099,17.2363636 L16.5281046,19.3227273 L16.5281046,19.2818182 L15.7904948,14.8636364 C15.7085382,14.3318182 15.8724515,13.8 16.2412564,13.3909091 L19.3146306,10.2818182 L19.3146306,10.2 L15.0938633,9.54545455 C14.5611452,9.46363636 14.1103836,9.13636364 13.8645137,8.60454545 L12.0204892,4.63636364 Z M13.6596221,12.4250142 C14.1103836,12.4250142 14.4791885,12.7938191 14.4791885,13.2445806 C14.4791885,14.5968653 13.3727738,15.70328 12.0204892,15.70328 C10.6682045,15.70328 9.56178981,14.5968653 9.56178981,13.2445806 C9.56178981,12.7938191 9.93059471,12.4250142 10.3813563,12.4250142 C10.8321178,12.4250142 11.2009227,12.7938191 11.2009227,13.2445806 C11.2009227,13.6953422 11.5697276,14.0641471 12.0204892,14.0641471 C12.4712507,14.0641471 12.8400556,13.6953422 12.8400556,13.2445806 C12.8400556,12.7938191 13.2088605,12.4250142 13.6596221,12.4250142 Z" />
</svg>