<svg xmlns="http://www.w3.org/2000/svg" viewBox="0 0 16 16">
  <path
    d="M12.7899411,10.0361334 C12.6041425,10.2266851 12.5193701,10.5012239 12.5632493,10.7702878 L13.2599715,15.0438899 C13.3144719,15.3825292 13.2600609,15.6252342 12.9961594,15.8275071 C12.8468375,15.941729 12.6691926,15.999997 12.4915298,15.999997 C12.355082,15.999997 12.2181873,15.9656796 12.0924679,15.8961418 L8.36677026,13.7833291 C8.1371461,13.6563135 7.86282014,13.6563135 7.63319597,13.7833291 L4.06390092,15.8961607 C3.77468033,16.05644 3.42454013,16.0293474 3.15976248,15.8275259 C2.89586098,15.625253 2.68506521,15.3829995 2.74044179,15.0439087 L3.59394204,10.6815782 C3.63780344,10.4125143 3.55303096,10.1379754 3.36725031,9.9474238 L0.259760537,7.37554115 C0.0250403671,7.13579001 -0.0586413877,6.77683122 0.041776718,6.44995087 C0.143035217,6.12305171 0.41124597,5.88510676 0.73477966,5.8354369 L4.77676934,5.08905321 C5.03342915,5.04976887 5.25529309,4.88017641 5.37012305,4.63549592 L7.23100501,0.503434111 C7.37519511,0.195067078 7.67342759,-3.55271368e-15 8.00039438,-3.55271368e-15 C8.32736116,-3.55271368e-15 8.62473536,0.195048263 8.76978374,0.503434111 L10.5576766,4.63540185 C10.6724887,4.8801576 10.8943884,5.04982531 11.1511018,5.08909084 L15.2660091,5.8354369 C15.5887024,5.88465521 15.8577535,6.12305171 15.9581716,6.44995087 C16.0590189,6.77683122 15.9740497,7.1357712 15.7406348,7.37552233 L12.7899411,10.0361334 Z" />
  <path
    d="M7.98058936,2.00567806 C7.97473852,3.34221705 7.97029325,5.15900334 7.9873875,6.95342053 C8.01576584,9.93235106 7.98738714,12.8161346 7.98738714,13.6951927 L4.01509459,15.8960513 C3.72934746,16.0564995 3.38341235,16.0293783 3.1218146,15.8273443 C2.86108248,15.6248583 2.65281831,15.3823498 2.70752984,15.0429018 L3.55077979,10.6759775 C3.59411442,10.4066303 3.51036004,10.1318023 3.32681057,9.94105002 L0.256640884,7.36645899 C0.0247396392,7.12645538 -0.0579371208,6.76711857 0.0412749912,6.439894 C0.141317404,6.11265059 0.406307019,5.87445506 0.725955159,5.8247329 L4.71940166,5.07756322 C4.97297905,5.03823751 5.19217846,4.86846646 5.30562935,4.6235283 L7.14416263,0.48711514 C7.28662105,0.178423374 7.66434713,0 7.98738714,0 C7.99046337,0.227918548 7.98510731,0.97361876 7.98058936,2.00567806 Z" />
</svg>