<?xml version="1.0" encoding="UTF-8"?>
<svg viewBox="0 0 16 16" version="1.1" xmlns="http://www.w3.org/2000/svg" xmlns:xlink="http://www.w3.org/1999/xlink">
    <g stroke="none" stroke-width="1" fill="none" fill-rule="evenodd">
        <g>
            <rect x="0" y="0" width="16" height="16"></rect>
            <path
                d="M12.4,1 C13.2836556,1 14,1.69644595 14,2.55555556 L14,13.4444444 C14,14.3035541 13.2836556,15 12.4,15 L3.6,15 C2.7163444,15 2,14.3035541 2,13.4444444 L2,2.55555556 C2,1.69644595 2.7163444,1 3.6,1 Z M12.2262936,2 L3.7688578,2 C3.35995342,2.03476155 3.03575474,2.34995471 3,2.74750064 L3,13.2125095 C3,13.6253427 3.34422936,13.9600102 3.7688578,13.9600102 L12.2262936,13.9600102 C12.4368952,13.984364 12.6473534,13.9134768 12.7973209,13.767675 C12.9472885,13.6218733 13.020201,13.4172611 12.9951514,13.2125095 L12.9951514,2.74750064 C12.9951514,2.33466743 12.650922,2 12.2262936,2 Z M11.2333334,8.82444445 C11.4481108,8.82444445 11.6222223,8.99855593 11.6222223,9.21333334 L11.6222223,10.6911111 C11.6222223,10.7942509 11.5812502,10.8931663 11.5083194,10.9660971 C11.4353886,11.0390279 11.3364731,11.08 11.2333334,11.08 C11.018556,11.08 10.8444445,10.9058885 10.8444445,10.6911111 L10.8444445,9.21333334 C10.8444445,8.99855593 11.018556,8.82444445 11.2333334,8.82444445 Z M9.05555562,6.56888888 C9.15869537,6.56888888 9.25761078,6.60986098 9.3305416,6.6827918 C9.40347242,6.75572262 9.44444452,6.85463803 9.44444452,6.95777778 L9.44444452,10.6911111 C9.41308426,10.8914697 9.25591421,11.0486398 9.05555562,11.08 C8.84077822,11.08 8.66666674,10.9058885 8.66666674,10.6911111 L8.66666674,6.95777778 C8.66666674,6.85463803 8.70763884,6.75572262 8.78056965,6.6827918 C8.85350046,6.60986099 8.95241587,6.56888888 9.05555562,6.56888888 Z M6.80000007,7.65777777 C7.01477747,7.65777777 7.18888896,7.83188926 7.18888896,8.04666666 L7.18888896,10.6911111 C7.18888896,10.9058885 7.01477747,11.08 6.80000007,11.08 C6.69686033,11.08 6.59794491,11.0390279 6.5250141,10.9660971 C6.45208328,10.8931663 6.41111118,10.7942509 6.41111118,10.6911111 L6.41111118,8.04666666 C6.41111118,7.83188926 6.58522266,7.65777777 6.80000007,7.65777777 Z M4.62222229,5.32444444 C4.72536204,5.32444444 4.82427745,5.36541655 4.89720827,5.43834736 C4.97013908,5.51127818 5.01111118,5.61019359 5.01111118,5.71333334 L5.01111118,10.6911111 C4.97975092,10.8914697 4.82258088,11.0486397 4.62222229,11.08 C4.51908255,11.08 4.42016714,11.0390279 4.34723632,10.9660971 C4.2743055,10.8931663 4.2333334,10.7942509 4.2333334,10.6911111 L4.2333334,5.71333334 C4.2333334,5.61019359 4.2743055,5.51127817 4.34723632,5.43834736 C4.42016713,5.36541654 4.51908255,5.32444444 4.62222229,5.32444444 Z"
                fill="currentColor" fill-rule="nonzero"></path>
        </g>
    </g>
</svg>