<svg xmlns="http://www.w3.org/2000/svg" viewBox="0 0 16 16">
  <path
    d="M8,0 C12.418278,0 16,3.581722 16,8 C16,12.418278 12.418278,16 8,16 C3.581722,16 0,12.418278 0,8 C0,3.581722 3.581722,0 8,0 Z M6.38714286,9.66666667 C5.914,9.66666667 5.53,10.04 5.53,10.5 L5.53,10.5 L5.53,12.1666667 C5.53,12.6266667 5.914,13 6.38714286,13 C6.86028571,13 7.24428571,12.6266667 7.24428571,12.1666667 L7.24428571,12.1666667 L7.24428571,10.5 C7.24428571,10.04 6.86028571,9.66666667 6.38714286,9.66666667 Z M3.15714286,7.16666667 C2.684,7.16666667 2.3,7.49333333 2.3,7.89583333 L2.3,7.89583333 L2.3,12.2708333 C2.3,12.6733333 2.684,13 3.15714286,13 C3.63028571,13 4.01428571,12.6733333 4.01428571,12.2708333 L4.01428571,12.2708333 L4.01428571,7.89583333 C4.01428571,7.49333333 3.63028571,7.16666667 3.15714286,7.16666667 Z M9.61714286,5.5 C9.144,5.5 8.76,5.78 8.76,6.125 L8.76,6.125 L8.76,12.375 C8.76,12.72 9.144,13 9.61714286,13 C10.0902857,13 10.4742857,12.72 10.4742857,12.375 L10.4742857,12.375 L10.4742857,6.125 C10.4742857,5.78 10.0902857,5.5 9.61714286,5.5 Z M12.8571429,3 C12.384,3 12,3.37333333 12,3.83333333 L12,3.83333333 L12,12.1666667 C12,12.6266667 12.384,13 12.8571429,13 C13.3302857,13 13.7142857,12.6266667 13.7142857,12.1666667 L13.7142857,12.1666667 L13.7142857,3.83333333 C13.7142857,3.37333333 13.3302857,3 12.8571429,3 Z" />
</svg>