<svg viewBox="0 0 32 16" fill="none" xmlns="http://www.w3.org/2000/svg">
  <path
    d="M7.7998 3.11035C7.7118 3.42935 7.61267 3.74864 7.51367 4.05664H13.0029V5.0791H7.10645C6.69946 6.00307 6.20432 6.87209 5.61035 7.66406V13.2197H4.58789V8.88574C4.30193 9.1937 4.00425 9.47894 3.69629 9.75391L3.04785 8.91797C4.30168 7.80704 5.2807 6.53097 5.97363 5.0791H3.49902V4.05664H6.40234C6.53434 3.69365 6.64417 3.34125 6.74316 2.98926L7.7998 3.11035Z"
    fill="currentColor" />
  <path
    d="M12.4414 7.18066C11.8585 7.73056 11.2093 8.25801 10.4834 8.75293V9.22656H13.1455V10.2383H10.4834V12.0312C10.4834 12.7903 10.1093 13.1758 9.36133 13.1758H7.99805L7.72266 12.1855C8.09657 12.2075 8.50348 12.2187 8.94336 12.2188C9.27336 12.2188 9.44922 12.0422 9.44922 11.7012V10.2383H6.34766V9.22656H9.44922V8.33496C10.0322 8.00496 10.5938 7.62066 11.1328 7.18066H7.18359V6.22363H12.4414V7.18066Z"
    fill="currentColor" />
  <path fill-rule="evenodd" clip-rule="evenodd"
    d="M23.0674 10.5352H19.6465V11.0195H23.2871V11.6904H19.6465V12.207H24.0908V12.999H14.1904V12.207H18.6123V11.6904H15.0156V11.0195H18.6123V10.5352H15.2354V7.67578H23.0674V10.5352ZM16.2256 9.91895H18.6123V9.3916H16.2256V9.91895ZM19.6465 9.91895H22.0771V9.3916H19.6465V9.91895ZM16.2256 8.81934H18.6123V8.29102H16.2256V8.81934ZM19.6465 8.81934H22.0771V8.29102H19.6465V8.81934Z"
    fill="currentColor" />
  <path
    d="M26.4668 10.502C26.6977 10.502 26.8959 10.5687 27.0498 10.7227C27.2036 10.8656 27.2802 11.0524 27.2803 11.2832C27.2803 11.5142 27.2038 11.7015 27.0498 11.8555C26.8849 11.9984 26.6867 12.0751 26.4668 12.0752C26.2468 12.0752 26.0593 11.9987 25.9053 11.8447C25.7403 11.6907 25.6631 11.5032 25.6631 11.2832C25.6631 11.0524 25.7405 10.8656 25.9053 10.7227C26.0593 10.5687 26.2468 10.502 26.4668 10.502Z"
    fill="currentColor" />
  <path d="M26.9062 9.85352H26.0371L25.7842 4.22168H27.1592L26.9062 9.85352Z" fill="currentColor" />
  <path d="M24.0908 7.22461H14.1904V6.47656H24.0908V7.22461Z" fill="currentColor" />
  <path fill-rule="evenodd" clip-rule="evenodd"
    d="M22.8369 6.01465H15.4775V3.2207H22.8369V6.01465ZM16.4785 5.41992H21.8359V4.91406H16.4785V5.41992ZM16.4785 4.32031H21.8359V3.8252H16.4785V4.32031Z"
    fill="currentColor" />
  <path fill-rule="evenodd" clip-rule="evenodd"
    d="M30 0C31.1046 0 32 0.895431 32 2V14C32 15.1046 31.1046 16 30 16H2L1.7959 15.9893C0.787223 15.887 0 15.0357 0 14V2C0 0.964349 0.787223 0.113005 1.7959 0.0107422L2 0H30ZM2 0.799805C1.33726 0.799805 0.799805 1.33726 0.799805 2V14C0.799805 14.6627 1.33726 15.2002 2 15.2002H30C30.6627 15.2002 31.2002 14.6627 31.2002 14V2C31.2002 1.33726 30.6627 0.799805 30 0.799805H2Z"
    fill="currentColor" />
</svg>