<svg viewBox="0 0 31 17" fill="none" xmlns="http://www.w3.org/2000/svg">
  <path
    d="M7.16797 3.47705C7.058 3.83995 6.94713 4.19156 6.82617 4.54346H12.459V5.31396H6.5293C6.12235 6.2598 5.61635 7.12853 5.02246 7.92041V13.52H4.25293V8.8667C3.87893 9.2737 3.4932 9.65871 3.0752 10.0327L2.58105 9.40576C3.92283 8.22889 4.94522 6.86474 5.66016 5.31396H2.9873V4.54346H5.97949C6.12245 4.15856 6.25429 3.77333 6.36426 3.37744L7.16797 3.47705Z"
    fill="currentColor" />
  <path
    d="M11.876 7.39307C11.282 7.94307 10.6103 8.47131 9.8623 8.96631V9.65869H12.6123V10.4175H9.8623V12.4966C9.8623 13.1455 9.53265 13.476 8.88379 13.4761H7.50879L7.2998 12.728C7.6957 12.739 8.11359 12.7495 8.56445 12.7495C8.89445 12.7495 9.07031 12.5737 9.07031 12.2437V10.4175H5.88086V9.65869H9.07031V8.63623C9.69721 8.28429 10.2914 7.87696 10.8633 7.39307H6.72754V6.65576H11.876V7.39307Z"
    fill="currentColor" />
  <path fill-rule="evenodd" clip-rule="evenodd"
    d="M22.4795 10.8354H19.0254V11.4517H22.7549V11.98H19.0254V12.6284H23.5576V13.2446H13.7236V12.6284H18.2334V11.98H14.5488V11.4517H18.2334V10.8354H14.8232V8.03076H22.4795V10.8354ZM15.583 10.3413H18.2334V9.66943H15.583V10.3413ZM19.0254 10.3413H21.7207V9.66943H19.0254V10.3413ZM15.583 9.20752H18.2334V8.52588H15.583V9.20752ZM19.0254 9.20752H21.7207V8.52588H19.0254V9.20752Z"
    fill="currentColor" />
  <path
    d="M25.9668 11.1001C26.1645 11.1001 26.3183 11.1549 26.4502 11.2866C26.5711 11.4076 26.6376 11.5617 26.6377 11.7485C26.6377 11.9465 26.5712 12.1012 26.4502 12.2222C26.3183 12.3429 26.1535 12.4086 25.9668 12.4087C25.78 12.4087 25.6258 12.343 25.5049 12.2222C25.3729 12.0902 25.3066 11.9355 25.3066 11.7485C25.3067 11.5617 25.373 11.4076 25.5049 11.2866C25.6258 11.1548 25.7799 11.1001 25.9668 11.1001Z"
    fill="currentColor" />
  <path d="M26.3184 10.2964H25.6367L25.4609 4.55518H26.4834L26.3184 10.2964Z" fill="currentColor" />
  <path d="M23.5684 7.48096H13.7129V6.88721H23.5684V7.48096Z" fill="currentColor" />
  <path fill-rule="evenodd" clip-rule="evenodd"
    d="M22.249 6.31494H15.0654V3.59814H22.249V6.31494ZM15.8359 5.84229H21.4785V5.19287H15.8359V5.84229ZM15.8359 4.72021H21.4785V4.08154H15.8359V4.72021Z"
    fill="currentColor" />
  <path
    d="M28.5 15.3335V16.3335H2.5V15.3335H28.5ZM29.5 14.3335V2.3335C29.5 1.78121 29.0523 1.3335 28.5 1.3335H2.5C1.94772 1.3335 1.5 1.78121 1.5 2.3335V14.3335C1.5 14.8858 1.94772 15.3335 2.5 15.3335V16.3335L2.2959 16.3228C1.28722 16.2205 0.5 15.3691 0.5 14.3335V2.3335C0.5 1.22893 1.39543 0.333496 2.5 0.333496H28.5C29.6046 0.333496 30.5 1.22893 30.5 2.3335V14.3335C30.5 15.3691 29.7128 16.2205 28.7041 16.3228L28.5 16.3335V15.3335C29.0523 15.3335 29.5 14.8858 29.5 14.3335Z"
    fill="currentColor" fill-opacity="0.5" />
</svg>