<svg xmlns="http://www.w3.org/2000/svg" viewBox="0 0 17.5 17.5">
  <path transform="translate(-3 -3)"
    d="M15.7733771,4.75046118 C15.7005925,4.74783588 15.6304073,4.75571245 15.5654212,4.79246861 C15.4328491,4.86335633 15.3574653,4.99725519 15.3574653,5.1495318 L15.3574653,6.913844 C15.3574653,6.913844 3.98227657,7.18689232 3.83670743,7.2919109 C3.62355294,7.44418819 3.48318237,7.55183207 3.48318237,7.96402984 C3.48318237,8.37622761 3.62355294,8.50487588 3.83670743,8.65715249 C3.98227657,8.76217107 15.3574653,8.95120453 15.3574653,8.95120453 L15.3574653,10.7575242 C15.3574653,10.9098014 15.4328491,11.0436996 15.5654212,11.1145873 C15.6979933,11.1854751 15.8565595,11.1775985 15.981333,11.0935836 C17.5903921,9.99613977 20.4575845,8.28958745 20.514772,8.21607444 C20.5745595,8.14256143 20.61875,8.05592127 20.61875,7.96402984 C20.61875,7.87213841 20.5745595,7.78812354 20.514772,7.71198524 C20.4575845,7.63847223 17.5903921,5.91091687 15.981333,4.81347233 C15.9189463,4.7714649 15.8461617,4.75308648 15.7733771,4.75046118 Z M8.24537289,12.8368921 C8.17258832,12.8395174 8.09980374,12.8578958 8.03741697,12.8999033 C6.42835789,13.9973478 3.56116617,15.7038995 3.50397796,15.7774125 C3.44419047,15.8509255 3.4,15.9375656 3.4,16.0294571 C3.4,16.1213485 3.44419047,16.2053634 3.50397796,16.2815017 C3.56116617,16.3550147 6.42835789,18.0825707 8.03741697,19.1800146 C8.16219052,19.2666547 8.32075674,19.271906 8.4533288,19.2010183 C8.58590087,19.1301306 8.66128472,18.9962324 8.66128472,18.8439551 L8.66128472,17.0796429 C8.66128472,17.0796429 20.0364734,16.8065946 20.1820426,16.701576 C20.3951977,16.5492994 20.5355676,16.4416548 20.5355676,16.0294571 C20.5355676,15.6172593 20.3951977,15.4886117 20.1820426,15.3363344 C20.0364734,15.2313158 8.66128472,15.0422824 8.66128472,15.0422824 L8.66128472,13.2359627 C8.66128472,13.0836861 8.58590087,12.9497873 8.4533288,12.8788996 C8.38834275,12.8421434 8.31815746,12.8342668 8.24537289,12.8368921 Z" />
</svg>