<?xml version="1.0" encoding="UTF-8"?>
<svg viewBox="0 0 16 16" version="1.1" xmlns="http://www.w3.org/2000/svg" xmlns:xlink="http://www.w3.org/1999/xlink">
    <g stroke="none" stroke-width="1" fill="none" fill-rule="evenodd">
        <g>
            <rect x="0" y="0" width="16" height="16"></rect>
            <path
                d="M7.58194049,1 C7.72677503,1 7.86567752,1.0575353 7.96809101,1.15994878 L14.4608079,7.65266567 C14.8060349,7.99767151 15,8.46573261 15,8.95380097 C15,9.44186933 14.8060349,9.90993044 14.4609316,10.2548126 L10.2549363,14.4608079 C9.90993044,14.8060349 9.44186933,15 8.95380097,15 C8.46573261,15 7.99767151,14.8060349 7.65278939,14.4609316 L1.15994878,7.96809101 C1.0575353,7.86567752 1,7.72677503 1,7.58194049 L1,1.54609929 C1,1.24449698 1.24449698,1 1.54609929,1 L7.58194049,1 Z M7.35659574,2.09219858 L2.09219858,2.09219858 L2.09219858,7.35659574 L8.42521413,13.6887544 C8.53734116,13.8009533 8.6814626,13.873824 8.83614443,13.8984844 L8.95380097,13.9078014 C9.15207898,13.9078014 9.34222903,13.829003 9.48251154,13.6886306 L13.6887544,9.48238782 C13.829003,9.34222903 13.9078014,9.15207898 13.9078014,8.95380097 C13.9078014,8.75552297 13.829003,8.56537292 13.6886306,8.42509041 L7.35659574,2.09219858 Z M5.42628292,3.58678909 C6.44220731,3.58678909 7.26577676,4.41035853 7.26577676,5.42628292 C7.26577676,6.44220731 6.44220731,7.26577676 5.42628292,7.26577676 C4.41035853,7.26577676 3.58678909,6.44220731 3.58678909,5.42628292 C3.58678909,4.41035853 4.41035853,3.58678909 5.42628292,3.58678909 Z M5.42628292,4.67898767 C5.01356315,4.67898767 4.67898767,5.01356315 4.67898767,5.42628292 C4.67898767,5.83900269 5.01356315,6.17357817 5.42628292,6.17357817 C5.83900269,6.17357817 6.17357817,5.83900269 6.17357817,5.42628292 C6.17357817,5.01356315 5.83900269,4.67898767 5.42628292,4.67898767 Z"
                fill="currentColor" fill-rule="nonzero"></path>
        </g>
    </g>
</svg>