<svg xmlns="http://www.w3.org/2000/svg" viewBox="0 0 24 24">
  <path transform="translate(3.5 3.5)"
    d="M1.30506011,0 C2.98380244,0 4.35020037,1.19657143 4.35020037,2.66666667 L4.35020037,4.79466667 L6.61621975,6.77904762 C6.95292526,7.07390476 7.07821103,7.48990476 6.9516202,7.89219048 C6.82415933,8.29409524 6.47222812,8.59428571 6.01067186,8.69561905 L4.35020037,9.05904762 L4.35020037,10.6666667 C4.35020037,10.8217143 4.24275042,10.9615238 4.07831285,11.0198095 L2.91593931,11.432 C2.66884793,11.5192381 2.64535685,11.7188571 2.64405179,11.7775238 C2.64274673,11.8361905 2.65753741,12.0365714 2.89940855,12.1321905 L4.09440859,12.6053333 C4.25058079,12.6670476 4.35020037,12.8026667 4.35020037,12.952381 L4.35020037,14.4754286 C4.35020037,14.9478095 4.10615413,15.3859048 3.68113956,15.6761905 C3.37053525,15.8887619 2.99685304,16 2.6140354,16 C2.47221887,16 2.3295323,15.9851429 2.18815079,15.9542857 L0.329745188,15.5470476 C0.135726252,15.504381 0,15.352381 0,15.1775238 L0,0.380952381 C0,0.170285714 0.194453957,0 0.435020037,0 L1.30506011,0 Z M16.2812726,3 C17.2289789,3 18,3.77642308 18,4.73076923 L18,10.2692308 C18,11.2235769 17.2289789,12 16.2812726,12 L7.34388994,12 C7.2136104,12 7.09467446,11.9259231 7.03623773,11.8085769 C6.97814474,11.6912308 6.99051958,11.5510385 7.06889355,11.4461538 L9.06261737,9.36999299 L9.06261737,4.73076923 C9.06261737,3.77642308 9.83363849,3 10.7813448,3 L16.2812726,3 Z M14.0000985,8 L11.0000985,8 C10.7235985,8 10.5000985,8.2235 10.5000985,8.5 C10.5000985,8.74577778 10.6766911,8.94967901 10.9101287,8.9919561 L11.0000985,9 L14.0000985,9 C14.2765985,9 14.5000985,8.7765 14.5000985,8.5 C14.5000985,8.2235 14.2765985,8 14.0000985,8 Z M16.0715271,5 L10.9286699,5 C10.6916699,5 10.5000985,5.2235 10.5000985,5.5 C10.5000985,5.74577778 10.6514636,5.94967901 10.8515529,5.9919561 L10.9286699,6 L16.0715271,6 C16.3085271,6 16.5000985,5.7765 16.5000985,5.5 C16.5000985,5.2235 16.3085271,5 16.0715271,5 Z" />
</svg>