<svg xmlns="http://www.w3.org/2000/svg" width="16" height="16">
  <g stroke="none" strokeWidth="1" fill="none" fillRule="evenodd">
    <g>
      <rect x="0" y="0" width="16" height="16"></rect>
      <path
        d="M13.418232,2.77391948 C13.3662019,2.76973132 13.3228389,2.74458895 13.2872535,2.71115106 C13.2537844,2.6755989 13.228605,2.63226297 13.2244264,2.58028141 L13.1127503,1.20668879 C13.1055052,1.11925928 13.0481093,1.04398698 12.965664,1.01379141 C12.8832391,0.983557598 12.7907414,1.00394275 12.7286976,1.06601536 L10.8805755,2.91239781 C10.8338538,2.95902557 10.8099904,3.02380313 10.8153087,3.08956607 L10.9269713,4.4584992 L7.49761765,7.88462291 C7.32953059,8.05257993 7.32953059,8.32740887 7.49763113,8.49537935 C7.66574517,8.66333637 7.94083104,8.66333637 8.10894508,8.49537935 L11.5382988,5.0692287 L12.9084982,5.18080053 C12.9743204,5.18610811 13.0391538,5.16226205 13.0858186,5.11558118 L14.9339407,3.26918526 C14.9960551,3.20719566 15.0164527,3.11479556 14.9862,3.03245368 C14.9559727,2.95008008 14.8806259,2.89273334 14.7931088,2.8854913 L13.418232,2.77391948 L13.418232,2.77391948 Z"
        fill="#FC7265" fillRule="nonzero"></path>
      <path
        d="M7.82528635,1.36180868 C8.53082893,1.36180868 8.88336001,1.39523133 9.41092659,1.53659851 L9.60827604,1.59936336 C9.93145182,1.71714181 10.124599,2.03752717 10.036868,2.36462445 C9.94686957,2.70019472 9.60173218,2.89926945 9.27814393,2.81223387 C9.27253846,2.8111153 9.27253846,2.8111153 9.26768704,2.81015478 C9.25539755,2.80773216 9.25539755,2.80773216 9.23656236,2.80406793 C9.18960143,2.79502112 9.18960143,2.79502112 9.12068622,2.78216044 C8.99782517,2.75945141 8.86696144,2.73673638 8.73378206,2.71555453 C8.35791308,2.6557735 8.03799013,2.61990381 7.82527287,2.61990381 C4.75101931,2.61990381 2.2588891,5.10970635 2.2588891,8.18090435 C2.2588891,11.2521198 4.75100986,13.7419049 7.82527287,13.7419049 C10.8995534,13.7419049 13.3916566,11.2521293 13.3916566,8.18090436 C13.3916566,8.03909158 13.3753944,7.84628072 13.3458084,7.61690961 C13.3317114,7.50762017 13.3148916,7.39236925 13.2959232,7.2733292 C13.2595816,7.0452608 13.2232222,6.84891518 13.2020063,6.74164438 C13.1119913,6.40599249 13.3113236,6.06106593 13.6471243,5.97117392 C13.9826625,5.88134692 14.3277384,6.08016532 14.4182332,6.41532493 C14.5725139,6.99127919 14.6505727,7.58471646 14.6505727,8.18089089 C14.6505727,11.9470192 11.5947512,14.9999865 7.82528635,14.9999865 C4.0558304,14.9999865 1,11.9470146 1,8.18089089 C1,4.41477851 4.05583255,1.36180868 7.82528635,1.36180868 Z M7.82529983,4.24088708 C8.08595435,4.24088708 8.70656987,4.33783067 8.84589695,4.3751237 C9.18169789,4.46501578 9.38103476,4.80996846 9.29101622,5.14561394 C9.22556137,5.38965632 9.02515737,5.56150624 8.79157271,5.60251803 L8.71869832,5.60933779 L8.71033989,5.64401282 L8.51954529,5.59302925 C8.28754542,5.53103492 8.05639061,5.49898216 7.82528635,5.49898216 C6.34258957,5.49898216 5.14068601,6.69976313 5.14068601,8.18089089 C5.14068601,9.66203599 6.34257997,10.8627996 7.82528635,10.8627996 C9.30800529,10.8627996 10.5098867,9.66203691 10.5098867,8.18089089 C10.5098867,8.11501769 10.5020718,8.02236818 10.4877712,7.91150782 C10.4808555,7.8578963 10.4725842,7.80122418 10.4632452,7.74261971 C10.4453131,7.63009098 10.4273631,7.53316531 10.4184197,7.48679874 C10.3284049,7.15114744 10.5277504,6.80620235 10.8635404,6.71632755 C11.1992691,6.6264548 11.544408,6.82552077 11.6343797,7.16097219 C11.6409851,7.18907575 11.6409851,7.18907575 11.6440049,7.20942514 C11.6450687,7.21724428 11.6450687,7.21724428 11.6458354,7.22329779 L11.6976129,7.45575351 C11.7445862,7.69812 11.7688027,7.93939645 11.7688027,8.18089089 C11.7688027,10.3569489 10.0032079,12.1208947 7.82529983,12.1208947 C5.6474007,12.1208947 3.88179691,10.3569444 3.88179691,8.18089089 C3.88179691,6.00484632 5.64740525,4.24088708 7.82529983,4.24088708 Z"
        fill="#14B1FF" fillRule="nonzero"></path>
    </g>
  </g>
</svg>