<svg viewBox="0 0 17 17" fill="none" xmlns="http://www.w3.org/2000/svg">
  <path fill-rule="evenodd" clip-rule="evenodd"
    d="M7.73535 3.5542C7.55941 3.8401 7.37176 4.11451 7.17383 4.37842H10.9688V4.98389C10.5068 5.55575 10.0564 6.0401 9.60547 6.43604H12.2998V9.76904H9.79199V12.0132C9.79209 12.3758 9.94606 12.5628 10.2646 12.563H12.0361C12.2341 12.563 12.3661 12.4859 12.4541 12.354C12.5641 12.178 12.6301 11.6829 12.6631 10.8579L13.4219 11.1001C13.3449 12.1559 13.2126 12.8047 13.0146 13.0356C12.8386 13.2336 12.5636 13.3325 12.1787 13.3325H10.0234C9.34155 13.3325 9.00011 12.948 9 12.1782V9.76904H8.42773C8.35078 9.97788 8.26274 10.1757 8.1748 10.3735C7.58081 11.6495 6.20622 12.695 4.07227 13.52L3.56641 12.8931C5.4803 12.1891 6.75609 11.2977 7.37207 10.2417C7.44902 10.0878 7.5151 9.92296 7.58105 9.76904H4.89746V6.6665C4.61146 6.8755 4.32506 7.07423 4.03906 7.26123L3.5332 6.65576C4.91915 5.81977 6.05238 4.73066 6.94336 3.3667L7.73535 3.5542ZM5.66699 9.021H7.82324C7.96621 8.46013 8.05415 7.84415 8.07617 7.17334H5.66699V9.021ZM8.86816 7.17334C8.84615 7.84415 8.78041 8.46013 8.64844 9.021H11.541V7.17334H8.86816ZM6.59082 5.10498C6.16189 5.58888 5.70024 6.02911 5.19434 6.43604H8.59277C9.05477 6.05104 9.49555 5.61098 9.93555 5.10498H6.59082Z"
    fill="currentColor" />
  <path
    d="M14.5 15.3335V16.3335H2.5V15.3335H14.5ZM15.5 14.3335V2.3335C15.5 1.78121 15.0523 1.3335 14.5 1.3335H2.5C1.94772 1.3335 1.5 1.78121 1.5 2.3335V14.3335C1.5 14.8858 1.94772 15.3335 2.5 15.3335V16.3335C1.39543 16.3335 0.5 15.4381 0.5 14.3335V2.3335C0.5 1.22893 1.39543 0.333496 2.5 0.333496H14.5C15.6046 0.333496 16.5 1.22893 16.5 2.3335V14.3335C16.5 15.4381 15.6046 16.3335 14.5 16.3335V15.3335C15.0523 15.3335 15.5 14.8858 15.5 14.3335Z"
    fill="currentColor" fill-opacity="0.5" />
</svg>