<svg viewBox="0 0 16 16" xmlns="http://www.w3.org/2000/svg">
  <path fill-rule="evenodd" clip-rule="evenodd"
    d="M7.37793 3.23145C7.22397 3.47337 7.05948 3.70462 6.89453 3.93555H10.5684V4.72754C10.1725 5.22239 9.78723 5.65099 9.40234 6.00293H11.9209V9.53418H9.43555V11.5361C9.43555 11.866 9.56701 12.0311 9.8418 12.0312H11.5137C11.6676 12.0312 11.7777 11.9542 11.8438 11.8223C11.9317 11.6683 11.9868 11.217 12.0088 10.458L12.999 10.7773C12.911 11.8771 12.779 12.526 12.5811 12.7461C12.3941 12.9441 12.1079 13.043 11.7119 13.043H9.52344C8.76458 13.043 8.38979 12.6145 8.38965 11.7568V9.53418H8.00488C7.93888 9.73218 7.86241 9.9197 7.77441 10.0957C7.20239 11.3496 5.84911 12.4053 3.69336 13.2412L3.0332 12.4277C4.9252 11.7237 6.15698 10.8541 6.75098 9.83105C6.79496 9.72114 6.85056 9.62212 6.89453 9.53418H4.27637V6.5752C4.0784 6.71817 3.86912 6.86118 3.66016 6.99316L3 6.19043C4.298 5.42043 5.39827 4.364 6.32227 3L7.37793 3.23145ZM5.28809 8.55566H7.21289C7.32287 8.07175 7.40058 7.54357 7.43359 6.97168H5.28809V8.55566ZM8.47852 6.97168C8.4565 7.54356 8.39 8.07175 8.29102 8.55566H10.9199V6.97168H8.47852ZM6.13477 4.88184C5.76098 5.28858 5.38697 5.66211 4.99121 6.00293H8.09277C8.46665 5.67304 8.84097 5.29967 9.21484 4.88184H6.13477Z"
    fill="currentColor" />
  <path fill-rule="evenodd" clip-rule="evenodd"
    d="M14 0C15.1046 0 16 0.895431 16 2V14C16 15.1046 15.1046 16 14 16H2C0.895431 16 0 15.1046 0 14V2C0 0.895431 0.895431 0 2 0H14ZM2 0.799805C1.33726 0.799805 0.799805 1.33726 0.799805 2V14C0.799805 14.6627 1.33726 15.2002 2 15.2002H14C14.6627 15.2002 15.2002 14.6627 15.2002 14V2C15.2002 1.33726 14.6627 0.799805 14 0.799805H2Z"
    fill="currentColor" />
</svg>