<svg viewBox="0 0 18 18" xmlns="http://www.w3.org/2000/svg">
  <path
    d="M16 0C17.1046 0 18 0.895431 18 2V16C18 17.0357 17.2128 17.887 16.2041 17.9893L16 18H2L1.7959 17.9893C0.854346 17.8938 0.1062 17.1457 0.0107422 16.2041L0 16V2C0 0.895431 0.895431 8.05319e-09 2 0H16ZM2 1.2002C1.55817 1.2002 1.2002 1.55817 1.2002 2V16C1.2002 16.4418 1.55817 16.7998 2 16.7998H16C16.4418 16.7998 16.7998 16.4418 16.7998 16V2C16.7998 1.55817 16.4418 1.2002 16 1.2002H2ZM8.77637 3.25195C8.60837 3.51595 8.42805 3.76851 8.24805 4.02051H12.2559V4.88477C11.824 5.42455 11.4042 5.89248 10.9844 6.27637H13.7324V10.1279H11.0205V12.3125C11.0205 12.6723 11.1641 12.8524 11.4639 12.8525H13.2881C13.4561 12.8525 13.5764 12.768 13.6484 12.624C13.7443 12.4556 13.8041 11.9638 13.8281 11.1367L14.9082 11.4844C14.8122 12.6844 14.6681 13.3928 14.4521 13.6328C14.2481 13.8487 13.9358 13.9561 13.5039 13.9561H11.1162C10.2883 13.9561 9.87998 13.4885 9.87988 12.5527V10.1279H9.45996C9.38797 10.3439 9.30399 10.5483 9.20801 10.7402C8.58401 12.1082 7.10786 13.2609 4.75586 14.1729L4.03613 13.2842C6.10007 12.5162 7.44381 11.5681 8.0918 10.4521C8.13979 10.3322 8.20006 10.2239 8.24805 10.1279H5.39258V6.90039C5.17658 7.05639 4.94773 7.21245 4.71973 7.35645L4 6.48047C5.416 5.64047 6.61602 4.488 7.62402 3L8.77637 3.25195ZM6.49609 9.06055H8.5957C8.7157 8.53255 8.79994 7.95603 8.83594 7.33203H6.49609V9.06055ZM9.97656 7.33203C9.95256 7.95603 9.88046 8.53255 9.77246 9.06055H12.6396V7.33203H9.97656ZM7.41992 5.05273C7.01201 5.49663 6.60379 5.90444 6.17188 6.27637H9.55566C9.96363 5.91639 10.3723 5.50869 10.7803 5.05273H7.41992Z"
    fill="currentColor" />
</svg>