<svg viewBox="0 0 16 16" fill="none" xmlns="http://www.w3.org/2000/svg">
  <path
    d="M7.3125 4.07812C6.86166 4.19908 6.38812 4.30948 5.9043 4.39746V5.9375H7.3125V6.93848H5.9043V7.36719C6.4872 7.80713 7.08163 8.31384 7.68652 8.88574L7.10352 9.77637C6.63064 9.19352 6.23424 8.72013 5.9043 8.36816V13.1758H4.84863V8.43457C4.44175 9.40225 3.91363 10.2932 3.25391 11.085L2.79199 9.91895C3.67163 9.03914 4.32064 8.04915 4.72754 6.93848H3.13281V5.9375H4.84863V4.5625C4.35386 4.62847 3.84757 4.69428 3.3418 4.73828L3.14355 3.75977C4.56218 3.64977 5.82745 3.4295 6.94922 3.09961L7.3125 4.07812Z"
    fill="currentColor" />
  <path
    d="M12.0537 9.07227L12.9229 8.92969L13.0879 9.94141L12.0537 10.1064V13.1758H10.998V10.2822L7.68652 10.8105L7.53223 9.79883L10.998 9.2373V3.09961H12.0537V9.07227Z"
    fill="currentColor" />
  <path
    d="M8.42383 6.19043C9.19348 6.74023 9.84228 7.30152 10.3701 7.8623L9.62305 8.59961C9.16111 8.08267 8.52237 7.52118 7.68652 6.90527L8.42383 6.19043Z"
    fill="currentColor" />
  <path
    d="M8.75391 3.66016C9.50152 4.18792 10.1394 4.72712 10.6562 5.25488L9.94141 5.98145C9.47947 5.47553 8.84142 4.94689 8.0166 4.375L8.75391 3.66016Z"
    fill="currentColor" />
  <path fill-rule="evenodd" clip-rule="evenodd"
    d="M14 0C15.1046 0 16 0.895431 16 2V14C16 15.1046 15.1046 16 14 16H2C0.895431 16 0 15.1046 0 14V2C0 0.895431 0.895431 0 2 0H14ZM2 1.2002C1.55817 1.2002 1.2002 1.55817 1.2002 2V14C1.2002 14.4418 1.55817 14.7998 2 14.7998H14C14.4418 14.7998 14.7998 14.4418 14.7998 14V2C14.7998 1.55817 14.4418 1.2002 14 1.2002H2Z"
    fill="currentColor" />
</svg>