<svg viewBox="0 0 16 16" fill="none" xmlns="http://www.w3.org/2000/svg">
  <path
    d="M7.3125 4.07812C6.86155 4.19911 6.38824 4.30947 5.9043 4.39746V5.9375H7.3125V6.93848H5.9043V7.36719C6.48729 7.80718 7.08154 8.31375 7.68652 8.88574L7.10352 9.77637C6.63052 9.19337 6.2343 8.72016 5.9043 8.36816V13.1758H4.84766V8.43457C4.4407 9.40238 3.9128 10.2931 3.25293 11.085L2.79102 9.91895C3.67094 9.03898 4.32056 8.04941 4.72754 6.93848H3.13184V5.9375H4.84766V4.5625C4.35281 4.62848 3.84666 4.6943 3.34082 4.73828L3.14355 3.75977C4.56239 3.64976 5.82733 3.42958 6.94922 3.09961L7.3125 4.07812Z"
    fill="currentColor" />
  <path
    d="M12.0527 9.07227L12.9219 8.92969L13.0869 9.94141L12.0527 10.1064V13.1758H10.9971V10.2822L7.68652 10.8105L7.53223 9.79883L10.9971 9.2373V3.09961H12.0527V9.07227Z"
    fill="currentColor" />
  <path
    d="M8.42285 6.19043C9.19284 6.74042 9.84212 7.30131 10.3701 7.8623L9.62207 8.59961C9.16011 8.08266 8.52241 7.52121 7.68652 6.90527L8.42285 6.19043Z"
    fill="currentColor" />
  <path
    d="M8.75293 3.66016C9.50085 4.1881 10.1393 4.72694 10.6562 5.25488L9.94141 5.98145C9.47944 5.47548 8.84152 4.94696 8.0166 4.375L8.75293 3.66016Z"
    fill="currentColor" />
  <path fill-rule="evenodd" clip-rule="evenodd"
    d="M14 0C15.1046 0 16 0.895431 16 2V14C16 15.1046 15.1046 16 14 16H2C0.895431 16 0 15.1046 0 14V2C0 0.895431 0.895431 0 2 0H14ZM2 0.799805C1.33726 0.799805 0.799805 1.33726 0.799805 2V14C0.799805 14.6627 1.33726 15.2002 2 15.2002H14C14.6627 15.2002 15.2002 14.6627 15.2002 14V2C15.2002 1.33726 14.6627 0.799805 14 0.799805H2Z"
    fill="currentColor" />
</svg>