<svg viewBox="0 0 17 17" fill="none" xmlns="http://www.w3.org/2000/svg">
  <path
    d="M7.75684 4.29053C7.28389 4.42251 6.78868 4.53334 6.26074 4.63232V6.39209H7.7793V7.15088H6.26074V7.68994C6.87674 8.18494 7.51532 8.74582 8.15332 9.36182L7.70215 10.0327C7.13017 9.36174 6.65673 8.83372 6.26074 8.44873V13.4761H5.46875V8.33838C5.02876 9.41636 4.44622 10.3959 3.69824 11.2759L3.35742 10.396C4.29235 9.45004 4.96287 8.3608 5.38086 7.15088H3.66504V6.39209H5.46875V4.76416C4.94088 4.84114 4.40193 4.90644 3.83008 4.96143L3.67578 4.21338C5.10578 4.10338 6.38242 3.87248 7.48242 3.54248L7.75684 4.29053Z"
    fill="currentColor" />
  <path
    d="M12.4316 9.54932L13.4219 9.38428L13.543 10.1538L12.4316 10.3296V13.4761H11.6289V10.4614L8.19727 11.0229L8.08691 10.2524L11.6289 9.68115V3.46631H12.4316V9.54932Z"
    fill="currentColor" />
  <path
    d="M8.80176 6.56787C9.6046 7.16175 10.287 7.7445 10.8369 8.33838L10.2764 8.8999C9.78139 8.33892 9.09916 7.74491 8.24121 7.10693L8.80176 6.56787Z"
    fill="currentColor" />
  <path
    d="M9.13184 4.0376C9.92384 4.5986 10.584 5.15993 11.123 5.73193L10.584 6.28174C10.1 5.74278 9.42921 5.17061 8.57129 4.57666L9.13184 4.0376Z"
    fill="currentColor" />
  <path
    d="M14.5 15.3335V16.3335H2.5V15.3335H14.5ZM15.5 14.3335V2.3335C15.5 1.78121 15.0523 1.3335 14.5 1.3335H2.5C1.94772 1.3335 1.5 1.78121 1.5 2.3335V14.3335C1.5 14.8858 1.94772 15.3335 2.5 15.3335V16.3335C1.39543 16.3335 0.5 15.4381 0.5 14.3335V2.3335C0.5 1.22893 1.39543 0.333496 2.5 0.333496H14.5C15.6046 0.333496 16.5 1.22893 16.5 2.3335V14.3335C16.5 15.4381 15.6046 16.3335 14.5 16.3335V15.3335C15.0523 15.3335 15.5 14.8858 15.5 14.3335Z"
    fill="currentColor" fill-opacity="0.5" />
</svg>