<svg viewBox="0 0 16 16" fill="none" xmlns="http://www.w3.org/2000/svg">
  <path
    d="M7.24414 3.43945C6.72827 3.58342 6.18814 3.70354 5.6123 3.81152V5.73145H7.26758V6.55957H5.6123V7.14746C6.28424 7.68741 6.97985 8.29976 7.67578 8.97168L7.18359 9.7041C6.55963 8.97215 6.04429 8.39557 5.6123 7.97559V13.46H4.74805V7.85547C4.26812 9.03129 3.63223 10.0997 2.81641 11.0596L2.44434 10.0996C3.46415 9.06769 4.1964 7.87942 4.65234 6.55957H2.78027V5.73145H4.74805V3.95605C4.17206 4.04005 3.58395 4.11188 2.95996 4.17188L2.79199 3.35547C4.35195 3.23547 5.74436 2.98402 6.94434 2.62402L7.24414 3.43945Z"
    fill="currentColor" />
  <path
    d="M12.3438 9.17578L13.4238 8.99609L13.5557 9.83594L12.3438 10.0283V13.46H11.4678V10.1719L7.72363 10.7842L7.60352 9.94434L11.4678 9.32031V2.54004H12.3438V9.17578Z"
    fill="currentColor" />
  <path
    d="M8.38379 5.92383C9.25959 6.57168 10.0036 7.20762 10.6035 7.85547L9.99219 8.46777C9.45219 7.85577 8.70748 7.20772 7.77148 6.51172L8.38379 5.92383Z"
    fill="currentColor" />
  <path
    d="M8.74414 3.16406C9.60802 3.77599 10.3281 4.38779 10.916 5.01172L10.3281 5.6123C9.80012 5.02431 9.06784 4.39995 8.13184 3.75195L8.74414 3.16406Z"
    fill="currentColor" />
  <path
    d="M14 15V16H2V15H14ZM15 14V2C15 1.44772 14.5523 1 14 1H2C1.44772 1 1 1.44772 1 2V14C1 14.5523 1.44772 15 2 15V16C0.895431 16 0 15.1046 0 14V2C0 0.895431 0.895431 0 2 0H14C15.1046 0 16 0.895431 16 2V14C16 15.1046 15.1046 16 14 16V15C14.5523 15 15 14.5523 15 14Z"
    fill="currentColor" fill-opacity="0.5" />
</svg>