<svg viewBox="0 0 30 17" fill="none" xmlns="http://www.w3.org/2000/svg">
  <path
    d="M25.6338 5.12744C26.0958 5.12744 26.4929 5.14602 26.8242 5.18213C27.1567 5.21102 27.4923 5.26483 27.8311 5.34424L27.5986 6.75244L27.5615 6.77393C27.2655 6.70174 26.9765 6.65144 26.6953 6.62256C26.4153 6.58649 26.0662 6.56885 25.6484 6.56885C25.3112 6.56886 25.0281 6.5935 24.7998 6.64404C24.5801 6.68739 24.3963 6.77837 24.249 6.91553C24.1018 7.05273 23.9802 7.25498 23.8848 7.52197C23.7966 7.78914 23.7156 8.14664 23.6416 8.59424C23.564 9.0636 23.5233 9.44309 23.5195 9.73193C23.5243 10.0132 23.5771 10.2262 23.6777 10.3706C23.7785 10.515 23.9314 10.613 24.1357 10.6636C24.3473 10.7141 24.6218 10.7388 24.959 10.7388C25.3697 10.7388 25.7202 10.7282 26.0098 10.7065C26.3078 10.6777 26.6098 10.6274 26.915 10.5552L26.9629 10.5981L26.7373 11.9634C26.3734 12.0356 26.0191 12.0894 25.6758 12.1255C25.3325 12.1616 24.9297 12.1792 24.4678 12.1792C23.874 12.1792 23.3802 12.1289 22.9863 12.0278C22.5998 11.9267 22.3023 11.7503 22.0947 11.4976C21.8957 11.2376 21.7805 10.8722 21.748 10.4028C21.7157 9.93349 21.7601 9.33064 21.8818 8.59424C21.9988 7.88653 22.1498 7.30505 22.335 6.8501C22.5202 6.39517 22.7545 6.04484 23.0371 5.79932C23.3281 5.54673 23.6829 5.37365 24.1016 5.27979C24.5289 5.17869 25.0398 5.12744 25.6338 5.12744Z"
    fill="currentColor" />
  <path
    d="M8.65918 6.68799H6.67969L5.78711 12.0825H4.02734L4.91895 6.68799H2.93945L3.18066 5.2251H8.90137L8.65918 6.68799Z"
    fill="currentColor" />
  <path d="M10.541 10.6089H13.8418L13.5977 12.0825H8.53809L9.67188 5.2251H11.4316L10.541 10.6089Z"
    fill="currentColor" />
  <path fill-rule="evenodd" clip-rule="evenodd"
    d="M20.7559 12.0493L20.751 12.0825H18.8809C18.8582 11.9093 18.8283 11.7105 18.792 11.4868C18.763 11.2629 18.7293 11.0237 18.6904 10.771H16.3145C16.0842 11.2765 15.877 11.7142 15.6914 12.0825H13.8213L13.8242 12.0601L17.209 5.2251H19.6299L20.7559 12.0493ZM18.1934 6.46045C18.0592 6.82866 17.8787 7.27622 17.6523 7.80322C17.4259 8.33039 17.19 8.86865 16.9453 9.41748H18.5186C18.4479 8.86865 18.3862 8.33039 18.334 7.80322C18.2818 7.27626 18.2498 6.82865 18.2373 6.46045H18.1934Z"
    fill="currentColor" />
  <path
    d="M28.125 15.3335V16.3335H1.875V15.3335H28.125ZM29 14.3335V2.3335C29 1.71944 28.5484 1.3335 28.125 1.3335H1.875C1.45157 1.3335 1 1.71944 1 2.3335V14.3335C1 14.9476 1.45157 15.3335 1.875 15.3335V16.3335C0.839466 16.3335 0 15.4381 0 14.3335V2.3335C0 1.22893 0.839466 0.333496 1.875 0.333496H28.125C29.1605 0.333496 30 1.22893 30 2.3335V14.3335C30 15.4381 29.1605 16.3335 28.125 16.3335V15.3335C28.5484 15.3335 29 14.9476 29 14.3335Z"
    fill="currentColor" fill-opacity="0.5" />
</svg>