<svg viewBox="0 0 30 16" fill="none" xmlns="http://www.w3.org/2000/svg">
  <path
    d="M25.6338 4.79395C26.0958 4.79395 26.4929 4.81253 26.8242 4.84863C27.1567 4.87753 27.4923 4.93134 27.8311 5.01074L27.5986 6.41895L27.5615 6.44043C27.2655 6.36824 26.9765 6.31794 26.6953 6.28906C26.4154 6.25299 26.0662 6.23535 25.6484 6.23535C25.3112 6.23536 25.0281 6.26001 24.7998 6.31055C24.5801 6.35389 24.3963 6.44487 24.249 6.58203C24.1018 6.71923 23.9802 6.92149 23.8848 7.18848C23.7966 7.45565 23.7156 7.81314 23.6416 8.26074C23.564 8.73011 23.5233 9.10959 23.5195 9.39844C23.5243 9.67975 23.5771 9.89274 23.6777 10.0371C23.7785 10.1815 23.9314 10.2795 24.1357 10.3301C24.3473 10.3806 24.6218 10.4053 24.959 10.4053C25.3697 10.4053 25.7202 10.3947 26.0098 10.373C26.3078 10.3442 26.6098 10.2939 26.915 10.2217L26.9629 10.2646L26.7373 11.6299C26.3734 11.7021 26.0191 11.7559 25.6758 11.792C25.3325 11.8281 24.9297 11.8457 24.4678 11.8457C23.874 11.8457 23.3802 11.7954 22.9863 11.6943C22.5998 11.5932 22.3023 11.4168 22.0947 11.1641C21.8957 10.9041 21.7805 10.5387 21.748 10.0693C21.7157 9.59999 21.7601 8.99715 21.8818 8.26074C21.9988 7.55304 22.1498 6.97156 22.335 6.5166C22.5202 6.06167 22.7545 5.71134 23.0371 5.46582C23.3281 5.21324 23.6829 5.04015 24.1016 4.94629C24.5289 4.84519 25.0398 4.79395 25.6338 4.79395Z"
    fill="currentColor" />
  <path
    d="M8.65918 6.35449H6.67969L5.78711 11.749H4.02734L4.91895 6.35449H2.93945L3.18066 4.8916H8.90137L8.65918 6.35449Z"
    fill="currentColor" />
  <path d="M10.541 10.2754H13.8418L13.5977 11.749H8.53809L9.67188 4.8916H11.4316L10.541 10.2754Z" fill="currentColor" />
  <path fill-rule="evenodd" clip-rule="evenodd"
    d="M20.7559 11.7158L20.751 11.749H18.8809C18.8582 11.5758 18.8283 11.3771 18.792 11.1533C18.763 10.9295 18.7293 10.6903 18.6904 10.4375H16.3145C16.0842 10.943 15.877 11.3807 15.6914 11.749H13.8213L13.8242 11.7266L17.209 4.8916H19.6299L20.7559 11.7158ZM18.1934 6.12695C18.0592 6.49517 17.8787 6.94273 17.6523 7.46973C17.4259 7.9969 17.19 8.53515 16.9453 9.08398H18.5186C18.4479 8.53515 18.3862 7.9969 18.334 7.46973C18.2818 6.94276 18.2498 6.49515 18.2373 6.12695H18.1934Z"
    fill="currentColor" />
  <path
    d="M28.125 15V16H1.875V15H28.125ZM29 14V2C29 1.38594 28.5484 1 28.125 1H1.875C1.45157 1 1 1.38594 1 2V14C1 14.6141 1.45157 15 1.875 15V16C0.839466 16 0 15.1046 0 14V2C0 0.895431 0.839466 0 1.875 0H28.125C29.1605 0 30 0.895431 30 2V14C30 15.1046 29.1605 16 28.125 16V15C28.5484 15 29 14.6141 29 14Z"
    fill="currentColor" fill-opacity="0.5" />
</svg>