<svg viewBox="0 0 32 16" xmlns="http://www.w3.org/2000/svg">
  <path
    d="M27.4766 4C27.9804 4 28.4134 4.01923 28.7744 4.05859C29.1366 4.0901 29.5027 4.14878 29.8711 4.23535L29.6006 5.77246L29.5605 5.7959C29.2385 5.71714 28.9235 5.6614 28.6172 5.62988C28.3123 5.59054 27.9313 5.57129 27.4756 5.57129C27.1077 5.5713 26.7985 5.59917 26.5488 5.6543C26.3088 5.70156 26.1076 5.79978 25.9453 5.94922C25.783 6.09885 25.6484 6.31999 25.541 6.61133C25.4416 6.90278 25.3478 7.29293 25.2617 7.78125C25.1714 8.29325 25.1228 8.70736 25.1152 9.02246C25.1171 9.32956 25.1721 9.56221 25.2803 9.71973C25.3885 9.87719 25.5542 9.98394 25.7764 10.0391C26.0066 10.0941 26.3061 10.1211 26.6738 10.1211C27.1215 10.1211 27.5033 10.1095 27.8193 10.0859C28.1448 10.0544 28.4748 9.99868 28.8086 9.91992L28.8613 9.96777L28.5986 11.4561C28.201 11.5348 27.8141 11.5944 27.4395 11.6338C27.0645 11.6732 26.6241 11.6924 26.1201 11.6924C25.4724 11.6924 24.9343 11.6376 24.5059 11.5273C24.0853 11.417 23.7624 11.224 23.5391 10.9482C23.3253 10.6646 23.2035 10.2667 23.1738 9.75488C23.1441 9.24283 23.2001 8.58474 23.3418 7.78125C23.4779 7.00926 23.6499 6.37423 23.8574 5.87793C24.0648 5.3821 24.3248 5.00015 24.6357 4.73242C24.9563 4.45686 25.3459 4.26742 25.8037 4.16504C26.2711 4.05478 26.8287 4.00001 27.4766 4Z"
    fill="currentColor" />
  <path
    d="M8.94043 5.70117H6.78027L5.74219 11.5869H3.82227L4.86035 5.70117H2.7002L2.98145 4.10547H9.22168L8.94043 5.70117Z"
    fill="currentColor" />
  <path d="M10.9463 9.97949H14.5459L14.2627 11.5869H8.74316L10.0625 4.10547H11.9824L10.9463 9.97949Z"
    fill="currentColor" />
  <path fill-rule="evenodd" clip-rule="evenodd"
    d="M22.0732 11.5518L22.0664 11.5869H20.0264C20.0037 11.3979 19.9734 11.1806 19.9365 10.9365C19.9076 10.6925 19.8733 10.4326 19.834 10.1572H17.2422C16.9851 10.7084 16.7527 11.1853 16.5459 11.5869H14.5059L14.5098 11.5635L18.2852 4.10547H20.9258L22.0732 11.5518ZM19.3438 5.45312C19.1929 5.85493 18.9907 6.34382 18.7373 6.91895C18.4839 7.49397 18.2208 8.08104 17.9473 8.67969H19.6631C19.5927 8.08105 19.532 7.49396 19.4814 6.91895C19.4309 6.34382 19.4017 5.85493 19.3926 5.45312H19.3438Z"
    fill="currentColor" />
  <path fill-rule="evenodd" clip-rule="evenodd"
    d="M30 0C31.1046 0 32 0.895431 32 2V14C32 15.1046 31.1046 16 30 16H2L1.7959 15.9893C0.787223 15.887 0 15.0357 0 14V2C0 0.964349 0.787223 0.113005 1.7959 0.0107422L2 0H30ZM2 1.2002C1.55817 1.2002 1.2002 1.55817 1.2002 2V14C1.2002 14.4418 1.55817 14.7998 2 14.7998H30C30.4418 14.7998 30.7998 14.4418 30.7998 14V2C30.7998 1.55817 30.4418 1.2002 30 1.2002H2Z"
    fill="currentColor" />
</svg>