<svg width="32" height="16" viewBox="0 0 32 16" fill="none" xmlns="http://www.w3.org/2000/svg">
  <path
    d="M30 0C31.1046 0 32 0.895431 32 2V14C32 15.1046 31.1046 16 30 16H2L1.7959 15.9893C0.787223 15.887 0 15.0357 0 14V2C0 0.964349 0.787223 0.113005 1.7959 0.0107422L2 0H30ZM2 0.799805C1.33726 0.799805 0.799805 1.33726 0.799805 2V14C0.799805 14.6627 1.33726 15.2002 2 15.2002H30C30.6627 15.2002 31.2002 14.6627 31.2002 14V2C31.2002 1.33726 30.6627 0.799805 30 0.799805H2ZM27.1904 4.1543C27.6944 4.1543 28.1282 4.1735 28.4893 4.21289C28.8514 4.24442 29.2175 4.30305 29.5859 4.38965L29.3145 5.92676L29.2744 5.94922C28.9524 5.87045 28.6374 5.8157 28.3311 5.78418C28.0261 5.74484 27.6451 5.72559 27.1895 5.72559C26.8219 5.72561 26.5132 5.75257 26.2637 5.80762C26.0235 5.85486 25.8215 5.95396 25.6592 6.10352C25.497 6.25309 25.3622 6.47361 25.2549 6.76465C25.1555 7.05615 25.0617 7.44708 24.9756 7.93555C24.8854 8.44733 24.8367 8.86076 24.8291 9.17578C24.8309 9.48283 24.8861 9.71548 24.9941 9.87305C25.1024 10.0306 25.268 10.1372 25.4902 10.1924C25.7205 10.2475 26.0198 10.2754 26.3877 10.2754C26.8354 10.2754 27.2172 10.2629 27.5332 10.2393C27.8586 10.2078 28.1887 10.1529 28.5225 10.0742L28.5752 10.1211L28.3125 11.6104C27.9148 11.6891 27.5281 11.7487 27.1533 11.7881C26.7784 11.8275 26.338 11.8467 25.834 11.8467C25.1863 11.8467 24.6482 11.7919 24.2197 11.6816C23.7994 11.5714 23.4773 11.3781 23.2539 11.1025C23.04 10.819 22.9174 10.421 22.8877 9.90918C22.858 9.39718 22.914 8.73894 23.0557 7.93555C23.1918 7.16354 23.3638 6.52855 23.5713 6.03223C23.7787 5.53624 24.0386 5.15451 24.3496 4.88672C24.6701 4.61106 25.0597 4.42177 25.5176 4.31934C25.9849 4.20908 26.5427 4.15432 27.1904 4.1543ZM8.6543 5.85547H6.49414L5.45605 11.7412H3.53613L4.57422 5.85547H2.41406L2.69531 4.25977H8.93555L8.6543 5.85547ZM10.6611 10.1328H14.2607L13.9766 11.7412H8.45703L9.77637 4.25977H11.6963L10.6611 10.1328ZM21.7871 11.7051L21.7803 11.7412H19.7402C19.7176 11.5522 19.6883 11.3349 19.6514 11.0908C19.6224 10.8466 19.5872 10.5862 19.5479 10.3105H16.9561C16.6989 10.8619 16.4666 11.3395 16.2598 11.7412H14.2197L14.2246 11.7168L17.999 4.25977H20.6396L21.7871 11.7051ZM19.0576 5.60742C18.9068 6.0091 18.7045 6.49741 18.4512 7.07227C18.1978 7.64733 17.9347 8.23529 17.6611 8.83398H19.377C19.3065 8.23528 19.2459 7.64734 19.1953 7.07227C19.1448 6.49752 19.1156 6.00905 19.1064 5.60742H19.0576Z"
    fill="currentColor" />
</svg>