<svg xmlns="http://www.w3.org/2000/svg" viewBox="0 0 45 22">
  <defs>
    <linearGradient id="combined-shape-a" x1="77.046%" x2="-2.856%" y1="42.529%" y2="74.199%">
      <stop offset="0%" stop-color='#fad961' />
      <stop offset="100%" stop-color='#f76b1c' />
    </linearGradient>
  </defs>
  <path fill="url(#combined-shape-a)" fillRule="evenodd" transform="translate(-60)"
    d="M73.6951192,12.1390622 C74.4860349,12.147934 75.1016055,12.3298029 75.5418496,12.6846742 C75.9786418,13.0351096 76.2573973,13.4343339 76.3781243,13.8823589 C76.4881414,14.1174612 76.5274836,14.425751 76.4961523,14.8072377 C76.4602627,15.1887244 76.3018135,15.9428147 76.0208,17.0695311 C75.7442119,18.178504 75.5276132,18.9281585 75.3709974,19.3185169 C75.2098235,19.7088754 75.0155942,20.0216011 74.7883038,20.2567033 C74.4440936,20.7047284 73.967304,21.0995168 73.3579208,21.4410805 C72.7406603,21.7959518 72.0332638,21.9822564 71.23571,22 C70.4561234,21.9822564 69.8484964,21.7959518 69.4128105,21.4410805 C68.9646892,21.0995168 68.6757111,20.7047284 68.5458676,20.2567033 C68.5094459,20.1103189 68.4782024,19.9705904 68.4521363,19.8375136 C68.4317347,19.700001 68.4293004,19.5270038 68.4448333,19.3185169 C68.4738191,18.9281585 68.6266038,18.178504 68.903192,17.0695311 C69.1842055,15.9428147 69.4064686,15.1887244 69.5699881,14.8072377 C69.7380657,14.425751 69.9266305,14.1174612 70.1356881,13.8823589 C70.4890148,13.4343339 70.976027,13.0351096 71.5967393,12.6846742 C72.2094415,12.3298029 72.9088945,12.147934 73.6951192,12.1390622 Z M82.604692,12.2189079 C82.996698,12.2189079 83.366173,12.2543945 83.7131281,12.3253688 C84.0545514,12.4185225 84.3761884,12.609263 84.6780486,12.8975959 C84.9383538,13.1149546 85.1161662,13.4254624 85.2114911,13.8291285 C85.3192515,14.219487 85.3067507,14.6808128 85.1739885,15.2131198 C84.9947594,15.9317342 84.5717608,16.5860184 83.9049801,17.175992 C83.2167803,17.7970168 82.357682,18.1163962 81.3276595,18.1341398 L79.0303336,18.1341398 L78.0860665,21.9201544 L76.5750277,21.9201544 L78.9946084,12.2189079 L82.604692,12.2189079 Z M68.0393246,3.93046507 C68.0393246,9.16168213 73.2,7.62103271 74.1305928,5.33729006 L74.1305928,8.52520752 C71.4214184,9.05601637 69.2210068,9.90715162 67.5293579,11.0786133 C66.9272664,13.5865288 66.1439197,17.2003758 65.1793176,21.9201544 L63.3792207,21.9201544 L65.5316162,12.2548777 C63.1535848,13.8644289 61.3097127,15.3726245 60,16.7794645 C60.2152405,15.9940875 61.149353,12.9253097 61.4405054,8.41835938 C63.0842896,11.8845215 66.4704102,10.2149186 68.0393246,3.93046507 Z M94.9980368,8.29316344 L91.8539412,21.9201544 L89.9970552,21.9201544 L92.6645766,10.3587087 L90.4976803,11.7793552 L90.9764109,9.7044636 L93.1411507,8.29316344 L94.9980368,8.29316344 Z M101.77127,8.29316344 C102.890891,8.29316344 103.756235,8.62418015 104.367328,9.28622351 C104.989994,9.95439689 105.153045,10.9076024 104.856486,12.1458687 L103.31471,18.0582541 C102.967061,19.2903903 102.307673,20.2405309 101.336527,20.9087043 C100.380151,21.5707476 99.34057,21.9078943 98.2177522,21.9201544 C97.1342587,21.9078943 96.2869781,21.5707476 95.6758851,20.9087043 C95.0137025,20.2405309 94.8366803,19.2903903 95.1448132,18.0582541 L96.6865892,12.1458687 C97.0226646,10.9076024 97.6960234,9.95439689 98.7066858,9.28622351 C99.6630617,8.62418015 100.68458,8.29316344 101.77127,8.29316344 Z M73.3283652,13.609553 C72.9706122,13.6184247 72.6480685,13.68718 72.3607246,13.8158209 C72.0677161,13.9488976 71.816554,14.1152411 71.6072309,14.3148562 C71.3592293,14.5233431 71.162389,14.7917105 71.016704,15.1199665 C70.8574771,15.4659661 70.6589338,16.1158144 70.421068,17.0695311 C70.1832022,18.0232478 70.0586955,18.6686604 70.0475441,19.0057881 C70.0272762,19.3429159 70.0891436,19.6157191 70.233148,19.824206 C70.3428995,20.0238212 70.5121927,20.1857288 70.7410327,20.3099337 C70.9597828,20.4563182 71.2469237,20.5295093 71.602464,20.5295093 C71.9625625,20.5295093 72.2930497,20.4563182 72.5939355,20.3099337 C72.8756149,20.1857288 73.1165543,20.0238212 73.3167611,19.824206 C73.5647626,19.6157191 73.7672674,19.3429159 73.9242816,19.0057881 C74.0767375,18.6686604 74.2718954,18.0232478 74.5097612,17.0695311 C74.747627,16.1158144 74.8755191,15.4659661 74.8934415,15.1199665 C74.9023802,14.7917105 74.8348484,14.5233431 74.6908439,14.3148562 C74.5902089,14.1152411 74.4311383,13.9488976 74.2136274,13.8158209 C73.9813354,13.68718 73.686251,13.6184247 73.3283652,13.609553 Z M101.270133,10.2149186 C99.9465382,10.2394387 99.0965423,10.9229269 98.7201198,12.2654037 L97.2382885,17.9479141 C96.911357,19.3026509 97.4048857,19.9861392 98.7188894,19.9983992 C100.032701,19.9861392 100.88599,19.3026509 101.278782,17.9479141 L102.760613,12.2654037 C103.071175,10.9229269 102.574354,10.2394387 101.270133,10.2149186 Z M82.3398996,13.609553 L80.1588075,13.609553 L79.3771734,16.7434947 L81.6129638,16.7434947 C82.1758362,16.7346229 82.639505,16.5660616 83.003984,16.2378056 C83.3525758,15.9184214 83.5755478,15.5635554 83.6729068,15.1731969 C83.7536705,14.8493768 83.7670125,14.5765736 83.7129331,14.354779 C83.6487637,14.1551639 83.5285037,13.9976921 83.3521495,13.8823589 C83.0897644,13.6916156 82.7523512,13.6006812 82.3398996,13.609553 Z M61.425769,5.36077881 C62.0885107,5.36077881 62.625769,5.89803711 62.625769,6.56077881 C62.625769,7.22352051 62.0885107,7.76077881 61.425769,7.76077881 C60.7630273,7.76077881 60.225769,7.22352051 60.225769,6.56077881 C60.225769,5.89803711 60.7630273,5.36077881 61.425769,5.36077881 Z M74.206897,2.25097656 C74.8696387,2.25097656 75.406897,2.78823486 75.406897,3.45097656 C75.406897,4.11371826 74.8696387,4.65097656 74.206897,4.65097656 C73.5441553,4.65097656 73.006897,4.11371826 73.006897,3.45097656 C73.006897,2.78823486 73.5441553,2.25097656 74.206897,2.25097656 Z M68.1574097,0.196105957 C68.9858368,0.196105957 69.6574097,0.867678832 69.6574097,1.69610596 C69.6574097,2.52453308 68.9858368,3.19610596 68.1574097,3.19610596 C67.3289825,3.19610596 66.6574097,2.52453308 66.6574097,1.69610596 C66.6574097,0.867678832 67.3289825,0.196105957 68.1574097,0.196105957 Z" />
</svg>