<svg viewBox="0 0 22 22">
  <g transform="translate(1, 1)">
    <path
      d="M16.372549,6.66666667 C18.3759349,6.66666667 20,8.31497157 20,10.3482587 L20,16.318408 C20,18.3516951 18.3759349,20 16.372549,20 L3.62745098,20 C1.62406512,20 0,18.3516951 0,16.318408 L0,10.3482587 C0,8.31497157 1.62406512,6.66666667 3.62745098,6.66666667 L16.372549,6.66666667 Z M16.372549,8.05970149 L3.62745098,8.05970149 C2.38210302,8.05970149 1.37254902,9.08432346 1.37254902,10.3482587 L1.37254902,16.318408 C1.37254902,17.5823432 2.38210302,18.6069652 3.62745098,18.6069652 L16.372549,18.6069652 C17.617897,18.6069652 18.627451,17.5823432 18.627451,16.318408 L18.627451,10.3482587 C18.627451,9.08432346 17.617897,8.05970149 16.372549,8.05970149 Z M10,10.1492537 C10.3790189,10.1492537 10.6862745,10.4610952 10.6862745,10.8457711 L10.6862745,13.8308458 C10.6862745,14.2155217 10.3790189,14.5273632 10,14.5273632 C9.62098105,14.5273632 9.31372549,14.2155217 9.31372549,13.8308458 L9.31372549,10.8457711 C9.31372549,10.4610952 9.62098105,10.1492537 10,10.1492537 Z M10.2941176,4.55635529e-13 C11.2737215,4.55635529e-13 12.2140347,0.281595024 13.0238943,0.803575578 C13.3438477,1.00979582 13.438505,1.44021506 13.2353174,1.76494386 C13.0321299,2.08967267 12.6080403,2.18574284 12.2880869,1.9795226 C11.6966221,1.59830453 11.0111775,1.39303483 10.2941176,1.39303483 C8.23658623,1.39303483 6.56862745,3.08588851 6.56862745,5.17412935 L6.56862745,7.24196613 C6.56862745,7.62664207 6.26137189,7.93848354 5.88235294,7.93848354 C5.503334,7.93848354 5.19607843,7.62664207 5.19607843,7.24196613 L5.19607843,5.17412935 C5.19607843,2.31653662 7.47854833,4.54747351e-13 10.2941176,4.55635529e-13 Z">
    </path>
  </g>
</svg>