<svg xmlns="http://www.w3.org/2000/svg" viewBox="0 0 16 16">
  <path
    d="M1,1.99406028 L1,14.0059397 C1,14.5539384 1.44579254,15 1.99406028,15 L14.0059397,15 C14.5539384,15 15,14.5542075 15,14.0059397 L15,1.99406028 C15,1.44606163 14.5542075,1 14.0059397,1 L1.99406028,1 C1.44606163,1 1,1.44579254 1,1.99406028 Z M0,1.99406028 C0,0.892771196 0.894513756,0 1.99406028,0 L14.0059397,0 C15.1072288,0 16,0.894513756 16,1.99406028 L16,14.0059397 C16,15.1072288 15.1054862,16 14.0059397,16 L1.99406028,16 C0.892771196,16 0,15.1054862 0,14.0059397 L0,1.99406028 Z" />
  <path
    d="M5.84415584,2.41558442 C5.50649182,3.4632087 5.07792468,4.44588286 4.55844156,5.36363636 L4.55844156,14 L3.62337662,14 L3.62337662,6.80519481 C3.22510623,7.35065208 2.78355221,7.88311429 2.2987013,8.4025974 L2,7.41558442 C3.3506561,5.83981896 4.33765922,4.03464221 4.96103896,2 L5.84415584,2.41558442 Z M5.79220779,4.64935065 L9.33766234,4.64935065 L9.33766234,2.07792208 L10.2987013,2.07792208 L10.2987013,4.64935065 L14,4.64935065 L14,5.54545455 L10.2987013,5.54545455 L10.2987013,8.25974026 L13.1558442,8.25974026 L13.1558442,13.961039 L12.2337662,13.961039 L12.2337662,13.3896104 L7.49350649,13.3896104 L7.49350649,13.961039 L6.55844156,13.961039 L6.55844156,8.25974026 L9.33766234,8.25974026 L9.33766234,5.54545455 L5.79220779,5.54545455 L5.79220779,4.64935065 Z M7.49350649,12.4935065 L12.2337662,12.4935065 L12.2337662,9.15584416 L7.49350649,9.15584416 L7.49350649,12.4935065 Z" />
</svg>