<svg width="23" height="16" viewBox="0 0 23 16" fill="none" xmlns="http://www.w3.org/2000/svg">
  <path
    d="M8.5628 14.936C8.9072 14.0072 9.2192 13.2044 9.4976 12.5276L12.3776 5.57599C13.0051 4.06567 13.6475 2.56159 14.3048 1.06399C13.3976 1.07719 12.7916 1.08439 12.4856 1.08439H12.266C11.8076 1.08199 11.2316 1.07599 10.5404 1.06399C10.3902 1.53751 10.2318 2.00838 10.0652 2.47639L7.1516 10.2404L6.7676 11.4092C6.62454 10.754 6.47453 10.1004 6.3176 9.44839L5.09 4.63999C4.8128 3.57679 4.622 2.84119 4.5224 2.43439C4.4504 2.12239 4.3508 1.66639 4.2224 1.06279C3.65486 1.07405 3.08724 1.08085 2.5196 1.08319H2.156C1.6568 1.08079 1.1048 1.07359 0.5 1.06279L2.102 6.55039L4.1384 13.6952L4.448 14.9348C5.276 14.9228 5.8916 14.9168 6.296 14.9156H6.7028C7.1108 14.9156 7.7312 14.9228 8.5628 14.9348V14.936ZM17.6108 15.2C18.194 15.2 18.7484 15.128 19.2752 14.9864C19.8008 14.8448 20.2832 14.5952 20.7224 14.24C21.1683 13.8762 21.5182 13.4085 21.7412 12.878C21.9812 12.326 22.1 11.7452 22.1 11.1356C22.1055 10.6973 22.0248 10.2623 21.8624 9.85519C21.7663 9.62163 21.6503 9.3968 21.5156 9.18319C21.3545 8.92423 21.1761 8.67647 20.9816 8.44159C20.8006 8.21874 20.6083 8.00526 20.4056 7.80199L19.8056 7.22239C19.485 6.922 19.1702 6.61554 18.8612 6.30319C18.6859 6.12602 18.5243 5.93588 18.3776 5.73439C18.2736 5.59581 18.1892 5.44358 18.1268 5.28199C18.0828 5.15461 18.0605 5.02075 18.0608 4.88599C18.0608 4.59439 18.2048 4.34959 18.4904 4.15399C18.7772 3.95719 19.1372 3.85879 19.5704 3.85879C19.8776 3.85879 20.2424 3.90799 20.6648 4.00639C21.0872 4.10479 21.5552 4.27879 22.0664 4.52959C22.0054 3.84785 21.9526 3.1654 21.908 2.48239C21.8838 2.05381 21.8642 1.62498 21.8492 1.19599C20.7428 0.931988 19.718 0.799988 18.7772 0.799988C18.2996 0.799988 17.8352 0.845588 17.3852 0.936788C16.934 1.02831 16.5035 1.20244 16.1156 1.45039C15.7414 1.68126 15.4178 1.98534 15.164 2.34439C14.9274 2.68505 14.746 3.06085 14.6264 3.45799C14.5064 3.85399 14.4464 4.25839 14.4464 4.67239C14.4464 5.01679 14.4836 5.34439 14.5592 5.65279C14.6348 5.96119 14.7536 6.26479 14.9192 6.56239C15.0824 6.85999 15.3116 7.18159 15.6068 7.52719C15.7508 7.69639 16.0076 7.97119 16.3748 8.35039L17.9432 10.0172C18.0872 10.1732 18.2 10.3172 18.278 10.4492C18.3548 10.5812 18.4076 10.7 18.4364 10.8044C18.464 10.91 18.4772 11.0204 18.4772 11.1356C18.4834 11.2906 18.4465 11.4443 18.3707 11.5797C18.2949 11.715 18.183 11.8267 18.0476 11.9024C17.7608 12.0752 17.3756 12.1616 16.892 12.1616C16.458 12.1517 16.0271 12.0852 15.6104 11.9636C15.1244 11.8316 14.5688 11.5952 13.946 11.2568C14.0408 12.1244 14.1236 13.2788 14.1956 14.7224C15.5708 15.0404 16.7084 15.2 17.6096 15.2H17.6108Z"
    fill="currentColor" />
</svg>