<svg xmlns="http://www.w3.org/2000/svg" viewBox="0 0 16 16">
  <path
    d="M6.98939956,8.61756516 L6.98939956,0.970271231 C6.98939956,0.434405227 7.44089629,0 7.99784573,0 C8.55479516,0 9.00629189,0.434405227 9.00629189,0.970271231 L9.00629189,8.62183762 L12.2784747,5.3770607 C12.6722974,4.98653641 13.3108102,4.98653641 13.704633,5.3770607 C14.0984557,5.76758499 14.0984557,6.40074997 13.704633,6.79127426 L9.42615824,11.0339149 C8.63851279,11.8149635 7.36148721,11.8149635 6.57384176,11.0339149 L2.29536704,6.79127426 C1.90154432,6.40074997 1.90154432,5.76758499 2.29536704,5.3770607 C2.68918977,4.98653641 3.32770256,4.98653641 3.72152528,5.3770607 L6.98939956,8.61756516 Z M1.14614002,16 C0.513144367,16 0,15.5522847 0,15 C0,14.4477153 0.513144367,14 1.14614002,14 L14.85386,14 C15.4868556,14 16,14.4477153 16,15 C16,15.5522847 15.4868556,16 14.85386,16 L1.14614002,16 Z" />
</svg>