<?xml version="1.0" encoding="UTF-8"?>
<svg viewBox="0 0 16 16" version="1.1" xmlns="http://www.w3.org/2000/svg" xmlns:xlink="http://www.w3.org/1999/xlink">
    <g stroke="none" stroke-width="1" fill="none" fill-rule="evenodd">
        <g fill="currentColor">
            <path
                d="M14,0 C15.1045695,0 16,0.8954305 16,2 L16,14 C16,15.1045695 15.1045695,16 14,16 L2,16 C0.8954305,16 0,15.1045695 0,14 L0,2 C0,0.8954305 0.8954305,2.22044605e-16 2,0 L14,0 Z M8.89871386,5.36449028 C8.37424395,4.87850324 7.64063345,4.87850324 7.11616354,5.36449028 L4.19667622,8.8339942 C3.93444126,9.07698772 3.93444126,9.47095806 4.19667622,9.71395158 C4.32513697,9.83298655 4.49247899,9.89705642 4.66083101,9.89946833 L6.86528106,9.89909025 C6.98941519,9.89899861 7.11590382,9.89890255 7.24393628,9.89880331 L7.24528108,14.1179352 C7.24528108,14.6050862 7.58390363,15 8.00161571,15 C8.41932778,15 8.75795033,14.6050862 8.75795033,14.1179352 L8.76836114,9.89756588 L9.37887124,9.89706631 C9.46632689,9.89699581 9.55221942,9.89692721 9.63623668,9.896861 L10.9511612,9.89600152 L11.0178702,9.89598273 L11.2214613,9.89599642 C11.238114,9.89600636 11.2526846,9.89601925 11.2650807,9.89603523 L11.3126234,9.89616926 C11.4865772,9.89767902 11.6705967,9.8369398 11.8033238,9.71395158 C12.0655587,9.47095806 12.0655587,9.07698772 11.8033238,8.8339942 Z M12.2561983,2 L3.74380165,2 L3.64287217,2.00684662 C3.27982203,2.05650904 3,2.37030423 3,2.75 C3,3.16421356 3.33301134,3.5 3.74380165,3.5 L12.2561983,3.5 L12.3571278,3.49315338 C12.720178,3.44349096 13,3.12969577 13,2.75 C13,2.33578644 12.6669887,2 12.2561983,2 Z">
            </path>
        </g>
    </g>
</svg>