<svg xmlns="http://www.w3.org/2000/svg" viewBox="0 0 16 16">
  <path d="M1.14614002,2 C0.513144367,2 0,1.55228475 0,1 C0,0.44771525 0.513144367,2.25597319e-13 1.14614002,2.25597319e-13 L14.85386,2.25597319e-13 C15.4868556,2.25597319e-13 16,0.44771525 16,1 C16,1.55228475 15.4868556,2 14.85386,2 L1.14614002,2 Z M8.00215427,16 C7.44520484,16 6.99370811,15.5655948 6.99370811,15.0297288 L6.994,7.379 L3.72152528,10.6229393 C3.32770256,11.0134636 2.68918977,11.0134636 2.29536704,10.6229393 C1.90154432,10.232415 1.90154432,9.59925003 2.29536704,9.20872574 L6.57384176,4.96608505 C7.36148721,4.18503647 8.63851279,4.18503647 9.42615824,4.96608505 L13.704633,9.20872574 C14.0984557,9.59925003 14.0984557,10.232415 13.704633,10.6229393 C13.3108102,11.0134636 12.6722974,11.0134636 12.2784747,10.6229393 L9.011,7.383 L9.01060044,15.0297288 C9.01060044,15.5655948 8.55910371,16 8.00215427,16 Z" />
</svg>