<?xml version="1.0" encoding="UTF-8"?>
<svg viewBox="0 0 16 16" version="1.1" xmlns="http://www.w3.org/2000/svg" xmlns:xlink="http://www.w3.org/1999/xlink">
    <g stroke="none" stroke-width="1" fill="none" fill-rule="evenodd">
        <g>
            <rect x="0" y="0" width="16" height="16"></rect>
            <path
                d="M13.4415617,1 L2.55843835,1 C1.69705955,1 1,1.69679723 1,2.55763866 L1,13.4423613 C1,14.3016404 1.69878923,15 2.55843835,15 L13.4415617,15 C14.3029404,15 15,14.3032028 15,13.4423613 L15,2.55763866 C15,1.69679723 14.3029404,1 13.4415617,1 Z M2.8,4 L8.2,4 C8.6418278,4 9,4.3581722 9,4.8 C9,5.2418278 8.6418278,5.6 8.2,5.6 L2.8,5.6 C2.3581722,5.6 2,5.2418278 2,4.8 C2,4.3581722 2.3581722,4 2.8,4 Z M12.6755914,5.74110132 L13.5613589,6.38137269 C13.9670418,6.6763226 14.0442413,7.23647601 13.7339836,7.63392391 L10.8199678,11.3528227 C10.730756,11.4674389 10.6149054,11.5603032 10.4819979,11.6237347 L8.42235242,12.5825656 C8.29701158,12.6403359 8.14990629,12.626624 8.0404439,12.5469672 C7.93098151,12.4673104 7.87724072,12.3348648 7.90092435,12.2031176 L8.288613,10.032709 C8.31583095,9.89207191 8.37729495,9.75922663 8.46789854,9.64521002 L11.3745534,5.92736508 C11.6861306,5.52962679 12.2685616,5.44624276 12.6755914,5.74110132 Z M6.2,7 C6.6418278,7 7,7.3581722 7,7.8 C7,8.2418278 6.6418278,8.6 6.2,8.6 L2.8,8.6 C2.3581722,8.6 2,8.2418278 2,7.8 C2,7.3581722 2.3581722,7 2.8,7 L6.2,7 Z"
                fill="#F0BB0E"></path>
        </g>
    </g>
</svg>