<svg viewBox="0 0 14 14" fill="none" xmlns="http://www.w3.org/2000/svg">
  <path
    d="M4.375 6.125C4.85825 6.125 5.25 6.51675 5.25 7C5.25 7.48325 4.85825 7.875 4.375 7.875C3.89175 7.875 3.5 7.48325 3.5 7C3.5 6.51675 3.89175 6.125 4.375 6.125Z"
    fill="currentColor" />
  <path
    d="M7 6.125C7.48325 6.125 7.875 6.51675 7.875 7C7.875 7.48325 7.48325 7.875 7 7.875C6.51675 7.875 6.125 7.48325 6.125 7C6.125 6.51675 6.51675 6.125 7 6.125Z"
    fill="currentColor" />
  <path
    d="M9.625 6.125C10.1082 6.125 10.5 6.51675 10.5 7C10.5 7.48325 10.1082 7.875 9.625 7.875C9.14175 7.875 8.75 7.48325 8.75 7C8.75 6.51675 9.14175 6.125 9.625 6.125Z"
    fill="currentColor" />
  <path fill-rule="evenodd" clip-rule="evenodd"
    d="M7 0.21875C10.7452 0.21875 13.7812 3.25482 13.7812 7C13.7812 10.7452 10.7452 13.7812 7 13.7812C3.25482 13.7812 0.21875 10.7452 0.21875 7C0.21875 3.25482 3.25482 0.21875 7 0.21875ZM7 1.53125C3.97969 1.53125 1.53125 3.97969 1.53125 7C1.53125 10.0203 3.97969 12.4688 7 12.4688C10.0203 12.4688 12.4688 10.0203 12.4688 7C12.4688 3.97969 10.0203 1.53125 7 1.53125Z"
    fill="currentColor" />
</svg>