<svg viewBox="0 0 20 20" fill="none" xmlns="http://www.w3.org/2000/svg">
  <path
    d="M10.4219 0.409668H10.4229C10.4235 0.410263 10.4252 0.411236 10.4268 0.412598C10.4299 0.415325 10.4349 0.419731 10.4414 0.425293C10.4547 0.436642 10.4748 0.453953 10.501 0.476074C10.5535 0.520456 10.6308 0.585342 10.7285 0.665527C10.9248 0.826539 11.2027 1.04964 11.5264 1.29443C12.1822 1.79036 12.9962 2.35335 13.6992 2.69482C14.4068 3.03849 15.4563 3.37886 16.3584 3.63818C16.8033 3.76609 17.202 3.87153 17.4893 3.94482C17.6326 3.98139 17.748 4.0095 17.8271 4.02881C17.8667 4.03846 17.8976 4.04639 17.918 4.05127C17.9278 4.05362 17.9354 4.05496 17.9404 4.05615C17.9429 4.05675 17.9451 4.05783 17.9463 4.05811H17.9482L18.4453 4.17529V11.6167C18.4453 13.4714 17.4968 15.1978 15.9316 16.1929L10.001 19.9634L4.06934 16.1929C2.50417 15.1978 1.55566 13.4714 1.55566 11.6167V4.17529L2.05371 4.05811H2.05469C2.05586 4.05783 2.05804 4.05675 2.06055 4.05615C2.06553 4.05497 2.07313 4.05363 2.08301 4.05127C2.10342 4.04639 2.13424 4.03846 2.17383 4.02881C2.25298 4.0095 2.36839 3.98139 2.51172 3.94482C2.79893 3.87154 3.19769 3.76607 3.64258 3.63818C4.54479 3.37882 5.59512 3.03855 6.30273 2.69482C7.00562 2.35335 7.81891 1.79027 8.47461 1.29443C8.79832 1.04964 9.07614 0.826539 9.27246 0.665527C9.37021 0.585353 9.44742 0.520468 9.5 0.476074C9.52631 0.453858 9.54727 0.436642 9.56055 0.425293C9.56703 0.419751 9.57208 0.415279 9.5752 0.412598C9.57663 0.411362 9.57748 0.410226 9.57812 0.409668H9.5791L10.001 0.0444336L10.4219 0.409668ZM10.001 12.4634C9.4426 12.4634 8.98934 12.9158 8.98926 13.4741C8.98926 14.0325 9.44256 14.4858 10.001 14.4858C10.5592 14.4856 11.0117 14.0324 11.0117 13.4741C11.0116 12.9159 10.5591 12.4636 10.001 12.4634ZM9.49414 5.70752C9.02599 5.70752 8.66416 6.1181 8.72266 6.58252L9.23633 10.6499C9.28559 11.0385 9.61997 11.3296 10.0117 11.3296C10.4034 11.3296 10.7368 11.0384 10.7861 10.6499L11.3008 6.58252C11.3593 6.11811 10.9974 5.70752 10.5293 5.70752H9.49414Z"
    fill="currentColor" />
  <path
    d="M10.4219 0.409668H10.4229C10.4235 0.410263 10.4252 0.411236 10.4268 0.412598C10.4299 0.415325 10.4349 0.419731 10.4414 0.425293C10.4547 0.436642 10.4748 0.453953 10.501 0.476074C10.5535 0.520456 10.6308 0.585342 10.7285 0.665527C10.9248 0.826539 11.2027 1.04964 11.5264 1.29443C12.1822 1.79036 12.9962 2.35335 13.6992 2.69482C14.4068 3.03849 15.4563 3.37886 16.3584 3.63818C16.8033 3.76609 17.202 3.87153 17.4893 3.94482C17.6326 3.98139 17.748 4.0095 17.8271 4.02881C17.8667 4.03846 17.8976 4.04639 17.918 4.05127C17.9278 4.05362 17.9354 4.05496 17.9404 4.05615C17.9429 4.05675 17.9451 4.05783 17.9463 4.05811H17.9482L18.4453 4.17529V11.6167C18.4453 13.4714 17.4968 15.1978 15.9316 16.1929L10.001 19.9634L4.06934 16.1929C2.50417 15.1978 1.55566 13.4714 1.55566 11.6167V4.17529L2.05371 4.05811H2.05469C2.05586 4.05783 2.05804 4.05675 2.06055 4.05615C2.06553 4.05497 2.07313 4.05363 2.08301 4.05127C2.10342 4.04639 2.13424 4.03846 2.17383 4.02881C2.25298 4.0095 2.36839 3.98139 2.51172 3.94482C2.79893 3.87154 3.19769 3.76607 3.64258 3.63818C4.54479 3.37882 5.59512 3.03855 6.30273 2.69482C7.00562 2.35335 7.81891 1.79027 8.47461 1.29443C8.79832 1.04964 9.07614 0.826539 9.27246 0.665527C9.37021 0.585353 9.44742 0.520468 9.5 0.476074C9.52631 0.453858 9.54727 0.436642 9.56055 0.425293C9.56703 0.419751 9.57208 0.415279 9.5752 0.412598C9.57663 0.411362 9.57748 0.410226 9.57812 0.409668H9.5791L10.001 0.0444336L10.4219 0.409668ZM10.001 12.4634C9.4426 12.4634 8.98934 12.9158 8.98926 13.4741C8.98926 14.0325 9.44256 14.4858 10.001 14.4858C10.5592 14.4856 11.0117 14.0324 11.0117 13.4741C11.0116 12.9159 10.5591 12.4636 10.001 12.4634ZM9.49414 5.70752C9.02599 5.70752 8.66416 6.1181 8.72266 6.58252L9.23633 10.6499C9.28559 11.0385 9.61997 11.3296 10.0117 11.3296C10.4034 11.3296 10.7368 11.0384 10.7861 10.6499L11.3008 6.58252C11.3593 6.11811 10.9974 5.70752 10.5293 5.70752H9.49414Z"
    fill="white" fill-opacity="0.2" />
</svg>