<svg xmlns="http://www.w3.org/2000/svg" viewBox="0 0 16 16">
  <g>
    <path
      d="M14,0 C15.1045695,0 16,0.8954305 16,2 L16,14 C16,15.1045695 15.1045695,16 14,16 L2,16 C0.8954305,16 0,15.1045695 0,14 L0,2 C0,0.8954305 0.8954305,0 2,0 L14,0 Z M14,1 L2,1 C1.44771525,1 1,1.44771525 1,2 L1,14 C1,14.5522847 1.44771525,15 2,15 L14,15 C14.5522847,15 15,14.5522847 15,14 L15,2 C15,1.44771525 14.5522847,1 14,1 Z"
      fill="currentColor"></path>
    <g transform="translate(2.5, 2.5)" fill="currentColor">
      <path
        d="M4.63783784,11 C4.23747748,10.6799716 3.90846847,10.4301934 3.65081081,10.2506652 C4.11855856,9.69646975 4.47333333,9.16959376 4.71513514,8.67003725 C4.9609009,8.15486961 5.13531532,7.56750044 5.23837838,6.90792975 C5.33351351,6.29519248 5.38504505,5.48926734 5.39297297,4.49015434 C5.4009009,3.45981905 5.40486486,1.96310094 5.40486486,0 L6.50486486,0 C6.50486486,2.11921235 6.5009009,3.63739578 6.49297297,4.55455029 C6.48900901,5.59659393 6.4354955,6.46106085 6.33243243,7.14795104 C6.22144144,7.89338301 6.03315315,8.56661345 5.76756757,9.16764236 C5.50594595,9.76476849 5.12936937,10.3755544 4.63783784,11 Z M6.50486486,10.3618946 L6.50486486,9.25545503 L8.24108108,9.25545503 L8.24108108,5.80734433 L6.95081081,5.80734433 L6.95081081,4.70090474 L8.24108108,4.70090474 L8.24108108,1.75039915 L6.92702703,1.75039915 L6.92702703,0.614688664 L10.7264865,0.614688664 L10.7264865,1.75039915 L9.37675676,1.75039915 L9.37675676,4.70090474 L10.6551351,4.70090474 L10.6551351,5.80734433 L9.37675676,5.80734433 L9.37675676,9.25545503 L11,9.25545503 L11,10.3618946 L6.50486486,10.3618946 Z M0.196216216,10.0399148 L0,8.81053752 C0.110990991,8.79492638 0.279459459,8.77346106 0.505405405,8.74614156 C0.88990991,8.69540536 1.17927928,8.65442611 1.37351351,8.62320383 L1.37351351,5.42682278 L0.208108108,5.42682278 L0.208108108,4.33209154 L1.37351351,4.33209154 L1.37351351,1.7621075 L0.148648649,1.7621075 L0.148648649,0.632251197 L3.73405405,0.632251197 L3.73405405,1.7621075 L2.48540541,1.7621075 L2.48540541,4.33209154 L3.50216216,4.33209154 L3.50216216,5.42682278 L2.48540541,5.42682278 L2.48540541,8.46514103 C2.72720721,8.43782154 3.09387387,8.38318254 3.58540541,8.30122406 C3.66864865,8.28561291 3.73207207,8.27390456 3.77567568,8.26609899 C3.76378378,8.65247472 3.77171171,9.03885045 3.79945946,9.42522618 C2.45171171,9.63987937 1.25063063,9.84477559 0.196216216,10.0399148 Z M4.60216216,6.83182544 C4.32468468,6.77328366 4.03135135,6.74401277 3.72216216,6.74401277 C3.85693694,5.16728756 3.94810811,3.58080539 3.99567568,1.98456626 L4.88756757,2.01969133 C4.78846847,4.09207025 4.69333333,5.69611495 4.60216216,6.83182544 Z">
      </path>
    </g>
  </g>
</svg>