<svg xmlns="http://www.w3.org/2000/svg" viewBox="0 0 34 16">
  <path
    d="M10.3766615,10.9998043 C9.78078075,10.3857165 9.35709372,9.72558194 9.10558766,9.01938093 L7.57042231,13.3947349 L6.07256469,13.3947349 L7.47845296,9.38783179 C6.80345256,10.1554416 5.73672825,11.0612076 4.27824805,12.1051569 L4.73071783,10.8155789 C6.1505611,9.52599441 7.36327761,8.15966948 8.36890375,6.71656306 L6.21573343,6.71656306 L6.55508577,5.74937956 L8.75506415,5.74937956 L9.27217248,4.27557612 L7.2594263,4.27557612 L7.59877864,3.30839262 L10.6413019,3.30839262 C11.4526455,3.30839262 12.2806934,3.21628083 13.1254703,3.03205448 L12.7699583,4.04529434 C11.9983656,4.1988163 11.3317295,4.27557612 10.7700301,4.27557612 L10.2529218,5.74937956 L12.312476,5.74937956 L11.9731237,6.71656306 L9.91356943,6.71656306 C9.9722728,7.88332995 10.2720705,8.89655968 10.8129716,9.75628265 L10.3766615,10.9998043 Z M11.4571614,13.2565658 L11.7965137,12.2893823 L12.6390586,12.2893823 C13.0027517,12.3200867 13.243847,12.166567 13.3623516,11.8288187 L16.4973208,2.8938854 L17.9015623,2.8938854 L14.7342738,11.9209314 C14.4218526,12.8113588 13.7975686,13.2565658 12.8614029,13.2565658 L11.4571614,13.2565658 Z M10.9205276,11.1840297 L13.5060692,3.81501255 L14.8635027,3.81501255 L12.2779611,11.1840297 L10.9205276,11.1840297 Z M19.3921876,4.78219605 L19.7153803,3.86106891 L21.7749346,3.86106891 C21.7470708,3.58472938 21.7719584,3.24698614 21.8495982,2.84782905 L23.4410719,2.84782905 C23.3742053,3.21628175 23.3337151,3.55402499 23.3196002,3.86106891 L26.0812752,3.86106891 C26.2922825,3.61543377 26.4887979,3.27769053 26.6708274,2.84782905 L28.2623012,2.84782905 C28.0598392,3.24698614 27.8633238,3.58472938 27.6727489,3.86106891 L29.6854951,3.86106891 L29.3623024,4.78219605 L24.9155376,4.78219605 C24.8520126,4.87430923 24.7513401,5.02782889 24.6135171,5.24275963 C24.4864672,5.42698598 24.3857947,5.58050563 24.3114966,5.7033232 L28.5242211,5.7033232 L28.2010284,6.62445035 L23.6606475,6.62445035 C23.5971226,6.71656352 23.465245,6.87008318 23.2650109,7.08501392 C23.0959823,7.29994466 22.9587183,7.46881629 22.8532147,7.59163385 L28.704221,7.59163385 L28.3810283,8.512761 L21.8747093,8.512761 C21.4861281,8.81980492 21.0609612,9.14219619 20.5991959,9.4799445 L27.0118988,9.4799445 L26.6887061,10.4010717 L23.8334151,10.4010717 L23.1870296,12.2433259 L26.9784817,12.2433259 L26.6876083,13.0723404 L17.3728062,13.0723404 L17.6636797,12.2433259 L21.7359801,12.2433259 L22.3823655,10.4010717 L19.6206905,10.4010717 L19.7661272,9.98656443 C18.8652567,10.5085391 17.8185905,11.0458579 16.6260972,11.5985369 L16.9816092,10.5852971 C18.2376275,9.94050485 19.3225561,9.2496664 20.2364275,8.512761 L17.6619847,8.512761 L17.9851774,7.59163385 L21.261741,7.59163385 C21.3672446,7.46881629 21.5201111,7.29994466 21.7203452,7.08501392 C21.8893738,6.87008318 22.0212514,6.71656352 22.1159819,6.62445035 L19.1202666,6.62445035 L19.4434593,5.7033232 L22.7668309,5.7033232 C22.7776041,5.67261881 22.8147526,5.61121095 22.8782775,5.51909777 C23.0053274,5.33487142 23.1539214,5.08923997 23.3240639,4.78219605 L19.3921876,4.78219605 Z M1.77463268,3.6029223 L2.19587835,2.44993815 C2.69485629,1.08419439 4.19285916,0 5.59268795,0 L16.0123726,0 L15.8493801,1.19103179 L5.42969547,1.19103179 C4.60110902,1.19103179 3.6432187,1.88431439 3.34111408,2.71119963 L2.91743268,3.87085056 L4.76158832,4.30321093 L0.584495463,8.58047675 L0,3.18686152 L1.77463268,3.6029223 Z M32.2253673,12.3970777 L31.8041216,13.5500619 C31.3051437,14.9158056 29.8071408,16 28.407312,16 L17.9876274,16 L18.1506199,14.8089682 L28.5703045,14.8089682 C29.398891,14.8089682 30.3567813,14.1156856 30.6588859,13.2888004 L31.0825673,12.1291494 L29.2384117,11.6967891 L33.4155045,7.41952325 L34,12.8131385 L32.2253673,12.3970777 Z" />
</svg>