<?xml version="1.0" standalone="no"?><!DOCTYPE svg PUBLIC "-//W3C//DTD SVG 1.1//EN" "http://www.w3.org/Graphics/SVG/1.1/DTD/svg11.dtd"><svg class="icon" width="200px" height="200.00px" viewBox="0 0 1024 1024" version="1.1" xmlns="http://www.w3.org/2000/svg"><path d="M512 85.312A53.312 53.312 0 1 0 512 192a53.312 53.312 0 0 0 0-106.688z m-138.688 53.376a138.688 138.688 0 1 1 277.376 0 138.688 138.688 0 0 1-277.376 0zM96 410.688c0-61.888 50.176-112 112-112h608a112 112 0 1 1 0 224h-112.128l77.824 350.208a106.688 106.688 0 0 1-104.128 129.792H586.176L512 733.76l-74.176 268.928H346.432a106.688 106.688 0 0 1-104.128-129.856l77.824-350.144H208a112 112 0 0 1-112-112zM208 384a26.688 26.688 0 0 0 0 53.312h218.496l-100.864 454.08a21.312 21.312 0 0 0 20.8 25.92h26.432L458.176 608h107.648l85.312 309.312h26.432a21.312 21.312 0 0 0 20.8-25.92L597.504 437.312h218.496a26.688 26.688 0 0 0 0-53.312h-608z" /></svg>