<svg width="12" height="12" viewBox="0 0 12 12" fill="none" xmlns="http://www.w3.org/2000/svg">
  <g clip-path="url(#clip0_8415_41799)">
    <path
      d="M11 6C11 3.23858 8.76142 1 6 1C3.23858 1 1 3.23858 1 6C1 8.76142 3.23858 11 6 11C8.76142 11 11 8.76142 11 6Z"
      fill="#0F2F50" />
    <path
      d="M6 1.50244C3.51472 1.50244 1.5 3.51716 1.5 6.00244C1.5 8.48772 3.51472 10.5024 6 10.5024C8.48528 10.5024 10.5 8.48772 10.5 6.00244C10.5 3.51716 8.48528 1.50244 6 1.50244ZM0.5 6.00244C0.5 2.96487 2.96243 0.502441 6 0.502441C9.03757 0.50244 11.5 2.96487 11.5 6.00244C11.5 9.04 9.03757 11.5024 6 11.5024C2.96243 11.5024 0.5 9.04001 0.5 6.00244ZM6.5 3.25244V5.50244H8.75V6.50244H6.5V8.75244H5.5V6.50244H3.25V5.50244H5.5V3.25244H6.5Z"
      fill="#1890FF" />
  </g>
  <defs>
    <clipPath id="clip0_8415_41799">
      <rect width="12" height="12" fill="white" />
    </clipPath>
  </defs>
</svg>