<svg width="16" height="16" viewBox="0 0 16 16" fill="currentColor" xmlns="http://www.w3.org/2000/svg">
  <path
    d="M8.00008 0.666626C3.94999 0.666626 0.666748 3.94987 0.666748 7.99996C0.666748 12.05 3.94999 15.3333 8.00008 15.3333C12.0502 15.3333 15.3334 12.05 15.3334 7.99996C15.3334 3.94987 12.0502 0.666626 8.00008 0.666626Z"
    fill-opacity="0.1" />
  <path
    d="M8.00008 0.666626C3.94999 0.666626 0.666748 3.94987 0.666748 7.99996C0.666748 12.05 3.94999 15.3333 8.00008 15.3333C12.0502 15.3333 15.3334 12.05 15.3334 7.99996C15.3334 3.94987 12.0502 0.666626 8.00008 0.666626ZM8.00008 1.66663C11.4979 1.66663 14.3334 4.50216 14.3334 7.99996C14.3334 11.4978 11.4979 14.3333 8.00008 14.3333C4.50228 14.3333 1.66675 11.4978 1.66675 7.99996C1.66675 4.50216 4.50228 1.66663 8.00008 1.66663Z"
    fill-opacity="0.2" fill-rule="evenodd" clip-rule="evenodd" />
  <path d="M8.66659 8.83337H7.33325H4.33325V7.33337H7.33325H8.66659H11.6666V8.83337H8.66659Z" />
  <path
    d="M8.75 7.41667L8.75 8.75L8.75 11.75L7.25 11.75L7.25 8.75L7.25 7.41667L7.25 4.41667L8.75 4.41667L8.75 7.41667Z" />
</svg>