<?xml version="1.0" standalone="no"?><!DOCTYPE svg PUBLIC "-//W3C//DTD SVG 1.1//EN" "http://www.w3.org/Graphics/SVG/1.1/DTD/svg11.dtd"><svg class="icon" width="200px" height="200.00px" viewBox="0 0 1024 1024" version="1.1" xmlns="http://www.w3.org/2000/svg"><path d="M128 256a170.688 170.688 0 0 1 170.688-170.688H896v853.376H298.688A170.688 170.688 0 0 1 128 768V256z m85.312 364.16a169.856 169.856 0 0 1 85.376-22.848h512V170.688h-85.376v288.64L576 369.728l-149.312 89.6v-288.64h-128c-47.168 0-85.376 38.208-85.376 85.312v364.16z m597.376 62.528h-512a85.312 85.312 0 1 0 0 170.624h512v-170.624z m-170.688-512H512v137.984l64-38.4 64 38.4V170.688z" /></svg>