<?xml version="1.0" standalone="no"?><!DOCTYPE svg PUBLIC "-//W3C//DTD SVG 1.1//EN" "http://www.w3.org/Graphics/SVG/1.1/DTD/svg11.dtd"><svg class="icon" width="200px" height="200.00px" viewBox="0 0 1024 1024" version="1.1" xmlns="http://www.w3.org/2000/svg"><path d="M220.608 170.688a128 128 0 0 1 241.408 0h476.608V256H462.08a128 128 0 0 1-241.408 0H85.312V170.688h135.296zM561.92 469.312a128 128 0 0 1 241.472 0h135.232v85.376h-135.296a128 128 0 0 1-241.408 0H85.312V469.312H561.92zM220.608 768a128 128 0 0 1 241.408 0h476.608v85.312H462.08a128 128 0 0 1-241.408 0H85.312V768h135.296z" /></svg>