<?xml version="1.0" standalone="no"?><!DOCTYPE svg PUBLIC "-//W3C//DTD SVG 1.1//EN" "http://www.w3.org/Graphics/SVG/1.1/DTD/svg11.dtd"><svg class="icon" width="200px" height="200.00px" viewBox="0 0 1024 1024" version="1.1" xmlns="http://www.w3.org/2000/svg"><path d="M900.544 131.136l-41.664-15.168a62.848 62.848 0 0 0-60.992-48.768 62.08 62.08 0 0 0-62.08 62.464 62.464 62.464 0 0 0 62.528 62.528c16.128 0 30.72-6.208 42.112-16.64l39.296 14.272c26.56 9.472 49.728 45.888 49.728 77.12v553.856c0 31.232-23.232 67.2-49.728 76.672l-35.52 12.288a62.08 62.08 0 0 0-103.168 66.112 62.528 62.528 0 0 0 57.792 38.528 61.76 61.76 0 0 0 58.688-42.624l43.072-15.168c51.584-17.92 91.328-77.568 91.328-135.36V267.392c-0.96-58.24-40.256-117.76-91.392-136.32zM237.44 889.472a61.824 61.824 0 0 0-48.32 23.168l-44.928-15.616c-26.56-8.96-50.24-41.664-50.24-69.632v-567.04c0-27.968 23.68-61.056 50.24-70.528l47.744-17.088a62.144 62.144 0 0 0 68.928 14.272 62.4 62.4 0 0 0 0.32-115.2 61.632 61.632 0 0 0-82.944 39.872l-54.912 19.392C72.64 149.568 32 206.4 32 260.352v567.04c0 54.016 40.704 110.784 91.84 128.32l55.872 19.392a62.272 62.272 0 0 0 81.664 33.6 62.4 62.4 0 0 0 38.528-57.728 62.272 62.272 0 0 0-62.464-61.504zM426.24 562.176l80.512-189.824L592 562.176H426.304z m260.864 213.504l110.72 0.448-247.04-548.608-91.392 0.896-232.384 547.712 109.312-1.408 47.808-112.64h252.352l50.56 113.6z" /></svg>