<?xml version="1.0" standalone="no"?><!DOCTYPE svg PUBLIC "-//W3C//DTD SVG 1.1//EN" "http://www.w3.org/Graphics/SVG/1.1/DTD/svg11.dtd"><svg class="icon" width="200px" height="200.00px" viewBox="0 0 1024 1024" version="1.1" xmlns="http://www.w3.org/2000/svg"><path d="M981.376 128H42.688v725.312H339.84L512 681.152l172.224 172.16h297.152V128zM723.2 485.696a298.688 298.688 0 0 0-422.4 0l-30.144 30.08-60.352-60.288 30.144-30.144a384 384 0 0 1 543.04 0l30.208 30.144-60.352 60.352-30.144-30.144zM602.56 606.336a128 128 0 0 0-181.056 0l-30.144 30.144-60.352-60.288 30.208-30.208a213.312 213.312 0 0 1 301.696 0l30.144 30.208-60.352 60.288-30.144-30.144zM679.04 938.688L512 771.648l-166.976 167.04h334.016z" /></svg>