<?xml version="1.0" standalone="no"?><!DOCTYPE svg PUBLIC "-//W3C//DTD SVG 1.1//EN" "http://www.w3.org/Graphics/SVG/1.1/DTD/svg11.dtd"><svg class="icon" width="200px" height="200.00px" viewBox="0 0 1024 1024" version="1.1" xmlns="http://www.w3.org/2000/svg"><path d="M42.688 128h938.688v725.312h-234.688V768H896V213.312H128L128.064 768h149.312v85.312H42.752L42.688 128z m680.576 443.008a298.688 298.688 0 0 0-422.4 0l-30.144 30.144-60.352-60.288 30.144-30.208a384 384 0 0 1 543.04 0l30.208 30.208-60.352 60.288-30.144-30.144z m-120.704 120.64a128 128 0 0 0-181.056 0l-30.144 30.208-60.352-60.352 30.208-30.144a213.312 213.312 0 0 1 301.696 0l30.144 30.08-60.352 60.416-30.144-30.208zM512 771.648l167.04 167.04H344.96L512 771.648z" /></svg>