<?xml version="1.0" standalone="no"?><!DOCTYPE svg PUBLIC "-//W3C//DTD SVG 1.1//EN" "http://www.w3.org/Graphics/SVG/1.1/DTD/svg11.dtd"><svg class="icon" width="200px" height="200.00px" viewBox="0 0 1024 1024" version="1.1" xmlns="http://www.w3.org/2000/svg"><path d="M295.04 106.688L64 337.728l-60.288-60.416 231.04-231.04 60.288 60.416z m494.336-60.352l231.04 231.04-60.416 60.288-230.976-231.04 60.352-60.288zM512 213.376A341.312 341.312 0 1 0 512 896 341.312 341.312 0 0 0 512 213.312zM85.376 554.624a426.688 426.688 0 1 1 853.312 0 426.688 426.688 0 0 1-853.312 0zM554.688 320v216.96l145.664 145.728-60.352 60.352-170.624-170.688V320h85.312z" /></svg>