<?xml version="1.0" standalone="no"?><!DOCTYPE svg PUBLIC "-//W3C//DTD SVG 1.1//EN" "http://www.w3.org/Graphics/SVG/1.1/DTD/svg11.dtd"><svg class="icon" width="200px" height="200.00px" viewBox="0 0 1024 1024" version="1.1" xmlns="http://www.w3.org/2000/svg"><path d="M3.712 277.312l106.624-106.624L25.024 85.312l60.352-60.288 85.312 85.312 64-64 60.352 60.352-64 64 768 768-60.352 60.352-133.888-133.952A426.688 426.688 0 0 1 201.6 261.952l-30.976-30.976L64 337.664l-60.288-60.352z m258.304 44.992a341.312 341.312 0 0 0 482.368 482.368L262.016 322.304z m103.296-170.688l41.344-10.496a426.688 426.688 0 0 1 518.912 518.912l-10.496 41.344-82.752-20.992 10.56-41.344a341.312 341.312 0 0 0-415.168-415.168l-41.408 10.432-20.992-82.688zM789.376 46.336l231.04 231.04-60.416 60.288-230.976-231.04 60.352-60.288z" /></svg>