<?xml version="1.0" standalone="no"?><!DOCTYPE svg PUBLIC "-//W3C//DTD SVG 1.1//EN" "http://www.w3.org/Graphics/SVG/1.1/DTD/svg11.dtd"><svg class="icon" width="200px" height="200.00px" viewBox="0 0 1024 1024" version="1.1" xmlns="http://www.w3.org/2000/svg"><path d="M554.688 280.96V0H469.312v281.024l-55.168-55.168L384 195.648 323.648 256l30.208 30.144 128 128L512 444.352l30.144-30.208 128-128L700.352 256 640 195.648l-30.144 30.208-55.168 55.168zM896 554.752H128V469.312h768v85.376z m-384 24.96l30.144 30.208 128 128 30.208 30.144-60.352 60.352-30.144-30.208-55.168-55.104V1024H469.312V743.04l-55.168 55.104-30.144 30.208L323.648 768l30.208-30.144 128-128L512 579.648z" /></svg>