<?xml version="1.0" standalone="no"?><!DOCTYPE svg PUBLIC "-//W3C//DTD SVG 1.1//EN" "http://www.w3.org/Graphics/SVG/1.1/DTD/svg11.dtd"><svg class="icon" width="200px" height="200.00px" viewBox="0 0 1024 1024" version="1.1" xmlns="http://www.w3.org/2000/svg"><path d="M473.152 300.992l4.736-19.648 2.432-7.68 15.808-35.904a213.312 213.312 0 1 1 276.992 296.896l-22.72 9.024a207.744 207.744 0 0 1-4.992 1.6l-21.824 5.504a213.312 213.312 0 0 1-250.432-249.792zM404.096 233.408a299.648 299.648 0 0 0-170.688 170.688 298.752 298.752 0 1 0 386.56 386.496c5.568-2.176 11.136-4.48 16.64-7.04l14.4-5.76-0.448-1.152a299.776 299.776 0 0 0 140.032-156.736c5.632-2.176 11.2-4.48 16.704-7.04l14.336-5.76-0.448-1.088a298.688 298.688 0 1 0-417.088-372.544zM682.688 640a214.272 214.272 0 0 1-80.32 65.28l-22.592 9.088a203.968 203.968 0 0 1-5.12 1.6l-21.632 5.44A213.312 213.312 0 0 1 302.528 471.68l4.736-19.648c0.704-2.624 1.536-5.184 2.368-7.744l15.872-35.904c14.592-26.24 34.56-49.152 58.496-67.072A298.688 298.688 0 0 0 682.688 640zM213.376 512A298.688 298.688 0 0 0 512 810.688 213.312 213.312 0 1 1 213.376 512z" /></svg>