<?xml version="1.0" standalone="no"?><!DOCTYPE svg PUBLIC "-//W3C//DTD SVG 1.1//EN" "http://www.w3.org/Graphics/SVG/1.1/DTD/svg11.dtd"><svg class="icon" width="200px" height="200.00px" viewBox="0 0 1024 1024" version="1.1" xmlns="http://www.w3.org/2000/svg"><path d="M488.327529 2.409412l149.202824 247.92847 281.901176 65.295059-189.741176 218.473412 25.057882 288.286118-266.420706-112.880942-266.420705 112.880942 24.997647-288.286118L57.223529 315.632941l281.901177-65.295059L488.327529 2.469647z m0 155.76847L390.324706 320.933647l-185.042824 42.827294 124.506353 143.36-16.384 189.259294 174.863059-74.089411 174.863059 74.089411-16.444235-189.199059 124.506353-143.420235-185.042824-42.827294-97.882353-162.755765z m379.602824 404.48l99.388235 99.388236-56.801882 56.801882-99.388235-99.388235 56.801882-56.801883z m-333.221647 245.579294l99.388235 99.388236-56.801882 56.801882-99.388235-99.388235 56.801882-56.801883z m264.192 0l99.388235 99.388236-56.801882 56.801882-99.388235-99.388235 56.801882-56.801883z" /></svg>