<?xml version="1.0" standalone="no"?><!DOCTYPE svg PUBLIC "-//W3C//DTD SVG 1.1//EN" "http://www.w3.org/Graphics/SVG/1.1/DTD/svg11.dtd"><svg class="icon" width="200px" height="200.00px" viewBox="0 0 1024 1024" version="1.1" xmlns="http://www.w3.org/2000/svg"><path d="M24.96 512l188.352-188.352 60.352 60.352-128 128 128 128-60.352 60.352L25.024 512z m298.688-298.688L512 25.024l188.352 188.288-60.352 60.352-128-128-128 128-60.352-60.352zM384 750.272l128 128 128-128 60.352 60.416L512 999.04l-188.352-188.352 60.352-60.352z m85.248-195.52V469.248h85.504v85.504H469.248zM750.336 640l128-128-128-128 60.352-60.352L999.04 512l-188.352 188.352-60.352-60.352z" /></svg>