<?xml version="1.0" standalone="no"?><!DOCTYPE svg PUBLIC "-//W3C//DTD SVG 1.1//EN" "http://www.w3.org/Graphics/SVG/1.1/DTD/svg11.dtd"><svg class="icon" width="200px" height="200.00px" viewBox="0 0 1024 1024" version="1.1" xmlns="http://www.w3.org/2000/svg"><path d="M85.312 85.312h384v384h-384v-384z m85.312 85.376V384H384V170.688H170.624z m576 0a106.688 106.688 0 1 0 0 213.312 106.688 106.688 0 0 0 0-213.312z m-192 106.624a192 192 0 1 1 384 0 192 192 0 0 1-384 0zM85.312 554.688h384v384h-384v-384zM170.624 640v213.312H384V640H170.624z m384-85.312h384v384h-384v-384zM640 640v213.312h213.312V640H640z" /></svg>