<?xml version="1.0" standalone="no"?><!DOCTYPE svg PUBLIC "-//W3C//DTD SVG 1.1//EN" "http://www.w3.org/Graphics/SVG/1.1/DTD/svg11.dtd"><svg class="icon" width="200px" height="200.00px" viewBox="0 0 1024 1024" version="1.1" xmlns="http://www.w3.org/2000/svg"><path d="M512 14.272l34.24 45.696 0.512 0.64 2.112 2.816 8.128 10.624a3303.744 3303.744 0 0 0 125.76 153.856c36.864 42.24 75.52 83.328 109.568 113.536 17.088 15.232 32 26.752 44.16 34.24 10.24 6.272 15.488 7.808 16.768 8.192v-42.496h85.376V384c0 17.344-4.48 38.912-19.456 56.832-16.128 19.2-39.68 28.544-65.92 28.544H170.688c-26.24 0-49.728-9.344-65.856-28.544a88 88 0 0 1-19.52-56.64l-0.192-42.688 85.312-0.32 0.192 42.688h0.128c1.28-0.384 6.592-1.92 16.768-8.192 12.16-7.488 27.072-19.008 44.16-34.24 34.048-30.208 72.64-71.36 109.568-113.536A3132.736 3132.736 0 0 0 475.072 63.424l2.112-2.752 0.512-0.704 34.24-45.696zM170.624 554.688v298.688H85.312v85.312H384v-128a128 128 0 1 1 256 0v128h298.624v-85.312h-85.312V554.688H170.624zM512 768a42.688 42.688 0 0 0-42.688 42.688v128h85.376v-128A42.688 42.688 0 0 0 512 768z" /></svg>