<?xml version="1.0" standalone="no"?><!DOCTYPE svg PUBLIC "-//W3C//DTD SVG 1.1//EN" "http://www.w3.org/Graphics/SVG/1.1/DTD/svg11.dtd"><svg class="icon" width="200px" height="200.00px" viewBox="0 0 1024 1024" version="1.1" xmlns="http://www.w3.org/2000/svg"><path d="M512 896A384 384 0 1 0 512 128a384 384 0 0 0 0 768z m469.376-384A469.312 469.312 0 1 1 42.688 512a469.312 469.312 0 0 1 938.688 0zM640 807.04L472.96 640l60.416-60.352 64 64v-216.96h85.312v216.96l64-64 60.352 60.352L640 807.04zM341.376 597.248v-216.96l-64 64L216.96 384 384 216.96 551.04 384l-60.352 60.352-64-64v216.96H341.376z" /></svg>