<?xml version="1.0" standalone="no"?><!DOCTYPE svg PUBLIC "-//W3C//DTD SVG 1.1//EN" "http://www.w3.org/Graphics/SVG/1.1/DTD/svg11.dtd"><svg class="icon" width="200px" height="200.00px" viewBox="0 0 1024 1024" version="1.1" xmlns="http://www.w3.org/2000/svg"><path d="M128 512a384 384 0 1 0 768 0A384 384 0 0 0 128 512z m384 469.312A469.312 469.312 0 1 1 512 42.688a469.312 469.312 0 0 1 0 938.624zM216.96 640L384 472.96l60.352 60.352-64 64h216.96v85.376h-216.96l64 64L384 807.04 216.96 640z m209.728-298.688h216.96l-64-64L640 217.024 807.04 384 640 551.04l-60.288-60.352 64-64H426.624V341.312z" /></svg>