<?xml version="1.0" standalone="no"?><!DOCTYPE svg PUBLIC "-//W3C//DTD SVG 1.1//EN" "http://www.w3.org/Graphics/SVG/1.1/DTD/svg11.dtd"><svg class="icon" width="200px" height="200.00px" viewBox="0 0 1024 1024" version="1.1" xmlns="http://www.w3.org/2000/svg"><path d="M106.688 85.312h282.752A149.12 149.12 0 0 1 512 21.312a149.12 149.12 0 0 1 122.56 64h282.816v853.376H106.688V85.312z m85.312 768h640V170.688H581.888l-11.2-25.6a64 64 0 0 0-117.376 0l-11.136 25.6H192v682.624zM238.336 512l167.04-167.04 60.288 60.352L359.04 512l106.624 106.688-60.288 60.352L238.336 512z m380.352-167.04L785.728 512l-167.04 167.04-60.352-60.352L665.024 512 558.336 405.312l60.352-60.288z" /></svg>