<?xml version="1.0" standalone="no"?><!DOCTYPE svg PUBLIC "-//W3C//DTD SVG 1.1//EN" "http://www.w3.org/Graphics/SVG/1.1/DTD/svg11.dtd"><svg class="icon" width="200px" height="200.00px" viewBox="0 0 1024 1024" version="1.1" xmlns="http://www.w3.org/2000/svg"><path d="M512 106.688a64 64 0 0 0-58.688 38.4l-11.136 25.6H192v682.624h640V170.688H581.888l-11.2-25.6a64 64 0 0 0-58.688-38.4z m-122.56-21.376A149.12 149.12 0 0 1 512 21.312a149.12 149.12 0 0 1 122.56 64h282.816v853.376H106.688V85.312h282.752z m363.968 323.712l-301.696 301.696-181.056-181.056 60.352-60.352L451.712 590.08l241.344-241.344 60.352 60.352z" /></svg>