<?xml version="1.0" standalone="no"?><!DOCTYPE svg PUBLIC "-//W3C//DTD SVG 1.1//EN" "http://www.w3.org/Graphics/SVG/1.1/DTD/svg11.dtd"><svg class="icon" width="200px" height="200.00px" viewBox="0 0 1024 1024" version="1.1" xmlns="http://www.w3.org/2000/svg"><path d="M512 106.688a64 64 0 0 0-58.688 38.4l-11.136 25.6H192v682.624h640V170.688H581.888l-11.2-25.6a64 64 0 0 0-58.688-38.4z m-122.56-21.376A149.12 149.12 0 0 1 512 21.312a149.12 149.12 0 0 1 122.56 64h282.816v853.376H106.688V85.312h282.752zM554.688 320v256H469.376V320h85.312zM469.376 639.808H554.88v85.504H469.376V639.808z" /></svg>