<?xml version="1.0" standalone="no"?><!DOCTYPE svg PUBLIC "-//W3C//DTD SVG 1.1//EN" "http://www.w3.org/Graphics/SVG/1.1/DTD/svg11.dtd"><svg class="icon" width="200px" height="200.00px" viewBox="0 0 1024 1024" version="1.1" xmlns="http://www.w3.org/2000/svg"><path d="M482.752 132.864a213.312 213.312 0 0 1 301.696 301.696L452.48 766.464a128 128 0 0 1-180.992-181.056l331.84-331.84 60.352 60.352-331.904 331.84a42.688 42.688 0 1 0 60.352 60.352l331.904-331.84a128 128 0 0 0-181.056-181.056L211.2 525.12a213.312 213.312 0 0 0 301.696 301.696l362.048-362.048 60.352 60.352-362.048 361.984a298.688 298.688 0 0 1-422.4-422.4l331.904-331.84z" /></svg>