<?xml version="1.0" standalone="no"?><!DOCTYPE svg PUBLIC "-//W3C//DTD SVG 1.1//EN" "http://www.w3.org/Graphics/SVG/1.1/DTD/svg11.dtd"><svg class="icon" width="200px" height="200.00px" viewBox="0 0 1024 1024" version="1.1" xmlns="http://www.w3.org/2000/svg"><path d="M512 12.544l34.56 47.808 0.064 0.128 0.384 0.448 1.408 1.92 5.696 7.744a2325.44 2325.44 0 0 0 94.464 118.4c29.248 34.176 61.824 69.952 94.08 100.8 32.768 31.36 63.168 55.744 88.192 69.184 16.384 8.832 30.848 15.36 42.752 19.584 12.544 4.48 19.712 5.44 22.4 5.44h42.624v85.312h-43.136a145.216 145.216 0 0 1-42.176-7.552v7.616H170.624v-7.616a145.216 145.216 0 0 1-42.24 7.616h-43.072V384H128c2.624 0 9.792-0.96 22.336-5.44 11.904-4.224 26.368-10.752 42.752-19.584 25.024-13.44 55.488-37.824 88.192-69.12a1420.544 1420.544 0 0 0 94.08-100.928A2324.48 2324.48 0 0 0 475.52 62.848l1.472-1.92 0.32-0.448 0.128-0.128L512 12.544zM170.624 554.688v298.688H85.312v85.312H384v-128a128 128 0 1 1 256 0v128h298.624v-85.312h-85.312V554.688H170.624zM512 768a42.688 42.688 0 0 0-42.688 42.688v128h85.312v-128A42.688 42.688 0 0 0 512 768z" /></svg>