<?xml version="1.0" standalone="no"?><!DOCTYPE svg PUBLIC "-//W3C//DTD SVG 1.1//EN" "http://www.w3.org/Graphics/SVG/1.1/DTD/svg11.dtd"><svg class="icon" width="200px" height="200.00px" viewBox="0 0 1024 1024" version="1.1" xmlns="http://www.w3.org/2000/svg"><path d="M476.544 61.632L512 8.576l35.456 53.056 0.256 0.32 0.832 1.28 3.712 5.312a1175.808 1175.808 0 0 0 68.288 87.04c45.696 52.864 105.92 112.64 168.704 148.8 19.84 11.456 40.768 15.616 64 15.616H896v85.312h-42.688c-13.888 0-28.16-1.024-42.624-3.648v323.648h85.312v85.376h-42.688v128H768v-128H554.624v128H469.248v-128H256v128H170.624v-128h-42.688v-85.376h85.44l-0.064-323.648c-14.528 2.624-28.8 3.648-42.688 3.648h-42.688V320h42.688c23.232 0 44.16-4.16 64-15.616 62.784-36.16 123.072-95.872 168.832-148.736A1175.936 1175.936 0 0 0 475.456 63.232l0.896-1.28 0.192-0.32zM298.624 384l0.064 341.312H384V631.488a128 128 0 1 1 256 0v93.824h85.248V384H298.624z m341.696-85.312c-32-29.184-60.608-59.84-84.352-87.232A1264.96 1264.96 0 0 1 512 157.632c-12.096 15.616-26.88 34.048-44.032 53.824-23.68 27.392-52.352 58.048-84.288 87.232h256.64z m-85.632 426.624V631.488a42.688 42.688 0 0 0-85.376 0v93.824h85.376z" /></svg>