<?xml version="1.0" standalone="no"?><!DOCTYPE svg PUBLIC "-//W3C//DTD SVG 1.1//EN" "http://www.w3.org/Graphics/SVG/1.1/DTD/svg11.dtd"><svg class="icon" width="200px" height="200.00px" viewBox="0 0 1024 1024" version="1.1" xmlns="http://www.w3.org/2000/svg"><path d="M546.56 60.352L512 12.544l-34.56 47.808-0.128 0.128-0.32 0.448-1.472 1.92a1366.912 1366.912 0 0 1-27.072 35.968c-18.304 23.68-43.84 55.936-73.088 90.112a1420.544 1420.544 0 0 1-94.08 100.864c-32.704 31.36-63.168 55.744-88.192 69.184-16.384 8.832-30.848 15.36-42.752 19.584-12.544 4.48-19.712 5.44-22.4 5.44h-42.624v85.376H128c13.952 0 28.608-3.2 42.624-7.616v391.616H85.312v85.312h853.312v-85.312h-85.312V461.76c14.016 4.48 28.672 7.616 42.688 7.616h42.624V384H896c-2.688 0-9.856-0.96-22.4-5.44a318.336 318.336 0 0 1-42.752-19.584c-24.96-13.44-55.424-37.824-88.192-69.12a1420.672 1420.672 0 0 1-94.08-100.928A2325.44 2325.44 0 0 1 548.416 62.848l-1.408-1.92L546.56 60.48 546.56 60.352zM719.616 384H304.32c12.16-10.304 24.192-21.312 35.968-32.576A1504.768 1504.768 0 0 0 440.32 244.48c28.288-33.088 53.12-64.32 71.68-88.256 18.56 23.936 43.52 55.168 71.808 88.256a1504.64 1504.64 0 0 0 99.904 107.008c11.776 11.264 23.808 22.272 35.968 32.64zM256 469.376h512v384h-128v-128a128 128 0 1 0-256 0v128H256v-384z m213.312 384v-128a42.688 42.688 0 1 1 85.312 0v128H469.312z" /></svg>