<?xml version="1.0" standalone="no"?><!DOCTYPE svg PUBLIC "-//W3C//DTD SVG 1.1//EN" "http://www.w3.org/Graphics/SVG/1.1/DTD/svg11.dtd"><svg class="icon" width="200px" height="200.00px" viewBox="0 0 1024 1024" version="1.1" xmlns="http://www.w3.org/2000/svg"><path d="M512 8.576l-35.456 53.056-0.192 0.32-0.896 1.28a926.4 926.4 0 0 1-18.304 25.472c-12.8 17.152-31.168 40.832-53.76 66.944-45.696 52.864-105.984 112.576-168.768 148.736-19.84 11.456-40.768 15.616-64 15.616h-42.688v85.312h85.312l0.128 320H127.936v85.312h42.688v128h85.312v-128h213.312v128h85.376v-128h213.312v128h85.312v-128H896v-85.312h-85.312v-320h85.312V320h-42.688c-23.232 0-44.16-4.16-64-15.616-62.72-36.224-123.008-95.936-168.704-148.736A1176.128 1176.128 0 0 1 548.48 63.232l-0.832-1.28-0.256-0.32L512 8.576z m-128 588.8a128 128 0 1 1 256 0v128H554.688v-128a42.688 42.688 0 1 0-85.312 0v128H384v-128z" /></svg>