<?xml version="1.0" standalone="no"?><!DOCTYPE svg PUBLIC "-//W3C//DTD SVG 1.1//EN" "http://www.w3.org/Graphics/SVG/1.1/DTD/svg11.dtd"><svg class="icon" width="200px" height="200.00px" viewBox="0 0 1024 1024" version="1.1" xmlns="http://www.w3.org/2000/svg"><path d="M512.3136 170.688A234.688 234.688 0 0 0 278.0736 390.4l-2.048 33.408-32.896 5.952a192.064 192.064 0 0 0 34.56 380.928h469.312a192 192 0 0 0 34.496-380.928l-32.896-5.952-2.112-33.408A234.688 234.688 0 0 0 512.3136 170.688zM196.5376 353.408a320.064 320.064 0 0 1 631.552 0A277.44 277.44 0 0 1 747.0016 896H277.6256a277.312 277.312 0 0 1-81.088-542.592zM512.3136 302.336l188.352 188.352-60.352 60.288-85.312-85.312v259.648H469.6256V465.664L384.3136 551.04l-60.352-60.288L512.3136 302.336z" /></svg>