<?xml version="1.0" standalone="no"?><!DOCTYPE svg PUBLIC "-//W3C//DTD SVG 1.1//EN" "http://www.w3.org/Graphics/SVG/1.1/DTD/svg11.dtd"><svg class="icon" width="200px" height="200.00px" viewBox="0 0 1024 1024" version="1.1" xmlns="http://www.w3.org/2000/svg"><path d="M512 128a384 384 0 1 0 0 768A384 384 0 0 0 512 128zM42.688 512a469.312 469.312 0 1 1 938.688 0A469.312 469.312 0 0 1 42.688 512z m246.144-164.928l147.84 85.312-42.688 73.92-147.84-85.376 42.688-73.856z m489.152 73.856l-147.84 85.376-42.688-73.92 147.84-85.312 42.688 73.856z m-479.296 133.76h426.688v42.624a213.312 213.312 0 0 1-426.688 0v-42.624zM391.296 640a128 128 0 0 0 241.472 0H391.296z" /></svg>