<?xml version="1.0" standalone="no"?><!DOCTYPE svg PUBLIC "-//W3C//DTD SVG 1.1//EN" "http://www.w3.org/Graphics/SVG/1.1/DTD/svg11.dtd"><svg class="icon" width="200px" height="200.00px" viewBox="0 0 1024 1024" version="1.1" xmlns="http://www.w3.org/2000/svg"><path d="M270.72 167.68l-30.208 30.144a384 384 0 0 0 0 543.04l30.144 30.208-60.352 60.352-30.144-30.208a469.312 469.312 0 0 1 0-663.68l30.144-30.208 60.352 60.352z m542.912-60.352l30.208 30.144a469.312 469.312 0 0 1 0 663.744l-30.208 30.208-60.288-60.352 30.144-30.208a384 384 0 0 0 0-543.04l-30.144-30.144 60.288-60.352zM406.4 303.424l-30.144 30.144a192 192 0 0 0 0 271.552l30.144 30.144-60.352 60.352-30.144-30.144a277.312 277.312 0 0 1 0-392.192l30.144-30.208 60.352 60.352z m271.488-60.352l30.208 30.144a277.376 277.376 0 0 1 0 392.256l-30.208 30.144-60.352-60.352 30.208-30.144a192 192 0 0 0 0-271.552l-30.208-30.144 60.352-60.352zM426.624 469.312a85.312 85.312 0 1 1 128 73.92v438.08H469.312V543.232a85.312 85.312 0 0 1-42.688-73.92z" /></svg>