<?xml version="1.0" standalone="no"?><!DOCTYPE svg PUBLIC "-//W3C//DTD SVG 1.1//EN" "http://www.w3.org/Graphics/SVG/1.1/DTD/svg11.dtd"><svg class="icon" width="200px" height="200.00px" viewBox="0 0 1024 1024" version="1.1" xmlns="http://www.w3.org/2000/svg"><path d="M128 213.312a128 128 0 1 1 174.336 119.36c5.44 28.48 17.536 64.256 39.872 96.256C373.44 473.728 424.896 512 512 512s138.56-38.272 169.792-83.072c22.272-32 34.432-67.84 39.872-96.256a128 128 0 1 1 86.144 2.368 341.888 341.888 0 0 1-56 142.72c-39.808 57.152-103.296 105.728-197.12 117.12v95.104a128 128 0 1 1-85.376 0V594.816c-93.824-11.328-157.312-59.904-197.12-117.12a341.888 341.888 0 0 1-56-142.656A128 128 0 0 1 128 213.312z" /></svg>