<?xml version="1.0" standalone="no"?><!DOCTYPE svg PUBLIC "-//W3C//DTD SVG 1.1//EN" "http://www.w3.org/Graphics/SVG/1.1/DTD/svg11.dtd"><svg class="icon" width="200px" height="200.00px" viewBox="0 0 1024 1024" version="1.1" xmlns="http://www.w3.org/2000/svg"><path d="M85.312 85.312h853.312v85.376H853.312V942.08l-69.312-55.424-78.592-62.848-69.12 61.44-28.288 25.152-28.352-25.152L512 825.088l-67.648 60.16-28.352 25.152-28.352-25.152-69.12-61.44-78.592 62.848-69.312 55.424V170.688H85.312V85.312zM256 170.688v593.92l37.312-29.952 28.16-22.4 26.88 23.872 67.648 60.16 67.648-60.16 28.352-25.216 28.352 25.216 67.648 60.16 67.648-60.16 26.88-23.936 28.16 22.464 37.312 29.888v-593.92H256z m85.312 128h341.312V384H341.312V298.688z m85.312 170.624H384v85.376h256V469.312H426.624z" /></svg>