<?xml version="1.0" standalone="no"?><!DOCTYPE svg PUBLIC "-//W3C//DTD SVG 1.1//EN" "http://www.w3.org/Graphics/SVG/1.1/DTD/svg11.dtd"><svg class="icon" width="200px" height="200.00px" viewBox="0 0 1024 1024" version="1.1" xmlns="http://www.w3.org/2000/svg"><path d="M384 85.312H42.688V896h42.688c125.568 0 219.264 10.496 280.96 20.736 30.848 5.12 53.76 10.24 68.672 14.016a455.168 455.168 0 0 1 20.096 5.504l0.768 0.256h0.064l6.464 2.176h99.2l6.464-2.176h0.128l0.704-0.256 3.712-1.152c3.52-0.96 8.96-2.56 16.448-4.352 14.912-3.776 37.76-8.832 68.672-14.016 61.696-10.24 155.328-20.736 280.96-20.736h42.688V85.312H640a170.24 170.24 0 0 0-128 57.792 170.24 170.24 0 0 0-128-57.792z m-256 725.76V170.688h256c47.168 0 85.376 38.208 85.376 85.312v595.52a972.16 972.16 0 0 0-88.96-18.944c-58.88-9.792-143.04-19.456-252.416-21.504zM682.688 448v42.688H597.376V448a128 128 0 0 1 256 0c0 28.8-7.36 53.12-20.224 72.96a126.08 126.08 0 0 1-43.904 40.576c-7.424 4.16-14.72 7.488-21.12 10.112v15.04H682.88V544c0-18.048 10.432-29.312 15.36-33.728 5.12-4.48 10.24-7.04 12.672-8.128 4.544-2.176 9.984-4.032 13.184-5.12l0.768-0.32c8.128-2.816 15.36-5.44 22.144-9.344a41.152 41.152 0 0 0 14.72-12.992c3.008-4.736 6.4-12.544 6.4-26.368a42.688 42.688 0 0 0-85.376 0z m85.504 170.688v85.504h-85.504V618.688h85.504z" /></svg>