<?xml version="1.0" standalone="no"?><!DOCTYPE svg PUBLIC "-//W3C//DTD SVG 1.1//EN" "http://www.w3.org/Graphics/SVG/1.1/DTD/svg11.dtd"><svg class="icon" width="200px" height="200.00px" viewBox="0 0 1024 1024" version="1.1" xmlns="http://www.w3.org/2000/svg"><path d="M42.688 85.312H384c51.008 0 96.768 22.4 128 57.792a170.24 170.24 0 0 1 128-57.792h341.376V896h-42.688c-125.632 0-219.264 10.496-280.96 20.736-30.912 5.12-53.76 10.24-68.672 14.016a428.992 428.992 0 0 0-20.16 5.504l-0.704 0.192h-0.128l-6.4 2.24h-99.2l-6.528-2.176h-0.064l-0.768-0.256a429.248 429.248 0 0 0-20.096-5.504c-14.912-3.776-37.76-8.896-68.672-14.016-61.696-10.24-155.392-20.736-280.96-20.736H42.688V85.312zM128 170.688v640.384c109.44 2.048 193.536 11.712 252.352 21.504a972.16 972.16 0 0 1 88.96 18.944V256c0-47.104-38.144-85.312-85.312-85.312H128zM554.688 256v595.52l13.632-3.584c17.088-4.288 42.24-9.856 75.328-15.36 58.88-9.792 142.976-19.456 252.352-21.504V170.688h-256c-47.104 0-85.312 38.208-85.312 85.312zM725.376 405.312a42.688 42.688 0 0 0-42.688 42.688v42.688H597.376V448a128 128 0 0 1 256 0c0 28.8-7.36 53.12-20.224 72.96a126.08 126.08 0 0 1-43.904 40.512c-7.424 4.224-14.72 7.552-21.12 10.176v15.04H682.88V544c0-18.112 10.432-29.312 15.36-33.728 5.12-4.48 10.24-7.04 12.672-8.192 4.544-2.112 9.984-4.032 13.184-5.12l0.768-0.256c8.128-2.816 15.36-5.44 22.144-9.344a41.088 41.088 0 0 0 14.72-12.992c3.008-4.736 6.4-12.544 6.4-26.368a42.688 42.688 0 0 0-42.688-42.688z m-42.688 213.376h85.504v85.44h-85.504V618.752z" /></svg>