<?xml version="1.0" standalone="no"?><!DOCTYPE svg PUBLIC "-//W3C//DTD SVG 1.1//EN" "http://www.w3.org/Graphics/SVG/1.1/DTD/svg11.dtd"><svg class="icon" width="200px" height="200.00px" viewBox="0 0 1024 1024" version="1.1" xmlns="http://www.w3.org/2000/svg"><path d="M384 85.312H42.688V896h42.688c125.568 0 219.264 10.496 280.96 20.736 30.848 5.12 53.76 10.24 68.672 14.016a455.168 455.168 0 0 1 20.096 5.504l0.768 0.256h0.064l6.464 2.176h99.2l6.464-2.176h0.128l0.704-0.256 3.712-1.152c3.52-0.96 8.96-2.56 16.448-4.352 14.912-3.776 37.76-8.832 68.672-14.016 61.696-10.24 155.328-20.736 280.96-20.736h42.688V85.312H640a170.24 170.24 0 0 0-128 57.792 170.24 170.24 0 0 0-128-57.792z m-256 725.76V170.688h256c47.168 0 85.376 38.208 85.376 85.312v595.52a972.16 972.16 0 0 0-88.96-18.944c-58.88-9.792-143.04-19.456-252.416-21.504z m682.688-384.384H640V341.312h170.688v85.376z m0 128H640V469.312h170.688v85.376z" /></svg>