<?xml version="1.0" standalone="no"?><!DOCTYPE svg PUBLIC "-//W3C//DTD SVG 1.1//EN" "http://www.w3.org/Graphics/SVG/1.1/DTD/svg11.dtd"><svg class="icon" width="200px" height="200.00px" viewBox="0 0 1024 1024" version="1.1" xmlns="http://www.w3.org/2000/svg"><path d="M42.688 85.312h256v150.656c8.896 6.592 22.4 15.488 40.384 24.512 37.504 18.688 94.976 38.144 172.928 38.144s135.488-19.456 172.928-38.144c18.048-9.024 31.552-17.92 40.448-24.512V85.312h256v853.376h-256v-213.376H298.688v213.312h-256V85.312z m256 554.624h170.688V382.272a456.192 456.192 0 0 1-170.688-46.592v304.256z m256-257.664V640h170.688V335.68l-2.24 1.088a456.256 456.256 0 0 1-168.448 45.504z" /></svg>