<?xml version="1.0" standalone="no"?><!DOCTYPE svg PUBLIC "-//W3C//DTD SVG 1.1//EN" "http://www.w3.org/Graphics/SVG/1.1/DTD/svg11.dtd"><svg class="icon" width="200px" height="200.00px" viewBox="0 0 1024 1024" version="1.1" xmlns="http://www.w3.org/2000/svg"><path d="M0 128h1024v768h-256V571.712a359.36 359.36 0 0 0-57.472-44.928A368.768 368.768 0 0 0 512 469.312a368.832 368.832 0 0 0-256 102.4V896H0V128z m256 334.336l11.904-7.744A454.144 454.144 0 0 1 512 384a454.144 454.144 0 0 1 256 78.336v-248.96H256v248.96z m597.312-248.96v597.376h85.376V213.376h-85.376z m-682.624 0H85.312v597.312h85.376V213.312z" /></svg>