<?xml version="1.0" standalone="no"?><!DOCTYPE svg PUBLIC "-//W3C//DTD SVG 1.1//EN" "http://www.w3.org/Graphics/SVG/1.1/DTD/svg11.dtd"><svg class="icon" width="200px" height="200.00px" viewBox="0 0 1024 1024" version="1.1" xmlns="http://www.w3.org/2000/svg"><path d="M170.688 85.312V231.04c4.864 2.432 10.624 5.184 17.28 8.192 26.048 11.52 66.048 26.432 120 38.4 53.888 11.968 121.92 21.12 204.032 21.12 82.176 0 150.208-9.152 204.096-21.12a636.288 636.288 0 0 0 119.936-38.4 410.88 410.88 0 0 0 17.28-8.192V85.312h85.376V640h42.688v85.376h-42.688v213.312h-85.312v-213.312H170.688v213.312H85.376v-213.312H42.688V640h42.688V85.312h85.312z m0 554.688H256V352.704c-34.176-9.088-62.656-19.008-85.312-28.16V640z m170.688-269.184V640h128V383.232a1039.168 1039.168 0 0 1-128-12.416z m213.312 12.416V640h128V370.816c-38.144 6.144-80.768 10.688-128 12.416zM768 352.704v287.36h85.376V324.48c-22.656 9.152-51.136 19.072-85.376 28.16z m104.384-132.224l0.128-0.064h-0.064l-0.064 0.064z" /></svg>