<?xml version="1.0" standalone="no"?><!DOCTYPE svg PUBLIC "-//W3C//DTD SVG 1.1//EN" "http://www.w3.org/Graphics/SVG/1.1/DTD/svg11.dtd"><svg class="icon" width="200px" height="200.00px" viewBox="0 0 1024 1024" version="1.1" xmlns="http://www.w3.org/2000/svg"><path d="M512 3.648l148.928 148.928h210.56v210.56L1020.352 512l-148.864 148.864v210.56h-210.56L512 1020.352l-148.864-148.928h-210.56v-210.56L3.712 512l148.864-148.864v-210.56h210.56L512 3.648z m0 120.704L398.464 237.888H237.888v160.576L124.352 512l113.536 113.536v160.576h160.64L512 899.648l113.6-113.536h160.512V625.536L899.776 512l-113.536-113.536v-160.64h-160.64L512 124.416z m2.816 216.96c25.536 51.456 39.872 109.44 39.872 170.688 0 61.248-14.336 119.232-39.872 170.624a170.688 170.688 0 0 0 0-341.248zM432 268.8a256 256 0 1 1 0 486.464l-56.128-18.432 35.136-47.424A297.152 297.152 0 0 0 469.376 512a297.152 297.152 0 0 0-58.304-177.344l-35.136-47.488 56.128-18.432z" /></svg>