<?xml version="1.0" standalone="no"?><!DOCTYPE svg PUBLIC "-//W3C//DTD SVG 1.1//EN" "http://www.w3.org/Graphics/SVG/1.1/DTD/svg11.dtd"><svg class="icon" width="200px" height="200.00px" viewBox="0 0 1024 1024" version="1.1" xmlns="http://www.w3.org/2000/svg"><path d="M384.32 512a128 128 0 1 1 256 0 128 128 0 0 1-256 0zM512.32 128a533.568 533.568 0 0 0-508.16 371.008L0 512l4.16 12.992a533.568 533.568 0 0 0 1016.32 0L1024.64 512l-4.16-12.992A533.568 533.568 0 0 0 512.32 128z m0 170.688a213.312 213.312 0 1 1 0 426.624 213.312 213.312 0 0 1 0-426.624z" /></svg>