<?xml version="1.0" standalone="no"?><!DOCTYPE svg PUBLIC "-//W3C//DTD SVG 1.1//EN" "http://www.w3.org/Graphics/SVG/1.1/DTD/svg11.dtd"><svg class="icon" width="200px" height="200.00px" viewBox="0 0 1024 1024" version="1.1" xmlns="http://www.w3.org/2000/svg"><path d="M89.792 512a448.192 448.192 0 0 0 845.056 0A448.192 448.192 0 0 0 89.792 512zM4.16 499.008a533.568 533.568 0 0 1 1016.32 0L1024.64 512l-4.16 12.992a533.568 533.568 0 0 1-1016.32 0L0 512l4.16-12.992zM512.32 384a128 128 0 1 0 0 256 128 128 0 0 0 0-256zM299.008 512a213.312 213.312 0 1 1 426.624 0 213.312 213.312 0 0 1-426.624 0z" /></svg>