<?xml version="1.0" standalone="no"?><!DOCTYPE svg PUBLIC "-//W3C//DTD SVG 1.1//EN" "http://www.w3.org/Graphics/SVG/1.1/DTD/svg11.dtd"><svg class="icon" width="200px" height="200.00px" viewBox="0 0 1024 1024" version="1.1" xmlns="http://www.w3.org/2000/svg"><path d="M857.728 98.432l-29.568-30.72-61.568 59.072 29.568 30.72a510.144 510.144 0 0 1 142.528 354.56c0 137.536-54.208 262.4-142.528 354.432l-29.568 30.72 61.568 59.136 29.568-30.784A595.456 595.456 0 0 0 1024 512c0-160.448-63.36-306.24-166.272-413.568zM426.688 85.312a426.688 426.688 0 1 1 0 853.376 426.688 426.688 0 0 1 0-853.376z m128 615.04L614.976 640 469.312 494.336v-216.96H384v252.288l170.688 170.688z" /></svg>