<?xml version="1.0" standalone="no"?><!DOCTYPE svg PUBLIC "-//W3C//DTD SVG 1.1//EN" "http://www.w3.org/Graphics/SVG/1.1/DTD/svg11.dtd"><svg class="icon" width="200px" height="200.00px" viewBox="0 0 1024 1024" version="1.1" xmlns="http://www.w3.org/2000/svg"><path d="M128.512 67.84l-0.192-0.192L68.032 128l114.304 114.304A534.272 534.272 0 0 0 4.16 499.008L0 512l4.16 12.992a533.568 533.568 0 0 0 765.632 304.832l126.528 126.528 60.16-60.16-828.16-828.16 0.192-0.192zM299.008 512c0-43.52 12.992-83.904 35.328-117.632l62.464 62.464a128 128 0 0 0 170.688 170.688l62.464 62.464A213.312 213.312 0 0 1 298.944 512zM904.768 723.84a532.928 532.928 0 0 0 115.712-198.848L1024.64 512l-4.16-12.992A533.568 533.568 0 0 0 338.112 157.12L481.792 300.8a213.312 213.312 0 0 1 241.664 241.664l181.312 181.248zM608.448 427.52a128.896 128.896 0 0 0-11.584-11.648l11.584 11.584z" /></svg>