<?xml version="1.0" standalone="no"?><!DOCTYPE svg PUBLIC "-//W3C//DTD SVG 1.1//EN" "http://www.w3.org/Graphics/SVG/1.1/DTD/svg11.dtd"><svg class="icon" width="200px" height="200.00px" viewBox="0 0 1024 1024" version="1.1" xmlns="http://www.w3.org/2000/svg"><path d="M128.32 67.648L391.68 331.008l301.76 301.696L956.672 896l-60.352 60.352-126.528-126.528A533.568 533.568 0 0 1 4.096 524.992L0 512l4.16-12.992a534.144 534.144 0 0 1 178.176-256.64L67.968 128l60.352-60.352zM243.2 303.168A449.152 449.152 0 0 0 89.792 512a448.192 448.192 0 0 0 616.704 254.528l-76.544-76.544a213.312 213.312 0 0 1-295.68-295.68L243.2 303.232z m153.6 153.6a128 128 0 0 0 170.752 170.752L396.8 456.832z m115.584-243.456c-24.576 0-48.64 1.984-72.192 5.76l-42.112 6.848-13.632-84.224 42.112-6.848a533.568 533.568 0 0 1 593.984 364.16L1024.64 512l-4.16 12.992a531.712 531.712 0 0 1-77.504 152.384l-25.216 34.432-68.864-50.368 25.216-34.432c25.536-34.88 46.08-73.6 60.8-115.008a448.192 448.192 0 0 0-422.592-298.688z m21.888 82.24l40.832 12.48a213.76 213.76 0 0 1 141.248 141.312l12.544 40.768-81.6 25.024-12.48-40.768a128.384 128.384 0 0 0-84.8-84.736l-40.768-12.544 25.024-81.536z" /></svg>