<?xml version="1.0" standalone="no"?><!DOCTYPE svg PUBLIC "-//W3C//DTD SVG 1.1//EN" "http://www.w3.org/Graphics/SVG/1.1/DTD/svg11.dtd"><svg class="icon" width="200px" height="200.00px" viewBox="0 0 1024 1024" version="1.1" xmlns="http://www.w3.org/2000/svg"><path d="M298.688 255.936a213.312 213.312 0 0 1 426.624 0H298.688zM273.664 341.312l-60.352-60.288V170.688H128v145.664l128 128V512H128v85.312h128v67.712l-128 128v145.664h85.312v-110.336l58.048-58.048a256.384 256.384 0 0 0 197.952 164.8V341.312H273.664zM554.688 341.312v593.792a256.384 256.384 0 0 0 197.952-164.8l58.048 58.048v110.336H896V792.96l-128-128V597.312h128V512h-128V444.352l128-128V170.688h-85.312V280.96l-60.352 60.288H554.688z" /></svg>