<?xml version="1.0" standalone="no"?><!DOCTYPE svg PUBLIC "-//W3C//DTD SVG 1.1//EN" "http://www.w3.org/Graphics/SVG/1.1/DTD/svg11.dtd"><svg class="icon" width="200px" height="200.00px" viewBox="0 0 1024 1024" version="1.1" xmlns="http://www.w3.org/2000/svg"><path d="M304.092649 67.896107l100.852276 121.073925A319.514856 319.514856 0 0 1 511.940487 170.66816c37.435648 0 73.46346 6.399256 106.931569 18.301872l100.916269-121.073925 65.528382 54.649647-88.885667 106.611606A320.794708 320.794708 0 0 1 813.665411 383.955365h124.849487v85.302084H831.263366c0.447948 7.039182 0.639926 14.206349 0.639925 21.373515V703.91817c0 7.167167-0.191978 14.270341-0.639925 21.309522h107.315524v85.366076h-124.785493a320.090789 320.090789 0 0 1-603.577835 0H85.302084v-85.366076h107.379517A324.634261 324.634261 0 0 1 191.977683 703.91817V490.630964c0-7.167167 0.191978-14.270341 0.639925-21.373515H85.366076V383.955365h124.849486a320.8587 320.8587 0 0 1 117.234372-154.798005L238.500274 122.545754l65.592375-54.649647zM511.940487 255.970243a234.660721 234.660721 0 0 0-234.660721 234.660721V703.91817a234.660721 234.660721 0 0 0 469.257449 0V490.630964A234.660721 234.660721 0 0 0 511.940487 255.970243zM383.955365 426.638403h255.970244V511.940487H383.955365V426.638403z m0 255.970244h255.970244V767.91073H383.955365v-85.302083z" /></svg>