<?xml version="1.0" standalone="no"?><!DOCTYPE svg PUBLIC "-//W3C//DTD SVG 1.1//EN" "http://www.w3.org/Graphics/SVG/1.1/DTD/svg11.dtd"><svg class="icon" width="200px" height="200.00px" viewBox="0 0 1024 1024" version="1.1" xmlns="http://www.w3.org/2000/svg"><path d="M405.004438 188.970032A319.514856 319.514856 0 0 1 512 170.66816c37.435648 0 73.46346 6.399256 106.931569 18.301872l100.916269-121.073925 65.528382 54.649647-88.885667 106.611606A320.794708 320.794708 0 0 1 813.724924 383.955365h124.849487v85.302084H831.322879c0.447948 7.039182 0.639926 14.206349 0.639925 21.373515V703.91817c0 7.167167-0.191978 14.270341-0.639925 21.309522h107.315524v85.366076h-124.785493a320.090789 320.090789 0 0 1-603.577834 0H85.361597v-85.366076h107.379517A324.826239 324.826239 0 0 1 192.037196 703.91817V490.630964c0-7.167167 0.191978-14.334334 0.639925-21.373515H85.425589V383.955365h124.849487a320.8587 320.8587 0 0 1 117.234371-154.798005L238.559787 122.545754l65.592375-54.649647 100.852276 121.073925zM639.985122 511.940487V426.638403H384.014878V511.940487h255.970244z m0 255.970243v-85.302083H384.014878V767.91073h255.970244z" /></svg>