<?xml version="1.0" standalone="no"?><!DOCTYPE svg PUBLIC "-//W3C//DTD SVG 1.1//EN" "http://www.w3.org/Graphics/SVG/1.1/DTD/svg11.dtd"><svg class="icon" width="200px" height="200.00px" viewBox="0 0 1024 1024" version="1.1" xmlns="http://www.w3.org/2000/svg"><path d="M391.296 213.312h241.408a128 128 0 0 0-241.408 0zM298.688 256a213.312 213.312 0 1 1 426.624 0v42.688H298.688V256zM213.312 170.688V280.96l60.352 60.288h476.672l60.352-60.288V170.688H896v145.664l-128 128V512h128v85.312h-128v67.712l128 128v145.664h-85.312v-110.336l-58.048-58.048a256.384 256.384 0 0 1-197.952 164.8v3.584H512a256.128 256.128 0 0 1-240.64-168.384l-58.048 58.048v110.336H128V792.96l128-128V597.312H128V512h128V444.352l-128-128V170.688h85.312z m128 273.664v238.336c0 79.488 54.4 146.304 128 165.248V426.688H359.04l-17.664 17.664z m213.376-17.664v421.248c73.6-18.944 128-85.76 128-165.248V444.352l-17.728-17.664H554.688z" /></svg>