<?xml version="1.0" standalone="no"?><!DOCTYPE svg PUBLIC "-//W3C//DTD SVG 1.1//EN" "http://www.w3.org/Graphics/SVG/1.1/DTD/svg11.dtd"><svg class="icon" width="200px" height="200.00px" viewBox="0 0 1024 1024" version="1.1" xmlns="http://www.w3.org/2000/svg"><path d="M320 64v69.312c16.896 4.48 32.064 11.84 45.44 21.76 23.424 17.408 38.272 40.64 47.488 63.744 10.496 26.24 14.72 54.528 15.552 79.872h62.208V384h-64v42.688h512v512H128V384H64V298.688h62.208c0.832-25.344 4.992-53.632 15.488-79.872 9.28-23.104 24.128-46.336 47.552-63.744 13.312-9.92 28.544-17.28 45.44-21.76V64H320zM211.584 298.688H343.04a151.68 151.68 0 0 0-9.344-48.192 60.224 60.224 0 0 0-19.2-26.88c-7.296-5.504-18.56-10.24-37.12-10.24-18.688 0-29.952 4.736-37.248 10.24a60.224 60.224 0 0 0-19.2 26.88 151.68 151.68 0 0 0-9.344 48.192zM341.312 384h-128v469.312h128V384z m85.376 469.312H512V640h256v213.312h85.312V512H426.688v341.312z m256 0v-128H597.312v128h85.376z" /></svg>