<?xml version="1.0" standalone="no"?><!DOCTYPE svg PUBLIC "-//W3C//DTD SVG 1.1//EN" "http://www.w3.org/Graphics/SVG/1.1/DTD/svg11.dtd"><svg class="icon" width="200px" height="200.00px" viewBox="0 0 1024 1024" version="1.1" xmlns="http://www.w3.org/2000/svg"><path d="M170.688 85.312h682.688v853.376H170.688V85.376zM256 170.688v170.688h512V170.688H256z m512 256h-128V512h128V426.688z m0 170.688h-128v85.312h128V597.376zM768 768h-128v85.376h128V768z m-213.312 85.376V768H469.376v85.376h85.312z m-170.688 0V768H256v85.376h128z m-128-170.688h128V597.376H256v85.312zM256 512h128V426.688H256V512z m213.376-85.312V512h85.312V426.688H469.376z m85.312 170.688H469.376v85.312h85.312V597.376z" /></svg>