<?xml version="1.0" standalone="no"?><!DOCTYPE svg PUBLIC "-//W3C//DTD SVG 1.1//EN" "http://www.w3.org/Graphics/SVG/1.1/DTD/svg11.dtd"><svg class="icon" width="200px" height="200.00px" viewBox="0 0 1024 1024" version="1.1" xmlns="http://www.w3.org/2000/svg"><path d="M981.376 42.688v938.624H42.688V42.688h938.688zM384 298.688V213.312H298.688v85.312H213.376V384h85.312v85.312H384V384h85.376V298.688H384z m426.688 0h-256V384h256V298.688zM341.376 622.336L280.96 561.92l-60.352 60.352 60.352 60.288-60.352 60.352 60.352 60.352 60.352-60.352 60.352 60.352 60.288-60.352-60.352-60.352 60.352-60.288-60.352-60.352-60.288 60.352zM810.688 576h-256v85.312h256V576z m0 128h-256v85.312h256V704z" /></svg>