<?xml version="1.0" standalone="no"?><!DOCTYPE svg PUBLIC "-//W3C//DTD SVG 1.1//EN" "http://www.w3.org/Graphics/SVG/1.1/DTD/svg11.dtd"><svg class="icon" width="200px" height="200.00px" viewBox="0 0 1024 1024" version="1.1" xmlns="http://www.w3.org/2000/svg"><path d="M42.688 42.688h938.688v938.624H42.688V42.688zM128 128v768h768V128H128z m256 85.312v85.312h85.376V384H384v85.312H298.688V384H213.376V298.688h85.312V213.312H384z m170.688 85.312h256V384h-256V298.688zM281.024 562.048l60.352 60.352 60.288-60.352 60.352 60.352-60.352 60.288 60.352 60.352-60.288 60.352-60.352-60.352-60.352 60.352-60.352-60.352 60.352-60.352-60.352-60.288 60.352-60.352zM554.688 576h256v85.312h-256V576z m0 128h256v85.312h-256V704z" /></svg>