<?xml version="1.0" standalone="no"?><!DOCTYPE svg PUBLIC "-//W3C//DTD SVG 1.1//EN" "http://www.w3.org/Graphics/SVG/1.1/DTD/svg11.dtd"><svg class="icon" width="200px" height="200.00px" viewBox="0 0 1024 1024" version="1.1" xmlns="http://www.w3.org/2000/svg"><path d="M320 85.312v149.376h149.312V320H320v149.312H234.624V320H85.312V234.688h149.312V85.312H320z m234.624 149.376h384V320h-384V234.688z m-94.848 405.76l-120.704 120.704 127.552 127.488-60.352 60.352-127.552-127.488L158.08 942.08l-60.352-60.352 120.64-120.64-113.792-113.856 60.352-60.352 113.792 113.92 120.704-120.768 60.352 60.352zM704 597.248h85.504v85.504H704V597.248z m-149.376 128.064h384v85.376h-384v-85.376zM704 853.248h85.504v85.504H704v-85.504z" /></svg>