<?xml version="1.0" standalone="no"?><!DOCTYPE svg PUBLIC "-//W3C//DTD SVG 1.1//EN" "http://www.w3.org/Graphics/SVG/1.1/DTD/svg11.dtd"><svg class="icon" width="200px" height="200.00px" viewBox="0 0 1024 1024" version="1.1" xmlns="http://www.w3.org/2000/svg"><path d="M341.312 42.688v128h341.312v-128H768v128h170.624v768H85.312v-768H256v-128h85.312zM170.624 256v128h682.688V256H170.624z m682.688 213.312H170.624v384h682.688v-384zM298.624 554.688h85.504v85.504H298.624V554.688z m170.688 0h85.504v85.504H469.312V554.688z m170.688 0h85.504v85.504H640V554.688z m-341.376 128h85.504v85.504H298.624v-85.504z m170.688 0h85.504v85.504H469.312v-85.504z m170.688 0h85.504v85.504H640v-85.504z" /></svg>