<?xml version="1.0" standalone="no"?><!DOCTYPE svg PUBLIC "-//W3C//DTD SVG 1.1//EN" "http://www.w3.org/Graphics/SVG/1.1/DTD/svg11.dtd"><svg class="icon" width="200px" height="200.00px" viewBox="0 0 1024 1024" version="1.1" xmlns="http://www.w3.org/2000/svg"><path d="M341.312 42.688v128h341.312v-128H768v128h170.624V256h0.064v298.624h-85.376V469.248H170.624v384H512v85.376H85.312v-768H256v-128h85.312zM170.624 384h682.688V256H170.624v128z m652.224 216.96l176.128 176.128-225.536 225.6H597.376l-0.064-176.128 225.536-225.536z m-28.608 149.376l55.424 55.424 28.608-28.672-55.424-55.424-28.608 28.672z m-4.928 115.776l-55.424-55.424-51.2 51.2v55.424h55.424l51.2-51.2z" /></svg>