<?xml version="1.0" standalone="no"?><!DOCTYPE svg PUBLIC "-//W3C//DTD SVG 1.1//EN" "http://www.w3.org/Graphics/SVG/1.1/DTD/svg11.dtd"><svg class="icon" width="200px" height="200.00px" viewBox="0 0 1024 1024" version="1.1" xmlns="http://www.w3.org/2000/svg"><path d="M799.552 284.608l140.48-140.48-60.352-60.352-140.48 140.544-1.92-90.432-85.312 1.856 4.928 231.168 231.232 4.992 1.792-85.312-90.368-1.92zM408.768 85.312H42.688V128c0 170.56 50.112 329.6 136.32 462.976a857.728 857.728 0 0 0 254.08 253.952A849.536 849.536 0 0 0 896 981.312h42.688v-366.08l-285.44-63.36-79.36 79.232A600.768 600.768 0 0 1 392.96 450.112l79.36-79.36-63.488-285.44z" /></svg>