<?xml version="1.0" standalone="no"?><!DOCTYPE svg PUBLIC "-//W3C//DTD SVG 1.1//EN" "http://www.w3.org/Graphics/SVG/1.1/DTD/svg11.dtd"><svg class="icon" width="200px" height="200.00px" viewBox="0 0 1024 1024" version="1.1" xmlns="http://www.w3.org/2000/svg"><path d="M956.352 128L504.96 579.456c21.696 18.816 44.8 36.096 68.992 51.648l79.36-79.296 285.44 63.424v366.08H896a849.536 849.536 0 0 1-572.48-220.48L128 956.352 67.712 896 896 67.648l60.352 60.352zM384 700.416c29.824 26.688 61.76 51.072 95.488 72.896 108.8 70.4 236.544 113.984 373.952 121.536v-211.2l-172.928-38.4-92.8 92.8-28.288-16a684.416 684.416 0 0 1-114.944-82.112l-60.48 60.48zM42.688 85.376h366.08l63.424 285.44-79.552 79.552 12.672 21.504-73.536 43.328-46.208-78.464 93.184-93.184-38.4-172.864h-211.2a763.456 763.456 0 0 0 132.16 389.824l24.064 35.264-70.464 48.128-24.064-35.2A849.536 849.536 0 0 1 42.688 128v-42.752z" /></svg>