<?xml version="1.0" standalone="no"?><!DOCTYPE svg PUBLIC "-//W3C//DTD SVG 1.1//EN" "http://www.w3.org/Graphics/SVG/1.1/DTD/svg11.dtd"><svg class="icon" width="200px" height="200.00px" viewBox="0 0 1024 1024" version="1.1" xmlns="http://www.w3.org/2000/svg"><path d="M726.144 87.36l-41.216-11.136-22.272 82.368 41.152 11.136a213.312 213.312 0 0 1 150.272 150.4l11.136 41.152 82.368-22.208-11.136-41.216a298.688 298.688 0 0 0-210.304-210.496zM687.104 231.488l-41.152-11.136-22.336 82.368 41.216 11.136a64 64 0 0 1 45.056 45.12l11.136 41.216 82.368-22.208-11.072-41.216a149.312 149.312 0 0 0-105.216-105.28zM408.768 85.312H42.688V128c0 170.56 50.112 329.6 136.32 462.912a857.6 857.6 0 0 0 254.08 254.08A849.536 849.536 0 0 0 896 981.248h42.688v-366.08l-285.44-63.36-79.36 79.232A600.768 600.768 0 0 1 392.96 450.112l79.36-79.36-63.488-285.44z" /></svg>