<?xml version="1.0" standalone="no"?><!DOCTYPE svg PUBLIC "-//W3C//DTD SVG 1.1//EN" "http://www.w3.org/Graphics/SVG/1.1/DTD/svg11.dtd"><svg class="icon" width="200px" height="200.00px" viewBox="0 0 1024 1024" version="1.1" xmlns="http://www.w3.org/2000/svg"><path d="M408.768 85.312H42.688V128c0 170.56 50.112 329.6 136.32 462.912a857.6 857.6 0 0 0 254.08 254.08A849.536 849.536 0 0 0 896 981.248h42.688v-366.08l-285.44-63.36-79.36 79.232A600.768 600.768 0 0 1 392.96 450.112l79.36-79.36-63.488-285.44zM921.792 102.4l-231.168-4.928-1.856 85.312 90.432 1.92L638.656 325.12l60.352 60.352 140.544-140.48 1.92 90.368 85.312-1.792-4.992-231.232z" /></svg>