<?xml version="1.0" standalone="no"?><!DOCTYPE svg PUBLIC "-//W3C//DTD SVG 1.1//EN" "http://www.w3.org/Graphics/SVG/1.1/DTD/svg11.dtd"><svg class="icon" width="200px" height="200.00px" viewBox="0 0 1024 1024" version="1.1" xmlns="http://www.w3.org/2000/svg"><path d="M698.88 83.84l90.56 90.56 90.496-90.496 60.288 60.288-90.496 90.56 90.56 90.496-60.352 60.352-90.56-90.56-90.496 90.56-60.352-60.352 90.56-90.496-90.56-90.56 60.352-60.288zM42.688 85.376h366.08l63.424 285.44-79.36 79.36a600.768 600.768 0 0 0 181.12 180.992l79.296-79.296 285.44 63.424v366.08H896c-170.56 0-329.6-50.048-462.912-136.32a857.664 857.664 0 0 1-254.08-254.08A849.536 849.536 0 0 1 42.752 128v-42.688z m86.528 85.376a763.456 763.456 0 0 0 121.472 373.888 772.416 772.416 0 0 0 228.736 228.736c108.8 70.4 236.544 113.984 373.952 121.536v-211.136l-172.928-38.4-92.8 92.8-28.288-16.064A685.76 685.76 0 0 1 302.08 464.64l-16.064-28.288 92.8-92.8-38.4-172.864h-211.2z" /></svg>