<?xml version="1.0" standalone="no"?><!DOCTYPE svg PUBLIC "-//W3C//DTD SVG 1.1//EN" "http://www.w3.org/Graphics/SVG/1.1/DTD/svg11.dtd"><svg class="icon" width="200px" height="200.00px" viewBox="0 0 1024 1024" version="1.1" xmlns="http://www.w3.org/2000/svg"><path d="M684.928 76.224l41.152 11.136a298.688 298.688 0 0 1 210.368 210.56l11.136 41.152-82.368 22.208-11.136-41.152a213.312 213.312 0 0 0-150.272-150.4l-41.152-11.136 22.272-82.368zM42.688 85.312h366.08l63.424 285.44-79.36 79.36a600.768 600.768 0 0 0 181.12 180.992l79.296-79.296 285.44 63.424v366.08H896c-170.56 0-329.6-50.048-462.912-136.32a857.664 857.664 0 0 1-254.08-254.08A849.536 849.536 0 0 1 42.752 128v-42.688z m86.528 85.376a763.456 763.456 0 0 0 121.472 373.888 772.416 772.416 0 0 0 228.736 228.736c108.8 70.4 236.544 113.984 373.952 121.536v-211.2l-172.928-38.4-92.8 92.8-28.288-16A685.76 685.76 0 0 1 302.08 464.64l-16.064-28.288 92.8-92.8-38.4-172.864h-211.2z m516.736 49.664l41.152 11.136a149.312 149.312 0 0 1 105.152 105.28l11.136 41.216-82.368 22.208-11.136-41.216a64 64 0 0 0-45.056-45.12l-41.216-11.136 22.336-82.368z" /></svg>