<?xml version="1.0" standalone="no"?><!DOCTYPE svg PUBLIC "-//W3C//DTD SVG 1.1//EN" "http://www.w3.org/Graphics/SVG/1.1/DTD/svg11.dtd"><svg class="icon" width="200px" height="200.00px" viewBox="0 0 1024 1024" version="1.1" xmlns="http://www.w3.org/2000/svg"><path d="M405.312 426.688a106.688 106.688 0 1 1 213.376 0 106.688 106.688 0 0 1-213.376 0zM128 426.688a384 384 0 0 0 207.04 340.864L306.944 896H213.312v85.312h597.376V896h-93.632l-28.096-128.448A384 384 0 1 0 128 426.688z m287.616 371.776a384.512 384.512 0 0 0 192.768 0L629.76 896H394.24l21.312-97.536zM320 426.624a192 192 0 1 1 384 0 192 192 0 0 1-384 0z" /></svg>