<?xml version="1.0" standalone="no"?><!DOCTYPE svg PUBLIC "-//W3C//DTD SVG 1.1//EN" "http://www.w3.org/Graphics/SVG/1.1/DTD/svg11.dtd"><svg class="icon" width="200px" height="200.00px" viewBox="0 0 1024 1024" version="1.1" xmlns="http://www.w3.org/2000/svg"><path d="M512 128a298.688 298.688 0 1 0 0 597.312A298.688 298.688 0 0 0 512 128zM128 426.688a384 384 0 1 1 560.96 340.864L716.992 896h93.696v85.312H213.312V896h93.632l28.096-128.448A384 384 0 0 1 128 426.688z m287.616 371.776L394.24 896H629.76l-21.312-97.536a384.512 384.512 0 0 1-192.768 0zM512 341.312A85.312 85.312 0 1 0 512 512a85.312 85.312 0 0 0 0-170.688zM341.312 426.688a170.688 170.688 0 1 1 341.376 0 170.688 170.688 0 0 1-341.376 0z" /></svg>