<?xml version="1.0" standalone="no"?><!DOCTYPE svg PUBLIC "-//W3C//DTD SVG 1.1//EN" "http://www.w3.org/Graphics/SVG/1.1/DTD/svg11.dtd"><svg class="icon" width="200px" height="200.00px" viewBox="0 0 1024 1024" version="1.1" xmlns="http://www.w3.org/2000/svg"><path d="M405.312 448a106.688 106.688 0 1 1 213.376 0 106.688 106.688 0 0 1-213.376 0zM128 448a384 384 0 1 1 426.688 381.632v43.136a423.936 423.936 0 0 0 197.376-71.744l35.2-24.064 48.128 70.528-35.264 24a509.44 509.44 0 0 1-245.44 86.976V960h-27.84a521.088 521.088 0 0 1-29.696 0h-27.84v-1.536a509.376 509.376 0 0 1-245.44-86.976l-35.2-24 48-70.528 35.264 24.064a423.936 423.936 0 0 0 197.376 71.744v-43.136A384 384 0 0 1 128 448z m192 0a192 192 0 1 0 384 0 192 192 0 0 0-384 0z" /></svg>