<?xml version="1.0" standalone="no"?><!DOCTYPE svg PUBLIC "-//W3C//DTD SVG 1.1//EN" "http://www.w3.org/Graphics/SVG/1.1/DTD/svg11.dtd"><svg class="icon" width="200px" height="200.00px" viewBox="0 0 1024 1024" version="1.1" xmlns="http://www.w3.org/2000/svg"><path d="M85.312 24.96L956.352 896l-60.352 60.352-60.352-60.352H42.688V213.312H152.96l-128-128 60.288-60.288z m153.024 273.728H128v512h622.336l-108.224-108.224A213.312 213.312 0 0 1 342.912 403.2L238.336 298.688z m165.76 165.76a128 128 0 0 0 176.832 176.768L404.096 464.448z m-67.84-379.136h351.488l64 128h229.568v597.376H896v-512h-197.056l-64-128H389.12l-27.328 54.592-76.288-38.208 50.88-101.76z" /></svg>