<?xml version="1.0" standalone="no"?><!DOCTYPE svg PUBLIC "-//W3C//DTD SVG 1.1//EN" "http://www.w3.org/Graphics/SVG/1.1/DTD/svg11.dtd"><svg class="icon" width="200px" height="200.00px" viewBox="0 0 1024 1024" version="1.1" xmlns="http://www.w3.org/2000/svg"><path d="M85.504 25.152L85.312 25.024l-60.288 60.288 128 128H42.688V896h792.96l103.04 103.04 60.16-60.16L85.312 25.344l0.192-0.192zM288 544c0-54.656 19.584-104.704 52.096-143.616l60.736 60.8a138.688 138.688 0 0 0 194.048 194.048l60.736 60.672A224 224 0 0 1 288 544zM981.312 800.64V213.376h-229.632l-64-128h-351.36l-23.488 46.912 188.096 188.032a224 224 0 0 1 234.816 234.816l245.568 245.632z" /></svg>