<?xml version="1.0" standalone="no"?><!DOCTYPE svg PUBLIC "-//W3C//DTD SVG 1.1//EN" "http://www.w3.org/Graphics/SVG/1.1/DTD/svg11.dtd"><svg class="icon" width="200px" height="200.00px" viewBox="0 0 1024 1024" version="1.1" xmlns="http://www.w3.org/2000/svg"><path d="M512 149.312a298.688 298.688 0 1 0 0 597.376 298.688 298.688 0 0 0 0-597.376zM128 448a384 384 0 1 1 426.688 381.632v43.136a423.936 423.936 0 0 0 197.376-71.744l35.2-24.064 48.128 70.528-35.264 24a509.44 509.44 0 0 1-245.44 86.976V960h-27.84a521.088 521.088 0 0 1-29.696 0h-27.84v-1.536a509.376 509.376 0 0 1-245.44-86.976l-35.2-24 48-70.528 35.264 24.064a423.936 423.936 0 0 0 197.376 71.744v-43.136A384 384 0 0 1 128 448z m384-85.312a85.312 85.312 0 1 0 0 170.624 85.312 85.312 0 0 0 0-170.624zM341.312 448a170.688 170.688 0 1 1 341.376 0 170.688 170.688 0 0 1-341.376 0z" /></svg>