<?xml version="1.0" standalone="no"?><!DOCTYPE svg PUBLIC "-//W3C//DTD SVG 1.1//EN" "http://www.w3.org/Graphics/SVG/1.1/DTD/svg11.dtd"><svg class="icon" width="200px" height="200.00px" viewBox="0 0 1024 1024" version="1.1" xmlns="http://www.w3.org/2000/svg"><path d="M0 42.688h203.264l128 469.312h448.64l131.776-395.328 80.96 27.008-151.232 453.632h-509.44l-21.312 85.376h628.032V768H201.408l53.12-212.864L138.112 128H0V42.688z m597.312 42.624v128h128v85.376h-128v128H512v-128H384V213.312h128v-128h85.312zM170.688 896a85.312 85.312 0 1 1 170.624 0 85.312 85.312 0 0 1-170.624 0zM768 896a85.312 85.312 0 1 1 170.688 0A85.312 85.312 0 0 1 768 896z" /></svg>