<?xml version="1.0" standalone="no"?><!DOCTYPE svg PUBLIC "-//W3C//DTD SVG 1.1//EN" "http://www.w3.org/Graphics/SVG/1.1/DTD/svg11.dtd"><svg class="icon" width="200px" height="200.00px" viewBox="0 0 1024 1024" version="1.1" xmlns="http://www.w3.org/2000/svg"><path d="M203.264 42.688H0V128h138.048l116.48 427.136L201.472 768h737.28v-85.312H310.656l21.312-85.376h509.44L997.888 128H226.496L203.328 42.688z m522.048 362.624H618.688V512H533.312V405.312H426.688V320h106.624V213.312h85.376V320h106.624v85.312zM256 810.688a85.312 85.312 0 1 0 0 170.624 85.312 85.312 0 0 0 0-170.624zM853.312 810.688a85.312 85.312 0 1 0 0 170.624 85.312 85.312 0 0 0 0-170.624z" /></svg>