<?xml version="1.0" standalone="no"?><!DOCTYPE svg PUBLIC "-//W3C//DTD SVG 1.1//EN" "http://www.w3.org/Graphics/SVG/1.1/DTD/svg11.dtd"><svg class="icon" width="200px" height="200.00px" viewBox="0 0 1024 1024" version="1.1" xmlns="http://www.w3.org/2000/svg"><path d="M554.624 42.688v46.144A256.064 256.064 0 0 1 768 341.312h170.624v597.376H85.312V341.248H256a256.064 256.064 0 0 1 213.312-252.48V42.688h85.312zM341.312 341.312h341.312a170.688 170.688 0 1 0-341.312 0zM170.624 534.848A169.856 169.856 0 0 1 256 512c50.944 0 96.704 22.336 128 57.792A170.24 170.24 0 0 1 512 512c50.944 0 96.704 22.336 128 57.792A170.24 170.24 0 0 1 768 512c31.04 0 60.16 8.32 85.312 22.848v-108.16H170.624v108.16z m170.688 147.84a85.312 85.312 0 0 0-170.688 0v170.624h170.688v-170.688z m85.312 170.624h170.688v-170.688a85.312 85.312 0 0 0-170.688 0v170.688z m256 0h170.688v-170.688a85.312 85.312 0 1 0-170.688 0v170.688z" /></svg>