<?xml version="1.0" standalone="no"?><!DOCTYPE svg PUBLIC "-//W3C//DTD SVG 1.1//EN" "http://www.w3.org/Graphics/SVG/1.1/DTD/svg11.dtd"><svg class="icon" width="200px" height="200.00px" viewBox="0 0 1024 1024" version="1.1" xmlns="http://www.w3.org/2000/svg"><path d="M469.376 85.312v46.208A256.064 256.064 0 0 0 256 384 213.312 213.312 0 0 0 42.688 597.376v341.312h938.688V597.376A213.312 213.312 0 0 0 768 384a256.064 256.064 0 0 0-213.312-252.48v-46.208H469.376z m298.624 384a128 128 0 0 1 128 128v256h-128v-384z m-85.312 384h-128V640H469.376v213.376h-128V426.688h341.312v426.688z m-426.688 0H128v-256a128 128 0 0 1 128-128v384z m90.752-512a170.752 170.752 0 0 1 330.56 0H346.752z" /></svg>