<?xml version="1.0" standalone="no"?><!DOCTYPE svg PUBLIC "-//W3C//DTD SVG 1.1//EN" "http://www.w3.org/Graphics/SVG/1.1/DTD/svg11.dtd"><svg class="icon" width="200px" height="200.00px" viewBox="0 0 1024 1024" version="1.1" xmlns="http://www.w3.org/2000/svg"><path d="M938.624 85.312H597.312v270.592a254.336 254.336 0 0 0-42.688-11.008v-46.208H469.312v46.208c-14.72 2.432-28.928 6.208-42.688 11.008V85.312H85.312v853.376h853.312V85.376z m-597.312 321.28A255.424 255.424 0 0 0 256 597.248v256H170.624V170.752h170.688v235.84z m0 446.72V640h341.312v213.376h-128v-128H469.312v128h-128z m426.688 0v-256c0-75.84-33.088-144-85.376-190.72V170.624h170.688v682.624H768z m-90.752-298.624H346.688a170.752 170.752 0 0 1 330.56 0z" /></svg>