<?xml version="1.0" standalone="no"?><!DOCTYPE svg PUBLIC "-//W3C//DTD SVG 1.1//EN" "http://www.w3.org/Graphics/SVG/1.1/DTD/svg11.dtd"><svg class="icon" width="200px" height="200.00px" viewBox="0 0 1024 1024" version="1.1" xmlns="http://www.w3.org/2000/svg"><path d="M298.688 85.312v85.376H384V85.376h85.376v85.312h85.312V85.376H640v85.312h85.376V85.376h85.312V256H768v341.376h128v-42.688h85.376v384H42.688v-384H128v42.688h128V256h-42.624V85.312h85.312zM341.376 256v597.376h128V554.688h85.312v298.688h128V256H341.376zM768 853.376h128v-170.688h-128v170.688z m-512 0v-170.688H128v170.688h128z m128-512.128h85.504v85.504H384V341.248z m170.688 0h85.504v85.504H554.688V341.248z" /></svg>