<?xml version="1.0" standalone="no"?><!DOCTYPE svg PUBLIC "-//W3C//DTD SVG 1.1//EN" "http://www.w3.org/Graphics/SVG/1.1/DTD/svg11.dtd"><svg class="icon" width="200px" height="200.00px" viewBox="0 0 1024 1024" version="1.1" xmlns="http://www.w3.org/2000/svg"><path d="M469.376 131.52v-46.208h85.312v46.208A256.064 256.064 0 0 1 768 384a213.312 213.312 0 0 1 213.376 213.312v341.376H554.688V640H469.376v298.688H42.688V597.312A213.312 213.312 0 0 1 256 384a256.064 256.064 0 0 1 213.376-252.48zM896 597.312a128 128 0 0 0-128-128v384h128v-256z m-768 256h128v-384a128 128 0 0 0-128 128v256z" /></svg>