<?xml version="1.0" standalone="no"?><!DOCTYPE svg PUBLIC "-//W3C//DTD SVG 1.1//EN" "http://www.w3.org/Graphics/SVG/1.1/DTD/svg11.dtd"><svg class="icon" width="200px" height="200.00px" viewBox="0 0 1024 1024" version="1.1" xmlns="http://www.w3.org/2000/svg"><path d="M597.312 85.312h341.312v853.376h-384v-213.376H469.312v213.376h-384V85.312h341.312v270.592c13.76-4.864 28.032-8.576 42.688-11.008v-46.208h85.312v46.208c14.72 2.432 28.992 6.144 42.688 11.008V85.312zM256 597.312c0-75.84 33.024-144 85.312-190.72V170.624H170.624v682.624H256v-256z m426.624-190.72A255.424 255.424 0 0 1 768 597.248v256h85.312V170.688h-170.688v235.84zM346.688 554.624h330.56A170.88 170.88 0 0 0 409.6 460.8c-30.592 22.976-53.12 55.872-62.912 93.888z" /></svg>