<?xml version="1.0" standalone="no"?><!DOCTYPE svg PUBLIC "-//W3C//DTD SVG 1.1//EN" "http://www.w3.org/Graphics/SVG/1.1/DTD/svg11.dtd"><svg class="icon" width="200px" height="200.00px" viewBox="0 0 1024 1024" version="1.1" xmlns="http://www.w3.org/2000/svg"><path d="M42.688 128h938.688v768H554.688v-85.312H896V213.312H128V384H42.688V128z m0 341.312h42.688a384 384 0 0 1 384 384V896H384v-42.688a298.688 298.688 0 0 0-298.624-298.624H42.688V469.312z m0 170.688h42.688a213.312 213.312 0 0 1 213.312 213.312V896H213.376v-42.688a128 128 0 0 0-128-128H42.688V640z m0 170.688h85.504v85.504H42.688v-85.504z" /></svg>