<?xml version="1.0" standalone="no"?><!DOCTYPE svg PUBLIC "-//W3C//DTD SVG 1.1//EN" "http://www.w3.org/Graphics/SVG/1.1/DTD/svg11.dtd"><svg class="icon" width="200px" height="200.00px" viewBox="0 0 1024 1024" version="1.1" xmlns="http://www.w3.org/2000/svg"><path d="M554.624 42.688v46.208A256.064 256.064 0 0 1 768 341.312H256A256.064 256.064 0 0 1 469.312 88.96V42.688h85.312zM938.624 341.312H85.312v206.4A198.208 198.208 0 0 1 199.104 512c63.424 0 120 29.696 156.416 75.904A198.784 198.784 0 0 1 512 512c63.424 0 119.936 29.696 156.416 75.904A198.784 198.784 0 0 1 824.96 512c42.24 0 81.472 13.184 113.728 35.712V341.312zM938.624 710.976a113.792 113.792 0 0 0-227.52 0.128v227.584h227.52v-227.712zM625.728 938.688V711.04a113.792 113.792 0 0 0-227.52 0v227.584h227.52zM312.896 938.688V711.04a113.792 113.792 0 0 0-227.584 0v227.584h227.584z" /></svg>