<?xml version="1.0" standalone="no"?><!DOCTYPE svg PUBLIC "-//W3C//DTD SVG 1.1//EN" "http://www.w3.org/Graphics/SVG/1.1/DTD/svg11.dtd"><svg class="icon" width="200px" height="200.00px" viewBox="0 0 1024 1024" version="1.1" xmlns="http://www.w3.org/2000/svg"><path d="M256 85.312h512v85.376h-42.688v170.688h213.312v597.312H85.312V341.376h213.312V170.688H256V85.376z m128 85.376v170.688h85.312V256h85.312v85.312H640V170.688H384z m-213.376 364.16A169.856 169.856 0 0 1 256 512c50.944 0 96.704 22.4 128 57.792A170.24 170.24 0 0 1 512 512c50.944 0 96.704 22.4 128 57.792A170.24 170.24 0 0 1 768 512c31.04 0 60.16 8.32 85.312 22.848v-108.16H170.624v108.16z m170.688 147.84a85.312 85.312 0 0 0-170.688 0v170.688h170.688v-170.688z m85.312 170.688h170.688v-170.688a85.312 85.312 0 0 0-170.688 0v170.688z m256 0h170.688v-170.688a85.312 85.312 0 1 0-170.688 0v170.688z" /></svg>