<?xml version="1.0" standalone="no"?><!DOCTYPE svg PUBLIC "-//W3C//DTD SVG 1.1//EN" "http://www.w3.org/Graphics/SVG/1.1/DTD/svg11.dtd"><svg class="icon" width="200px" height="200.00px" viewBox="0 0 1024 1024" version="1.1" xmlns="http://www.w3.org/2000/svg"><path d="M512 128a384 384 0 1 0 0 768A384 384 0 0 0 512 128zM42.688 512a469.312 469.312 0 1 1 938.688 0A469.312 469.312 0 0 1 42.688 512z m426.688-341.312H512A341.312 341.312 0 0 1 853.376 512v42.688H768V512a256 256 0 0 0-256-256h-42.624V170.688z m42.624 256a85.312 85.312 0 1 0 0 170.624 85.312 85.312 0 0 0 0-170.624zM341.376 512a170.688 170.688 0 1 1 341.312 0 170.688 170.688 0 0 1-341.312 0z" /></svg>