<?xml version="1.0" standalone="no"?><!DOCTYPE svg PUBLIC "-//W3C//DTD SVG 1.1//EN" "http://www.w3.org/Graphics/SVG/1.1/DTD/svg11.dtd"><svg class="icon" width="200px" height="200.00px" viewBox="0 0 1024 1024" version="1.1" xmlns="http://www.w3.org/2000/svg"><path d="M85.312 85.312H384v85.376H170.624V384H85.312V85.312z m554.688 0h298.624V384h-85.312V170.688H640V85.312zM512 426.688a85.312 85.312 0 1 0 0 170.624 85.312 85.312 0 0 0 0-170.624zM341.312 512a170.688 170.688 0 1 1 341.312 0 170.688 170.688 0 0 1-341.312 0z m-170.688 128v213.312H384v85.376H85.312V640h85.312z m768 0v298.688H640v-85.376h213.312V640h85.312z" /></svg>