<?xml version="1.0" standalone="no"?><!DOCTYPE svg PUBLIC "-//W3C//DTD SVG 1.1//EN" "http://www.w3.org/Graphics/SVG/1.1/DTD/svg11.dtd"><svg class="icon" width="200px" height="200.00px" viewBox="0 0 1024 1024" version="1.1" xmlns="http://www.w3.org/2000/svg"><path d="M170.624 85.312v768h768v85.376H85.312V85.312h85.312zM255.872 128h85.504v85.504H255.872V127.936z m128 0h85.504v85.504H383.872V127.936z m128 0h85.504v85.504H511.872V127.936z m128 0h85.504v85.504H639.872V127.936z m128 0h85.504v85.504h-85.504V127.936z m-109.504 246.976c-26.24-20.608-59.584-33.6-103.68-33.6-44.16 0-77.44 13.056-103.744 33.728-26.88 21.12-48.512 51.968-65.28 90.24-33.856 77.44-44.352 177.216-44.352 259.968v42.688H256v-42.688c0-87.36 10.688-200.832 51.456-294.08 20.608-47.04 49.664-90.944 90.752-123.264 41.728-32.768 93.76-51.84 156.416-51.904 62.656 0 114.688 19.008 156.416 51.84 41.152 32.256 70.208 76.16 90.752 123.264 40.768 93.44 51.52 206.976 51.52 294.4v42.624H768v-42.624c0-82.816-10.56-182.656-44.416-260.224-16.704-38.4-38.336-69.248-65.28-90.368z" /></svg>