<?xml version="1.0" standalone="no"?><!DOCTYPE svg PUBLIC "-//W3C//DTD SVG 1.1//EN" "http://www.w3.org/Graphics/SVG/1.1/DTD/svg11.dtd"><svg class="icon" width="200px" height="200.00px" viewBox="0 0 1024 1024" version="1.1" xmlns="http://www.w3.org/2000/svg"><path d="M512 36.032l412.16 238.016v475.904L512 987.904l-412.16-237.952V274.048L512 36.032z m0 98.56L227.84 298.688 512 462.72l284.16-164.032L512 134.592z m326.848 237.952l-284.16 164.096v328.128l284.16-164.096V372.544z m-369.536 492.16V536.704L185.152 372.48v328.128l284.16 164.096zM554.624 213.376V384H469.312V213.312h85.312zM422.464 612.928l-147.84 85.376-42.624-73.92 147.84-85.312 42.624 73.856z m221.696-73.856l147.84 85.312-42.688 73.92-147.84-85.376 42.688-73.856z" /></svg>