<?xml version="1.0" standalone="no"?><!DOCTYPE svg PUBLIC "-//W3C//DTD SVG 1.1//EN" "http://www.w3.org/Graphics/SVG/1.1/DTD/svg11.dtd"><svg class="icon" width="200px" height="200.00px" viewBox="0 0 1024 1024" version="1.1" xmlns="http://www.w3.org/2000/svg"><path d="M170.624 85.312v768h768v85.376H85.312V85.312h85.312zM832 298.688a21.312 21.312 0 1 0 0 42.624 21.312 21.312 0 0 0 0-42.624zM725.312 320a106.688 106.688 0 1 1 43.776 86.144l-343.04 200.32a106.688 106.688 0 1 1-42.88-73.792l342.848-200.192A109.056 109.056 0 0 1 725.312 320zM338.496 608a21.312 21.312 0 1 0-36.992 21.312 21.312 21.312 0 0 0 36.992-21.312z" /></svg>