<?xml version="1.0" standalone="no"?><!DOCTYPE svg PUBLIC "-//W3C//DTD SVG 1.1//EN" "http://www.w3.org/Graphics/SVG/1.1/DTD/svg11.dtd"><svg class="icon" width="200px" height="200.00px" viewBox="0 0 1024 1024" version="1.1" xmlns="http://www.w3.org/2000/svg"><path d="M170.624 85.312v768h768v85.376H85.312V85.312h85.312zM725.312 256A85.312 85.312 0 1 1 896 256a85.312 85.312 0 0 1-170.688 0z m-256.064-42.688h85.504V298.88H469.248V213.312z m-213.376 128h85.504V426.88H255.872V341.312z m384 85.376h85.504v85.504H639.872V426.688zM384 554.688a85.312 85.312 0 1 1 170.624 0 85.312 85.312 0 0 1-170.624 0zM725.248 640h85.504v85.504h-85.504V640z m-469.376 42.688h85.504v85.44H255.872v-85.44z" /></svg>