<?xml version="1.0" standalone="no"?><!DOCTYPE svg PUBLIC "-//W3C//DTD SVG 1.1//EN" "http://www.w3.org/Graphics/SVG/1.1/DTD/svg11.dtd"><svg class="icon" width="200px" height="200.00px" viewBox="0 0 1024 1024" version="1.1" xmlns="http://www.w3.org/2000/svg"><path d="M554.688 44.608v280.128a192.256 192.256 0 0 1 144.576 144.64h280.192A469.44 469.44 0 0 0 554.688 44.544zM981.312 507.52v8.96a346.24 346.24 0 0 0 0-8.96zM979.456 554.688h-280.192a190.784 190.784 0 0 1-24.704 59.52l198.144 198.144a467.2 467.2 0 0 0 106.752-257.664zM846.976 840.768l-6.208 6.144c2.112-1.984 4.16-4.096 6.208-6.144zM812.352 872.704L614.208 674.56a192 192 0 1 1-144.896-349.824V44.608a469.376 469.376 0 1 0 343.04 828.096z" /></svg>