<?xml version="1.0" standalone="no"?><!DOCTYPE svg PUBLIC "-//W3C//DTD SVG 1.1//EN" "http://www.w3.org/Graphics/SVG/1.1/DTD/svg11.dtd"><svg class="icon" width="200px" height="200.00px" viewBox="0 0 1024 1024" version="1.1" xmlns="http://www.w3.org/2000/svg"><path d="M476.8 127.296l-41.792 8.576a384 384 0 1 0 455.168 443.584l7.552-41.984 83.968 14.976-7.488 42.048a469.504 469.504 0 0 1-921.92 11.712A469.312 469.312 0 0 1 417.856 52.224l41.792-8.512 17.152 83.584zM567.936 43.968l41.728 8.896a469.44 469.44 0 0 1 362.176 364.992l8.576 41.792-83.648 17.152-8.512-41.792A384.128 384.128 0 0 0 591.872 136.32l-41.728-8.896 17.792-83.456z m111.36 433.792a170.688 170.688 0 1 0-334.4 68.48 170.688 170.688 0 0 0 334.4-68.48zM460.736 261.248a256 256 0 1 1 102.72 501.568 256 256 0 0 1-102.72-501.568z" /></svg>