<?xml version="1.0" standalone="no"?><!DOCTYPE svg PUBLIC "-//W3C//DTD SVG 1.1//EN" "http://www.w3.org/Graphics/SVG/1.1/DTD/svg11.dtd"><svg class="icon" width="200px" height="200.00px" viewBox="0 0 1024 1024" version="1.1" xmlns="http://www.w3.org/2000/svg"><path d="M170.624 85.312v768h768v85.376H85.312V85.312h85.312zM853.312 128v42.688c0 87.36-10.752 200.96-51.52 294.336-20.48 47.04-49.6 91.008-90.752 123.328-41.728 32.832-93.76 51.84-156.416 51.84-62.656-0.064-114.688-19.2-156.416-51.968-41.088-32.256-70.144-76.16-90.752-123.2C266.752 371.712 256 258.304 256 170.88v-42.624h85.312v42.624c0 82.752 10.496 182.528 44.352 259.968 16.768 38.336 38.4 69.12 65.28 90.24 26.24 20.672 59.584 33.664 103.68 33.728 44.16 0 77.44-12.928 103.68-33.6 26.944-21.12 48.512-51.968 65.28-90.368 33.92-77.504 44.416-177.408 44.416-260.16V128h85.312z m-597.44 554.56h85.504v85.504H255.872v-85.504z m128 0h85.504v85.504H383.872v-85.504z m128 0h85.504v85.504H511.872v-85.504z m128 0h85.504v85.504H639.872v-85.504z m128 0h85.504v85.504h-85.504v-85.504z" /></svg>