<?xml version="1.0" standalone="no"?><!DOCTYPE svg PUBLIC "-//W3C//DTD SVG 1.1//EN" "http://www.w3.org/Graphics/SVG/1.1/DTD/svg11.dtd"><svg class="icon" width="200px" height="200.00px" viewBox="0 0 1024 1024" version="1.1" xmlns="http://www.w3.org/2000/svg"><path d="M170.624 85.312v768h768v85.376H85.312V85.312h85.312z m695.808 224.896l76.032 38.784c-8.32 16.32-16.448 32.832-25.216 48.96a802.944 802.944 0 0 1-70.656 107.136c-22.464 28.288-50.368 58.048-81.664 78.72-31.104 20.544-71.68 35.968-115.328 23.04-72.64-21.504-95.872-78.784-111.552-117.376l-1.344-3.328c-16.64-41.024-26.752-61.184-58.688-70.272-10.048-2.816-24.384-0.96-45.184 12.8-20.672 13.632-42.048 35.52-62.08 60.736a667.648 667.648 0 0 0-62.4 94.976c-8.32 15.36-16 31.104-23.872 46.72l-76.16-38.592c8.32-16.384 16.384-32.896 25.152-49.024a790.528 790.528 0 0 1 70.464-107.2c22.528-28.288 50.368-58.048 81.792-78.848 31.296-20.672 71.872-36.032 115.584-23.68 74.176 21.12 97.6 78.784 113.472 117.824l0.96 2.368c16.896 41.536 26.688 61.76 58.112 71.04 9.472 2.816 23.36 1.28 44.032-12.416 20.544-13.568 41.856-35.392 61.952-60.608a673.536 673.536 0 0 0 62.528-95.04c8.448-15.36 16.128-31.104 24.064-46.72z" /></svg>