<?xml version="1.0" standalone="no"?><!DOCTYPE svg PUBLIC "-//W3C//DTD SVG 1.1//EN" "http://www.w3.org/Graphics/SVG/1.1/DTD/svg11.dtd"><svg class="icon" width="200px" height="200.00px" viewBox="0 0 1024 1024" version="1.1" xmlns="http://www.w3.org/2000/svg"><path d="M469.376 130.368a384 384 0 1 0 282.88 681.216l-90.56-91.84a256 256 0 1 1-192.32-460.16v-129.28z m85.312 0v129.216a256.192 256.192 0 0 1 209.792 209.792h129.216a384.128 384.128 0 0 0-339.008-339.008z m339.008 424.32h-129.28a254.784 254.784 0 0 1-42.752 104.32l90.88 92.16a382.144 382.144 0 0 0 81.152-196.48zM42.688 512a469.312 469.312 0 1 1 938.688 0A469.312 469.312 0 0 1 42.688 512zM512 341.376a170.688 170.688 0 1 0 0 341.312 170.688 170.688 0 0 0 0-341.312z" /></svg>