<?xml version="1.0" standalone="no"?><!DOCTYPE svg PUBLIC "-//W3C//DTD SVG 1.1//EN" "http://www.w3.org/Graphics/SVG/1.1/DTD/svg11.dtd"><svg class="icon" width="200px" height="200.00px" viewBox="0 0 1024 1024" version="1.1" xmlns="http://www.w3.org/2000/svg"><path d="M170.624 85.312v768h768v85.376H85.312V85.312h85.312z m512 128a42.688 42.688 0 1 0 0 85.376 42.688 42.688 0 0 0 0-85.312z m-128 42.688a128 128 0 1 1 256 0 128 128 0 0 1-256 0z m-128 256a85.312 85.312 0 1 0 0 170.688 85.312 85.312 0 0 0 0-170.688zM256 597.376a170.688 170.688 0 1 1 341.312 0 170.688 170.688 0 0 1-341.312 0z m469.312 0a85.312 85.312 0 1 1 170.688 0 85.312 85.312 0 0 1-170.688 0z" /></svg>