<?xml version="1.0" standalone="no"?><!DOCTYPE svg PUBLIC "-//W3C//DTD SVG 1.1//EN" "http://www.w3.org/Graphics/SVG/1.1/DTD/svg11.dtd"><svg class="icon" width="200px" height="200.00px" viewBox="0 0 1024 1024" version="1.1" xmlns="http://www.w3.org/2000/svg"><path d="M170.624 85.312v768h768v85.376H85.312V85.312h85.312z m512 102.592c-45.888 0-85.312 38.784-85.312 89.408v127.936h0.192v85.504h-0.192v130.944c0 98.816-71.232 188.992-170.688 188.992C327.232 810.688 256 720.512 256 621.696v-42.624h85.312v42.624c0 62.72 43.392 103.68 85.312 103.68 41.984 0 85.376-40.96 85.376-103.68V277.312c0-95.232 75.136-174.72 170.624-174.72 95.552 0 170.688 79.488 170.688 174.72V320H768v-42.688c0-50.624-39.488-89.408-85.376-89.408zM256 405.184h85.504v85.504H256V405.12z m127.808 0h85.504v85.568H383.808V405.248z m256 0h85.504v85.568H639.808V405.248z m128.192 0h85.504v85.568H768V405.248z" /></svg>