<?xml version="1.0" standalone="no"?><!DOCTYPE svg PUBLIC "-//W3C//DTD SVG 1.1//EN" "http://www.w3.org/Graphics/SVG/1.1/DTD/svg11.dtd"><svg class="icon" width="200px" height="200.00px" viewBox="0 0 1024 1024" version="1.1" xmlns="http://www.w3.org/2000/svg"><path d="M512 128a384 384 0 0 0-278.912 647.936l21.504 22.72L200.512 896H512A384 384 0 0 0 512 128zM42.688 512A469.312 469.312 0 1 1 512 981.312H55.488l94.72-170.368A467.584 467.584 0 0 1 42.688 512zM512 320c-37.056 0-68.736 23.68-80.448 56.896l-14.208 40.192-80.448-28.416 14.208-40.256A170.688 170.688 0 1 1 617.6 539.52c-18.432 14.528-34.88 28.416-46.72 43.008-11.776 14.4-16.192 26.048-16.192 36.224v53.312H469.376v-53.312c0-36.992 16.64-67.2 35.2-90.048 18.432-22.656 41.6-41.6 60.16-56.192A85.312 85.312 0 0 0 512 320z m-42.624 394.688H554.88v85.504H469.376v-85.504z" /></svg>