<?xml version="1.0" standalone="no"?><!DOCTYPE svg PUBLIC "-//W3C//DTD SVG 1.1//EN" "http://www.w3.org/Graphics/SVG/1.1/DTD/svg11.dtd"><svg class="icon" width="200px" height="200.00px" viewBox="0 0 1024 1024" version="1.1" xmlns="http://www.w3.org/2000/svg"><path d="M64 85.312h896V768H293.376L64 968.704V85.312z m85.312 85.376v609.92l112-97.92h613.376v-512H149.312zM512 246.272a138.688 138.688 0 0 0-173.44 214.4L512 634.24l173.44-173.44A138.688 138.688 0 0 0 512 246.336z m-37.696 78.72l37.76 37.696 37.696-37.76a53.312 53.312 0 1 1 75.392 75.456L512 513.536 398.912 400.384A53.312 53.312 0 1 1 474.24 324.928z" /></svg>