<?xml version="1.0" standalone="no"?><!DOCTYPE svg PUBLIC "-//W3C//DTD SVG 1.1//EN" "http://www.w3.org/Graphics/SVG/1.1/DTD/svg11.dtd"><svg class="icon" width="200px" height="200.00px" viewBox="0 0 1024 1024" version="1.1" xmlns="http://www.w3.org/2000/svg"><path d="M64 85.312h896v384h-85.312V170.688H149.312v609.92l112-97.92h293.376V768H293.376L64 968.704V85.312z m789.312 448v48.64c22.72 6.784 43.2 18.88 59.968 34.752l42.24-24.32 42.624 73.856-42.24 24.32a149.76 149.76 0 0 1 0 69.312l42.24 24.32-42.624 73.92-42.368-24.384a149.12 149.12 0 0 1-59.84 34.56v48.832h-85.376v-48.832a149.12 149.12 0 0 1-59.84-34.56l-42.304 24.384-42.688-73.856 42.24-24.384a149.76 149.76 0 0 1 0-69.248l-42.24-24.384 42.688-73.92 42.176 24.32c16.768-15.808 37.248-27.904 59.968-34.624v-48.64h85.376z m-42.688 127.808a64 64 0 1 0 0 128 64 64 0 0 0 0-128z" /></svg>