<?xml version="1.0" standalone="no"?><!DOCTYPE svg PUBLIC "-//W3C//DTD SVG 1.1//EN" "http://www.w3.org/Graphics/SVG/1.1/DTD/svg11.dtd"><svg class="icon" width="200px" height="200.00px" viewBox="0 0 1024 1024" version="1.1" xmlns="http://www.w3.org/2000/svg"><path d="M1002.688 978.944L796.992 832H320v-85.312h504.32l92.992 66.368V192h85.376v786.944z m-149.376-296.256H248.32L42.688 829.568V85.312h810.624v597.376zM128 663.744l92.992-66.432H768V170.688H128v493.056z m427.712-405.568l33.28 144 32.192 139.52H535.808l-20.48-88.512H399.744l-20.48 88.512H293.952l32.256-139.52 33.28-144 7.36-32.256h181.44l7.488 32.256zM418.944 369.92h77.184l-14.08-60.736h-49.024l-14.08 60.8z" /></svg>