<?xml version="1.0" standalone="no"?><!DOCTYPE svg PUBLIC "-//W3C//DTD SVG 1.1//EN" "http://www.w3.org/Graphics/SVG/1.1/DTD/svg11.dtd"><svg class="icon" width="200px" height="200.00px" viewBox="0 0 1024 1024" version="1.1" xmlns="http://www.w3.org/2000/svg"><path d="M64 85.312h896v432.064A256 256 0 0 0 558.208 768H293.376L64 968.704V85.312zM853.248 582.016v-48.64H768v48.64a149.184 149.184 0 0 0-59.968 34.688l-42.24-24.32-42.624 73.856 42.24 24.32a149.76 149.76 0 0 0 0 69.312l-42.24 24.32 42.624 73.92 42.368-24.384c16.704 15.808 37.12 27.776 59.84 34.56v48.832h85.312v-48.832a149.12 149.12 0 0 0 59.904-34.56l42.304 24.448 42.688-73.92-42.24-24.384a149.824 149.824 0 0 0 0-69.248l42.24-24.384-42.688-73.92-42.176 24.32a149.248 149.248 0 0 0-60.032-34.624z m-106.624 143.104a64 64 0 1 1 128 0 64 64 0 0 1-128 0z" /></svg>