<?xml version="1.0" standalone="no"?><!DOCTYPE svg PUBLIC "-//W3C//DTD SVG 1.1//EN" "http://www.w3.org/Graphics/SVG/1.1/DTD/svg11.dtd"><svg class="icon" width="200px" height="200.00px" viewBox="0 0 1024 1024" version="1.1" xmlns="http://www.w3.org/2000/svg"><path d="M512 42.688A469.312 469.312 0 0 0 150.208 810.88l-94.72 170.368H512A469.312 469.312 0 1 0 512 42.688zM431.552 376.896l-14.272 40.192-80.448-28.416 14.272-40.256A170.688 170.688 0 1 1 617.6 539.52c-18.432 14.528-34.88 28.416-46.784 43.008-11.712 14.4-16.128 26.048-16.128 36.224v53.312H469.376v-53.312c0-36.992 16.64-67.2 35.2-90.048 18.432-22.656 41.6-41.6 60.16-56.192a85.312 85.312 0 1 0-133.248-95.552z m123.264 337.792v85.504H469.312v-85.504H554.88z" /></svg>