<?xml version="1.0" standalone="no"?><!DOCTYPE svg PUBLIC "-//W3C//DTD SVG 1.1//EN" "http://www.w3.org/Graphics/SVG/1.1/DTD/svg11.dtd"><svg class="icon" width="200px" height="200.00px" viewBox="0 0 1024 1024" version="1.1" xmlns="http://www.w3.org/2000/svg"><path d="M355.52 580.224l-17.024-39.04-78.208 34.112 17.088 39.104a256 256 0 0 0 469.312 0l17.088-39.04-78.144-34.24-17.088 39.104a170.688 170.688 0 0 1-312.96 0zM512 42.688A469.312 469.312 0 0 0 150.208 810.88l-94.72 170.368H512A469.312 469.312 0 0 0 512 42.688zM128 512a384 384 0 1 1 384 384H200.512l54.08-97.344-21.504-22.72A382.528 382.528 0 0 1 128 512z" /></svg>