<?xml version="1.0" standalone="no"?><!DOCTYPE svg PUBLIC "-//W3C//DTD SVG 1.1//EN" "http://www.w3.org/Graphics/SVG/1.1/DTD/svg11.dtd"><svg class="icon" width="200px" height="200.00px" viewBox="0 0 1024 1024" version="1.1" xmlns="http://www.w3.org/2000/svg"><path d="M512 128a384 384 0 0 0-278.912 647.936l21.504 22.72L200.512 896H512A384 384 0 0 0 512 128zM42.688 512A469.312 469.312 0 1 1 512 981.312H55.488l94.72-170.368A467.584 467.584 0 0 1 42.688 512zM512 362.688c29.44 0 53.376 23.872 53.376 53.312V448H458.688v-32c0-29.44 23.872-53.312 53.312-53.312zM650.688 448v-32a138.688 138.688 0 0 0-277.312 0V448h-53.44v277.312h384V448h-53.248z m-32.064 85.312V640H405.312V533.312h213.312z" /></svg>