<?xml version="1.0" standalone="no"?><!DOCTYPE svg PUBLIC "-//W3C//DTD SVG 1.1//EN" "http://www.w3.org/Graphics/SVG/1.1/DTD/svg11.dtd"><svg class="icon" width="200px" height="200.00px" viewBox="0 0 1024 1024" version="1.1" xmlns="http://www.w3.org/2000/svg"><path d="M542.784 64.896C542.784 45.504 529.408 32 511.808 32c-17.664 0.576-30.464 14.016-30.464 33.472v35.008c0 11.904 0 23.744-0.576 35.072 0.576 19.392 13.44 33.472 31.04 33.472s30.976-13.504 30.976-32.96V64.896z m314.048 117.568c-5.312-11.328-14.912-16.192-30.464-17.28-3.648 1.6-11.2 3.264-16 8.128-19.2 18.304-37.952 37.12-56.128 56.64-11.136 11.84-9.6 29.632 1.6 41.472 10.24 10.752 28.864 13.504 40.064 2.752 20.352-18.944 39.552-38.272 58.24-58.88 8.576-9.152 8.576-21.504 2.688-32.832zM206.336 167.616a30.272 30.272 0 0 0-33.28 6.72 30.528 30.528 0 0 0-0.576 43.776c17.28 17.92 34.88 35.584 52.864 52.8 5.952 5.376 13.952 7.488 18.176 9.728 16.064-1.088 25.664-7.04 30.464-18.368 5.888-12.928 4.224-24.832-5.376-34.432a1545.152 1545.152 0 0 0-52.352-53.504 30.272 30.272 0 0 0-9.92-6.72z m576.768 322.816c-13.952-161.28-165.568-276.16-322.112-246.528-112.192 21.568-198.208 108.352-221.184 222.72-21.376 107.84 26.752 221.632 120.704 283.648 7.04 4.8 16.64 7.552 25.088 7.552 40.96 0.576 82.432 0.576 123.392 0.576h0.64c13.632 0 27.392 0 41.216 0.128 27.584 0.064 55.232 0.192 82.688-0.128a43.648 43.648 0 0 0 23.488-5.952c92.416-63.104 135.68-150.4 126.08-262.08v0.064z m-409.152-49.024h-59.264v155.968h58.368c25.088 0 44.032-6.592 56.832-19.84 12.8-13.184 19.2-32.512 19.2-57.92 0-24.512-6.4-43.648-19.2-57.472-12.8-13.824-31.424-20.736-55.936-20.736z m132.8 27.648h1.984l26.56 128.32h43.2l26.752-128.32h1.792v128.32h35.392V441.408H578.56L557.44 552.96l-0.512 2.24-0.448-2.24-21.12-111.616h-64v155.968h35.456V469.056z m199.872-27.648h-36.736v155.968h36.736V441.408zM392.192 563.712a30.272 30.272 0 0 1-17.792 6.016H351.36V469.12h22.976c6.528 0 12.608 2.176 18.24 6.656a46.08 46.08 0 0 1 13.44 18.176c3.392 7.68 5.12 16.32 5.12 25.92a62.72 62.72 0 0 1-5.312 26.56 42.496 42.496 0 0 1-13.696 17.344zM960 486.592a1777.408 1777.408 0 0 0-71.616 0 31.296 31.296 0 1 0 0 62.592H960c18.624-0.512 32-13.952 32-31.808a30.976 30.976 0 0 0-32-30.72zM167.168 518.4c0-17.728-13.888-31.232-32.64-31.232H64a30.72 30.72 0 0 0-32 31.232c0 17.28 13.888 30.272 32 30.784h35.84c11.776 0 23.488 0 34.752 0.576 18.688-0.576 32.576-13.504 32.576-31.36z m107.392 254.592c-5.952-11.84-15.552-17.28-31.552-18.368-3.712 1.664-11.712 3.84-16 8.64-19.2 17.856-37.44 36.16-55.04 55.04-11.712 12.416-10.176 30.72 1.088 42.624 11.2 11.264 29.312 13.44 41.152 2.112 19.2-18.304 38.4-37.248 56.576-57.152 8.576-9.152 9.088-21.056 3.776-32.896z m525.632-7.552c-5.312-5.312-13.824-8.064-18.176-10.816-16.512 1.088-26.688 7.04-32.576 18.944a29.504 29.504 0 0 0 5.888 34.496l51.328 51.776c13.312 12.928 32 13.44 44.288 1.088 12.8-12.416 12.8-31.296-0.512-45.376-16.64-16.704-33.088-33.92-50.24-50.112z m-175.744 90.624c0-22.72-12.288-35.072-34.688-35.072H510.208c-27.136 0-54.784 0-81.92 0.576-19.2 0-31.488 12.928-32 32.32-0.576 15.68-0.576 31.296 0 46.912 1.088 43.712 33.728 82.496 76.928 88.448 21.952 3.008 44.16 3.52 66.176 1.664a90.688 90.688 0 0 0 82.944-77.12c2.304-16.192 2.24-32.704 2.176-49.28v-8.448z" /></svg>