<?xml version="1.0" standalone="no"?><!DOCTYPE svg PUBLIC "-//W3C//DTD SVG 1.1//EN" "http://www.w3.org/Graphics/SVG/1.1/DTD/svg11.dtd"><svg class="icon" width="200px" height="200.00px" viewBox="0 0 1024 1024" version="1.1" xmlns="http://www.w3.org/2000/svg"><path d="M469.312 42.688V128H384v85.312h85.312v41.792L256 404.48V512H85.312v426.688h277.312v-192a149.312 149.312 0 1 1 298.688 0v192h277.312V512H768V404.48L554.624 255.04v-41.792H640V128H554.624V42.688H469.312zM256 853.312H170.624v-256H256v256z m512 0v-256h85.312v256H768zM512 682.624a64 64 0 0 0-64 64v192h128v-192a64 64 0 0 0-64-64z" /></svg>