<?xml version="1.0" standalone="no"?><!DOCTYPE svg PUBLIC "-//W3C//DTD SVG 1.1//EN" "http://www.w3.org/Graphics/SVG/1.1/DTD/svg11.dtd"><svg class="icon" width="200px" height="200.00px" viewBox="0 0 1024 1024" version="1.1" xmlns="http://www.w3.org/2000/svg"><path d="M469.312 42.688V128H384v85.312h85.312v41.792L256 404.48V512H85.312v426.688h853.312V512H768V404.48L554.624 255.04v-41.792H640V128H554.624V42.688H469.312zM512 329.408l170.624 119.488v404.48H640v-170.752a128 128 0 1 0-256 0v170.688h-42.688v-404.48L512 329.472z m-256 523.904H170.624v-256H256v256z m213.312 0v-170.688a42.688 42.688 0 1 1 85.312 0v170.688H469.312z m298.688 0v-256h85.312v256H768z" /></svg>