<?xml version="1.0" standalone="no"?><!DOCTYPE svg PUBLIC "-//W3C//DTD SVG 1.1//EN" "http://www.w3.org/Graphics/SVG/1.1/DTD/svg11.dtd"><svg class="icon" width="200px" height="200.00px" viewBox="0 0 1024 1024" version="1.1" xmlns="http://www.w3.org/2000/svg"><path d="M406.144 209.664c39.36-39.872 63.232-83.584 63.232-124.352h85.312c0 40.768 23.936 84.48 63.296 124.416 38.784 39.424 86.912 68.992 122.24 82.112 14.336 5.376 23.552 6.848 27.776 6.848h42.624V384H768v85.312H256V384h-42.752V298.688H256c4.16 0 13.44-1.536 27.904-6.848 35.264-13.12 83.392-42.752 122.24-82.176zM85.312 554.688V640H128v213.312h-42.688v85.376h384.064V768h85.376v170.688h383.872v-85.376H896V640h42.624V554.688H85.312z" /></svg>