<?xml version="1.0" standalone="no"?><!DOCTYPE svg PUBLIC "-//W3C//DTD SVG 1.1//EN" "http://www.w3.org/Graphics/SVG/1.1/DTD/svg11.dtd"><svg class="icon" width="200px" height="200.00px" viewBox="0 0 1024 1024" version="1.1" xmlns="http://www.w3.org/2000/svg"><path d="M512 2.816l-36.48 60.416V63.36l-0.256 0.384-1.088 1.664a960.704 960.704 0 0 1-19.52 30.72c-13.184 20.288-31.552 47.424-52.352 75.392-20.928 28.16-43.776 56.32-65.792 78.976-23.232 23.872-41.344 37.12-52.608 41.344-14.464 5.312-23.68 6.848-27.904 6.848h-42.688V384h42.752v85.312H768V384h42.624V298.688H768c-4.224 0-13.44-1.536-27.84-6.848-11.264-4.16-29.44-17.408-52.608-41.28a806.4 806.4 0 0 1-65.728-78.976 1537.088 1537.088 0 0 1-71.936-106.176L548.864 63.744 548.608 63.36 512.064 2.816zM85.312 554.688h853.312V640H896v298.688h-213.376v-213.376H341.312v213.376H128V640h-42.688V554.688zM426.624 938.688v-128h170.688v128H426.624z" /></svg>