<?xml version="1.0" standalone="no"?><!DOCTYPE svg PUBLIC "-//W3C//DTD SVG 1.1//EN" "http://www.w3.org/Graphics/SVG/1.1/DTD/svg11.dtd"><svg class="icon" width="200px" height="200.00px" viewBox="0 0 1024 1024" version="1.1" xmlns="http://www.w3.org/2000/svg"><path d="M341.696 77.952l170.24 106.368 170.24-106.368 272.32 163.392-43.904 73.216L896 305.728v632.96H127.872v-632.96l-14.72 8.832-43.84-73.216 272.384-163.392z m-128.512 176.64v598.72h85.44V640H384v213.312H469.12V258.24L340.8 178.048 213.12 254.592z m341.44 598.72H640V640h85.312v213.312h85.312V254.592l-127.616-76.544-128.384 80.192v595.072zM298.624 384h85.504v85.504H298.624V383.936z m341.376 0h85.44v85.504H640V383.936z" /></svg>