<?xml version="1.0" standalone="no"?><!DOCTYPE svg PUBLIC "-//W3C//DTD SVG 1.1//EN" "http://www.w3.org/Graphics/SVG/1.1/DTD/svg11.dtd"><svg class="icon" width="200px" height="200.00px" viewBox="0 0 1024 1024" version="1.1" xmlns="http://www.w3.org/2000/svg"><path d="M406.144 209.728c39.36-39.936 63.232-83.648 63.232-124.416h85.312c0 40.832 23.936 84.48 63.296 124.416 38.784 39.424 86.912 69.056 122.24 82.112 14.336 5.376 23.552 6.848 27.776 6.848h42.624V384H768v85.376h170.624v85.312H896v298.688h42.624v85.312H85.312v-85.312H128V554.688h-42.688V469.376h170.752V384h-42.752V298.688H256c4.16 0 13.44-1.472 27.904-6.848 35.264-13.12 83.392-42.752 122.24-82.112zM341.44 384v85.376h341.184V384H341.44z m247.296-85.312a451.2 451.2 0 0 1-31.552-28.992 372.992 372.992 0 0 1-45.12-55.104c-13.44 20.16-28.992 38.592-45.184 55.04a451.2 451.2 0 0 1-31.552 29.056h153.408z m-375.424 256v298.688h256.064v-170.688h85.312v170.688h256V554.688H213.248z" /></svg>