<?xml version="1.0" standalone="no"?><!DOCTYPE svg PUBLIC "-//W3C//DTD SVG 1.1//EN" "http://www.w3.org/Graphics/SVG/1.1/DTD/svg11.dtd"><svg class="icon" width="200px" height="200.00px" viewBox="0 0 1024 1024" version="1.1" xmlns="http://www.w3.org/2000/svg"><path d="M475.52 63.296L512 2.816l36.608 60.544 0.256 0.384 1.024 1.728a963.776 963.776 0 0 0 19.52 30.72c13.248 20.224 31.616 47.36 52.416 75.392 20.928 28.16 43.712 56.32 65.728 79.04 23.232 23.808 41.344 37.056 52.608 41.216 14.4 5.376 23.68 6.848 27.84 6.848h42.624V384H768v85.312h170.624v85.376H896v384H128v-384h-42.688V469.312h170.752V384h-42.752V298.688H256c4.16 0 13.44-1.472 27.904-6.848 11.264-4.224 29.44-17.472 52.608-41.28 22.016-22.656 44.8-50.88 65.792-78.976a1536.448 1536.448 0 0 0 71.872-106.176l1.088-1.664 0.192-0.384L475.52 63.36zM341.44 384v85.312h341.184V384H341.44z m274.176-85.312a954.624 954.624 0 0 1-62.272-76.16A1561.6 1561.6 0 0 1 512 164.032c-11.84 17.536-25.92 37.76-41.28 58.432-19.008 25.472-40.32 52.352-62.336 76.16h207.168z m-402.304 256v298.688h128V640h341.312v213.376h128V554.688H213.312z m384 298.688v-128H426.624v128h170.688z" /></svg>