<?xml version="1.0" standalone="no"?><!DOCTYPE svg PUBLIC "-//W3C//DTD SVG 1.1//EN" "http://www.w3.org/Graphics/SVG/1.1/DTD/svg11.dtd"><svg class="icon" width="200px" height="200.00px" viewBox="0 0 1024 1024" version="1.1" xmlns="http://www.w3.org/2000/svg"><path d="M85.312 85.312h512v341.376h341.312v512H85.312V85.312zM512 426.688V341.376H384v85.312h128zM384 512v85.376h128V512H384zM298.624 426.688V341.376h-128v85.312h128zM170.624 512v85.376h128V512h-128z m0 170.688v170.688H512v-170.688H170.624z m426.688 170.688h85.312v-170.688H768v170.688h85.312V512h-256v341.376zM170.624 256h128V170.688h-128V256zM384 170.688V256h128V170.688H384z" /></svg>