<?xml version="1.0" standalone="no"?><!DOCTYPE svg PUBLIC "-//W3C//DTD SVG 1.1//EN" "http://www.w3.org/Graphics/SVG/1.1/DTD/svg11.dtd"><svg class="icon" width="200px" height="200.00px" viewBox="0 0 1024 1024" version="1.1" xmlns="http://www.w3.org/2000/svg"><path d="M401.728 256.192a213.376 213.376 0 0 1 391.232-0.128A192 192 0 0 1 981.376 448c0 51.84-26.368 99.392-59.2 132.8a211.584 211.584 0 0 1-72.128 48.64c2.176 12.672 3.328 25.728 3.328 39.04 0 124.8-99.52 227.52-224 227.52H230.4C125.952 896 42.688 809.92 42.688 705.408c0-76.352 44.352-142.72 109.056-173.056a272.96 272.96 0 0 1-0.256-11.84c0-141.888 110.4-258.944 250.24-264.32z m90.176 12.608a263.104 263.104 0 0 1 168.768 174.272c67.776 9.6 125.44 49.984 159.616 106.304 13.056-5.312 27.52-14.72 41.024-28.416 22.08-22.464 34.688-49.6 34.688-72.96a106.688 106.688 0 0 0-125.376-105.024l-39.424 6.976-9.472-38.976a128.064 128.064 0 0 0-229.824-42.24zM411.776 341.312c-95.872 0-174.976 79.488-174.976 179.2 0 11.392 1.024 22.4 3.008 33.088l7.232 39.936-39.488 9.28A104.704 104.704 0 0 0 128 705.408c0 58.88 46.656 105.28 102.4 105.28h398.976c75.776 0 138.624-62.912 138.624-142.272 0-19.584-3.84-38.08-10.688-54.912a138.752 138.752 0 0 0-130.24-87.232l-36.864 0.576-5.952-36.352C571.136 410.624 506.624 349.44 427.84 342.08a173.44 173.44 0 0 0-16.064-0.768z" /></svg>