<?xml version="1.0" standalone="no"?><!DOCTYPE svg PUBLIC "-//W3C//DTD SVG 1.1//EN" "http://www.w3.org/Graphics/SVG/1.1/DTD/svg11.dtd"><svg class="icon" width="200px" height="200.00px" viewBox="0 0 1024 1024" version="1.1" xmlns="http://www.w3.org/2000/svg"><path d="M682.88 42.688v85.44H597.312V42.752h85.44z m-253.952 69.76l60.48 60.416-60.48 60.48-60.416-60.48 60.416-60.48z m422.4 0l60.352 60.416-60.416 60.416-60.48-60.416 60.48-60.48z m-383.744 145.92A283.84 283.84 0 0 0 430.976 256C281.6 256 157.888 372.928 157.888 520.512c0 3.776 0.064 7.488 0.256 11.2C90.688 561.408 42.688 627.328 42.688 705.408c0 75.776 45.376 140.288 109.568 171.008l38.528 18.432 36.8-76.928-38.464-18.432c-36.928-17.728-61.12-53.696-61.12-94.08 0-48.768 35.52-91.392 85.632-102.464l40.576-8.96-7.872-40.768a172.416 172.416 0 0 1-3.136-32.64c0-97.536 82.56-179.2 187.776-179.2 16.32 0 32.128 1.92 47.168 5.632C549.952 364.8 604.16 421.76 616.128 490.88l6.272 35.904 36.48-0.576a155.776 155.776 0 0 1 77.504 19.2c45.056 25.024 74.304 71.168 74.304 123.008 0 57.344-35.84 107.84-89.088 130.176l-39.36 16.576 33.088 78.656 39.36-16.512c82.368-34.688 141.312-114.56 141.312-208.896 0-67.2-29.888-127.04-76.928-168.448a213.312 213.312 0 0 0-351.488-241.6z m89.984 27.712a128 128 0 0 1 188.288 169.984c-17.088-6.4-35.136-10.88-53.76-13.248A267.264 267.264 0 0 0 557.504 286.08zM896 341.312h85.504V426.88H896V341.312zM512 597.248h85.504v85.504H511.936V597.248z m-213.312 85.312h85.504v85.504H298.624v-85.504z m213.312 128h85.504v85.504H511.936v-85.504zM298.624 896h85.504v85.504H298.624v-85.504z" /></svg>