<?xml version="1.0" standalone="no"?><!DOCTYPE svg PUBLIC "-//W3C//DTD SVG 1.1//EN" "http://www.w3.org/Graphics/SVG/1.1/DTD/svg11.dtd"><svg class="icon" width="200px" height="200.00px" viewBox="0 0 1024 1024" version="1.1" xmlns="http://www.w3.org/2000/svg"><path d="M682.88 42.688v85.44H597.312V42.752h85.44z m-253.952 69.76l60.48 60.416-60.48 60.48-60.416-60.48 60.416-60.48z m422.4 0l60.352 60.416-60.416 60.416-60.48-60.416 60.48-60.48z m-383.744 145.92a213.312 213.312 0 1 1 351.488 241.6A223.872 223.872 0 0 1 896 668.416C896 795.584 789.44 896 661.376 896h-422.4c-106.88 0-196.288-83.84-196.288-190.592 0-78.08 48-144 115.456-173.696a259.2 259.2 0 0 1-0.256-11.2C157.888 372.928 281.664 256 430.976 256c12.416 0 24.64 0.768 36.608 2.368z m-36.608 82.944C325.76 341.312 243.2 423.04 243.2 520.512c0 11.2 1.088 22.144 3.136 32.64l7.872 40.768-40.576 8.96C163.52 614.08 128 656.64 128 705.472c0 56.64 48.128 105.28 110.976 105.28h422.4c83.968 0 149.312-65.216 149.312-142.272 0-51.84-29.248-97.92-74.24-122.944a154.176 154.176 0 0 0-77.632-19.2l-36.48 0.512-6.208-35.84C604.16 421.632 549.952 364.8 478.144 346.944a196.544 196.544 0 0 0-47.168-5.696z m465.024 0h85.504V426.88H896V341.312z" /></svg>