<?xml version="1.0" standalone="no"?><!DOCTYPE svg PUBLIC "-//W3C//DTD SVG 1.1//EN" "http://www.w3.org/Graphics/SVG/1.1/DTD/svg11.dtd"><svg class="icon" width="200px" height="200.00px" viewBox="0 0 1024 1024" version="1.1" xmlns="http://www.w3.org/2000/svg"><path d="M196.896406 268.109228a320.058399 320.058399 0 0 1 631.540948 0 277.435145 277.435145 0 0 1 44.991213 512.311035l-38.015335 19.39166-38.84732-75.96667 38.015335-19.391661a191.99664 191.99664 0 0 0-52.735077-359.9937l-32.895425-6.015895-2.111963-33.279417a234.683893 234.683893 0 0 0-468.343804 0l-2.111963 33.279417-32.895424 6.015895a192.060639 192.060639 0 0 0-52.735077 359.9937l38.015334 19.391661-38.84732 75.96667-38.015335-19.39166a277.307147 277.307147 0 0 1 44.991213-512.311035z m358.393728 158.589225v408.952843l127.99776-127.99776 60.414943 60.350944L512.66688 999.040437 281.630923 768.00448l60.350944-60.350944 127.99776 127.99776v-408.952843h85.374506z" /></svg>