<?xml version="1.0" standalone="no"?><!DOCTYPE svg PUBLIC "-//W3C//DTD SVG 1.1//EN" "http://www.w3.org/Graphics/SVG/1.1/DTD/svg11.dtd"><svg class="icon" width="200px" height="200.00px" viewBox="0 0 1024 1024" version="1.1" xmlns="http://www.w3.org/2000/svg"><path d="M469.376 213.312A213.312 213.312 0 0 0 259.584 465.92l7.488 40.256-39.872 9.152A128.064 128.064 0 0 0 256 768h469.376a170.688 170.688 0 1 0-2.88-341.312l-36.672 0.64-6.08-36.224a213.376 213.376 0 0 0-210.368-177.792zM170.688 426.688a298.688 298.688 0 0 1 585.472-83.52 256 256 0 0 1-30.784 510.144H256a213.312 213.312 0 0 1-84.8-409.088 302.656 302.656 0 0 1-0.512-17.536z" /></svg>