<?xml version="1.0" standalone="no"?><!DOCTYPE svg PUBLIC "-//W3C//DTD SVG 1.1//EN" "http://www.w3.org/Graphics/SVG/1.1/DTD/svg11.dtd"><svg class="icon" width="200px" height="200.00px" viewBox="0 0 1024 1024" version="1.1" xmlns="http://www.w3.org/2000/svg"><path d="M688.32 38.464l-4.416 50.56a192.192 192.192 0 0 0 208.32 208.32l50.56-4.416-4.416 50.56a276.928 276.928 0 0 1-92.224 183.424c31.552 38.656 50.56 87.68 50.56 141.184 0 94.4-58.944 174.336-141.44 209.024l-39.296 16.512-33.088-78.656 39.296-16.512c53.312-22.4 89.216-72.96 89.216-130.368 0-44.864-21.824-85.312-56.832-111.744a154.304 154.304 0 0 0-95.168-30.592l-36.48 0.576-6.272-35.904C604.608 421.12 550.4 364.16 478.528 346.432a196.736 196.736 0 0 0-49.984-5.76c-104.064 1.408-185.216 82.688-185.216 179.392 0 11.2 1.088 22.144 3.136 32.64l7.808 40.832-40.512 8.96c-50.24 11.136-85.76 53.76-85.76 102.656 0 40.448 24.192 76.48 61.184 94.144l38.464 18.432-36.8 76.992-38.528-18.432c-64.256-30.72-109.632-95.36-109.632-171.136 0-78.144 48-144.128 115.52-173.824a259.84 259.84 0 0 1-0.192-11.264c0-134.208 102.272-243.136 233.088-261.888A277.76 277.76 0 0 1 637.76 42.88l50.56-4.352zM479.168 259.392c6.72 1.152 13.312 2.56 19.84 4.16 91.712 22.656 165.632 90.496 193.6 178.752a238.592 238.592 0 0 1 87.232 28.8 192.64 192.64 0 0 0 64-89.536A277.696 277.696 0 0 1 599.68 137.408a192.768 192.768 0 0 0-120.512 121.984z m32.64 336.896h85.568v85.504H511.872V596.288z m-213.12 85.312h85.504v85.504H298.688V681.6z m213.312 128h85.504v85.504H512V809.6z m-213.312 85.376h85.504v85.504H298.688v-85.504z" /></svg>