<?xml version="1.0" standalone="no"?><!DOCTYPE svg PUBLIC "-//W3C//DTD SVG 1.1//EN" "http://www.w3.org/Graphics/SVG/1.1/DTD/svg11.dtd"><svg class="icon" width="200px" height="200.00px" viewBox="0 0 1024 1024" version="1.1" xmlns="http://www.w3.org/2000/svg"><path d="M512 67.648l256.448 256.448a362.752 362.752 0 0 1 81.28 388.864 321.024 321.024 0 0 1-81.856 124.544 362.816 362.816 0 0 1-112.192 76.16 362.816 362.816 0 0 1-400.128-589.568L512 67.648z m134.72 755.392c19.264-11.008 39.488-26.112 61.888-46.912 27.648-27.776 48.192-59.968 61.632-94.272 11.52-32 16.896-66.752 16.256-101.888-1.344-74.304-29.632-146.752-78.4-195.52L554.624 230.976v620.48a236.032 236.032 0 0 0 66.048-15.68c8.832-3.776 17.536-8 26.048-12.736zM469.312 231.04L315.904 384.384a277.312 277.312 0 0 0 153.408 470.144V231.04z" /></svg>