<?xml version="1.0" standalone="no"?><!DOCTYPE svg PUBLIC "-//W3C//DTD SVG 1.1//EN" "http://www.w3.org/Graphics/SVG/1.1/DTD/svg11.dtd"><svg class="icon" width="200px" height="200.00px" viewBox="0 0 1024 1024" version="1.1" xmlns="http://www.w3.org/2000/svg"><path d="M277.376 192c47.104 0 85.312 38.208 85.312 85.312v85.376H277.376a85.312 85.312 0 0 1 0-170.688zM448 362.688V277.312A170.688 170.688 0 1 0 277.376 448h85.312v128H277.376A170.688 170.688 0 1 0 448 746.688v-85.376h128v85.376A170.688 170.688 0 1 0 746.688 576h-85.312V448h85.312A170.688 170.688 0 1 0 576 277.312v85.376H448zM448 448h128v128H448V448z m213.376-85.312V277.312a85.312 85.312 0 1 1 85.312 85.376h-85.312z m0 298.624h85.312a85.312 85.312 0 1 1-85.312 85.376v-85.376z m-298.688 0v85.376a85.312 85.312 0 1 1-85.312-85.376h85.312z" /></svg>