<?xml version="1.0" standalone="no"?><!DOCTYPE svg PUBLIC "-//W3C//DTD SVG 1.1//EN" "http://www.w3.org/Graphics/SVG/1.1/DTD/svg11.dtd"><svg class="icon" width="200px" height="200.00px" viewBox="0 0 1024 1024" version="1.1" xmlns="http://www.w3.org/2000/svg"><path d="M512 170.688a341.312 341.312 0 1 0 0 682.624A341.312 341.312 0 0 0 512 170.688zM85.312 512a426.688 426.688 0 1 1 853.312 0A426.688 426.688 0 0 1 85.312 512zM512 341.312a170.688 170.688 0 1 0 0 341.376 170.688 170.688 0 0 0 0-341.312zM256 512a256 256 0 1 1 512 0 256 256 0 0 1-512 0z" /></svg>