<?xml version="1.0" standalone="no"?><!DOCTYPE svg PUBLIC "-//W3C//DTD SVG 1.1//EN" "http://www.w3.org/Graphics/SVG/1.1/DTD/svg11.dtd"><svg class="icon" width="200px" height="200.00px" viewBox="0 0 1024 1024" version="1.1" xmlns="http://www.w3.org/2000/svg"><path d="M426.688 341.312H264.576c-101.12 1.088-179.2 78.976-179.2 170.688 0 91.712 78.08 169.6 179.2 170.624h162.112V768H263.936C119.872 766.592 0 654.4 0 512s119.872-254.592 263.936-256H426.688v85.312zM597.312 256h160C902.592 256 1024 368.64 1024 512s-121.344 256-266.688 256h-160v-85.312h160c102.144 0 181.376-78.336 181.376-170.688 0-92.288-79.232-170.688-181.376-170.688h-160V256zM298.688 469.312h426.624v85.376H298.688V469.312z" /></svg>