<?xml version="1.0" standalone="no"?><!DOCTYPE svg PUBLIC "-//W3C//DTD SVG 1.1//EN" "http://www.w3.org/Graphics/SVG/1.1/DTD/svg11.dtd"><svg class="icon" width="200px" height="200.00px" viewBox="0 0 1024 1024" version="1.1" xmlns="http://www.w3.org/2000/svg"><path d="M469.376 130.368a384 384 0 0 0 0 763.328V130.368z m85.312 0v76.16l93.184-53.76a381.568 381.568 0 0 0-93.184-22.4z m181.568 69.888L554.688 305.024v172.48l285.568-164.928a385.92 385.92 0 0 0-104-112.32z m140.096 190.08L554.688 576v172.416l339.2-195.84a388.48 388.48 0 0 0-17.536-162.24z m-13.952 278.976l-307.712 177.664v46.72a384.32 384.32 0 0 0 307.712-224.384zM42.688 512a469.312 469.312 0 1 1 938.688 0A469.312 469.312 0 0 1 42.688 512z" /></svg>