<?xml version="1.0" standalone="no"?><!DOCTYPE svg PUBLIC "-//W3C//DTD SVG 1.1//EN" "http://www.w3.org/Graphics/SVG/1.1/DTD/svg11.dtd"><svg class="icon" width="200px" height="200.00px" viewBox="0 0 1024 1024" version="1.1" xmlns="http://www.w3.org/2000/svg"><path d="M384 67.648l128 128 128-128L1020.352 448 512 956.352 3.712 448 384 67.648zM451.712 256L384 188.352 124.352 448 512 835.648l40.768-40.704-101.12-101.056L512 633.6l101.12 101.12 40.64-40.768-100.992-101.056 60.288-60.352 101.12 101.12 57.536-57.6L640 444.352l-128 128L323.712 384l128-128zM832 515.648L899.712 448 640 188.352 444.352 384 512 451.648l128-128 192 192z" /></svg>