<?xml version="1.0" standalone="no"?><!DOCTYPE svg PUBLIC "-//W3C//DTD SVG 1.1//EN" "http://www.w3.org/Graphics/SVG/1.1/DTD/svg11.dtd"><svg class="icon" width="200px" height="200.00px" viewBox="0 0 1024 1024" version="1.1" xmlns="http://www.w3.org/2000/svg"><path d="M512 896A384 384 0 1 0 512 128a384 384 0 0 0 0 768z m469.376-384A469.312 469.312 0 1 1 42.688 512a469.312 469.312 0 0 1 938.688 0zM406.4 406.4a149.312 149.312 0 0 0 211.2 211.2l30.208-30.144 60.352 60.352-30.208 30.144a234.688 234.688 0 1 1 0-331.84l30.208 30.144-60.352 60.352-30.208-30.144a149.312 149.312 0 0 0-211.2 0z" /></svg>