<?xml version="1.0" standalone="no"?><!DOCTYPE svg PUBLIC "-//W3C//DTD SVG 1.1//EN" "http://www.w3.org/Graphics/SVG/1.1/DTD/svg11.dtd"><svg class="icon" width="200px" height="200.00px" viewBox="0 0 1024 1024" version="1.1" xmlns="http://www.w3.org/2000/svg"><path d="M170.688 896H128V48.256l66.304 44.224 102.08 68.032L378.688 94.72l26.624-21.312 26.688 21.312 80 64 80-64 26.688-21.312 26.624 21.312 82.304 65.92 102.08-68.096L896 48.32V896H170.688z m42.624-688.256v602.88h597.376v-602.88l-61.696 41.088-25.92 17.28-24.384-19.456-80-64-80 64L512 267.968l-26.624-21.312-80-64-80 64-24.448 19.52-25.92-17.28-61.696-41.152z m128 474.88h-42.624V597.376h426.624v85.376h-384z m128-170.624H725.312V426.688h-256V512z m-128-85.312h-42.624v85.504h85.504V426.688h-42.88z" /></svg>