<?xml version="1.0" standalone="no"?><!DOCTYPE svg PUBLIC "-//W3C//DTD SVG 1.1//EN" "http://www.w3.org/Graphics/SVG/1.1/DTD/svg11.dtd"><svg class="icon" width="200px" height="200.00px" viewBox="0 0 1024 1024" version="1.1" xmlns="http://www.w3.org/2000/svg"><path d="M512 128a384 384 0 1 0 0 768A384 384 0 0 0 512 128zM42.688 512a469.312 469.312 0 1 1 938.688 0A469.312 469.312 0 0 1 42.688 512zM384 341.312V512H298.688V341.312H384z m341.376 0V512H640V341.312h85.376z m-12.032 246.656l-10.688 41.344c-11.52 44.608-33.856 80.832-68.864 105.28C599.424 758.592 557.44 768 512 768h-42.624v-85.312H512c34.176 0 57.344-7.168 72.96-18.048 15.104-10.56 27.584-27.584 35.072-56.64l10.624-41.28 82.688 21.248z" /></svg>