<?xml version="1.0" standalone="no"?><!DOCTYPE svg PUBLIC "-//W3C//DTD SVG 1.1//EN" "http://www.w3.org/Graphics/SVG/1.1/DTD/svg11.dtd"><svg class="icon" width="200px" height="200.00px" viewBox="0 0 1024 1024" version="1.1" xmlns="http://www.w3.org/2000/svg"><path d="M82.816 42.688h858.368l-46.848 819.52L512 1005.568l-382.336-143.36L82.816 42.688zM173.184 128l38.464 673.792L512 914.432l300.288-112.64L850.816 128H173.184z m60.736 85.312h548.16l-4.608 80.512-311.04 148.928h302.528l-17.28 302.272L512 834.88l-239.744-89.856-4.864-85.12v-0.128l-3.2-59.328h85.76l2.624 54.784 1.728 29.44L512 743.68l157.632-59.136 8.96-156.544H259.84l-4.48-78.912 314.368-150.464H512l-266.88 0.512-11.2-85.888z" /></svg>