<?xml version="1.0" standalone="no"?><!DOCTYPE svg PUBLIC "-//W3C//DTD SVG 1.1//EN" "http://www.w3.org/Graphics/SVG/1.1/DTD/svg11.dtd"><svg class="icon" width="200px" height="200.00px" viewBox="0 0 1024 1024" version="1.1" xmlns="http://www.w3.org/2000/svg"><path d="M874.624 248.96A448 448 0 0 0 66.432 464.896l-4.48 42.432 84.928 8.896 4.48-42.432A362.752 362.752 0 0 1 819.648 320h-73.088v85.312H960V106.688h-85.376V248.96zM469.312 256v42.688a128 128 0 1 0 0 256h85.312a42.688 42.688 0 1 1 0 85.312h-192v85.312h106.688V768h85.312v-42.688a128 128 0 1 0 0-256H469.312a42.688 42.688 0 1 1 0-85.312h192V298.688H554.624V256H469.312z m407.808 251.776l-4.48 42.432A362.688 362.688 0 0 1 204.224 704h73.088V618.688H64v298.624h85.312V775.04a448 448 0 0 0 808.192-215.936l4.48-42.432-84.864-8.896z" /></svg>