<?xml version="1.0" standalone="no"?><!DOCTYPE svg PUBLIC "-//W3C//DTD SVG 1.1//EN" "http://www.w3.org/Graphics/SVG/1.1/DTD/svg11.dtd"><svg class="icon" width="200px" height="200.00px" viewBox="0 0 1024 1024" version="1.1" xmlns="http://www.w3.org/2000/svg"><path d="M85.312 938.688V368a238.72 238.72 0 0 0 138.24 48l74.688 522.688H85.312zM295.424 315.84A154.048 154.048 0 0 1 211.2 329.6a154.88 154.88 0 0 1-125.888-97.024v-147.2h853.312v147.2a154.88 154.88 0 0 1-285.312 6.4 155.264 155.264 0 0 1-59.52 68.352c-23.744 14.784-51.84 23.36-81.792 23.36-30.08 0-58.048-8.576-81.792-23.36a155.328 155.328 0 0 1-59.52-68.416 155.264 155.264 0 0 1-75.264 76.928zM307.84 402.88c22.72-7.872 43.84-19.008 62.784-32.896 39.68 28.928 88.448 46.08 141.376 46.08 52.864 0 101.76-17.152 141.312-46.08 19.008 13.888 40.128 25.024 62.72 32.896l-76.48 535.808H384.384L307.84 402.88zM725.76 938.688l74.688-522.752a238.72 238.72 0 0 0 138.24-47.936v570.688H725.76z" /></svg>