<?xml version="1.0" standalone="no"?><!DOCTYPE svg PUBLIC "-//W3C//DTD SVG 1.1//EN" "http://www.w3.org/Graphics/SVG/1.1/DTD/svg11.dtd"><svg class="icon" width="200px" height="200.00px" viewBox="0 0 1024 1024" version="1.1" xmlns="http://www.w3.org/2000/svg"><path d="M85.312 85.312h853.312v853.376H85.312V85.376zM170.624 403.84v449.536H295.04l-35.072-426.752H256c-31.104 0-60.224-8.256-85.376-22.784z m172.928-1.28l37.12 450.816h262.656l37.056-450.88A171.52 171.52 0 0 1 640 368.896a170.24 170.24 0 0 1-128 57.792 170.24 170.24 0 0 1-128-57.792 171.52 171.52 0 0 1-40.448 33.6zM341.312 256h85.312a85.312 85.312 0 1 0 170.688 0h85.312a85.376 85.376 0 0 0 170.688 0V170.688H170.624V256a85.312 85.312 0 1 0 170.688 0z m512 147.84a169.856 169.856 0 0 1-89.28 22.784l-35.072 426.752h124.352V403.84z" /></svg>