<?xml version="1.0" standalone="no"?><!DOCTYPE svg PUBLIC "-//W3C//DTD SVG 1.1//EN" "http://www.w3.org/Graphics/SVG/1.1/DTD/svg11.dtd"><svg class="icon" width="200px" height="200.00px" viewBox="0 0 1024 1024" version="1.1" xmlns="http://www.w3.org/2000/svg"><path d="M554.624 42.688v106.624H469.312V42.688h85.312z m359.04 106.624L640 423.04l-60.352-60.288 273.664-273.728 60.352 60.352zM170.624 88.96l510.656 510.656a170.752 170.752 0 1 1-60.352 60.352L512 550.976l-108.992 108.992a170.752 170.752 0 1 1-60.352-60.352l108.992-108.928-341.312-341.376 60.288-60.352z m384 124.352V320H469.312V213.312h85.312z m-238.336 472.96a85.312 85.312 0 1 0-120.64 120.704 85.312 85.312 0 0 0 120.64-120.64z m512 0a85.312 85.312 0 1 0-120.64 120.704 85.312 85.312 0 0 0 120.704-120.64z" /></svg>