<?xml version="1.0" standalone="no"?><!DOCTYPE svg PUBLIC "-//W3C//DTD SVG 1.1//EN" "http://www.w3.org/Graphics/SVG/1.1/DTD/svg11.dtd"><svg class="icon" width="200px" height="200.00px" viewBox="0 0 1024 1024" version="1.1" xmlns="http://www.w3.org/2000/svg"><path d="M316.288 195.648a85.312 85.312 0 1 0-120.64 120.704 85.312 85.312 0 0 0 120.64-120.704z m-180.992-60.288a170.688 170.688 0 0 1 267.712 207.36L512 451.648l341.312-341.312 60.352 60.352-510.656 510.592a170.752 170.752 0 1 1-60.352-60.288L451.648 512 342.656 403.072a170.752 170.752 0 0 1-207.36-267.712zM640 579.648l273.664 273.728-60.352 60.288L579.648 640 640 579.648z m-323.712 128a85.312 85.312 0 1 0-120.64 120.704 85.312 85.312 0 0 0 120.64-120.704z" /></svg>