<?xml version="1.0" standalone="no"?><!DOCTYPE svg PUBLIC "-//W3C//DTD SVG 1.1//EN" "http://www.w3.org/Graphics/SVG/1.1/DTD/svg11.dtd"><svg class="icon" width="200px" height="200.00px" viewBox="0 0 1024 1024" version="1.1" xmlns="http://www.w3.org/2000/svg"><path d="M512 128c166.592 0 298.624 134.912 298.624 302.912v422.4h-85.312v-422.4a213.312 213.312 0 1 0-426.688 0v422.4H213.312v-422.4C213.312 262.912 345.344 128 512 128z m384 725.312v-422.4C896 217.152 727.04 42.688 512 42.688c-215.168 0-384 174.464-384 388.224v422.4h-42.688v85.312h341.312v-85.312H384v-422.4a128 128 0 1 1 256 0v422.4h-42.688v85.312h341.312v-85.312H896z" /></svg>