<?xml version="1.0" standalone="no"?><!DOCTYPE svg PUBLIC "-//W3C//DTD SVG 1.1//EN" "http://www.w3.org/Graphics/SVG/1.1/DTD/svg11.dtd"><svg class="icon" width="200px" height="200.00px" viewBox="0 0 1024 1024" version="1.1" xmlns="http://www.w3.org/2000/svg"><path d="M298.688 512a213.312 213.312 0 1 1 426.688 0 213.312 213.312 0 0 1-426.688 0zM512 426.688a85.312 85.312 0 1 0 0 170.624 85.312 85.312 0 0 0 0-170.624zM512 42.688a469.312 469.312 0 1 1 0 938.624A469.312 469.312 0 0 1 512 42.688z m0 170.624a298.688 298.688 0 1 0 0 597.376 298.688 298.688 0 0 0 0-597.376z" /></svg>