<?xml version="1.0" standalone="no"?><!DOCTYPE svg PUBLIC "-//W3C//DTD SVG 1.1//EN" "http://www.w3.org/Graphics/SVG/1.1/DTD/svg11.dtd"><svg class="icon" width="200px" height="192.12px" viewBox="0 0 1066 1024" version="1.1" xmlns="http://www.w3.org/2000/svg"><path d="M554.75264 128a384 384 0 0 0-192 716.608l36.928 21.376-42.688 73.856-36.928-21.312a469.312 469.312 0 1 1 381.824-852.288l40.512 13.312-26.752 81.024-40.512-13.312a383.616 383.616 0 0 0-120.32-19.2z m383.232 60.352l-236.48 236.416a170.688 170.688 0 1 1-60.544-60.16L877.63264 128l60.352 60.352z m49.28 136l13.312 40.512c15.296 46.336 23.552 95.808 23.552 147.2a469.12 469.12 0 0 1-234.496 406.4l-36.928 21.376-42.752-73.856 36.928-21.376A383.808 383.808 0 0 0 938.75264 512c0-42.112-6.72-82.56-19.2-120.384l-13.44-40.512 81.088-26.752z" /></svg>