<?xml version="1.0" standalone="no"?><!DOCTYPE svg PUBLIC "-//W3C//DTD SVG 1.1//EN" "http://www.w3.org/Graphics/SVG/1.1/DTD/svg11.dtd"><svg class="icon" width="200px" height="200.00px" viewBox="0 0 1024 1024" version="1.1" xmlns="http://www.w3.org/2000/svg"><path d="M85.312 85.312h853.312v384H85.312v-384z m256.064 192H255.872V362.88h85.504V277.312zM85.312 554.688H800a224 224 0 0 0-156.8 384H85.312v-384z m256.064 106.624H255.872v85.504h85.504v-85.504zM800 618.688a160 160 0 1 0 78.848 299.2l70.464 70.4 60.352-60.288-70.4-70.4A160 160 0 0 0 800 618.624z m-74.688 160a74.688 74.688 0 1 1 149.312 0 74.688 74.688 0 0 1-149.312 0z" /></svg>