<?xml version="1.0" standalone="no"?><!DOCTYPE svg PUBLIC "-//W3C//DTD SVG 1.1//EN" "http://www.w3.org/Graphics/SVG/1.1/DTD/svg11.dtd"><svg class="icon" width="200px" height="200.00px" viewBox="0 0 1024 1024" version="1.1" xmlns="http://www.w3.org/2000/svg"><path d="M85.312 85.312h853.312v469.376h-768v298.688H576v85.312H85.312V85.312z m85.312 384h682.688V170.688H170.624v298.624z m85.248-192h85.504V362.88H255.872V277.312zM800 704a74.688 74.688 0 1 0 0 149.312 74.688 74.688 0 0 0 0-149.312zM640 778.688a160 160 0 1 1 299.2 78.848l70.4 70.4-60.288 60.416-70.4-70.4A160 160 0 0 1 640 778.688z m-384.128-117.376h85.504v85.504H255.872v-85.504z" /></svg>