<?xml version="1.0" standalone="no"?><!DOCTYPE svg PUBLIC "-//W3C//DTD SVG 1.1//EN" "http://www.w3.org/Graphics/SVG/1.1/DTD/svg11.dtd"><svg class="icon" width="200px" height="200.00px" viewBox="0 0 1024 1024" version="1.1" xmlns="http://www.w3.org/2000/svg"><path d="M170.624 213.312s-0.128-0.768 1.536-3.456a52.736 52.736 0 0 1 12.416-12.8c14.08-11.136 37.12-23.04 69.376-33.728C318.016 141.952 409.28 128 512 128s193.92 13.952 257.984 35.328c32.32 10.752 55.296 22.592 69.44 33.728a52.736 52.736 0 0 1 12.416 12.8c1.664 2.752 1.472 3.456 1.472 3.52 0 0.064 0.128 0.832-1.472 3.456a52.736 52.736 0 0 1-12.416 12.8c-14.08 11.136-37.12 23.04-69.44 33.728-64 21.376-155.264 35.328-257.984 35.328-102.72 0-193.984-13.952-258.048-35.328-32.256-10.752-55.296-22.592-69.376-33.728a52.736 52.736 0 0 1-12.416-12.8c-1.6-2.56-1.536-3.392-1.536-3.52z m682.688 107.84V512l-0.128 0.64a12.8 12.8 0 0 1-1.344 2.816 52.736 52.736 0 0 1-12.416 12.864c-14.08 11.072-37.12 22.976-69.44 33.728-64 21.376-155.264 35.264-257.984 35.264-102.72 0-193.984-13.888-258.048-35.264-32.256-10.752-55.296-22.656-69.376-33.728a52.736 52.736 0 0 1-12.416-12.8 12.608 12.608 0 0 1-1.408-2.88 2.432 2.432 0 0 1-0.128-0.64V321.152c17.152 8.768 36.16 16.448 56.32 23.168C301.824 369.28 402.624 384 512 384c109.312 0 210.112-14.72 284.992-39.68 20.224-6.72 39.232-14.4 56.32-23.168z m0 298.624v190.912l-0.128 0.64a12.736 12.736 0 0 1-1.344 2.816 52.736 52.736 0 0 1-12.416 12.8c-14.08 11.136-37.12 23.04-69.44 33.728-64 21.376-155.264 35.328-257.984 35.328-102.72 0-193.984-13.952-258.048-35.328-32.256-10.752-55.296-22.592-69.376-33.664a52.736 52.736 0 0 1-12.416-12.864 12.544 12.544 0 0 1-1.408-2.816l-0.128-0.64V619.776c17.152 8.768 36.16 16.512 56.32 23.232 74.88 24.96 175.68 39.68 285.056 39.68 109.312 0 210.112-14.72 284.992-39.68a407.04 407.04 0 0 0 56.32-23.232z m-768 190.912c0 36.352 22.144 64.192 46.464 83.328 24.768 19.52 57.92 35.2 95.168 47.616 74.88 24.96 175.68 39.68 285.056 39.68 109.312 0 210.112-14.72 284.992-39.68 37.248-12.352 70.4-28.16 95.232-47.616 24.32-19.2 46.4-46.976 46.4-83.328V213.312c0-36.352-22.144-64.192-46.4-83.328-24.768-19.52-57.984-35.2-95.232-47.616C722.112 57.408 621.312 42.688 512 42.688c-109.376 0-210.112 14.72-285.056 39.68-37.184 12.416-70.4 28.16-95.168 47.616-24.32 19.2-46.464 46.976-46.464 83.328v597.376z" /></svg>