<?xml version="1.0" standalone="no"?><!DOCTYPE svg PUBLIC "-//W3C//DTD SVG 1.1//EN" "http://www.w3.org/Graphics/SVG/1.1/DTD/svg11.dtd"><svg class="icon" width="200px" height="200.00px" viewBox="0 0 1024 1024" version="1.1" xmlns="http://www.w3.org/2000/svg"><path d="M938.688 768H128v85.312h810.688V768z m-85.376-85.376c47.168 0 85.376-38.144 85.376-85.312V256c0-47.168-38.208-85.312-85.376-85.312h-170.624V256h170.624v128H704v85.312h149.312v128h-170.624v85.312h170.624zM640 597.312H469.312v-128h85.376C601.792 469.312 640 431.104 640 384V256c0-47.168-38.208-85.312-85.312-85.312H384V256h170.688v128H469.312C422.208 384 384 422.208 384 469.312v213.312h256V597.312z m-298.688 0h-64V256c0-47.168-38.208-85.312-85.312-85.312H128V256h64v341.312H128v85.312h213.312V597.312z" /></svg>