<?xml version="1.0" standalone="no"?><!DOCTYPE svg PUBLIC "-//W3C//DTD SVG 1.1//EN" "http://www.w3.org/Graphics/SVG/1.1/DTD/svg11.dtd"><svg class="icon" width="200px" height="200.00px" viewBox="0 0 1024 1024" version="1.1" xmlns="http://www.w3.org/2000/svg"><path d="M320 128h384V42.688H320V128zM938.624 256V170.688H85.312V256h86.592l21.312 725.312h340.096a318.592 318.592 0 0 1-64-192v-448h85.312v230.4a319.104 319.104 0 0 1 291.008-97.408l6.4-218.304h86.592zM554.624 789.312a234.688 234.688 0 1 1 469.376 0 234.688 234.688 0 0 1-469.376 0z m337.728 42.688L832 771.648v-78.208h-85.376v113.536L832 892.352l60.352-60.352z" /></svg>