<?xml version="1.0" standalone="no"?><!DOCTYPE svg PUBLIC "-//W3C//DTD SVG 1.1//EN" "http://www.w3.org/Graphics/SVG/1.1/DTD/svg11.dtd"><svg class="icon" width="200px" height="200.00px" viewBox="0 0 1024 1024" version="1.1" xmlns="http://www.w3.org/2000/svg"><path d="M320 42.688h384v128h234.624V256h-86.528l-6.976 235.904-85.248-2.56L766.72 256H257.28l18.816 640h214.528v85.312H193.28L171.904 256H85.312V170.688H320v-128z m85.312 128h213.312V128H405.312v42.688z m149.312 170.624V640H469.312V341.312h85.312zM789.312 640a149.312 149.312 0 1 0 0 298.688 149.312 149.312 0 0 0 0-298.688z m-234.688 149.312a234.688 234.688 0 1 1 469.376 0 234.688 234.688 0 0 1-469.376 0zM832 693.44v78.208l60.352 60.352-60.352 60.352-85.376-85.376v-113.536H832z" /></svg>