<?xml version="1.0" standalone="no"?><!DOCTYPE svg PUBLIC "-//W3C//DTD SVG 1.1//EN" "http://www.w3.org/Graphics/SVG/1.1/DTD/svg11.dtd"><svg class="icon" width="200px" height="200.00px" viewBox="0 0 1024 1024" version="1.1" xmlns="http://www.w3.org/2000/svg"><path d="M512 128a384 384 0 1 0 0 768A384 384 0 0 0 512 128zM42.688 512a469.312 469.312 0 1 1 938.688 0A469.312 469.312 0 0 1 42.688 512z m298.688-149.312v42.624a21.312 21.312 0 1 0 42.624 0v-42.624h85.376v42.624a106.688 106.688 0 1 1-213.376 0v-42.624h85.376z m298.624 0v42.624a21.312 21.312 0 0 0 42.688 0v-42.624H768v42.624a106.688 106.688 0 1 1-213.312 0v-42.624H640z m-312.768 298.624a213.248 213.248 0 0 1 369.536 0l21.376 36.928-73.856 42.752L622.912 704a127.936 127.936 0 0 0-221.824 0l-21.312 36.992-73.856-42.752 21.312-36.928z" /></svg>