<?xml version="1.0" standalone="no"?><!DOCTYPE svg PUBLIC "-//W3C//DTD SVG 1.1//EN" "http://www.w3.org/Graphics/SVG/1.1/DTD/svg11.dtd"><svg class="icon" width="200px" height="200.00px" viewBox="0 0 1024 1024" version="1.1" xmlns="http://www.w3.org/2000/svg"><path d="M554.624 42.688V193.28c83.008 18.752 146.24 91.072 146.24 179.392 0 39.68-12.736 76.096-34.24 105.856l106.112 208.128c25.6-8.704 50.944-18.688 75.776-30.016l38.784-17.664 35.392 77.632-38.784 17.664c-23.68 10.816-47.68 20.48-72 29.12l111.04 217.856h-95.936l-98.24-192.896a900.224 900.224 0 0 1-433.536 0l-98.304 192.896H100.992l111.104-217.856c-24.32-8.64-48.384-18.304-72.064-29.12l-38.784-17.664 35.392-77.632 38.848 17.664c24.832 11.328 50.112 21.312 75.712 30.016l106.112-208.128a179.776 179.776 0 0 1-34.24-105.856c0-88.32 63.232-160.64 146.24-179.392V42.688h85.312z m-219.52 667.52c116.352 25.856 237.376 25.856 353.792 0L599.872 535.68A192.192 192.192 0 0 1 512 556.928c-31.616 0-61.632-7.68-88-21.248l-88.96 174.528zM512 273.92c-58.56 0-103.552 45.504-103.552 98.752S453.44 471.552 512 471.552c58.496 0 103.552-45.568 103.552-98.816 0-53.248-45.056-98.752-103.552-98.752z" /></svg>