<?xml version="1.0" standalone="no"?><!DOCTYPE svg PUBLIC "-//W3C//DTD SVG 1.1//EN" "http://www.w3.org/Graphics/SVG/1.1/DTD/svg11.dtd"><svg class="icon" width="200px" height="200.00px" viewBox="0 0 1024 1024" version="1.1" xmlns="http://www.w3.org/2000/svg"><path d="M85.312 85.312h384v85.376H170.624v256H85.312V85.376z m828.352 85.376l-214.464 214.4 150.4 0.896-0.448 85.376-294.848-1.728-1.664-294.784 85.312-0.512 0.896 150.464 214.464-214.464 60.352 60.352zM85.312 512H256v85.376H170.624v85.312H85.312V512z m256 0H512v170.688H426.624V597.376H341.312V512z m597.312 42.688v384H597.312v-85.312h256V554.688h85.312zM170.624 768v85.376H256v85.312H85.312V768h85.312zM512 768v170.688H341.312v-85.312h85.312V768H512z" /></svg>