<?xml version="1.0" standalone="no"?><!DOCTYPE svg PUBLIC "-//W3C//DTD SVG 1.1//EN" "http://www.w3.org/Graphics/SVG/1.1/DTD/svg11.dtd"><svg class="icon" width="200px" height="200.00px" viewBox="0 0 1024 1024" version="1.1" xmlns="http://www.w3.org/2000/svg"><path d="M512 999.04l-188.352-188.352 60.352-60.352 85.312 85.312v-280.96h-280.96L273.664 640l-60.352 60.352L25.024 512l188.288-188.352 60.352 60.352-85.312 85.312h280.96v-280.96L384 273.664l-60.352-60.352L512 25.024l188.352 188.288-60.352 60.352-85.312-85.312v280.96h280.96L750.336 384l60.352-60.352L999.04 512l-188.352 188.352-60.352-60.352 85.312-85.312h-280.96v280.96L640 750.336l60.352 60.352L512 999.04z" /></svg>