<?xml version="1.0" standalone="no"?><!DOCTYPE svg PUBLIC "-//W3C//DTD SVG 1.1//EN" "http://www.w3.org/Graphics/SVG/1.1/DTD/svg11.dtd"><svg class="icon" width="200px" height="200.00px" viewBox="0 0 1024 1024" version="1.1" xmlns="http://www.w3.org/2000/svg"><path d="M930.944 148.608a119.04 119.04 0 0 1-11.712 167.68l-463.808 402.944a119.04 119.04 0 0 1-49.536 25.856l-283.392 67.776a47.616 47.616 0 0 1-55.168-63.744l106.24-271.488a119.04 119.04 0 0 1 32.768-45.44L669.248 29.184a119.04 119.04 0 0 1 167.808 11.712l93.888 107.712z m-154.752 39.808l0.64 0.256a47.616 47.616 0 0 0-62.464-71.872L282.56 492.16a47.616 47.616 0 0 0 61.824 71.616l431.808-375.36zM111.552 1022.912c-26.24 0-47.552-23.424-47.552-52.288 0-28.8 21.312-52.224 47.552-52.224h800.896c26.24 0 47.552 23.424 47.552 52.224 0 28.864-21.312 52.288-47.552 52.288H111.552z" /></svg>