<?xml version="1.0" standalone="no"?><!DOCTYPE svg PUBLIC "-//W3C//DTD SVG 1.1//EN" "http://www.w3.org/Graphics/SVG/1.1/DTD/svg11.dtd"><svg class="icon" width="200px" height="200.00px" viewBox="0 0 1024 1024" version="1.1" xmlns="http://www.w3.org/2000/svg"><path d="M85.376 85.312H512v285.12c19.456 29.312 33.088 62.848 39.168 98.88h46.208V298.688h341.312v426.624H597.376V554.688h-46.208A254.72 254.72 0 0 1 512 653.568v285.12H85.376v-285.12A254.976 254.976 0 0 1 42.688 512c0-52.288 15.744-100.992 42.688-141.568V85.312z m213.312 256A170.368 170.368 0 0 0 128 512a170.304 170.304 0 0 0 170.688 170.688A170.304 170.304 0 0 0 469.376 512a170.368 170.368 0 0 0-170.688-170.688z" /></svg>