<?xml version="1.0" standalone="no"?><!DOCTYPE svg PUBLIC "-//W3C//DTD SVG 1.1//EN" "http://www.w3.org/Graphics/SVG/1.1/DTD/svg11.dtd"><svg class="icon" width="200px" height="200.00px" viewBox="0 0 1024 1024" version="1.1" xmlns="http://www.w3.org/2000/svg"><path d="M85.376 85.312H512v285.12c19.456 29.312 33.088 62.848 39.168 98.88h46.208V298.688h341.312v426.624H597.376V554.688h-46.208A254.72 254.72 0 0 1 512 653.568v285.12H85.376v-285.12A254.976 254.976 0 0 1 42.688 512c0-52.288 15.744-100.992 42.688-141.568V85.312z m85.312 204.928a254.848 254.848 0 0 1 128-34.24c46.656 0 90.368 12.48 128 34.24V170.688h-256v119.552z m0 443.52v119.552h256v-119.552a254.848 254.848 0 0 1-128 34.24 254.848 254.848 0 0 1-128-34.24z m128-392.448A170.368 170.368 0 0 0 128 512a170.304 170.304 0 0 0 170.688 170.688A170.304 170.304 0 0 0 469.376 512a170.368 170.368 0 0 0-170.688-170.688z m384 42.688v256h170.688V384h-170.688z" /></svg>