<?xml version="1.0" standalone="no"?><!DOCTYPE svg PUBLIC "-//W3C//DTD SVG 1.1//EN" "http://www.w3.org/Graphics/SVG/1.1/DTD/svg11.dtd"><svg class="icon" width="200px" height="200.00px" viewBox="0 0 1024 1024" version="1.1" xmlns="http://www.w3.org/2000/svg"><path d="M85.312 85.312h853.312v853.376H85.312V85.312z m85.312 85.376v682.624h682.688V170.688H170.624zM512 341.312a170.688 170.688 0 1 0 0 341.376 170.688 170.688 0 0 0 0-341.376zM256 512a256 256 0 1 1 512 0 256 256 0 0 1-512 0z m170.624 0a85.312 85.312 0 1 1 170.688 0 85.312 85.312 0 0 1-170.688 0z" /></svg>