<?xml version="1.0" standalone="no"?><!DOCTYPE svg PUBLIC "-//W3C//DTD SVG 1.1//EN" "http://www.w3.org/Graphics/SVG/1.1/DTD/svg11.dtd"><svg class="icon" width="200px" height="200.00px" viewBox="0 0 1024 1024" version="1.1" xmlns="http://www.w3.org/2000/svg"><path d="M512 170.688c-188.224 0-341.376 153.792-341.376 344.128v39.872H256a128 128 0 0 1 128 128V768a128 128 0 0 1-128 128H85.312V514.816c0-236.864 190.72-429.44 426.688-429.44 235.904 0 426.624 192.576 426.624 429.44V896H768a128 128 0 0 1-128-128v-85.312a128 128 0 0 1 128-128h85.312v-39.872c0-190.336-153.088-344.128-341.312-344.128zM853.312 640H768a42.688 42.688 0 0 0-42.688 42.688V768c0 23.552 19.136 42.688 42.688 42.688h85.312V640zM170.624 640v170.688H256A42.688 42.688 0 0 0 298.624 768v-85.312A42.688 42.688 0 0 0 256 640H170.624z" /></svg>