<?xml version="1.0" standalone="no"?><!DOCTYPE svg PUBLIC "-//W3C//DTD SVG 1.1//EN" "http://www.w3.org/Graphics/SVG/1.1/DTD/svg11.dtd"><svg class="icon" width="200px" height="200.00px" viewBox="0 0 1024 1024" version="1.1" xmlns="http://www.w3.org/2000/svg"><path d="M134.016 443.968L400.064 534.4l-136.32 270.592a384 384 0 0 0 631.232-264.32l-14.208 8.256-187.136 216.896-84.8-172.032-140.544-47.552V372.672l-73.984-25.024-86.272 87.488-155.392-58.624c-8.192 21.632-14.464 44.16-18.56 67.456z m57.728-143.936l94.464 35.648 84.8-86.016 182.656 61.76v173.504l116.032 39.296 43.52 88.192L825.6 482.304l64.64-37.568a384.128 384.128 0 0 0-698.432-144.64z m9.984 438.272L279.68 583.552 128.64 532.224a382.08 382.08 0 0 0 73.152 206.08zM42.688 512a469.312 469.312 0 1 1 938.688 0A469.312 469.312 0 0 1 42.688 512z" /></svg>