<?xml version="1.0" standalone="no"?><!DOCTYPE svg PUBLIC "-//W3C//DTD SVG 1.1//EN" "http://www.w3.org/Graphics/SVG/1.1/DTD/svg11.dtd"><svg class="icon" width="200px" height="200.00px" viewBox="0 0 1024 1024" version="1.1" xmlns="http://www.w3.org/2000/svg"><path d="M42.752 503.04L42.688 512c0 118.784 44.16 227.328 116.928 309.952L279.68 583.552 42.752 503.104zM52.48 416.256l347.52 118.08-175.552 348.608a469.312 469.312 0 0 0 756.48-392.064l-100.16 57.984-187.136 216.896-84.8-172.032-140.544-47.552V372.672l-73.984-25.024-86.272 87.488-235.328-88.704a465.728 465.728 0 0 0-20.224 69.76zM110.208 269.312l176 66.368 84.8-86.016 182.656 61.76v173.504l116.032 39.296 43.52 88.192L825.6 482.24l142.336-82.432A469.504 469.504 0 0 0 110.208 269.312z" /></svg>