<?xml version="1.0" standalone="no"?><!DOCTYPE svg PUBLIC "-//W3C//DTD SVG 1.1//EN" "http://www.w3.org/Graphics/SVG/1.1/DTD/svg11.dtd"><svg class="icon" width="200px" height="200.00px" viewBox="0 0 1024 1024" version="1.1" xmlns="http://www.w3.org/2000/svg"><path d="M671.872 125.76c33.344-33.344 87.36-33.344 120.704 0l105.6 105.6c33.28 33.28 33.28 87.36 0 120.64l-194.24 194.24-60.352-60.288 63.808-63.872-105.6-105.6-63.808 63.872L477.632 320l194.24-194.24z m-501.248-15.424l743.04 743.04-60.352 60.288-258.368-258.368-204.224 204.16-272.192 45.952 45.888-272.256 204.224-204.16-258.304-258.304 60.288-60.352z m258.368 379.008l-184.96 184.96-21.44 126.976 127.04-21.44 184.96-184.96-105.6-105.6z" /></svg>