<?xml version="1.0" standalone="no"?><!DOCTYPE svg PUBLIC "-//W3C//DTD SVG 1.1//EN" "http://www.w3.org/Graphics/SVG/1.1/DTD/svg11.dtd"><svg class="icon" width="200px" height="200.00px" viewBox="0 0 1024 1024" version="1.1" xmlns="http://www.w3.org/2000/svg"><path d="M671.872 125.76c33.344-33.28 87.36-33.28 120.704 0l105.6 105.6c33.28 33.28 33.28 87.36 0 120.64l-100.288 100.288L704 546.304l-60.352-60.352 63.808-63.808-105.6-105.6-63.808 63.808L477.632 320l94.016-94.016 100.224-100.224z m-9.728 130.432l105.6 105.6 70.08-70.08-105.6-105.6-70.08 70.08z m-491.52-145.92l743.04 743.04-60.352 60.352-258.368-258.368-204.224 204.16-272.192 45.952 45.888-272.192L368.64 428.992 110.336 170.688l60.288-60.352z m258.368 379.072l-184.96 184.96-21.44 126.976 127.04-21.44 184.96-184.96-105.6-105.6z" /></svg>