<?xml version="1.0" standalone="no"?><!DOCTYPE svg PUBLIC "-//W3C//DTD SVG 1.1//EN" "http://www.w3.org/Graphics/SVG/1.1/DTD/svg11.dtd"><svg class="icon" width="200px" height="200.00px" viewBox="0 0 1024 1024" version="1.1" xmlns="http://www.w3.org/2000/svg"><path d="M512 34.432l504.96 328.256-78.272 50.88v269.12h-85.312V469.056l-42.688 27.712v249.92c0 62.72-43.264 111.616-96.128 142.464-53.952 31.424-125.632 49.536-202.56 49.536-76.864 0-148.544-18.112-202.496-49.536-52.864-30.848-96.128-79.744-96.128-142.464V496.768L7.04 362.688 512 34.432z m-213.312 517.76v194.496c0 19.776 14.08 45.504 53.76 68.736 38.784 22.592 95.104 37.952 159.552 37.952 64.512 0 120.832-15.36 159.552-37.952 39.744-23.232 53.76-48.96 53.76-68.736V552.256L512 690.88 298.688 552.32z m561.728-189.504L512 136.256 163.648 362.688 512 589.12l348.416-226.432z" /></svg>