<svg width="16" height="16" viewBox="0 0 16 16" fill="none" xmlns="http://www.w3.org/2000/svg">
  <path
    d="M1.33334 1.33334C1.33334 0.96515 1.63182 0.666672 2.00001 0.666672H12C13.4728 0.666672 14.6667 1.86058 14.6667 3.33334V14.6667C14.6667 15.0349 14.3682 15.3333 14 15.3333H4.00001C2.52725 15.3333 1.33334 14.1394 1.33334 12.6667V1.33334Z"
    fill="url(#paint0_linear_19865_51562)" />
  <path
    d="M11 5.59963C10.9998 5.26857 10.7315 5.00023 10.4004 5.00002H8.5V7.50002H11V5.59963ZM5 7.50002H7.5V5.00002H5.59961C5.26855 5.00023 5.00021 5.26857 5 5.59963V7.50002ZM12 10.4004L11.9922 10.5635C11.9158 11.3166 11.3166 11.9158 10.5635 11.9922L10.4004 12V11C10.7315 10.9998 10.9998 10.7315 11 10.4004V8.50002H8.5V11H10.4004V12H5.59961V11H7.5V8.50002H5V10.4004C5.00021 10.7315 5.26855 10.9998 5.59961 11V12C4.7713 11.9998 4.08966 11.3703 4.00781 10.5635L4 10.4004V5.59963C4.00021 4.71629 4.71626 4.00023 5.59961 4.00002H10.4004L10.5635 4.00784C11.3702 4.08969 11.9998 4.77133 12 5.59963V10.4004Z"
    fill="white" />
  <defs>
    <linearGradient id="paint0_linear_19865_51562" x1="6.40001" y1="6.4" x2="14" y2="15.6"
      gradientUnits="userSpaceOnUse">
      <stop stop-color="#1F6ED4" />
      <stop offset="1" stop-color="#6E46E8" />
    </linearGradient>
  </defs>
</svg>