<?xml version="1.0" standalone="no"?><!DOCTYPE svg PUBLIC "-//W3C//DTD SVG 1.1//EN" "http://www.w3.org/Graphics/SVG/1.1/DTD/svg11.dtd"><svg class="icon" width="200px" height="200.00px" viewBox="0 0 1024 1024" version="1.1" xmlns="http://www.w3.org/2000/svg"><path d="M512 128a384 384 0 1 0 0 768A384 384 0 0 0 512 128zM42.688 512a469.312 469.312 0 1 1 938.688 0A469.312 469.312 0 0 1 42.688 512z m282.368-207.424l144.32 81.152V448L332.8 550.4l-51.2-68.288 79.36-59.52-77.696-43.648 41.792-74.368z m415.744 74.368l-77.696 43.712 79.36 59.52-51.2 68.224L554.624 448v-62.272l144.256-81.152 41.856 74.368zM512 480.576l38.144 76.352c16.128 32.256 36.544 42.048 50.752 43.2a43.776 43.776 0 0 0 28.48-8l35.264-24 48 70.528-35.264 24a132.032 132.032 0 0 1-49.792 20.8 469.952 469.952 0 0 1-28.608 59.072 209.472 209.472 0 0 1-31.104 41.92c-11.072 11.072-30.144 26.24-55.872 26.24s-44.8-15.168-55.872-26.24a209.408 209.408 0 0 1-31.104-41.92 469.888 469.888 0 0 1-28.608-59.136 132.032 132.032 0 0 1-49.792-20.736l-35.264-24 48-70.528 35.2 24c9.536 6.4 19.328 8.768 28.544 8 14.144-1.152 34.56-10.88 50.752-43.2L512 480.576z m-28.992 188.288c4.736 10.432 10.048 20.992 15.68 30.592 4.864 8.32 9.344 14.848 13.312 19.712a158.72 158.72 0 0 0 13.312-19.712c5.632-9.6 10.88-20.16 15.68-30.592A147.392 147.392 0 0 1 512 647.424c-8.96 8.512-18.688 15.68-28.992 21.44z" /></svg>