<?xml version="1.0" standalone="no"?><!DOCTYPE svg PUBLIC "-//W3C//DTD SVG 1.1//EN" "http://www.w3.org/Graphics/SVG/1.1/DTD/svg11.dtd"><svg class="icon" width="200px" height="200.00px" viewBox="0 0 1024 1024" version="1.1" xmlns="http://www.w3.org/2000/svg"><path d="M318.72 84.16a469.312 469.312 0 0 1 621.056 621.056l-17.536 38.848-77.76-35.2 17.536-38.848a384 384 0 0 0-508.16-508.16l-38.848 17.664-35.136-77.76 38.848-17.6zM128 67.648l324.352 324.48 0.128-0.064L632 571.52v0.064L956.224 896l-60.352 60.352-83.648-83.648A469.312 469.312 0 0 1 151.296 211.712L67.648 128l60.288-60.352zM211.84 272.32a384 384 0 0 0 539.712 539.712L598.4 658.816 532.288 830.72l-89.6-249.344-249.344-89.664L365.248 425.6 211.84 272.32z m532.288 7.552L661.504 494.72 581.888 464l13.696-35.648-35.648 13.696-30.592-79.616 214.848-82.624z" /></svg>