<?xml version="1.0" standalone="no"?><!DOCTYPE svg PUBLIC "-//W3C//DTD SVG 1.1//EN" "http://www.w3.org/Graphics/SVG/1.1/DTD/svg11.dtd"><svg class="icon" width="200px" height="196.73px" viewBox="0 0 1041 1024" version="1.1" xmlns="http://www.w3.org/2000/svg"><path d="M353.252207 167.353158a125.829442 125.829442 0 0 1 251.658885 0.440403h251.658884v251.658884a125.829442 125.829442 0 0 1 0.440403 251.658885l2.076186 105.507987L772.704653 688.161219V587.183092h83.865323a41.964119 41.964119 0 1 0 0-83.865324H772.704653V251.658884H521.045768V167.793561a41.964119 41.964119 0 0 0-83.865323 0V251.658884h-101.292701L249.568747 165.339887l103.68346 2.013271zM59.629204 66.50086l898.233473 898.170558-59.328582 59.328582-101.292701-101.292701H588.049946l-5.159007-35.98722a104.87884 104.87884 0 0 0-207.618579 0l-5.159007 36.050135H101.593323v-268.582944l35.987221-5.159008a104.87884 104.87884 0 0 0 0-207.618579l-35.987221-5.033178V227.122143L0.300622 125.829442l59.328582-59.328582z m125.829442 244.486606v56.308676a188.744163 188.744163 0 0 1 0 355.971491v115.574343h115.637258a188.744163 188.744163 0 0 1 355.971491 0h56.308676l-527.85451-527.85451z" /></svg>