<?xml version="1.0" standalone="no"?><!DOCTYPE svg PUBLIC "-//W3C//DTD SVG 1.1//EN" "http://www.w3.org/Graphics/SVG/1.1/DTD/svg11.dtd"><svg class="icon" width="200px" height="200.00px" viewBox="0 0 1024 1024" version="1.1" xmlns="http://www.w3.org/2000/svg"><path d="M341.312 170.688a128 128 0 1 1 256 0h256v256a128 128 0 1 1 0 256v256H580.16l-5.248-36.672a106.688 106.688 0 0 0-211.2 0l-5.248 36.672H85.312v-273.216l36.608-5.248a106.688 106.688 0 0 0 0-211.2l-36.608-5.12v-273.28h256z m128-42.688a42.688 42.688 0 0 0-42.688 42.688V256h-256v117.632a192 192 0 0 1 0 362.112v117.568h117.632a192 192 0 0 1 362.112 0H768v-256h85.312a42.688 42.688 0 1 0 0-85.312H768V256H512V170.688A42.688 42.688 0 0 0 469.312 128z" /></svg>