<?xml version="1.0" standalone="no"?><!DOCTYPE svg PUBLIC "-//W3C//DTD SVG 1.1//EN" "http://www.w3.org/Graphics/SVG/1.1/DTD/svg11.dtd"><svg class="icon" width="200px" height="200.00px" viewBox="0 0 1024 1024" version="1.1" xmlns="http://www.w3.org/2000/svg"><path d="M170.56 29.632l46.784 94.08 94.08 46.784-94.08 46.848-46.784 94.016-46.848-94.08-94.08-46.72 94.08-46.848 46.848-94.08zM512 128c-26.56 0-52.48 2.688-77.44 7.808l-41.792 8.576L375.68 60.736l41.792-8.512A469.312 469.312 0 1 1 55.68 402.304l9.92-41.6 83.008 19.904-9.92 41.536A384 384 0 1 0 512 128z m107.2 253.184h85.504v85.504H619.2V381.184z m-300.8 0h85.568v85.504H318.464V381.184z m104.448 181.44l20.8 37.184a78.272 78.272 0 0 0 136.832 0l20.8-37.184 74.496 41.6-20.864 37.312a163.584 163.584 0 0 1-285.696 0l-20.864-37.248 74.496-41.664z m465.92 325.632l-66.88 33.28 66.88 33.344 33.344 66.944 33.28-66.944 67.008-33.28-66.944-33.28-33.28-67.008-33.408 66.944z" /></svg>