<?xml version="1.0" standalone="no"?><!DOCTYPE svg PUBLIC "-//W3C//DTD SVG 1.1//EN" "http://www.w3.org/Graphics/SVG/1.1/DTD/svg11.dtd"><svg class="icon" width="200px" height="200.00px" viewBox="0 0 1024 1024" version="1.1" xmlns="http://www.w3.org/2000/svg"><path d="M170.496 341.12a170.688 170.688 0 0 0 147.456-256.64 469.312 469.312 0 1 1-233.408 233.408c25.28 14.848 54.656 23.296 85.952 23.296z m534.208 40.064H619.2v85.504h85.504V381.184zM443.648 599.808l-20.8-37.248-74.496 41.728 20.864 37.248a163.584 163.584 0 0 0 285.696 0l20.8-37.248-74.432-41.728-20.864 37.248a78.272 78.272 0 0 1-136.768 0zM318.464 381.184v85.504h85.504V381.184H318.464zM170.56 29.632l46.784 94.08 94.08 46.784-94.08 46.848-46.784 94.016-46.848-94.08-94.08-46.72 94.08-46.848 46.848-94.08zM888.832 888.32l-66.944 33.28 66.944 33.28 33.28 66.944 33.344-66.944 66.944-33.28-66.944-33.28-33.28-67.008-33.344 66.944z" /></svg>