<?xml version="1.0" standalone="no"?><!DOCTYPE svg PUBLIC "-//W3C//DTD SVG 1.1//EN" "http://www.w3.org/Graphics/SVG/1.1/DTD/svg11.dtd"><svg class="icon" width="200px" height="200.00px" viewBox="0 0 1024 1024" version="1.1" xmlns="http://www.w3.org/2000/svg"><path d="M554.624 42.688V130.56c31.424 3.904 61.568 12.16 89.728 24l43.968-76.16 73.856 42.624-43.968 76.224c24.768 18.816 46.848 40.96 65.664 65.664l76.16-43.968 42.688 73.92-76.096 43.904a339.2 339.2 0 0 1 24.064 89.856h87.936V512h-87.936c-3.968 31.424-12.16 61.568-24 89.728l76.032 43.968-42.688 73.856-76.16-43.968a343.104 343.104 0 0 1-101.248 89.408V896h128v85.312H213.312V896h128v-131.008a342.976 342.976 0 0 1-101.376-89.472l-76.16 44.032-42.688-73.92 76.16-43.968A338.944 338.944 0 0 1 173.312 512H85.312V426.688h88c3.84-31.488 12.096-61.568 23.936-89.792l-76.16-44.032 42.624-73.856 76.288 44.032c18.816-24.768 40.96-46.848 65.664-65.664l-44.032-76.288 73.92-42.624 43.968 76.16c28.16-11.84 58.304-20.096 89.792-24V42.688h85.312z m-128 757.184V896h170.688v-96.128a342.016 342.016 0 0 1-170.688 0z m232.064-120.704c28.288-19.84 52.352-45.184 70.656-74.496l8.704-15.168c19.136-35.84 29.952-76.8 29.952-120.192 0-44.096-11.2-85.568-30.848-121.856l-6.848-11.84a257.28 257.28 0 0 0-87.552-86.4L636.8 245.76a256 256 0 0 0-271.552 433.344l146.624-309.376 146.752 309.44z" /></svg>