<?xml version="1.0" standalone="no"?><!DOCTYPE svg PUBLIC "-//W3C//DTD SVG 1.1//EN" "http://www.w3.org/Graphics/SVG/1.1/DTD/svg11.dtd"><svg class="icon" width="200px" height="200.00px" viewBox="0 0 1024 1024" version="1.1" xmlns="http://www.w3.org/2000/svg"><path d="M128 42.688h426.688V384H896v597.312H128V42.688z m512 539.52V512H554.688v70.272L512 623.36l-42.688-41.152V512H384v70.272c0 23.168 9.408 45.312 26.112 61.44l40.448 38.976-40.448 38.976c-16.64 16.064-26.112 38.272-26.112 61.44v70.208h85.312v-70.208L512 741.952l42.688 41.152v70.208H640v-70.208c0-23.168-9.408-45.376-26.112-61.44l-40.448-39.04 40.448-38.976c16.64-16 26.112-38.208 26.112-61.44zM896 280.96v17.728h-256v-256h17.664L896 280.96z" /></svg>