<?xml version="1.0" standalone="no"?><!DOCTYPE svg PUBLIC "-//W3C//DTD SVG 1.1//EN" "http://www.w3.org/Graphics/SVG/1.1/DTD/svg11.dtd"><svg class="icon" width="200px" height="200.00px" viewBox="0 0 1024 1024" version="1.1" xmlns="http://www.w3.org/2000/svg"><path d="M128 42.688h529.664L896 280.96v188.288h-85.312V384h-256V128H213.312v768H896v85.312H128V42.688z m512 103.04v152.96h152.96L640 145.728zM341.312 512v341.312H256V512h85.312z m21.376 85.312C362.688 550.208 400.896 512 448 512h64v85.312H448V768h64v85.312H448A85.312 85.312 0 0 1 362.688 768V597.312z m170.624 0C533.312 550.208 571.52 512 618.688 512h42.624c47.168 0 85.376 38.208 85.376 85.312V768c0 47.104-38.208 85.312-85.376 85.312h-42.624A85.312 85.312 0 0 1 533.312 768V597.312zM768 512h128c47.104 0 85.312 38.208 85.312 85.312v256H896v-256h-42.688v256H768V512zM618.688 597.312V768h42.624V597.312h-42.624z" /></svg>