<?xml version="1.0" standalone="no"?><!DOCTYPE svg PUBLIC "-//W3C//DTD SVG 1.1//EN" "http://www.w3.org/Graphics/SVG/1.1/DTD/svg11.dtd"><svg class="icon" width="200px" height="200.00px" viewBox="0 0 1024 1024" version="1.1" xmlns="http://www.w3.org/2000/svg"><path d="M128 42.688h529.664L896 280.96v700.288H128V42.688zM810.688 384h-256V128H213.312v768h597.376V384zM640 145.792v152.896h152.96L640 145.792zM298.688 426.688H409.6V512H384v25.6H298.688V426.688z m145.024 0h110.976V537.6H469.312V512h-25.6V426.688zM384 597.312v-25.6H298.688v110.976H409.6V597.312H384z m85.312 0h256v256h-256v-256z m85.376 85.376V768H640v-85.312H554.688z" /></svg>