<?xml version="1.0" standalone="no"?><!DOCTYPE svg PUBLIC "-//W3C//DTD SVG 1.1//EN" "http://www.w3.org/Graphics/SVG/1.1/DTD/svg11.dtd"><svg class="icon" width="200px" height="200.00px" viewBox="0 0 1024 1024" version="1.1" xmlns="http://www.w3.org/2000/svg"><path d="M128 42.688h529.664L896 280.96v188.288h-85.312V384h-256V128H213.312v768h256v85.312H128V42.688z m512 103.04v152.96h152.96L640 145.728z m128 472.96a149.312 149.312 0 0 0-131.392 220.352l202.432-202.432a148.544 148.544 0 0 0-71.04-17.92z m131.392 78.272l-202.432 202.432a149.312 149.312 0 0 0 202.432-202.432zM533.312 768a234.688 234.688 0 1 1 469.376 0 234.688 234.688 0 0 1-469.376 0z" /></svg>