<?xml version="1.0" standalone="no"?><!DOCTYPE svg PUBLIC "-//W3C//DTD SVG 1.1//EN" "http://www.w3.org/Graphics/SVG/1.1/DTD/svg11.dtd"><svg class="icon" width="200px" height="200.00px" viewBox="0 0 1024 1024" version="1.1" xmlns="http://www.w3.org/2000/svg"><path d="M128 42.688h529.664L896 280.96V512h-85.312V384h-256V128H213.312v768h341.376v85.312H128V42.688z m512 103.04v152.96h152.96L640 145.728z m0 515.584a106.688 106.688 0 1 1 213.312 0v192H768v-192a21.312 21.312 0 1 0-42.688 0v192a85.312 85.312 0 0 0 170.688 0v-192h85.312v192a170.688 170.688 0 0 1-341.312 0v-192z" /></svg>