<?xml version="1.0" standalone="no"?><!DOCTYPE svg PUBLIC "-//W3C//DTD SVG 1.1//EN" "http://www.w3.org/Graphics/SVG/1.1/DTD/svg11.dtd"><svg class="icon" width="200px" height="200.00px" viewBox="0 0 1024 1024" version="1.1" xmlns="http://www.w3.org/2000/svg"><path d="M554.550668 42.550668H129.235373v935.604337h436.160292c-7.017351-19.967555-10.844998-41.402374-10.844997-63.794105v-255.176418A191.382314 191.382314 0 0 1 894.764627 538.932595V382.764627H554.550668V42.550668zM894.764627 297.727086V280.056119L657.195382 42.550668H639.588209v255.176418h255.176418zM745.932981 552.903504c-58.690576 0-106.344772 47.590402-106.344772 106.280978v191.382314a170.138877 170.138877 0 1 0 340.21396 0v-191.382314H894.764627v191.382314a85.037541 85.037541 0 1 1-170.138877 0v-191.382314a21.243437 21.243437 0 0 1 42.550668 0v191.382314h85.037541v-191.382314c0-58.690576-47.590402-106.280978-106.280978-106.280978z" /></svg>