<?xml version="1.0" standalone="no"?><!DOCTYPE svg PUBLIC "-//W3C//DTD SVG 1.1//EN" "http://www.w3.org/Graphics/SVG/1.1/DTD/svg11.dtd"><svg class="icon" width="200px" height="200.00px" viewBox="0 0 1024 1024" version="1.1" xmlns="http://www.w3.org/2000/svg"><path d="M1024 744h-138.56a35.2 35.2 0 0 0-35.2 35.2v85.248c0 19.392 15.744 35.2 35.2 35.2H1024v83.2h-138.56a118.4 118.4 0 0 1-118.4-118.4v-85.248c0-65.408 52.992-118.528 118.4-118.528H1024v83.328zM671.936 661.76a64 64 0 0 1 64 64v192a64 64 0 0 1-64 64H511.424l-6.528-0.256a64.064 64.064 0 0 1-57.152-57.152l-0.32-6.528v-192a64 64 0 0 1 64-64H672z m-147.712 243.2H659.2v-166.336H524.16v166.4zM554.688 384H896v212.672h-10.56c-45.184 0-86.4 16.64-118.336 43.84A127.552 127.552 0 0 0 672 597.76H511.424a128 128 0 0 0-128 128v193.472l0.064 1.6 0.32 6.528 0.064 1.792 0.192 1.664c1.92 18.24 7.552 35.264 16.256 50.432H128V42.624h426.688V384zM896 280.96v17.728h-256V42.624h17.664L896 281.024z" /></svg>