<?xml version="1.0" standalone="no"?><!DOCTYPE svg PUBLIC "-//W3C//DTD SVG 1.1//EN" "http://www.w3.org/Graphics/SVG/1.1/DTD/svg11.dtd"><svg class="icon" width="200px" height="200.00px" viewBox="0 0 1024 1024" version="1.1" xmlns="http://www.w3.org/2000/svg"><path d="M554.688 42.688H128v938.624h85.312V576h213.376v6.208c13.44-4.032 27.84-6.208 42.624-6.208h128v6.208C610.88 578.176 625.152 576 640 576h42.688c14.784 0 29.12 2.176 42.624 6.208V576H896V384H554.688V42.688zM896 298.688V280.96L657.664 42.688H640v256h256zM362.688 981.312V640H277.312v341.312h85.376zM469.312 640C422.208 640 384 678.208 384 725.312V896c0 47.104 38.208 85.312 85.312 85.312h64V896h-64v-170.688h64V640h-64zM640 640c-47.104 0-85.312 38.208-85.312 85.312V896c0 47.104 38.208 85.312 85.312 85.312h42.688c47.104 0 85.312-38.208 85.312-85.312v-170.688c0-47.104-38.208-85.312-85.312-85.312H640z m0 256v-170.688h42.688V896H640zM917.312 640h-128v341.312h85.376v-256h42.624v256h85.376v-256c0-47.104-38.208-85.312-85.376-85.312z" /></svg>