<?xml version="1.0" standalone="no"?><!DOCTYPE svg PUBLIC "-//W3C//DTD SVG 1.1//EN" "http://www.w3.org/Graphics/SVG/1.1/DTD/svg11.dtd"><svg class="icon" width="200px" height="200.00px" viewBox="0 0 1024 1024" version="1.1" xmlns="http://www.w3.org/2000/svg"><path d="M128 42.688h529.664L896 280.96v209.664h-85.312V384h-256V128H213.312v768h405.376v85.312H128V42.688z m512 103.04v152.96h152.96L640 145.728zM768 640c-39.68 0-64 28.032-64 53.312v42.624H618.688v-42.624c0-80.704 71.232-138.624 149.312-138.624 78.08 0 149.312 57.92 149.312 138.624 0 39.04-17.28 73.6-43.776 98.112l-62.848 59.328v29.12h-85.376v-65.92l90.176-85.056a48.32 48.32 0 0 0 16.512-35.584c0-25.344-24.32-53.312-64-53.312z m-42.688 298.496h85.504V1024h-85.504v-85.504z" /></svg>