<?xml version="1.0" standalone="no"?><!DOCTYPE svg PUBLIC "-//W3C//DTD SVG 1.1//EN" "http://www.w3.org/Graphics/SVG/1.1/DTD/svg11.dtd"><svg class="icon" width="200px" height="200.00px" viewBox="0 0 1024 1024" version="1.1" xmlns="http://www.w3.org/2000/svg"><path d="M128 42.688h529.664L896 280.96v188.288h-85.312V384h-256V128H213.312v768h256v85.312H128V42.688z m512 103.04v152.96h152.96L640 145.728zM810.688 544v58.688c30.464 7.872 57.664 23.936 79.104 45.76l50.88-29.44 42.624 73.92-50.816 29.44a170.816 170.816 0 0 1 0 91.328l50.816 29.376-42.624 73.856-50.88-29.376c-21.44 21.76-48.64 37.888-79.104 45.76v58.688h-85.376v-58.688a170.432 170.432 0 0 1-79.104-45.76l-50.88 29.44-42.624-73.92 50.816-29.376a170.88 170.88 0 0 1 0-91.392l-50.816-29.376 42.624-73.856 50.88 29.376c21.44-21.76 48.64-37.888 79.104-45.76V544h85.376z m-117.44 182.784a84.928 84.928 0 0 0 0 82.496l1.6 2.688a85.312 85.312 0 0 0 146.304 0l1.536-2.688a84.928 84.928 0 0 0 0-82.56l-1.536-2.688a85.248 85.248 0 0 0-146.304 0l-1.536 2.752z" /></svg>