<?xml version="1.0" standalone="no"?><!DOCTYPE svg PUBLIC "-//W3C//DTD SVG 1.1//EN" "http://www.w3.org/Graphics/SVG/1.1/DTD/svg11.dtd"><svg class="icon" width="200px" height="200.00px" viewBox="0 0 1024 1024" version="1.1" xmlns="http://www.w3.org/2000/svg"><path d="M128 42.688h529.664L896 280.96v188.288h-85.312V384h-256V128H213.312v768h277.376v85.312H128V42.688z m512 103.04v152.96h152.96L640 145.728z m128 472.96a53.312 53.312 0 0 0-53.312 53.312v32h245.248v277.312H576V704h53.376v-32a138.688 138.688 0 0 1 236.416-98.368l30.272 30.08-60.16 60.544-30.272-30.08A52.992 52.992 0 0 0 768 618.688z m-106.688 170.624V896h213.312v-106.688h-213.312z" /></svg>