<?xml version="1.0" standalone="no"?><!DOCTYPE svg PUBLIC "-//W3C//DTD SVG 1.1//EN" "http://www.w3.org/Graphics/SVG/1.1/DTD/svg11.dtd"><svg class="icon" width="200px" height="200.00px" viewBox="0 0 1024 1024" version="1.1" xmlns="http://www.w3.org/2000/svg"><path d="M128 42.688h529.664L896 280.96v188.288h-85.312V384h-256V128H213.312v768h277.376v85.312H128V42.688z m512 103.04v152.96h152.96L640 145.728z m128 472.96c29.44 0 53.312 23.872 53.312 53.312v32h-106.624v-32c0-29.44 23.872-53.312 53.312-53.312zM906.688 704v-32a138.688 138.688 0 0 0-277.376 0v32H576v277.312h384V704h-53.248z m-32.064 85.312V896h-213.312v-106.688h213.312z" /></svg>