<?xml version="1.0" standalone="no"?><!DOCTYPE svg PUBLIC "-//W3C//DTD SVG 1.1//EN" "http://www.w3.org/Graphics/SVG/1.1/DTD/svg11.dtd"><svg class="icon" width="200px" height="200.00px" viewBox="0 0 1024 1024" version="1.1" xmlns="http://www.w3.org/2000/svg"><path d="M128 42.688h529.664L896 280.96v209.664h-85.312V384h-256V128H213.312v768h277.376v85.312H128V42.688z m512 103.04v152.96h152.96L640 145.728zM575.936 576h384v240.384a128 128 0 0 1-58.048 107.136L768 1011.072 633.92 923.52a128 128 0 0 1-57.984-107.136V576z m85.312 85.312v155.072c0 14.4 7.296 27.84 19.328 35.712l87.36 57.024 87.296-57.024a42.688 42.688 0 0 0 19.328-35.712v-155.072h-213.312z" /></svg>