<?xml version="1.0" standalone="no"?><!DOCTYPE svg PUBLIC "-//W3C//DTD SVG 1.1//EN" "http://www.w3.org/Graphics/SVG/1.1/DTD/svg11.dtd"><svg class="icon" width="200px" height="200.00px" viewBox="0 0 1024 1024" version="1.1" xmlns="http://www.w3.org/2000/svg"><path d="M554.688 42.688H128v938.624h503.296A266.752 266.752 0 1 1 896 522.624V384H554.688V42.688zM896 298.688V280.96L657.664 42.688H640v256h256zM736 533.312a202.688 202.688 0 1 0 109.888 372.992l71.488 71.36 60.288-60.352-71.424-71.36a202.688 202.688 0 0 0-170.24-312.64zM618.688 736a117.312 117.312 0 1 1 234.624 0 117.312 117.312 0 0 1-234.624 0z" /></svg>