<?xml version="1.0" standalone="no"?><!DOCTYPE svg PUBLIC "-//W3C//DTD SVG 1.1//EN" "http://www.w3.org/Graphics/SVG/1.1/DTD/svg11.dtd"><svg class="icon" width="200px" height="200.00px" viewBox="0 0 1024 1024" version="1.1" xmlns="http://www.w3.org/2000/svg"><path d="M128 42.688h529.664L896 280.96v209.664h-85.312V384h-256V128H213.312v768h320v85.312H128V42.688z m512 103.04v152.96h152.96L640 145.728z m96 472.96a117.312 117.312 0 1 0 0 234.624 117.312 117.312 0 0 0 0-234.624zM533.312 736a202.688 202.688 0 1 1 372.928 110.016l71.424 71.296-60.288 60.352-71.488-71.36A202.688 202.688 0 0 1 533.312 736z" /></svg>