<?xml version="1.0" standalone="no"?><!DOCTYPE svg PUBLIC "-//W3C//DTD SVG 1.1//EN" "http://www.w3.org/Graphics/SVG/1.1/DTD/svg11.dtd"><svg class="icon" width="200px" height="200.00px" viewBox="0 0 1024 1024" version="1.1" xmlns="http://www.w3.org/2000/svg"><path d="M128 42.688h529.664L896 280.96v700.288H128V42.688zM213.312 128v768h597.376V384h-256V128H213.312zM640 145.664v152.96h152.96L640 145.728z m0 280.96v70.272c0 23.168-9.408 45.376-26.112 61.44l-40.448 39.04 40.448 38.976c16.64 16 26.112 38.208 26.112 61.44V768H554.688v-70.272L512 656.64l-42.688 41.152V768H384v-70.272c0-23.168 9.408-45.312 26.112-61.44l40.448-38.976-40.448-38.976A85.312 85.312 0 0 1 384 496.896V426.688h85.312v70.208L512 538.048l42.688-41.152V426.688H640z" /></svg>