<?xml version="1.0" standalone="no"?><!DOCTYPE svg PUBLIC "-//W3C//DTD SVG 1.1//EN" "http://www.w3.org/Graphics/SVG/1.1/DTD/svg11.dtd"><svg class="icon" width="200px" height="200.00px" viewBox="0 0 1024 1024" version="1.1" xmlns="http://www.w3.org/2000/svg"><path d="M554.688 42.688H128v938.624h85.312V576h265.152c11.776 0 23.04 2.112 33.536 5.888V576h158.464c25.216 0 48.192 9.6 65.536 25.28 17.28-15.68 40.32-25.28 65.536-25.28H896V384H554.688V42.688zM896 298.688V280.96L657.664 42.688H640v256h256zM435.84 640H277.312v341.312h85.376v-128H435.84a54.848 54.848 0 0 0 54.848-54.848v-103.616A54.848 54.848 0 0 0 435.84 640z m-30.528 128h-42.624v-42.688h42.624V768zM670.464 640H512v341.312h158.464a54.848 54.848 0 0 0 54.848-54.848v-231.616a54.848 54.848 0 0 0-54.848-54.848z m-73.152 256v-170.688H640V896h-42.688zM801.536 640a54.848 54.848 0 0 0-54.848 54.848v286.464H832v-128h113.792V768H832v-42.688h113.792V640h-144.256z" /></svg>