<?xml version="1.0" standalone="no"?><!DOCTYPE svg PUBLIC "-//W3C//DTD SVG 1.1//EN" "http://www.w3.org/Graphics/SVG/1.1/DTD/svg11.dtd"><svg class="icon" width="200px" height="200.00px" viewBox="0 0 1024 1024" version="1.1" xmlns="http://www.w3.org/2000/svg"><path d="M128 42.688h529.664L896 280.96v700.288H128V42.688zM213.312 128v768h597.376V384h-256V128H213.312zM640 145.664v152.96h152.96L640 145.728zM362.688 512c0-47.104 38.208-85.312 85.312-85.312h128c47.104 0 85.312 38.208 85.312 85.312v170.688C661.312 729.792 623.104 768 576 768H448a85.312 85.312 0 0 1-85.312-85.312V512zM576 512H448v170.688h128V512z" /></svg>