<?xml version="1.0" standalone="no"?><!DOCTYPE svg PUBLIC "-//W3C//DTD SVG 1.1//EN" "http://www.w3.org/Graphics/SVG/1.1/DTD/svg11.dtd"><svg class="icon" width="200px" height="200.00px" viewBox="0 0 1024 1024" version="1.1" xmlns="http://www.w3.org/2000/svg"><path d="M554.688 42.688H128v938.624h462.72A277.312 277.312 0 0 1 896 521.856V384H554.688V42.688zM896 298.688V280.96L657.664 42.688H640v256h256zM704 693.312c0-25.344 24.32-53.312 64-53.312s64 27.968 64 53.312c0 12.928-5.632 25.536-16.512 35.584l-90.176 84.992v65.984h85.376v-29.12l62.848-59.328c26.432-24.512 43.776-59.072 43.776-98.112 0-80.704-71.232-138.624-149.312-138.624-78.08 0-149.312 57.92-149.312 138.624v42.624H704v-42.624zM810.816 938.496h-85.504V1024h85.504v-85.504z" /></svg>