<?xml version="1.0" standalone="no"?><!DOCTYPE svg PUBLIC "-//W3C//DTD SVG 1.1//EN" "http://www.w3.org/Graphics/SVG/1.1/DTD/svg11.dtd"><svg class="icon" width="200px" height="200.00px" viewBox="0 0 1024 1024" version="1.1" xmlns="http://www.w3.org/2000/svg"><path d="M554.688 42.688H128v938.624h462.72A277.312 277.312 0 0 1 896 521.856V384H554.688V42.688zM896 298.688V280.96L657.664 42.688H640v256h256zM810.688 602.688V544h-85.376v58.688a170.496 170.496 0 0 0-79.104 45.76l-50.88-29.44-42.624 73.92 50.816 29.376a170.816 170.816 0 0 0 0 91.392l-50.816 29.376 42.624 73.856 50.88-29.376c21.44 21.76 48.64 37.888 79.104 45.76v58.688h85.376v-58.688a170.496 170.496 0 0 0 79.104-45.76l50.88 29.44 42.624-73.92-50.816-29.376a170.88 170.88 0 0 0 0-91.392l50.816-29.376-42.624-73.856-50.88 29.376a170.496 170.496 0 0 0-79.104-45.76z m-115.84 121.344a85.312 85.312 0 0 1 146.304 0l1.536 2.688a84.992 84.992 0 0 1 0 82.56l-1.536 2.688a85.248 85.248 0 0 1-146.304 0l-1.536-2.752a84.928 84.928 0 0 1 0-82.496l1.536-2.688z" /></svg>