<svg width="20" height="20" viewBox="0 0 20 20" xmlns="http://www.w3.org/2000/svg">
  <path
    d="M10.8333 0.833008H2.5V19.1663H4.16667V11.2497H9.34524C9.5753 11.2497 9.79583 11.2905 10 11.3652V11.2497H13.0952C13.5879 11.2497 14.0369 11.4367 14.375 11.7436C14.7132 11.4367 15.1621 11.2497 15.6548 11.2497H17.5V7.49967H10.8333V0.833008Z"
    fill="#E24E4D" />
  <path d="M17.5 5.83301V5.48783L12.8452 0.833008H12.5V5.83301H17.5Z" fill="#E24E4D" />
  <path
    d="M8.51174 12.5H5.4165V19.1667H7.08317V16.6667H8.51174C9.10348 16.6667 9.58317 16.187 9.58317 15.5952V13.5714C9.58317 12.9797 9.10348 12.5 8.51174 12.5ZM7.9165 15H7.08317V14.1667H7.9165V15Z"
    fill="currentColor" />
  <path
    d="M13.0951 12.5H9.99984V19.1667H13.0951C13.6868 19.1667 14.1665 18.687 14.1665 18.0952V13.5714C14.1665 12.9797 13.6868 12.5 13.0951 12.5ZM11.6665 17.5V14.1667H12.4998V17.5H11.6665Z"
    fill="currentColor" />
  <path
    d="M15.6546 12.5C15.0629 12.5 14.5832 12.9797 14.5832 13.5714V19.1667H16.2498V16.6667H18.4721V15H16.2498V14.1667H18.4721V12.5H15.6546Z"
    fill="currentColor" />
</svg>