<?xml version="1.0" standalone="no"?><!DOCTYPE svg PUBLIC "-//W3C//DTD SVG 1.1//EN" "http://www.w3.org/Graphics/SVG/1.1/DTD/svg11.dtd"><svg class="icon" width="200px" height="200.00px" viewBox="0 0 1024 1024" version="1.1" xmlns="http://www.w3.org/2000/svg"><path d="M128 42.688h529.664L896 280.96v188.288h-85.312V384h-256V128H213.312v768H896v85.312H128V42.688z m512 103.04v152.96h152.96L640 145.728zM256 512h158.464c30.336 0 54.848 24.576 54.848 54.848v103.68a54.848 54.848 0 0 1-54.848 54.784H341.312v128H256V512z m85.312 128H384v-42.688h-42.688V640z m149.376-128h158.464c30.272 0 54.848 24.576 54.848 54.848v231.68a54.848 54.848 0 0 1-54.848 54.784H490.688V512zM576 597.312V768h42.688V597.312H576z m149.312-30.464c0-30.272 24.576-54.848 54.848-54.848h144.256v85.312h-113.728V640h113.728v85.312h-113.728v128h-85.376V566.848z" /></svg>