<?xml version="1.0" standalone="no"?><!DOCTYPE svg PUBLIC "-//W3C//DTD SVG 1.1//EN" "http://www.w3.org/Graphics/SVG/1.1/DTD/svg11.dtd"><svg class="icon" width="200px" height="200.00px" viewBox="0 0 1024 1024" version="1.1" xmlns="http://www.w3.org/2000/svg"><path d="M259.712 640l-55.04 54.976 60.224 60.416L380.544 640 264.896 524.608l-60.288 60.416 55.104 54.976zM819.392 694.976l-55.104-55.04 55.04-54.912-60.224-60.416L643.456 640l115.648 115.392 60.288-60.416zM316.352 128l152.96 152.96V128h316.352L1024 366.336V896H0V128h316.352z m152.96 341.312h-256v-256h-128v597.376h384V469.312z m85.376 341.376h384V469.312h-256v-256h-128v597.376zM298.688 384h152.96l-152.96-152.96V384zM768 384h152.96L768 231.04V384z" /></svg>