<?xml version="1.0" standalone="no"?><!DOCTYPE svg PUBLIC "-//W3C//DTD SVG 1.1//EN" "http://www.w3.org/Graphics/SVG/1.1/DTD/svg11.dtd"><svg class="icon" width="200px" height="200.00px" viewBox="0 0 1024 1024" version="1.1" xmlns="http://www.w3.org/2000/svg"><path d="M204.608 694.976L259.712 640l-55.04-54.976 60.224-60.416L380.544 640l-115.648 115.392-60.288-60.416zM0 128h316.352l152.96 152.96V128h213.376v341.312H1024V896H0V128z m469.312 682.688V469.312h-256v-256h-128v597.376h384zM298.688 230.976V384h152.96l-152.96-152.96z m520.704 464l-55.104-55.04 55.04-54.912-60.224-60.416L643.456 640l115.648 115.392 60.288-60.416zM1024 384v-17.664L785.664 128H768v256h256z" /></svg>