<?xml version="1.0" standalone="no"?><!DOCTYPE svg PUBLIC "-//W3C//DTD SVG 1.1//EN" "http://www.w3.org/Graphics/SVG/1.1/DTD/svg11.dtd"><svg class="icon" width="200px" height="200.00px" viewBox="0 0 1024 1024" version="1.1" xmlns="http://www.w3.org/2000/svg"><path d="M406.4 26.688l30.208 30.144 105.6 105.6 361.984 362.048 30.208 30.208-30.208 30.144-362.048 362.048-30.144 30.144-30.144-30.144-362.048-362.048-30.208-30.144 30.208-30.208L451.648 192.64 376.32 117.12l-30.208-30.144 60.352-60.352zM252.992 512H771.008L512 252.992 252.992 512z m518.08 85.312H252.992L512 856.384l259.072-259.072z m114.24 144.64l33.472 42.24 22.592 28.544a90.88 90.88 0 0 1 0 110.144c-13.44 16.96-33.408 28.032-56.064 28.032-22.592 0-42.624-11.072-56.064-28.032a90.88 90.88 0 0 1 0-110.08l22.592-28.608 33.472-42.24z" /></svg>