<?xml version="1.0" standalone="no"?><!DOCTYPE svg PUBLIC "-//W3C//DTD SVG 1.1//EN" "http://www.w3.org/Graphics/SVG/1.1/DTD/svg11.dtd"><svg class="icon" width="200px" height="200.00px" viewBox="0 0 1024 1024" version="1.1" xmlns="http://www.w3.org/2000/svg"><path d="M512 2.24L1021.824 512 938.688 595.2v2.176h-2.176L632.704 901.12a170.688 170.688 0 0 1-241.344 0L122.88 632.704a170.688 170.688 0 0 1 0-241.344l189.376-189.44-116.672-116.608L256 25.024l116.672 116.608L512 2.24zM372.672 262.4l-189.44 189.376c-16.64 16.64-24.96 38.464-24.96 60.288H901.12L512 122.88 432.96 202.048l139.392 139.328L512 401.664 372.672 262.4z m-164.48 334.976l243.456 243.456c33.344 33.28 87.36 33.28 120.704 0l243.456-243.456H208.256zM928 784.64l56.128 70.848a90.88 90.88 0 0 1 0 110.08c-13.44 17.024-33.472 28.096-56.128 28.096-22.592 0-42.624-11.072-56.064-28.032a90.88 90.88 0 0 1 0-110.08l56.064-70.912z" /></svg>