<?xml version="1.0" standalone="no"?><!DOCTYPE svg PUBLIC "-//W3C//DTD SVG 1.1//EN" "http://www.w3.org/Graphics/SVG/1.1/DTD/svg11.dtd"><svg class="icon" width="200px" height="200.00px" viewBox="0 0 1024 1024" version="1.1" xmlns="http://www.w3.org/2000/svg"><path d="M512 2.24L1021.824 512 938.688 595.2v2.176h-2.176L632.704 901.12a170.688 170.688 0 0 1-241.344 0L122.88 632.704a170.688 170.688 0 0 1 0-241.344l189.376-189.44-116.672-116.608L256 24.96l116.672 116.672L512 2.24zM372.672 262.272l-189.44 189.44c-16.64 16.64-24.96 38.4-24.96 60.288H901.12L512 122.88 432.96 201.984l139.392 139.392L512 401.664 372.672 262.272zM928 784.64l56.128 70.848a90.88 90.88 0 0 1 0 110.08c-13.44 17.024-33.472 28.032-56.128 28.032-22.592 0-42.624-11.008-56.064-27.968a90.88 90.88 0 0 1 0-110.144l56.064-70.848z" /></svg>