<?xml version="1.0" standalone="no"?><!DOCTYPE svg PUBLIC "-//W3C//DTD SVG 1.1//EN" "http://www.w3.org/Graphics/SVG/1.1/DTD/svg11.dtd"><svg class="icon" width="200px" height="200.00px" viewBox="0 0 1024 1024" version="1.1" xmlns="http://www.w3.org/2000/svg"><path d="M512 128a384 384 0 1 1 0 768A384 384 0 0 1 512 128z m269.952 768a471.104 471.104 0 0 0 65.28-55.488A469.312 469.312 0 1 0 512 981.312h512V896h-242.112zM512 256a42.688 42.688 0 1 0 0 85.312A42.688 42.688 0 0 0 512 256z m-128 42.688a128 128 0 1 1 256 0 128 128 0 0 1-256 0zM298.688 469.312a42.688 42.688 0 1 0 0 85.376 42.688 42.688 0 0 0 0-85.376z m-128 42.688a128 128 0 1 1 256 0 128 128 0 0 1-256 0z m554.688-42.688a42.688 42.688 0 1 0 0 85.376 42.688 42.688 0 0 0 0-85.376z m-128 42.688a128 128 0 1 1 256 0 128 128 0 0 1-256 0zM512 682.688A42.688 42.688 0 1 0 512 768a42.688 42.688 0 0 0 0-85.312z m-128 42.624a128 128 0 1 1 256 0 128 128 0 0 1-256 0z" /></svg>