<?xml version="1.0" standalone="no"?><!DOCTYPE svg PUBLIC "-//W3C//DTD SVG 1.1//EN" "http://www.w3.org/Graphics/SVG/1.1/DTD/svg11.dtd"><svg class="icon" width="200px" height="200.00px" viewBox="0 0 1024 1024" version="1.1" xmlns="http://www.w3.org/2000/svg"><path d="M847.168 840.512a471.104 471.104 0 0 1-65.28 55.488H1024v85.312H512a469.312 469.312 0 1 1 335.168-140.8zM512 213.312A85.312 85.312 0 1 0 512 384a85.312 85.312 0 0 0 0-170.688z m213.376 213.376a85.312 85.312 0 1 0 0 170.624 85.312 85.312 0 0 0 0-170.624zM213.376 512A85.312 85.312 0 1 0 384 512a85.312 85.312 0 0 0-170.624 0zM512 640a85.312 85.312 0 1 0 0 170.688A85.312 85.312 0 0 0 512 640z" /></svg>