<?xml version="1.0" standalone="no"?><!DOCTYPE svg PUBLIC "-//W3C//DTD SVG 1.1//EN" "http://www.w3.org/Graphics/SVG/1.1/DTD/svg11.dtd"><svg class="icon" width="200px" height="200.00px" viewBox="0 0 1024 1024" version="1.1" xmlns="http://www.w3.org/2000/svg"><path d="M85.312 85.312h853.312v853.376H85.312V85.312z m85.312 85.376V256H256V170.688H170.624z m597.376 0V256h85.312V170.688H768z m85.312 170.624H768v128h85.312v-128z m0 213.376H768v128h85.312v-128z m0 213.312H768v85.312h85.312V768z m-170.688-213.312V469.312H341.312v85.376h341.312zM256 853.312V768H170.624v85.312H256z m-85.376-170.624H256v-128H170.624v128z m0-213.376H256v-128H170.624v128z" /></svg>