<?xml version="1.0" standalone="no"?><!DOCTYPE svg PUBLIC "-//W3C//DTD SVG 1.1//EN" "http://www.w3.org/Graphics/SVG/1.1/DTD/svg11.dtd"><svg class="icon" width="200px" height="188.24px" viewBox="0 0 1088 1024" version="1.1" xmlns="http://www.w3.org/2000/svg"><path d="M891.2 96.832l-66.944 33.344 66.944 33.28 33.28 66.944 33.28-66.88 67.008-33.344-66.944-33.28-33.28-66.944-33.344 66.88z m-551.68-32.192l46.848 94.08 94.08 46.72-94.08 46.848-46.784 94.08-46.848-94.08-94.08-46.784 94.08-46.848 46.848-94.08z m395.968 80.512l219.712 219.712-643.84 643.84-219.648-219.712 643.84-643.84zM649.984 351.36l99.008 99.008 85.504-85.504-99.008-99.008-85.504 85.504z m38.656 159.36L589.632 411.712l-377.28 377.28 99.008 98.944L688.64 510.72z" /></svg>