<?xml version="1.0" standalone="no"?><!DOCTYPE svg PUBLIC "-//W3C//DTD SVG 1.1//EN" "http://www.w3.org/Graphics/SVG/1.1/DTD/svg11.dtd"><svg class="icon" width="200px" height="188.24px" viewBox="0 0 1088 1024" version="1.1" xmlns="http://www.w3.org/2000/svg"><path d="M489.728 0.064L638.72 340.928l340.8 148.928L638.72 638.72l-148.928 340.864L340.8 638.72 0 489.856l340.8-148.928L489.728 0z m397.056 141.76l-66.944 33.344 66.944 33.28 33.28 67.008 33.28-66.944 67.008-33.28-66.944-33.408-33.28-66.88-33.344 66.88zM489.728 213.248L405.632 405.76 213.12 489.856l192.512 84.096 84.096 192.448 84.096-192.448 192.512-84.096L573.824 405.76 489.728 213.248z m312.128 416.32l55.488 111.36 111.36 55.488-111.36 55.424-55.488 111.36-55.424-111.36-111.36-55.424 111.36-55.488 55.424-111.36z" /></svg>