<?xml version="1.0" standalone="no"?><!DOCTYPE svg PUBLIC "-//W3C//DTD SVG 1.1//EN" "http://www.w3.org/Graphics/SVG/1.1/DTD/svg11.dtd"><svg class="icon" width="200px" height="200.00px" viewBox="0 0 1024 1024" version="1.1" xmlns="http://www.w3.org/2000/svg"><path d="M194.176 234.688a59.52 59.52 0 0 0 8.064 6.464c13.056 9.088 34.752 19.008 65.344 28.032 60.8 17.856 147.2 29.44 244.48 29.44 97.216 0 183.68-11.584 244.352-29.44 30.656-9.024 52.352-18.944 65.408-28.032 3.84-2.688 6.4-4.864 8-6.464a59.2 59.2 0 0 0-8-6.528c-13.056-9.088-34.752-18.944-65.408-27.968-60.736-17.92-147.2-29.504-244.416-29.504-97.28 0-183.68 11.648-244.416 29.44-30.592 9.088-52.288 18.944-65.344 28.032a59.52 59.52 0 0 0-8.064 6.528z m723.2 0v36.48L640 612.48v112.832a213.312 213.312 0 0 1-213.312 213.376H384V612.48L106.688 271.168v-36.48c0-35.84 24.448-60.992 46.784-76.544 23.68-16.448 55.04-29.568 90.048-39.808C314.048 97.536 408.96 85.312 512 85.312c103.04 0 197.952 12.224 268.48 33.024 35.008 10.24 66.432 23.36 90.048 39.808 22.4 15.552 46.848 40.704 46.848 76.544z" /></svg>