<?xml version="1.0" standalone="no"?><!DOCTYPE svg PUBLIC "-//W3C//DTD SVG 1.1//EN" "http://www.w3.org/Graphics/SVG/1.1/DTD/svg11.dtd"><svg class="icon" width="200px" height="200.00px" viewBox="0 0 1024 1024" version="1.1" xmlns="http://www.w3.org/2000/svg"><path d="M85.312 469.312a426.688 426.688 0 1 1 853.312 0v128c0 112.64-24.32 219.776-67.904 316.288l-17.6 38.848-77.76-35.2 17.6-38.848c38.72-85.632 60.352-180.8 60.352-281.088v-128a341.312 341.312 0 1 0-682.688 0v128H85.312v-128z m192 0a234.688 234.688 0 0 1 469.312 0v128a573.568 573.568 0 0 1-98.752 322.56l-23.872 35.392-70.656-47.872 23.872-35.328a488.192 488.192 0 0 0 84.096-274.752v-128a149.312 149.312 0 1 0-298.688 0v128a192 192 0 0 1-192 192H85.312V704h85.312c58.88 0 106.688-47.744 106.688-106.688v-128z m277.312-42.624v170.624c0 144.64-80 270.528-197.888 336l-37.312 20.672-41.408-74.56 37.312-20.736a298.56 298.56 0 0 0 153.984-261.376V426.688h85.312z" /></svg>