<?xml version="1.0" standalone="no"?><!DOCTYPE svg PUBLIC "-//W3C//DTD SVG 1.1//EN" "http://www.w3.org/Graphics/SVG/1.1/DTD/svg11.dtd"><svg class="icon" width="200px" height="200.00px" viewBox="0 0 1024 1024" version="1.1" xmlns="http://www.w3.org/2000/svg"><path d="M85.312 469.312a426.688 426.688 0 0 1 604.288-388.032l38.784 17.792-35.584 77.568-38.784-17.792a341.312 341.312 0 0 0-483.392 310.464v128H85.312v-128z m723.456-309.44l27.712 32.448a425.152 425.152 0 0 1 102.144 276.992v128c0 112.64-24.32 219.776-67.904 316.288l-17.6 38.848-77.76-35.2 17.6-38.848c38.72-85.632 60.352-180.8 60.352-281.088v-128a339.84 339.84 0 0 0-81.664-221.568l-27.712-32.448 64.832-55.424zM469.312 234.688H512a234.688 234.688 0 0 1 234.624 234.624V512h-85.312v-42.688A149.312 149.312 0 0 0 512 320h-42.688V234.688z m-49.92 110.016l-25.984 33.856a148.48 148.48 0 0 0-30.72 90.752v85.376H277.248V469.312c0-53.632 18.048-103.168 48.384-142.72l25.92-33.856 67.712 51.968z m135.232 81.92v170.688c0 144.64-80 270.528-197.888 336l-37.312 20.672-41.408-74.56 37.312-20.736a298.56 298.56 0 0 0 153.984-261.376V426.688h85.312z m193.6 174.208l-3.392 42.56a572.992 572.992 0 0 1-96.896 276.48l-23.936 35.392-70.656-47.872 23.872-35.328a487.68 487.68 0 0 0 82.56-235.456l3.328-42.496 85.12 6.72z m-391.04 58.88l-22.016 36.608a191.936 191.936 0 0 1-164.48 92.992H85.248V704h85.312c38.784 0 72.768-20.608 91.52-51.712l21.952-36.544 73.088 44.032z" /></svg>