<svg width="12" height="12" viewBox="0 0 12 12" fill="none" xmlns="http://www.w3.org/2000/svg">
  <path fill-rule="evenodd" clip-rule="evenodd"
    d="M5.99988 11.5015C3.56915 11.5015 1.59888 9.71037 1.59888 7.50061C1.59888 6.32085 2.0288 5.36838 2.88837 4.64322C3.06059 4.49781 3.31539 4.46794 3.52256 4.56885C3.72972 4.66977 3.84349 4.87918 3.8057 5.09007C3.66515 5.876 3.93058 6.26908 4.60173 6.26908C6.36076 6.26908 2.68757 1.31796 7.10013 0.499023C5.99988 2.20791 8.77663 4.15735 9.57569 5.16758C10.095 5.82423 10.4009 6.62992 10.4009 7.50061C10.4009 9.71037 8.4306 11.5015 5.99988 11.5015Z"
    fill="url(#paint0_linear_3732_34695)" />
  <defs>
    <linearGradient id="paint0_linear_3732_34695" x1="5.99988" y1="0.499023" x2="5.99988" y2="11.5015"
      gradientUnits="userSpaceOnUse">
      <stop stop-color="#FFE282" />
      <stop offset="1" stop-color="#F75C09" />
    </linearGradient>
  </defs>
</svg>