<?xml version="1.0" standalone="no"?><!DOCTYPE svg PUBLIC "-//W3C//DTD SVG 1.1//EN" "http://www.w3.org/Graphics/SVG/1.1/DTD/svg11.dtd"><svg class="icon" width="200px" height="200.00px" viewBox="0 0 1024 1024" version="1.1" xmlns="http://www.w3.org/2000/svg"><path d="M355.2 101.888l286.144 276.672 211.584-56.704a106.688 106.688 0 1 1 55.232 206.08L153.152 730.24 18.112 457.216 153.6 420.928l71.552 69.12 142.336-38.08-170.816-307.648 158.592-42.432z m-30.912 96.64l170.752 307.584L200.512 584.96l-45.952-44.416 44.032 89.088 687.488-184.192a21.312 21.312 0 1 0-11.072-41.216L616.768 473.472 330.624 196.8l-6.336 1.664z m-238.976 612.16h853.312V896H85.312v-85.312z" /></svg>