<?xml version="1.0" standalone="no"?><!DOCTYPE svg PUBLIC "-//W3C//DTD SVG 1.1//EN" "http://www.w3.org/Graphics/SVG/1.1/DTD/svg11.dtd"><svg class="icon" width="200px" height="200.00px" viewBox="0 0 1024 1024" version="1.1" xmlns="http://www.w3.org/2000/svg"><path d="M396.864 51.328l158.528 42.432 109.504 382.72 211.584 56.704a106.688 106.688 0 1 1-55.232 206.08L66.24 536.96l19.584-304 135.424 36.352 27.392 95.68 142.336 38.08L396.8 51.328z m83.52 110.72l-5.952 351.744-294.528-78.912-17.6-61.44-6.4 99.2 687.424 184.192a21.312 21.312 0 0 0 11.072-41.216L596.16 546.432l-109.44-382.72-6.4-1.664zM85.312 810.688h853.376V896H85.312v-85.312z" /></svg>