<?xml version="1.0" standalone="no"?><!DOCTYPE svg PUBLIC "-//W3C//DTD SVG 1.1//EN" "http://www.w3.org/Graphics/SVG/1.1/DTD/svg11.dtd"><svg class="icon" width="200px" height="200.00px" viewBox="0 0 1024 1024" version="1.1" xmlns="http://www.w3.org/2000/svg"><path d="M298.688 128H448v85.312H384v64H298.688V128z m234.624 0h128v85.312h-128V128z m213.376 0H896v149.312h-85.312v-64h-64V128zM213.312 320v490.688H704V896H128V320h85.312zM384 362.688v128H298.688v-128H384z m512 0v128h-85.312v-128H896zM384 576v64h64v85.312H298.688V576H384z m512 0v149.312h-149.312V640h64V576H896z m-362.688 64h128v85.312h-128V640z" /></svg>