<?xml version="1.0" standalone="no"?><!DOCTYPE svg PUBLIC "-//W3C//DTD SVG 1.1//EN" "http://www.w3.org/Graphics/SVG/1.1/DTD/svg11.dtd"><svg class="icon" width="200px" height="200.00px" viewBox="0 0 1024 1024" version="1.1" xmlns="http://www.w3.org/2000/svg"><path d="M448 128H298.688v149.312H384v-64h64V128zM661.312 128h-128v85.312h128V128zM896 128h-149.312v85.312h64v64H896V128zM213.312 810.688V320H128v576h576v-85.312H213.312zM384 490.688v-128H298.688v128H384zM896 490.688v-128h-85.312v128H896zM384 640V576H298.688v149.312H448V640H384zM896 725.312V576h-85.312v64h-64v85.312H896zM661.312 640h-128v85.312h128V640zM725.312 298.688h-256v256h256v-256z" /></svg>