<?xml version="1.0" standalone="no"?><!DOCTYPE svg PUBLIC "-//W3C//DTD SVG 1.1//EN" "http://www.w3.org/Graphics/SVG/1.1/DTD/svg11.dtd"><svg class="icon" width="200px" height="200.00px" viewBox="0 0 1024 1024" version="1.1" xmlns="http://www.w3.org/2000/svg"><path d="M554.688 42.688v130.56a341.504 341.504 0 0 1 296 296.064h130.688v85.312h-130.688a341.504 341.504 0 0 1-296 296.064v130.624H469.376v-130.624a341.504 341.504 0 0 1-296.064-296.064H42.688V469.312h130.624a341.504 341.504 0 0 1 296.064-296V42.688h85.312zM512 256a256 256 0 1 0 0 512 256 256 0 0 0 0-512zM426.688 512a85.312 85.312 0 1 1 170.688 0 85.312 85.312 0 0 1-170.688 0z" /></svg>