<?xml version="1.0" standalone="no"?><!DOCTYPE svg PUBLIC "-//W3C//DTD SVG 1.1//EN" "http://www.w3.org/Graphics/SVG/1.1/DTD/svg11.dtd"><svg class="icon" width="200px" height="200.00px" viewBox="0 0 1024 1024" version="1.1" xmlns="http://www.w3.org/2000/svg"><path d="M554.688 173.312V42.688H469.376v130.56a341.504 341.504 0 0 0-296.064 296.064H42.688v85.312h130.624a341.504 341.504 0 0 0 296.064 296.064v130.624h85.312v-130.624a341.504 341.504 0 0 0 296-296.064h130.688V469.312h-130.688a341.504 341.504 0 0 0-296-296zM512 426.624a85.312 85.312 0 1 1 0 170.688 85.312 85.312 0 0 1 0-170.688z" /></svg>