<?xml version="1.0" standalone="no"?><!DOCTYPE svg PUBLIC "-//W3C//DTD SVG 1.1//EN" "http://www.w3.org/Graphics/SVG/1.1/DTD/svg11.dtd"><svg class="icon" width="200px" height="200.00px" viewBox="0 0 1024 1024" version="1.1" xmlns="http://www.w3.org/2000/svg"><path d="M554.688 42.688v128H469.376v-128h85.312z m319.36 167.552L783.552 300.8l-60.352-60.352 90.496-90.496 60.352 60.288z m-663.68-60.288L300.8 240.448l-60.288 60.352-90.56-90.496 60.352-60.352zM256 512a256 256 0 1 1 490.688 102.4l-11.2 25.6H288.512l-11.2-25.6A255.296 255.296 0 0 1 256 512zM42.688 469.312h128v85.312h-128V469.312z m810.688 0h128v85.312h-128V469.312z m-768 256h256v85.312h-256v-85.312z m341.312 0h512v85.312h-512v-85.312zM725.376 896h213.312v85.312h-213.312V896z m-640 0H640v85.312H85.376V896z" /></svg>