<?xml version="1.0" standalone="no"?><!DOCTYPE svg PUBLIC "-//W3C//DTD SVG 1.1//EN" "http://www.w3.org/Graphics/SVG/1.1/DTD/svg11.dtd"><svg class="icon" width="200px" height="200.00px" viewBox="0 0 1024 1024" version="1.1" xmlns="http://www.w3.org/2000/svg"><path d="M465.728 24.96l-19.2 71.424c-12.8 47.616-11.52 99.712 2.944 153.792a298.688 298.688 0 0 0 419.904 190.976l65.728-32.064-4.416 72.96c-2.624 44.16-16 87.936-39.168 134.4l-11.84 23.552H120.64l-12.928-31.808-4.864-12.288a347.712 347.712 0 0 1-10.24-29.248A426.688 426.688 0 0 1 394.24 44.16L465.728 24.96zM85.376 725.312h256v85.376h-256v-85.376z m341.312 0h512v85.376h-512v-85.376zM725.376 896h213.312v85.312h-213.312V896z m-640 0H640v85.312H85.376V896z" /></svg>