<?xml version="1.0" standalone="no"?><!DOCTYPE svg PUBLIC "-//W3C//DTD SVG 1.1//EN" "http://www.w3.org/Graphics/SVG/1.1/DTD/svg11.dtd"><svg class="icon" width="200px" height="200.00px" viewBox="0 0 1024 1024" version="1.1" xmlns="http://www.w3.org/2000/svg"><path d="M85.312 554.688c0-70.72 48-135.936 115.2-156.992a256 256 0 0 1 0-5.12C200.512 244.864 324.288 128 473.6 128c23.296 0 45.952 2.816 67.648 8.192 91.584 22.656 165.504 90.432 193.408 178.624 30.848 3.904 59.84 13.632 85.76 28.032 73.024 40.512 118.208 130.112 118.208 211.84H85.312z m0 85.312h256v85.312h-256V640z m341.312 0h512v85.312h-512V640z m298.688 170.688h213.312V896h-213.312v-85.312zM85.312 896v-85.312H640V896H85.312z" /></svg>