<?xml version="1.0" standalone="no"?><!DOCTYPE svg PUBLIC "-//W3C//DTD SVG 1.1//EN" "http://www.w3.org/Graphics/SVG/1.1/DTD/svg11.dtd"><svg class="icon" width="200px" height="200.00px" viewBox="0 0 1024 1024" version="1.1" xmlns="http://www.w3.org/2000/svg"><path d="M473.6 213.312c-105.216 0-187.776 81.728-187.776 179.2 0 11.2 1.088 22.144 3.136 32.64l9.792 50.752H247.04c-40.64 0-76.416 36.864-76.416 78.72v42.688H85.312v-42.624c0-70.72 48-135.936 115.2-156.992a256 256 0 0 1 0-5.12C200.512 244.864 324.288 128 473.6 128c23.296 0 45.952 2.816 67.648 8.192 91.584 22.656 165.504 90.432 193.408 178.624 30.848 3.904 59.84 13.632 85.76 28.032 73.024 40.512 118.208 130.112 118.208 211.84v42.624h-85.312v-42.624c0-55.424-32.256-113.92-74.24-137.216a154.176 154.176 0 0 0-77.632-19.2l-36.48 0.512-6.208-35.84C646.72 293.632 592.64 236.8 520.768 218.944a196.544 196.544 0 0 0-47.168-5.696zM85.312 640h256v85.312h-256V640z m341.312 0h512v85.312h-512V640z m298.688 170.688h213.312V896h-213.312v-85.312zM85.312 896v-85.312H640V896H85.312z" /></svg>