<?xml version="1.0" standalone="no"?><!DOCTYPE svg PUBLIC "-//W3C//DTD SVG 1.1//EN" "http://www.w3.org/Graphics/SVG/1.1/DTD/svg11.dtd"><svg class="icon" width="200px" height="200.00px" viewBox="0 0 1024 1024" version="1.1" xmlns="http://www.w3.org/2000/svg"><path d="M42.688 106.688h361.856l85.312 106.624h491.52v334.784A277.312 277.312 0 1 0 549.376 896H42.688V106.688zM810.688 560v-58.688h-85.312v58.752a170.432 170.432 0 0 0-79.104 45.696l-50.88-29.44-42.688 73.984 50.816 29.312a170.88 170.88 0 0 0 0 91.392l-50.816 29.376 42.688 73.92 50.88-29.44c21.376 21.824 48.576 37.888 79.104 45.76v58.688h85.312v-58.688a170.432 170.432 0 0 0 79.104-45.696l50.88 29.376 42.688-73.92-50.88-29.376a170.88 170.88 0 0 0 0-91.392l50.88-29.312-42.688-73.92-50.88 29.376a170.496 170.496 0 0 0-79.104-45.696z m-115.84 121.408a85.312 85.312 0 0 1 146.304 0l1.6 2.688a84.928 84.928 0 0 1 0 82.496l-1.6 2.688a85.312 85.312 0 0 1-146.304 0l-1.536-2.688a84.928 84.928 0 0 1 0-82.56l1.536-2.624z" /></svg>