<?xml version="1.0" standalone="no"?><!DOCTYPE svg PUBLIC "-//W3C//DTD SVG 1.1//EN" "http://www.w3.org/Graphics/SVG/1.1/DTD/svg11.dtd"><svg class="icon" width="200px" height="200.00px" viewBox="0 0 1024 1024" version="1.1" xmlns="http://www.w3.org/2000/svg"><path d="M42.688 106.688h361.856l85.312 106.624h491.52v256H896V298.688H448.832L363.52 192H128v618.688h341.376V896H42.688V106.688z m768 394.624v58.752c30.528 7.808 57.728 23.936 79.104 45.696l50.88-29.376 42.688 73.92-50.88 29.312a170.88 170.88 0 0 1 0 91.392l50.88 29.44-42.688 73.856-50.88-29.44c-21.376 21.824-48.64 37.888-79.104 45.76v58.688h-85.312v-58.688a170.496 170.496 0 0 1-79.104-45.696l-50.88 29.376-42.688-73.92 50.816-29.376a170.88 170.88 0 0 1 0-91.392l-50.816-29.312 42.688-73.92 50.88 29.44c21.376-21.824 48.576-37.952 79.104-45.76v-58.752h85.312z m-117.376 182.784a84.928 84.928 0 0 0 0 82.496l1.536 2.688a85.312 85.312 0 0 0 146.304 0l1.6-2.688a84.928 84.928 0 0 0 0-82.56l-1.6-2.624a85.248 85.248 0 0 0-146.304 0l-1.536 2.688z" /></svg>