<?xml version="1.0" standalone="no"?><!DOCTYPE svg PUBLIC "-//W3C//DTD SVG 1.1//EN" "http://www.w3.org/Graphics/SVG/1.1/DTD/svg11.dtd"><svg class="icon" width="200px" height="200.00px" viewBox="0 0 1024 1024" version="1.1" xmlns="http://www.w3.org/2000/svg"><path d="M42.688 106.688h361.856l85.312 106.624h491.52V896H42.688V106.688zM128 192v618.688h768v-512H448.832L363.52 192H128z m384 256a42.688 42.688 0 1 1 0 85.312A42.688 42.688 0 0 1 512 448z m102.4 119.488a128 128 0 1 0-204.8 0A170.432 170.432 0 0 0 341.376 704v42.688h85.312V704a85.312 85.312 0 1 1 170.688 0v42.688h85.312V704c0-55.808-26.816-105.408-68.224-136.512z" /></svg>