<?xml version="1.0" standalone="no"?><!DOCTYPE svg PUBLIC "-//W3C//DTD SVG 1.1//EN" "http://www.w3.org/Graphics/SVG/1.1/DTD/svg11.dtd"><svg class="icon" width="200px" height="200.00px" viewBox="0 0 1024 1024" version="1.1" xmlns="http://www.w3.org/2000/svg"><path d="M42.688 106.688h361.856l85.312 106.624h491.52v213.376H896v-128H448.832L363.52 192H128v618.688h426.688V896h-512V106.688zM832 576a53.312 53.312 0 0 0-53.312 53.312v32H1024v277.376h-384v-277.376h53.376v-32a138.688 138.688 0 0 1 236.416-98.304l30.272 30.08-60.16 60.48-30.272-30.08A53.056 53.056 0 0 0 832 576z m-106.688 170.688v106.624h213.312v-106.624h-213.312z" /></svg>