<?xml version="1.0" standalone="no"?><!DOCTYPE svg PUBLIC "-//W3C//DTD SVG 1.1//EN" "http://www.w3.org/Graphics/SVG/1.1/DTD/svg11.dtd"><svg class="icon" width="200px" height="200.00px" viewBox="0 0 1024 1024" version="1.1" xmlns="http://www.w3.org/2000/svg"><path d="M42.688 106.688h361.856l85.312 106.624h491.52V496.64A298.688 298.688 0 0 0 544.256 896H42.624V106.688zM789.376 490.688a234.688 234.688 0 1 0 0 469.312 234.688 234.688 0 0 0 0-469.312zM640 725.312a149.312 149.312 0 0 1 220.416-131.392l-202.432 202.432a148.608 148.608 0 0 1-17.92-71.04z m78.272 131.392l202.496-202.432a149.312 149.312 0 0 1-202.432 202.432z" /></svg>