<?xml version="1.0" standalone="no"?><!DOCTYPE svg PUBLIC "-//W3C//DTD SVG 1.1//EN" "http://www.w3.org/Graphics/SVG/1.1/DTD/svg11.dtd"><svg class="icon" width="200px" height="200.00px" viewBox="0 0 1024 1024" version="1.1" xmlns="http://www.w3.org/2000/svg"><path d="M512 896a85.312 85.312 0 1 0 0-170.688A85.312 85.312 0 0 0 512 896z m42.688-250.624a170.752 170.752 0 1 1-85.312 0V554.688H298.688a128 128 0 0 1-128-128v-48a170.752 170.752 0 1 1 85.312 0v48c0 23.552 19.136 42.688 42.688 42.688h426.688A42.688 42.688 0 0 0 768 426.624v-48a170.752 170.752 0 1 1 85.376 0v48a128 128 0 0 1-128 128H554.688v90.688zM213.248 298.688h0.256a85.312 85.312 0 1 0-0.256 0z m597.44 0a85.312 85.312 0 1 0 0-170.688 85.312 85.312 0 0 0 0 170.688z" /></svg>