<?xml version="1.0" standalone="no"?><!DOCTYPE svg PUBLIC "-//W3C//DTD SVG 1.1//EN" "http://www.w3.org/Graphics/SVG/1.1/DTD/svg11.dtd"><svg class="icon" width="200px" height="200.00px" viewBox="0 0 1024 1024" version="1.1" xmlns="http://www.w3.org/2000/svg"><path d="M832 42.688a149.312 149.312 0 0 0-42.624 292.48v91.52a42.688 42.688 0 0 1-42.688 42.624H277.376a42.688 42.688 0 0 1-42.688-42.624v-91.52a149.376 149.376 0 1 0-85.312 0v91.52a128 128 0 0 0 128 128h192v134.144a149.376 149.376 0 1 0 85.312 0V554.688h192a128 128 0 0 0 128-128v-91.52A149.376 149.376 0 0 0 832 42.688z" /></svg>