<?xml version="1.0" standalone="no"?><!DOCTYPE svg PUBLIC "-//W3C//DTD SVG 1.1//EN" "http://www.w3.org/Graphics/SVG/1.1/DTD/svg11.dtd"><svg class="icon" width="200px" height="200.00px" viewBox="0 0 1024 1024" version="1.1" xmlns="http://www.w3.org/2000/svg"><path d="M85.312 213.312C85.312 166.208 123.52 128 170.624 128H512v85.312H170.624v256H512v85.376H170.624V896H85.312V213.312z m853.312 213.376V517.76c0 25.408-11.328 49.536-30.976 65.792l-94.08 77.696 94.08 77.76c19.648 16.192 30.976 40.32 30.976 65.792V896h-85.312v-91.136l-106.688-88.192L640 804.864V896H554.624v-91.136c0-25.472 11.392-49.6 30.976-65.792l94.08-77.76L585.6 583.68a85.312 85.312 0 0 1-30.976-65.792V426.688H640V517.76l106.624 88.128 106.688-88.128V426.688h85.312z" /></svg>