<?xml version="1.0" standalone="no"?><!DOCTYPE svg PUBLIC "-//W3C//DTD SVG 1.1//EN" "http://www.w3.org/Graphics/SVG/1.1/DTD/svg11.dtd"><svg class="icon" width="200px" height="200.00px" viewBox="0 0 1024 1024" version="1.1" xmlns="http://www.w3.org/2000/svg"><path d="M458.24 301.632a96.448 96.448 0 0 1 192.832 0v147.2h70.528c20.864 0 41.344 5.504 59.328 16l154.624 90.304a117.632 117.632 0 0 1 52.352 138.752l-76.096 228.288a117.632 117.632 0 0 1-111.552 80.448H497.92c-36.48 0-71.04-16.96-93.248-45.952l-183.424-238.528 40.512-60.8c17.984-27.008 50.432-40.512 82.24-34.176l114.24 22.528V301.632zM256 0h213.312v213.312H384V145.664l-152.96 152.96h67.584V384H85.312V170.688h85.312v67.648l152.96-152.96H256V0z" /></svg>