<?xml version="1.0" standalone="no"?><!DOCTYPE svg PUBLIC "-//W3C//DTD SVG 1.1//EN" "http://www.w3.org/Graphics/SVG/1.1/DTD/svg11.dtd"><svg class="icon" width="200px" height="200.00px" viewBox="0 0 1024 1024" version="1.1" xmlns="http://www.w3.org/2000/svg"><path d="M170.858535 0a85.253388 85.253388 0 1 0 0 170.570733 85.253388 85.253388 0 0 0 0-170.570733zM469.341328 0a85.253388 85.253388 0 1 0 0 170.570733 85.253388 85.253388 0 0 0 0-170.570733zM767.824121 0a85.253388 85.253388 0 1 0 0 170.570733A85.253388 85.253388 0 0 0 767.824121 0zM170.858535 255.824121a85.253388 85.253388 0 1 0 0 170.570733 85.253388 85.253388 0 0 0 0-170.570733zM767.824121 255.824121a85.253388 85.253388 0 1 0 0 170.570733A85.253388 85.253388 0 0 0 767.824121 255.824121zM469.341328 226.404347c-53.211417 0-96.381738 43.17032-96.381738 96.381738v343.827618l-114.097558-22.512523a80.07295 80.07295 0 0 0-82.183498 34.152521l-40.484168 60.758228 183.297983 238.364125c22.192742 28.972082 56.665043 45.92043 93.183936 45.92043h302.064331c50.58922 0 95.550309-32.361751 111.539317-80.39273l75.979763-228.13116a117.551184 117.551184 0 0 0-52.252076-138.656674l-154.517769-90.178002c-18.035601-10.552745-38.437574-16.052964-59.28724-16.052964H565.723065v-147.098869c0-53.211417-43.17032-96.317782-96.381737-96.317782z" /></svg>