<?xml version="1.0" standalone="no"?><!DOCTYPE svg PUBLIC "-//W3C//DTD SVG 1.1//EN" "http://www.w3.org/Graphics/SVG/1.1/DTD/svg11.dtd"><svg class="icon" width="200px" height="200.00px" viewBox="0 0 1024 1024" version="1.1" xmlns="http://www.w3.org/2000/svg"><path d="M192 323.008a128 128 0 1 0 0 256h149.312v62.272a128 128 0 0 0 17.472 64.448l102.784 176.192a128 128 0 0 0 151.04 56.96l259.84-86.656A128 128 0 0 0 960 730.88V386.368a128 128 0 0 0-49.92-101.504l-268.288-206.336-65.152 43.392a85.312 85.312 0 0 0-35.968 89.536l24.832 111.552H192z m-42.688 128c0-23.616 19.136-42.688 42.688-42.688h479.872L624 192.96l14.208-9.536 219.776 169.088c10.496 8.064 16.64 20.608 16.64 33.856v344.448a42.688 42.688 0 0 1-29.12 40.448l-259.84 86.656a42.688 42.688 0 0 1-50.432-18.944l-102.784-176.256a42.624 42.624 0 0 1-5.76-21.44V493.632H192a42.688 42.688 0 0 1-42.688-42.624z" /></svg>