<?xml version="1.0" standalone="no"?><!DOCTYPE svg PUBLIC "-//W3C//DTD SVG 1.1//EN" "http://www.w3.org/Graphics/SVG/1.1/DTD/svg11.dtd"><svg class="icon" width="200px" height="200.00px" viewBox="0 0 1024 1024" version="1.1" xmlns="http://www.w3.org/2000/svg"><path d="M180.096 265.6a469.44 469.44 0 0 1 613.44-43.712h-89.6V307.2h212.736l0.064-243.2h-85.312v79.872a554.88 554.88 0 0 0-711.68 61.376l-30.208 30.144 60.352 60.352 30.208-30.208zM512 205.248c-53.184 0-96.384 43.136-96.384 96.384v344.064L301.44 623.168a80.128 80.128 0 0 0-82.24 34.176l-40.512 60.8 183.424 238.528c22.208 28.992 56.704 45.952 93.248 45.952h302.272c50.624 0 95.616-32.384 111.616-80.448l76.032-228.288a117.632 117.632 0 0 0-52.288-138.752l-154.624-90.24c-18.048-10.56-38.464-16.064-59.328-16.064H608.512v-147.2c0-53.248-43.2-96.384-96.448-96.384z" /></svg>