<?xml version="1.0" standalone="no"?><!DOCTYPE svg PUBLIC "-//W3C//DTD SVG 1.1//EN" "http://www.w3.org/Graphics/SVG/1.1/DTD/svg11.dtd"><svg class="icon" width="200px" height="200.00px" viewBox="0 0 1024 1024" version="1.1" xmlns="http://www.w3.org/2000/svg"><path d="M128 24.96L231.04 128l-60.352 60.352-103.04-103.04L128 25.024z m828.352 60.352l-103.04 103.04L793.088 128l103.04-103.04 60.288 60.352z m-514.432 55.616a27.84 27.84 0 0 0-27.776 22.016L316.8 618.368l-51.968 51.904 115.264 115.264 65.152-65.152c15.36-15.296 23.872-36.032 23.872-57.6v-494.08c0-15.104-12.16-27.52-27.264-27.776zM319.808 845.888l-115.2-115.264-27.52 27.456 115.264 115.2 27.52-27.392z m10.88-700.8A113.152 113.152 0 0 1 512 80.32a113.152 113.152 0 0 1 181.312 64.768l92.032 430.784 182.208 182.208-235.968 235.904L518.4 780.8a172.608 172.608 0 0 1-6.4-6.656c-1.984 2.24-4.096 4.48-6.272 6.656L292.352 993.92 56.448 758.08l182.208-182.208 92.032-430.72z m279.168 17.856a27.84 27.84 0 0 0-55.04 5.76v494.08c0 21.568 8.512 42.304 23.808 57.6l65.152 65.152 115.264-115.2-51.84-51.968-97.344-455.424z m209.536 567.68l-115.2 115.2 27.392 27.52 115.264-115.264-27.456-27.456zM231.04 298.624L128 401.728l-60.288-60.352 103.04-103.04 60.288 60.416z m622.336-60.288l103.04 103.04-60.416 60.288-102.976-103.04 60.352-60.288z" /></svg>