<?xml version="1.0" standalone="no"?><!DOCTYPE svg PUBLIC "-//W3C//DTD SVG 1.1//EN" "http://www.w3.org/Graphics/SVG/1.1/DTD/svg11.dtd"><svg class="icon" width="200px" height="200.00px" viewBox="0 0 1024 1024" version="1.1" xmlns="http://www.w3.org/2000/svg"><path d="M21.312 21.888l243.136 0.128v212.672H179.136v-89.6a469.632 469.632 0 0 0 0 563.2v-89.6h85.312v212.736h-243.2v-85.312h79.808a555.136 555.136 0 0 1 0-638.848L21.312 107.2V21.888zM426.88 326.208a32.256 32.256 0 1 0-55.808 32.256l213.952 370.688-187.52 59.008-0.512 7.68 221.632 91.584c9.28 3.84 19.84 3.2 28.48-1.92l261.76-151.04a32.32 32.32 0 0 0 15.552-34.56l-48.32-235.648a32.256 32.256 0 0 0-31.488-25.856L665.6 437.568a32.32 32.32 0 0 0-16.256 4.352L532.608 509.248l-105.6-183.04zM340.224 240.512a117.568 117.568 0 0 1 160.64 43.072l62.976 109.12 42.88-24.704c17.984-10.432 38.464-15.872 59.328-15.744l179.072 0.832c55.68 0.256 103.488 39.488 114.624 94.08l48.32 235.648a117.632 117.632 0 0 1-56.448 125.44l-261.76 151.232a117.632 117.632 0 0 1-103.744 6.848l-278.08-114.944 4.608-72.256c2.112-33.024 24.32-61.44 55.936-71.296l89.472-28.16-160.832-278.528a117.568 117.568 0 0 1 43.008-160.64z" /></svg>