<?xml version="1.0" standalone="no"?><!DOCTYPE svg PUBLIC "-//W3C//DTD SVG 1.1//EN" "http://www.w3.org/Graphics/SVG/1.1/DTD/svg11.dtd"><svg class="icon" width="200px" height="200.00px" viewBox="0 0 1024 1024" version="1.1" xmlns="http://www.w3.org/2000/svg"><path d="M793.536 221.888a469.44 469.44 0 0 0-613.44 43.712l-30.208 30.144-60.352-60.352 30.208-30.144a554.88 554.88 0 0 1 711.68-61.376V64h85.312l-0.064 243.2h-212.736V221.888h89.6zM394.432 322.816a117.568 117.568 0 0 1 235.136 0v126.08h49.408c20.864-0.064 41.344 5.504 59.328 16l154.624 90.24a117.632 117.632 0 0 1 52.288 138.752l-76.032 228.288a117.632 117.632 0 0 1-111.552 80.448H455.296c-36.544 0-71.04-16.96-93.248-45.952L178.56 718.144l40.192-60.288c18.304-27.52 51.776-40.96 84.096-33.792l91.52 20.352V322.816zM512 290.56a32.256 32.256 0 0 0-32.256 32.256v428.032l-191.936-42.688-4.288 6.4 146.176 190.08a32.32 32.32 0 0 0 25.6 12.672h302.336c13.888 0 26.24-8.96 30.592-22.08l76.032-228.288a32.32 32.32 0 0 0-14.336-38.08l-154.624-90.24a32.256 32.256 0 0 0-16.32-4.48H544.256V322.816A32.256 32.256 0 0 0 512 290.56z" /></svg>