<?xml version="1.0" standalone="no"?><!DOCTYPE svg PUBLIC "-//W3C//DTD SVG 1.1//EN" "http://www.w3.org/Graphics/SVG/1.1/DTD/svg11.dtd"><svg class="icon" width="200px" height="200.00px" viewBox="0 0 1024 1024" version="1.1" xmlns="http://www.w3.org/2000/svg"><path d="M252.992 107.328l-30.208 30.144a469.44 469.44 0 0 0-43.648 613.44v-89.6h85.312v212.736h-243.2v-85.312h79.808a554.88 554.88 0 0 1 61.44-711.616l30.08-30.144 60.416 60.352zM426.944 283.52a32.256 32.256 0 0 0-55.808 32.32l213.952 370.688-187.52 58.944-0.512 7.744 221.632 91.52c9.28 3.84 19.84 3.2 28.48-1.856l261.76-151.104a32.32 32.32 0 0 0 15.552-34.496l-48.32-235.712a32.256 32.256 0 0 0-31.488-25.792L665.6 394.88a32.32 32.32 0 0 0-16.256 4.288L532.608 466.624l-105.6-183.04zM340.224 197.952a117.568 117.568 0 0 1 160.64 43.008L563.84 350.08l42.88-24.704c17.984-10.432 38.464-15.872 59.328-15.808l179.072 0.896c55.68 0.256 103.488 39.488 114.624 94.016l48.32 235.712a117.632 117.632 0 0 1-56.448 125.44l-261.76 151.168a117.632 117.632 0 0 1-103.744 6.848l-278.08-114.88 4.608-72.32c2.112-33.024 24.32-61.312 55.936-71.296l89.472-28.16-160.832-278.528a117.568 117.568 0 0 1 43.008-160.64z" /></svg>