<?xml version="1.0" standalone="no"?><!DOCTYPE svg PUBLIC "-//W3C//DTD SVG 1.1//EN" "http://www.w3.org/Graphics/SVG/1.1/DTD/svg11.dtd"><svg class="icon" width="200px" height="200.00px" viewBox="0 0 1024 1024" version="1.1" xmlns="http://www.w3.org/2000/svg"><path d="M458.688 64a64 64 0 1 1 128 0v362.688h32v-269.44a64 64 0 1 1 128 0v269.44h32V299.648a64 64 0 0 1 127.936 0V640a341.312 341.312 0 0 1-341.312 341.312h-57.6a341.312 341.312 0 0 1-330.176-254.592l-64-243.456a71.232 71.232 0 0 1 129.28-55.808l55.872 89.408V157.248a64 64 0 1 1 128 0v269.44h32V64z" /></svg>