<?xml version="1.0" standalone="no"?><!DOCTYPE svg PUBLIC "-//W3C//DTD SVG 1.1//EN" "http://www.w3.org/Graphics/SVG/1.1/DTD/svg11.dtd"><svg class="icon" width="200px" height="200.00px" viewBox="0 0 1024 1024" version="1.1" xmlns="http://www.w3.org/2000/svg"><path d="M85.325334 85.341333a85.309334 85.309334 0 1 1 170.682666 0 85.309334 85.309334 0 0 1-170.682666 0z m298.678666 0a85.309334 85.309334 0 1 1 170.618668 0 85.309334 85.309334 0 0 1-170.618668 0z m298.614668 0a85.309334 85.309334 0 1 1 170.682666 0 85.309334 85.309334 0 0 1-170.682666 0z m-330.86966 258.807912a117.564326 117.564326 0 0 1 235.128652 0v126.07606h49.406456c20.863348 0 41.342708 5.503828 59.326146 15.9995l154.619168 90.237181a117.628324 117.628324 0 0 1 52.286366 138.747664l-76.029624 228.280866A117.628324 117.628324 0 0 1 714.87366 1024H412.611106c-36.542858 0-71.03778-16.95947-93.245086-45.886566l-183.418268-238.584544 40.190744-60.222118c18.303428-27.583138 51.710384-40.95872 84.029374-33.790944l91.51714 20.287366V344.149245z m117.564326-32.254992a32.254992 32.254992 0 0 0-32.254992 32.254992v428.018625l-191.930002-42.686666-4.287866 6.3998 146.171432 190.138058a32.254992 32.254992 0 0 0 25.5992 12.607606h302.262554c13.951564 0 26.23918-8.895722 30.655042-22.07931l76.029624-228.280866a32.31899 32.31899 0 0 0-14.335552-38.07881l-154.619168-90.23718a32.254992 32.254992 0 0 0-16.31949-4.47986H501.568326V344.213243a32.254992 32.254992 0 0 0-32.254992-32.254992z m-383.988 29.43908a85.309334 85.309334 0 1 1 170.682666 0 85.309334 85.309334 0 0 1-170.682666 0z m597.293334 0a85.309334 85.309334 0 1 1 170.682666 0 85.309334 85.309334 0 0 1-170.682666 0z" /></svg>