<?xml version="1.0" standalone="no"?><!DOCTYPE svg PUBLIC "-//W3C//DTD SVG 1.1//EN" "http://www.w3.org/Graphics/SVG/1.1/DTD/svg11.dtd"><svg class="icon" width="200px" height="200.00px" viewBox="0 0 1024 1024" version="1.1" xmlns="http://www.w3.org/2000/svg"><path d="M426.624 167.04V21.248H512V167.04H426.624zM316.352 234.624l-103.04-103.04L152.96 192 256 295.04l60.352-60.352zM469.312 205.248c-53.248 0-96.448 43.2-96.448 96.448v344l-114.176-22.528a80.128 80.128 0 0 0-82.24 34.176l-40.512 60.8L319.36 956.8c22.208 28.928 56.704 45.888 93.248 45.888h302.272c50.624 0 95.616-32.384 111.616-80.448l76.032-228.288a117.632 117.632 0 0 0-52.288-138.752l-154.624-90.24c-18.048-10.496-38.464-16-59.328-16H565.76v-147.2c0-53.248-43.2-96.448-96.448-96.448zM725.312 131.648l-103.04 103.04 60.352 60.288 103.04-103.04-60.352-60.288z" /></svg>