<?xml version="1.0" standalone="no"?><!DOCTYPE svg PUBLIC "-//W3C//DTD SVG 1.1//EN" "http://www.w3.org/Graphics/SVG/1.1/DTD/svg11.dtd"><svg class="icon" width="200px" height="200.00px" viewBox="0 0 1024 1024" version="1.1" xmlns="http://www.w3.org/2000/svg"><path d="M309.312 192a128 128 0 1 1 256 0v149.312h62.272a128 128 0 0 1 64.512 17.472l176.192 102.784a128 128 0 0 1 56.96 151.04l-86.656 259.84A128 128 0 0 1 717.184 960H372.672a128 128 0 0 1-101.44-49.92l-206.336-268.288 43.392-65.152a85.312 85.312 0 0 1 89.536-35.968l111.488 24.832V192z m128-42.688A42.688 42.688 0 0 0 394.688 192v479.872L179.2 624l-9.472 14.208 169.088 219.776c8.064 10.496 20.544 16.64 33.792 16.64h344.512a42.688 42.688 0 0 0 40.448-29.12l86.656-259.84a42.688 42.688 0 0 0-19.008-50.432l-176.192-102.784a42.688 42.688 0 0 0-21.504-5.76H480V192a42.688 42.688 0 0 0-42.688-42.688z" /></svg>