<?xml version="1.0" standalone="no"?><!DOCTYPE svg PUBLIC "-//W3C//DTD SVG 1.1//EN" "http://www.w3.org/Graphics/SVG/1.1/DTD/svg11.dtd"><svg class="icon" width="200px" height="200.00px" viewBox="0 0 1024 1024" version="1.1" xmlns="http://www.w3.org/2000/svg"><path d="M746.624 298.688c0 38.656-7.872 75.52-22.208 108.928a181.632 181.632 0 0 0-88.128-22.784H629.76v-83.2a160.448 160.448 0 0 0-320.896 0v223.296a277.312 277.312 0 1 1 437.76-226.24zM636.288 448.832a117.632 117.632 0 0 1 59.328 16l154.624 90.304a117.632 117.632 0 0 1 52.288 138.752l-76.032 228.288a117.632 117.632 0 0 1-111.616 80.448H412.608c-36.544 0-71.04-16.96-93.248-45.952l-183.424-238.528 40.512-60.8c17.92-27.008 50.432-40.512 82.24-34.176l114.176 22.528V301.632a96.448 96.448 0 0 1 192.896 0v147.2h70.528z" /></svg>