<?xml version="1.0" standalone="no"?><!DOCTYPE svg PUBLIC "-//W3C//DTD SVG 1.1//EN" "http://www.w3.org/Graphics/SVG/1.1/DTD/svg11.dtd"><svg class="icon" width="200px" height="200.00px" viewBox="0 0 1024 1024" version="1.1" xmlns="http://www.w3.org/2000/svg"><path d="M256 0h213.312v213.312H384V145.664l-152.96 152.96h67.584V384H85.312V170.688h85.312v67.648l152.96-152.96H256V0z m181.12 322.816a117.568 117.568 0 1 1 235.072 0v126.016h49.408c20.864 0 41.344 5.504 59.328 16l154.624 90.304a117.632 117.632 0 0 1 52.352 138.752l-76.096 228.288a117.632 117.632 0 0 1-111.552 80.448H497.92c-36.48 0-71.04-16.96-93.248-45.952l-183.424-238.528 40.192-60.288c18.368-27.52 51.776-40.96 84.096-33.792l91.52 20.352V322.816z m117.504-32.256a32.256 32.256 0 0 0-32.256 32.256v428.032l-191.872-42.688-4.288 6.4 146.112 190.08a32.32 32.32 0 0 0 25.6 12.672h302.336c13.888 0 26.24-8.96 30.592-22.08l76.096-228.288a32.256 32.256 0 0 0-14.4-38.08l-154.624-90.24a32.32 32.32 0 0 0-16.32-4.48H586.88V322.816a32.256 32.256 0 0 0-32.256-32.256z" /></svg>