<?xml version="1.0" standalone="no"?><!DOCTYPE svg PUBLIC "-//W3C//DTD SVG 1.1//EN" "http://www.w3.org/Graphics/SVG/1.1/DTD/svg11.dtd"><svg class="icon" width="200px" height="200.00px" viewBox="0 0 1024 1024" version="1.1" xmlns="http://www.w3.org/2000/svg"><path d="M300.16 212.736a19.392 19.392 0 0 0-31.552 21.12c2.56 6.336 6.208 12.16 8.96 18.368L361.28 423.04 269.12 621.568l155.52 47.616 42.688-254.912 0.448-1.6a43.712 43.712 0 0 0 1.472-10.944 66.56 66.56 0 0 0-19.008-38.848L300.224 212.736z m110.208 541.312l-206.912-63.36h-32.832v126.208h229.12l10.624-62.848zM182.592 605.44l84.096-181.376-66.304-135.488c-3.328-7.36-7.424-14.336-10.56-21.76a104.704 104.704 0 0 1 170.688-114.304l150.08 150.08 1.408 1.408 1.344-1.408 150.08-150.08a104.704 104.704 0 0 1 170.688 114.304c-3.136 7.424-7.232 14.4-10.56 21.76l-66.304 135.488 84.096 181.376h97.28v296.896H551.936L512 663.936l-40 238.208H85.312V605.44h97.28z m372.032-202.112c0 1.728 0.384 4.672 1.6 9.408l0.384 1.6 42.752 254.912 155.456-47.616-92.096-198.528 83.648-170.88c2.816-6.144 6.4-11.968 8.96-18.24a19.392 19.392 0 0 0-31.552-21.12L573.696 362.88a66.56 66.56 0 0 0-19.072 39.808m265.856 288l-206.848 63.36 10.496 62.848h229.184v-126.144h-32.832z" /></svg>