<?xml version="1.0" standalone="no"?><!DOCTYPE svg PUBLIC "-//W3C//DTD SVG 1.1//EN" "http://www.w3.org/Graphics/SVG/1.1/DTD/svg11.dtd"><svg class="icon" width="200px" height="200.00px" viewBox="0 0 1024 1024" version="1.1" xmlns="http://www.w3.org/2000/svg"><path d="M323.008 832a128 128 0 1 0 256 0v-149.312h62.272a128 128 0 0 0 64.512-17.472l176.192-102.784a128 128 0 0 0 56.96-151.04l-86.656-259.84A128 128 0 0 0 730.88 64H386.368a128 128 0 0 0-101.44 49.92L78.592 382.272l43.392 65.152c19.52 29.312 55.104 43.584 89.472 35.968l111.552-24.832V832z m128 42.688A42.688 42.688 0 0 1 408.384 832V352.128l-215.424 47.872-9.472-14.208 169.088-219.776a42.688 42.688 0 0 1 33.792-16.64h344.512c18.368 0 34.624 11.712 40.448 29.12l86.656 259.84c6.4 19.2-1.536 40.256-19.008 50.432l-176.192 102.784a42.688 42.688 0 0 1-21.504 5.76H493.696V832a42.688 42.688 0 0 1-42.688 42.688z" /></svg>