<?xml version="1.0" standalone="no"?><!DOCTYPE svg PUBLIC "-//W3C//DTD SVG 1.1//EN" "http://www.w3.org/Graphics/SVG/1.1/DTD/svg11.dtd"><svg class="icon" width="200px" height="200.00px" viewBox="0 0 1024 1024" version="1.1" xmlns="http://www.w3.org/2000/svg"><path d="M832 323.008a128 128 0 1 1 0 256h-149.312v62.272a128 128 0 0 1-17.472 64.448L562.432 881.92a128 128 0 0 1-151.04 56.96l-259.84-86.656A128 128 0 0 1 64 730.88V386.368a128 128 0 0 1 49.92-101.504l268.288-206.336 65.152 43.392c29.312 19.584 43.584 55.104 35.968 89.536l-24.832 111.552H832z m42.688 128A42.688 42.688 0 0 0 832 408.32H352.128l47.872-215.36-14.208-9.472-219.776 169.024a42.688 42.688 0 0 0-16.64 33.856v344.448c0 18.368 11.712 34.688 29.12 40.512l259.84 86.592c19.2 6.4 40.256-1.536 50.432-18.944l102.784-176.192a42.688 42.688 0 0 0 5.76-21.504V493.632H832a42.688 42.688 0 0 0 42.688-42.624z" /></svg>