<?xml version="1.0" standalone="no"?><!DOCTYPE svg PUBLIC "-//W3C//DTD SVG 1.1//EN" "http://www.w3.org/Graphics/SVG/1.1/DTD/svg11.dtd"><svg class="icon" width="200px" height="200.00px" viewBox="0 0 1024 1024" version="1.1" xmlns="http://www.w3.org/2000/svg"><path d="M222.88512 137.472l30.208-30.144L192.74112 46.976l-30.208 30.144a554.88 554.88 0 0 0-61.376 711.68H21.34912v85.312h243.2v-212.736H179.23712v89.6a469.44 469.44 0 0 1 43.648-613.504zM340.32512 197.888a96.448 96.448 0 0 0-35.264 131.712l171.968 297.92-110.144 37.568c-30.72 10.496-52.032 38.4-54.144 70.72l-4.672 72.96 278.144 114.88a117.632 117.632 0 0 0 103.68-6.848l261.824-151.168a117.632 117.632 0 0 0 56.448-125.44l-48.32-235.712a117.632 117.632 0 0 0-114.688-94.08l-179.072-0.832a117.632 117.632 0 0 0-59.328 15.808l-61.12 35.2-73.6-127.36a96.448 96.448 0 0 0-131.712-35.328z" /></svg>