<?xml version="1.0" standalone="no"?><!DOCTYPE svg PUBLIC "-//W3C//DTD SVG 1.1//EN" "http://www.w3.org/Graphics/SVG/1.1/DTD/svg11.dtd"><svg class="icon" width="200px" height="200.00px" viewBox="0 0 1024 1024" version="1.1" xmlns="http://www.w3.org/2000/svg"><path d="M793.472 221.888a469.632 469.632 0 0 0-563.136 0H320V307.2H107.2V64h85.312v79.872a555.136 555.136 0 0 1 638.848 0V64h85.376l-0.128 243.2H704V221.888h89.6zM512 205.248c-53.248 0-96.384 43.136-96.384 96.384v344.064l-114.24-22.528a80.128 80.128 0 0 0-82.24 34.176l-40.512 60.8 183.424 238.528c22.272 28.992 56.704 45.952 93.248 45.952h302.336c50.56 0 95.552-32.384 111.552-80.448l76.096-228.288a117.632 117.632 0 0 0-52.352-138.752l-154.624-90.24c-17.984-10.56-38.464-16.064-59.328-16.064H608.448v-147.2c0-53.248-43.2-96.384-96.448-96.384z" /></svg>