<?xml version="1.0" standalone="no"?><!DOCTYPE svg PUBLIC "-//W3C//DTD SVG 1.1//EN" "http://www.w3.org/Graphics/SVG/1.1/DTD/svg11.dtd"><svg class="icon" width="200px" height="200.00px" viewBox="0 0 1024 1024" version="1.1" xmlns="http://www.w3.org/2000/svg"><path d="M264.45568 22.016L21.25568 21.888v85.312l79.872 0.064a555.136 555.136 0 0 0 0 638.848H21.19168v85.312h243.2V618.688H179.14368v89.6a469.632 469.632 0 0 1 0-563.2v89.6h85.312V22.016zM340.23168 240.512a96.448 96.448 0 0 0-35.264 131.776l171.968 297.92-110.144 37.568c-30.72 10.432-52.032 38.4-54.144 70.72l-4.672 72.96 278.144 114.88a117.632 117.632 0 0 0 103.68-6.848l261.824-151.168a117.632 117.632 0 0 0 56.448-125.44l-48.32-235.776a117.632 117.632 0 0 0-114.688-94.016l-179.072-0.832a117.632 117.632 0 0 0-59.328 15.744l-61.12 35.264-73.6-127.424a96.448 96.448 0 0 0-131.712-35.328z" /></svg>