<?xml version="1.0" standalone="no"?><!DOCTYPE svg PUBLIC "-//W3C//DTD SVG 1.1//EN" "http://www.w3.org/Graphics/SVG/1.1/DTD/svg11.dtd"><svg class="icon" width="200px" height="200.00px" viewBox="0 0 1024 1024" version="1.1" xmlns="http://www.w3.org/2000/svg"><path d="M264.47424 64.64l-243.2-0.128v85.376H101.14624a554.88 554.88 0 0 0 61.312 711.68l30.208 30.208 60.352-60.352-30.208-30.208A469.44 469.44 0 0 1 179.22624 187.776v89.6h85.312V64.64zM340.25024 283.2a96.448 96.448 0 0 0-35.264 131.712l171.968 297.984-110.144 37.568c-30.72 10.432-52.032 38.4-54.144 70.72l-4.672 72.96 278.144 114.816a117.632 117.632 0 0 0 103.68-6.848l261.824-151.104a117.632 117.632 0 0 0 56.448-125.44l-48.32-235.776a117.632 117.632 0 0 0-114.688-94.08l-179.072-0.768a117.632 117.632 0 0 0-59.328 15.744l-61.12 35.264-73.6-127.424a96.448 96.448 0 0 0-131.712-35.328z" /></svg>