<?xml version="1.0" standalone="no"?><!DOCTYPE svg PUBLIC "-//W3C//DTD SVG 1.1//EN" "http://www.w3.org/Graphics/SVG/1.1/DTD/svg11.dtd"><svg class="icon" width="200px" height="200.00px" viewBox="0 0 1024 1024" version="1.1" xmlns="http://www.w3.org/2000/svg"><path d="M512 21.312V167.04H426.624V21.312H512zM213.312 131.648l103.04 103.04L256 294.912l-103.04-103.04 60.352-60.288z m572.352 60.288l-103.04 103.04-60.352-60.352 103.04-103.04 60.352 60.352zM469.312 290.56a32.256 32.256 0 0 0-32.256 32.256v428.032l-191.936-42.688-4.288 6.4 146.176 190.08a32.32 32.32 0 0 0 25.6 12.672h302.272c13.888 0 26.24-8.96 30.656-22.08l76.032-228.288a32.32 32.32 0 0 0-14.336-38.08l-154.688-90.24a32.256 32.256 0 0 0-16.256-4.48H501.568V322.816a32.256 32.256 0 0 0-32.256-32.256z m-117.568 32.256a117.568 117.568 0 1 1 235.136 0v126.016h49.408c20.864 0 41.28 5.568 59.328 16l154.624 90.304a117.632 117.632 0 0 1 52.288 138.752l-76.032 228.288a117.632 117.632 0 0 1-111.616 80.448H412.608c-36.544 0-71.04-16.96-93.248-45.952l-183.424-238.528 40.128-60.288c18.368-27.52 51.84-40.96 84.096-33.792l91.52 20.352V322.816z" /></svg>