<?xml version="1.0" standalone="no"?><!DOCTYPE svg PUBLIC "-//W3C//DTD SVG 1.1//EN" "http://www.w3.org/Graphics/SVG/1.1/DTD/svg11.dtd"><svg class="icon" width="200px" height="200.00px" viewBox="0 0 1024 1024" version="1.1" xmlns="http://www.w3.org/2000/svg"><path d="M230.4 221.888a469.632 469.632 0 0 1 563.072 0h-89.6V307.2h212.736l0.128-243.2h-85.312l-0.064 79.872a555.136 555.136 0 0 0-638.848 0V64H107.2v243.2H320V221.888h-89.6z m164.032 100.928a117.568 117.568 0 1 1 235.136 0v126.08h49.408c20.8-0.064 41.28 5.504 59.264 16l154.688 90.24a117.632 117.632 0 0 1 52.288 138.752l-76.032 228.288a117.632 117.632 0 0 1-111.616 80.448H455.232c-36.48 0-70.976-16.96-93.248-45.952l-183.36-238.528 40.128-60.288c18.368-27.52 51.84-40.96 84.096-33.792l91.52 20.352V322.816zM512 290.56a32.256 32.256 0 0 0-32.256 32.256v428.032l-191.936-42.688-4.288 6.4 146.176 190.08a32.32 32.32 0 0 0 25.6 12.672h302.272c13.888 0 26.24-8.96 30.656-22.08l76.032-228.288a32.32 32.32 0 0 0-14.336-38.08l-154.688-90.24a32.256 32.256 0 0 0-16.256-4.48H544.192V322.816A32.256 32.256 0 0 0 512 290.56z" /></svg>