<?xml version="1.0" standalone="no"?><!DOCTYPE svg PUBLIC "-//W3C//DTD SVG 1.1//EN" "http://www.w3.org/Graphics/SVG/1.1/DTD/svg11.dtd"><svg class="icon" width="200px" height="200.00px" viewBox="0 0 1024 1024" version="1.1" xmlns="http://www.w3.org/2000/svg"><path d="M441.92 140.928a27.84 27.84 0 0 0-27.776 22.016L316.8 618.368l-51.968 51.904 115.264 115.264 65.152-65.152c15.36-15.296 23.872-36.032 23.872-57.6v-494.08c0-15.104-12.16-27.52-27.264-27.776z m-111.232 4.16A113.152 113.152 0 0 1 512 80.32a113.152 113.152 0 0 1 181.312 64.768l92.032 430.72 182.208 182.272-235.968 235.904L518.4 780.8a172.608 172.608 0 0 1-6.4-6.72c-1.984 2.304-4.096 4.48-6.272 6.72L292.352 993.92 56.448 758.08l182.208-182.208 92.032-430.72z m279.168 17.856a27.84 27.84 0 0 0-55.04 5.76v494.08c0 21.568 8.512 42.304 23.808 57.6l65.152 65.152 115.264-115.2-51.84-51.968-97.344-455.424z" /></svg>