<?xml version="1.0" standalone="no"?><!DOCTYPE svg PUBLIC "-//W3C//DTD SVG 1.1//EN" "http://www.w3.org/Graphics/SVG/1.1/DTD/svg11.dtd"><svg class="icon" width="200px" height="200.00px" viewBox="0 0 1024 1024" version="1.1" xmlns="http://www.w3.org/2000/svg"><path d="M420.931301 93.281739a109.628026 109.628026 0 0 1 217.208126 2.943893 109.628026 109.628026 0 0 1 134.715117 106.74813v35.390717a109.500031 109.500031 0 0 1 133.755151 106.876126V640.013919a341.299628 341.299628 0 0 1-341.299627 341.299628h-57.597913a341.299628 341.299628 0 0 1-330.164031-254.582771l-54.07804-206.07253A97.916451 97.916451 0 0 1 285.832199 424.981714V202.909765c0-60.541805 49.086221-109.628026 109.628026-109.628026h25.471076zM419.715345 202.909765a24.319118 24.319118 0 1 0-48.574239 0v373.298467c0 45.694344-61.117784 58.621875-80.637077 19.711286l-61.437773-106.428142a12.607543 12.607543 0 0 0-23.039164 9.535654l54.078039 206.07253A255.99072 255.99072 0 0 0 507.712155 896.00464h57.597913a255.99072 255.99072 0 0 0 255.99072-255.990721V345.176607a24.191123 24.191123 0 0 0-48.382246 0V512.018559h-85.372906V202.909765a24.319118 24.319118 0 1 0-48.574239 0V512.018559H553.66249V109.665145a24.319118 24.319118 0 0 0-48.638237 0V512.018559H419.779343V202.909765z" /></svg>