<?xml version="1.0" standalone="no"?><!DOCTYPE svg PUBLIC "-//W3C//DTD SVG 1.1//EN" "http://www.w3.org/Graphics/SVG/1.1/DTD/svg11.dtd"><svg class="icon" width="200px" height="200.00px" viewBox="0 0 1024 1024" version="1.1" xmlns="http://www.w3.org/2000/svg"><path d="M21.312 64.512l243.136 0.128v212.736H179.136v-89.6a469.44 469.44 0 0 0 43.648 613.44l30.208 30.208-60.352 60.288-30.208-30.144a554.88 554.88 0 0 1-61.312-711.68H21.248V64.512zM426.944 368.896a32.256 32.256 0 1 0-55.808 32.256l213.952 370.688-187.52 59.008-0.512 7.68 221.632 91.584c9.28 3.84 19.84 3.136 28.48-1.92l261.76-151.104a32.32 32.32 0 0 0 15.552-34.432L876.16 506.88a32.256 32.256 0 0 0-31.488-25.792L665.6 480.256a32.32 32.32 0 0 0-16.256 4.288L532.608 551.936l-105.6-183.04zM340.224 283.2a117.568 117.568 0 0 1 160.64 43.008l62.976 109.184 42.88-24.704c17.984-10.432 38.464-15.872 59.328-15.744l179.072 0.832c55.68 0.256 103.488 39.488 114.624 94.016l48.32 235.712a117.632 117.632 0 0 1-56.448 125.44l-261.76 151.168a117.632 117.632 0 0 1-103.744 6.848L308.032 894.08l4.608-72.32c2.112-33.024 24.32-61.312 55.936-71.296l89.472-28.16-160.832-278.464a117.568 117.568 0 0 1 43.008-160.64z" /></svg>