<?xml version="1.0" standalone="no"?><!DOCTYPE svg PUBLIC "-//W3C//DTD SVG 1.1//EN" "http://www.w3.org/Graphics/SVG/1.1/DTD/svg11.dtd"><svg class="icon" width="200px" height="200.00px" viewBox="0 0 1024 1024" version="1.1" xmlns="http://www.w3.org/2000/svg"><path d="M981.376 938.688V256H787.84A170.688 170.688 0 0 0 512 57.792 170.688 170.688 0 0 0 236.16 256H42.688v682.688h938.688z m-426.688-768a85.312 85.312 0 1 1 170.688 0 85.312 85.312 0 0 1-170.688 0z m60.352 170.624H896v256H128v-256h280.96l-128 128 60.416 60.352L512 359.04l170.688 170.688 60.352-60.352-128-128zM469.376 170.688a85.312 85.312 0 1 1-170.688 0 85.312 85.312 0 0 1 170.688 0z" /></svg>