<?xml version="1.0" standalone="no"?><!DOCTYPE svg PUBLIC "-//W3C//DTD SVG 1.1//EN" "http://www.w3.org/Graphics/SVG/1.1/DTD/svg11.dtd"><svg class="icon" width="200px" height="200.00px" viewBox="0 0 1024 1024" version="1.1" xmlns="http://www.w3.org/2000/svg"><path d="M85.312 768a149.312 149.312 0 1 0 199.104-140.8c13.184-30.144 43.264-51.2 78.208-51.2h298.688A170.688 170.688 0 0 0 832 405.312v-6.144a149.376 149.376 0 1 0-85.376 0v6.144c0 47.168-38.208 85.376-85.312 85.376H362.624c-31.04 0-60.16 8.32-85.312 22.784V399.168a149.376 149.376 0 1 0-85.312 0v225.664A149.376 149.376 0 0 0 85.312 768z" /></svg>