<?xml version="1.0" standalone="no"?><!DOCTYPE svg PUBLIC "-//W3C//DTD SVG 1.1//EN" "http://www.w3.org/Graphics/SVG/1.1/DTD/svg11.dtd"><svg class="icon" width="200px" height="200.00px" viewBox="0 0 1024 1024" version="1.1" xmlns="http://www.w3.org/2000/svg"><path d="M700.352 128L614.976 213.312H832v411.52a149.376 149.376 0 1 1-85.312 0V298.688H615.04L700.352 384 640 444.352 451.648 256 640 67.648l60.352 60.352zM234.624 192a64 64 0 1 0 0 128 64 64 0 0 0 0-128zM85.312 256a149.312 149.312 0 1 1 192 143.168v225.664a149.376 149.376 0 1 1-85.312 0V399.168A149.376 149.376 0 0 1 85.312 256z m149.312 448a64 64 0 1 0 0 128 64 64 0 0 0 0-128z m554.688 0a64 64 0 1 0 0 128 64 64 0 0 0 0-128z" /></svg>