<?xml version="1.0" standalone="no"?><!DOCTYPE svg PUBLIC "-//W3C//DTD SVG 1.1//EN" "http://www.w3.org/Graphics/SVG/1.1/DTD/svg11.dtd"><svg class="icon" width="200px" height="200.00px" viewBox="0 0 1024 1024" version="1.1" xmlns="http://www.w3.org/2000/svg"><path d="M128 234.688a192 192 0 0 1 192-192h576v938.624h-213.312V896h128v-213.312H704V597.312h106.688V128H320c-58.88 0-106.688 47.744-106.688 106.688v395.008A191.104 191.104 0 0 1 320 597.312h85.312v85.376H320A106.688 106.688 0 0 0 320 896h106.688v85.312H320a192 192 0 0 1-192-192V234.688z m213.312-21.376H426.88V298.88H341.312V213.312z m0 128H426.88V426.88H341.312V341.312z m213.376 282.24l166.976 160-59.008 61.632-65.28-62.528v198.656H512V782.72l-65.28 62.528-59.072-61.632 167.04-160z" /></svg>