<?xml version="1.0" standalone="no"?><!DOCTYPE svg PUBLIC "-//W3C//DTD SVG 1.1//EN" "http://www.w3.org/Graphics/SVG/1.1/DTD/svg11.dtd"><svg class="icon" width="200px" height="200.00px" viewBox="0 0 1024 1024" version="1.1" xmlns="http://www.w3.org/2000/svg"><path d="M298.688 42.688A170.688 170.688 0 0 0 128 213.312v597.376a170.688 170.688 0 0 0 170.688 170.624h128V896H320a106.688 106.688 0 0 1 0-213.312h62.656a192 192 0 0 1 344.064 0h83.968V896h-128v85.312H896V42.688H298.688z m42.624 170.624H426.88V298.88H341.312V213.312z m0 128H426.88V426.88H341.312V341.312zM721.664 783.552l-167.04-160-166.976 160 59.072 61.632L512 782.656v198.656h85.312V782.72l65.28 62.528 59.072-61.632z" /></svg>