<?xml version="1.0" standalone="no"?><!DOCTYPE svg PUBLIC "-//W3C//DTD SVG 1.1//EN" "http://www.w3.org/Graphics/SVG/1.1/DTD/svg11.dtd"><svg class="icon" width="200px" height="200.00px" viewBox="0 0 1024 1024" version="1.1" xmlns="http://www.w3.org/2000/svg"><path d="M512 128a383.168 383.168 0 0 0-281.728 643.008l28.928 31.36-62.72 57.856-28.928-31.36a468.48 468.48 0 1 1 688.832 0l-28.928 31.36-62.72-57.856 28.928-31.36A383.168 383.168 0 0 0 511.936 128z m0 192a192 192 0 0 0-141.184 322.176l28.928 31.36-62.72 57.856-28.928-31.36a277.312 277.312 0 1 1 407.744 0l-28.928 31.36-62.72-57.856 28.928-31.36A192 192 0 0 0 512 320zM426.624 512a85.312 85.312 0 1 1 170.688 0 85.312 85.312 0 0 1-170.688 0z m83.072 169.28l212.864 300.032H296.96l212.736-300.032z" /></svg>