<?xml version="1.0" standalone="no"?><!DOCTYPE svg PUBLIC "-//W3C//DTD SVG 1.1//EN" "http://www.w3.org/Graphics/SVG/1.1/DTD/svg11.dtd"><svg class="icon" width="200px" height="200.00px" viewBox="0 0 1024 1024" version="1.1" xmlns="http://www.w3.org/2000/svg"><path d="M512 981.312A469.312 469.312 0 1 0 512 42.688a469.312 469.312 0 0 0 0 938.624z m-7.36-473.984c18.368-22.656 41.536-41.6 60.16-56.256a85.312 85.312 0 1 0-133.248-95.552l-14.208 40.32-80.448-28.48 14.208-40.256A170.752 170.752 0 1 1 617.6 518.144c-18.432 14.464-34.88 28.352-46.72 43.008-11.776 14.4-16.192 26.048-16.192 36.16v53.376H469.376v-53.376c0-36.928 16.64-67.136 35.2-89.984z m-35.264 271.488v-85.504H554.88v85.504H469.376z" /></svg>