<?xml version="1.0" standalone="no"?><!DOCTYPE svg PUBLIC "-//W3C//DTD SVG 1.1//EN" "http://www.w3.org/Graphics/SVG/1.1/DTD/svg11.dtd"><svg class="icon" width="200px" height="200.00px" viewBox="0 0 1024 1024" version="1.1" xmlns="http://www.w3.org/2000/svg"><path d="M938.624 85.312v853.376H85.312V85.312h853.312z m-507.136 280.96a85.376 85.376 0 1 1 133.248 95.488c-18.56 14.656-41.728 33.6-60.16 56.192-18.56 22.912-35.264 53.12-35.264 90.048v53.312h85.312V608c0-10.176 4.48-21.76 16.128-36.16 11.904-14.72 28.352-28.544 46.72-43.072a170.688 170.688 0 1 0-266.496-190.976l-14.144 40.192 80.448 28.48 14.208-40.256zM554.816 704H469.312v85.504h85.504V704z" /></svg>