<?xml version="1.0" standalone="no"?><!DOCTYPE svg PUBLIC "-//W3C//DTD SVG 1.1//EN" "http://www.w3.org/Graphics/SVG/1.1/DTD/svg11.dtd"><svg class="icon" width="200px" height="200.00px" viewBox="0 0 1024 1024" version="1.1" xmlns="http://www.w3.org/2000/svg"><path d="M85.312 85.312h853.312v853.376H85.312V85.312z m85.312 85.376v682.624h682.688V170.688H170.624zM512 309.312c-37.12 0-68.736 23.68-80.512 56.96l-14.208 40.192-80.448-28.48 14.208-40.192a170.688 170.688 0 1 1 266.496 190.976c-18.432 14.528-34.816 28.416-46.72 43.072-11.776 14.4-16.192 25.984-16.192 36.16v53.312H469.312V608c0-36.992 16.64-67.136 35.264-90.048 18.432-22.592 41.6-41.6 60.16-56.192A85.312 85.312 0 0 0 512 309.312zM469.312 704h85.504v85.504H469.312V704z" /></svg>