<?xml version="1.0" standalone="no"?><!DOCTYPE svg PUBLIC "-//W3C//DTD SVG 1.1//EN" "http://www.w3.org/Graphics/SVG/1.1/DTD/svg11.dtd"><svg class="icon" width="200px" height="200.00px" viewBox="0 0 1024 1024" version="1.1" xmlns="http://www.w3.org/2000/svg"><path d="M512 128a384 384 0 1 0 0 768A384 384 0 0 0 512 128zM42.688 512a469.312 469.312 0 1 1 938.688 0A469.312 469.312 0 0 1 42.688 512z m469.376-213.312c-79.616 0-149.12 43.52-185.856 108.416l-20.992 37.12-74.24-42.048 20.992-37.12a298.56 298.56 0 0 1 260.096-151.68h42.624v85.312h-42.624zM298.88 475.008v88.576H213.504V475.008H298.88z" /></svg>