<?xml version="1.0" standalone="no"?><!DOCTYPE svg PUBLIC "-//W3C//DTD SVG 1.1//EN" "http://www.w3.org/Graphics/SVG/1.1/DTD/svg11.dtd"><svg class="icon" width="200px" height="200.00px" viewBox="0 0 1024 1024" version="1.1" xmlns="http://www.w3.org/2000/svg"><path d="M85.312 85.312h149.312v85.376h-64v64H85.312V85.312z m234.688 0h128v85.376H320V85.312z m213.312 0h128v85.376h-128V85.312z m213.312 0H896v149.376h-85.376v-64h-64V85.312zM170.624 320v128H85.312V320h85.312zM896 320v128h-85.376V320H896zM170.624 533.312v128H85.312v-128h85.312z m682.688 64v85.376h-110.336l170.688 170.624-60.352 60.352-170.688-170.624v110.272H597.312v-256h256zM170.624 746.688v64h64V896H85.312v-149.312h85.312z m149.376 64h128V896H320v-85.312z" /></svg>