<?xml version="1.0" standalone="no"?><!DOCTYPE svg PUBLIC "-//W3C//DTD SVG 1.1//EN" "http://www.w3.org/Graphics/SVG/1.1/DTD/svg11.dtd"><svg class="icon" width="200px" height="200.00px" viewBox="0 0 1024 1024" version="1.1" xmlns="http://www.w3.org/2000/svg"><path d="M512 149.312c-62.272 0-120.704 15.68-171.776 43.2A364.608 364.608 0 0 0 204.224 320h158.4v85.312H64V106.688h85.312V248.96a449.92 449.92 0 0 1 150.4-131.584A448 448 0 0 1 960 512v42.688h-85.312V512A362.688 362.688 0 0 0 512 149.312zM554.624 256v238.336l71.04 71.04-60.352 60.288-96-96V256h85.312zM146.88 507.776l4.48 42.432A362.752 362.752 0 0 0 512 874.688h42.624V960H512a448 448 0 0 1-445.568-400.896l-4.48-42.432 84.928-8.896zM832 597.504v48.64c22.72 6.784 43.2 18.88 59.968 34.752l42.24-24.32 42.624 73.856-42.24 24.32a149.824 149.824 0 0 1 0 69.312l42.24 24.32-42.624 73.984-42.368-24.448a149.184 149.184 0 0 1-59.84 34.56v48.832h-85.376v-48.832a149.184 149.184 0 0 1-59.84-34.56l-42.304 24.448-42.688-73.92 42.24-24.384a149.824 149.824 0 0 1 0-69.248l-42.24-24.32 42.688-73.984 42.176 24.384a149.12 149.12 0 0 1 60.032-34.688v-48.64H832z m-42.688 127.808a64 64 0 1 0 0 128 64 64 0 0 0 0-128z" /></svg>