<?xml version="1.0" standalone="no"?><!DOCTYPE svg PUBLIC "-//W3C//DTD SVG 1.1//EN" "http://www.w3.org/Graphics/SVG/1.1/DTD/svg11.dtd"><svg class="icon" width="200px" height="200.00px" viewBox="0 0 1024 1024" version="1.1" xmlns="http://www.w3.org/2000/svg"><path d="M554.688 0H512v85.312h42.688A298.688 298.688 0 0 1 853.376 384v42.688h85.312V384a384 384 0 0 0-384-384zM426.688 85.312h-256V1024h682.688V512H768v426.688H256v-768h170.688V85.312zM554.688 170.688H512V256h42.688a128 128 0 0 1 128 128v42.688H768V384a213.312 213.312 0 0 0-213.312-213.312zM597.504 341.312H512V426.88h85.504V341.312zM554.88 768H469.376v85.504H554.88V768z" /></svg>