<?xml version="1.0" standalone="no"?><!DOCTYPE svg PUBLIC "-//W3C//DTD SVG 1.1//EN" "http://www.w3.org/Graphics/SVG/1.1/DTD/svg11.dtd"><svg class="icon" width="200px" height="200.00px" viewBox="0 0 1024 1024" version="1.1" xmlns="http://www.w3.org/2000/svg"><path d="M170.688 85.312h682.688v128A341.248 341.248 0 0 1 677.376 512a341.248 341.248 0 0 1 176 298.688v128H170.688v-128A341.248 341.248 0 0 1 346.688 512a341.248 341.248 0 0 1-176-298.688v-128z m597.312 128v-42.624H256v42.624c0 38.08 8.32 74.24 23.232 106.688h465.6A255.04 255.04 0 0 0 768 213.312zM469.44 558.208A256.064 256.064 0 0 0 256 810.688v42.624h46.976a213.568 213.568 0 0 1 166.464-166.4V558.208z m85.12 128.704a213.568 213.568 0 0 1 166.528 166.4H768v-42.624a256.064 256.064 0 0 0-213.376-252.48v128.704z" /></svg>