<?xml version="1.0" standalone="no"?><!DOCTYPE svg PUBLIC "-//W3C//DTD SVG 1.1//EN" "http://www.w3.org/Graphics/SVG/1.1/DTD/svg11.dtd"><svg class="icon" width="200px" height="200.00px" viewBox="0 0 1024 1024" version="1.1" xmlns="http://www.w3.org/2000/svg"><path d="M170.688 85.312h682.688v128A341.248 341.248 0 0 1 677.376 512a341.248 341.248 0 0 1 176 298.688v128H170.688v-128A341.248 341.248 0 0 1 346.688 512a341.248 341.248 0 0 1-176-298.688v-128zM512 554.752a256 256 0 0 0-256 256v42.688h512v-42.688a256 256 0 0 0-256-256z m-256-384v42.688a256 256 0 0 0 512 0v-42.688H256z" /></svg>