<svg width="24" height="24" viewBox="0 0 24 24" xmlns="http://www.w3.org/2000/svg">
  <path
    d="M10.3199 14.8499V20.8499C10.3199 21.0659 10.3959 21.2499 10.5479 21.4019C10.6999 21.5539 10.8839 21.6299 11.0999 21.6299H20.8499C21.0659 21.6299 21.2499 21.5539 21.4019 21.4019C21.5539 21.2499 21.6299 21.0659 21.6299 20.8499V11.0999C21.6299 10.8839 21.5539 10.6999 21.4019 10.5479C21.2499 10.3959 21.0659 10.3199 20.8499 10.3199H14.8499V8.87988H20.8499C21.4635 8.87988 21.9867 9.09588 22.4195 9.52788C22.8531 9.96068 23.0699 10.4847 23.0699 11.0999V20.8499C23.0699 21.4635 22.8539 21.9867 22.4219 22.4195C21.9891 22.8531 21.4651 23.0699 20.8499 23.0699H11.0999C10.4863 23.0699 9.96308 22.8539 9.53028 22.4219C9.09668 21.9891 8.87988 21.4651 8.87988 20.8499V14.8499H10.3199Z"
    fill-opacity="0.65" />
  <path
    d="M3.6002 1.2002H12.0002C13.6002 1.2002 14.4002 2.0002 14.4002 3.6002V12.0002C14.4002 13.6002 13.6002 14.4002 12.0002 14.4002H3.6002C2.0002 14.4002 1.2002 13.6002 1.2002 12.0002V3.6002C1.2002 2.0002 2.0002 1.2002 3.6002 1.2002Z"
    fill-opacity="0.65" />
  <path
    d="M13.2002 17.7073H14.1902V17.1541H15.6182V19.8001H16.6658V17.1541H18.1226V17.6149H19.2002V14.1073H16.6658V13.3393C16.6658 13.1125 16.6946 12.9181 16.7534 12.7537C16.769 12.7251 16.7788 12.6937 16.7822 12.6613C16.7822 12.6409 16.715 12.6205 16.5782 12.6001H15.587V14.1073H13.2002V17.7073ZM14.1902 14.9701H15.6182V16.3225H14.1902V14.9701ZM18.1226 16.3225H16.6658V14.9701H18.1226V16.3237V16.3225Z"
    fill-opacity="0.65" />
  <path
    d="M5.7278 10.8001L6.2918 9.2809H9.2282L9.7922 10.8001H11.4002L8.7854 3.6001H6.8942L4.2002 10.8001H5.729H5.7278ZM6.6938 8.0761L7.7798 5.0017H7.8206L8.8262 8.0749H6.6938V8.0761Z"
    fill="white" />
  <path
    d="M21 6.8999H19.5C19.5 6.10425 19.1839 5.34119 18.6213 4.77858C18.0587 4.21597 17.2956 3.8999 16.5 3.8999V2.3999C17.6935 2.3999 18.8381 2.87401 19.682 3.71792C20.5259 4.56184 21 5.70643 21 6.8999ZM3 15.8999H4.5C4.5 16.6956 4.81607 17.4586 5.37868 18.0212C5.94129 18.5838 6.70435 18.8999 7.5 18.8999V20.3999C6.30653 20.3999 5.16193 19.9258 4.31802 19.0819C3.47411 18.238 3 17.0934 3 15.8999Z"
    fill-opacity="0.65" />
</svg>