<svg width="24" height="24" viewBox="0 0 24 24" xmlns="http://www.w3.org/2000/svg">
  <path
    d="M10.3199 14.8499V20.8499C10.3199 21.0659 10.3959 21.2499 10.5479 21.4019C10.6999 21.5539 10.8839 21.6299 11.0999 21.6299H20.8499C21.0659 21.6299 21.2499 21.5539 21.4019 21.4019C21.5539 21.2499 21.6299 21.0659 21.6299 20.8499V11.0999C21.6299 10.8839 21.5539 10.6999 21.4019 10.5479C21.2499 10.3959 21.0659 10.3199 20.8499 10.3199H14.8499V8.87988H20.8499C21.4635 8.87988 21.9867 9.09588 22.4195 9.52788C22.8531 9.96068 23.0699 10.4847 23.0699 11.0999V20.8499C23.0699 21.4635 22.8539 21.9867 22.4219 22.4195C21.9891 22.8531 21.4651 23.0699 20.8499 23.0699H11.0999C10.4863 23.0699 9.96308 22.8539 9.53028 22.4219C9.09668 21.9891 8.87988 21.4651 8.87988 20.8499V14.8499H10.3199Z"
    fill-opacity="0.65" />
  <path
    d="M3.6002 1.2002H12.0002C13.6002 1.2002 14.4002 2.0002 14.4002 3.6002V12.0002C14.4002 13.6002 13.6002 14.4002 12.0002 14.4002H3.6002C2.0002 14.4002 1.2002 13.6002 1.2002 12.0002V3.6002C1.2002 2.0002 2.0002 1.2002 3.6002 1.2002Z"
    fill-opacity="0.65" />
  <path
    d="M21 6.8999H19.5C19.5 6.10425 19.1839 5.34119 18.6213 4.77858C18.0587 4.21597 17.2956 3.8999 16.5 3.8999V2.3999C17.6935 2.3999 18.8381 2.87401 19.682 3.71792C20.5259 4.56184 21 5.70643 21 6.8999ZM3 15.8999H4.5C4.5 16.6956 4.81607 17.4586 5.37868 18.0212C5.94129 18.5838 6.70435 18.8999 7.5 18.8999V20.3999C6.30653 20.3999 5.16193 19.9258 4.31802 19.0819C3.47411 18.238 3 17.0934 3 15.8999Z"
    fill-opacity="0.65" />
  <path
    d="M4.68018 9.40764H5.70978V8.81756H7.19489V11.64H8.2844V8.81756H9.79947V9.30908H10.9202V5.56764H8.2844V4.74844C8.2844 4.50652 8.31435 4.29916 8.3755 4.1238C8.39175 4.09331 8.40193 4.0598 8.40545 4.02524C8.40545 4.00348 8.33557 3.98172 8.1933 3.95996H7.16245V5.56764H4.68018V9.40764ZM5.70978 6.48796H7.19489V7.93052H5.70978V6.48796ZM9.79947 7.93052H8.2844V6.48796H9.79947V7.9318V7.93052Z"
    fill="white" />
  <path
    d="M14.404 19.3201L14.8928 18.0034H17.4377L17.9265 19.3201H19.3201L17.0539 13.0801H15.4149L13.0801 19.3201H14.405H14.404ZM15.2412 16.9593L16.1824 14.2948H16.2178L17.0893 16.9582H15.2412V16.9593Z"
    fill-opacity="0.65" />
</svg>