<?xml version="1.0" standalone="no"?><!DOCTYPE svg PUBLIC "-//W3C//DTD SVG 1.1//EN" "http://www.w3.org/Graphics/SVG/1.1/DTD/svg11.dtd"><svg class="icon" width="200px" height="200.00px" viewBox="0 0 1024 1024" version="1.1" xmlns="http://www.w3.org/2000/svg"><path d="M85.312 85.312h853.312v384h-85.312V170.688H170.624v408.96L384 366.336l167.04 167.04-60.416 60.288L384 487.04l-213.376 213.376v152.96h298.688v85.376h-384V85.312z m586.56 224a42.688 42.688 0 1 0 0 85.376 42.688 42.688 0 0 0 0-85.376z m-128 42.688a128 128 0 1 1 256 0 128 128 0 0 1-256 0z m209.28 266.688a134.592 134.592 0 1 0 0 269.12 134.592 134.592 0 0 0 0-269.12z m-219.84 134.528a219.904 219.904 0 1 1 402.624 122.368L1020.352 960l-60.416 60.288-84.288-84.48a219.904 219.904 0 0 1-342.336-182.656z" /></svg>