<?xml version="1.0" standalone="no"?><!DOCTYPE svg PUBLIC "-//W3C//DTD SVG 1.1//EN" "http://www.w3.org/Graphics/SVG/1.1/DTD/svg11.dtd"><svg class="icon" width="200px" height="200.00px" viewBox="0 0 1024 1024" version="1.1" xmlns="http://www.w3.org/2000/svg"><path d="M938.624 85.312H85.312v853.376h479.232a276.16 276.16 0 0 1-31.232-128c0-81.088 34.816-154.048 90.24-204.8L384 366.336 170.624 579.648v-408.96h682.688v365.888c30.336 4.672 59.072 14.336 85.312 27.968V85.312zM682.624 224a117.312 117.312 0 1 0 0 234.688 117.312 117.312 0 0 0 0-234.688zM768 1024h85.312v-170.688H1024V768h-170.688V597.312H768V768H597.312v85.312H768V1024z" /></svg>