<?xml version="1.0" standalone="no"?><!DOCTYPE svg PUBLIC "-//W3C//DTD SVG 1.1//EN" "http://www.w3.org/Graphics/SVG/1.1/DTD/svg11.dtd"><svg class="icon" width="200px" height="200.00px" viewBox="0 0 1024 1024" version="1.1" xmlns="http://www.w3.org/2000/svg"><path d="M938.624 85.312H85.312v853.376h448.256a286.784 286.784 0 0 1-64.256-181.376c0-84.032 35.968-159.616 93.44-212.288L384 366.336 170.624 579.648v-408.96h682.688v315.008c31.296 11.072 60.096 27.392 85.312 47.872V85.312zM682.624 224a117.312 117.312 0 1 0 0 234.688 117.312 117.312 0 0 0 0-234.688zM753.216 533.312a219.904 219.904 0 1 0 122.432 402.56l84.288 84.48 60.416-60.288-84.416-84.48a219.904 219.904 0 0 0-182.72-342.208zM618.624 753.28a134.592 134.592 0 1 1 269.12 0 134.592 134.592 0 0 1-269.12 0z" /></svg>