<?xml version="1.0" standalone="no"?><!DOCTYPE svg PUBLIC "-//W3C//DTD SVG 1.1//EN" "http://www.w3.org/Graphics/SVG/1.1/DTD/svg11.dtd"><svg class="icon" width="200px" height="200.00px" viewBox="0 0 1024 1024" version="1.1" xmlns="http://www.w3.org/2000/svg"><path d="M85.312 85.312h853.312v341.376h-85.312v-256H170.624v408.96L384 366.336l252.288 252.352-60.288 60.288-192-192-213.376 213.376v152.96h256v85.376H85.312V85.312z m586.56 224a42.688 42.688 0 1 0 0 85.376 42.688 42.688 0 0 0 0-85.376z m-128 42.688a128 128 0 1 1 256 0 128 128 0 0 1-256 0z m300.352 163.648l176.128 176.128-310.912 310.912H533.376l-0.064-176.128 310.912-310.912z m-39.36 160l55.424 55.424 39.36-39.296-55.424-55.424-39.36 39.296z m-4.928 115.84l-55.424-55.488-125.888 125.888v55.424h55.488l125.824-125.888z" /></svg>