<?xml version="1.0" standalone="no"?><!DOCTYPE svg PUBLIC "-//W3C//DTD SVG 1.1//EN" "http://www.w3.org/Graphics/SVG/1.1/DTD/svg11.dtd"><svg class="icon" width="200px" height="200.00px" viewBox="0 0 1024 1024" version="1.1" xmlns="http://www.w3.org/2000/svg"><path d="M999.04 85.312l-60.352 60.352v792.96H145.728l-60.416 60.416-60.288-60.352L938.688 24.96l60.352 60.288z m-768 768h519.296L490.688 593.664 231.04 853.312z m320-320l302.272 302.336V231.04l-55.104 55.104a128 128 0 0 1-170.688 170.688L551.04 533.312z m205.632-448.064l-101.12 85.504-484.8-0.064v510.4l-85.504 72.32 0.192-668.096 554.496 0.128m116.736-0.192L640 85.312l116.672-0.064zM640 85.312l-92.544 0.128L640 85.312z" /></svg>