<?xml version="1.0" standalone="no"?><!DOCTYPE svg PUBLIC "-//W3C//DTD SVG 1.1//EN" "http://www.w3.org/Graphics/SVG/1.1/DTD/svg11.dtd"><svg class="icon" width="200px" height="200.00px" viewBox="0 0 1024 1024" version="1.1" xmlns="http://www.w3.org/2000/svg"><path d="M628.096 966.848a469.696 469.696 0 0 0 351.36-412.16h-212.608a811.136 811.136 0 0 1-138.752 412.16zM979.392 469.312A469.696 469.696 0 0 0 627.904 57.088a811.2 811.2 0 0 1 138.944 412.224h212.544zM396.096 57.088A469.696 469.696 0 0 0 44.544 469.312h212.544A811.136 811.136 0 0 1 396.16 57.088zM44.544 554.688a469.696 469.696 0 0 0 351.36 412.16 811.136 811.136 0 0 1-138.816-412.16H44.608zM512 979.712C413.44 860.928 351.936 714.24 342.528 554.688h338.88C672.064 714.24 610.432 860.928 512 979.712zM512 44.544c98.368 118.72 160 265.28 169.408 424.768H342.592C351.936 309.824 413.632 163.264 512 44.544z" /></svg>