<?xml version="1.0" standalone="no"?><!DOCTYPE svg PUBLIC "-//W3C//DTD SVG 1.1//EN" "http://www.w3.org/Graphics/SVG/1.1/DTD/svg11.dtd"><svg class="icon" width="200px" height="200.00px" viewBox="0 0 1024 1024" version="1.1" xmlns="http://www.w3.org/2000/svg"><path d="M130.368 469.312A384.384 384.384 0 0 1 398.08 145.152a721.28 721.28 0 0 0-98.24 324.16h-169.6zM468.992 44.608a469.376 469.376 0 0 0 0 934.784l0.384 0.384 18.112 0.896a488.256 488.256 0 0 0 49.024 0l18.176-0.896 0.32-0.384a469.376 469.376 0 0 0 0-934.784L554.688 44.16 536.512 43.264a475.84 475.84 0 0 0-48.96 0L469.376 44.16l-0.384 0.448zM512.064 128a636.48 636.48 0 0 1 126.528 341.312H385.408A636.48 636.48 0 0 1 512 128h0.064zM299.904 554.688a721.28 721.28 0 0 0 98.24 324.16 384.384 384.384 0 0 1-267.776-324.16h169.6zM512 896a636.48 636.48 0 0 1-126.592-341.312h253.184A636.48 636.48 0 0 1 512.064 896H512z m113.92-17.152a721.408 721.408 0 0 0 98.176-324.16h169.6a384.384 384.384 0 0 1-267.84 324.16z m98.176-409.536A721.408 721.408 0 0 0 625.92 145.152a384.384 384.384 0 0 1 267.84 324.16h-169.6z" /></svg>