<?xml version="1.0" standalone="no"?><!DOCTYPE svg PUBLIC "-//W3C//DTD SVG 1.1//EN" "http://www.w3.org/Graphics/SVG/1.1/DTD/svg11.dtd"><svg class="icon" width="200px" height="200.00px" viewBox="0 0 1024 1024" version="1.1" xmlns="http://www.w3.org/2000/svg"><path d="M956.352 896L128 67.648 67.712 128 128 188.352V896h707.712l60.288 60.352 60.352-60.352z m-206.016-85.312h-536.96v-536.96L451.712 512l-21.44 21.44 60.48 60.416 21.376-21.376 238.208 238.208z m145.92-67.456L896 618.688v-43.136h-85.312v82.048l85.568 85.632zM896 128H554.688v85.312h195.648l-192 192 60.352 60.352 192-192v195.648H896V128z m-447.552 0.064h-43.072l-124.544-0.256 85.568 85.632h82.048V128z" /></svg>