<?xml version="1.0" standalone="no"?><!DOCTYPE svg PUBLIC "-//W3C//DTD SVG 1.1//EN" "http://www.w3.org/Graphics/SVG/1.1/DTD/svg11.dtd"><svg class="icon" width="200px" height="200.00px" viewBox="0 0 1024 1024" version="1.1" xmlns="http://www.w3.org/2000/svg"><path d="M981.376 128H42.688v768h938.688V128zM213.12 320h85.504v85.504H213.184V320z m597.504 320v85.312H213.376V640h597.312zM469.376 320v85.504H383.872V320h85.504z m85.12 0H640v85.504H554.496V320z m256.192 0v85.504h-85.504V320h85.504zM213.184 448h85.504v85.504H213.184V448z m256.192 0v85.504H383.872V448h85.504z m85.12 0H640v85.504H554.496V448z m256.192 0v85.504h-85.504V448h85.504z" /></svg>