<?xml version="1.0" standalone="no"?><!DOCTYPE svg PUBLIC "-//W3C//DTD SVG 1.1//EN" "http://www.w3.org/Graphics/SVG/1.1/DTD/svg11.dtd"><svg class="icon" width="200px" height="200.00px" viewBox="0 0 1024 1024" version="1.1" xmlns="http://www.w3.org/2000/svg"><path d="M42.688 128h938.688v768H42.688V128zM128 213.312v597.376h768V213.312H128zM213.184 320h85.504v85.504H213.184V320z m170.688 0h85.504v85.504H383.872V320z m170.624 0H640v85.504H554.496V320z m170.688 0h85.504v85.504h-85.504V320z m-512 128h85.504v85.504H213.184V448z m170.688 0h85.504v85.504H383.872V448z m170.624 0H640v85.504H554.496V448z m170.688 0h85.504v85.504h-85.504V448z m-511.808 192h597.312v85.312H213.376V640z" /></svg>