<?xml version="1.0" standalone="no"?><!DOCTYPE svg PUBLIC "-//W3C//DTD SVG 1.1//EN" "http://www.w3.org/Graphics/SVG/1.1/DTD/svg11.dtd"><svg class="icon" width="200px" height="200.00px" viewBox="0 0 1024 1024" version="1.1" xmlns="http://www.w3.org/2000/svg"><path d="M512 896A384 384 0 1 0 512 128a384 384 0 0 0 0 768z m469.376-384A469.312 469.312 0 1 1 42.688 512a469.312 469.312 0 0 1 938.688 0z m-362.688 298.688H405.376v-85.376h213.312v85.376z m31.36-128H373.952l-9.984-28.544c-18.56-52.736-41.728-102.272-63.488-147.392a231.424 231.424 0 0 1-23.104-101.44A234.88 234.88 0 0 1 512 170.688a234.88 234.88 0 0 1 234.688 234.624c0 35.392-7.68 69.632-23.104 101.44-21.76 45.12-44.928 94.72-63.488 147.456l-10.048 28.48z m-59.904-85.376c17.92-46.592 38.272-89.792 56.576-127.68 9.728-20.032 14.656-41.6 14.656-64.32A149.568 149.568 0 0 0 512 256a149.568 149.568 0 0 0-149.312 149.312c0 22.72 4.928 44.16 14.656 64.32 18.24 37.888 38.592 81.088 56.576 127.68h156.16z" /></svg>