<?xml version="1.0" standalone="no"?><!DOCTYPE svg PUBLIC "-//W3C//DTD SVG 1.1//EN" "http://www.w3.org/Graphics/SVG/1.1/DTD/svg11.dtd"><svg class="icon" width="200px" height="200.00px" viewBox="0 0 1024 1024" version="1.1" xmlns="http://www.w3.org/2000/svg"><path d="M512 85.312a264.832 264.832 0 0 0-264.512 264.576c0 39.04 7.168 68.736 26.88 116.16 6.912 16.448 17.28 38.784 29.76 65.408l19.328 41.6c16 34.752 33.024 72.96 47.36 109.632h282.816c14.528-36.416 31.616-74.624 47.488-109.44l16.64-36.288c13.376-28.864 24.576-53.312 31.808-70.784 19.648-47.616 26.944-77.248 26.944-116.288A264.96 264.96 0 0 0 512 85.312zM162.112 349.888A350.144 350.144 0 0 1 512 0a350.272 350.272 0 0 1 349.824 349.888c0 53.888-11.136 94.976-33.344 148.864-7.936 19.2-20.352 46.08-34.048 75.84l-15.68 34.112a2085.12 2085.12 0 0 0-55.936 131.52l-10.304 27.776H311.04l-10.112-28.416c-14.4-40.704-35.008-87.296-55.04-130.88a8096 8096 0 0 0-18.048-38.848 2136.192 2136.192 0 0 1-32.192-71.04c-22.464-54.016-33.536-95.04-33.536-148.928zM320 810.688h384V896H320v-85.312z m85.312 128h213.376V1024H405.312v-85.312z" /></svg>