<?xml version="1.0" standalone="no"?><!DOCTYPE svg PUBLIC "-//W3C//DTD SVG 1.1//EN" "http://www.w3.org/Graphics/SVG/1.1/DTD/svg11.dtd"><svg class="icon" width="200px" height="200.00px" viewBox="0 0 1024 1024" version="1.1" xmlns="http://www.w3.org/2000/svg"><path d="M512 39.36l268.8 107.52-31.68 79.232-23.808-9.472v210.048h85.376V512h-81.344c6.976 81.28 22.208 168 37.76 241.92a3041.344 3041.344 0 0 0 41.024 169.856l0.64 2.432 0.192 0.576v0.128l15.616 54.4H564.032l-42.688-170.624h-18.688l-42.688 170.624h-260.48l15.488-54.4v-0.128l0.192-0.64 0.64-2.368a1626.752 1626.752 0 0 0 12.16-45.696c7.936-30.848 18.432-74.24 28.928-124.16 15.552-73.92 30.784-160.64 37.76-241.92h-81.28V426.688h85.312V216.64l-23.808 9.472L243.2 146.88 512 39.36zM384 182.464v244.224h256V182.4l-128-51.2-128 51.2zM643.712 512H380.288c-7.168 88.96-23.68 182.592-39.872 259.456A3125.312 3125.312 0 0 1 311.488 896h81.92l42.624-170.688h151.936L630.656 896h81.856a3132.544 3132.544 0 0 1-28.928-124.544c-16.192-76.864-32.704-170.432-39.872-259.456zM469.312 255.936H554.88v85.504H469.312V255.936z" /></svg>