<?xml version="1.0" standalone="no"?><!DOCTYPE svg PUBLIC "-//W3C//DTD SVG 1.1//EN" "http://www.w3.org/Graphics/SVG/1.1/DTD/svg11.dtd"><svg class="icon" width="200px" height="200.00px" viewBox="0 0 1024 1024" version="1.1" xmlns="http://www.w3.org/2000/svg"><path d="M981.376 512A469.312 469.312 0 1 1 42.688 512a469.312 469.312 0 0 1 938.688 0zM512 192C395.584 192 300.8 286.72 300.8 403.2c0 32 7.04 62.592 20.8 91.136 24.064 49.856 50.56 106.368 71.808 167.04h237.248c21.312-60.672 47.744-117.184 71.808-167.04 13.824-28.544 20.736-59.2 20.736-91.136C723.2 286.72 628.48 192 512 192z m-106.624 533.312v85.376h213.312v-85.376H405.376z" /></svg>