<?xml version="1.0" standalone="no"?><!DOCTYPE svg PUBLIC "-//W3C//DTD SVG 1.1//EN" "http://www.w3.org/Graphics/SVG/1.1/DTD/svg11.dtd"><svg class="icon" width="200px" height="200.00px" viewBox="0 0 1024 1024" version="1.1" xmlns="http://www.w3.org/2000/svg"><path d="M672 1012.8h-320v-83.2h320v83.2zM535.104 357.568L626.176 448.64 421.12 585.792 490.368 448.64 399.36 357.568l203.52-135.68-67.776 135.68zM512 11.2a352 352 0 0 1 352 352v20.928c0 49.344-11.52 98.048-33.536 142.208l-158.464 316.8h-320l-158.464-316.8A317.952 317.952 0 0 1 160 384.128v-20.928A352 352 0 0 1 512 11.2z m0 83.2a268.8 268.8 0 0 0-268.8 268.8v20.928c0 36.48 8.512 72.384 24.832 104.96l135.424 270.912h217.088l135.488-270.848a234.88 234.88 0 0 0 24.768-105.024v-20.928a268.8 268.8 0 0 0-268.8-268.8z" /></svg>