<?xml version="1.0" standalone="no"?><!DOCTYPE svg PUBLIC "-//W3C//DTD SVG 1.1//EN" "http://www.w3.org/Graphics/SVG/1.1/DTD/svg11.dtd"><svg class="icon" width="200px" height="200.00px" viewBox="0 0 1024 1024" version="1.1" xmlns="http://www.w3.org/2000/svg"><path d="M384 85.376V42.688H298.688v170.624H256v85.312h42.688v128c0 40.192-3.2 83.84-8.32 128H213.312V640H278.4a2555.904 2555.904 0 0 1-21.44 113.92 3038.016 3038.016 0 0 1-38.4 160.32c-4.352 16-8.96 31.872-13.504 47.808-1.92 6.4-3.712 12.8-5.568 19.264h239.232l42.688-170.688h61.376l42.624 170.688h239.232l-5.568-19.264c-4.544-15.936-9.152-31.872-13.44-47.808a3038.144 3038.144 0 0 1-38.4-160.32A2561.472 2561.472 0 0 1 745.6 640h65.024V554.624h-77.056c-5.12-44.16-8.32-87.808-8.32-128v-128H768V213.312h-42.688V42.688H640v42.688H384z m0 128v-42.624h256v42.56H384z m170.88 170.56v85.44H469.376V384H554.88z" /></svg>