<?xml version="1.0" standalone="no"?><!DOCTYPE svg PUBLIC "-//W3C//DTD SVG 1.1//EN" "http://www.w3.org/Graphics/SVG/1.1/DTD/svg11.dtd"><svg class="icon" width="200px" height="200.00px" viewBox="0 0 1024 1024" version="1.1" xmlns="http://www.w3.org/2000/svg"><path d="M384 85.312V42.688H298.688v384c0 102.08-20.608 226.56-41.792 327.168a3038.016 3038.016 0 0 1-41.024 169.92l-0.64 2.432-0.192 0.576-0.064 0.128-15.552 54.4h239.232l42.688-170.688h61.376l42.624 170.688h239.232l-15.552-54.4v-0.128l-0.192-0.64-0.64-2.368-2.688-9.6a3038.144 3038.144 0 0 1-38.4-160.32c-21.184-100.608-41.792-225.088-41.792-327.168v-384H640v42.624H384z m256 85.376v42.624H384v-42.688h256zM554.88 383.872v85.44H469.376V384H554.88z" /></svg>