<?xml version="1.0" standalone="no"?><!DOCTYPE svg PUBLIC "-//W3C//DTD SVG 1.1//EN" "http://www.w3.org/Graphics/SVG/1.1/DTD/svg11.dtd"><svg class="icon" width="200px" height="200.00px" viewBox="0 0 1024 1024" version="1.1" xmlns="http://www.w3.org/2000/svg"><path d="M780.8 146.88L512 39.36l-268.8 107.52 31.68 79.232 23.808-9.472v210.048H213.312V512h81.344c-6.976 81.28-22.208 168-37.76 241.92a3041.216 3041.216 0 0 1-41.024 169.856l-0.64 2.432-0.192 0.576-0.064 0.128-15.552 54.4h239.232l42.688-170.624h61.376l42.624 170.624h239.232l-15.552-54.4v-0.128l-0.192-0.64-0.64-2.368-2.688-9.6a3041.344 3041.344 0 0 1-38.4-160.384c-15.552-73.792-30.784-160.512-37.76-241.792h81.28V426.688h-85.312V216.64l23.808 9.472 31.68-79.232zM554.88 256v85.504H469.376V255.936H554.88z" /></svg>