<?xml version="1.0" standalone="no"?><!DOCTYPE svg PUBLIC "-//W3C//DTD SVG 1.1//EN" "http://www.w3.org/Graphics/SVG/1.1/DTD/svg11.dtd"><svg class="icon" width="200px" height="200.00px" viewBox="0 0 1024 1024" version="1.1" xmlns="http://www.w3.org/2000/svg"><path d="M243.52 140.48l-30.144-30.144-30.208 30.144-97.792 97.856-30.208 30.144 60.352 60.352 30.208-30.144 24.96-24.96v476.544l-24.96-24.96-30.208-30.144-60.352 60.352 30.208 30.144 97.792 97.856 30.208 30.144 30.144-30.144 97.856-97.856 30.144-30.144-60.352-60.352-30.144 30.144-24.96 24.96V273.792l24.96 24.96 30.144 30.144 60.352-60.352-30.144-30.144-97.856-97.856z m311.168 30.208H512V256h426.688V170.688h-384zM469.376 469.312h-42.688v85.376h512V469.312H469.376zM512 768h426.688v85.312H512V768z" /></svg>