<?xml version="1.0" standalone="no"?><!DOCTYPE svg PUBLIC "-//W3C//DTD SVG 1.1//EN" "http://www.w3.org/Graphics/SVG/1.1/DTD/svg11.dtd"><svg class="icon" width="200px" height="200.00px" viewBox="0 0 1024 1024" version="1.1" xmlns="http://www.w3.org/2000/svg"><path d="M567.168 168.96a203.52 203.52 0 0 1 287.872 287.872l-129.28 129.28-60.352-60.288 129.28-129.28a118.272 118.272 0 0 0-167.168-167.296l-129.28 129.344-60.416-60.352 129.344-129.28z m90.432 257.728l-231.04 231.04-60.288-60.416 231.04-231.04 60.288 60.416zM358.592 498.176l-129.28 129.28a118.272 118.272 0 0 0 167.168 167.296l129.28-129.28 60.416 60.288-129.28 129.28a203.52 203.52 0 0 1-288-287.872l129.344-129.28 60.352 60.288z" /></svg>