<?xml version="1.0" standalone="no"?><!DOCTYPE svg PUBLIC "-//W3C//DTD SVG 1.1//EN" "http://www.w3.org/Graphics/SVG/1.1/DTD/svg11.dtd"><svg class="icon" width="200px" height="200.00px" viewBox="0 0 1024 1024" version="1.1" xmlns="http://www.w3.org/2000/svg"><path d="M843.84 210.304a149.312 149.312 0 0 0-211.2 0L542.208 300.8l-60.288-60.352 90.496-90.496a234.688 234.688 0 0 1 331.84 331.904L768.448 617.6a234.688 234.688 0 0 1-331.84 0L371.2 552.192l60.352-60.352 65.344 65.408a149.312 149.312 0 0 0 211.2 0l135.744-135.744a149.312 149.312 0 0 0 0-211.2z m-316.8 256.448a149.312 149.312 0 0 0-211.2 0l-135.68 135.744a149.312 149.312 0 0 0 211.2 211.2L481.792 723.2l60.288 60.352-90.496 90.496A234.688 234.688 0 1 1 119.808 542.08l135.744-135.68a234.688 234.688 0 0 1 331.904 0l55.296 55.232-60.352 60.352-55.296-55.296z" /></svg>