<?xml version="1.0" standalone="no"?><!DOCTYPE svg PUBLIC "-//W3C//DTD SVG 1.1//EN" "http://www.w3.org/Graphics/SVG/1.1/DTD/svg11.dtd"><svg class="icon" width="200px" height="200.00px" viewBox="0 0 1024 1024" version="1.1" xmlns="http://www.w3.org/2000/svg"><path d="M183.68 123.264l150.848 150.848-60.352 60.352L123.328 183.68l60.352-60.352zM437.504 50.368v192H352.192v-192h85.312zM57.472 345.152h192v85.312h-192V345.152z m575.296-104.768l-129.92 129.92-60.352-60.352 129.92-129.92a192 192 0 1 1 271.488 271.552l-129.856 129.92-60.352-60.416 129.92-129.856a106.688 106.688 0 1 0-150.848-150.848zM240.512 632.576a106.688 106.688 0 0 0 150.848 150.848l129.92-129.856 60.352 60.352-129.92 129.92a192 192 0 0 1-271.488-271.552l129.856-129.92 60.352 60.352-129.92 129.92z m540.992-46.08h192v85.312h-192V586.432zM678.848 774.4v192H593.472v-192h85.376z m70.976-85.056l150.848 150.912-60.352 60.288-150.848-150.848 60.352-60.288z" /></svg>