<?xml version="1.0" standalone="no"?><!DOCTYPE svg PUBLIC "-//W3C//DTD SVG 1.1//EN" "http://www.w3.org/Graphics/SVG/1.1/DTD/svg11.dtd"><svg class="icon" width="200px" height="200.00px" viewBox="0 0 1024 1024" version="1.1" xmlns="http://www.w3.org/2000/svg"><path d="M192 256h42.688v85.312H64V256h42.688V170.688H64V85.312h42.688C153.792 85.312 192 123.52 192 170.688V256z m746.688 597.312h-640V768h640v85.312z m0-298.624h-640V469.312h640v85.376z m0-298.688h-640V170.688h640V256zM64 394.688h105.344a65.28 65.28 0 0 1 46.208 111.424l-37.888 37.888h56.96v85.312H64v-56.96c0-22.656 8.96-44.352 24.96-60.352l32-32H64V394.688z m170.688 362.624c0-47.104-38.208-85.312-85.376-85.312H64v85.312h85.312V768h-64v85.312h64v10.688H64v85.312h85.312c47.168 0 85.376-38.208 85.376-85.312v-106.688z" /></svg>