<?xml version="1.0" standalone="no"?><!DOCTYPE svg PUBLIC "-//W3C//DTD SVG 1.1//EN" "http://www.w3.org/Graphics/SVG/1.1/DTD/svg11.dtd"><svg class="icon" width="200px" height="200.00px" viewBox="0 0 1024 1024" version="1.1" xmlns="http://www.w3.org/2000/svg"><path d="M512 128a298.688 298.688 0 0 0-298.688 298.688c0 122.112 76.032 239.872 159.488 331.2A1116.352 1116.352 0 0 0 512 885.632a1115.712 1115.712 0 0 0 139.2-127.744c83.456-91.264 159.488-209.088 159.488-331.2A298.688 298.688 0 0 0 512 128z m0 862.464l-24.192-16.64-0.128-0.128-0.256-0.192-0.896-0.64a548.224 548.224 0 0 1-14.72-10.624 1202.176 1202.176 0 0 1-161.984-146.816C222.72 720.064 128 581.824 128 426.688a384 384 0 0 1 768 0c0 155.136-94.656 293.376-181.824 388.736a1201.024 1201.024 0 0 1-173.568 155.264l-3.2 2.24-0.832 0.64-0.256 0.128-0.064 0.064-24.256 16.64zM384 298.56h197.76c19.008 0 43.648 6.848 64.256 24.512 22.144 19.072 36.672 48.256 36.672 86.4 0 38.208-14.528 67.392-36.672 86.464a101.056 101.056 0 0 1-64.192 24.512H469.312V640H384V298.688zM469.312 435.2h112.512a17.28 17.28 0 0 0 8.576-3.84 16.128 16.128 0 0 0 4.224-5.952 38.848 38.848 0 0 0 2.688-15.808 38.848 38.848 0 0 0-2.688-15.808 16.128 16.128 0 0 0-9.728-9.024C583.232 384.128 582.08 384 581.76 384H469.312v51.2z" /></svg>