<?xml version="1.0" standalone="no"?><!DOCTYPE svg PUBLIC "-//W3C//DTD SVG 1.1//EN" "http://www.w3.org/Graphics/SVG/1.1/DTD/svg11.dtd"><svg class="icon" width="200px" height="200.00px" viewBox="0 0 1024 1024" version="1.1" xmlns="http://www.w3.org/2000/svg"><path d="M431.552 930.56c25.92 21.376 52.864 40.896 80.448 59.904 27.584-19.008 54.528-38.528 80.448-59.84a1201.024 1201.024 0 0 0 121.728-115.2C801.28 720.064 896 581.824 896 426.688a384 384 0 0 0-768 0C128 581.76 222.656 720 309.824 815.36a1202.176 1202.176 0 0 0 121.728 115.2zM512 565.376A138.688 138.688 0 1 1 512 288a138.688 138.688 0 0 1 0 277.312z" /></svg>