<?xml version="1.0" standalone="no"?><!DOCTYPE svg PUBLIC "-//W3C//DTD SVG 1.1//EN" "http://www.w3.org/Graphics/SVG/1.1/DTD/svg11.dtd"><svg class="icon" width="200px" height="200.00px" viewBox="0 0 1024 1024" version="1.1" xmlns="http://www.w3.org/2000/svg"><path d="M388.864 930.56c25.92 21.376 52.864 40.896 80.448 59.904 23.232-16 46.016-32.384 68.096-49.92a288 288 0 0 1 310.528-449.344 384 384 0 1 0-762.624-64.64c0 155.264 94.656 293.504 181.824 388.864a1202.24 1202.24 0 0 0 121.728 115.2z m80.448-365.248a138.688 138.688 0 1 1 0-277.312 138.688 138.688 0 0 1 0 277.312zM810.624 602.688c30.528 7.872 57.728 23.936 79.104 45.76l50.88-29.44 42.688 73.92-50.88 29.376a170.88 170.88 0 0 1 0 91.392l50.88 29.312-42.688 73.92-50.88-29.376c-21.376 21.76-48.64 37.888-79.104 45.696v58.752h-85.312v-58.752a170.496 170.496 0 0 1-79.104-45.696l-50.88 29.44-42.688-73.92 50.88-29.44a170.816 170.816 0 0 1 0-91.328l-50.88-29.376 42.688-73.92 50.88 29.44c21.376-21.824 48.64-37.888 79.104-45.76V544h85.312v58.688z m-115.84 121.344l-1.536 2.688a84.928 84.928 0 0 0 0 82.56l1.536 2.688a85.248 85.248 0 0 0 146.368 0l1.536-2.752a84.992 84.992 0 0 0 0-82.496l-1.536-2.688a85.312 85.312 0 0 0-146.368 0z" /></svg>