<?xml version="1.0" standalone="no"?><!DOCTYPE svg PUBLIC "-//W3C//DTD SVG 1.1//EN" "http://www.w3.org/Graphics/SVG/1.1/DTD/svg11.dtd"><svg class="icon" width="200px" height="200.00px" viewBox="0 0 1024 1024" version="1.1" xmlns="http://www.w3.org/2000/svg"><path d="M431.552 930.56a1202.176 1202.176 0 0 1-121.728-115.136C222.72 720.064 128 581.824 128 426.688a384 384 0 0 1 768 0c0 155.136-94.656 293.376-181.824 388.736a1201.024 1201.024 0 0 1-121.728 115.2c-25.92 21.312-52.864 40.832-80.448 59.776a1164.16 1164.16 0 0 1-80.448-59.776z m123.136-525.248v-128H469.312v128h-128v85.312h128v128h85.376v-128h128V405.312h-128z" /></svg>