<?xml version="1.0" standalone="no"?><!DOCTYPE svg PUBLIC "-//W3C//DTD SVG 1.1//EN" "http://www.w3.org/Graphics/SVG/1.1/DTD/svg11.dtd"><svg class="icon" width="200px" height="200.00px" viewBox="0 0 1024 1024" version="1.1" xmlns="http://www.w3.org/2000/svg"><path d="M512 128a298.688 298.688 0 0 0-298.688 298.688c0 122.112 76.032 239.936 159.488 331.2A1115.52 1115.52 0 0 0 512 885.632a1115.136 1115.136 0 0 0 139.2-127.744c83.456-91.264 159.488-209.088 159.488-331.2A298.688 298.688 0 0 0 512 128z m0 862.464l-24.192-16.64-0.128-0.064-0.256-0.192-0.896-0.64a374.336 374.336 0 0 1-14.72-10.688 1200.64 1200.64 0 0 1-161.984-146.816C222.72 720.128 128 581.888 128 426.752a384 384 0 1 1 768 0c0 155.2-94.656 293.376-181.824 388.8a1200.896 1200.896 0 0 1-173.568 155.2 347.008 347.008 0 0 1-3.2 2.24l-0.832 0.64-0.256 0.192h-0.064L512 990.528zM512 341.376A85.312 85.312 0 1 0 512 512a85.312 85.312 0 0 0 0-170.624zM341.312 426.688a170.688 170.688 0 1 1 341.376 0 170.688 170.688 0 0 1-341.376 0z" /></svg>