<?xml version="1.0" standalone="no"?><!DOCTYPE svg PUBLIC "-//W3C//DTD SVG 1.1//EN" "http://www.w3.org/Graphics/SVG/1.1/DTD/svg11.dtd"><svg class="icon" width="200px" height="200.00px" viewBox="0 0 1024 1024" version="1.1" xmlns="http://www.w3.org/2000/svg"><path d="M469.312 128A298.688 298.688 0 0 1 768 426.688v42.624h85.312v-42.688a384 384 0 0 0-768 0c0 155.2 94.656 293.44 181.824 388.8a1202.24 1202.24 0 0 0 161.984 146.816c16.704 12.416 34.048 23.936 51.2 35.776l48.32-70.4c-16.256-11.136-32.64-22.016-48.512-33.792a1116.288 1116.288 0 0 1-150.016-135.936c-83.456-91.328-159.488-209.088-159.488-331.2A298.688 298.688 0 0 1 469.312 128z m0 213.312a85.312 85.312 0 1 0 0 170.688 85.312 85.312 0 0 0 0-170.688zM298.624 426.624a170.688 170.688 0 1 1 341.376 0 170.688 170.688 0 0 1-341.376 0zM810.624 544v58.688c30.528 7.872 57.728 23.936 79.104 45.76l50.88-29.44 42.688 73.92-50.816 29.376a170.88 170.88 0 0 1 0 91.392l50.816 29.312-42.688 73.92-50.88-29.376c-21.376 21.76-48.64 37.888-79.104 45.696v58.752h-85.312v-58.752a170.496 170.496 0 0 1-79.104-45.696l-50.88 29.44-42.688-73.92 50.88-29.44a170.88 170.88 0 0 1 0-91.328l-50.88-29.376 42.688-73.92 50.88 29.44c21.376-21.824 48.64-37.888 79.104-45.76V544h85.312z m-117.376 182.72a85.056 85.056 0 0 0 0 82.56l1.536 2.688a85.312 85.312 0 0 0 146.368 0l1.536-2.752a84.992 84.992 0 0 0 0-82.496l-1.536-2.688a85.312 85.312 0 0 0-146.368 0l-1.536 2.688z" /></svg>