<?xml version="1.0" standalone="no"?><!DOCTYPE svg PUBLIC "-//W3C//DTD SVG 1.1//EN" "http://www.w3.org/Graphics/SVG/1.1/DTD/svg11.dtd"><svg class="icon" width="200px" height="200.00px" viewBox="0 0 1024 1024" version="1.1" xmlns="http://www.w3.org/2000/svg"><path d="M581.76 435.2H469.376V384h112.512a17.28 17.28 0 0 1 8.512 3.84c1.536 1.28 3.008 3.136 4.288 5.952 1.28 2.816 2.688 7.744 2.688 15.808a38.848 38.848 0 0 1-2.688 15.808 16.128 16.128 0 0 1-12.8 9.792zM431.552 930.56c25.92 21.376 52.864 40.896 80.448 59.904 27.584-19.008 54.528-38.528 80.448-59.84a1201.024 1201.024 0 0 0 121.728-115.2C801.28 720.064 896 581.824 896 426.688a384 384 0 0 0-768 0C128 581.76 222.656 720 309.824 815.36a1202.176 1202.176 0 0 0 121.728 115.2z m150.272-631.872c18.944 0 43.584 6.784 64.192 24.448 22.144 19.072 36.672 48.256 36.672 86.4 0 38.208-14.528 67.392-36.672 86.464a101.056 101.056 0 0 1-64.192 24.512H469.312V640H384V298.688h197.76z" /></svg>