<?xml version="1.0" standalone="no"?><!DOCTYPE svg PUBLIC "-//W3C//DTD SVG 1.1//EN" "http://www.w3.org/Graphics/SVG/1.1/DTD/svg11.dtd"><svg class="icon" width="200px" height="200.00px" viewBox="0 0 1024 1024" version="1.1" xmlns="http://www.w3.org/2000/svg"><path d="M768 448V298.688a256 256 0 0 0-512 0V448H149.312v490.688h381.312a298.688 298.688 0 0 1 344.064-435.648V448H768zM512 128a170.688 170.688 0 0 1 170.624 170.688V448H341.312V298.688A170.688 170.688 0 0 1 512 128zM554.624 789.312a234.688 234.688 0 1 1 469.376 0 234.688 234.688 0 0 1-469.376 0z m337.728 42.688L832 771.648v-78.208h-85.376v113.536L832 892.352l60.352-60.352z" /></svg>