<?xml version="1.0" standalone="no"?><!DOCTYPE svg PUBLIC "-//W3C//DTD SVG 1.1//EN" "http://www.w3.org/Graphics/SVG/1.1/DTD/svg11.dtd"><svg class="icon" width="200px" height="200.00px" viewBox="0 0 1024 1024" version="1.1" xmlns="http://www.w3.org/2000/svg"><path d="M512 128a170.688 170.688 0 0 1 170.624 170.688v128H341.312v-128A170.688 170.688 0 0 1 512 128z m256 298.688v-128a256 256 0 0 0-512 0v128H149.312v512h341.312v-85.376h-256V512h640V426.688H768zM789.312 640a149.312 149.312 0 1 0 0 298.688 149.312 149.312 0 0 0 0-298.688z m-234.688 149.312a234.688 234.688 0 1 1 469.376 0 234.688 234.688 0 0 1-469.376 0zM384 640h106.624v85.312H384V640z m448 53.44v78.208l60.352 60.352-60.352 60.352-85.376-85.376v-113.536H832z" /></svg>