<?xml version="1.0" standalone="no"?><!DOCTYPE svg PUBLIC "-//W3C//DTD SVG 1.1//EN" "http://www.w3.org/Graphics/SVG/1.1/DTD/svg11.dtd"><svg class="icon" width="200px" height="200.00px" viewBox="0 0 1024 1024" version="1.1" xmlns="http://www.w3.org/2000/svg"><path d="M512 42.688a469.312 469.312 0 1 1 0 938.624A469.312 469.312 0 0 1 512 42.688zM220.16 262.4l94.848 164.224 9.088-15.68a213.888 213.888 0 0 1 192.768-112.32h314.496A383.616 383.616 0 0 0 512 128c-116.736 0-221.376 52.096-291.84 134.4zM167.68 341.952A384.128 384.128 0 0 0 441.856 889.6l94.848-164.288h-21.12a213.376 213.376 0 0 1-191.616-112.64l-156.352-270.72z m369.6 553.216A384 384 0 0 0 874.176 384h-189.632l10.24 17.728a213.504 213.504 0 0 1 0 220.48l-157.568 272.96zM401.28 576A127.872 127.872 0 0 0 512 640h1.856a127.36 127.36 0 0 0 62.272-17.152 127.36 127.36 0 0 0 45.568-44.672L622.976 576a128.704 128.704 0 0 0 6.016-116.16A129.408 129.408 0 0 0 622.976 448l-1.28-2.176a127.36 127.36 0 0 0-45.568-44.672C556.8 390.016 535.936 384.512 515.2 384H512a127.808 127.808 0 0 0-110.72 64l-2.368 3.968c-9.472 17.92-14.848 38.4-14.848 60.032 0 21.568 5.312 41.856 14.72 59.712L401.28 576z" /></svg>