<?xml version="1.0" standalone="no"?><!DOCTYPE svg PUBLIC "-//W3C//DTD SVG 1.1//EN" "http://www.w3.org/Graphics/SVG/1.1/DTD/svg11.dtd"><svg class="icon" width="200px" height="200.00px" viewBox="0 0 1024 1024" version="1.1" xmlns="http://www.w3.org/2000/svg"><path d="M186.56 155.136l90.24 157.952C347.264 276.608 427.264 256 512 256c84.736 0 164.736 20.608 235.2 57.088l90.24-157.952 74.112 42.304-92.096 161.152A511.296 511.296 0 0 1 1024 768v85.312H0V768a511.296 511.296 0 0 1 204.544-409.408L112.448 197.44l74.112-42.304zM512 341.376A426.304 426.304 0 0 0 85.312 768h853.376A426.304 426.304 0 0 0 512 341.248zM256 554.624h85.504v85.504H256V554.688z m426.688 0h85.504v85.504h-85.504V554.688z" /></svg>