<?xml version="1.0" standalone="no"?><!DOCTYPE svg PUBLIC "-//W3C//DTD SVG 1.1//EN" "http://www.w3.org/Graphics/SVG/1.1/DTD/svg11.dtd"><svg class="icon" width="200px" height="200.00px" viewBox="0 0 1024 1024" version="1.1" xmlns="http://www.w3.org/2000/svg"><path d="M682.68864 170.688A170.688 170.688 0 0 0 512.00064 341.376v85.312h-42.688a552.768 552.768 0 0 1-375.552-146.56 405.504 405.504 0 0 0 247.68 459.52l73.92 29.312-65.28 45.44a574.72 574.72 0 0 1-108.928 59.52 469.376 469.376 0 0 0 612.16-447.232V361.536l9.728-11.84c23.296-28.416 39.68-49.728 54.528-70.72a227.84 227.84 0 0 1-33.408 10.88l-33.088 7.488-14.784-30.464a170.688 170.688 0 0 0-153.6-96.192z m297.6 74.88l43.456 29.696-24.128 35.2c-17.728 25.984-35.456 49.92-60.928 81.472v34.752a554.688 554.688 0 0 1-840.576 475.392l-96-57.856 110.144-20.608a486.912 486.912 0 0 0 124.224-41.152A490.368 490.368 0 0 1 0.00064 362.624c0-63.744 12.16-124.8 34.432-180.864l26.624-67.136 45.952 55.68a468.416 468.416 0 0 0 319.68 169.152 256 256 0 0 1 467.008-143.04c15.936-7.04 32.64-16.384 43.008-24.768l33.28-26.816 53.504 66.432-33.216 26.816c-3.072 2.496-6.4 4.992-9.984 7.488z" /></svg>