<?xml version="1.0" standalone="no"?><!DOCTYPE svg PUBLIC "-//W3C//DTD SVG 1.1//EN" "http://www.w3.org/Graphics/SVG/1.1/DTD/svg11.dtd"><svg class="icon" width="200px" height="200.00px" viewBox="0 0 1024 1024" version="1.1" xmlns="http://www.w3.org/2000/svg"><path d="M480.192 983.296a469.312 469.312 0 0 0 451.648-597.44h-279.232l10.24 17.728a213.376 213.376 0 0 1 30.72 110.208 211.968 211.968 0 0 1-30.72 110.272l-206.976 358.592c8.064 0.448 16.192 0.64 24.32 0.64zM365.12 969.088l139.712-241.92h-21.184a213.376 213.376 0 0 1-191.616-112.64L86.4 258.496a469.568 469.568 0 0 0 278.72 710.592zM143.616 186.88A467.968 467.968 0 0 1 480.256 44.608a469.312 469.312 0 0 1 418.048 255.872H484.928A213.568 213.568 0 0 0 292.16 412.8l-9.024 15.68-139.52-241.6zM416.192 624.768a128 128 0 1 1 128-221.696 128 128 0 0 1-128 221.696z" /></svg>