<?xml version="1.0" standalone="no"?><!DOCTYPE svg PUBLIC "-//W3C//DTD SVG 1.1//EN" "http://www.w3.org/Graphics/SVG/1.1/DTD/svg11.dtd"><svg class="icon" width="200px" height="200.00px" viewBox="0 0 1024 1024" version="1.1" xmlns="http://www.w3.org/2000/svg"><path d="M615.616 264.32c-28.736 17.984-58.048 38.656-87.424 61.76a195.456 195.456 0 0 1 89.088 38.08h-135.04a1247.808 1247.808 0 0 0-88.512 85.312h362.88l-16.32-54.784c-16.448-55.616-63.616-102.784-124.672-130.432zM355.2 950.656a453.76 453.76 0 0 0 156.352 27.52 453.76 453.76 0 0 0 363.648-181.76c11.84-15.36 21.888-30.976 31.168-47.168 4.8-7.936 8.96-15.68 12.8-23.552l30.912-61.76H638.08l-11.328 8.384A191.744 191.744 0 0 1 512 709.76c-45.952 0-81.408-15.552-107.904-40.576a180.352 180.352 0 0 1-40-57.28l477.312-4.48H966.4V523.392a451.904 451.904 0 0 0-24.128-146.624c21.952-53.248 35.136-104.96 36.032-151.744 1.024-49.792-11.904-97.472-46.848-132.48-33.28-33.216-78.208-46.464-125.376-46.72-46.848-0.256-98.944 12.16-152.448 33.536a659.2 659.2 0 0 0-16.384 6.848 454.784 454.784 0 0 0-560 572.352c-20.096 51.648-31.68 101.952-31.36 147.392 0.32 47.168 13.568 92.096 46.72 125.312 34.816 35.072 82.624 48 132.352 46.912 40.448-0.768 84.672-10.688 130.368-27.584z m20.288-575.104c104.512-104.32 215.808-179.2 309.824-216.96 47.104-18.816 87.872-27.52 120.256-27.392 32 0.192 52.672 8.96 65.472 21.76 13.568 13.568 22.592 35.712 21.888 70.4-0.256 13.44-1.984 28.288-5.312 44.352a457.856 457.856 0 0 0-77.248-87.04c-23.68 4.224-50.368 12.032-79.36 23.68-6.528 2.56-13.056 5.376-19.712 8.32a370.24 370.24 0 0 1 162.304 236.416c4.8 23.68 7.296 47.872 7.36 72.96h-39.68l-514.368 4.8c-20.736 26.176-39.424 52.288-56.128 77.952 14.272 48.64 38.976 92.736 74.752 126.464 42.752 40.256 99.328 63.808 166.464 63.808 56.704 0 109.568-16.704 153.6-45.824h138.304a368.384 368.384 0 0 1-292.352 143.616 369.088 369.088 0 0 1-306.816-163.584l-0.64 1.536c-15.296 38.4-23.872 72.512-26.432 101.376 20.16 21.824 42.496 41.664 66.624 59.264a215.168 215.168 0 0 1-21.12 1.472c-34.816 0.704-56.768-8.32-70.08-21.76l-0.128-0.128c-12.8-12.8-21.568-33.472-21.76-65.6-0.256-32.384 8.448-73.216 27.264-120.32 37.632-94.08 112.512-205.312 216.96-309.568zM142.208 530.56l-0.064-7.168a369.472 369.472 0 0 1 370.304-369.408 1233.792 1233.792 0 0 0-197.248 161.088C245.312 384.896 186.688 458.688 142.208 530.56z" /></svg>