<?xml version="1.0" standalone="no"?><!DOCTYPE svg PUBLIC "-//W3C//DTD SVG 1.1//EN" "http://www.w3.org/Graphics/SVG/1.1/DTD/svg11.dtd"><svg class="icon" width="200px" height="200.00px" viewBox="0 0 1024 1024" version="1.1" xmlns="http://www.w3.org/2000/svg"><path d="M341.312 554.688V768H256V256h149.312a149.312 149.312 0 1 1 0 298.688h-64z m0-213.312v128h64a64 64 0 0 0 0-128h-64zM576 531.328c0-57.792 46.848-104.64 104.64-104.64H768V512h-87.36a19.328 19.328 0 0 0-6.144 37.632l43.264 14.464A104.64 104.64 0 0 1 684.672 768H576v-85.312h108.672a19.328 19.328 0 0 0 6.08-37.632l-43.2-14.464A104.64 104.64 0 0 1 576 531.392zM938.624 85.312H85.312v853.376h853.312V85.376z m-768 768V170.752h682.688v682.688H170.624z" /></svg>