<?xml version="1.0" standalone="no"?><!DOCTYPE svg PUBLIC "-//W3C//DTD SVG 1.1//EN" "http://www.w3.org/Graphics/SVG/1.1/DTD/svg11.dtd"><svg class="icon" width="200px" height="200.00px" viewBox="0 0 1024 1024" version="1.1" xmlns="http://www.w3.org/2000/svg"><path d="M226.432 129.984c-14.016 54.72-0.192 92.8 2.944 100.608l9.92 24.832-17.92 19.776c-31.616 34.624-50.688 77.952-50.688 133.184 0 106.24 31.872 163.584 71.936 197.12 42.112 35.392 100.48 50.752 165.12 57.984l97.024 10.88-73.984 63.872c-10.368 8.96-25.856 32-25.856 79.168V832h0.448v85.312h-0.128l0.256 31.232v8.064l0.192 24.704V1024H320.32v-42.688c0-5.376 0-12.8-0.128-23.936v-8.32l-0.256-31.744h-23.68c-51.84 0-100.928-23.552-133.312-64l-23.488-29.44a128 128 0 0 0-42.688-34.496l-47.36-23.68 38.208-76.288 47.296 23.68c27.584 13.76 51.84 33.408 71.168 57.536l23.488 29.312c16.192 20.288 40.704 32 66.624 32h23.424v-14.528c0-30.208 4.608-56.96 12.864-79.744-50.56-11.2-101.76-30.72-144.704-66.752-63.872-53.568-102.4-137.6-102.4-262.528 0-67.648 21.12-124.8 56.704-171.328-8.512-34.176-14.848-93.76 14.08-166.144L163.584 52.48 182.4 46.272h0.128l0.064-0.064 0.192-0.064 0.32-0.128 0.832-0.192a56.768 56.768 0 0 1 6.4-1.536c3.456-0.64 7.744-1.216 12.928-1.472a160.64 160.64 0 0 1 40.832 3.712c30.656 6.4 71.872 22.016 124.928 55.936a605.632 605.632 0 0 1 285.824 0c53.12-33.92 94.336-49.536 124.928-55.936a160.64 160.64 0 0 1 40.832-3.712 97.536 97.536 0 0 1 19.392 3.008l0.768 0.192 0.384 0.128h0.128l0.128 0.064h0.064l18.944 6.272 7.36 18.432c28.928 72.384 22.592 131.968 14.08 166.144 35.648 46.528 56.768 103.68 56.768 171.328 0 124.992-38.528 208.96-102.4 262.528-42.944 35.968-94.208 55.552-144.768 66.752 8.32 22.848 12.928 49.536 12.928 79.744a17806.976 17806.976 0 0 1-0.768 163.904V1024H618.368v-42.688a3866.624 3866.624 0 0 1 0.192-32.768c0.192-31.168 0.512-77.696 0.512-131.2 0-47.104-15.488-70.208-25.856-79.104l-73.984-63.808 97.088-10.88c64.64-7.296 122.944-22.656 165.12-58.048 40-33.536 71.936-90.88 71.936-197.12 0-55.232-19.136-98.56-50.688-133.184l-17.92-19.776 9.856-24.832c3.2-7.808 16.96-45.888 2.944-100.608l-0.256 0.064c-20.352 4.288-56.64 16.96-110.784 53.76l-16.448 11.2-19.136-5.376a517.504 517.504 0 0 0-277.888 0l-19.136 5.376-16.384-11.2c-54.208-36.8-90.496-49.472-110.848-53.76h-0.256z" /></svg>