<?xml version="1.0" standalone="no"?><!DOCTYPE svg PUBLIC "-//W3C//DTD SVG 1.1//EN" "http://www.w3.org/Graphics/SVG/1.1/DTD/svg11.dtd"><svg class="icon" width="200px" height="200.00px" viewBox="0 0 1024 1024" version="1.1" xmlns="http://www.w3.org/2000/svg"><path d="M512 34.432l469.376 305.088v344.96L512 989.568 42.688 684.48v-344.96L512 34.432zM128 444.608v134.784L224.256 512 128 444.608z m33.6 215.424l307.776 200V683.52L298.688 564.096l-137.088 95.936zM373.12 512L512 609.28 650.944 512l-138.88-97.28L373.12 512z m181.568-171.52l170.688 119.424 137.024-95.936-307.712-200v176.448zM469.376 163.904L161.6 363.968l137.088 96 170.688-119.552V163.968zM896 444.608L799.744 512 896 579.392V444.608z m-33.6 215.424l-137.024-96-170.688 119.488v176.512l307.712-200z" /></svg>