<?xml version="1.0" standalone="no"?><!DOCTYPE svg PUBLIC "-//W3C//DTD SVG 1.1//EN" "http://www.w3.org/Graphics/SVG/1.1/DTD/svg11.dtd"><svg class="icon" width="200px" height="200.00px" viewBox="0 0 1024 1024" version="1.1" xmlns="http://www.w3.org/2000/svg"><path d="M426.688 339.456a256 256 0 0 1 466.496-143.808c14.336-7.04 30.848-16.64 48-27.2l64.96-39.68V204.8c0 58.432-12.032 102.848-29.184 136.576-11.968 23.68-25.92 41.024-38.272 53.76v31.488a554.688 554.688 0 0 1-840.576 475.392l-96-57.856 110.144-20.608a486.912 486.912 0 0 0 124.224-41.152A490.368 490.368 0 0 1 0 362.624c0-63.744 12.16-124.8 34.432-180.864l26.624-67.136 45.952 55.68a468.416 468.416 0 0 0 319.68 169.152z" /></svg>