<?xml version="1.0" standalone="no"?><!DOCTYPE svg PUBLIC "-//W3C//DTD SVG 1.1//EN" "http://www.w3.org/Graphics/SVG/1.1/DTD/svg11.dtd"><svg class="icon" width="200px" height="200.00px" viewBox="0 0 1024 1024" version="1.1" xmlns="http://www.w3.org/2000/svg"><path d="M337.408 169.856a384.768 384.768 0 0 0-199.616 255.616 1147.52 1147.52 0 0 0 336.32-66.048 1455.232 1455.232 0 0 0-136.704-189.568zM128 511.36v0.64c0 91.648 32 175.68 85.568 241.728A684.16 684.16 0 0 1 551.04 504.576c-10.88-23.68-22.4-46.912-34.368-69.824A1233.024 1233.024 0 0 1 128 511.296z m147.2 303.04A382.208 382.208 0 0 0 512 896c53.44 0 104.192-10.88 150.272-30.528a1440 1440 0 0 0-77.824-282.112A598.848 598.848 0 0 0 275.2 814.336z m392.832-251.328a1525.248 1525.248 0 0 1 72.832 257.344 383.808 383.808 0 0 0 151.168-252.8 600.064 600.064 0 0 0-224-4.544z m226.752-81.92a381.888 381.888 0 0 0-80.768-206.336c-67.84 49.536-140.8 92.288-218.176 127.36 13.696 26.24 26.624 53.056 38.784 80.256a685.824 685.824 0 0 1 260.16-1.28z m-340.48-153.856c70.336-31.36 136.96-69.632 199.04-113.92A385.152 385.152 0 0 0 422.4 138.496 1539.776 1539.776 0 0 1 554.24 327.232zM44.928 465.088a469.696 469.696 0 0 1 287.296-386.752A468.032 468.032 0 0 1 512 42.688c133.184 0 253.44 55.488 338.88 144.576a467.904 467.904 0 0 1 129.792 349.824A469.376 469.376 0 1 1 44.992 465.088z" /></svg>