<?xml version="1.0" standalone="no"?><!DOCTYPE svg PUBLIC "-//W3C//DTD SVG 1.1//EN" "http://www.w3.org/Graphics/SVG/1.1/DTD/svg11.dtd"><svg class="icon" width="200px" height="200.00px" viewBox="0 0 1024 1024" version="1.1" xmlns="http://www.w3.org/2000/svg"><path d="M251.584 131.712C306.688 52.864 393.088 0.512 512 0.512c118.848 0 205.184 52.416 260.288 131.2 53.824 76.928 76.352 176.576 76.352 272.384 0 5.888-0.192 14.144-0.32 20.8l-0.064 4.096 39.04 97.536 0.064 0.32c11.648 30.4 23.488 62.72 32.192 90.944 20.8 66.688 28.544 116.16 29.248 150.848 0.32 17.088-1.088 32.256-4.48 44.608-1.6 6.08-4.288 13.44-8.896 20.416a48.064 48.064 0 0 1-34.112 21.76 57.216 57.216 0 0 1-38.4-10.368 122.24 122.24 0 0 1-19.072-16.256 239.68 239.68 0 0 1-9.28-10.24 312.704 312.704 0 0 1-39.872 68.096c8.32 4.416 16.32 9.28 23.424 14.528 14.848 11.072 25.664 25.6 29.504 43.008a59.968 59.968 0 0 1-6.464 43.392 53.76 53.76 0 0 1-22.336 20.288c-6.016 3.008-12.16 4.992-17.408 6.4-10.496 2.752-22.848 4.48-35.328 5.76-25.28 2.56-57.152 3.392-89.472 3.328A1921.6 1921.6 0 0 1 512 1016.192a1916.16 1916.16 0 0 1-164.48 7.168c-32.32 0-64.192-0.832-89.472-3.328a234.432 234.432 0 0 1-35.328-5.76 88.704 88.704 0 0 1-17.408-6.4 53.632 53.632 0 0 1-22.272-20.224l0.064 0.192a59.904 59.904 0 0 1-6.72-43.712c3.904-17.472 14.848-32 29.696-43.008 7.168-5.248 15.04-10.048 23.36-14.4-16.768-21.76-30.08-44.8-39.936-68.096-3.136 3.52-6.208 6.976-9.344 10.176-5.248 5.44-11.776 11.456-19.008 16.256a57.216 57.216 0 0 1-38.4 10.368h-0.128a48.192 48.192 0 0 1-33.92-21.632 70.4 70.4 0 0 1-9.024-20.48 161.152 161.152 0 0 1-4.48-44.672c0.64-34.688 8.32-84.16 29.056-150.784 8.768-28.224 20.48-60.608 32.192-91.072l0.256-0.576 38.848-97.216a2976.704 2976.704 0 0 1-0.32-24.896c0-95.808 22.464-195.456 76.288-272.384z m-77.824 562.368l78.976-128.192v150.592c0 44.48 23.744 107.584 78.336 153.792l59.52 50.368-56.256 17.344h13.12c62.592 0 130.624-3.84 159.808-7.04l4.8-0.64 4.8 0.576a1782.4 1782.4 0 0 0 172.928 7.104l-56.32-17.344 59.52-50.368c54.592-46.208 78.336-109.312 78.336-153.792V565.76l78.976 128.256 0.128 0.192 0.448 0.704 1.856 2.944 0.448 0.64a751.232 751.232 0 0 0-15.168-55.424 1482.24 1482.24 0 0 0-30.272-85.504l-45.056-112.64v-8.256a1661.824 1661.824 0 0 0 0.576-32.64c0-84.16-20.032-164.992-60.928-223.488-39.68-56.64-100.288-94.72-190.4-94.72-90.176 0-150.784 38.016-190.4 94.72-40.96 58.496-60.928 139.328-60.928 223.488 0 8.512 0.384 23.808 0.512 29.632v2.176l0.192 8.704-45.184 113.024c-11.392 29.696-22.4 59.968-30.336 85.504m-12.032 50.944l-0.128 0.192-0.448 0.704-1.856 2.944-0.64 1.152c3.648-16.384 8.64-35.008 15.104-55.936" /></svg>