<?xml version="1.0" standalone="no"?><!DOCTYPE svg PUBLIC "-//W3C//DTD SVG 1.1//EN" "http://www.w3.org/Graphics/SVG/1.1/DTD/svg11.dtd"><svg class="icon" width="200px" height="200.00px" viewBox="0 0 1024 1024" version="1.1" xmlns="http://www.w3.org/2000/svg"><path d="M400.192 951.488l-25.152 9.92c-56.448 24.32-111.488 38.848-160.96 39.872-49.728 1.024-97.536-11.904-132.352-46.976-33.152-33.216-46.4-78.144-46.72-125.312-0.32-46.912 12.032-99.008 33.408-152.512 42.88-107.2 125.248-227.84 235.968-338.368C415.104 227.712 535.68 145.344 642.752 102.4c53.504-21.376 105.6-33.792 152.448-33.536 47.168 0.256 92.16 13.568 125.376 46.72 34.944 35.008 47.872 82.688 46.848 132.48-0.96 49.6-15.68 104.768-40.128 161.472l-0.192 0.384-19.84 44.672c3.84 23.168 5.76 46.72 5.76 70.72v62.592h-103.808L301.44 592.64c11.648 37.824 30.72 70.08 56 93.888 30.592 28.8 71.296 46.4 122.56 46.4 48 0 92.16-15.36 127.424-41.6l5.632-4.16h270.528l-15.424 30.848c-3.84 7.616-7.68 14.912-12.16 22.4-8.96 15.552-18.56 30.528-29.76 45.056a432.384 432.384 0 0 1-346.688 173.312c-27.136 0-53.632-2.56-79.36-7.296zM520.064 267.52a1175.68 1175.68 0 0 0-155.392 131.072c-10.496 10.432-20.608 20.928-30.464 31.488h361.792l-8.128-27.392c-18.816-63.36-85.44-117.312-167.808-135.168z m-393.792 508.992a241.92 241.92 0 0 0-5.952 51.968c0.256 32.128 9.024 52.8 21.824 65.6l0.128 0.192c13.312 13.376 35.328 22.4 70.08 21.76 18.048-0.384 38.528-3.392 61.056-9.28a435.584 435.584 0 0 1-147.2-130.24zM866.368 329.6c10.176-31.36 15.296-59.456 15.744-83.2 0.704-34.752-8.32-56.832-21.888-70.4-12.8-12.8-33.408-21.632-65.472-21.76a269.44 269.44 0 0 0-73.472 11.328 435.968 435.968 0 0 1 145.088 164.032zM259.008 292.736C168.64 382.912 96.448 480.256 48.64 572.416a433.472 433.472 0 0 1 469.632-478.72c-85.952 47.488-175.616 115.52-259.2 199.04z" /></svg>