<?xml version="1.0" standalone="no"?><!DOCTYPE svg PUBLIC "-//W3C//DTD SVG 1.1//EN" "http://www.w3.org/Graphics/SVG/1.1/DTD/svg11.dtd"><svg class="icon" width="200px" height="200.00px" viewBox="0 0 1024 1024" version="1.1" xmlns="http://www.w3.org/2000/svg"><path d="M380.928 106.688h262.272c77.76 0 140.48 0 189.824 6.592 51.2 6.912 94.336 21.632 128.576 55.872 34.24 34.24 48.96 77.376 55.808 128.576 6.656 49.28 6.656 112 6.656 189.824v48.896c0 77.824 0 140.48-6.656 189.824-6.848 51.2-21.568 94.336-55.808 128.576-34.24 34.24-77.376 48.96-128.64 55.872-49.28 6.592-112 6.592-189.76 6.592H380.864c-77.76 0-140.48 0-189.824-6.592-51.2-6.912-94.336-21.632-128.576-55.872-34.24-34.24-48.96-77.376-55.808-128.576C0.064 676.992 0.064 614.272 0.064 536.448v-48.896c0-77.824 0-140.544 6.656-189.824 6.848-51.2 21.568-94.336 55.808-128.64 34.24-34.176 77.376-48.896 128.64-55.808 49.28-6.656 112-6.656 189.76-6.592zM202.496 197.824c-41.728 5.568-63.872 15.872-79.616 31.616s-25.984 37.824-31.616 79.552c-5.76 43.008-5.888 99.968-5.888 181.632v42.624c0 81.664 0.128 138.624 5.888 181.568 5.632 41.792 15.872 63.872 31.616 79.616s37.888 25.984 79.616 31.616C245.44 831.872 302.4 832 384.064 832h256c81.664 0 138.624-0.128 181.568-5.888 41.728-5.632 63.872-15.872 79.616-31.616s25.984-37.824 31.616-79.616c5.76-42.944 5.888-99.84 5.888-181.568v-42.624c0-81.664-0.128-138.624-5.888-181.632-5.632-41.728-15.872-63.808-31.616-79.552-15.744-15.744-37.824-26.048-79.616-31.616C778.688 192.128 721.728 192 640.064 192H384.064C302.4 192 245.44 192 202.496 197.888z m173.056 99.2L746.56 512l-371.008 214.912V297.152z m85.376 148.096v133.696L576.32 512 460.864 445.184z" /></svg>