<?xml version="1.0" standalone="no"?><!DOCTYPE svg PUBLIC "-//W3C//DTD SVG 1.1//EN" "http://www.w3.org/Graphics/SVG/1.1/DTD/svg11.dtd"><svg class="icon" width="200px" height="188.24px" viewBox="0 0 1088 1024" version="1.1" xmlns="http://www.w3.org/2000/svg"><path d="M746.752 329.152c6.272 0 12.48 0.128 18.752 0.384-43.392-133.504-188.16-231.68-360.128-231.68C199.232 97.92 32.064 239.04 32.064 413.12c0 94.848 49.6 179.84 128.064 237.696l-14.976 115.712 121.024-60.8a429.76 429.76 0 0 0 116.032 22.016 294.4 294.4 0 0 1-8.832-71.744c0-189.888 177.28-326.848 373.376-326.848z m-458.688 14.08a42.688 42.688 0 1 0 0-85.376 42.688 42.688 0 0 0 0 85.376z m234.688 0.32a42.688 42.688 0 1 0 0-85.376 42.688 42.688 0 0 0 0 85.376zM1056.064 656c0 72.64-34.688 138.368-90.688 185.984v118.272l-104-60.032a356.736 356.736 0 0 1-114.624 18.624c-170.88 0-309.376-117.696-309.376-262.848 0-145.152 138.496-262.848 309.376-262.848 170.816 0 309.312 117.696 309.312 262.848zM599.936 570.56a42.688 42.688 0 1 0 85.376 0 42.688 42.688 0 0 0-85.376 0z m208.256 0a42.688 42.688 0 1 0 85.312 0 42.688 42.688 0 0 0-85.312 0z" /></svg>