<?xml version="1.0" standalone="no"?><!DOCTYPE svg PUBLIC "-//W3C//DTD SVG 1.1//EN" "http://www.w3.org/Graphics/SVG/1.1/DTD/svg11.dtd"><svg class="icon" width="200px" height="200.00px" viewBox="0 0 1024 1024" version="1.1" xmlns="http://www.w3.org/2000/svg"><path d="M99.84 274.048L512 36.032l412.16 238.016v475.904L512 987.904l-412.16-237.952V274.048zM512 134.592L412.544 192 512 249.408 611.392 192 512 134.592z m184.704 106.688L512 347.904 327.232 241.28l-99.392 57.408L512 462.72l284.16-164.032-99.392-57.408z m142.08 131.264l-284.16 164.096v328.128l99.84-57.6v-213.12l184.32-106.432V372.48z m0 213.568l-98.944 57.216v114.56l99.008-57.216v-114.56zM185.216 487.552l184.32 106.496v213.12l99.84 57.6V536.64L185.152 372.48V487.68z m0 98.56v114.56l99.008 57.152v-114.56l-99.008-57.152z" /></svg>