<?xml version="1.0" standalone="no"?><!DOCTYPE svg PUBLIC "-//W3C//DTD SVG 1.1//EN" "http://www.w3.org/Graphics/SVG/1.1/DTD/svg11.dtd"><svg class="icon" width="200px" height="200.00px" viewBox="0 0 1024 1024" version="1.1" xmlns="http://www.w3.org/2000/svg"><path d="M506.112 168.064A149.312 149.312 0 0 1 655.424 18.752h44.8v44.8a149.312 149.312 0 0 1-149.312 149.312h-44.8v-44.8z m189.952 45.888c25.6 1.664 93.12 7.936 153.984 54.72 17.856 13.76 35.008 30.848 50.176 52.096l28.416 39.68-43.072 22.848c-0.64 0.32-8.384 4.672-18.944 13.12-25.728 20.608-60.992 59.84-60.416 119.68 0.64 53.568 24.64 88.384 49.28 110.784a176.448 176.448 0 0 0 47.488 31.04l39.936 12.736-12.032 40.192a504.576 504.576 0 0 1-24.128 60.16 532.8 532.8 0 0 1-47.36 80.448c-19.2 27.008-41.856 58.24-69.12 82.56-28.16 25.088-63.744 45.056-109.12 45.824h-0.128 0.32-0.192c-39.936 0.832-67.52-10.56-89.344-19.52l-1.024-0.448c-21.44-8.832-38.208-15.616-65.984-15.616-30.272 0-48.32 7.232-70.912 16.448l-1.152 0.448c-20.224 8.32-45.696 18.624-80.832 20.096h-0.384c-46.528 1.472-84.096-21.12-112.64-46.656-28.352-25.344-52.48-57.856-72.128-84.736l-0.064-0.128c-44.224-61.12-82.56-145.856-98.88-234.24-16.256-88.128-11.648-185.216 37.184-266.112a274.112 274.112 0 0 1 230.656-133.568h-0.256 0.512-0.256c42.88-0.96 82.944 14.208 110.72 24.768l2.56 0.96c11.52 4.352 20.48 7.744 28.608 10.24A57.024 57.024 0 0 0 512 254.656a51.392 51.392 0 0 0 11.968-2.624 474.24 474.24 0 0 0 29.568-10.56c33.92-12.736 84.864-31.872 142.528-27.584z m-6.08 85.12c-37.76-2.816-72.832 9.728-108.672 23.168l-0.704 0.32c-10.368 3.84-21.504 8.064-32 11.2-10.368 3.2-23.296 6.272-36.608 6.272-14.08 0-27.776-3.2-39.04-6.592a520.512 520.512 0 0 1-33.536-11.84l-0.768-0.256c-30.72-11.648-56.448-20.864-81.216-20.224h-0.512a188.8 188.8 0 0 0-158.848 92.288c-34.304 56.896-40.384 130.496-26.368 206.528 14.08 75.776 47.168 148.736 84.032 199.68 20.16 27.584 39.36 52.992 60.032 71.424 20.288 18.176 37.248 25.344 52.928 24.96 19.328-0.832 32.832-6.08 52.928-14.336l0.512-0.192c24.512-9.984 55.36-22.528 102.656-22.528 45.056 0 74.752 12.224 97.92 21.76l0.64 0.256c21.056 8.704 34.56 14.08 56 13.504h0.384c18.816-0.256 35.648-8 53.76-24.192 19.072-16.96 36.48-40.384 56.512-68.48a447.36 447.36 0 0 0 46.656-82.688 265.792 265.792 0 0 1-38.592-29.056 231.68 231.68 0 0 1-77.248-173.056v-0.128c-0.768-87.488 46.08-145.92 81.088-177.408a178.88 178.88 0 0 0-3.84-3.136c-40.32-30.912-86.592-35.84-107.712-37.248h-0.448z" /></svg>