<?xml version="1.0" standalone="no"?><!DOCTYPE svg PUBLIC "-//W3C//DTD SVG 1.1//EN" "http://www.w3.org/Graphics/SVG/1.1/DTD/svg11.dtd"><svg class="icon" width="200px" height="200.00px" viewBox="0 0 1024 1024" version="1.1" xmlns="http://www.w3.org/2000/svg"><path d="M302.983529 121.916235C353.460706 49.754353 432.188235 1.686588 542.117647 1.686588c109.869176 0 188.536471 48.067765 239.013647 120.229647 49.814588 71.198118 71.318588 164.562824 71.318588 255.87953 0 5.481412-0.180706 13.432471-0.301176 19.937882l-0.180706 8.071529 39.755294 99.508706c11.444706 29.696 22.889412 61.018353 31.262118 88.064 19.998118 64.271059 27.105882 110.832941 27.708235 142.456471 0.301176 15.661176-0.963765 28.491294-3.614118 38.189176a49.332706 49.332706 0 0 1-6.144 14.21553 27.226353 27.226353 0 0 1-19.275294 12.528941 36.382118 36.382118 0 0 1-24.154353-6.866824 99.990588 99.990588 0 0 1-15.48047-13.312 341.654588 341.654588 0 0 1-28.672-35.056941l-1.445647-1.987764a283.828706 283.828706 0 0 1-64.451765 114.868705c15.420235 6.384941 30.960941 14.155294 43.128471 23.190589 11.504941 8.613647 18.793412 19.034353 21.383529 30.479059 2.409412 11.083294 0 21.082353-4.096 28.069647a32.768 32.768 0 0 1-13.733647 12.227764 67.463529 67.463529 0 0 1-13.131294 4.818824 210.522353 210.522353 0 0 1-31.563294 5.059765c-23.792941 2.409412-54.332235 3.252706-85.835294 3.19247a1838.08 1838.08 0 0 1-161.430589-7.107765c-32.647529 3.433412-100.050824 7.047529-161.430588 7.107765-31.442824 0.060235-61.982118-0.783059-85.775059-3.132235a211.425882 211.425882 0 0 1-31.563294-5.180235 67.343059 67.343059 0 0 1-13.191529-4.758589 32.707765 32.707765 0 0 1-13.613177-12.107294 38.851765 38.851765 0 0 1-4.21647-28.250353c2.529882-11.444706 9.878588-21.925647 21.504-30.479059 12.167529-9.035294 27.648-16.745412 43.068235-23.070117a284.009412 284.009412 0 0 1-64.451765-114.928941c-0.542118 0.602353-1.024 1.325176-1.505882 1.987764a342.136471 342.136471 0 0 1-28.732235 35.056941 99.990588 99.990588 0 0 1-15.420236 13.251765 36.261647 36.261647 0 0 1-24.214588 6.927059 27.286588 27.286588 0 0 1-19.275294-12.468706 49.152 49.152 0 0 1-6.144-14.275765 138.782118 138.782118 0 0 1-3.734588-38.189176c0.602353-31.623529 7.710118-78.185412 27.708235-142.456471 8.372706-27.045647 19.757176-58.307765 31.141647-88.064l0.120471-0.301176 39.695059-99.20753a3078.204235 3078.204235 0 0 1-0.481883-28.009411c0-91.316706 21.504-184.681412 71.318588-255.87953z" /></svg>