<?xml version="1.0" standalone="no"?><!DOCTYPE svg PUBLIC "-//W3C//DTD SVG 1.1//EN" "http://www.w3.org/Graphics/SVG/1.1/DTD/svg11.dtd"><svg class="icon" width="200px" height="200.00px" viewBox="0 0 1024 1024" version="1.1" xmlns="http://www.w3.org/2000/svg"><path d="M512 85.312c158.464 0 298.432 65.472 383.36 165.696l32.512 44.16c34.112 54.272 53.504 115.84 53.504 181.312 0 216-210.176 391.104-469.376 391.104-53.504 0-105.216-7.68-153.152-21.44a47.04 47.04 0 0 0-13.824-2.048 49.152 49.152 0 0 0-24.96 7.232l-102.72 59.264a17.664 17.664 0 0 1-8.96 2.944 15.68 15.68 0 0 1-15.744-15.616c0-2.944 0.896-5.824 1.728-8.64l0.832-2.816 21.12-78.912a31.232 31.232 0 0 0-11.52-35.456C105.984 700.416 42.752 594.304 42.752 476.416 42.688 260.48 252.8 85.44 512 85.44z m341.568 252.8L387.456 607.296l-3.392 1.984a31.168 31.168 0 0 1-41.408-12.608l-87.488-192a15.616 15.616 0 0 1 23.488-19.136L379.52 457.28a46.72 46.72 0 0 0 41.664 4.8l392.064-174.528C744.32 218.24 636.8 170.688 512 170.688c-227.264 0-384 150.784-384 305.792 0 85.568 45.824 167.68 126.72 226.368 21.312 15.36 37.44 37.888 44.544 64.256a130.176 130.176 0 0 1 83.648-2.816c40.256 11.52 83.84 17.92 129.088 17.92 227.328 0 384-150.784 384-305.728a252.8 252.8 0 0 0-38.784-133.376l-3.648-4.928z" /></svg>