<?xml version="1.0" standalone="no"?><!DOCTYPE svg PUBLIC "-//W3C//DTD SVG 1.1//EN" "http://www.w3.org/Graphics/SVG/1.1/DTD/svg11.dtd"><svg class="icon" width="200px" height="199.80px" viewBox="0 0 1025 1024" version="1.1" xmlns="http://www.w3.org/2000/svg"><path d="M751.25184 217.152c27.008 28.16 49.408 59.776 65.664 93.44 19.84 40.448 30.912 82.816 32.832 127.168a129.792 129.792 0 0 0-171.328 141.888l-1.344-0.192a129.792 129.792 0 0 0-107.648 222.976 459.712 459.712 0 0 1-87.936 18.56 523.264 523.264 0 0 1-56 3.136c-17.792 0-35.648-1.024-53.44-3.072a454.976 454.976 0 0 1-79.36-15.36l-121.216 61.312s-11.52 5.632-18.816 5.632c-17.792 0-29.952-12.16-29.952-30.08 0-10.496 2.944-25.728 5.504-35.84 2.56-10.112 16.832-70.464 16.832-70.464-31.04-25.024-66.688-65.92-87.552-97.6a327.232 327.232 0 0 1-22.912-328.512 371.2 371.2 0 0 1 66.176-93.44c68.736-71.04 165.44-116.544 271.296-128.32a482.112 482.112 0 0 1 109.44 0c105.344 11.776 201.024 57.728 269.76 128.768zM915.15584 644.8l1.024 1.024a14.912 14.912 0 0 1-1.536 19.392 13.824 13.824 0 0 1-19.84 0 181.12 181.12 0 0 0-100.8-56.704c-0.448 0-1.088-0.128-1.728-0.256a9.92 9.92 0 0 0-1.792-0.256c-1.024 0-2.56 0-3.584-0.512a58.816 58.816 0 0 1-28.48-15.872 59.648 59.648 0 0 1 0-83.776 59.136 59.136 0 0 1 83.456 0c7.68 7.168 12.736 16.384 15.296 26.048l1.536 6.144 0.192 2.432c0.128 1.024 0.32 2.112 0.32 3.2a181.12 181.12 0 0 0 49.92 93.44l4.032 4.16 0.96 0.704a6.4 6.4 0 0 1 1.024 0.832zM870.35584 833.28l1.024-1.024a7.488 7.488 0 0 0 0.768-1.024 7.04 7.04 0 0 1 0.768-1.024l4.096-4.032a180.032 180.032 0 0 1 93.12-50.112c1.088 0 2.176-0.128 3.2-0.256a18.688 18.688 0 0 1 2.432-0.256l6.08-1.536a59.648 59.648 0 0 0 25.984-99.136 59.136 59.136 0 0 0-99.264 28.672c-0.512 1.024-0.512 2.56-0.512 3.584 0 0.512-0.128 1.152-0.256 1.728-0.128 0.64-0.256 1.28-0.256 1.792a182.272 182.272 0 0 1-50.432 95.552v0.064c-2.048 2.048-4.096 4.032-6.08 5.568a13.952 13.952 0 0 0 0 19.904c6.08 5.632 14.272 5.632 19.328 1.536zM684.05184 787.328l1.024 1.024 1.024 0.768a7.296 7.296 0 0 1 1.024 0.768l4.032 4.032c26.496 26.624 43.264 59.328 49.92 93.504 0 1.088 0.128 2.24 0.256 3.2 0.128 0.896 0.256 1.728 0.256 2.432l1.536 6.144a54.4 54.4 0 0 0 15.232 26.048c22.912 23.04 60.608 23.04 83.52 0a59.648 59.648 0 0 0 0-83.84 58.688 58.688 0 0 0-28.544-15.808c-1.024-0.512-2.56-0.512-3.584-0.512-0.448 0-1.088-0.128-1.728-0.256-0.64-0.128-1.28-0.256-1.792-0.256a181.12 181.12 0 0 1-100.8-56.704 13.824 13.824 0 0 0-19.84 0 13.888 13.888 0 0 0-1.536 19.456zM729.36384 600.32l-1.024 1.024-0.768 1.024-0.768 1.024-4.032 4.096a179.968 179.968 0 0 1-93.184 50.048c-1.088 0-2.176 0.192-3.2 0.32a18.496 18.496 0 0 1-2.368 0.192l-6.144 1.536a59.648 59.648 0 0 0-25.984 99.136 59.136 59.136 0 0 0 99.328-28.608c0.512-1.024 0.512-2.56 0.512-3.584l0.192-1.792a182.272 182.272 0 0 1 50.624-97.28l0.128-0.128c1.984-2.048 4.032-4.032 6.016-5.568a13.952 13.952 0 0 0 0-19.84 13.76 13.76 0 0 0-19.328-1.6z" /></svg>