<?xml version="1.0" standalone="no"?><!DOCTYPE svg PUBLIC "-//W3C//DTD SVG 1.1//EN" "http://www.w3.org/Graphics/SVG/1.1/DTD/svg11.dtd"><svg class="icon" width="200px" height="200.00px" viewBox="0 0 1024 1024" version="1.1" xmlns="http://www.w3.org/2000/svg"><path d="M117.248 765.888l0.768 1.728 1.6 2.432c7.488 11.392 15.552 22.4 24.192 33.024a469.312 469.312 0 1 0 743.488-572.928 443.52 443.52 0 0 0-164.288-137.472 469.312 469.312 0 0 0-605.824 673.28z m28.736-370.304a384.192 384.192 0 0 1 495.36-245.312 22.208 22.208 0 0 1-16.96 15.36l-0.256 0.128a1671.68 1671.68 0 0 1-125.056 30.08h-0.256c-89.92 17.664-175.488 49.472-251.584 107.712A424.96 424.96 0 0 0 145.92 395.52z m65.024 354.816a384.448 384.448 0 0 1-19.136-26.24c-39.168-84.672-37.44-154.24-16.32-209.92 21.952-57.92 66.688-105.536 119.68-140.16l1.408-0.896 1.28-1.024c7.808-5.952 15.68-11.648 23.68-16.96-31.872 83.2-24.32 179.328 30.272 261.568 65.152 98.112 180.992 144.96 291.648 130.24-63.872 71.04-166.016 116.736-254.72 106.56-66.112-7.552-131.328-46.72-177.792-103.168z m657.28-382.016a384.192 384.192 0 0 1-258.752 515.072 412.544 412.544 0 0 0 120.064-107.008c56.128-75.968 85.248-161.92 98.752-251.52 6.016-40.128 13.248-80.064 21.376-120.192 3.008-14.656 9.216-26.88 18.56-36.352z m-150.272-180.48a385.984 385.984 0 0 1 101.824 94.464c2.432 3.328 4.8 6.72 7.04 10.112a102.656 102.656 0 0 0-10.688 7.872l-0.256 0.256-0.32 0.256a154.496 154.496 0 0 0-49.472 86.848v0.064c-8.32 41.216-15.872 82.56-22.208 124.48a539.84 539.84 0 0 1-32.64 123.2c-96.704 56.384-226.048 27.904-288.32-65.92-62.912-94.592-38.272-215.424 55.36-281.664 12.032-3.072 24.32-5.76 36.8-8.256 44.8-8.512 88.768-19.968 131.2-31.488a106.88 106.88 0 0 0 71.68-60.224z" /></svg>