<?xml version="1.0" standalone="no"?><!DOCTYPE svg PUBLIC "-//W3C//DTD SVG 1.1//EN" "http://www.w3.org/Graphics/SVG/1.1/DTD/svg11.dtd"><svg class="icon" width="200px" height="200.00px" viewBox="0 0 1024 1024" version="1.1" xmlns="http://www.w3.org/2000/svg"><path d="M509.888 42.688h4.224c78.016 0 139.392 0 188.608 4.48 50.304 4.48 92.032 13.952 129.28 35.52 45.44 26.24 83.136 63.872 109.312 109.312 21.568 37.248 31.04 78.976 35.584 129.28 4.48 49.216 4.48 110.656 4.48 188.608v4.224c0 77.952 0 139.392-4.48 188.608-4.544 50.24-14.08 91.968-35.584 129.28A298.624 298.624 0 0 1 832 941.312c-37.248 21.504-78.976 30.976-129.28 35.584-49.216 4.48-110.592 4.48-188.608 4.48h-4.224c-77.952 0-139.328 0-188.608-4.48-50.24-4.608-91.968-14.08-129.28-35.584A298.624 298.624 0 0 1 82.688 832c-21.504-37.312-30.976-79.04-35.52-129.28-4.48-49.28-4.48-110.656-4.48-188.608v-4.224c0-77.952 0-139.392 4.48-188.608 4.48-50.304 14.016-92.032 35.52-129.28 26.24-45.44 63.936-83.136 109.312-109.312C229.312 61.12 271.04 51.648 321.28 47.104c49.28-4.48 110.72-4.48 188.608-4.48zM329.024 132.096c-44.352 4.032-72.192 11.712-94.336 24.448a213.312 213.312 0 0 0-78.08 78.08c-12.8 22.144-20.48 49.984-24.448 94.336C128 373.888 128 431.424 128 512c0 80.512 0.064 138.112 4.16 183.04 3.968 44.288 11.648 72.128 24.448 94.272 18.688 32.448 45.632 59.392 78.08 78.08 22.144 12.8 49.92 20.48 94.336 24.512 44.928 4.032 102.4 4.096 183.04 4.096 80.512 0 138.048 0 182.976-4.096 44.352-4.032 72.192-11.712 94.336-24.512a213.312 213.312 0 0 0 78.08-78.08c12.8-22.144 20.48-49.92 24.448-94.272C896 650.112 896 592.512 896 512c0-80.576 0-138.112-4.096-183.04-4.032-44.352-11.712-72.192-24.448-94.272a213.312 213.312 0 0 0-78.08-78.08c-22.144-12.8-49.984-20.48-94.336-24.512C650.112 128 592.576 128 512 128c-80.512 0-138.048 0-183.04 4.096z m385.664 134.656a42.752 42.752 0 1 1 85.504 0 42.752 42.752 0 0 1-85.504 0zM512 362.624a149.312 149.312 0 1 0 0 298.688 149.312 149.312 0 0 0 0-298.688zM277.376 512a234.688 234.688 0 1 1 469.312 0 234.688 234.688 0 0 1-469.312 0z" /></svg>