<?xml version="1.0" standalone="no"?><!DOCTYPE svg PUBLIC "-//W3C//DTD SVG 1.1//EN" "http://www.w3.org/Graphics/SVG/1.1/DTD/svg11.dtd"><svg class="icon" width="200px" height="200.00px" viewBox="0 0 1024 1024" version="1.1" xmlns="http://www.w3.org/2000/svg"><path d="M643.2 106.688c77.76 0 140.48 0 189.824 6.592 51.2 6.912 94.336 21.632 128.576 55.872 34.24 34.24 48.96 77.376 55.808 128.576 6.656 49.28 6.656 112 6.656 189.824v48.896c0 77.824 0 140.48-6.656 189.824-6.848 51.2-21.568 94.336-55.808 128.576-34.24 34.24-77.376 48.96-128.64 55.872-49.28 6.592-112 6.592-189.76 6.592H380.864c-77.76 0-140.48 0-189.824-6.592-51.2-6.912-94.336-21.632-128.576-55.872-34.24-34.24-48.96-77.376-55.808-128.576C0.064 676.992 0.064 614.272 0.064 536.448v-48.896c0-77.824 0-140.544 6.656-189.824 6.848-51.2 21.568-94.336 55.808-128.64 34.24-34.176 77.376-48.896 128.64-55.808 49.28-6.656 112-6.656 189.76-6.592h262.272zM704 512L396.928 334.08v355.776L704 512z" /></svg>