<?xml version="1.0" standalone="no"?><!DOCTYPE svg PUBLIC "-//W3C//DTD SVG 1.1//EN" "http://www.w3.org/Graphics/SVG/1.1/DTD/svg11.dtd"><svg class="icon" width="200px" height="200.00px" viewBox="0 0 1024 1024" version="1.1" xmlns="http://www.w3.org/2000/svg"><path d="M682.624 101.632V704l-307.2-128H336.64l-7.488 64h76.224v85.312H319.04l-25.088 213.376h-208.64V256h288.64l308.672-154.368zM250.624 576h-80v277.312h47.36L250.688 576z m-80-85.312h221.888L597.312 576V239.68L394.048 341.312h-223.36v149.376z m696.896-252.352l30.144 30.144c40 40 56.704 99.968 56.704 154.624 0 54.656-16.704 114.624-56.704 154.624l-30.144 30.144-60.352-60.288 30.208-30.208c18.88-18.944 31.68-53.952 31.68-94.272 0-40.32-12.8-75.328-31.68-94.272l-30.208-30.144 60.352-60.352z m-88.896 71.168l30.144 30.208c46.144 46.08 46.144 120.896 0 167.04l-30.08 30.08-60.416-60.288 30.208-30.208c12.8-12.8 12.8-33.536 0-46.272l-30.208-30.208 60.352-60.352z" /></svg>