<?xml version="1.0" standalone="no"?><!DOCTYPE svg PUBLIC "-//W3C//DTD SVG 1.1//EN" "http://www.w3.org/Graphics/SVG/1.1/DTD/svg11.dtd"><svg class="icon" width="200px" height="200.00px" viewBox="0 0 1024 1024" version="1.1" xmlns="http://www.w3.org/2000/svg"><path d="M512 128a384 384 0 1 0 0 768A384 384 0 0 0 512 128zM42.688 512a469.312 469.312 0 1 1 938.688 0A469.312 469.312 0 0 1 42.688 512z m512-327.104v50.624a279.936 279.936 0 0 1 233.792 233.792h50.624v85.312h-50.56a279.936 279.936 0 0 1-233.856 233.856v50.56H469.376v-50.56A279.936 279.936 0 0 1 235.52 554.624h-50.56V469.312h50.56A279.936 279.936 0 0 1 469.376 235.52v-50.624h85.312zM512 317.632a194.368 194.368 0 1 0 0 388.736 194.368 194.368 0 0 0 0-388.736z m0 189.632a4.736 4.736 0 1 0 0 9.472 4.736 4.736 0 0 0 0-9.472zM421.952 512a90.048 90.048 0 1 1 180.16 0 90.048 90.048 0 0 1-180.16 0z" /></svg>