<?xml version="1.0" standalone="no"?><!DOCTYPE svg PUBLIC "-//W3C//DTD SVG 1.1//EN" "http://www.w3.org/Graphics/SVG/1.1/DTD/svg11.dtd"><svg class="icon" width="200px" height="200.00px" viewBox="0 0 1024 1024" version="1.1" xmlns="http://www.w3.org/2000/svg"><path d="M384 78.592l259.2 151.168 295.424-123.072V448h-85.312V234.688l-170.688 71.04V448H597.312V301.824L426.624 202.304v519.872l79.68 46.464-42.944 73.728-82.56-48.192-295.488 123.136V252.8L384 78.592z m-42.688 639.616V202.304L170.624 301.824v487.488l170.688-71.04zM768 576a149.312 149.312 0 0 0-131.392 220.352L839.04 593.92A148.544 148.544 0 0 0 768 576z m131.392 78.272l-202.496 202.432a149.312 149.312 0 0 0 202.432-202.432z m-366.08 71.04a234.688 234.688 0 1 1 469.312 0 234.688 234.688 0 0 1-469.312 0z" /></svg>