<?xml version="1.0" standalone="no"?><!DOCTYPE svg PUBLIC "-//W3C//DTD SVG 1.1//EN" "http://www.w3.org/Graphics/SVG/1.1/DTD/svg11.dtd"><svg class="icon" width="200px" height="200.00px" viewBox="0 0 1024 1024" version="1.1" xmlns="http://www.w3.org/2000/svg"><path d="M320 115.904l-234.688 136.96v664.448L320 820.608V115.968zM405.312 806.784l98.624 58.24A298.56 298.56 0 0 1 618.624 466.56V217.216L405.312 91.2v715.584zM938.624 106.624v373.568A299.776 299.776 0 0 0 704 433.472V203.456l234.688-96.768zM768 490.624A234.688 234.688 0 1 0 768 960a234.688 234.688 0 0 0 0-469.376z m-149.376 234.688A149.312 149.312 0 0 1 839.04 593.92l-202.432 202.432a148.544 148.544 0 0 1-17.92-71.04z m78.272 131.392l202.496-202.432a149.312 149.312 0 0 1-202.432 202.432z" /></svg>