<?xml version="1.0" standalone="no"?><!DOCTYPE svg PUBLIC "-//W3C//DTD SVG 1.1//EN" "http://www.w3.org/Graphics/SVG/1.1/DTD/svg11.dtd"><svg class="icon" width="200px" height="200.00px" viewBox="0 0 1024 1024" version="1.1" xmlns="http://www.w3.org/2000/svg"><path d="M320 115.968L85.312 252.8v664.512L320 820.608V115.968zM405.312 806.848L512 869.76v-176.448A266.24 266.24 0 0 1 618.624 480V217.216L405.312 91.2v715.648zM938.624 106.688V480A266.752 266.752 0 0 0 704 437.312V203.328l234.688-96.704zM981.312 693.376c0 40.448-11.904 78.208-32.32 109.824l71.36 71.552-60.416 60.288-71.296-71.488a202.688 202.688 0 1 1 92.672-170.24z m-85.312 0a117.312 117.312 0 1 0-34.624 83.2l0.32-0.32c21.12-21.248 34.304-50.56 34.304-82.88z" /></svg>