<?xml version="1.0" standalone="no"?><!DOCTYPE svg PUBLIC "-//W3C//DTD SVG 1.1//EN" "http://www.w3.org/Graphics/SVG/1.1/DTD/svg11.dtd"><svg class="icon" width="200px" height="200.00px" viewBox="0 0 1024 1024" version="1.1" xmlns="http://www.w3.org/2000/svg"><path d="M384 78.592l259.2 151.168 295.424-123.072v362.624h-85.312V234.624l-170.688 71.168v248.832H597.312v-252.8L426.624 202.304v519.872l79.68 46.464-42.944 73.728-82.56-48.192-295.488 123.136V252.8L384 78.592z m-42.688 639.616V202.304L170.624 301.824v487.488l170.688-71.04z m502.912-202.56l176.128 176.128-310.912 310.848H533.376l-0.064-176.064 310.912-310.912z m-39.36 160l55.424 55.424 39.36-39.296-55.424-55.424-39.36 39.296z m-4.928 115.84l-55.424-55.488-125.888 125.888v55.424h55.488l125.824-125.888z" /></svg>