<?xml version="1.0" standalone="no"?><!DOCTYPE svg PUBLIC "-//W3C//DTD SVG 1.1//EN" "http://www.w3.org/Graphics/SVG/1.1/DTD/svg11.dtd"><svg class="icon" width="200px" height="200.00px" viewBox="0 0 1024 1024" version="1.1" xmlns="http://www.w3.org/2000/svg"><path d="M512 606.464l-24.192-16.64-0.128-0.064-0.128-0.128-0.576-0.384-1.728-1.216a559.744 559.744 0 0 1-27.072-20.928 621.952 621.952 0 0 1-63.04-59.648c-44.544-48.704-96.512-122.88-96.512-208.768a213.312 213.312 0 1 1 426.688 0c0 85.824-51.968 160-96.512 208.768a621.888 621.888 0 0 1-90.112 80.64l-1.728 1.152-0.512 0.384-0.192 0.128-24.32 16.64z m64-307.84a64 64 0 1 0-128 0 64 64 0 0 0 128 0zM213.312 426.688h-128v512h853.312v-512H768V512h85.312v14.528l-4.48-5.888-28.928 22.016 33.408 44.16v266.56H170.624V604.736l52.672-32.192L186.304 512h27.008V426.688zM184.192 512l-13.568 8.32V512h13.568zM758.4 694.592l37.44-20.416-40.704-74.944-37.504 20.352a426.24 426.24 0 0 1-48.64 22.592l31.104 79.488a511.36 511.36 0 0 0 58.24-27.072zM255.552 686.848c18.56 10.88 37.76 20.48 57.408 28.864l39.296 16.768 33.472-78.528-39.296-16.704a426.56 426.56 0 0 1-47.872-24.064l-43.008 73.664zM539.264 756.16l42.624-2.176-4.224-85.184-42.624 2.112c-17.856 0.896-35.776 0.64-53.568-0.64l-6.464 85.056c21.376 1.6 42.88 1.92 64.256 0.832z" /></svg>