<?xml version="1.0" standalone="no"?><!DOCTYPE svg PUBLIC "-//W3C//DTD SVG 1.1//EN" "http://www.w3.org/Graphics/SVG/1.1/DTD/svg11.dtd"><svg class="icon" width="200px" height="200.00px" viewBox="0 0 1024 1024" version="1.1" xmlns="http://www.w3.org/2000/svg"><path d="M384 78.592l259.2 151.168 295.424-123.072v320h-85.312v-192l-170.688 71.04v120.96H597.312v-124.8L426.624 202.24v519.872l79.68 46.464-42.944 73.728-82.56-48.192-295.488 123.136V252.8L384 78.592z m-42.688 639.616V202.304L170.624 301.824v487.488l170.688-71.04z m234.56-206.336h384v240.384a128 128 0 0 1-57.984 107.136l-134.016 87.552-133.952-87.552a128 128 0 0 1-58.048-107.136V511.872z m85.376 85.376v155.008c0 14.4 7.232 27.84 19.328 35.712l87.296 57.088 87.36-57.088a42.688 42.688 0 0 0 19.328-35.712V597.248h-213.312z" /></svg>