<?xml version="1.0" standalone="no"?><!DOCTYPE svg PUBLIC "-//W3C//DTD SVG 1.1//EN" "http://www.w3.org/Graphics/SVG/1.1/DTD/svg11.dtd"><svg class="icon" width="200px" height="200.00px" viewBox="0 0 1024 1024" version="1.1" xmlns="http://www.w3.org/2000/svg"><path d="M85.312 256a170.688 170.688 0 0 1 336-42.688h350.208l3.456 0.64c26.752 4.48 65.664 17.28 98.944 42.88 34.432 26.368 64.704 68.032 64.704 127.168 0 59.136-30.272 100.864-64.64 127.232-33.344 25.536-72.32 38.4-99.008 42.88l-3.456 0.576H256c-10.112 0-32.96 6.336-53.376 22.656-19.072 15.232-32 35.84-32 62.72 0 26.752 12.928 47.36 32 62.656 20.416 16.32 43.264 22.656 53.376 22.656h469.312V618.688L924.416 768l-199.104 149.376v-106.688H256c-32.64 0-73.728-15.04-106.688-41.344-34.24-27.456-64-70.784-64-129.28 0-58.56 29.76-101.952 64-129.344 32.96-26.368 74.112-41.408 106.688-41.408h508.16c16-3.2 39.104-11.52 57.856-25.856 18.944-14.528 31.296-33.28 31.296-59.456 0-26.24-12.352-44.928-31.296-59.52a148.224 148.224 0 0 0-57.856-25.792H421.248A170.752 170.752 0 0 1 85.312 256z" /></svg>