<?xml version="1.0" standalone="no"?><!DOCTYPE svg PUBLIC "-//W3C//DTD SVG 1.1//EN" "http://www.w3.org/Graphics/SVG/1.1/DTD/svg11.dtd"><svg class="icon" width="200px" height="200.00px" viewBox="0 0 1024 1024" version="1.1" xmlns="http://www.w3.org/2000/svg"><path d="M320 115.968L85.312 252.8v664.512L320 820.608V115.968zM405.312 806.848l74.688 44.096V768c0-104.32 55.488-195.84 138.624-246.272V217.216L405.312 91.2v715.648zM938.624 106.688v429.312A288.96 288.96 0 0 0 704 487.168V203.392l234.688-96.704zM810.624 602.752V544h-85.312v58.752a170.496 170.496 0 0 0-79.104 45.696l-50.88-29.44-42.688 73.92 50.88 29.44a170.816 170.816 0 0 0 0 91.328l-50.88 29.376 42.688 73.92 50.88-29.44c21.376 21.824 48.64 37.888 79.104 45.76v58.688h85.312v-58.688a170.496 170.496 0 0 0 79.104-45.76l50.88 29.44 42.688-73.92-50.88-29.376a170.88 170.88 0 0 0 0-91.392l50.88-29.312-42.688-73.92-50.88 29.376a170.496 170.496 0 0 0-79.104-45.696z m-115.84 121.344a85.248 85.248 0 0 1 146.368 0l1.536 2.688a84.992 84.992 0 0 1 0 82.496l-1.536 2.688a85.312 85.312 0 0 1-146.368 0l-1.536-2.688a84.928 84.928 0 0 1 0-82.56l1.536-2.688z" /></svg>