<?xml version="1.0" standalone="no"?><!DOCTYPE svg PUBLIC "-//W3C//DTD SVG 1.1//EN" "http://www.w3.org/Graphics/SVG/1.1/DTD/svg11.dtd"><svg class="icon" width="200px" height="200.00px" viewBox="0 0 1024 1024" version="1.1" xmlns="http://www.w3.org/2000/svg"><path d="M512 606.464l-0.704-0.448a770.56 770.56 0 0 1-53.12-38.912 621.952 621.952 0 0 1-63.04-59.648c-44.544-48.704-96.512-122.88-96.512-208.768a213.312 213.312 0 1 1 426.688 0c0 85.824-51.968 160-96.512 208.768-23.04 25.216-45.952 45.568-63.04 59.648-17.024 14.016-35.008 26.432-53.12 38.912L512 606.464z m64-307.84a64 64 0 1 0-128 0 64 64 0 0 0 128 0zM298.624 426.688H132.48L80.32 896h863.36l-52.16-469.312h-166.208V512h89.792l33.216 298.688H175.68L208.832 512h89.792V426.688z" /></svg>