<?xml version="1.0" standalone="no"?><!DOCTYPE svg PUBLIC "-//W3C//DTD SVG 1.1//EN" "http://www.w3.org/Graphics/SVG/1.1/DTD/svg11.dtd"><svg class="icon" width="200px" height="200.00px" viewBox="0 0 1024 1024" version="1.1" xmlns="http://www.w3.org/2000/svg"><path d="M320 115.968L85.312 252.8v664.512L320 820.608V115.968zM405.312 806.848l74.688 44.096v-136.32c0-104.32 55.488-195.776 138.624-246.272V217.216L405.312 91.2v715.648zM938.624 106.688v376A288.96 288.96 0 0 0 704 433.856v-230.4l234.688-96.768zM768 1011.264l-8.704-5.76a494.72 494.72 0 0 1-43.2-31.168 547.584 547.584 0 0 1-59.648-56.256c-42.496-46.656-91.136-118.016-91.136-203.392a202.688 202.688 0 0 1 405.312 0c0 85.376-48.64 156.8-91.072 203.392a548.16 548.16 0 0 1-79.616 71.552 602.88 602.88 0 0 1-23.296 15.936l-8.64 5.76z m53.312-328.576h-106.688V768h106.688v-85.312z" /></svg>