<?xml version="1.0" standalone="no"?><!DOCTYPE svg PUBLIC "-//W3C//DTD SVG 1.1//EN" "http://www.w3.org/Graphics/SVG/1.1/DTD/svg11.dtd"><svg class="icon" width="200px" height="200.00px" viewBox="0 0 1024 1024" version="1.1" xmlns="http://www.w3.org/2000/svg"><path d="M512 170.688a128 128 0 0 0-128 128c0 52.8 33.344 106.56 74.112 151.168 19.456 21.312 39.04 38.784 53.888 51.008 14.848-12.224 34.368-29.696 53.824-51.008C606.592 405.248 640 351.488 640 298.688a128 128 0 0 0-128-128z m0 435.776c-11.008-7.552-22.144-14.912-32.832-22.912a621.952 621.952 0 0 1-83.968-76.16c-44.608-48.64-96.576-122.88-96.576-208.704a213.312 213.312 0 1 1 426.688 0c0 85.824-51.968 160-96.512 208.768a621.888 621.888 0 0 1-83.968 76.16c-10.688 7.936-21.888 15.296-32.832 22.848z m0-297.152A10.688 10.688 0 1 0 512 288a10.688 10.688 0 0 0 0 21.312z m-74.688-10.624a74.688 74.688 0 1 1 149.312 0 74.688 74.688 0 0 1-149.312 0z m-352 128h128V512h-27.008l36.992 60.544-52.672 32.192v248.64h682.688V586.752l-33.408-44.16 28.992-21.952 4.416 5.888V512H768V426.688h170.624v512H85.312v-512zM170.624 520.32L184.192 512h-13.568v8.32z m625.28 153.856l-37.504 20.416a511.36 511.36 0 0 1-58.304 27.072l-31.04-79.488c16.64-6.464 32.832-14.08 48.576-22.592l37.504-20.352 40.704 74.944z m-482.944 41.6a512.128 512.128 0 0 1-57.408-28.928l43.008-73.664c15.488 8.96 31.424 17.024 47.872 24.064l39.296 16.704-33.472 78.528-39.296-16.768z m268.928 38.272l-42.624 2.112c-21.376 1.024-42.88 0.768-64.256-0.832l6.4-85.12c17.92 1.344 35.776 1.6 53.632 0.704l42.624-2.112 4.224 85.248z" /></svg>