<?xml version="1.0" standalone="no"?><!DOCTYPE svg PUBLIC "-//W3C//DTD SVG 1.1//EN" "http://www.w3.org/Graphics/SVG/1.1/DTD/svg11.dtd"><svg class="icon" width="200px" height="200.00px" viewBox="0 0 1024 1024" version="1.1" xmlns="http://www.w3.org/2000/svg"><path d="M320 115.968L85.312 252.8v664.512L320 820.608V115.968zM405.312 806.848l85.312 50.368V704a277.12 277.12 0 0 1 128-233.728V217.216L405.312 91.2v715.648zM938.624 106.688v378.688A278.144 278.144 0 0 0 704 434.112V203.392l234.688-96.704zM906.624 650.688v32H960V960h-384v-277.312h53.376v-32a138.688 138.688 0 0 1 277.312 0z m-85.312 0a53.312 53.312 0 0 0-106.688 0v32h106.688v-32z" /></svg>