<?xml version="1.0" standalone="no"?><!DOCTYPE svg PUBLIC "-//W3C//DTD SVG 1.1//EN" "http://www.w3.org/Graphics/SVG/1.1/DTD/svg11.dtd"><svg class="icon" width="200px" height="200.00px" viewBox="0 0 1024 1024" version="1.1" xmlns="http://www.w3.org/2000/svg"><path d="M384 128c49.024 0 85.312 37.824 85.312 89.152 0 34.56-22.336 70.912-52.352 102.592-11.52 12.224-23.168 22.656-32.96 30.72a369.728 369.728 0 0 1-33.024-30.72c-30.016-31.68-52.352-68.032-52.352-102.592C298.624 165.696 334.464 128 384 128z m166.72 51.2C534.72 102.272 470.464 42.688 384 42.688 296.96 42.688 233.088 102.4 217.152 179.2h-131.84v674.112h384V768H170.624V631.488l83.52-44.544 143.04 90.56 45.696-72.064-185.088-117.184-87.168 46.464V264.512h49.28c13.056 47.232 43.264 86.656 69.12 113.92a459.712 459.712 0 0 0 69.44 59.776l1.408 0.896 0.448 0.32 0.192 0.064v0.064l23.488 15.36 23.36-15.36h0.128l0.128-0.128 0.448-0.32 1.408-0.896 4.8-3.392a459.712 459.712 0 0 0 64.704-56.448c25.792-27.2 56-66.56 69.12-113.856h305.216V448h85.312V179.2h-387.84zM736 576a117.312 117.312 0 0 1 83.008 200.256l-0.32 0.32A117.312 117.312 0 1 1 736 576z m170.304 227.2a202.688 202.688 0 1 0-60.288 60.352l71.232 71.424 60.416-60.224-71.36-71.552z" /></svg>