<?xml version="1.0" standalone="no"?><!DOCTYPE svg PUBLIC "-//W3C//DTD SVG 1.1//EN" "http://www.w3.org/Graphics/SVG/1.1/DTD/svg11.dtd"><svg class="icon" width="200px" height="200.00px" viewBox="0 0 1024 1024" version="1.1" xmlns="http://www.w3.org/2000/svg"><path d="M643.2 229.76l295.424-123.072v664.448L640 945.408l-259.2-151.232-295.488 123.136V252.8L384 78.592l259.2 151.168zM320 320a74.688 74.688 0 1 0 0 149.312A74.688 74.688 0 0 0 320 320z m277.312 42.688a74.688 74.688 0 1 0 0 149.312 74.688 74.688 0 0 0 0-149.312zM426.624 512a74.688 74.688 0 1 0 0 149.312 74.688 74.688 0 0 0 0-149.312zM704 554.624A74.688 74.688 0 1 0 704 704a74.688 74.688 0 0 0 0-149.376z" /></svg>