<?xml version="1.0" standalone="no"?><!DOCTYPE svg PUBLIC "-//W3C//DTD SVG 1.1//EN" "http://www.w3.org/Graphics/SVG/1.1/DTD/svg11.dtd"><svg class="icon" width="200px" height="200.00px" viewBox="0 0 1024 1024" version="1.1" xmlns="http://www.w3.org/2000/svg"><path d="M384 78.592l259.2 151.168 295.424-123.072v664.448L640 945.408l-259.2-151.232-295.488 123.136V252.8L384 78.592zM170.624 301.824v487.488l216.512-90.24L640 846.656l213.376-124.416V234.624L636.8 324.928 384 177.408 170.624 301.824zM320 405.312A10.688 10.688 0 1 0 320 384a10.688 10.688 0 0 0 0 21.312z m-74.688-10.688a74.688 74.688 0 1 1 149.312 0 74.688 74.688 0 0 1-149.312 0z m352 53.376a10.688 10.688 0 1 0 0-21.376 10.688 10.688 0 0 0 0 21.376z m-74.688-10.688a74.688 74.688 0 1 1 149.376 0 74.688 74.688 0 0 1-149.376 0z m-96 160a10.688 10.688 0 1 0 0-21.312 10.688 10.688 0 0 0 0 21.312zM352 586.624a74.688 74.688 0 1 1 149.312 0 74.688 74.688 0 0 1-149.312 0zM704 640a10.688 10.688 0 1 0 0-21.312 10.688 10.688 0 0 0 0 21.312z m-74.688-10.688a74.688 74.688 0 1 1 149.312 0 74.688 74.688 0 0 1-149.312 0z" /></svg>