<?xml version="1.0" standalone="no"?><!DOCTYPE svg PUBLIC "-//W3C//DTD SVG 1.1//EN" "http://www.w3.org/Graphics/SVG/1.1/DTD/svg11.dtd"><svg class="icon" width="200px" height="200.00px" viewBox="0 0 1024 1024" version="1.1" xmlns="http://www.w3.org/2000/svg"><path d="M277.376 115.968L42.688 252.8v664.512l234.688-96.768V115.968zM362.688 806.848L576 932.8v-7.36a276.48 276.48 0 0 1-85.312-200.128A276.48 276.48 0 0 1 576 525.312V217.216L362.688 91.2v715.648zM896 106.688v372.544A276.16 276.16 0 0 0 768 448a276.48 276.48 0 0 0-106.624 21.248V203.392L896 106.688zM707.712 924.032l301.696-301.696-60.352-60.352-241.344 241.408-120.704-120.704-60.352 60.352 181.056 180.992z" /></svg>