<?xml version="1.0" standalone="no"?><!DOCTYPE svg PUBLIC "-//W3C//DTD SVG 1.1//EN" "http://www.w3.org/Graphics/SVG/1.1/DTD/svg11.dtd"><svg class="icon" width="200px" height="200.00px" viewBox="0 0 1024 1024" version="1.1" xmlns="http://www.w3.org/2000/svg"><path d="M85.312 85.312h853.312v853.376H85.312V85.376z m85.312 85.376v682.624h682.688V170.752H170.624z m533.376 128a21.312 21.312 0 0 0-21.376 21.312c0 9.472 6.72 23.296 20.864 38.72l0.512 0.576 0.512-0.576c14.08-15.424 20.8-29.248 20.8-38.72A21.312 21.312 0 0 0 704 298.688z m0 169.088c-12.544-8.576-25.408-16.832-37.12-26.496a259.584 259.584 0 0 1-26.368-24.96c-17.92-19.584-43.2-53.76-43.2-96.32a106.688 106.688 0 0 1 213.312 0c0 42.56-25.28 76.8-43.136 96.32a259.584 259.584 0 0 1-26.432 24.96c-11.712 9.6-24.576 17.92-37.12 26.496z m-341.376-41.088A21.312 21.312 0 0 0 341.312 448c0 9.472 6.72 23.296 20.8 38.72l0.512 0.576 0.512-0.576C377.216 471.296 384 457.472 384 448a21.312 21.312 0 0 0-21.376-21.312z m0 169.088c-9.408-6.464-19.072-12.736-28.224-19.584a259.84 259.84 0 0 1-35.2-31.936C281.216 524.8 256 490.56 256 448a106.688 106.688 0 0 1 213.312 0c0 42.56-25.28 76.8-43.2 96.32a259.84 259.84 0 0 1-35.2 31.936c-9.216 6.784-18.816 13.056-28.288 19.52z m481.6-16.128l-250.56 93.952-29.952-79.872 250.56-93.952 29.952 79.872z m-341.312 128l-250.56 93.952-29.952-79.872L472.96 627.776l29.952 79.872z" /></svg>