<?xml version="1.0" standalone="no"?><!DOCTYPE svg PUBLIC "-//W3C//DTD SVG 1.1//EN" "http://www.w3.org/Graphics/SVG/1.1/DTD/svg11.dtd"><svg class="icon" width="200px" height="200.00px" viewBox="0 0 1024 1024" version="1.1" xmlns="http://www.w3.org/2000/svg"><path d="M384 78.592l259.2 151.168 295.424-123.072V448h-85.312V234.688l-170.688 71.04V448H597.312V301.824L426.624 202.304v519.872l79.68 46.464-42.944 73.728-82.56-48.192-295.488 123.136V252.8L384 78.592z m-42.688 639.616V202.304L170.624 301.824v487.488l170.688-71.04zM768 457.856l94.336 137.6 160 47.232-101.76 132.224 4.608 166.784L768 885.824l-157.248 55.872 4.608-166.784-101.76-132.224 160-47.168L768 457.856z m0 150.912l-41.088 59.968-69.76 20.608 44.352 57.6-1.984 72.64 68.48-24.32 68.48 24.32-1.984-72.64 44.288-57.6-69.76-20.608L768 608.768z" /></svg>