<?xml version="1.0" standalone="no"?><!DOCTYPE svg PUBLIC "-//W3C//DTD SVG 1.1//EN" "http://www.w3.org/Graphics/SVG/1.1/DTD/svg11.dtd"><svg class="icon" width="200px" height="200.00px" viewBox="0 0 1024 1024" version="1.1" xmlns="http://www.w3.org/2000/svg"><path d="M320 115.904l-234.688 136.96v664.448L320 820.608V115.968zM405.312 806.784l119.424 70.528a298.56 298.56 0 0 1 93.952-432V217.088L405.248 91.2v715.584zM938.624 106.624V458.88A299.712 299.712 0 0 0 704 412.16V203.392l234.688-96.768zM862.336 595.456L768 457.856l-94.336 137.6-160 47.168 101.696 132.288-4.608 166.784L768 885.824l157.184 55.872-4.544-166.784 101.76-132.288-160.064-47.168z" /></svg>