<?xml version="1.0" standalone="no"?><!DOCTYPE svg PUBLIC "-//W3C//DTD SVG 1.1//EN" "http://www.w3.org/Graphics/SVG/1.1/DTD/svg11.dtd"><svg class="icon" width="200px" height="200.00px" viewBox="0 0 1024 1024" version="1.1" xmlns="http://www.w3.org/2000/svg"><path d="M512 78.592l298.688 174.208v230.464c43.904 19.328 82.176 43.392 111.36 72 35.328 34.56 59.328 77.824 59.328 127.36 0 83.84-66.816 148.16-148.608 189.056-84.288 42.112-197.76 66.944-320.768 66.944-123.008 0-236.48-24.832-320.768-66.944C109.504 830.72 42.688 766.464 42.688 682.624c0-49.536 23.936-92.8 59.264-127.36 29.184-28.608 67.456-52.672 111.36-72v-230.4L512 78.528zM213.376 578.496a248.896 248.896 0 0 0-51.712 37.76C137.6 639.808 128 662.4 128 682.624c0 34.048 28.736 76.416 101.376 112.704 70.144 35.072 169.984 57.984 282.624 57.984 112.64 0 212.48-22.912 282.624-57.984C867.328 759.04 896 716.672 896 682.688c0-20.288-9.536-42.88-33.6-66.432a248.96 248.96 0 0 0-51.712-37.76v22.016L512 774.72 213.376 600.512v-22.016z m512-27.008v-194.56L554.688 451.712v199.232l170.688-99.52z m-256 99.52V451.84L298.688 356.864v194.56l170.688 99.584zM336 280l176 97.856 175.936-97.856L512 177.408 336.064 280z" /></svg>