<?xml version="1.0" standalone="no"?><!DOCTYPE svg PUBLIC "-//W3C//DTD SVG 1.1//EN" "http://www.w3.org/Graphics/SVG/1.1/DTD/svg11.dtd"><svg class="icon" width="200px" height="200.00px" viewBox="0 0 1024 1024" version="1.1" xmlns="http://www.w3.org/2000/svg"><path d="M512 170.688a128 128 0 0 0-128 128c0 52.8 33.344 106.56 74.112 151.168 19.456 21.312 39.04 38.784 53.888 51.008 14.848-12.224 34.368-29.696 53.824-51.008C606.592 405.248 640 351.488 640 298.688a128 128 0 0 0-128-128z m0 435.776l-24.192-16.64-0.128-0.064-0.128-0.128-0.576-0.384-1.728-1.216a559.744 559.744 0 0 1-27.072-20.928 621.952 621.952 0 0 1-63.04-59.648c-44.544-48.704-96.512-122.88-96.512-208.768a213.312 213.312 0 1 1 426.688 0c0 85.824-51.968 160-96.512 208.768a621.888 621.888 0 0 1-90.112 80.64l-1.728 1.152-0.512 0.384-0.192 0.128-24.32 16.64z m0-297.152A10.688 10.688 0 1 0 512 288a10.688 10.688 0 0 0 0 21.312z m-74.688-10.624a74.688 74.688 0 1 1 149.312 0 74.688 74.688 0 0 1-149.312 0z m-352 128h213.312V512h-128v277.184l216.576-90.24L640 846.592l213.312-124.416V512h-128V426.688h213.312v344.512L640 945.408 380.8 794.048l-295.488 123.2V426.688z" /></svg>