<?xml version="1.0" standalone="no"?><!DOCTYPE svg PUBLIC "-//W3C//DTD SVG 1.1//EN" "http://www.w3.org/Graphics/SVG/1.1/DTD/svg11.dtd"><svg class="icon" width="200px" height="200.00px" viewBox="0 0 1024 1024" version="1.1" xmlns="http://www.w3.org/2000/svg"><path d="M384 78.592l259.2 151.168 295.424-123.072v362.624h-85.312V234.624l-170.688 71.168v163.52H597.312V301.824L426.624 202.304v519.872l79.68 46.464-42.944 73.728-82.56-48.192-295.488 123.136V252.8L384 78.592z m-42.688 639.616V202.304L170.624 301.824v487.488l170.688-71.04zM810.624 544v58.688c30.528 7.872 57.728 23.936 79.104 45.76l50.88-29.44 42.688 73.92-50.816 29.376a170.88 170.88 0 0 1 0 91.392l50.816 29.312-42.688 73.92-50.88-29.376c-21.376 21.76-48.64 37.888-79.104 45.696v58.752h-85.312v-58.752a170.496 170.496 0 0 1-79.104-45.696l-50.88 29.44-42.688-73.92 50.88-29.44a170.88 170.88 0 0 1 0-91.328l-50.88-29.376 42.688-73.92 50.88 29.44c21.376-21.824 48.64-37.888 79.104-45.76V544h85.312z m-117.376 182.72a85.056 85.056 0 0 0 0 82.56l1.536 2.688a85.312 85.312 0 0 0 146.368 0l1.536-2.752a84.992 84.992 0 0 0 0-82.496l-1.536-2.688a85.312 85.312 0 0 0-146.368 0l-1.536 2.688z" /></svg>