<?xml version="1.0" standalone="no"?><!DOCTYPE svg PUBLIC "-//W3C//DTD SVG 1.1//EN" "http://www.w3.org/Graphics/SVG/1.1/DTD/svg11.dtd"><svg class="icon" width="200px" height="200.00px" viewBox="0 0 1024 1024" version="1.1" xmlns="http://www.w3.org/2000/svg"><path d="M320 78.592l195.2 113.856L746.56 96v272l192-80v520.512L704 945.408l-195.2-113.92L277.312 928v-272l-192 80V215.488L320 78.592z m-42.688 484.928V407.488l218.56-127.488L320 177.408l-149.376 87.04V608l106.688-44.48z m250.24-283.84l133.76 78.08V224l-133.76 55.68z m219.072 180.736v361.28l106.688-62.208V416l-106.688 44.416z m-85.312 361.28V456.512L554.624 394.24v365.184l106.688 62.208z m-192-66.176V394.304l-106.688 62.208V800l106.688-44.48z" /></svg>