<?xml version="1.0" standalone="no"?><!DOCTYPE svg PUBLIC "-//W3C//DTD SVG 1.1//EN" "http://www.w3.org/Graphics/SVG/1.1/DTD/svg11.dtd"><svg class="icon" width="200px" height="200.00px" viewBox="0 0 1024 1024" version="1.1" xmlns="http://www.w3.org/2000/svg"><path d="M256 170.688a85.312 85.312 0 1 0 0 170.624 85.312 85.312 0 0 0 0-170.624zM85.312 256a170.688 170.688 0 0 1 336-42.688H768a170.624 170.624 0 1 1 0 341.376H256a85.312 85.312 0 0 0 0 170.688h469.312V618.688L924.416 768l-199.104 149.376v-106.688H256a170.688 170.688 0 1 1 0-341.312h512a85.312 85.312 0 0 0 0-170.688H421.248A170.752 170.752 0 0 1 85.312 256z" /></svg>