<?xml version="1.0" standalone="no"?><!DOCTYPE svg PUBLIC "-//W3C//DTD SVG 1.1//EN" "http://www.w3.org/Graphics/SVG/1.1/DTD/svg11.dtd"><svg class="icon" width="200px" height="200.00px" viewBox="0 0 1024 1024" version="1.1" xmlns="http://www.w3.org/2000/svg"><path d="M512 606.464l0.64-0.448c18.112-12.48 36.096-24.96 53.12-38.912 17.088-14.08 40-34.432 63.04-59.648 44.544-48.704 96.512-122.88 96.512-208.768a213.312 213.312 0 1 0-426.688 0c0 85.824 51.968 160 96.512 208.768 23.04 25.216 45.952 45.568 63.04 59.648 17.024 14.016 35.008 26.432 53.12 38.912l0.64 0.448z m64-307.84a64 64 0 1 1-128 0 64 64 0 0 1 128 0zM298.624 426.688H85.312v490.56l295.488-123.2L640 945.408l298.624-174.208V426.688h-213.312V512h128v210.176L640 846.592l-252.8-147.648-216.576 90.24v-277.12h128V426.624z" /></svg>