<?xml version="1.0" standalone="no"?><!DOCTYPE svg PUBLIC "-//W3C//DTD SVG 1.1//EN" "http://www.w3.org/Graphics/SVG/1.1/DTD/svg11.dtd"><svg class="icon" width="200px" height="200.00px" viewBox="0 0 1024 1024" version="1.1" xmlns="http://www.w3.org/2000/svg"><path d="M384 78.592l259.2 151.168 295.424-123.072v362.624h-85.312V234.624l-170.688 71.168v163.52H597.312V301.824L426.624 202.304v519.872l79.68 46.464-42.944 73.728-82.56-48.192-295.488 123.136V252.8L384 78.592z m-42.688 639.616V202.304L170.624 301.824v487.488l170.688-71.04zM768 597.312c29.44 0 53.312 23.872 53.312 53.312v32h-106.688v-32c0-29.44 23.872-53.312 53.376-53.312z m138.624 85.312v-32a138.688 138.688 0 1 0-277.312 0v32h-53.376V960h384v-277.376h-53.312z m-32 85.376v106.624h-213.376V768h213.376z" /></svg>