<?xml version="1.0" standalone="no"?><!DOCTYPE svg PUBLIC "-//W3C//DTD SVG 1.1//EN" "http://www.w3.org/Graphics/SVG/1.1/DTD/svg11.dtd"><svg class="icon" width="200px" height="200.00px" viewBox="0 0 1024 1024" version="1.1" xmlns="http://www.w3.org/2000/svg"><path d="M384 42.688c86.4 0 150.72 59.584 166.72 136.512h387.904v298.112a267.648 267.648 0 0 0-85.312-66.176v-146.56h-305.28c-13.056 47.168-43.264 86.592-69.056 113.856a459.712 459.712 0 0 1-64.704 56.384c-7.232 5.12-14.72 9.984-22.144 14.784L384 454.912l-8.192-5.312c-7.424-4.8-14.848-9.6-22.08-14.72a459.712 459.712 0 0 1-64.704-56.448c-25.856-27.264-56.064-66.688-69.12-113.92h-49.28v270.208L257.92 488.32l212.864 134.976a266.048 266.048 0 0 0 91.968 230.08H85.312V179.2h131.84C233.152 102.4 296.96 42.688 384 42.688zM298.624 217.152c0 34.56 22.4 70.912 52.352 102.592 11.52 12.224 23.232 22.656 33.024 30.72 9.792-8.064 21.44-18.496 32.96-30.72 30.08-31.68 52.352-68.032 52.352-102.592C469.312 165.76 433.024 128 384 128c-49.536 0-85.376 37.696-85.376 89.152zM736 533.312a117.312 117.312 0 0 1 83.008 200.256l-0.32 0.32A117.312 117.312 0 1 1 736 533.312z m170.304 227.2a202.688 202.688 0 1 0-60.288 60.352l71.232 71.488 60.416-60.288-71.36-71.552z" /></svg>