<?xml version="1.0" standalone="no"?><!DOCTYPE svg PUBLIC "-//W3C//DTD SVG 1.1//EN" "http://www.w3.org/Graphics/SVG/1.1/DTD/svg11.dtd"><svg class="icon" width="200px" height="200.00px" viewBox="0 0 1024 1024" version="1.1" xmlns="http://www.w3.org/2000/svg"><path d="M85.312 85.312h853.312v853.376H85.312V85.376z m85.312 85.376v682.624h682.688V170.752H170.624zM384 256v42.688h85.312V256h85.312v42.688H640V256h85.312v42.688H768V384h-42.688v85.312H768v85.376h-42.688V640H768v85.376h-42.688V768H640v-42.624H554.624V768H469.312v-42.624H384V768H298.624v-42.624H256V640h42.624V554.688H256V469.376h42.624V384H256V298.688h42.624V256H384z m0 128v85.312h85.312V384H384z m170.624 0v85.312H640V384H554.624zM640 554.688H554.624V640H640V554.688zM469.312 640V554.688H384V640h85.312z" /></svg>