<?xml version="1.0" standalone="no"?><!DOCTYPE svg PUBLIC "-//W3C//DTD SVG 1.1//EN" "http://www.w3.org/Graphics/SVG/1.1/DTD/svg11.dtd"><svg class="icon" width="200px" height="200.00px" viewBox="0 0 1024 1024" version="1.1" xmlns="http://www.w3.org/2000/svg"><path d="M384 78.592l259.2 151.168 295.424-123.072V448h-85.312V234.688l-170.688 71.04V448H597.312V301.824L426.624 202.304v519.872l79.68 46.464-42.944 73.728-82.56-48.192-295.488 123.136V252.8L384 78.592z m-42.688 639.616V202.304L170.624 301.824v487.488l170.688-71.04zM736 576a117.312 117.312 0 0 1 83.008 200.256l-0.32 0.32A117.312 117.312 0 1 1 736 576z m170.304 227.2a202.688 202.688 0 1 0-60.288 60.352l71.232 71.424 60.416-60.224-71.36-71.552z" /></svg>