<?xml version="1.0" standalone="no"?><!DOCTYPE svg PUBLIC "-//W3C//DTD SVG 1.1//EN" "http://www.w3.org/Graphics/SVG/1.1/DTD/svg11.dtd"><svg class="icon" width="200px" height="200.00px" viewBox="0 0 1024 1024" version="1.1" xmlns="http://www.w3.org/2000/svg"><path d="M384 469.312V384h85.312v85.312H384zM554.624 469.312V384H640v85.312H554.624zM554.624 554.688H640V640H554.624V554.688zM469.312 554.688V640H384V554.688h85.312zM938.624 85.312H85.312v853.376h853.312V85.376zM384 298.752h85.312V256h85.312v42.688H640V256h85.312v42.688H768V384h-42.688v85.312H768v85.376h-42.688V640H768v85.376h-42.688V768H640v-42.624H554.624V768H469.312v-42.624H384V768H298.624v-42.624H256V640h42.624V554.688H256V469.376h42.624V384H256V298.688h42.624V256H384v42.688z" /></svg>