<?xml version="1.0" standalone="no"?><!DOCTYPE svg PUBLIC "-//W3C//DTD SVG 1.1//EN" "http://www.w3.org/Graphics/SVG/1.1/DTD/svg11.dtd"><svg class="icon" width="200px" height="200.00px" viewBox="0 0 1024 1024" version="1.1" xmlns="http://www.w3.org/2000/svg"><path d="M487.808 589.824l24.192 16.64 24.192-16.64 0.064-0.064 0.192-0.128 0.512-0.32 1.728-1.28 6.144-4.48a621.888 621.888 0 0 0 83.968-76.16c44.544-48.64 96.512-122.88 96.512-208.704a213.312 213.312 0 1 0-426.688 0c0 85.824 51.968 160 96.512 208.768a621.952 621.952 0 0 0 90.112 80.64l1.728 1.152 0.576 0.384 0.128 0.128h0.128zM512 362.624a64 64 0 1 1 0-128 64 64 0 0 1 0 128zM298.624 426.688H85.312v512h853.312v-512h-213.312V512h67.648l-196.416 196.48-37.888-43.328-64.192 56.192 115.456 132.032H224.96l197.952-216-62.912-57.6-189.376 206.528V512h128V426.688z m354.24 346.112l200.448-200.448v280.96h-129.92L652.8 772.864z" /></svg>