<?xml version="1.0" standalone="no"?><!DOCTYPE svg PUBLIC "-//W3C//DTD SVG 1.1//EN" "http://www.w3.org/Graphics/SVG/1.1/DTD/svg11.dtd"><svg class="icon" width="200px" height="200.00px" viewBox="0 0 1024 1024" version="1.1" xmlns="http://www.w3.org/2000/svg"><path d="M317.632 512a194.368 194.368 0 1 1 388.736 0 194.368 194.368 0 0 1-388.736 0zM512 421.952a90.048 90.048 0 1 0 0 180.096 90.048 90.048 0 0 0 0-180.096zM512 981.312A469.312 469.312 0 1 1 512 42.624a469.312 469.312 0 0 1 0 938.688zM554.688 235.52V184.96H469.312v50.624A279.936 279.936 0 0 0 235.52 469.312H184.96v85.376h50.624a279.936 279.936 0 0 0 233.792 233.792v50.624h85.376v-50.624a279.936 279.936 0 0 0 233.792-233.792h50.624V469.312h-50.624A279.936 279.936 0 0 0 554.688 235.52z" /></svg>