<?xml version="1.0" standalone="no"?><!DOCTYPE svg PUBLIC "-//W3C//DTD SVG 1.1//EN" "http://www.w3.org/Graphics/SVG/1.1/DTD/svg11.dtd"><svg class="icon" width="200px" height="200.00px" viewBox="0 0 1024 1024" version="1.1" xmlns="http://www.w3.org/2000/svg"><path d="M384 78.592l259.2 151.168 295.424-123.072v362.624h-85.312V234.624l-170.688 71.168v163.52H597.312V301.824L426.624 202.304v519.872l79.68 46.464-42.944 73.728-82.56-48.192-295.488 123.136V252.8L384 78.592z m-42.688 639.616V202.304L170.624 301.824v487.488l170.688-71.04zM768 597.312c-64.832 0-117.376 52.544-117.376 117.312 0 53.44 31.36 104.768 68.928 146.048 17.344 19.136 34.88 34.752 48.448 45.824 13.504-11.072 31.04-26.688 48.448-45.824 37.504-41.28 68.864-92.608 68.864-146.048 0-64.768-52.48-117.312-117.312-117.312z m0 413.952l-23.68-15.744-0.128-0.064-0.128-0.128-0.512-0.384-1.728-1.152a482.88 482.88 0 0 1-25.728-19.456 547.456 547.456 0 0 1-59.648-56.256c-42.496-46.72-91.136-118.016-91.136-203.456a202.688 202.688 0 0 1 405.312 0c0 85.44-48.64 156.8-91.072 203.52a548.032 548.032 0 0 1-85.44 75.648l-1.664 1.152-0.512 0.384-0.192 0.128h-0.064l-23.68 15.808z m-53.376-328.64h106.688V768h-106.688v-85.376z" /></svg>