<?xml version="1.0" standalone="no"?><!DOCTYPE svg PUBLIC "-//W3C//DTD SVG 1.1//EN" "http://www.w3.org/Graphics/SVG/1.1/DTD/svg11.dtd"><svg class="icon" width="200px" height="200.00px" viewBox="0 0 1024 1024" version="1.1" xmlns="http://www.w3.org/2000/svg"><path d="M512 128a384 384 0 0 0-239.36 684.288L351.104 512h75.648V366.336L512 280.96l85.376 85.312V512h75.584l78.4 300.288A384 384 0 0 0 512 128z m163.52 731.52l-68.48-262.208h-190.08l-68.48 262.272c49.6 23.36 104.96 36.48 163.52 36.48 58.56 0 113.92-13.12 163.52-36.48zM42.688 512a469.312 469.312 0 1 1 938.688 0A469.312 469.312 0 0 1 42.688 512z" /></svg>