<?xml version="1.0" standalone="no"?><!DOCTYPE svg PUBLIC "-//W3C//DTD SVG 1.1//EN" "http://www.w3.org/Graphics/SVG/1.1/DTD/svg11.dtd"><svg class="icon" width="200px" height="200.00px" viewBox="0 0 1024 1024" version="1.1" xmlns="http://www.w3.org/2000/svg"><path d="M149.312 298.688a213.312 213.312 0 1 1 426.688 0 213.312 213.312 0 0 1-426.688 0zM213.312 597.312A213.312 213.312 0 0 0 0 810.688V896h725.312v-85.312A213.312 213.312 0 0 0 512 597.312H213.312zM1024 896h-213.312v-85.312a297.728 297.728 0 0 0-89.6-213.376h89.6A213.312 213.312 0 0 1 1024 810.688V896zM661.376 512c-26.88 0-52.608-4.992-76.224-14.08a297.6 297.6 0 0 0 76.16-199.232 297.6 297.6 0 0 0-76.16-199.36A213.312 213.312 0 1 1 661.376 512z" /></svg>