<?xml version="1.0" standalone="no"?><!DOCTYPE svg PUBLIC "-//W3C//DTD SVG 1.1//EN" "http://www.w3.org/Graphics/SVG/1.1/DTD/svg11.dtd"><svg class="icon" width="200px" height="200.00px" viewBox="0 0 1024 1024" version="1.1" xmlns="http://www.w3.org/2000/svg"><path d="M234.688 298.688a128 128 0 1 1 256 0 128 128 0 0 1-256 0z m128-213.376a213.312 213.312 0 1 0 0 426.688 213.312 213.312 0 0 0 0-426.688z m298.624 0h-42.624v85.376h42.624a128 128 0 1 1 0 256h-42.624V512h42.624a213.312 213.312 0 1 0 0-426.688zM0 810.688a213.312 213.312 0 0 1 213.312-213.376H512a213.312 213.312 0 0 1 213.312 213.376V896H640V810.688a128 128 0 0 0-128-128H213.312a128 128 0 0 0-128 128V896H0V810.688z m1024 0a213.312 213.312 0 0 0-213.312-213.376H768v85.376h42.688a128 128 0 0 1 128 128V896H1024V810.688z" /></svg>