<?xml version="1.0" standalone="no"?><!DOCTYPE svg PUBLIC "-//W3C//DTD SVG 1.1//EN" "http://www.w3.org/Graphics/SVG/1.1/DTD/svg11.dtd"><svg class="icon" width="200px" height="200.00px" viewBox="0 0 1024 1024" version="1.1" xmlns="http://www.w3.org/2000/svg"><path d="M682.688 128a213.312 213.312 0 1 0 0 426.688 213.312 213.312 0 0 0 0-426.688zM384.384 326.016a298.688 298.688 0 1 1 313.6 313.6l-393.6 310.72a59.84 59.84 0 0 1-4.864 3.712 83.84 83.84 0 0 1-12.544 7.104c-10.56 4.864-24.96 9.024-42.752 8.832-36.288-0.384-78.336-18.496-125.056-65.152-46.72-46.656-64.768-88.704-65.152-125.056a99.2 99.2 0 0 1 8.832-42.688 84.096 84.096 0 0 1 10.88-17.472l310.656-393.6z m17.088 116.16l-261.248 330.88a15.104 15.104 0 0 0-0.896 5.888c0.064 6.784 3.328 28.736 40.192 65.536 36.864 36.864 58.816 40.128 65.6 40.192 3.328 0 5.248-0.64 5.888-0.896l330.88-261.184a299.52 299.52 0 0 1-180.48-180.48zM444.352 640l-103.04 103.04-60.288-60.352L384 579.648l60.352 60.352z" /></svg>