<?xml version="1.0" standalone="no"?><!DOCTYPE svg PUBLIC "-//W3C//DTD SVG 1.1//EN" "http://www.w3.org/Graphics/SVG/1.1/DTD/svg11.dtd"><svg class="icon" width="200px" height="200.00px" viewBox="0 0 1024 1024" version="1.1" xmlns="http://www.w3.org/2000/svg"><path d="M298.688 256a213.312 213.312 0 0 1 426.688 0v213.312a213.312 213.312 0 0 1-426.688 0V256zM512 128a128 128 0 0 0-128 128v213.312a128 128 0 0 0 256 0V256a128 128 0 0 0-128-128zM256 426.688v42.624a256 256 0 0 0 512 0v-42.624h85.376v42.624a341.376 341.376 0 0 1-298.688 338.752v45.248H768v85.376H256v-85.376h213.376v-45.248a341.376 341.376 0 0 1-298.688-338.752v-42.624H256z" /></svg>