<?xml version="1.0" standalone="no"?><!DOCTYPE svg PUBLIC "-//W3C//DTD SVG 1.1//EN" "http://www.w3.org/Graphics/SVG/1.1/DTD/svg11.dtd"><svg class="icon" width="200px" height="200.00px" viewBox="0 0 1024 1024" version="1.1" xmlns="http://www.w3.org/2000/svg"><path d="M213.312 298.688a256 256 0 0 1 256-256h85.312a256 256 0 0 1 256 256v256a256.064 256.064 0 0 1-256 256v42.624H768v85.376H256v-85.376h213.312v-42.624a256.064 256.064 0 0 1-256-256v-256z m85.312 192v64h128V640H321.472a170.624 170.624 0 0 0 147.84 85.312h85.312c63.168 0 118.4-34.304 147.84-85.312H597.312V554.688h128v-64h-128V405.312h128v-64h-128V256h122.624c-18.944-73.6-85.76-128-165.312-128H469.312C389.76 128 322.944 182.4 304 256h122.624v85.312h-128v64h128v85.376h-128z" /></svg>