<?xml version="1.0" standalone="no"?><!DOCTYPE svg PUBLIC "-//W3C//DTD SVG 1.1//EN" "http://www.w3.org/Graphics/SVG/1.1/DTD/svg11.dtd"><svg class="icon" width="200px" height="200.00px" viewBox="0 0 1024 1024" version="1.1" xmlns="http://www.w3.org/2000/svg"><path d="M221.376 234.688h162.56V320H213.376v85.312H384v85.376H213.312v64c0 7.168 0.32 14.272 0.896 21.312H384v85.312H236.544a256 256 0 0 0 232.768 149.376v42.624H256v85.376h512v-85.376H554.624v-42.624a256 256 0 0 0 232.768-149.376H640V576h169.792c0.576-7.04 0.832-14.144 0.832-21.312v-64H640V405.312h170.624V320H640V234.688h162.56a256.128 256.128 0 0 0-247.936-192H469.312a256.128 256.128 0 0 0-247.936 192z" /></svg>