<?xml version="1.0" standalone="no"?><!DOCTYPE svg PUBLIC "-//W3C//DTD SVG 1.1//EN" "http://www.w3.org/Graphics/SVG/1.1/DTD/svg11.dtd"><svg class="icon" width="200px" height="200.00px" viewBox="0 0 1024 1024" version="1.1" xmlns="http://www.w3.org/2000/svg"><path d="M170.688 42.688h682.688v97.664A298.752 298.752 0 0 0 768 128H256v597.312h512c29.696 0 58.304-4.288 85.376-12.352v268.352H170.688V42.688z m384.192 768H469.376v85.504H554.88v-85.504zM768 192a234.688 234.688 0 1 0 0 469.312A234.688 234.688 0 0 0 768 192zM618.688 426.688a149.312 149.312 0 0 1 220.416-131.392L636.608 497.728a148.544 148.544 0 0 1-17.92-71.04zM696.96 558.08l202.432-202.432A149.312 149.312 0 0 1 696.96 558.08z" /></svg>