<?xml version="1.0" standalone="no"?><!DOCTYPE svg PUBLIC "-//W3C//DTD SVG 1.1//EN" "http://www.w3.org/Graphics/SVG/1.1/DTD/svg11.dtd"><svg class="icon" width="200px" height="200.00px" viewBox="0 0 1024 1024" version="1.1" xmlns="http://www.w3.org/2000/svg"><path d="M170.688 42.688h682.688v170.624H768V128H256v768h512v-85.312h85.376v170.624H170.688V42.688z m597.312 320A149.312 149.312 0 0 0 636.608 583.04l202.496-202.432a148.608 148.608 0 0 0-71.04-17.92z m131.392 78.272l-202.432 202.432a149.312 149.312 0 0 0 202.432-202.432zM533.312 512a234.688 234.688 0 1 1 469.376 0 234.688 234.688 0 0 1-469.312 0z m-64 213.312H554.88v85.504H469.376v-85.504z" /></svg>