<?xml version="1.0" standalone="no"?><!DOCTYPE svg PUBLIC "-//W3C//DTD SVG 1.1//EN" "http://www.w3.org/Graphics/SVG/1.1/DTD/svg11.dtd"><svg class="icon" width="200px" height="200.00px" viewBox="0 0 1024 1024" version="1.1" xmlns="http://www.w3.org/2000/svg"><path d="M853.376 981.312H170.688V42.688h682.688V256H768V128H256v768h512v-128h85.376v213.312zM554.88 810.88H469.376v-85.504H554.88v85.504z m378.944-115.904l66.944-33.28-66.944-33.344-33.28-66.944-33.28 66.944-67.008 33.28 66.944 33.28 33.28 67.008 33.344-66.944z m-248.704-42.112l-46.784-94.016L544.256 512l94.08-46.848 46.784-94.08 46.848 94.08L825.92 512l-94.08 46.784-46.72 94.08z m248.704-256.96l66.944-33.28-66.944-33.344-33.28-66.944-33.28 66.944-67.008 33.28 66.944 33.28 33.28 67.008 33.344-66.944z" /></svg>