<?xml version="1.0" standalone="no"?><!DOCTYPE svg PUBLIC "-//W3C//DTD SVG 1.1//EN" "http://www.w3.org/Graphics/SVG/1.1/DTD/svg11.dtd"><svg class="icon" width="200px" height="200.00px" viewBox="0 0 1024 1024" version="1.1" xmlns="http://www.w3.org/2000/svg"><path d="M170.688 42.688h682.688v170.624H768V128H256v597.312h597.376v256H170.688V42.688z m384.192 768H469.376v85.504H554.88v-85.504zM1000.768 618.88l-66.944 33.344-33.28 66.944-33.344-66.944-66.944-33.28 66.944-33.344 33.28-66.944 33.344 66.944 66.944 33.28zM638.336 516.096l46.784 94.08 46.784-94.08 94.08-46.784-94.08-46.784-46.784-94.08-46.784 94.08-94.08 46.784 94.08 46.784zM1000.768 319.808l-66.944 33.344-33.28 66.944-33.344-66.944-66.944-33.28 66.944-33.344 33.28-66.944 33.344 66.944 66.944 33.28z" /></svg>