<?xml version="1.0" standalone="no"?><!DOCTYPE svg PUBLIC "-//W3C//DTD SVG 1.1//EN" "http://www.w3.org/Graphics/SVG/1.1/DTD/svg11.dtd"><svg class="icon" width="200px" height="200.00px" viewBox="0 0 1024 1024" version="1.1" xmlns="http://www.w3.org/2000/svg"><path d="M469.22402 0H554.77598v85.487971H469.22402V0zM180.190214 119.721552l60.404674 60.468662-60.404674 60.404674-60.468662-60.404674 60.468662-60.468662z m663.555584 0l60.468662 60.468662-60.404674 60.404674-60.468662-60.404674 60.468662-60.468662zM170.71999 512.095982a341.248016 341.248016 0 1 1 682.56002 0 341.248016 341.248016 0 0 1-682.56002 0zM0 469.22402h85.487971V554.77598H0V469.22402z m938.512029 0h85.487971V554.77598h-85.487971V469.22402z m-758.321815 314.181092l60.404674 60.404674-60.404674 60.468662-60.468662-60.468662 60.468662-60.468662z m663.555584 0l60.468662 60.404674-60.404674 60.468662-60.468662-60.468662 60.468662-60.468662z m-374.521778 155.106917H554.77598v85.487971H469.22402v-85.487971z" /></svg>