<?xml version="1.0" standalone="no"?><!DOCTYPE svg PUBLIC "-//W3C//DTD SVG 1.1//EN" "http://www.w3.org/Graphics/SVG/1.1/DTD/svg11.dtd"><svg class="icon" width="200px" height="200.00px" viewBox="0 0 1024 1024" version="1.1" xmlns="http://www.w3.org/2000/svg"><path d="M469.160032 0h85.487971v85.487971H469.160032V0zM180.126226 119.849528l60.468662 60.404674-60.468662 60.468662-60.468662-60.468662 60.468662-60.468662z m663.555584 0l60.468662 60.404674-60.404674 60.468662-60.468662-60.468662 60.468662-60.404674zM511.904018 256.079985a255.952009 255.952009 0 1 0 0 511.904018 255.952009 255.952009 0 0 0 0-511.904018zM170.592014 512.095982a341.248016 341.248016 0 1 1 682.56002 0A341.248016 341.248016 0 0 1 170.592014 512.095982zM0 469.351997h85.487971v85.487971H-0.063988V469.22402z m938.512029 0h85.487971v85.487971h-85.487971V469.22402zM180.126226 783.341124l60.404674 60.468662-60.404674 60.468662-60.468662-60.468662 60.468662-60.404674z m663.555584 0l60.468662 60.468662-60.404674 60.468662-60.468662-60.468662 60.468662-60.404674z m-374.521778 155.170905h85.487971V1024H469.160032v-85.487971z" /></svg>