<?xml version="1.0" standalone="no"?><!DOCTYPE svg PUBLIC "-//W3C//DTD SVG 1.1//EN" "http://www.w3.org/Graphics/SVG/1.1/DTD/svg11.dtd"><svg class="icon" width="200px" height="200.00px" viewBox="0 0 1024 1024" version="1.1" xmlns="http://www.w3.org/2000/svg"><path d="M675.968 142.72l-60.928 33.28 60.928 33.28 33.344 60.992 33.28-60.928 60.992-33.344-60.928-33.28-33.344-60.992-33.28 60.928z m-231.744 34.688A341.44 341.44 0 0 0 512 853.312a341.248 341.248 0 0 0 295.68-170.688 384 384 0 0 1-381.056-384c0-41.728 5.632-82.56 17.6-121.216zM85.312 512A426.688 426.688 0 0 1 512 85.312h73.92l-36.992 64C524.16 192.128 512 242.816 512 298.752a298.688 298.688 0 0 0 356.16 293.12l71.744-13.952-23.104 69.376A426.688 426.688 0 0 1 85.376 512z m789.312-238.272l39.04 71.296L984.832 384l-71.296 39.04-38.976 71.232-38.976-71.296L764.416 384l71.232-38.976 39.04-71.296z" /></svg>