<?xml version="1.0" standalone="no"?><!DOCTYPE svg PUBLIC "-//W3C//DTD SVG 1.1//EN" "http://www.w3.org/Graphics/SVG/1.1/DTD/svg11.dtd"><svg class="icon" width="200px" height="200.00px" viewBox="0 0 1024 1024" version="1.1" xmlns="http://www.w3.org/2000/svg"><path d="M512 533.312A149.312 149.312 0 1 0 512 832a149.312 149.312 0 0 0 0-298.688z m-64 149.376a64 64 0 1 1 128 0 64 64 0 0 1-128 0zM747.776 218.24L612.16 28.16 113.408 426.496 85.76 426.24v0.448H64v512h896v-512h-41.024l-81.664-238.912-89.536 30.528z m81.024 208.448H400.896l318.72-108.672 64.896-20.736 44.288 129.408zM663.488 247.04l-328.96 112.128 260.48-208.128 68.48 96z m-514.176 528.128V590.08A128.384 128.384 0 0 0 227.392 512h569.216c12.8 36.352 41.664 65.216 78.08 78.08v185.216c-36.416 12.8-65.216 41.664-78.08 78.08H227.456a128.448 128.448 0 0 0-78.08-78.208z" /></svg>