<?xml version="1.0" standalone="no"?><!DOCTYPE svg PUBLIC "-//W3C//DTD SVG 1.1//EN" "http://www.w3.org/Graphics/SVG/1.1/DTD/svg11.dtd"><svg class="icon" width="200px" height="200.00px" viewBox="0 0 1024 1024" version="1.1" xmlns="http://www.w3.org/2000/svg"><path d="M576 682.688a64 64 0 1 1-128 0 64 64 0 0 1 128 0zM612.16 28.16l135.68 190.08 89.472-30.464 81.664 238.848H960v512H64v-512h21.76V426.24l27.648 0.256L612.16 28.16z m-211.2 398.464h427.84l-44.288-129.408-64.896 20.8-318.72 108.608zM334.4 359.168l328.96-112.128-68.416-96-260.48 208.128zM234.624 512H149.376v85.312c47.168 0 85.376-38.208 85.376-85.312z m426.688 170.688a149.312 149.312 0 1 0-298.624 0 149.312 149.312 0 0 0 298.624 0z m213.376 170.624V768c-47.168 0-85.376 38.208-85.376 85.312h85.376zM789.312 512c0 47.104 38.208 85.312 85.376 85.312V512h-85.376z m-640 341.312h85.376c0-47.104-38.208-85.312-85.376-85.312v85.312z" /></svg>