<?xml version="1.0" standalone="no"?><!DOCTYPE svg PUBLIC "-//W3C//DTD SVG 1.1//EN" "http://www.w3.org/Graphics/SVG/1.1/DTD/svg11.dtd"><svg class="icon" width="200px" height="200.00px" viewBox="0 0 1024 1024" version="1.1" xmlns="http://www.w3.org/2000/svg"><path d="M465.728 72.192l-19.2 71.424c-12.8 47.616-11.52 99.712 3.008 153.792a298.688 298.688 0 0 0 419.84 190.976l65.792-32.128-4.48 73.024c-2.624 44.16-16 87.872-39.168 134.4l-11.776 23.552H627.072L512 764.032l-115.072-76.8H120.704l-12.992-31.872-4.864-12.288a347.456 347.456 0 0 1-10.24-29.184 426.688 426.688 0 0 1 301.696-522.56l71.488-19.2zM42.688 772.48h354.24L512 849.28l115.072-76.736h354.304v85.312h-328.448L512 951.808l-140.928-93.952H42.688v-85.312z" /></svg>