<?xml version="1.0" standalone="no"?><!DOCTYPE svg PUBLIC "-//W3C//DTD SVG 1.1//EN" "http://www.w3.org/Graphics/SVG/1.1/DTD/svg11.dtd"><svg class="icon" width="200px" height="200.00px" viewBox="0 0 1024 1024" version="1.1" xmlns="http://www.w3.org/2000/svg"><path d="M42.688 853.376h354.24L512 776.576l115.072 76.8h354.304V768h-328.448L512 674.048 371.072 768H42.688v85.376z m829.76-156.16l19.072-38.144c23.232-46.4 36.48-90.24 39.232-134.336l4.416-72.96-65.728 32.064a298.688 298.688 0 0 1-419.84-190.976c-14.528-54.08-15.872-106.176-3.072-153.792l19.2-71.424-71.424 19.2A426.688 426.688 0 0 0 92.608 609.28c2.176 8 7.04 20.736 10.24 29.248l4.864 12.288 1.536 3.84 0.448 1.024 16.256 39.872 79.04-32.192-16.256-39.808-0.384-0.96-1.408-3.52a1112.32 1112.32 0 0 1-4.48-11.392 313.344 313.344 0 0 1-7.424-20.48A341.44 341.44 0 0 1 352.704 193.28c-1.6 40.384 3.584 81.28 14.4 121.664a384 384 0 0 0 462.528 273.536c-3.968 10.368-8.768 21.12-14.464 32.448l-19.072 38.144 76.352 38.208z" /></svg>