<?xml version="1.0" standalone="no"?><!DOCTYPE svg PUBLIC "-//W3C//DTD SVG 1.1//EN" "http://www.w3.org/Graphics/SVG/1.1/DTD/svg11.dtd"><svg class="icon" width="200px" height="200.00px" viewBox="0 0 1024 1024" version="1.1" xmlns="http://www.w3.org/2000/svg"><path d="M446.528 139.072l19.2-71.424-71.424 19.2A426.688 426.688 0 0 0 92.608 609.28c2.112 8 6.976 20.736 10.24 29.248l4.864 12.288 12.928 31.808H371.2L512 588.8l140.8 93.888h226.88l11.84-23.616c23.168-46.4 36.48-90.24 39.168-134.336l4.48-72.96-65.792 32.064a298.688 298.688 0 0 1-419.84-190.976c-14.528-54.08-15.808-106.176-3.008-153.792zM396.928 853.376H42.688V768h328.384L512 674.048 652.928 768h328.448v85.376H627.072L512 776.576l-115.072 76.8z" /></svg>