<?xml version="1.0" standalone="no"?><!DOCTYPE svg PUBLIC "-//W3C//DTD SVG 1.1//EN" "http://www.w3.org/Graphics/SVG/1.1/DTD/svg11.dtd"><svg class="icon" width="200px" height="200.00px" viewBox="0 0 1024 1024" version="1.1" xmlns="http://www.w3.org/2000/svg"><path d="M444.224 177.408A341.44 341.44 0 0 0 512 853.376a341.248 341.248 0 0 0 295.68-170.688 384 384 0 0 1-381.056-384c0-41.792 5.632-82.624 17.6-121.28zM85.312 512A426.688 426.688 0 0 1 512 85.312h73.92l-36.992 64.064C524.16 192.064 512 242.688 512 298.688a298.688 298.688 0 0 0 356.16 293.12l71.744-13.952-23.104 69.376A426.688 426.688 0 0 1 85.376 512z" /></svg>