<?xml version="1.0" standalone="no"?><!DOCTYPE svg PUBLIC "-//W3C//DTD SVG 1.1//EN" "http://www.w3.org/Graphics/SVG/1.1/DTD/svg11.dtd"><svg class="icon" width="200px" height="200.00px" viewBox="0 0 1024 1024" version="1.1" xmlns="http://www.w3.org/2000/svg"><path d="M256 67.648l170.624 170.688V327.68A256.064 256.064 0 0 1 597.312 216.96V149.312h85.312V216.96a256.192 256.192 0 0 1 209.792 209.792h46.208v512H85.312V238.336L256 67.648z m549.248 359.04a170.752 170.752 0 0 0-330.56 0h330.56zM426.624 512v341.312H512v-256h256v256h85.312V512H426.624z m256 341.312v-170.624H597.312v170.624h85.312z m-341.312 0V273.664L256 188.352 170.624 273.664v579.648h170.688z m-42.496-512V426.88H213.312V341.504h0.192v-0.192h85.312z" /></svg>