<?xml version="1.0" standalone="no"?><!DOCTYPE svg PUBLIC "-//W3C//DTD SVG 1.1//EN" "http://www.w3.org/Graphics/SVG/1.1/DTD/svg11.dtd"><svg class="icon" width="200px" height="200.00px" viewBox="0 0 1024 1024" version="1.1" xmlns="http://www.w3.org/2000/svg"><path d="M46.336 512l188.288-188.352L295.04 384 209.664 469.312h259.648V209.664L384 295.04l-60.352-60.288L512 46.336l188.352 188.352-60.352 60.288-85.376-85.312v259.648h259.712L728.96 384l60.352-60.352L977.664 512l-188.352 188.352L728.96 640l85.376-85.312H554.624v259.648L640 728.96l60.352 60.352L512 977.664l-188.352-188.352L384 728.96l85.312 85.376V554.688H209.664L294.976 640l-60.352 60.352L46.336 512z" /></svg>