<?xml version="1.0" standalone="no"?><!DOCTYPE svg PUBLIC "-//W3C//DTD SVG 1.1//EN" "http://www.w3.org/Graphics/SVG/1.1/DTD/svg11.dtd"><svg class="icon" width="200px" height="200.00px" viewBox="0 0 1024 1024" version="1.1" xmlns="http://www.w3.org/2000/svg"><path d="M384 203.328v650.048h85.376V640h85.312v213.376H640V203.328a265.28 265.28 0 0 0-128-32.64c-46.4 0-89.984 11.84-128 32.64z m341.376 68.928v158.72a297.792 297.792 0 0 1 213.312-89.6h42.688v597.312H42.688V341.376h42.688c83.52 0 159.104 34.304 213.312 89.6v-158.72l-1.408 1.28-58.88-61.76 30.976-29.44A350.528 350.528 0 0 1 512 85.312a350.592 350.592 0 0 1 242.752 97.152l30.848 29.44-58.88 61.76-1.408-1.408zM298.688 640A213.376 213.376 0 0 0 128 430.976v422.4h170.688V640z m426.688 213.376H896v-422.4A213.376 213.376 0 0 0 725.376 640v213.376z m-256-554.752H554.88V384H469.376V298.624z" /></svg>