<?xml version="1.0" standalone="no"?><!DOCTYPE svg PUBLIC "-//W3C//DTD SVG 1.1//EN" "http://www.w3.org/Graphics/SVG/1.1/DTD/svg11.dtd"><svg class="icon" width="200px" height="200.00px" viewBox="0 0 1024 1024" version="1.1" xmlns="http://www.w3.org/2000/svg"><path d="M725.376 430.976v-158.72l1.472 1.408 58.88-61.824-30.912-29.44A350.592 350.592 0 0 0 512 85.376 350.528 350.528 0 0 0 269.312 182.4l-30.912 29.44 58.88 61.76 1.344-1.28v158.72a297.792 297.792 0 0 0-213.312-89.6H42.688v597.312h426.688V640h85.312v298.688h426.688V341.312h-42.688a297.728 297.728 0 0 0-213.312 89.6zM128 430.976A213.376 213.376 0 0 1 298.688 640v213.312H128v-422.4z m768 422.4h-170.624V640A213.376 213.376 0 0 1 896 430.912v422.4zM554.88 298.496v85.504H469.376V298.56H554.88z" /></svg>