<?xml version="1.0" standalone="no"?><!DOCTYPE svg PUBLIC "-//W3C//DTD SVG 1.1//EN" "http://www.w3.org/Graphics/SVG/1.1/DTD/svg11.dtd"><svg class="icon" width="200px" height="200.00px" viewBox="0 0 1024 1024" version="1.1" xmlns="http://www.w3.org/2000/svg"><path d="M853.312 124.288V768A128 128 0 1 1 768 647.296v-216.96l-426.688 35.584v344.768A128 128 0 1 1 256 689.92V174.08l597.312-49.792zM256 810.688a42.688 42.688 0 1 0-85.376 0 42.688 42.688 0 0 0 85.376 0z m85.312-430.4L768 344.768V216.96l-426.688 35.584v127.68zM768 768a42.688 42.688 0 1 0-85.376 0A42.688 42.688 0 0 0 768 768z" /></svg>