<?xml version="1.0" standalone="no"?><!DOCTYPE svg PUBLIC "-//W3C//DTD SVG 1.1//EN" "http://www.w3.org/Graphics/SVG/1.1/DTD/svg11.dtd"><svg class="icon" width="200px" height="200.00px" viewBox="0 0 1024 1024" version="1.1" xmlns="http://www.w3.org/2000/svg"><path d="M170.634668 341.333333a341.301334 341.301334 0 0 1 682.666666 0v200.441737l85.309334 127.996v183.546264h-239.35252a192.057998 192.057998 0 0 1-374.516296 0H85.325334v-183.546264l85.309334-127.996V341.333333z m243.576388 511.984001a106.684666 106.684666 0 0 0 195.577888 0H414.211056zM512 85.341333a255.992 255.992 0 0 0-255.992 255.992V567.69426l-85.373332 127.996V768.008h682.666666v-72.445736l-85.309334-127.996V341.397331a255.992 255.992 0 0 0-255.992-255.992zM554.622668 256.023999v127.996h127.996v85.309334h-127.996v127.996001H469.313334v-127.996001h-127.996V384.019999h127.996V256.023999h85.309334z" /></svg>