<?xml version="1.0" standalone="no"?><!DOCTYPE svg PUBLIC "-//W3C//DTD SVG 1.1//EN" "http://www.w3.org/Graphics/SVG/1.1/DTD/svg11.dtd"><svg class="icon" width="200px" height="200.00px" viewBox="0 0 1024 1024" version="1.1" xmlns="http://www.w3.org/2000/svg"><path d="M170.634668 341.333333a341.301334 341.301334 0 0 1 682.666666 0v200.441737l85.309334 127.996v183.546264h-239.35252a192.057998 192.057998 0 0 1-374.516296 0H85.325334v-183.546264l85.309334-127.996V341.333333zM853.301334 768.008v-72.445736l-85.309334-127.996V341.397331a255.992 255.992 0 0 0-511.984 0V567.69426l-85.373332 127.996V768.008h682.666666z m-243.51239 85.309334H414.211056a106.684666 106.684666 0 0 0 195.577888 0zM554.622668 256.023999v255.992001H469.313334V256.023999h85.309334zM469.313334 576.014h85.501328v85.501328H469.313334V576.014z" /></svg>