<?xml version="1.0" standalone="no"?><!DOCTYPE svg PUBLIC "-//W3C//DTD SVG 1.1//EN" "http://www.w3.org/Graphics/SVG/1.1/DTD/svg11.dtd"><svg class="icon" width="200px" height="200.00px" viewBox="0 0 1024 1024" version="1.1" xmlns="http://www.w3.org/2000/svg"><path d="M512 896A384 384 0 1 0 512 128a384 384 0 0 0 0 768z m469.376-384A469.312 469.312 0 1 1 42.688 512a469.312 469.312 0 0 1 938.688 0z m-395.456 213.312a85.312 85.312 0 0 1-147.84 0H256V608.64l42.688-85.312v-96.64a213.312 213.312 0 0 1 426.688 0v96.64L768 608.576v116.736H585.92zM341.376 640h341.312v-11.264L640 543.424V426.688a128 128 0 1 0-256 0V543.36l-42.624 85.312V640z" /></svg>