<svg width="16" height="16" viewBox="0 0 16 16" xmlns="http://www.w3.org/2000/svg">
  <path fill-rule="evenodd" clip-rule="evenodd"
    d="M10.5275 2C10.7408 2 10.9902 2.00983 11.2751 2.03095C11.5723 2.04151 11.8142 2.06799 12.0003 2.11024L11.7308 4.02792C11.5355 3.97511 11.3218 3.93784 11.0902 3.91671C10.86 3.88504 10.5956 3.86933 10.297 3.86932C9.71034 3.86932 9.2022 3.95369 8.77312 4.12269C8.3441 4.2917 7.98489 4.53501 7.69505 4.85186C7.41587 5.16872 7.18686 5.5435 7.00867 5.97655C6.84262 6.39906 6.71235 6.87481 6.61679 7.40296H6.69589C6.87007 7.14963 7.06696 6.92766 7.2855 6.73762C7.51636 6.53693 7.78437 6.37802 8.08869 6.26183C8.39296 6.14566 8.73705 6.08778 9.12097 6.08776C9.75027 6.08776 10.2692 6.23003 10.6771 6.5152C11.0972 6.78983 11.3916 7.19692 11.5613 7.73563C11.7323 8.26375 11.7646 8.90829 11.6577 9.66878C11.5434 10.4819 11.2901 11.1846 10.8977 11.776C10.5159 12.3674 10.025 12.8217 9.42594 13.1386C8.82839 13.4447 8.14569 13.5979 7.37798 13.5979C6.82335 13.5979 6.31432 13.4978 5.85189 13.2972C5.40022 13.0965 5.02137 12.7952 4.71516 12.3939C4.41039 11.982 4.19988 11.4641 4.0848 10.8409C3.96976 10.2178 3.97186 9.48368 4.09056 8.63886C4.18259 7.98404 4.3158 7.3394 4.49018 6.70571C4.67525 6.07194 4.91967 5.47455 5.22235 4.91471C5.53714 4.34449 5.92771 3.84294 6.39379 3.40997C6.87212 2.96637 7.44842 2.62299 8.12252 2.38005C8.80872 2.12661 9.61033 2.00002 10.5275 2ZM8.15864 7.92517C7.87076 7.92523 7.60876 8.00468 7.37325 8.16306C7.14996 8.31087 6.9628 8.50636 6.81139 8.7491C6.67065 8.99194 6.58224 9.24035 6.54659 9.49374C6.50947 9.75781 6.499 10.0227 6.51522 10.2867C6.53294 10.54 6.5807 10.7719 6.6576 10.983C6.74524 11.1943 6.86503 11.364 7.01788 11.4907C7.17071 11.6174 7.36504 11.6803 7.59964 11.6803C7.97267 11.6801 8.29848 11.522 8.57751 11.2054C8.85819 10.878 9.04665 10.3757 9.14166 9.69972C9.21877 9.15077 9.17846 8.71776 9.02048 8.40096C8.86235 8.08408 8.57464 7.92517 8.15864 7.92517Z" />
</svg>