<svg width="16" height="16" viewBox="0 0 16 16" xmlns="http://www.w3.org/2000/svg">
  <path fill-rule="evenodd" clip-rule="evenodd"
    d="M9.10158 2C9.76272 2.00004 10.3402 2.10109 10.8346 2.30172C11.3397 2.50242 11.7193 2.80357 11.9723 3.20496C12.2249 3.60619 12.3085 4.11294 12.2225 4.72517C12.1586 5.17937 12.0169 5.58155 11.7973 5.93013C11.5898 6.26806 11.3234 6.56346 10.9998 6.81692C10.6869 7.07035 10.3356 7.29217 9.94633 7.48226C10.2792 7.69344 10.5912 7.94181 10.8817 8.22689C11.1844 8.50148 11.4158 8.82924 11.5757 9.20942C11.7477 9.57912 11.798 10.0176 11.7268 10.5246C11.6392 11.1476 11.414 11.6914 11.0502 12.1561C10.6862 12.6208 10.1978 12.9808 9.58617 13.2343C8.98527 13.4877 8.27387 13.6144 7.45268 13.6144C6.59955 13.6144 5.90214 13.4927 5.36036 13.2498C4.82926 13.0069 4.45119 12.6585 4.22701 12.2044C4.01351 11.7502 3.95065 11.2107 4.03824 10.5875C4.11099 10.0702 4.25932 9.62144 4.48329 9.24134C4.71806 8.86107 5.00977 8.53344 5.3577 8.2588C5.70695 7.97375 6.08147 7.73616 6.4813 7.54608C6.20173 7.33486 5.94783 7.09641 5.71833 6.83239C5.50097 6.55779 5.34086 6.25165 5.23904 5.91369C5.13875 5.56516 5.1208 5.16381 5.18462 4.7097C5.26922 4.10774 5.49436 3.6063 5.85996 3.20496C6.23638 2.80357 6.70564 2.50242 7.26718 2.30172C7.83932 2.10108 8.45099 2 9.10158 2ZM8.10396 8.52861C7.81651 8.67649 7.55209 8.84522 7.31204 9.03535C7.08291 9.22532 6.88844 9.43664 6.7279 9.66878C6.57939 9.89059 6.48357 10.1496 6.44201 10.4453C6.38411 10.8573 6.45938 11.1957 6.6676 11.4598C6.87576 11.7236 7.20934 11.8552 7.66768 11.8553C8.00882 11.8553 8.29457 11.7973 8.52417 11.6812C8.76446 11.5651 8.95296 11.4012 9.08931 11.19C9.22566 10.9787 9.31334 10.7354 9.35194 10.4608C9.39194 10.1758 9.3582 9.92241 9.25076 9.70069C9.1433 9.47895 9.00023 9.28361 8.8214 9.11465C8.64397 8.93508 8.46242 8.78205 8.27756 8.6553L8.10396 8.52861ZM8.83993 3.74361C8.54137 3.74366 8.27154 3.84374 8.03008 4.04436C7.78854 4.24506 7.64144 4.53051 7.58949 4.90021C7.55393 5.15356 7.57058 5.38042 7.63834 5.58102C7.71823 5.771 7.82746 5.93996 7.96653 6.08776C8.11785 6.22503 8.28063 6.35753 8.45475 6.48425C8.65242 6.36806 8.84156 6.24151 9.02086 6.1042C9.21075 5.96691 9.37258 5.803 9.50592 5.61293C9.64069 5.41235 9.72665 5.17464 9.76527 4.90021C9.81721 4.53064 9.75119 4.24505 9.56621 4.04436C9.39175 3.84367 9.14926 3.74361 8.83993 3.74361Z" />
</svg>