<svg width="16" height="16" viewBox="0 0 16 16" xmlns="http://www.w3.org/2000/svg">
  <path
    d="M9.21168 2C10.3209 2.00003 11.1624 2.23742 11.7355 2.71272C12.3101 3.17745 12.5373 3.83779 12.4172 4.69326C12.3444 5.21084 12.1743 5.66011 11.9075 6.04037C11.6408 6.42057 11.3145 6.7326 10.9284 6.97552C10.5423 7.21844 10.1218 7.39799 9.66816 7.51417L9.6615 7.56155C10.5 7.66718 11.1181 7.94185 11.5145 8.38549C11.9105 8.82908 12.0557 9.42578 11.9504 10.1755C11.8584 10.8304 11.6206 11.4219 11.2371 11.9501C10.855 12.4676 10.3167 12.8796 9.623 13.186C8.94159 13.4816 8.08912 13.6298 7.0655 13.6298C6.4255 13.6298 5.86138 13.5769 5.3749 13.4713C4.88861 13.3656 4.4303 13.2125 4 13.0119L4.28501 10.984C4.72001 11.2268 5.17395 11.4114 5.64658 11.5381C6.12993 11.6648 6.5799 11.7286 6.99578 11.7286C7.75307 11.7286 8.29695 11.5805 8.62653 11.2847C8.96669 10.989 9.17489 10.5719 9.25064 10.0334C9.29517 9.71647 9.26305 9.45163 9.15408 9.24037C9.04654 9.01867 8.82369 8.85566 8.48666 8.75007C8.16165 8.63388 7.67364 8.57503 7.02297 8.57503H6.28762L6.54585 6.73762H7.29781C7.90574 6.73761 8.38433 6.67385 8.73279 6.54711C9.08256 6.40981 9.33687 6.2302 9.49599 6.00846C9.66729 5.7761 9.77373 5.51215 9.81531 5.21644C9.87172 4.81505 9.80362 4.50311 9.6108 4.28129C9.41944 4.04902 9.09387 3.93315 8.63531 3.93315C8.30482 3.9332 7.98881 3.98029 7.6876 4.07531C7.38783 4.15979 7.11718 4.2658 6.87544 4.3925C6.64429 4.51926 6.45088 4.64089 6.29588 4.75708L5.40736 3.10922C5.72505 2.89796 6.06679 2.70766 6.43188 2.53865C6.80755 2.36969 7.22062 2.23721 7.6712 2.14216C8.13256 2.04709 8.64635 2 9.21168 2Z" />
</svg>