<svg width="16" height="16" viewBox="0 0 16 16" xmlns="http://www.w3.org/2000/svg">
  <path
    d="M9.51648 2C10.2311 2 10.831 2.13733 11.315 2.41197C11.8004 2.67601 12.1497 3.0401 12.3616 3.50474C12.5858 3.95893 12.6566 4.47691 12.575 5.05784C12.5082 5.53317 12.3779 5.96674 12.1843 6.35757C11.9908 6.74827 11.7334 7.13402 11.4134 7.51417C11.1041 7.89424 10.7391 8.28999 10.3188 8.70172C9.89976 9.10303 9.43057 9.5574 8.91143 10.0643L7.5786 11.3486L7.54748 11.4588H11.9313L11.6484 13.4713H4L4.23377 11.8079L7.29313 8.93961C7.92026 8.34809 8.41627 7.85664 8.78053 7.46582C9.15681 7.06454 9.43132 6.70532 9.60381 6.38851C9.78842 6.06114 9.90679 5.71272 9.95874 5.34312C10.0226 4.88892 9.9582 4.5505 9.76537 4.32868C9.58322 4.10699 9.32133 3.99601 8.9801 3.99601C8.60677 3.99601 8.2191 4.09704 7.81757 4.29773C7.42677 4.49842 6.98641 4.783 6.49723 5.15261L5.30597 3.61596C5.66595 3.33086 6.03907 3.0668 6.42509 2.82393C6.8112 2.58103 7.25478 2.38576 7.7555 2.2379C8.25769 2.07951 8.84463 2.00001 9.51648 2Z" />
</svg>