<svg width="16" height="16" viewBox="0 0 16 16" xmlns="http://www.w3.org/2000/svg">
  <path fill-rule="evenodd" clip-rule="evenodd"
    d="M8.64228 2C9.20756 2 9.7166 2.10009 10.1684 2.30076C10.6202 2.50145 10.998 2.80848 11.3028 3.22043C11.6182 3.63237 11.833 4.15526 11.9466 4.789C12.0616 5.41213 12.0596 6.14613 11.9408 6.99099C11.8429 7.68806 11.6953 8.36408 11.4967 9.01891C11.298 9.67367 11.0312 10.2811 10.6967 10.8409C10.3726 11.4007 9.96678 11.8921 9.48073 12.3146C9.00688 12.7265 8.43353 13.0484 7.76097 13.2807C7.09902 13.5131 6.33065 13.6298 5.45605 13.6298C5.24275 13.6298 4.99354 13.6191 4.70858 13.5979C4.43284 13.5874 4.19668 13.5609 4 13.5186L4.26938 11.6019C4.46604 11.6442 4.6691 11.6805 4.87791 11.7122C5.08675 11.7438 5.30354 11.7596 5.5275 11.7596C6.17789 11.7595 6.72805 11.6751 7.17834 11.5062C7.63935 11.3372 8.01524 11.0948 8.30509 10.778C8.60563 10.4611 8.83971 10.0854 9.00724 9.65234C9.17469 9.2194 9.30591 8.74427 9.39996 8.22689H9.31988C9.14707 8.46984 8.95544 8.69153 8.7459 8.89223C8.53638 9.09289 8.27923 9.25184 7.97493 9.36802C7.67067 9.48411 7.28385 9.54209 6.81473 9.54209C6.21753 9.54209 5.71956 9.40463 5.32087 9.13012C4.92362 8.84493 4.63908 8.43784 4.46797 7.9097C4.30907 7.37104 4.28341 6.72148 4.39027 5.96107C4.50606 5.13717 4.7542 4.42893 5.136 3.83741C5.51778 3.24599 6.00368 2.79168 6.59215 2.47483C7.19115 2.15813 7.8746 2.00006 8.64228 2ZM8.43735 3.91671C8.07475 3.91671 7.74752 4.08064 7.4562 4.40798C7.17554 4.7354 6.98735 5.24266 6.89085 5.92916C6.81217 6.48899 6.85159 6.92747 7.00972 7.24436C7.16928 7.55057 7.44622 7.70361 7.84067 7.70371C8.12863 7.70371 8.39048 7.62422 8.62606 7.46582C8.86166 7.30737 9.05452 7.11216 9.20451 6.87978C9.35598 6.63684 9.4503 6.38864 9.48592 6.13514C9.52747 5.83948 9.53409 5.55973 9.50722 5.29574C9.491 5.03177 9.44435 4.79912 9.36595 4.59849C9.28897 4.38723 9.16738 4.22341 9.00238 4.10722C8.83889 3.98053 8.65062 3.91672 8.43735 3.91671Z" />
</svg>