<svg width="16" height="16" viewBox="0 0 16 16" xmlns="http://www.w3.org/2000/svg">
  <path
    d="M11.8165 4.02792H8.07236L7.5848 6.24635C7.75987 6.21467 7.9349 6.1823 8.10997 6.15062C8.29724 6.10836 8.57254 6.08776 8.93521 6.08776C9.56433 6.0878 10.1059 6.21933 10.5593 6.48328C11.0234 6.74726 11.3636 7.13314 11.5804 7.63989C11.8077 8.14686 11.8689 8.77577 11.7636 9.52565C11.6493 10.3388 11.3909 11.0414 10.9879 11.6329C10.5848 12.2244 10.0405 12.6786 9.356 12.9955C8.67158 13.3123 7.84951 13.4712 6.88972 13.4713C6.30307 13.4713 5.76071 13.4183 5.26357 13.3127C4.77708 13.207 4.35579 13.054 4 12.8533L4.28949 10.7935C4.63457 10.9941 5.05791 11.1688 5.55971 11.3166C6.07375 11.454 6.55542 11.5226 7.00342 11.5226C7.40851 11.5226 7.75861 11.4588 8.05363 11.3321C8.34868 11.2054 8.58426 11.01 8.76002 10.7461C8.94646 10.482 9.0693 10.1436 9.1272 9.73163C9.20583 9.17189 9.1048 8.74899 8.82491 8.46382C8.54648 8.16826 8.0765 8.02094 7.41548 8.02091C7.13821 8.02091 6.85629 8.05233 6.57013 8.11568C6.28537 8.16849 6.03722 8.22146 5.82713 8.27428L4.90714 7.76754L6.13373 2H12.1015L11.8165 4.02792Z" />
</svg>