<svg width="16" height="16" viewBox="0 0 16 16" xmlns="http://www.w3.org/2000/svg">
  <path fill-rule="evenodd" clip-rule="evenodd"
    d="M12.719 2C13.5936 2 14.2813 2.23164 14.7813 2.69628C15.2828 3.15049 15.6053 3.81654 15.7487 4.69326C15.9043 5.55938 15.896 6.60519 15.7238 7.8304C15.5962 8.73873 15.4125 9.55206 15.1729 10.2703C14.944 10.9884 14.639 11.6007 14.2585 12.1077C13.8794 12.6041 13.4315 12.9848 12.9145 13.2488C12.3974 13.5129 11.7864 13.6453 11.0824 13.6453C10.2078 13.6453 9.5202 13.4128 9.02023 12.9481C8.52029 12.4833 8.19776 11.8172 8.05284 10.9511C7.908 10.0851 7.92135 9.0448 8.09201 7.8304C8.26421 6.60516 8.53403 5.55939 8.90107 4.69326C9.26812 3.82714 9.761 3.16105 10.3809 2.69628C11.0115 2.23155 11.7911 2.00004 12.719 2ZM12.4475 3.93218C12.1276 3.93225 11.856 4.08037 11.6331 4.37606C11.4117 4.66126 11.223 5.09484 11.0667 5.67579C10.9226 6.24612 10.7899 6.96444 10.6682 7.8304C10.548 8.68589 10.4787 9.40409 10.4611 9.985C10.4556 10.5554 10.5224 10.989 10.6622 11.2847C10.8034 11.5697 11.0343 11.7121 11.3541 11.7122C11.674 11.7122 11.9398 11.5697 12.1505 11.2847C12.3719 10.9995 12.5599 10.5709 12.7148 10.0005C12.8817 9.41963 13.026 8.69628 13.1477 7.8304C13.2694 6.96443 13.3277 6.24612 13.3226 5.67579C13.3295 5.09483 13.2627 4.66126 13.1214 4.37606C12.9923 4.08032 12.7675 3.93218 12.4475 3.93218Z" />
  <path
    d="M4.62617 13.4867H2.01777L3.03099 6.2773C3.07875 6.01328 3.12233 5.7385 3.16241 5.45337C3.21313 5.16834 3.25964 4.91498 3.30146 4.69326C3.20726 4.75666 3.07884 4.87258 2.91659 5.0414C2.76484 5.21041 2.61099 5.35362 2.456 5.46981L1.10986 6.5152L0 5.07331L3.97582 2.17407H6.21606L4.62617 13.4867Z" />
</svg>