<?xml version="1.0" standalone="no"?><!DOCTYPE svg PUBLIC "-//W3C//DTD SVG 1.1//EN" "http://www.w3.org/Graphics/SVG/1.1/DTD/svg11.dtd"><svg class="icon" width="200px" height="200.00px" viewBox="0 0 1024 1024" version="1.1" xmlns="http://www.w3.org/2000/svg"><path d="M512 170.688A213.312 213.312 0 0 0 298.688 384v85.312H256c-33.28 0-76.992 12.928-111.744 41.152-33.408 27.136-58.88 68.608-58.88 129.536 0 60.352 26.24 101.888 60.48 129.344 35.712 28.608 79.68 41.344 110.144 41.344 41.536 0 95.552-0.64 139.2-22.272 20.736-10.24 38.4-24.96 51.392-46.784 12.992-22.08 22.72-54.144 22.72-101.632v-46.336l-64 64-60.288-60.352L512 430.272l167.04 167.04-60.352 60.352-64-64V640c0 59.2-12.224 107.072-34.688 145.024-22.528 38.144-53.76 63.488-87.04 79.872-62.912 31.168-135.296 31.104-174.656 31.104H256c-49.856 0-112.576-19.328-163.456-60.032C40.32 794.112 0 729.024 0 640c0-88.448 38.528-153.6 90.432-195.84a275.072 275.072 0 0 1 122.88-56.192V384a298.688 298.688 0 0 1 597.376 0v3.968a275.072 275.072 0 0 1 122.88 56.256C985.472 486.4 1024 551.552 1024 640c0 88.576-38.656 154.24-94.08 196.544-54.016 41.344-122.24 59.456-183.232 59.456H576v-85.312h170.688c45.632 0 94.72-13.888 131.392-41.92 35.264-26.944 60.608-68.032 60.608-128.768 0-60.928-25.536-102.4-58.88-129.536-34.752-28.224-78.528-41.152-111.808-41.152h-42.688V384A213.312 213.312 0 0 0 512 170.688z" /></svg>