<?xml version="1.0" standalone="no"?><!DOCTYPE svg PUBLIC "-//W3C//DTD SVG 1.1//EN" "http://www.w3.org/Graphics/SVG/1.1/DTD/svg11.dtd"><svg class="icon" width="200px" height="200.00px" viewBox="0 0 1024 1024" version="1.1" xmlns="http://www.w3.org/2000/svg"><path d="M554.624 85.312v48.064c73.6 18.944 128 85.76 128 165.312h128V384H768v42.688h170.624V512H896v341.376h42.624v85.312H85.312v-85.312H128V512h-42.688V426.688H256V384h-42.688V298.688h128c0-79.552 54.4-146.368 128-165.312v-48h85.312zM341.312 384v42.688h341.312V384H341.312z m256-85.312a85.312 85.312 0 0 0-170.688 0h170.688zM213.312 512v341.376h128V768a170.688 170.688 0 1 1 341.312 0v85.376h128V512H213.312z m384 341.376V768a85.312 85.312 0 1 0-170.688 0v85.376h170.688z" /></svg>