<?xml version="1.0" standalone="no"?><!DOCTYPE svg PUBLIC "-//W3C//DTD SVG 1.1//EN" "http://www.w3.org/Graphics/SVG/1.1/DTD/svg11.dtd"><svg class="icon" width="200px" height="200.00px" viewBox="0 0 1024 1024" version="1.1" xmlns="http://www.w3.org/2000/svg"><path d="M554.624 133.376v-48H469.312v48c-73.6 18.944-128 85.76-128 165.312h-128V384H256v42.688h512V384h42.624V298.688h-128c0-79.552-54.4-146.368-128-165.312zM85.312 512h853.312v85.312H896v256h42.624v85.376h-256v-85.376a170.688 170.688 0 1 0-341.312 0v85.376h-256v-85.376H128v-256h-42.688V512zM426.624 853.312a85.312 85.312 0 1 1 170.688 0v85.376H426.624v-85.376z" /></svg>