<?xml version="1.0" standalone="no"?><!DOCTYPE svg PUBLIC "-//W3C//DTD SVG 1.1//EN" "http://www.w3.org/Graphics/SVG/1.1/DTD/svg11.dtd"><svg class="icon" width="200px" height="200.00px" viewBox="0 0 1024 1024" version="1.1" xmlns="http://www.w3.org/2000/svg"><path d="M554.816 85.44l-0.064 46.08A256.064 256.064 0 0 1 768 384h170.624v554.688h-85.312v-192a149.312 149.312 0 1 0-298.688 0v192H469.312v-192a149.312 149.312 0 1 0-298.688 0v192H85.312V384H256a256.064 256.064 0 0 1 213.376-252.48l0.128-46.272 85.312 0.192zM469.248 255.936v85.504h85.504V255.936H469.248zM320 682.688a64 64 0 0 0-64 64v192h128v-192a64 64 0 0 0-64-64zM704 682.688a64 64 0 0 0-64 64v192h128v-192a64 64 0 0 0-64-64z" /></svg>