<?xml version="1.0" standalone="no"?><!DOCTYPE svg PUBLIC "-//W3C//DTD SVG 1.1//EN" "http://www.w3.org/Graphics/SVG/1.1/DTD/svg11.dtd"><svg class="icon" width="200px" height="200.00px" viewBox="0 0 1024 1024" version="1.1" xmlns="http://www.w3.org/2000/svg"><path d="M256 72.448l170.624 142.272V384h170.688V214.72L768 72.448l170.624 142.272v723.968H85.312V214.72L256 72.448zM682.624 384h170.688V254.72L768 183.552l-85.376 71.104V384z m170.688 85.312H170.624v384H384v-128a128 128 0 1 1 256 0v128h213.312v-384z m-298.688 384v-128a42.688 42.688 0 1 0-85.312 0v128h85.312zM170.624 384h170.688V254.72L256 183.552 170.624 254.656V384z" /></svg>