<?xml version="1.0" standalone="no"?><!DOCTYPE svg PUBLIC "-//W3C//DTD SVG 1.1//EN" "http://www.w3.org/Graphics/SVG/1.1/DTD/svg11.dtd"><svg class="icon" width="200px" height="200.00px" viewBox="0 0 1024 1024" version="1.1" xmlns="http://www.w3.org/2000/svg"><path d="M554.816 85.44l-0.064 46.08A256.064 256.064 0 0 1 768 384h170.624v554.688H85.312V384H256a256.064 256.064 0 0 1 213.376-252.48l0.128-46.272 85.312 0.192zM341.312 384h341.312a170.688 170.688 0 1 0-341.312 0z m127.936-128.064h85.504v85.504H469.248V255.936zM170.624 469.312v384h42.688v-128a128 128 0 0 1 256 0v128h85.312v-128a128 128 0 0 1 256 0v128h42.688v-384H170.624z m554.688 384v-128a42.688 42.688 0 0 0-85.312 0v128h85.312z m-341.312 0v-128a42.688 42.688 0 1 0-85.376 0v128H384z" /></svg>