<?xml version="1.0" standalone="no"?><!DOCTYPE svg PUBLIC "-//W3C//DTD SVG 1.1//EN" "http://www.w3.org/Graphics/SVG/1.1/DTD/svg11.dtd"><svg class="icon" width="200px" height="200.00px" viewBox="0 0 1024 1024" version="1.1" xmlns="http://www.w3.org/2000/svg"><path d="M554.752 131.584v-46.144l-85.248-0.192-0.128 46.272A256.064 256.064 0 0 0 256 384H85.312v554.688H320V832c0-82.88 41.344-145.152 75.52-182.72a367.104 367.104 0 0 1 64.32-55.808l8.256-5.312L512 561.792l43.904 26.368 8.256 5.312a367.104 367.104 0 0 1 64.32 55.808c34.112 37.568 75.52 99.84 75.52 182.72v106.688h234.624V384H768a256.064 256.064 0 0 0-213.248-252.416z m0 167.04V384H469.248V298.56h85.504zM405.312 832C405.312 725.312 512 661.312 512 661.312s106.624 64 106.624 170.688v106.688H405.312V832z" /></svg>