<?xml version="1.0" standalone="no"?><!DOCTYPE svg PUBLIC "-//W3C//DTD SVG 1.1//EN" "http://www.w3.org/Graphics/SVG/1.1/DTD/svg11.dtd"><svg class="icon" width="200px" height="200.00px" viewBox="0 0 1024 1024" version="1.1" xmlns="http://www.w3.org/2000/svg"><path d="M554.816 85.44l-0.064 46.08A256.064 256.064 0 0 1 768 384h170.624v554.688H85.312V384H256a256.064 256.064 0 0 1 213.376-252.48l0.128-46.272 85.312 0.192z m-42.88 127.872A170.688 170.688 0 0 0 341.376 384v85.312H170.624v384h170.688v-70.208c0-103.872 58.688-198.784 151.616-245.248L512 528.256l19.072 9.6a274.24 274.24 0 0 1 151.552 245.248v70.208h170.688v-384h-170.688V384A170.688 170.688 0 0 0 512 213.312z m85.376 640v-70.208A188.928 188.928 0 0 0 512 625.152a188.928 188.928 0 0 0-85.376 157.952v70.208h170.688zM469.248 341.248h85.504v85.504H469.248V341.248z" /></svg>