<?xml version="1.0" standalone="no"?><!DOCTYPE svg PUBLIC "-//W3C//DTD SVG 1.1//EN" "http://www.w3.org/Graphics/SVG/1.1/DTD/svg11.dtd"><svg class="icon" width="200px" height="200.00px" viewBox="0 0 1024 1024" version="1.1" xmlns="http://www.w3.org/2000/svg"><path d="M554.816 85.44l-0.064 46.08A256.064 256.064 0 0 1 768 384h85.312V128h85.312v810.688H85.312V128h85.312v256H256a256.064 256.064 0 0 1 213.376-252.48l0.128-46.272 85.312 0.192zM341.312 384h341.312a170.688 170.688 0 1 0-341.312 0zM170.624 469.312v384h170.688v-70.208c0-103.872 58.688-198.784 151.616-245.248L512 528.256l19.072 9.6a274.24 274.24 0 0 1 151.552 245.248v70.208h170.688v-384H170.624z m426.688 384v-70.208A188.928 188.928 0 0 0 512 625.152a188.928 188.928 0 0 0-85.376 157.952v70.208h170.688zM469.248 256h85.504v85.504H469.248V255.936z" /></svg>