<?xml version="1.0" standalone="no"?><!DOCTYPE svg PUBLIC "-//W3C//DTD SVG 1.1//EN" "http://www.w3.org/Graphics/SVG/1.1/DTD/svg11.dtd"><svg class="icon" width="200px" height="200.00px" viewBox="0 0 1024 1024" version="1.1" xmlns="http://www.w3.org/2000/svg"><path d="M256 72.448l170.624 142.208V384h170.688V214.656L768 72.448l170.624 142.208v724.032h-277.312v-149.376a149.312 149.312 0 1 0-298.688 0v149.376H85.312V214.656L256 72.448zM853.312 384V254.656L768 183.552l-85.376 71.04V384h170.688zM170.624 384h170.688V254.656L256 183.552l-85.376 71.04V384zM512 725.312a64 64 0 0 0-64 64v149.376h128v-149.376a64 64 0 0 0-64-64z" /></svg>