<?xml version="1.0" standalone="no"?><!DOCTYPE svg PUBLIC "-//W3C//DTD SVG 1.1//EN" "http://www.w3.org/Graphics/SVG/1.1/DTD/svg11.dtd"><svg class="icon" width="200px" height="200.00px" viewBox="0 0 1024 1024" version="1.1" xmlns="http://www.w3.org/2000/svg"><path d="M554.816 85.44l-0.064 46.08A256.064 256.064 0 0 1 768 384h85.312V128h85.312v810.688H704V832c0-82.88-41.408-145.152-75.52-182.72a367.104 367.104 0 0 0-64.32-55.808l-8.32-5.312L512 561.792l-43.904 26.368-8.32 5.312a367.104 367.104 0 0 0-64.32 55.808C361.408 686.848 320 749.12 320 832v106.688H85.376V128h85.312v256H256a256.064 256.064 0 0 1 213.376-252.48l0.128-46.272 85.312 0.192zM469.248 255.936v85.504h85.504V255.936H469.248zM512 661.312s-106.688 64-106.688 170.688v106.688h213.312V832C618.624 725.312 512 661.312 512 661.312z" /></svg>