<?xml version="1.0" standalone="no"?><!DOCTYPE svg PUBLIC "-//W3C//DTD SVG 1.1//EN" "http://www.w3.org/Graphics/SVG/1.1/DTD/svg11.dtd"><svg class="icon" width="200px" height="200.00px" viewBox="0 0 1024 1024" version="1.1" xmlns="http://www.w3.org/2000/svg"><path d="M303.424 296c0-115.84 92.928-210.688 208.64-210.688 115.648 0 208.576 94.848 208.576 210.688 0 115.84-92.928 210.688-208.64 210.688-115.712 0-208.576-94.848-208.576-210.688z m-260.736 432c0-115.84 92.864-210.624 208.64-210.624 115.648 0 208.576 94.784 208.576 210.624 0 115.84-92.928 210.688-208.64 210.688-115.712 0-208.576-94.848-208.576-210.688z m521.472 0c0-115.84 92.928-210.624 208.64-210.624 115.648 0 208.576 94.784 208.576 210.624 0 115.84-92.928 210.688-208.64 210.688-115.648 0-208.576-94.848-208.576-210.688z" /></svg>