<?xml version="1.0" standalone="no"?><!DOCTYPE svg PUBLIC "-//W3C//DTD SVG 1.1//EN" "http://www.w3.org/Graphics/SVG/1.1/DTD/svg11.dtd"><svg class="icon" width="200px" height="200.00px" viewBox="0 0 1024 1024" version="1.1" xmlns="http://www.w3.org/2000/svg"><path d="M512 170.688c-67.584 0-123.264 55.616-123.264 125.312 0 69.76 55.68 125.312 123.264 125.312s123.264-55.552 123.264-125.312c0-69.76-55.68-125.312-123.264-125.312zM303.424 296c0-115.84 92.928-210.688 208.64-210.688 115.648 0 208.576 94.848 208.576 210.688 0 115.84-92.928 210.688-208.64 210.688-115.712 0-208.576-94.848-208.576-210.688z m-52.16 306.688C183.68 602.688 128 658.304 128 728c0 69.76 55.68 125.376 123.264 125.376s123.264-55.68 123.264-125.376c0-69.76-55.68-125.312-123.264-125.312zM42.688 728c0-115.84 92.864-210.624 208.64-210.624 115.648 0 208.576 94.784 208.576 210.624 0 115.84-92.928 210.688-208.64 210.688-115.712 0-208.576-94.848-208.576-210.688z m730.048-125.312c-67.584 0-123.2 55.616-123.2 125.312 0 69.76 55.68 125.376 123.2 125.376 67.584 0 123.264-55.68 123.264-125.376 0-69.76-55.68-125.312-123.264-125.312z m-208.576 125.312c0-115.84 92.928-210.624 208.64-210.624 115.648 0 208.576 94.784 208.576 210.624 0 115.84-92.928 210.688-208.64 210.688-115.648 0-208.576-94.848-208.576-210.688z" /></svg>