<?xml version="1.0" standalone="no"?><!DOCTYPE svg PUBLIC "-//W3C//DTD SVG 1.1//EN" "http://www.w3.org/Graphics/SVG/1.1/DTD/svg11.dtd"><svg class="icon" width="200px" height="200.00px" viewBox="0 0 1024 1024" version="1.1" xmlns="http://www.w3.org/2000/svg"><path d="M512 128a384 384 0 0 0-384 384c0 213.504 158.528 379.584 369.216 379.584h0.128a509.952 509.952 0 0 0-6.656-10.688l-0.832-1.408c-17.088-27.2-30.336-62.528-27.904-101.312 2.56-40.192 21.568-79.168 60.352-111.68 44.032-36.8 96.576-37.696 137.28-36.096 9.152 0.384 17.792 0.832 25.984 1.28 32.32 1.792 57.92 3.2 83.072-3.648 78.976-21.312 122.88-73.792 127.488-141.76C909.824 282.496 730.24 128 512 128zM42.688 512A469.312 469.312 0 0 1 512 42.688c253.056 0 487.168 182.848 469.248 449.28-7.36 109.44-81.408 189.056-190.4 218.496-39.744 10.688-82.432 8.192-115.52 6.208a1029.184 1029.184 0 0 0-19.072-0.96c-39.168-1.536-61.888 1.792-79.168 16.256-22.464 18.816-29.056 36.736-29.952 51.52-1.024 16.192 4.48 33.984 14.912 50.56l1.152 1.856c4.16 6.528 10.112 16 15.04 25.792 5.12 10.24 11.84 25.792 12.352 43.2 0.64 20.864-7.872 42.88-29.824 57.088-18.176 11.712-40.96 14.976-63.552 14.976C236.608 976.96 42.688 769.792 42.688 512zM416 298.88a85.312 85.312 0 1 1 170.688 0 85.312 85.312 0 0 1-170.688 0z m-201.408 128a85.312 85.312 0 1 1 170.688 0 85.312 85.312 0 0 1-170.688 0z m404.864 0a85.312 85.312 0 1 1 170.624 0 85.312 85.312 0 0 1-170.624 0z" /></svg>