<?xml version="1.0" standalone="no"?><!DOCTYPE svg PUBLIC "-//W3C//DTD SVG 1.1//EN" "http://www.w3.org/Graphics/SVG/1.1/DTD/svg11.dtd"><svg class="icon" width="200px" height="200.00px" viewBox="0 0 1024 1024" version="1.1" xmlns="http://www.w3.org/2000/svg"><path d="M512 42.688A469.312 469.312 0 0 0 42.688 512c0 257.792 193.92 464.96 454.528 464.96 22.592 0 45.44-3.2 63.552-14.976 21.952-14.144 30.464-36.224 29.824-57.088a105.216 105.216 0 0 0-12.352-43.2 312.64 312.64 0 0 0-15.04-25.792l-1.152-1.856c-10.432-16.576-16-34.368-14.912-50.56 0.896-14.784 7.488-32.704 29.952-51.52 17.28-14.464 40-17.792 79.168-16.256 5.824 0.192 12.224 0.64 19.072 0.96 33.088 1.984 75.776 4.48 115.52-6.208 109.056-29.44 183.04-109.056 190.4-218.496 17.92-266.432-216.192-449.28-469.248-449.28zM416 298.816a85.312 85.312 0 1 1 170.688 0 85.312 85.312 0 0 1-170.688 0z m-201.408 128a85.312 85.312 0 1 1 170.688 0 85.312 85.312 0 0 1-170.688 0z m490.176-85.312a85.312 85.312 0 1 1 0 170.688 85.312 85.312 0 0 1 0-170.688z" /></svg>