<?xml version="1.0" standalone="no"?><!DOCTYPE svg PUBLIC "-//W3C//DTD SVG 1.1//EN" "http://www.w3.org/Graphics/SVG/1.1/DTD/svg11.dtd"><svg class="icon" width="200px" height="200.00px" viewBox="0 0 1024 1024" version="1.1" xmlns="http://www.w3.org/2000/svg"><path d="M981.376 134.656v754.688l-54.912-16.448h-0.128l-0.32-0.128-1.664-0.512-6.72-1.92a1808 1808 0 0 0-120.64-28.48c-78.528-15.744-182.144-31.168-284.992-31.168-102.784 0-206.4 15.424-284.928 31.168a1808.64 1808.64 0 0 0-120.64 28.48l-6.72 1.92-1.664 0.512-0.448 0.128-54.912 16.448V134.656l54.912 16.448h0.064l0.384 0.192 1.664 0.448 6.72 1.92a1800.832 1800.832 0 0 0 120.64 28.48c78.528 15.744 182.144 31.168 284.928 31.168 102.848 0 206.464-15.424 284.992-31.168a1800.128 1800.128 0 0 0 127.36-30.4l1.664-0.448 0.32-0.128h0.064l54.976-16.512zM896 247.488c-22.08 5.504-50.112 11.904-82.304 18.368-81.472 16.256-191.168 32.832-301.696 32.832-110.528 0-220.16-16.576-301.696-32.832-32.192-6.4-60.16-12.864-82.304-18.368v529.024c22.144-5.44 50.112-11.904 82.304-18.368 81.472-16.256 191.168-32.832 301.696-32.832 110.528 0 220.224 16.576 301.696 32.832 32.192 6.4 60.16 12.864 82.304 18.368V247.488z" /></svg>