<?xml version="1.0" standalone="no"?><!DOCTYPE svg PUBLIC "-//W3C//DTD SVG 1.1//EN" "http://www.w3.org/Graphics/SVG/1.1/DTD/svg11.dtd"><svg class="icon" width="200px" height="200.00px" viewBox="0 0 1024 1024" version="1.1" xmlns="http://www.w3.org/2000/svg"><path d="M134.656 42.688h754.688l-16.512 54.912v0.064l-0.128 0.384-0.448 1.664-1.92 6.72a1803.2 1803.2 0 0 0-28.48 120.64c-15.744 78.464-31.232 182.144-31.232 284.928 0 102.784 15.488 206.464 31.168 284.992a1802.432 1802.432 0 0 0 28.48 120.576l1.92 6.784 0.512 1.6 0.128 0.384v0.064l16.512 54.912H134.656l16.448-54.912 0.128-0.448 0.512-1.6 1.92-6.784a1800.704 1800.704 0 0 0 28.48-120.64c15.68-78.464 31.168-182.144 31.168-284.928 0-102.784-15.488-206.464-31.168-284.992a1801.472 1801.472 0 0 0-30.4-127.36l-0.512-1.6-0.128-0.384v-0.064L134.656 42.688zM247.488 128c5.44 22.144 11.904 50.112 18.304 82.304 16.32 81.472 32.832 191.168 32.832 301.696 0 110.528-16.512 220.224-32.832 301.696-6.4 32.192-12.8 60.16-18.304 82.304h528.96a1925.568 1925.568 0 0 1-18.304-82.304c-16.32-81.472-32.832-191.168-32.832-301.696 0-110.528 16.512-220.224 32.832-301.696 6.4-32.192 12.864-60.16 18.304-82.304H247.488z" /></svg>