<?xml version="1.0" standalone="no"?><!DOCTYPE svg PUBLIC "-//W3C//DTD SVG 1.1//EN" "http://www.w3.org/Graphics/SVG/1.1/DTD/svg11.dtd"><svg class="icon" width="200px" height="200.00px" viewBox="0 0 1024 1024" version="1.1" xmlns="http://www.w3.org/2000/svg"><path d="M344.896 337.6c-9.792 18.752-20.096 38.528-29.184 50.688-37.952 50.56-68.48 90.368-94.848 117.312-25.344 25.92-55.296 49.088-92.864 49.088h-42.688V469.376H128c0.768 0 9.216-0.32 31.872-23.488 21.696-22.144 48.768-57.024 87.552-108.8 4.48-6.016 10.752-17.92 21.12-37.76l5.888-11.136c12.672-24.32 28.864-54.144 48.832-83.072 38.528-55.808 99.2-119.808 188.736-119.808 89.472 0 150.208 64 188.672 119.808 19.968 28.928 36.16 58.816 48.896 83.072l5.76 11.136c10.432 19.84 16.64 31.744 21.184 37.76 38.848 51.776 65.92 86.656 87.552 108.8 22.656 23.168 31.104 23.488 31.936 23.488h42.624v85.312H896c-37.632 0-67.584-23.168-92.928-49.088-26.304-26.88-56.832-66.688-94.848-117.312-9.088-12.16-19.392-31.936-29.12-50.688a4023.68 4023.68 0 0 0-5.12-9.728 718.976 718.976 0 0 0-43.52-74.24C595.392 202.688 556.8 170.624 512 170.624c-44.928 0-83.392 32-118.528 82.88-16.832 24.448-31.04 50.56-43.52 74.24l-5.12 9.792z m-174.272 345.088V768h298.688v-85.312h85.312V768h298.688v-85.312h85.312V896h-85.312v-42.624H554.624V896H469.312v-42.624H170.624V896H85.312v-213.312h85.312z" /></svg>