<?xml version="1.0" standalone="no"?><!DOCTYPE svg PUBLIC "-//W3C//DTD SVG 1.1//EN" "http://www.w3.org/Graphics/SVG/1.1/DTD/svg11.dtd"><svg class="icon" width="200px" height="200.00px" viewBox="0 0 1024 1024" version="1.1" xmlns="http://www.w3.org/2000/svg"><path d="M232.32 193.664l-18.688 38.4A637.312 637.312 0 0 0 149.312 512c0 100.48 23.168 195.456 64.32 279.936l18.688 38.4-76.672 37.376-18.688-38.4A722.624 722.624 0 0 1 64 512c0-113.728 26.24-221.44 72.96-317.376l18.688-38.4 76.672 37.44z m636.032-37.376l18.688 38.4A722.624 722.624 0 0 1 960 512c0 113.728-26.24 221.44-72.96 317.376l-18.688 38.336-76.672-37.376 18.688-38.4A637.312 637.312 0 0 0 874.688 512c0-100.48-23.168-195.456-64.32-280l-18.688-38.4 76.672-37.312z" /></svg>