<?xml version="1.0" standalone="no"?><!DOCTYPE svg PUBLIC "-//W3C//DTD SVG 1.1//EN" "http://www.w3.org/Graphics/SVG/1.1/DTD/svg11.dtd"><svg class="icon" width="200px" height="200.00px" viewBox="0 0 1024 1024" version="1.1" xmlns="http://www.w3.org/2000/svg"><path d="M512 42.688a776.96 776.96 0 0 0-265.28 45.184c-31.296 11.392-55.68 22.848-72.448 31.616a398.08 398.08 0 0 0-26.496 15.168l-0.512 0.32-0.128 0.064-0.128 0.064L128 147.84v705.472h-42.688v85.312h213.312V384H384v85.312h85.312V384h85.312v554.624h384v-85.312H896V147.84l-19.072-12.736H876.8l-0.192-0.128-0.512-0.32a174.08 174.08 0 0 0-6.912-4.352 398.72 398.72 0 0 0-19.52-10.816 603.136 603.136 0 0 0-72.512-31.616A776.96 776.96 0 0 0 512 42.688zM469.312 938.624v-85.312H384v85.312h85.312zM469.312 768H384v-64h85.312v64zM469.312 618.624H384v-64h85.312v64z" /></svg>