<?xml version="1.0" standalone="no"?><!DOCTYPE svg PUBLIC "-//W3C//DTD SVG 1.1//EN" "http://www.w3.org/Graphics/SVG/1.1/DTD/svg11.dtd"><svg class="icon" width="200px" height="200.00px" viewBox="0 0 1024 1024" version="1.1" xmlns="http://www.w3.org/2000/svg"><path d="M246.72 87.872A776.96 776.96 0 0 1 512 42.688c112.384 0 202.688 22.4 265.216 45.184 31.296 11.392 55.68 22.848 72.512 31.616a398.72 398.72 0 0 1 26.432 15.168l0.512 0.32 0.192 0.064v0.064h0.128L896 147.84v705.472h42.624v85.312H85.312v-85.312H128V147.84l19.008-12.672 0.128-0.128 0.128-0.064 0.512-0.32a152.512 152.512 0 0 1 6.976-4.352c4.544-2.688 11.072-6.4 19.52-10.816a603.008 603.008 0 0 1 72.448-31.616z m-33.408 107.52v657.92h85.312V320H384v85.312h85.312V320h85.312v533.312h256V195.392A691.648 691.648 0 0 0 512 128c-100.864 0-181.248 20.16-236.032 40.064a517.952 517.952 0 0 0-62.592 27.328zM384 490.688v64h85.312v-64H384zM469.312 640H384v64h85.312v-64z m0 149.312H384v64h85.312v-64z" /></svg>