<?xml version="1.0" standalone="no"?><!DOCTYPE svg PUBLIC "-//W3C//DTD SVG 1.1//EN" "http://www.w3.org/Graphics/SVG/1.1/DTD/svg11.dtd"><svg class="icon" width="200px" height="200.00px" viewBox="0 0 1024 1024" version="1.1" xmlns="http://www.w3.org/2000/svg"><path d="M554.56 42.624l0.064 92.672a128 128 0 0 1 0 241.408v183.36a170.752 170.752 0 0 1 79.36 284.608l80.832 136.64h-99.2l-54.592-92.48a170.752 170.752 0 0 1-98.048 0l-54.528 92.48H309.312l80.64-136.704a166.656 166.656 0 0 1-48.64-119.296c0-79.488 54.4-146.304 128-165.248V376.704a128 128 0 0 1 0-241.408L469.248 42.688 554.56 42.624zM512 213.312a42.688 42.688 0 1 0 0 85.376 42.688 42.688 0 0 0 0-85.376zM512 640c-47.104 0-85.312 38.208-85.312 85.312 0 22.08 7.04 40.32 21.44 56.576a84.736 84.736 0 0 0 63.872 28.8 84.736 84.736 0 0 0 65.088-30.144A85.312 85.312 0 0 0 512 640z" /></svg>