<?xml version="1.0" standalone="no"?><!DOCTYPE svg PUBLIC "-//W3C//DTD SVG 1.1//EN" "http://www.w3.org/Graphics/SVG/1.1/DTD/svg11.dtd"><svg class="icon" width="200px" height="200.00px" viewBox="0 0 1024 1024" version="1.1" xmlns="http://www.w3.org/2000/svg"><path d="M698.112 110.72L626.816 240.896a384 384 0 0 1-204.16 175.808l-163.392 60.16-31.424 258.816 241.536-241.536 60.352 60.352-241.536 241.536 258.752-31.488 60.48-165.76a384 384 0 0 1 171.776-202.624l130.24-73.6 41.984 74.304-130.24 73.6a298.688 298.688 0 0 0-133.632 157.632L609.152 842.88l-487.552 59.264 59.264-487.424 212.288-78.08a298.688 298.688 0 0 0 158.784-136.832L623.36 69.696l74.816 41.024z" /></svg>