<?xml version="1.0" standalone="no"?><!DOCTYPE svg PUBLIC "-//W3C//DTD SVG 1.1//EN" "http://www.w3.org/Graphics/SVG/1.1/DTD/svg11.dtd"><svg class="icon" width="200px" height="200.00px" viewBox="0 0 1024 1024" version="1.1" xmlns="http://www.w3.org/2000/svg"><path d="M256 213.312a64 64 0 1 0 0 128 64 64 0 0 0 0-128z m-149.312 64a149.312 149.312 0 1 1 298.688 0 149.312 149.312 0 0 1-298.688 0z m764.352-64L213.376 871.04l-60.352-60.352L810.688 152.96l60.352 60.288zM768 682.688a64 64 0 1 0 0 128 64 64 0 0 0 0-128z m-149.312 64a149.312 149.312 0 1 1 298.688 0 149.312 149.312 0 0 1-298.688 0z" /></svg>