<?xml version="1.0" standalone="no"?><!DOCTYPE svg PUBLIC "-//W3C//DTD SVG 1.1//EN" "http://www.w3.org/Graphics/SVG/1.1/DTD/svg11.dtd"><svg class="icon" width="200px" height="200.00px" viewBox="0 0 1024 1024" version="1.1" xmlns="http://www.w3.org/2000/svg"><path d="M128 42.688h529.664L896 280.96v700.288H128V42.688zM213.312 128v768h597.376V316.352L622.336 128h-408.96zM512 384a64 64 0 1 0 0 128 64 64 0 0 0 0-128zM362.688 448a149.312 149.312 0 1 1 298.624 0 149.312 149.312 0 0 1-298.624 0zM256 810.688A170.688 170.688 0 0 1 426.688 640h170.624A170.688 170.688 0 0 1 768 810.688v42.624h-85.312v-42.624c0-47.168-38.208-85.376-85.376-85.376H426.688c-47.168 0-85.376 38.208-85.376 85.376v42.624H256v-42.624z" /></svg>