<?xml version="1.0" standalone="no"?><!DOCTYPE svg PUBLIC "-//W3C//DTD SVG 1.1//EN" "http://www.w3.org/Graphics/SVG/1.1/DTD/svg11.dtd"><svg class="icon" width="200px" height="200.00px" viewBox="0 0 1024 1024" version="1.1" xmlns="http://www.w3.org/2000/svg"><path d="M853.376 42.688H170.688v938.624h460.672a266.752 266.752 0 0 1-161.792-256H256V128h512v343.232a264.96 264.96 0 0 1 85.376 25.216V42.688zM938.688 736c0 40.512-11.904 78.208-32.32 109.888l71.296 71.552-60.416 60.224-71.232-71.424a202.688 202.688 0 1 1 92.672-170.24z m-85.312 0a117.312 117.312 0 1 0-34.688 83.264l0.384-0.384c21.184-21.248 34.304-50.56 34.304-82.88z" /></svg>