<?xml version="1.0" standalone="no"?><!DOCTYPE svg PUBLIC "-//W3C//DTD SVG 1.1//EN" "http://www.w3.org/Graphics/SVG/1.1/DTD/svg11.dtd"><svg class="icon" width="200px" height="200.00px" viewBox="0 0 1024 1024" version="1.1" xmlns="http://www.w3.org/2000/svg"><path d="M85.312 85.312H384v85.376H170.624V384H85.312V85.312z m554.688 0h298.624V384h-85.312V170.688H640V85.312zM512 362.688a64 64 0 1 1 0 128 64 64 0 0 1 0-128z m113.664 160.768a149.312 149.312 0 1 0-227.456 0A213.12 213.12 0 0 0 298.688 704v42.752H384V704a128 128 0 0 1 256 0v42.688h85.312V704a213.12 213.12 0 0 0-99.648-180.48zM170.624 640v213.376H384v85.376H85.312V640h85.312z m768 0v298.752H640v-85.376h213.312V640h85.312z" /></svg>