<?xml version="1.0" standalone="no"?><!DOCTYPE svg PUBLIC "-//W3C//DTD SVG 1.1//EN" "http://www.w3.org/Graphics/SVG/1.1/DTD/svg11.dtd"><svg class="icon" width="200px" height="200.00px" viewBox="0 0 1024 1024" version="1.1" xmlns="http://www.w3.org/2000/svg"><path d="M170.624 170.688V384H85.312V85.312H384v85.376H170.624zM853.312 170.688V384h85.312V85.312H640v85.376h213.312zM170.624 640v213.312H384v85.376H85.312V640h85.312zM853.312 853.312V640h85.312v298.688H640v-85.376h213.312zM512 298.688a128 128 0 0 1 56.192 243.008A192.064 192.064 0 0 1 704 725.376v42.496H320v-42.56c0-86.464 57.152-159.616 135.744-183.68A128 128 0 0 1 512 298.752z" /></svg>