<?xml version="1.0" standalone="no"?><!DOCTYPE svg PUBLIC "-//W3C//DTD SVG 1.1//EN" "http://www.w3.org/Graphics/SVG/1.1/DTD/svg11.dtd"><svg class="icon" width="200px" height="200.00px" viewBox="0 0 1024 1024" version="1.1" xmlns="http://www.w3.org/2000/svg"><path d="M554.624 85.312v256H469.312v-256h85.312z m-384 24.96L423.04 362.752l-60.352 60.288-252.288-252.288 60.288-60.352z m743.04 60.416l-252.352 252.288-60.352-60.288 252.352-252.352 60.352 60.352zM438.08 469.312a85.312 85.312 0 1 1 0 85.376H85.312V469.312h352.768z m244.544 0h256v85.376h-256V469.312z m-259.648 192l-252.352 252.352-60.288-60.352L362.624 600.96l60.352 60.352z m238.336-60.352l252.352 252.352-60.352 60.352-252.352-252.352 60.352-60.352z m-106.688 81.728v256H469.312v-256h85.312z" /></svg>