<?xml version="1.0" standalone="no"?><!DOCTYPE svg PUBLIC "-//W3C//DTD SVG 1.1//EN" "http://www.w3.org/Graphics/SVG/1.1/DTD/svg11.dtd"><svg class="icon" width="200px" height="200.00px" viewBox="0 0 1024 1024" version="1.1" xmlns="http://www.w3.org/2000/svg"><path d="M256 85.312h512v85.376h-42.688v170.688h85.312v128h42.688v128H896v128h42.624v256H85.312v-256H128v-128h42.624v-128h42.688v-128h85.312V170.688H256V85.376z m128 85.376v170.688h255.936V170.688H384z m170.624 256H469.312V896h85.312V426.688zM640 896h213.312v-85.312h-42.688v-128H768v-128h-42.688v-128H640V896z m-256 0V426.688H298.624v128H256v128h-42.688v128h-42.688V896H384zM469.312 213.248h85.504v85.504H469.312V213.248z" /></svg>