<svg width="16" height="16" viewBox="0 0 16 16" xmlns="http://www.w3.org/2000/svg">
  <g clip-path="url(#clip0_321_19796)">
    <path
      d="M8.19927 0.325593C8.29699 0.322998 12.9285 0.229157 13.0811 5.61856C13.0867 5.62099 13.8062 5.93448 13.6094 7.66934C13.6229 7.68165 14.9964 8.93597 15.3252 10.8451C15.3252 10.8451 15.5011 14.0868 13.7422 11.2426C13.7364 11.2584 13.3404 12.3302 12.6202 13.2934C12.63 13.2967 13.9171 13.7393 13.8077 14.8813C13.808 14.8938 13.8378 16.1589 11.0362 16.0717C11.0362 16.0717 9.05612 15.9176 8.46196 15.0795H7.93852C7.34893 15.9109 5.39709 16.0691 5.3643 16.0717C2.56163 16.159 2.59147 14.894 2.59184 14.8813C2.48184 13.7421 3.76325 13.2989 3.77934 13.2934C3.05855 12.3294 2.66251 11.2568 2.65727 11.2426C0.896711 14.0867 1.07329 10.8451 1.07329 10.8451C1.40328 8.9265 2.78911 7.66934 2.78911 7.66934C2.59353 5.9451 3.30318 5.62481 3.31743 5.61856C3.46916 0.231093 8.09831 0.322935 8.19927 0.325593ZM11.3604 6.1088C11.1312 5.89479 10.7762 5.8948 10.5469 6.1088L7.90434 8.57559C7.86599 8.6114 7.80605 8.61128 7.76762 8.57559L6.61919 7.50333C6.38995 7.28932 6.03397 7.28932 5.80473 7.50333C5.55219 7.73917 5.5522 8.13956 5.80473 8.3754L7.15337 9.63419C7.5376 9.99289 8.13437 9.99289 8.5186 9.63419L11.3604 6.98087C11.613 6.74502 11.613 6.34465 11.3604 6.1088Z" />
  </g>
  <defs>
    <clipPath id="clip0_321_19796">
      <rect width="16" height="16" fill="white" />
    </clipPath>
  </defs>
</svg>