<svg width="16" height="16" viewBox="0 0 16 16" xmlns="http://www.w3.org/2000/svg">
  <g clip-path="url(#clip0_321_19791)">
    <path
      d="M8.19921 0.325593C8.29694 0.322998 12.9284 0.229157 13.081 5.61856C13.0869 5.6211 13.8061 5.93469 13.6094 7.66934C13.6247 7.68327 14.9966 8.93717 15.3252 10.8451C15.3252 10.8451 15.501 14.0867 13.7422 11.2426C13.7349 11.2624 13.339 12.332 12.6201 13.2934C12.6296 13.2966 13.917 13.7391 13.8076 14.8813C13.8081 14.8992 13.8316 16.1587 11.0361 16.0717C11.0361 16.0717 9.05607 15.9176 8.4619 15.0795H7.93847C7.34858 15.9114 5.39512 16.0692 5.36425 16.0717C2.56771 16.1588 2.59129 14.8994 2.59179 14.8813C2.48192 13.7435 3.76003 13.3 3.77929 13.2934C3.06302 12.3355 2.66826 11.2699 2.65819 11.2426C0.897403 14.0874 1.07323 10.8451 1.07323 10.8451C1.40198 8.93347 2.77896 7.67851 2.78905 7.66934C2.59374 5.94768 3.30101 5.62577 3.31737 5.61856C3.46908 0.231756 8.09716 0.322913 8.19921 0.325593ZM8.18847 10.7553C7.63039 10.7555 7.17796 11.2079 7.17772 11.766C7.17772 12.3243 7.63024 12.7775 8.18847 12.7777C8.74689 12.7777 9.20019 12.3244 9.20019 11.766C9.19995 11.2078 8.74674 10.7553 8.18847 10.7553ZM7.68261 3.99942C7.21432 3.99942 6.85236 4.41081 6.91112 4.8754L7.42479 8.9418C7.47396 9.33053 7.80837 9.62247 8.20019 9.62247C8.59193 9.62238 8.92544 9.33046 8.9746 8.9418L9.48925 4.8754C9.54801 4.41085 9.186 3.99948 8.71776 3.99942H7.68261Z" />
  </g>
  <defs>
    <clipPath id="clip0_321_19791">
      <rect width="16" height="16" fill="white" />
    </clipPath>
  </defs>
</svg>