<?xml version="1.0" standalone="no"?><!DOCTYPE svg PUBLIC "-//W3C//DTD SVG 1.1//EN" "http://www.w3.org/Graphics/SVG/1.1/DTD/svg11.dtd"><svg class="icon" width="200px" height="200.00px" viewBox="0 0 1024 1024" version="1.1" xmlns="http://www.w3.org/2000/svg"><path d="M85.312 85.312h384v384h-384v-384z m85.312 85.376V384H384V170.688H170.624z m384-85.376h384v384h-384v-384zM640 170.688V384h213.312V170.688H640z m-405.376 64h85.504v85.504H234.624V234.688z m469.376 0h85.504v85.504H704V234.688zM554.496 554.496H640V640H554.496V554.496z m298.624 0h85.504V640H853.12V554.496z m-767.808 0.192h384v384h-384v-384zM170.624 640v213.312H384V640H170.624z m511.872 42.496H768v85.312h85.312v85.376h85.312v85.504H853.12v-85.376h-85.312V768h-85.312v-85.504zM234.624 704h85.504v85.504H234.624V704z m319.872 149.12H640v85.568H554.496V853.12z" /></svg>