<?xml version="1.0" standalone="no"?><!DOCTYPE svg PUBLIC "-//W3C//DTD SVG 1.1//EN" "http://www.w3.org/Graphics/SVG/1.1/DTD/svg11.dtd"><svg class="icon" width="200px" height="200.00px" viewBox="0 0 1024 1024" version="1.1" xmlns="http://www.w3.org/2000/svg"><path d="M540.032 70.4l23.04 16.128c1.664 1.088 58.944 40.448 147.136 74.752 85.696 33.28 168.96 35.136 169.92 35.2h0.256l38.4 0.64 15.744 0.128 0.128 390.016c0 100.544-66.944 201.216-148.224 275.52a595.712 595.712 0 0 1-130.496 91.328c-43.84 22.144-87.68 35.712-124.992 35.712-37.376 0-81.088-13.568-124.928-35.712a595.712 595.712 0 0 1-130.56-91.328c-81.28-74.304-148.224-174.976-148.224-275.52V197.248l15.808-0.192 38.592-0.64h0.256c1.856 0 84.672-2.048 169.792-35.2 88.576-34.432 145.92-73.984 147.008-74.688l23.04-16.064L530.88 64l9.152 6.4z m-9.088 99.264c-25.856 16-78.272 46.272-147.52 73.216a642.816 642.816 0 0 1-168.576 38.848v305.536c0 69.312 50.816 148.096 118.72 210.88 33.536 30.976 70.4 57.28 105.408 75.648 35.392 18.56 67.52 28.48 91.968 28.48 24.448 0 56.64-9.92 91.968-28.48a508.16 508.16 0 0 0 105.472-75.648c67.904-62.784 118.72-141.568 118.72-210.88l-0.128-305.536c-36.864-3.52-101.44-12.8-168.512-38.848A899.712 899.712 0 0 1 530.944 169.6z m146.048 170.368v405.056h-83.2V628.416H436.032a51.2 51.2 0 0 1-51.072-51.2V391.168a51.2 51.2 0 0 1 51.2-51.2l240.768 0.064z m-208.768 83.2v121.984h125.504V423.232h-125.44zM540.032 70.4l23.04 16.128c1.664 1.088 58.944 40.448 147.136 74.752 85.696 33.28 168.96 35.136 169.92 35.2h0.256l38.4 0.64 15.744 0.128 0.128 390.016c0 100.544-66.944 201.216-148.224 275.52a595.712 595.712 0 0 1-130.496 91.328c-43.84 22.144-87.68 35.712-124.992 35.712-37.376 0-81.088-13.568-124.928-35.712a595.712 595.712 0 0 1-130.56-91.328c-81.28-74.304-148.224-174.976-148.224-275.52V197.248l15.808-0.192 38.592-0.64h0.256c1.856 0 84.672-2.048 169.792-35.2 88.576-34.432 145.92-73.984 147.008-74.688l23.04-16.064L530.88 64l9.152 6.4z m-9.088 99.264c-25.856 16-78.272 46.272-147.52 73.216a642.816 642.816 0 0 1-168.576 38.848v305.536c0 69.312 50.816 148.096 118.72 210.88 33.536 30.976 70.4 57.28 105.408 75.648 35.392 18.56 67.52 28.48 91.968 28.48 24.448 0 56.64-9.92 91.968-28.48a508.16 508.16 0 0 0 105.472-75.648c67.904-62.784 118.72-141.568 118.72-210.88l-0.128-305.536c-36.864-3.52-101.44-12.8-168.512-38.848A899.712 899.712 0 0 1 530.944 169.6z m146.048 170.368v405.056h-83.2V628.416H436.032a51.2 51.2 0 0 1-51.072-51.2V391.168a51.2 51.2 0 0 1 51.2-51.2l240.768 0.064z m-208.768 83.2v121.984h125.504V423.232h-125.44z" /></svg>