<?xml version="1.0" standalone="no"?><!DOCTYPE svg PUBLIC "-//W3C//DTD SVG 1.1//EN" "http://www.w3.org/Graphics/SVG/1.1/DTD/svg11.dtd"><svg class="icon" width="200px" height="200.00px" viewBox="0 0 1024 1024" version="1.1" xmlns="http://www.w3.org/2000/svg"><path d="M853.376 85.312v597.376H248.32L42.688 829.568V85.312h810.688zM405.376 320a42.688 42.688 0 0 1 85.312 0c0 13.824-3.328 21.632-6.4 26.368a41.152 41.152 0 0 1-14.72 12.992c-6.784 3.904-13.952 6.528-22.08 9.344l-0.832 0.256a135.04 135.04 0 0 0-13.12 5.12 54.08 54.08 0 0 0-12.608 8.192 44.928 44.928 0 0 0-15.424 33.728v42.688h85.312v-15.04c6.4-2.56 13.696-5.952 21.12-10.112 14.72-8.448 31.168-21.12 43.84-40.576C568.704 373.12 576 348.8 576 320a128 128 0 1 0-256 0v42.688h85.376V320zM490.88 490.688H405.376v85.504H490.88V490.688zM1002.688 978.944V192h-85.312v621.12l-92.992-66.432H320V832h476.928l205.696 146.944z" /></svg>