<?xml version="1.0" standalone="no"?><!DOCTYPE svg PUBLIC "-//W3C//DTD SVG 1.1//EN" "http://www.w3.org/Graphics/SVG/1.1/DTD/svg11.dtd"><svg class="icon" width="200px" height="200.00px" viewBox="0 0 1024 1024" version="1.1" xmlns="http://www.w3.org/2000/svg"><path d="M42.688 85.312h810.688v597.376H248.32L42.688 829.568V85.312zM128 170.688v493.056l92.992-66.432H768V170.688H128zM1002.688 192v786.944L796.992 832H320v-85.312h504.32l93.056 66.432V192h85.312zM448 277.312A42.688 42.688 0 0 0 405.376 320v42.688H320V320a128 128 0 1 1 256 0c0 28.8-7.296 53.12-20.224 72.96a126.08 126.08 0 0 1-43.904 40.576c-7.36 4.16-14.656 7.488-21.056 10.112v15.04H405.504V416c0-18.048 10.432-29.312 15.36-33.728 5.12-4.48 10.24-7.04 12.672-8.128a134.976 134.976 0 0 1 13.952-5.44c8.128-2.816 15.36-5.44 22.144-9.344a41.152 41.152 0 0 0 14.72-12.992c3.008-4.736 6.336-12.544 6.336-26.368A42.688 42.688 0 0 0 448 277.312z m-42.624 213.376H490.88v85.504H405.376V490.688z" /></svg>