<?xml version="1.0" standalone="no"?><!DOCTYPE svg PUBLIC "-//W3C//DTD SVG 1.1//EN" "http://www.w3.org/Graphics/SVG/1.1/DTD/svg11.dtd"><svg class="icon" width="200px" height="200.00px" viewBox="0 0 1024 1024" version="1.1" xmlns="http://www.w3.org/2000/svg"><path d="M64 85.312h896V768H293.376L64 968.704V85.312z m85.312 85.376v609.92l112-97.92h613.376v-512H149.312zM512 320a42.688 42.688 0 0 0-42.688 42.688v42.624H384v-42.624a128 128 0 1 1 256 0c0 28.8-7.36 53.12-20.224 72.96a126.08 126.08 0 0 1-43.904 40.512c-7.36 4.224-14.656 7.552-21.056 10.112v15.04H469.504v-42.624c0-18.112 10.432-29.312 15.36-33.728 5.12-4.48 10.24-7.04 12.608-8.192 4.544-2.112 9.984-4.032 13.184-5.12l0.768-0.256c8.128-2.88 15.36-5.44 22.144-9.344a41.152 41.152 0 0 0 14.72-12.992c3.072-4.736 6.4-12.544 6.4-26.368A42.688 42.688 0 0 0 512 320z m-42.688 213.312H554.88V618.88H469.312V533.312z" /></svg>