<?xml version="1.0" standalone="no"?><!DOCTYPE svg PUBLIC "-//W3C//DTD SVG 1.1//EN" "http://www.w3.org/Graphics/SVG/1.1/DTD/svg11.dtd"><svg class="icon" width="200px" height="200.00px" viewBox="0 0 1024 1024" version="1.1" xmlns="http://www.w3.org/2000/svg"><path d="M960 85.312V768H293.376L64 968.704V85.312h896zM469.312 362.688a42.688 42.688 0 0 1 85.376 0c0 13.824-3.328 21.632-6.4 26.368a41.152 41.152 0 0 1-14.72 12.992c-6.784 3.84-14.016 6.464-22.144 9.344l-0.768 0.256c-3.2 1.088-8.64 3.008-13.184 5.12a54.08 54.08 0 0 0-12.608 8.192 44.928 44.928 0 0 0-15.36 33.728v42.624h85.312v-15.04c6.4-2.56 13.696-5.888 21.12-10.112 14.72-8.384 31.168-21.12 43.84-40.512 12.864-19.84 20.224-44.16 20.224-72.96a128 128 0 1 0-256 0v42.624h85.312v-42.624zM554.88 533.312H469.312V618.88H554.88V533.312z" /></svg>