<?xml version="1.0" standalone="no"?><!DOCTYPE svg PUBLIC "-//W3C//DTD SVG 1.1//EN" "http://www.w3.org/Graphics/SVG/1.1/DTD/svg11.dtd"><svg class="icon" width="200px" height="200.00px" viewBox="0 0 1024 1024" version="1.1" xmlns="http://www.w3.org/2000/svg"><path d="M469.376 130.368a384 384 0 1 0 353.28 155.776l-25.152-34.496 68.992-50.24 25.088 34.496a469.312 469.312 0 1 1-379.52-193.28h42.624v395.52A85.696 85.696 0 0 1 597.376 512a85.312 85.312 0 1 1-128-73.92v-113.28a192.064 192.064 0 1 0 197.952 74.24l-25.152-34.432 68.992-50.24 25.152 34.496a277.312 277.312 0 1 1-266.944-110.912V130.368z" /></svg>