<?xml version="1.0" standalone="no"?><!DOCTYPE svg PUBLIC "-//W3C//DTD SVG 1.1//EN" "http://www.w3.org/Graphics/SVG/1.1/DTD/svg11.dtd"><svg class="icon" width="200px" height="200.00px" viewBox="0 0 1024 1024" version="1.1" xmlns="http://www.w3.org/2000/svg"><path d="M42.688 128h938.688v682.688h-170.688v128h-85.312v-128H298.688v128H213.376v-128H42.688V128zM128 213.312v512h768v-512H128zM640 384a85.312 85.312 0 1 0 0 170.688A85.312 85.312 0 0 0 640 384zM469.376 469.312a170.688 170.688 0 1 1 341.312 0 170.688 170.688 0 0 1-341.312 0z m-256-128H384v85.376H213.376V341.312z m0 170.688H384v85.312H213.376V512z" /></svg>