<?xml version="1.0" standalone="no"?><!DOCTYPE svg PUBLIC "-//W3C//DTD SVG 1.1//EN" "http://www.w3.org/Graphics/SVG/1.1/DTD/svg11.dtd"><svg class="icon" width="200px" height="200.00px" viewBox="0 0 1024 1024" version="1.1" xmlns="http://www.w3.org/2000/svg"><path d="M554.688 469.312a85.312 85.312 0 1 1 170.688 0 85.312 85.312 0 0 1-170.688 0zM981.376 128v682.688h-170.688v128h-85.312v-128H298.688v128H213.376v-128H42.688V128h938.688zM640 298.688A170.688 170.688 0 1 0 640 640a170.688 170.688 0 0 0 0-341.312z m-256 42.624H213.376v85.376H384V341.312zM384 512H213.376v85.312H384V512z" /></svg>