<?xml version="1.0" standalone="no"?><!DOCTYPE svg PUBLIC "-//W3C//DTD SVG 1.1//EN" "http://www.w3.org/Graphics/SVG/1.1/DTD/svg11.dtd"><svg class="icon" width="200px" height="200.00px" viewBox="0 0 1024 1024" version="1.1" xmlns="http://www.w3.org/2000/svg"><path d="M569.28 104.448L266.112 256h715.264v682.688h-42.688V896v42.688h-896V272.32L531.072 28.096l38.208 76.352zM896 853.312v-512H128v512h768zM384 512a85.312 85.312 0 1 0 0 170.688A85.312 85.312 0 0 0 384 512zM213.376 597.312a170.688 170.688 0 1 1 341.312 0 170.688 170.688 0 0 1-341.312 0z m426.624-128h170.688v85.376H640V469.312zM640 640h170.688v85.312H640V640z" /></svg>