<?xml version="1.0" standalone="no"?><!DOCTYPE svg PUBLIC "-//W3C//DTD SVG 1.1//EN" "http://www.w3.org/Graphics/SVG/1.1/DTD/svg11.dtd"><svg class="icon" width="200px" height="200.00px" viewBox="0 0 1024 1024" version="1.1" xmlns="http://www.w3.org/2000/svg"><path d="M512 341.312a384 384 0 0 0-384 384V768H42.688v-42.688a469.312 469.312 0 0 1 938.688 0V768H896v-42.688a384 384 0 0 0-384-384z m0 128a256 256 0 0 0-256 256V768H170.688v-42.688a341.312 341.312 0 0 1 682.688 0V768H768v-42.688a256 256 0 0 0-256-256z m0 128a128 128 0 0 0-128 128V768H298.688v-42.688a213.312 213.312 0 0 1 426.688 0V768H640v-42.688a128 128 0 0 0-128-128z" /></svg>