<?xml version="1.0" standalone="no"?><!DOCTYPE svg PUBLIC "-//W3C//DTD SVG 1.1//EN" "http://www.w3.org/Graphics/SVG/1.1/DTD/svg11.dtd"><svg class="icon" width="200px" height="200.00px" viewBox="0 0 1024 1024" version="1.1" xmlns="http://www.w3.org/2000/svg"><path d="M473.6 128h-3.904c-147.52 2.048-269.184 118.208-269.184 264.512 0 3.776 0.064 7.488 0.256 11.2-67.456 29.696-115.456 95.616-115.456 173.696 0 75.776 45.376 140.288 109.568 171.008l8.768 4.224h585.728l7.936-3.328c82.368-34.688 141.312-114.56 141.312-208.896a224.896 224.896 0 0 0-90.752-179.712 235.712 235.712 0 0 0-113.216-45.888c-27.904-88.192-101.76-155.968-193.408-178.624A281.856 281.856 0 0 0 473.6 128zM298.56 810.56h85.504v85.504H298.56v-85.504zM639.872 810.56h85.504v85.504H639.872v-85.504zM554.752 895.936H469.248v85.504h85.504v-85.504z" /></svg>