<?xml version="1.0" standalone="no"?><!DOCTYPE svg PUBLIC "-//W3C//DTD SVG 1.1//EN" "http://www.w3.org/Graphics/SVG/1.1/DTD/svg11.dtd"><svg class="icon" width="200px" height="200.00px" viewBox="0 0 1024 1024" version="1.1" xmlns="http://www.w3.org/2000/svg"><path d="M768.128 557.568l96.448-96.448a384 384 0 0 0 112.512-271.552V46.912h-142.656A384 384 0 0 0 562.88 159.36L466.432 255.872l-241.344-30.208L44.416 406.4l573.184 573.184 180.736-180.672-30.208-241.344z m-76.416 76.416l16.768 134.08-90.88 90.88-75.392-75.456 149.504-149.504zM390.016 332.288L240.512 481.792 165.056 406.4 256 315.52l134.08 16.768z m-149.504 390.848L89.6 873.984l-60.352-60.352 150.848-150.848 60.352 60.352z m120.64 120.704l-150.848 150.848-60.288-60.352L300.8 783.488l60.288 60.352z" /></svg>