<?xml version="1.0" standalone="no"?><!DOCTYPE svg PUBLIC "-//W3C//DTD SVG 1.1//EN" "http://www.w3.org/Graphics/SVG/1.1/DTD/svg11.dtd"><svg class="icon" width="200px" height="200.00px" viewBox="0 0 1024 1024" version="1.1" xmlns="http://www.w3.org/2000/svg"><path d="M954.816 186.816l-768 768L128 896 896 128l58.816 58.816zM830.656 368.384a297.344 297.344 0 0 1 65.28 186.304v42.624h-3.008a298.688 298.688 0 0 1-295.616 256h-251.52L430.976 768h166.272a213.312 213.312 0 0 0 172.48-338.816l60.8-60.8zM401.6 149.312L295.04 256h302.336c35.712 0 69.952 6.272 101.696 17.728L629.056 343.68a214.976 214.976 0 0 0-31.744-2.368H294.976L401.6 448l-60.288 60.288-209.664-209.6 209.664-209.664 60.288 60.288z" /></svg>