<?xml version="1.0" standalone="no"?><!DOCTYPE svg PUBLIC "-//W3C//DTD SVG 1.1//EN" "http://www.w3.org/Graphics/SVG/1.1/DTD/svg11.dtd"><svg class="icon" width="200px" height="200.00px" viewBox="0 0 1024 1024" version="1.1" xmlns="http://www.w3.org/2000/svg"><path d="M512 128a384 384 0 1 0 352.064 537.6l78.208 34.176A469.44 469.44 0 0 1 42.688 512a469.312 469.312 0 0 1 938.688 0v85.312l-153.6-115.2 51.2-68.224 5.44 4.096A384.128 384.128 0 0 0 512 128z m0 234.688c29.44 0 53.376 23.872 53.376 53.312V448H458.688v-32c0-29.44 23.872-53.312 53.312-53.312zM650.688 448v-32a138.688 138.688 0 0 0-277.312 0V448h-53.44v277.312h384V448h-53.248z" /></svg>