<?xml version="1.0" standalone="no"?><!DOCTYPE svg PUBLIC "-//W3C//DTD SVG 1.1//EN" "http://www.w3.org/Graphics/SVG/1.1/DTD/svg11.dtd"><svg class="icon" width="200px" height="200.00px" viewBox="0 0 1024 1024" version="1.1" xmlns="http://www.w3.org/2000/svg"><path d="M512.192 128a426.304 426.304 0 0 0-359.488 196.736l-23.04 35.968-71.872-46.08 23.04-35.904A511.616 511.616 0 0 1 512.192 42.688a511.616 511.616 0 0 1 431.36 236.032l23.04 35.904-71.872 46.08-23.04-35.968A426.304 426.304 0 0 0 512.192 128zM511.68 298.24a213.12 213.12 0 0 0-179.776 98.368l-23.04 35.968-71.808-46.08 23.04-35.904a298.496 298.496 0 0 1 251.584-137.664c105.728 0 198.592 54.912 251.584 137.6l23.04 35.968-71.808 46.08-23.04-35.968A213.12 213.12 0 0 0 511.68 298.24z m43.008 171.136v128h298.688v384H170.688v-384h298.624v-128h85.376z" /></svg>