<?xml version="1.0" standalone="no"?><!DOCTYPE svg PUBLIC "-//W3C//DTD SVG 1.1//EN" "http://www.w3.org/Graphics/SVG/1.1/DTD/svg11.dtd"><svg class="icon" width="200px" height="200.00px" viewBox="0 0 1024 1024" version="1.1" xmlns="http://www.w3.org/2000/svg"><path d="M128 128h42.688C571.264 128 896 452.736 896 853.312V896h-85.312v-42.688c0-353.472-286.528-640-640-640H128V128z m0 298.688h42.688a426.688 426.688 0 0 1 426.624 426.624V896H512v-42.688A341.312 341.312 0 0 0 170.688 512H128V426.688z m0 384a85.312 85.312 0 1 1 170.688 0 85.312 85.312 0 0 1-170.688 0z" /></svg>