<?xml version="1.0" standalone="no"?><!DOCTYPE svg PUBLIC "-//W3C//DTD SVG 1.1//EN" "http://www.w3.org/Graphics/SVG/1.1/DTD/svg11.dtd"><svg class="icon" width="200px" height="200.00px" viewBox="0 0 1024 1024" version="1.1" xmlns="http://www.w3.org/2000/svg"><path d="M512 2.944l301.504 298.688a420.48 420.48 0 0 1 0 598.592c-166.592 164.992-436.48 164.992-603.072 0a420.48 420.48 0 0 1 0-598.592L512 2.944z m0 120.128L270.464 362.24a335.168 335.168 0 0 0 0 477.312 343.936 343.936 0 0 0 483.008 0 335.168 335.168 0 0 0 0-477.312L512 123.072z m-42.688 262.4H512a233.856 233.856 0 1 1 0 467.776h-42.688V385.472z m85.312 91.52v284.672a148.608 148.608 0 0 0 0-284.608z" /></svg>