<?xml version="1.0" standalone="no"?><!DOCTYPE svg PUBLIC "-//W3C//DTD SVG 1.1//EN" "http://www.w3.org/Graphics/SVG/1.1/DTD/svg11.dtd"><svg class="icon" width="200px" height="200.00px" viewBox="0 0 1024 1024" version="1.1" xmlns="http://www.w3.org/2000/svg"><path d="M85.312 85.312h853.312v597.376h-85.312v-512H170.624v512H85.312V85.312zM230.464 384h120.448L512 546.048 673.024 384h120.448L572.16 606.592l114.688 115.328c20.48-11.392 43.968-17.92 68.928-17.92 76.8 0 140.16 61.44 140.16 138.688 0 77.184-63.36 138.688-140.16 138.688s-140.16-61.44-140.16-138.688c0-20.928 4.608-40.704 12.928-58.368L512 667.072l-116.608 117.248c8.32 17.728 12.992 37.44 12.992 58.368 0 77.184-63.424 138.688-140.16 138.688-76.8 0-140.224-61.44-140.224-138.688C128 765.44 191.36 704 268.16 704c24.96 0 48.512 6.528 68.928 17.92L451.84 606.592 230.464 384z m525.312 405.376a54.08 54.08 0 0 0-54.848 53.312c0 28.8 23.936 53.312 54.848 53.312a54.08 54.08 0 0 0 54.848-53.312 54.08 54.08 0 0 0-54.848-53.312z m-487.616 0a54.08 54.08 0 0 0-54.848 53.312c0 28.8 23.936 53.312 54.848 53.312a54.144 54.144 0 0 0 54.848-53.312 54.08 54.08 0 0 0-54.848-53.312z" /></svg>