<?xml version="1.0" standalone="no"?><!DOCTYPE svg PUBLIC "-//W3C//DTD SVG 1.1//EN" "http://www.w3.org/Graphics/SVG/1.1/DTD/svg11.dtd"><svg class="icon" width="200px" height="200.00px" viewBox="0 0 1024 1024" version="1.1" xmlns="http://www.w3.org/2000/svg"><path d="M42.688 128h938.688v768H42.688V128zM128 213.312v597.376h768V213.312H128z m512 128v87.36l42.688-30.144v-57.216H768V409.6a64 64 0 0 1-27.008 52.224L670.016 512l70.976 50.24A64 64 0 0 1 768 614.4v68.224h-85.312v-57.216L640 595.328v87.36H554.688V341.312H640z m-341.312 0V487.68H384V341.312h85.376v341.376H384V572.928H298.688A85.312 85.312 0 0 1 213.376 487.68V341.312h85.312z" /></svg>