<?xml version="1.0" standalone="no"?><!DOCTYPE svg PUBLIC "-//W3C//DTD SVG 1.1//EN" "http://www.w3.org/Graphics/SVG/1.1/DTD/svg11.dtd"><svg class="icon" width="200px" height="200.00px" viewBox="0 0 1024 1024" version="1.1" xmlns="http://www.w3.org/2000/svg"><path d="M644.096 251.904a277.312 277.312 0 0 0-473.408 196.224v42.688H85.376v-42.624a362.688 362.688 0 1 1 647.552 224.32l227.968 228.032-60.352 60.352-228.032-228.032A361.792 361.792 0 0 1 448 810.688h-42.624v-85.376H448a277.312 277.312 0 0 0 196.096-473.408z m-572.8 313.728L192 686.336l120.704-120.704 60.352 60.352-120.704 120.704 120.704 120.64-60.352 60.352L192 807.04l-120.64 120.64-60.352-60.352 120.64-120.64L11.008 625.92l60.352-60.352z" /></svg>