<?xml version="1.0" standalone="no"?><!DOCTYPE svg PUBLIC "-//W3C//DTD SVG 1.1//EN" "http://www.w3.org/Graphics/SVG/1.1/DTD/svg11.dtd"><svg class="icon" width="200px" height="200.00px" viewBox="0 0 1024 1024" version="1.1" xmlns="http://www.w3.org/2000/svg"><path d="M512 18.816l426.624 149.312V512c0 176.064-108.096 299.2-208.896 375.616a842.688 842.688 0 0 1-139.072 84.864c-25.6 12.48-51.84 23.296-78.72 32.704-26.88-9.408-52.992-20.224-78.592-32.704-37.76-18.368-88.32-46.336-139.136-84.864C193.408 811.2 85.312 688 85.312 512V168.128L512 18.816z m0 895.424l0.32-0.128a757.504 757.504 0 0 0 165.824-94.528c91.264-69.12 175.168-170.048 175.168-307.584V228.672L512 109.184 170.624 228.672V512c0 137.536 83.904 238.464 175.104 307.584A757.632 757.632 0 0 0 512 914.304z m259.072-558.272l-301.696 301.696-181.056-180.992 60.352-60.352L469.376 536.96l241.28-241.408 60.416 60.352z" /></svg>