<?xml version="1.0" standalone="no"?><!DOCTYPE svg PUBLIC "-//W3C//DTD SVG 1.1//EN" "http://www.w3.org/Graphics/SVG/1.1/DTD/svg11.dtd"><svg class="icon" width="200px" height="200.00px" viewBox="0 0 1024 1024" version="1.1" xmlns="http://www.w3.org/2000/svg"><path d="M240.44864 180.16l-30.144 30.208A425.216 425.216 0 0 0 85.31264 512c0 117.76 47.744 224.448 124.992 301.696l30.144 30.144-60.288 60.352-30.208-30.208A510.528 510.528 0 0 1 0.00064 512.064c0-141.44 57.344-269.44 149.952-362.048l30.208-30.208 60.288 60.352z m603.392-60.352l30.144 30.208A510.528 510.528 0 0 1 1024.00064 512c0 141.376-57.344 269.44-149.952 361.984l-30.144 30.208-60.352-60.352 30.144-30.144A425.152 425.152 0 0 0 938.62464 512a425.216 425.216 0 0 0-124.992-301.696l-30.08-30.208 60.288-60.352zM361.15264 300.864l-30.144 30.08A255.04 255.04 0 0 0 256.00064 512.128c0 70.656 28.608 134.592 75.008 180.992l30.144 30.144-60.352 60.352-30.144-30.144A340.416 340.416 0 0 1 170.68864 512c0-94.208 38.208-179.584 99.968-241.28l30.144-30.208 60.352 60.352z m362.048-60.352l30.08 30.144A340.416 340.416 0 0 1 853.37664 512a340.416 340.416 0 0 1-99.968 241.408l-30.208 30.144-60.288-60.352 30.144-30.144A255.04 255.04 0 0 0 768.00064 512a255.04 255.04 0 0 0-75.008-180.992l-30.144-30.144 60.352-60.352zM512.00064 426.688a85.312 85.312 0 1 0 0 170.624 85.312 85.312 0 0 0 0-170.624zM341.31264 512a170.688 170.688 0 1 1 213.376 165.312v209.28H469.31264v-209.28c-73.6-18.944-128-85.76-128-165.312z" /></svg>