<?xml version="1.0" standalone="no"?><!DOCTYPE svg PUBLIC "-//W3C//DTD SVG 1.1//EN" "http://www.w3.org/Graphics/SVG/1.1/DTD/svg11.dtd"><svg class="icon" width="200px" height="200.00px" viewBox="0 0 1024 1024" version="1.1" xmlns="http://www.w3.org/2000/svg"><path d="M905.34464 184.192A510.08 510.08 0 0 1 1024.00064 512a510.08 510.08 0 0 1-121.024 330.624l53.376 53.376-60.352 60.352-361.92-361.92a85.44 85.44 0 0 1-104.512-104.512L334.01664 394.368A212.224 212.224 0 0 0 298.68864 512c0 51.968 18.56 99.52 49.408 136.576l27.328 32.768-65.536 54.656-27.328-32.768A297.6 297.6 0 0 1 213.31264 512c0-67.072 22.144-129.024 59.52-178.88L181.56864 241.984A424.96 424.96 0 0 0 85.31264 512a424.96 424.96 0 0 0 98.88 273.088l27.328 32.768-65.536 54.656-27.328-32.768A510.272 510.272 0 0 1 0.00064 512a510.272 510.272 0 0 1 121.024-330.624L67.64864 128 128.00064 67.648l361.92 361.92a85.44 85.44 0 0 1 104.512 104.512l95.552 95.552c22.4-33.728 35.328-74.112 35.328-117.632 0-51.968-18.56-99.52-49.408-136.576l-27.328-32.768 65.536-54.656 27.328 32.768A297.6 297.6 0 0 1 810.68864 512a297.472 297.472 0 0 1-59.52 178.88l91.2 91.136A424.768 424.768 0 0 0 938.68864 512c0-103.936-37.12-199.104-98.88-273.152l-27.328-32.768 65.536-54.656 27.328 32.768z" /></svg>