<?xml version="1.0" standalone="no"?><!DOCTYPE svg PUBLIC "-//W3C//DTD SVG 1.1//EN" "http://www.w3.org/Graphics/SVG/1.1/DTD/svg11.dtd"><svg class="icon" width="200px" height="200.00px" viewBox="0 0 1024 1024" version="1.1" xmlns="http://www.w3.org/2000/svg"><path d="M938.68864 512c0-104-37.12-199.168-98.88-273.152l-27.328-32.768 65.536-54.656 27.328 32.768A510.08 510.08 0 0 1 1024.00064 512a510.08 510.08 0 0 1-118.656 327.744l-27.328 32.768-65.536-54.656 27.328-32.768A424.768 424.768 0 0 0 938.68864 512z m-197.248-191.232A297.6 297.6 0 0 1 810.68864 512a297.6 297.6 0 0 1-69.248 191.168l-27.328 32.768-65.536-54.656 27.328-32.768A212.288 212.288 0 0 0 725.31264 512c0-52.032-18.56-99.584-49.408-136.576l-27.328-32.768 65.536-54.656 27.328 32.768zM512.00064 426.688a85.312 85.312 0 1 1 0 170.624 85.312 85.312 0 0 1 0-170.624zM375.42464 342.656l-27.328 32.768A212.288 212.288 0 0 0 298.68864 512c0 51.968 18.56 99.52 49.408 136.512l27.328 32.768-65.536 54.656-27.328-32.768A297.6 297.6 0 0 1 213.31264 512a297.6 297.6 0 0 1 69.248-191.232l27.328-32.768 65.536 54.656zM211.58464 206.08l-27.392 32.768A424.768 424.768 0 0 0 85.31264 512c0 103.936 37.12 199.04 98.88 273.088l27.328 32.768-65.536 54.656-27.328-32.768A510.08 510.08 0 0 1 0.00064 512a510.08 510.08 0 0 1 118.656-327.808l27.328-32.768 65.536 54.656z" /></svg>