<?xml version="1.0" standalone="no"?><!DOCTYPE svg PUBLIC "-//W3C//DTD SVG 1.1//EN" "http://www.w3.org/Graphics/SVG/1.1/DTD/svg11.dtd"><svg class="icon" width="200px" height="200.00px" viewBox="0 0 1024 1024" version="1.1" xmlns="http://www.w3.org/2000/svg"><path d="M270.72 210.304l-30.208 30.144A382.72 382.72 0 0 0 128 512a382.72 382.72 0 0 0 112.512 271.552l30.144 30.144-60.352 60.352-30.144-30.208A467.968 467.968 0 0 1 42.688 512c0-129.6 52.608-247.04 137.472-331.904l30.144-30.144 60.352 60.352z m542.976-60.352l30.208 30.144A468.032 468.032 0 0 1 981.376 512c0 129.6-52.608 247.04-137.472 331.84l-30.208 30.208-60.352-60.352 30.208-30.144A382.656 382.656 0 0 0 896 512a382.72 382.72 0 0 0-112.448-271.552l-30.144-30.144 60.288-60.352z m-422.4 180.992l-30.08 30.208A212.48 212.48 0 0 0 298.624 512c0 58.88 23.808 112.192 62.464 150.848l30.208 30.144-60.352 60.352-30.144-30.144A297.856 297.856 0 0 1 213.376 512c0-82.496 33.472-157.184 87.424-211.2l30.208-30.144 60.352 60.288z m301.76-60.288l30.144 30.144A297.856 297.856 0 0 1 810.688 512a297.856 297.856 0 0 1-87.488 211.2l-30.144 30.144-60.352-60.352 30.144-30.144A212.48 212.48 0 0 0 725.376 512a212.48 212.48 0 0 0-62.528-150.848l-30.144-30.208 60.352-60.288zM554.688 384v256H469.376V384h85.312z" /></svg>