<?xml version="1.0" standalone="no"?><!DOCTYPE svg PUBLIC "-//W3C//DTD SVG 1.1//EN" "http://www.w3.org/Graphics/SVG/1.1/DTD/svg11.dtd"><svg class="icon" width="200px" height="200.00px" viewBox="0 0 1024 1024" version="1.1" xmlns="http://www.w3.org/2000/svg"><path d="M391.68 42.688h240.64l27.584 138.112c23.04 10.24 44.736 22.912 64.896 37.504l133.504-45.184 120.32 208.384-105.92 93.056a365.888 365.888 0 0 1 0 74.88l105.92 93.056-120.32 208.384-133.504-45.184a362.112 362.112 0 0 1-64.896 37.504l-27.584 138.112H391.68l-27.648-138.112a361.984 361.984 0 0 1-64.832-37.504l-133.504 45.184-120.32-208.384 105.856-93.056a366.464 366.464 0 0 1 0-74.88L45.376 381.44l120.32-208.384 133.504 45.184a362.304 362.304 0 0 1 64.832-37.504L391.68 42.688zM461.632 128l-23.04 115.392-22.4 8.32a276.992 276.992 0 0 0-81.664 47.104l-18.304 15.36-111.616-37.76L154.24 363.52l88.448 77.696-4.032 23.552a279.488 279.488 0 0 0 0 94.336l4.032 23.552-88.448 77.696 50.368 87.168 111.616-37.76 18.304 15.36a277.12 277.12 0 0 0 81.6 47.168l22.4 8.256L461.632 896h100.736l23.04-115.392 22.4-8.32a277.12 277.12 0 0 0 81.6-47.104l18.368-15.36 111.616 37.76 50.304-87.168-88.384-77.696 4.032-23.552a279.04 279.04 0 0 0 0-94.336l-4.032-23.552 88.384-77.696-50.368-87.168-111.552 37.76-18.368-15.36a276.992 276.992 0 0 0-81.6-47.168l-22.4-8.256L562.368 128H461.632zM512 384a128 128 0 1 0 0 256 128 128 0 0 0 0-256zM298.624 512a213.312 213.312 0 1 1 426.688 0 213.312 213.312 0 0 1-426.688 0z" /></svg>