<?xml version="1.0" standalone="no"?><!DOCTYPE svg PUBLIC "-//W3C//DTD SVG 1.1//EN" "http://www.w3.org/Graphics/SVG/1.1/DTD/svg11.dtd"><svg class="icon" width="200px" height="200.00px" viewBox="0 0 1024 1024" version="1.1" xmlns="http://www.w3.org/2000/svg"><path d="M632.32 42.688H391.68l-27.648 138.112c-23.04 10.24-44.672 22.912-64.832 37.504l-133.504-45.184-120.32 208.384 105.856 93.056a366.4 366.4 0 0 0 0 74.88L45.376 642.56l120.32 208.384 133.504-45.184c20.16 14.656 41.856 27.2 64.832 37.504l27.648 138.112h240.64l27.584-138.112c23.04-10.24 44.736-22.848 64.896-37.504l133.504 45.184 120.32-208.384-105.92-93.056a365.888 365.888 0 0 0 0-74.88l105.92-93.056-120.32-208.384-133.504 45.184a362.432 362.432 0 0 0-64.896-37.504L632.32 42.688z m-120.32 640a170.688 170.688 0 1 1 0-341.376 170.688 170.688 0 0 1 0 341.376z" /></svg>