<?xml version="1.0" standalone="no"?><!DOCTYPE svg PUBLIC "-//W3C//DTD SVG 1.1//EN" "http://www.w3.org/Graphics/SVG/1.1/DTD/svg11.dtd"><svg class="icon" width="200px" height="200.00px" viewBox="0 0 1024 1024" version="1.1" xmlns="http://www.w3.org/2000/svg"><path d="M490.688 78.976L1004.928 512l-514.24 433.024v-265.6c-178.944 8.512-301.76 72.512-391.936 198.72l-76.544-33.152c22.336-111.68 67.456-225.92 148.352-318.4C245.76 440.64 350.208 375.424 490.688 347.968V78.976zM576 262.4v158.592l-36.608 5.248c-139.52 19.904-236.8 79.04-304.64 156.544a511.104 511.104 0 0 0-74.432 113.408c99.84-70.4 222.784-103.104 373.056-103.104H576V761.6L872.448 512 576 262.4z" /></svg>