<?xml version="1.0" standalone="no"?><!DOCTYPE svg PUBLIC "-//W3C//DTD SVG 1.1//EN" "http://www.w3.org/Graphics/SVG/1.1/DTD/svg11.dtd"><svg class="icon" width="200px" height="200.00px" viewBox="0 0 1024 1024" version="1.1" xmlns="http://www.w3.org/2000/svg"><path d="M682.24 44.16a170.688 170.688 0 1 1-36.48 267.392L377.792 466.24a169.6 169.6 0 0 1 0 91.52l267.968 154.688a170.752 170.752 0 1 1-42.688 73.92L335.104 631.616a170.752 170.752 0 1 1 0-239.232l267.968-154.752A170.752 170.752 0 0 1 682.24 44.16z m159.232 105.152a85.312 85.312 0 1 0-147.84 85.312 85.312 85.312 0 0 0 147.84-85.312zM131.008 534.4A85.44 85.44 0 0 0 256 585.856a85.312 85.312 0 1 0-124.992-51.392z m679.232 223.68a85.312 85.312 0 1 0-85.312 147.776 85.312 85.312 0 0 0 85.312-147.84z" /></svg>