<?xml version="1.0" standalone="no"?><!DOCTYPE svg PUBLIC "-//W3C//DTD SVG 1.1//EN" "http://www.w3.org/Graphics/SVG/1.1/DTD/svg11.dtd"><svg class="icon" width="200px" height="200.00px" viewBox="0 0 1024 1024" version="1.1" xmlns="http://www.w3.org/2000/svg"><path d="M512 914.24l0.32-0.128a757.504 757.504 0 0 0 165.824-94.528c91.264-69.12 175.168-170.048 175.168-307.584V228.672L512 109.184 170.624 228.672V512c0 137.536 83.904 238.464 175.104 307.584A757.632 757.632 0 0 0 512 914.304z m-217.792-26.624C193.408 811.2 85.312 688 85.312 512V168.128L512 18.816l426.624 149.312V512c0 176.064-108.096 299.2-208.896 375.616a842.688 842.688 0 0 1-185.088 105.472c-10.752 4.416-21.76 8.32-32.64 12.16-11.008-3.84-21.888-7.744-32.64-12.16a842.688 842.688 0 0 1-185.152-105.536zM469.312 704V426.688h85.312V704H469.312z m85.312-341.312H469.12V277.12h85.504v85.504z" /></svg>