<?xml version="1.0" standalone="no"?><!DOCTYPE svg PUBLIC "-//W3C//DTD SVG 1.1//EN" "http://www.w3.org/Graphics/SVG/1.1/DTD/svg11.dtd"><svg class="icon" width="200px" height="200.00px" viewBox="0 0 1024 1024" version="1.1" xmlns="http://www.w3.org/2000/svg"><path d="M85.312 512c0 176.064 108.096 299.2 208.896 375.616a842.688 842.688 0 0 0 198.4 110.72c4.8 1.792 9.728 3.52 14.592 5.184l4.8 1.664 4.8-1.664a584 584 0 0 0 27.84-10.432 842.688 842.688 0 0 0 185.152-105.536c100.736-76.416 208.832-199.488 208.832-375.552V168.128L512 18.816 85.312 168.128V512z m469.312-149.312H469.12V277.12h85.504v85.504zM469.312 704V426.688h85.312V704H469.312z" /></svg>