<?xml version="1.0" standalone="no"?><!DOCTYPE svg PUBLIC "-//W3C//DTD SVG 1.1//EN" "http://www.w3.org/Graphics/SVG/1.1/DTD/svg11.dtd"><svg class="icon" width="200px" height="200.00px" viewBox="0 0 1024 1024" version="1.1" xmlns="http://www.w3.org/2000/svg"><path d="M512 85.12l469.312 46.976V337.28l-125.12 12.48 43.008 588.864H593.6l46.72-566.912-26.432 2.56-5.12 0.448c-29.248 2.816-60.096 5.76-92.544 9.024l-4.288 0.448-124.288-12.416 42.24 566.848H124.8l43.008-588.864-125.12-12.48V132.096l469.312-46.912zM252.608 358.4l-36.16 495.04h121.472l-36.544-490.24-48.768-4.8z m474.048 4.8l-40.448 490.24h121.152L771.2 358.4l-18.56 1.92-0.64 0.064-25.344 2.688zM127.936 209.28v50.752l384 38.4c31.168-3.136 60.672-5.952 88.64-8.64l5.12-0.512c27.264-2.56 52.992-5.12 77.12-7.488 21.056-2.112 40.576-4.16 60.416-6.272h0.512c20.032-2.176 40.32-4.288 62.656-6.528l89.6-8.96V209.28l-384-38.4-384 38.4z" /></svg>