<?xml version="1.0" standalone="no"?><!DOCTYPE svg PUBLIC "-//W3C//DTD SVG 1.1//EN" "http://www.w3.org/Graphics/SVG/1.1/DTD/svg11.dtd"><svg class="icon" width="200px" height="200.00px" viewBox="0 0 1024 1024" version="1.1" xmlns="http://www.w3.org/2000/svg"><path d="M938.624 85.312H85.312v128A170.688 170.688 0 0 0 384 326.208 170.24 170.24 0 0 0 512 384a170.24 170.24 0 0 0 128-57.792 170.688 170.688 0 0 0 298.688-112.896v-128zM85.312 938.688V404.16A255.04 255.04 0 0 0 256 469.376c46.592 0 90.304-12.544 128-34.304 37.632 21.76 81.344 34.304 128 34.304 46.592 0 90.304-12.544 128-34.304 37.632 21.76 81.344 34.304 128 34.304a255.04 255.04 0 0 0 170.624-65.216v534.528H704V597.376H320v341.312H85.312zM405.312 682.688v256h213.312v-256H405.312z" /></svg>