<?xml version="1.0" standalone="no"?><!DOCTYPE svg PUBLIC "-//W3C//DTD SVG 1.1//EN" "http://www.w3.org/Graphics/SVG/1.1/DTD/svg11.dtd"><svg class="icon" width="200px" height="200.00px" viewBox="0 0 1024 1024" version="1.1" xmlns="http://www.w3.org/2000/svg"><path d="M298.624 170.688c-47.104 0-85.312 38.208-85.312 85.312v42.688h128v-128h-42.688z m128 0v128h170.688v-128H426.624z m256 0v128h128V256c0-47.104-38.208-85.312-85.312-85.312h-42.688z m213.376 128h42.624V384H896v469.376h42.624v85.312H85.312v-85.312H128V384h-42.688V298.688H128V256a170.688 170.688 0 0 1 170.624-170.688h426.688A170.688 170.688 0 0 1 896 256v42.688zM810.624 384H213.312v469.376h128V640a170.688 170.688 0 1 1 341.312 0v213.376h128V384z m-213.312 469.376V640a85.312 85.312 0 1 0-170.688 0v213.376h170.688z" /></svg>