<?xml version="1.0" standalone="no"?><!DOCTYPE svg PUBLIC "-//W3C//DTD SVG 1.1//EN" "http://www.w3.org/Graphics/SVG/1.1/DTD/svg11.dtd"><svg class="icon" width="200px" height="200.00px" viewBox="0 0 1024 1024" version="1.1" xmlns="http://www.w3.org/2000/svg"><path d="M212.48 217.984C273.472 144.96 370.56 85.312 512 85.312c141.44 0 238.528 59.648 299.392 132.672 45.184 54.272 70.656 116.096 80.192 166.016h47.04v85.312H896v384h42.624v85.376H704v-149.376a192 192 0 1 0-384 0v149.376H85.312v-85.376H128v-384h-42.688V384h47.04c9.6-49.92 35.008-111.744 80.192-166.016zM804.16 384a297.92 297.92 0 0 0-58.24-111.36A273.728 273.728 0 0 0 614.4 185.216c7.68 13.632 15.04 28.096 21.76 43.136 21.12 46.784 37.888 101.504 44.032 155.648h123.904z m-209.92 0a456.448 456.448 0 0 0-35.776-120.64 381.504 381.504 0 0 0-37.056-65.536A226.56 226.56 0 0 0 512 185.664a226.56 226.56 0 0 0-9.408 12.16c-12.736 17.6-25.6 40.064-37.056 65.536A456.448 456.448 0 0 0 429.824 384h164.352zM343.808 384c6.08-54.144 22.848-108.864 43.904-155.648 6.784-15.04 14.08-29.504 21.824-43.136A273.728 273.728 0 0 0 278.08 272.64 297.92 297.92 0 0 0 219.84 384h123.968zM512 682.688c-58.88 0-106.688 47.744-106.688 106.624v149.376h213.312v-149.376c0-58.88-47.744-106.624-106.624-106.624z" /></svg>