<?xml version="1.0" standalone="no"?><!DOCTYPE svg PUBLIC "-//W3C//DTD SVG 1.1//EN" "http://www.w3.org/Graphics/SVG/1.1/DTD/svg11.dtd"><svg class="icon" width="200px" height="200.00px" viewBox="0 0 1024 1024" version="1.1" xmlns="http://www.w3.org/2000/svg"><path d="M891.264 85.312s1.792 2.24 4.736 6.272c11.968 16.64 42.624 64.832 42.624 121.728 0 35.776-16.32 68.16-42.624 91.392-25.664 22.592-60.8 36.544-99.584 36.544a152.32 152.32 0 0 1-84.608-25.088c-34.944-23.36-57.6-60.736-57.6-102.848 0 42.112-22.656 79.488-57.6 102.848-23.68 15.744-52.928 25.088-84.608 25.088a152.32 152.32 0 0 1-84.672-25.088c-34.944-23.36-57.6-60.736-57.6-102.848 0 42.112-22.656 79.488-57.6 102.848-23.68 15.744-52.928 25.088-84.608 25.088A150.208 150.208 0 0 1 128 304.704a121.728 121.728 0 0 1-42.688-91.392c0-56.896 30.656-105.024 42.688-121.728 2.88-4.032 4.736-6.272 4.736-6.272h758.528zM796.416 426.624A240.64 240.64 0 0 0 896 404.864v448.32h42.624v85.504H704V597.312H320v341.376H85.312V853.12H128V404.864a240.64 240.64 0 0 0 99.52 21.76 240 240 0 0 0 142.208-46.848A240.064 240.064 0 0 0 512 426.624a240 240 0 0 0 142.208-46.848 240.064 240.064 0 0 0 142.208 46.848zM405.312 938.688v-256h213.312v256H405.312z" /></svg>