<?xml version="1.0" standalone="no"?><!DOCTYPE svg PUBLIC "-//W3C//DTD SVG 1.1//EN" "http://www.w3.org/Graphics/SVG/1.1/DTD/svg11.dtd"><svg class="icon" width="200px" height="200.00px" viewBox="0 0 1024 1024" version="1.1" xmlns="http://www.w3.org/2000/svg"><path d="M85.312 85.312h853.312v853.376H85.312V85.376zM170.624 403.84v449.536h170.688V554.688h341.312v298.688h170.688V403.84A169.856 169.856 0 0 1 768 426.688a170.24 170.24 0 0 1-128-57.792 170.24 170.24 0 0 1-128 57.792 170.24 170.24 0 0 1-128-57.792 170.24 170.24 0 0 1-128 57.792c-31.104 0-60.224-8.32-85.376-22.848z m256-147.84a85.312 85.312 0 1 0 170.688 0V170.688H426.624V256zM341.312 170.688H170.624V256a85.312 85.312 0 1 0 170.688 0V170.688z m341.312 0V256a85.312 85.312 0 0 0 170.688 0V170.688h-170.688zM597.312 853.312V640H426.624v213.376h170.688z" /></svg>