<?xml version="1.0" standalone="no"?><!DOCTYPE svg PUBLIC "-//W3C//DTD SVG 1.1//EN" "http://www.w3.org/Graphics/SVG/1.1/DTD/svg11.dtd"><svg class="icon" width="200px" height="200.00px" viewBox="0 0 1024 1024" version="1.1" xmlns="http://www.w3.org/2000/svg"><path d="M85.312 938.624V368c40.064 30.08 89.92 48 144 48 52.864 0 101.76-17.088 141.312-46.08 39.68 28.992 88.448 46.08 141.376 46.08 52.864 0 101.76-17.088 141.312-46.08 39.616 28.992 88.448 46.08 141.312 46.08 54.08 0 103.936-17.92 144-48v570.624H704V597.312H320v341.312H85.312zM229.312 330.688a154.752 154.752 0 0 1-144-98.112v-147.2h853.312v147.2a154.752 154.752 0 0 1-285.312 6.336 155.264 155.264 0 0 1-59.52 68.416c-23.744 14.72-51.84 23.36-81.792 23.36-30.08 0-58.048-8.576-81.792-23.36a155.264 155.264 0 0 1-59.52-68.416 155.264 155.264 0 0 1-59.584 68.416c-23.744 14.72-51.776 23.36-81.792 23.36zM405.312 938.624v-256h213.312v256H405.312z" /></svg>