<?xml version="1.0" standalone="no"?><!DOCTYPE svg PUBLIC "-//W3C//DTD SVG 1.1//EN" "http://www.w3.org/Graphics/SVG/1.1/DTD/svg11.dtd"><svg class="icon" width="200px" height="200.00px" viewBox="0 0 1024 1024" version="1.1" xmlns="http://www.w3.org/2000/svg"><path d="M139.904 85.312h744.128l41.472 124.352c7.68 23.168 16.64 56.832 6.976 91.904-7.04 25.344-19.648 48.256-36.48 67.328v484.48h42.624v85.312H85.312v-85.312H128v-484.48A170.176 170.176 0 0 1 85.312 256v-6.912l54.592-163.712z m73.408 336v432h128V554.752h341.312v298.688h128V421.312A170.816 170.816 0 0 1 640 368.896a170.24 170.24 0 0 1-128 57.792 170.24 170.24 0 0 1-128-57.792 170.24 170.24 0 0 1-170.688 52.416zM426.624 256a85.312 85.312 0 1 0 170.688 0V170.688H426.624V256zM341.312 170.688H201.408l-30.528 91.52c1.6 22.784 12.16 43.008 28.16 57.408A85.312 85.312 0 0 0 341.312 256V170.688z m341.312 0V256a85.312 85.312 0 0 0 167.616 22.848c2.56-9.088 1.088-21.824-5.696-42.24l-22.016-65.92h-139.904zM597.312 853.312V640H426.624v213.376h170.688z" /></svg>