<?xml version="1.0" standalone="no"?><!DOCTYPE svg PUBLIC "-//W3C//DTD SVG 1.1//EN" "http://www.w3.org/Graphics/SVG/1.1/DTD/svg11.dtd"><svg class="icon" width="200px" height="200.00px" viewBox="0 0 1024 1024" version="1.1" xmlns="http://www.w3.org/2000/svg"><path d="M225.664 256.192L320.192 424.96l167.424-296.192a382.976 382.976 0 0 0-261.952 127.36zM582.4 134.4L489.6 298.688h341.76A384.256 384.256 0 0 0 582.4 134.4zM874.176 384H680.96l171.776 305.28C880.384 636.288 896 576 896 512c0-44.992-7.68-88.064-21.76-128z m-75.456 383.36L704 599.04l-166.528 296.128a382.976 382.976 0 0 0 261.248-127.744z m-356.16 122.304l92.48-164.416H192.64a384.192 384.192 0 0 0 249.92 164.48zM149.888 640H343.04L282.88 532.864 171.52 334.208A382.208 382.208 0 0 0 128 512c0 44.928 7.68 88 21.76 128z m291.072 0h142.08l72-128L583.04 384H441.408L369.024 512l71.936 128zM140.352 225.408A468.608 468.608 0 0 1 564.416 45.568a469.76 469.76 0 0 1 377.856 278.656c25.152 57.6 39.04 121.088 39.04 187.776a467.456 467.456 0 0 1-97.216 286.08A468.608 468.608 0 0 1 460.8 978.56a469.696 469.696 0 0 1-379.072-278.784A467.904 467.904 0 0 1 42.688 512c0-107.84 36.48-207.36 97.664-286.592z" /></svg>