<?xml version="1.0" standalone="no"?><!DOCTYPE svg PUBLIC "-//W3C//DTD SVG 1.1//EN" "http://www.w3.org/Graphics/SVG/1.1/DTD/svg11.dtd"><svg class="icon" width="200px" height="200.00px" viewBox="0 0 1024 1024" version="1.1" xmlns="http://www.w3.org/2000/svg"><path d="M631.808 58.112L490.56 307.392h443.904A470.4 470.4 0 0 0 631.808 58.112zM965.056 389.184H673.92l221.696 393.152A467.392 467.392 0 0 0 981.312 512c0-42.432-5.632-83.648-16.256-122.816zM839.04 848.576l-142.912-253.248-217.024 384.896a467.84 467.84 0 0 0 359.936-131.648zM393.088 966.144l140.8-249.6H89.472a470.336 470.336 0 0 0 303.68 249.6zM58.88 634.688h291.072L128.64 241.088A467.392 467.392 0 0 0 42.624 512c0 42.432 5.632 83.584 16.192 122.688zM185.344 174.976A467.84 467.84 0 0 1 545.856 43.904L327.936 428.608 185.344 174.976z" /></svg>