<?xml version="1.0" standalone="no"?><!DOCTYPE svg PUBLIC "-//W3C//DTD SVG 1.1//EN" "http://www.w3.org/Graphics/SVG/1.1/DTD/svg11.dtd"><svg class="icon" width="200px" height="200.00px" viewBox="0 0 1024 1024" version="1.1" xmlns="http://www.w3.org/2000/svg"><path d="M554.688 42.688v67.648l42.688-42.688 60.352 60.352-103.04 103.04V410.24l168.256-169.856 60.608 60.032L615.04 470.656l177.856-1.216L896 366.336l60.352 60.288-42.624 42.688h67.648v85.312h-67.648l42.624 42.688-60.352 60.352-102.848-102.912-178.112 1.28 168.512 166.848-60.032 60.608L554.688 616.32v176.64l103.04 103.04-60.352 60.352-42.688-42.688v67.648H469.376v-67.648l-42.688 42.688L366.336 896l103.04-103.04V616.32l-168.832 167.168-60.032-60.608L408.96 555.968l-178.112-1.216L128 657.664l-60.288-60.352 42.624-42.688H42.688V469.312h67.648l-42.624-42.688L128 366.336l103.168 103.104 177.856 1.216-168.512-170.112 60.608-60.096 168.256 169.856V231.04L366.336 128l60.352-60.288 42.688 42.688V42.688h85.312z" /></svg>