<?xml version="1.0" standalone="no"?><!DOCTYPE svg PUBLIC "-//W3C//DTD SVG 1.1//EN" "http://www.w3.org/Graphics/SVG/1.1/DTD/svg11.dtd"><svg class="icon" width="200px" height="200.00px" viewBox="0 0 1024 1024" version="1.1" xmlns="http://www.w3.org/2000/svg"><path d="M640 55.04v913.92l-395.2-222.272H42.688V277.312h202.112L640 55.04zM213.312 362.688H128v298.624h85.312V362.688z m85.312 316.352l256.064 144V200.96l-256 144v334.08z m573.888-438.592l30.208 30.208a341.312 341.312 0 0 1 0 482.688l-30.208 30.208-60.288-60.352 30.144-30.208a256 256 0 0 0 0-361.984l-30.144-30.208 60.288-60.352z m-135.68 135.808l60.288-60.352 30.144 30.144a234.688 234.688 0 0 1 0 331.904l-30.144 30.144-60.352-60.352 30.208-30.144a149.312 149.312 0 0 0 0-211.2l-30.208-30.144z m-15.104 15.04l30.08 30.208a128 128 0 0 1 0 180.992l-30.08 30.208-60.352-60.352 30.144-30.208a42.688 42.688 0 0 0 0-60.288l-30.144-30.208 60.352-60.352z" /></svg>