<?xml version="1.0" standalone="no"?><!DOCTYPE svg PUBLIC "-//W3C//DTD SVG 1.1//EN" "http://www.w3.org/Graphics/SVG/1.1/DTD/svg11.dtd"><svg class="icon" width="200px" height="200.00px" viewBox="0 0 1024 1024" version="1.1" xmlns="http://www.w3.org/2000/svg"><path d="M213.376 277.312v469.376H42.688V277.312h170.688zM298.688 776.96l341.376 192V55.04l-341.376 192v529.92zM902.72 270.656l-30.208-30.208-60.288 60.352 30.144 30.144a256 256 0 0 1 0 362.048l-30.144 30.208 60.288 60.288 30.208-30.08a341.312 341.312 0 0 0 0-482.752zM797.12 315.904l-60.352 60.352 30.208 30.144a149.312 149.312 0 0 1 0 211.2l-30.208 30.144 60.352 60.352 30.144-30.144a234.688 234.688 0 0 0 0-331.904l-30.144-30.144zM751.872 602.496a128 128 0 0 0 0-180.992l-30.144-30.208-60.352 60.352 30.144 30.144c16.64 16.64 16.64 43.712 0 60.352l-30.144 30.208 60.352 60.352 30.08-30.208z" /></svg>