<?xml version="1.0" standalone="no"?><!DOCTYPE svg PUBLIC "-//W3C//DTD SVG 1.1//EN" "http://www.w3.org/Graphics/SVG/1.1/DTD/svg11.dtd"><svg class="icon" width="200px" height="200.00px" viewBox="0 0 1024 1024" version="1.1" xmlns="http://www.w3.org/2000/svg"><path d="M213.376 277.312v469.376H42.688V277.312h170.688zM298.688 776.96l341.376 192V55.04l-341.376 192v529.92zM920.832 331.904l-25.728-34.048-68.096 51.456 25.728 34.048a213.376 213.376 0 0 1-0.128 257.28l-25.728 33.984 68.096 51.456 25.728-33.984a298.688 298.688 0 0 0 0.128-360.192zM801.664 421.888l-25.728-34.048-68.096 51.456 25.728 34.048a64 64 0 0 1 0 77.184l-25.728 34.048 68.032 51.456 25.728-34.048a149.376 149.376 0 0 0 0.064-180.096z" /></svg>