<?xml version="1.0" standalone="no"?><!DOCTYPE svg PUBLIC "-//W3C//DTD SVG 1.1//EN" "http://www.w3.org/Graphics/SVG/1.1/DTD/svg11.dtd"><svg class="icon" width="200px" height="200.00px" viewBox="0 0 1024 1024" version="1.1" xmlns="http://www.w3.org/2000/svg"><path d="M640 55.04v913.92l-395.2-222.272H42.688V277.376h202.112L640 55.04zM213.312 362.688H128v298.688h85.312V362.688z m85.312 316.352l256.064 144V200.96l-256 144v334.08z m596.48-381.12l25.728 34.048a298.688 298.688 0 0 1-0.128 360.128l-25.728 34.048-68.032-51.52 25.728-33.984a213.376 213.376 0 0 0 0.064-257.28l-25.728-34.048 68.096-51.392zM776 387.84l25.664 34.048a149.312 149.312 0 0 1 0 180.032l-25.792 34.048-68.032-51.456 25.728-34.048a64 64 0 0 0 0-77.184l-25.664-34.048 68.096-51.392z" /></svg>