<?xml version="1.0" standalone="no"?><!DOCTYPE svg PUBLIC "-//W3C//DTD SVG 1.1//EN" "http://www.w3.org/Graphics/SVG/1.1/DTD/svg11.dtd"><svg class="icon" width="200px" height="200.00px" viewBox="0 0 1024 1024" version="1.1" xmlns="http://www.w3.org/2000/svg"><path d="M426.624 42.688h170.688v170.624H426.624V42.688zM85.312 256h853.312v113.472l-298.624 128v227.84h33.28l64 256H286.72l64-256H384v-227.84l-298.688-128V256zM384 404.608v-63.296H236.288L384 404.672z m85.312-63.296v110.336L554.624 536.96V341.312H469.312z m170.688 0v63.36l147.648-63.36H640z m-85.376 316.352L469.312 572.352v152.96h85.312v-67.648z m52.032 152.96H417.28L395.968 896h232l-21.312-85.376z" /></svg>