<?xml version="1.0" standalone="no"?><!DOCTYPE svg PUBLIC "-//W3C//DTD SVG 1.1//EN" "http://www.w3.org/Graphics/SVG/1.1/DTD/svg11.dtd"><svg class="icon" width="200px" height="200.00px" viewBox="0 0 1024 1024" version="1.1" xmlns="http://www.w3.org/2000/svg"><path d="M42.688 128h938.688v768H42.688V128zM128 213.312v597.376h768V213.312H128z m85.376 213.376c0-47.168 38.208-85.376 85.312-85.376h170.688v85.376H298.688v170.624h170.688v85.376H298.688a85.312 85.312 0 0 1-85.312-85.376V426.688z m341.312 0c0-47.168 38.208-85.376 85.312-85.376h170.688v85.376H640v170.624h170.688v85.376H640a85.312 85.312 0 0 1-85.312-85.376V426.688z" /></svg>