<?xml version="1.0" standalone="no"?><!DOCTYPE svg PUBLIC "-//W3C//DTD SVG 1.1//EN" "http://www.w3.org/Graphics/SVG/1.1/DTD/svg11.dtd"><svg class="icon" width="200px" height="200.00px" viewBox="0 0 1024 1024" version="1.1" xmlns="http://www.w3.org/2000/svg"><path d="M298.624 85.312v128h391.296c12.864-36.352 41.664-65.152 78.08-78.016v-49.92h85.312v49.92a128 128 0 0 1 0 241.408v433.92H376.704a128.384 128.384 0 0 1-78.08 78.08v49.92H213.312v-49.92a128.384 128.384 0 0 1-78.08-78.08h-49.92v-85.248h49.92c12.864-36.416 41.728-65.28 78.08-78.08V298.688h-128V213.376h128v-128h85.312z m0 213.376v348.608c36.416 12.8 65.216 41.664 78.08 78.08H768V376.704a128.384 128.384 0 0 1-78.08-78.08H298.624z" /></svg>