<?xml version="1.0" standalone="no"?><!DOCTYPE svg PUBLIC "-//W3C//DTD SVG 1.1//EN" "http://www.w3.org/Graphics/SVG/1.1/DTD/svg11.dtd"><svg class="icon" width="200px" height="200.00px" viewBox="0 0 1024 1024" version="1.1" xmlns="http://www.w3.org/2000/svg"><path d="M554.688 128v128H469.376V128h85.312z m319.36 167.616l-90.496 90.496-60.352-60.352 90.496-90.496 60.352 60.352z m-663.68-60.352L300.8 325.76l-60.288 60.352L149.952 295.68l60.352-60.352zM512 426.624a170.688 170.688 0 0 0-170.624 170.688V640H256v-42.688a256 256 0 1 1 512 0V640h-85.312v-42.688A170.688 170.688 0 0 0 512 426.688z m-469.312 128h128V640h-128V554.688z m810.688 0h128V640h-128V554.688zM512 674.112L652.928 768h328.448v85.312H627.072L512 776.64l-115.072 76.672H42.688V768h328.384L512 674.048z" /></svg>