<?xml version="1.0" standalone="no"?><!DOCTYPE svg PUBLIC "-//W3C//DTD SVG 1.1//EN" "http://www.w3.org/Graphics/SVG/1.1/DTD/svg11.dtd"><svg class="icon" width="200px" height="200.00px" viewBox="0 0 1024 1024" version="1.1" xmlns="http://www.w3.org/2000/svg"><path d="M554.688 42.688v128H469.376v-128h85.312z m319.36 167.552L783.552 300.8l-60.352-60.352 90.496-90.496 60.352 60.288z m-663.68-60.288L300.8 240.448l-60.288 60.352-90.56-90.496 60.352-60.352zM256 512a256 256 0 1 1 512 0 256 256 0 0 1-512 0zM42.688 469.312h128v85.376h-128V469.312z m810.688 0h128v85.376h-128V469.312zM300.8 783.552l-90.496 90.432-60.352-60.288 90.56-90.56 60.288 60.352z m482.752-60.416l90.496 90.56-60.352 60.288-90.496-90.496 60.352-60.352z m-228.864 130.176v128H469.376v-128h85.312z" /></svg>