<?xml version="1.0" standalone="no"?><!DOCTYPE svg PUBLIC "-//W3C//DTD SVG 1.1//EN" "http://www.w3.org/Graphics/SVG/1.1/DTD/svg11.dtd"><svg class="icon" width="200px" height="200.00px" viewBox="0 0 1024 1024" version="1.1" xmlns="http://www.w3.org/2000/svg"><path d="M211.712 151.296L410.24 349.824c62.016-39.04 141.568-39.04 203.584 0l198.528-198.528a469.44 469.44 0 0 0-600.64 0zM872.704 211.648L674.176 410.24c39.04 62.08 39.04 141.632 0 203.648l198.528 198.528a469.44 469.44 0 0 0 0-600.704zM812.352 872.704l-198.528-198.528c-62.016 39.04-141.568 39.04-203.584 0l-198.592 198.528a469.44 469.44 0 0 0 600.704 0zM151.36 812.352l198.528-198.528a191.68 191.68 0 0 1 0-203.648L151.36 211.648a469.44 469.44 0 0 0 0 600.704z" /></svg>