<?xml version="1.0" standalone="no"?><!DOCTYPE svg PUBLIC "-//W3C//DTD SVG 1.1//EN" "http://www.w3.org/Graphics/SVG/1.1/DTD/svg11.dtd"><svg class="icon" width="200px" height="200.00px" viewBox="0 0 1024 1024" version="1.1" xmlns="http://www.w3.org/2000/svg"><path d="M272.32 211.968l122.048 122.048a213.568 213.568 0 0 1 235.328 0l122.048-122.048a384.128 384.128 0 0 0-479.424 0z m539.712 60.352l-121.984 122.048a213.568 213.568 0 0 1 0 235.264l121.984 122.048a384.128 384.128 0 0 0 0-479.36z m-60.288 539.712l-122.048-122.048a213.632 213.632 0 0 1-235.328 0l-122.048 122.048a384.128 384.128 0 0 0 479.36 0z m-539.776-60.352L334.08 629.632a213.568 213.568 0 0 1 0-235.264L211.968 272.32a384.128 384.128 0 0 0 0 479.36z m-31.808-571.52a469.312 469.312 0 1 1 663.68 663.68 469.312 469.312 0 0 1-663.68-663.68z m422.4 241.28a128 128 0 1 0-181.056 181.12 128 128 0 0 0 181.056-181.12z" /></svg>