<?xml version="1.0" standalone="no"?><!DOCTYPE svg PUBLIC "-//W3C//DTD SVG 1.1//EN" "http://www.w3.org/Graphics/SVG/1.1/DTD/svg11.dtd"><svg class="icon" width="200px" height="200.00px" viewBox="0 0 1024 1024" version="1.1" xmlns="http://www.w3.org/2000/svg"><path d="M577.152 242.944c34.816 28.352 69.504 59.648 103.424 93.568 33.92 33.92 65.28 68.608 93.568 103.424 24.32-37.248 44.16-73.152 58.816-106.624 19.392-44.096 29.056-81.664 30.336-110.848 1.216-29.056-6.016-45.184-14.72-53.952-8.832-8.704-24.896-15.936-54.016-14.72-29.12 1.28-66.688 10.88-110.848 30.336-33.408 14.72-69.376 34.432-106.56 58.816z m-72-54.4c49.6-34.496 98.368-62.4 144.192-82.56 49.792-21.888 98.24-35.584 141.632-37.44 43.52-1.792 86.528 8.32 117.888 39.68s41.472 74.368 39.68 117.824c-1.856 43.456-15.552 91.84-37.504 141.632A870.4 870.4 0 0 1 828.48 512c34.56 49.664 62.464 98.432 82.56 144.256 21.952 49.792 35.712 98.24 37.504 141.632 1.856 43.52-8.32 86.528-39.68 117.888s-74.368 41.472-117.824 39.68c-43.456-1.856-91.84-15.552-141.632-37.504a871.232 871.232 0 0 1-144.256-82.56c-49.664 34.56-98.432 62.4-144.32 82.56-49.792 21.952-98.176 35.648-141.632 37.504-43.456 1.792-86.464-8.32-117.824-39.68s-41.472-74.368-39.68-117.888c1.856-43.392 15.552-91.84 37.44-141.632 20.224-45.824 48.128-94.592 82.624-144.256a870.912 870.912 0 0 1-82.56-144.256C77.248 317.888 63.552 269.504 61.76 226.048c-1.856-43.456 8.32-86.464 39.68-117.824 31.296-31.36 74.368-41.472 117.76-39.68 43.52 1.856 91.904 15.552 141.696 37.44 45.824 20.16 94.592 48.064 144.256 82.56zM236.096 440c28.352-34.816 59.648-69.504 93.568-103.424 33.92-33.92 68.608-65.28 103.488-93.568-37.248-24.32-73.216-44.16-106.624-58.88-44.16-19.328-81.728-29.056-110.848-30.272-29.12-1.216-45.184 6.016-53.952 14.72-8.768 8.768-16 24.896-14.72 53.952 1.216 29.184 10.88 66.752 30.272 110.848 14.72 33.472 34.496 69.376 58.88 106.624z m51.712 72a1268.8 1268.8 0 0 0 102.208 115.136c38.08 38.08 76.8 72.32 115.136 102.208A1268.16 1268.16 0 0 0 620.16 627.072a1268.48 1268.48 0 0 0 102.208-115.136 1269.632 1269.632 0 0 0-102.208-115.072c-38.016-38.08-76.8-72.32-115.072-102.208a1268.736 1268.736 0 0 0-115.2 102.208c-38.016 38.016-72.192 76.8-102.144 115.072zM236.16 583.936c-24.32 37.248-44.16 73.216-58.88 106.624-19.328 44.16-29.056 81.728-30.272 110.848-1.216 29.12 6.016 45.184 14.72 53.952 8.768 8.768 24.896 16 53.952 14.72 29.184-1.216 66.752-10.88 110.912-30.272a746.88 746.88 0 0 0 106.624-58.88 1369.344 1369.344 0 0 1-103.488-93.504c-33.92-33.92-65.216-68.672-93.568-103.488z m341.056 197.056c37.248 24.32 73.152 44.16 106.624 58.816 44.096 19.392 81.664 29.056 110.848 30.272 29.056 1.28 45.184-5.952 53.952-14.72s15.936-24.832 14.72-53.952c-1.28-29.12-10.88-66.752-30.336-110.848a746.88 746.88 0 0 0-58.816-106.624 1368.96 1368.96 0 0 1-93.568 103.488 1368.96 1368.96 0 0 1-103.424 93.568z m-107.84-311.68H554.88V554.88H469.312V469.312z" /></svg>