<?xml version="1.0" standalone="no"?><!DOCTYPE svg PUBLIC "-//W3C//DTD SVG 1.1//EN" "http://www.w3.org/Graphics/SVG/1.1/DTD/svg11.dtd"><svg class="icon" width="200px" height="200.00px" viewBox="0 0 1024 1024" version="1.1" xmlns="http://www.w3.org/2000/svg"><path d="M981.376 85.312H42.688V768h512v-85.312c0-29.824 4.672-58.56 13.44-85.44H128V170.56h768V412.8c30.72 7.296 59.52 19.648 85.376 36.16v-363.52zM128 853.312h426.688v85.376H128v-85.376zM778.752 629.312a53.312 53.312 0 0 1 90.88-37.76l30.336 30.08 60.16-60.608-30.272-30.08a138.688 138.688 0 0 0-236.416 98.368v32H640v277.376h384v-277.376h-245.248v-32z" /></svg>