<?xml version="1.0" standalone="no"?><!DOCTYPE svg PUBLIC "-//W3C//DTD SVG 1.1//EN" "http://www.w3.org/Graphics/SVG/1.1/DTD/svg11.dtd"><svg class="icon" width="200px" height="200.00px" viewBox="0 0 1024 1024" version="1.1" xmlns="http://www.w3.org/2000/svg"><path d="M512 170.688a52.736 52.736 0 0 0-52.096 53.312c0 29.952 23.808 53.312 52.096 53.312a52.736 52.736 0 0 0 52.16-53.312A52.736 52.736 0 0 0 512 170.688zM374.528 224c0-76.096 61.056-138.688 137.472-138.688 76.416 0 137.536 62.592 137.536 138.688 0 61.248-39.552 113.728-94.848 131.84v35.648l164.224 96v190.208l34.88 17.536c24.064-21.12 55.488-33.92 90.048-33.92 76.48 0 137.536 62.592 137.536 138.688a138.112 138.112 0 0 1-137.536 138.688 138.048 138.048 0 0 1-137.472-138.688c0-10.752 1.28-21.248 3.584-31.36l-32.192-16.128L512 849.408l-165.76-96.896-32.128 16.192c2.304 10.048 3.52 20.544 3.52 31.296a138.048 138.048 0 0 1-137.472 138.688A138.048 138.048 0 0 1 42.688 800c0-76.096 61.056-138.688 137.472-138.688 34.56 0 66.048 12.8 90.112 33.92l34.88-17.536V487.488l164.224-96V355.84A138.688 138.688 0 0 1 374.528 224zM512 465.408l-121.536 71.04v143.04l121.6 71.04 121.536-71.04V536.448L512 465.408z m-289.088 304a51.968 51.968 0 0 0-42.752-22.72A52.736 52.736 0 0 0 128 800c0 29.952 23.872 53.312 52.16 53.312a52.736 52.736 0 0 0 52.16-53.312 54.4 54.4 0 0 0-2.944-17.728l-6.4-12.8z m571.712 12.992a54.4 54.4 0 0 0-2.88 17.6c0 29.952 23.808 53.312 52.096 53.312A52.736 52.736 0 0 0 896 800a52.736 52.736 0 0 0-52.16-53.312 51.968 51.968 0 0 0-42.688 22.72l-6.528 12.992z" /></svg>