<?xml version="1.0" standalone="no"?><!DOCTYPE svg PUBLIC "-//W3C//DTD SVG 1.1//EN" "http://www.w3.org/Graphics/SVG/1.1/DTD/svg11.dtd"><svg class="icon" width="200px" height="200.00px" viewBox="0 0 1024 1024" version="1.1" xmlns="http://www.w3.org/2000/svg"><path d="M981.376 85.312H42.688V768h449.728a286.72 286.72 0 0 1 33.792-170.752H128V170.56h768V472.96c32 14.272 60.8 34.176 85.376 58.496v-446.08zM128 853.312h387.584c14.272 32 34.176 60.8 58.496 85.376H128v-85.376zM981.376 736c0 40.512-11.904 78.208-32.384 109.888l71.36 71.488-60.416 60.288-71.232-71.424a202.688 202.688 0 1 1 92.672-170.24zM896 736a117.312 117.312 0 1 0-34.624 83.2l0.384-0.32c21.12-21.248 34.24-50.56 34.24-82.88z" /></svg>