<?xml version="1.0" standalone="no"?><!DOCTYPE svg PUBLIC "-//W3C//DTD SVG 1.1//EN" "http://www.w3.org/Graphics/SVG/1.1/DTD/svg11.dtd"><svg class="icon" width="200px" height="200.00px" viewBox="0 0 1024 1024" version="1.1" xmlns="http://www.w3.org/2000/svg"><path d="M42.688 85.312h938.688v352H896V170.688H128v512h362.688V768h-448V85.312z m85.312 768h362.688v85.376H128v-85.376zM832 512v58.688c30.528 7.872 57.728 23.936 79.104 45.76l50.88-29.44 42.688 73.92-50.816 29.376a170.88 170.88 0 0 1 0 91.392l50.816 29.376-42.688 73.856-50.88-29.376c-21.376 21.76-48.64 37.888-79.104 45.76V960h-85.312v-58.688a170.496 170.496 0 0 1-79.104-45.76l-50.88 29.44-42.688-73.92 50.88-29.44a170.816 170.816 0 0 1 0-91.328l-50.88-29.376 42.688-73.856 50.88 29.376c21.376-21.76 48.64-37.888 79.104-45.76V512H832z m-117.376 182.72a84.928 84.928 0 0 0 0 82.56l1.536 2.688a85.248 85.248 0 0 0 146.368 0l1.536-2.752a84.928 84.928 0 0 0 0-82.496l-1.536-2.688a85.312 85.312 0 0 0-146.368 0l-1.536 2.688z" /></svg>