<?xml version="1.0" standalone="no"?><!DOCTYPE svg PUBLIC "-//W3C//DTD SVG 1.1//EN" "http://www.w3.org/Graphics/SVG/1.1/DTD/svg11.dtd"><svg class="icon" width="200px" height="200.00px" viewBox="0 0 1024 1024" version="1.1" xmlns="http://www.w3.org/2000/svg"><path d="M981.376 85.312H42.688V768h459.456a286.72 286.72 0 0 1 40.96-170.752H128V170.56h768v308.48a288 288 0 0 1 85.376 52.928V85.312zM128 853.312h393.728c12.608 31.616 30.656 60.416 52.992 85.376H128v-85.376zM832 570.688V512h-85.312v58.688a170.432 170.432 0 0 0-79.104 45.76l-50.88-29.44-42.688 73.92 50.816 29.376a170.88 170.88 0 0 0 0 91.392l-50.816 29.376 42.688 73.856 50.88-29.376c21.376 21.76 48.64 37.888 79.104 45.76V960H832v-58.688a170.496 170.496 0 0 0 79.104-45.76l50.88 29.44 42.688-73.92-50.88-29.44a170.816 170.816 0 0 0 0-91.328l50.88-29.376-42.688-73.856-50.88 29.376A170.432 170.432 0 0 0 832 570.688z m-115.84 121.344a85.312 85.312 0 0 1 146.368 0l1.536 2.688a84.928 84.928 0 0 1 0 82.56l-1.536 2.688a85.312 85.312 0 0 1-146.368 0l-1.536-2.752a84.928 84.928 0 0 1 0-82.496l1.536-2.688z" /></svg>