<?xml version="1.0" standalone="no"?><!DOCTYPE svg PUBLIC "-//W3C//DTD SVG 1.1//EN" "http://www.w3.org/Graphics/SVG/1.1/DTD/svg11.dtd"><svg class="icon" width="200px" height="200.00px" viewBox="0 0 1024 1024" version="1.1" xmlns="http://www.w3.org/2000/svg"><path d="M981.376 85.312H42.688V768h448.768a297.28 297.28 0 0 1 39.232-170.752H128V170.56h768v297.024c31.36 12.032 60.16 29.12 85.376 50.304V85.312zM128 853.312h382.272c12.032 31.36 29.12 60.16 50.304 85.376H128v-85.376zM789.376 512a234.688 234.688 0 1 0 0 469.312 234.688 234.688 0 0 0 0-469.312zM640 746.688a149.312 149.312 0 0 1 220.416-131.392l-202.432 202.432a148.608 148.608 0 0 1-17.92-71.04z m78.272 131.392l202.496-202.496a149.312 149.312 0 0 1-202.432 202.432z" /></svg>