<?xml version="1.0" standalone="no"?><!DOCTYPE svg PUBLIC "-//W3C//DTD SVG 1.1//EN" "http://www.w3.org/Graphics/SVG/1.1/DTD/svg11.dtd"><svg class="icon" width="200px" height="200.00px" viewBox="0 0 1024 1024" version="1.1" xmlns="http://www.w3.org/2000/svg"><path d="M42.688 85.312h938.688v384H896V170.688H128v512h384V768H42.688V85.312z m746.688 512c-64.832 0-117.376 52.544-117.376 117.376 0 53.376 31.36 104.704 68.928 145.984 17.344 19.136 34.88 34.752 48.448 45.824 13.504-11.072 31.04-26.688 48.448-45.824 37.504-41.28 68.864-92.608 68.864-145.984 0-64.832-52.48-117.376-117.312-117.376z m0 413.952l-23.68-15.744-0.128-0.064-0.128-0.128-0.512-0.384-1.728-1.152a482.88 482.88 0 0 1-25.728-19.456 547.456 547.456 0 0 1-59.648-56.256c-42.496-46.72-91.136-118.016-91.136-203.392a202.688 202.688 0 0 1 405.312 0c0 85.376-48.64 156.736-91.072 203.392a548.032 548.032 0 0 1-85.44 75.712l-1.664 1.152-0.512 0.384-0.192 0.128h-0.064l-23.68 15.808z m-53.376-328.576h106.688V768H736v-85.312zM128 853.312h384v85.376H128v-85.376z" /></svg>