<?xml version="1.0" standalone="no"?><!DOCTYPE svg PUBLIC "-//W3C//DTD SVG 1.1//EN" "http://www.w3.org/Graphics/SVG/1.1/DTD/svg11.dtd"><svg class="icon" width="200px" height="200.00px" viewBox="0 0 1024 1024" version="1.1" xmlns="http://www.w3.org/2000/svg"><path d="M42.688 85.312h938.688v341.376H896v-256H128v512h426.688V768h-512V85.312zM832.064 576a53.312 53.312 0 0 0-53.312 53.312v32H1024v277.376h-384v-277.376h53.44v-32a138.688 138.688 0 0 1 236.416-98.368l30.272 30.08-60.16 60.544-30.272-30.08A52.992 52.992 0 0 0 832 576z m-106.688 170.688v106.624h213.312v-106.624h-213.312zM128 853.312h426.688v85.376H128v-85.376z" /></svg>