<?xml version="1.0" standalone="no"?><!DOCTYPE svg PUBLIC "-//W3C//DTD SVG 1.1//EN" "http://www.w3.org/Graphics/SVG/1.1/DTD/svg11.dtd"><svg class="icon" width="200px" height="200.00px" viewBox="0 0 1024 1024" version="1.1" xmlns="http://www.w3.org/2000/svg"><path d="M85.312 85.312h216.64a167.488 167.488 0 0 1 167.36 167.36v216.64H252.672a167.552 167.552 0 0 1-167.36-167.36V85.312z m469.312 167.36a167.488 167.488 0 0 1 167.424-167.36h216.576v216.64a167.488 167.488 0 0 1-167.36 167.36H554.624V252.672z m-469.312 469.376a167.552 167.552 0 0 1 167.36-167.36h216.64v216.576a167.552 167.552 0 0 1-167.36 167.424H85.312v-216.64z m469.312-167.36h216.64a167.552 167.552 0 0 1 167.36 167.36v216.64h-216.576a167.552 167.552 0 0 1-167.424-167.424V554.688z" /></svg>