<?xml version="1.0" standalone="no"?><!DOCTYPE svg PUBLIC "-//W3C//DTD SVG 1.1//EN" "http://www.w3.org/Graphics/SVG/1.1/DTD/svg11.dtd"><svg class="icon" width="200px" height="200.00px" viewBox="0 0 1024 1024" version="1.1" xmlns="http://www.w3.org/2000/svg"><path d="M42.688 85.312h938.688V448H896V170.688H128v512h362.688V768h-448V85.312z m746.688 512a149.312 149.312 0 0 0-131.392 220.416l202.432-202.432a148.544 148.544 0 0 0-71.04-17.92z m131.392 78.272l-202.496 202.496a149.312 149.312 0 0 0 202.432-202.432z m-366.08 71.04a234.688 234.688 0 1 1 469.312 0 234.688 234.688 0 0 1-469.312 0zM128 853.376h362.688v85.376H128v-85.376z" /></svg>