<?xml version="1.0" standalone="no"?><!DOCTYPE svg PUBLIC "-//W3C//DTD SVG 1.1//EN" "http://www.w3.org/Graphics/SVG/1.1/DTD/svg11.dtd"><svg class="icon" width="200px" height="200.00px" viewBox="0 0 1024 1024" version="1.1" xmlns="http://www.w3.org/2000/svg"><path d="M85.312 85.312h216.64a167.488 167.488 0 0 1 167.36 167.36v216.64H252.672a167.552 167.552 0 0 1-167.36-167.36V85.312z m85.312 85.376v131.264C170.624 347.136 207.488 384 252.672 384H384V252.672c0-45.184-36.864-81.984-82.048-81.984H170.624z m551.424 0c-45.248 0-82.048 36.8-82.048 81.984V384h131.264c45.184 0 82.048-36.864 82.048-82.048V170.688h-131.264zM554.624 252.672a167.488 167.488 0 0 1 167.424-167.36h216.576v216.64a167.488 167.488 0 0 1-167.36 167.36H554.624V252.672zM252.672 640c-45.184 0-82.048 36.864-82.048 82.048v131.264h131.328c45.184 0 82.048-36.8 82.048-82.048V640H252.672z m-167.36 82.048a167.552 167.552 0 0 1 167.36-167.36h216.64v216.576a167.552 167.552 0 0 1-167.36 167.424H85.312v-216.64z m469.312-167.36h216.64a167.552 167.552 0 0 1 167.36 167.36v216.64h-216.576a167.552 167.552 0 0 1-167.424-167.424V554.688zM640 640v131.264c0 45.248 36.8 82.048 82.048 82.048h131.264v-131.264c0-45.184-36.864-82.048-82.048-82.048H640z" /></svg>