<?xml version="1.0" standalone="no"?><!DOCTYPE svg PUBLIC "-//W3C//DTD SVG 1.1//EN" "http://www.w3.org/Graphics/SVG/1.1/DTD/svg11.dtd"><svg class="icon" width="200px" height="200.00px" viewBox="0 0 1024 1024" version="1.1" xmlns="http://www.w3.org/2000/svg"><path d="M981.376 85.312H42.688V768h458.688v-53.312c0-41.856 8.896-81.6 24.96-117.44H128V170.56h768v276.48a288 288 0 0 1 85.376 52.928V85.312zM128 853.312h373.376v85.376H128v-85.376zM789.376 1011.2l-23.68-15.68-0.128-0.064-0.128-0.128-0.512-0.384-1.728-1.152a482.88 482.88 0 0 1-25.728-19.456 547.456 547.456 0 0 1-59.648-56.256c-42.496-46.72-91.136-118.016-91.136-203.392a202.688 202.688 0 0 1 405.312 0c0 85.376-48.64 156.736-91.072 203.392a548.032 548.032 0 0 1-85.44 75.712l-1.664 1.152-0.512 0.384-0.192 0.128h-0.064l-23.68 15.808z m53.312-328.512H736V768h106.688v-85.312z" /></svg>