<?xml version="1.0" standalone="no"?><!DOCTYPE svg PUBLIC "-//W3C//DTD SVG 1.1//EN" "http://www.w3.org/Graphics/SVG/1.1/DTD/svg11.dtd"><svg class="icon" width="200px" height="200.00px" viewBox="0 0 1024 1024" version="1.1" xmlns="http://www.w3.org/2000/svg"><path d="M938.624 85.312v853.376H85.312V85.312h853.312zM170.624 256h298.688V170.688H170.624V256z m384 0h298.688V170.688H554.624V256z m0.128 202.688H469.248v85.504h85.504V458.688z m-256 128H213.248v85.44h85.504V586.752z m128 0H341.248v85.44h85.504V586.752z m128 0H469.248v85.44h85.504V586.752z m128 0H597.248v85.44h85.504V586.752z m128 0h-85.504v85.44h85.504V586.752z m-256 128H469.248v85.44h85.504v-85.44z" /></svg>