<?xml version="1.0" standalone="no"?><!DOCTYPE svg PUBLIC "-//W3C//DTD SVG 1.1//EN" "http://www.w3.org/Graphics/SVG/1.1/DTD/svg11.dtd"><svg class="icon" width="200px" height="200.00px" viewBox="0 0 1024 1024" version="1.1" xmlns="http://www.w3.org/2000/svg"><path d="M85.312 85.312h853.312v853.376H85.312V85.312z m85.312 85.376V256h298.688V170.688H170.624z m384 0V256h298.688V170.688H554.624z m298.688 170.624H170.624v512h682.688v-512zM469.248 426.56h85.504v85.504H469.248V426.56z m-256 128h85.504v85.504H213.248V554.56z m128 0h85.504v85.504H341.248V554.56z m128 0h85.504v85.504H469.248V554.56z m128 0h85.504v85.504H597.248V554.56z m128 0h85.504v85.504h-85.504V554.56z m-256 128h85.504v85.504H469.248v-85.504z" /></svg>