<?xml version="1.0" standalone="no"?><!DOCTYPE svg PUBLIC "-//W3C//DTD SVG 1.1//EN" "http://www.w3.org/Graphics/SVG/1.1/DTD/svg11.dtd"><svg class="icon" width="200px" height="200.00px" viewBox="0 0 1024 1024" version="1.1" xmlns="http://www.w3.org/2000/svg"><path d="M42.688 128h938.688v768H42.688V128zM128 213.312v597.376h768V213.312h-62.464l-85.376 128H275.84l-85.312-128H128z m165.12 0L321.472 256h380.992l28.416-42.688H293.12zM341.312 512a42.688 42.688 0 1 0 0 85.312 42.688 42.688 0 0 0 0-85.312z m-128 42.688a128 128 0 1 1 256 0 128 128 0 0 1-256 0zM682.688 512a42.688 42.688 0 1 0 0 85.312 42.688 42.688 0 0 0 0-85.312z m-128 42.688a128 128 0 1 1 256 0 128 128 0 0 1-256 0z" /></svg>