<?xml version="1.0" standalone="no"?><!DOCTYPE svg PUBLIC "-//W3C//DTD SVG 1.1//EN" "http://www.w3.org/Graphics/SVG/1.1/DTD/svg11.dtd"><svg class="icon" width="200px" height="199.80px" viewBox="0 0 1025 1024" version="1.1" xmlns="http://www.w3.org/2000/svg"><path d="M295.474713 42.228762h422.034376V126.622975H886.360826v379.868926h-84.394213V211.017188h-84.457524v84.457525H295.474713V211.017188H211.017188V886.360826H506.491901v84.394213H126.622975V126.622975h168.851738V42.228762zM379.868925 211.017188h253.245951V126.622975H379.868925v84.394213z m464.263139 369.359219v58.056634c30.19958 7.787313 57.106962 23.678496 78.252998 45.204402l50.332633-29.059973 42.228762 73.124768-50.269321 29.059973a168.915049 168.915049 0 0 1 0 90.408804l50.269321 28.996662-42.228762 73.124768-50.332633-29.059973c-21.146037 21.525906-48.116731 37.480401-78.252998 45.204402v58.119946H759.737851v-58.119946a168.661803 168.661803 0 0 1-78.252999-45.204402l-50.332632 29.123284-42.228763-73.188079 50.332633-28.996662a168.915049 168.915049 0 0 1 0-90.408804l-50.332633-29.059973 42.228763-73.124768 50.332632 29.123284c21.146037-21.589217 48.116731-37.480401 78.252999-45.267713v-58.056634h84.394213zM728.082107 761.130704a84.077655 84.077655 0 0 0 0 81.671819l1.519476 2.595771a84.330901 84.330901 0 0 0 144.793372 0l1.519476-2.659083a84.077655 84.077655 0 0 0 0-81.608507l-1.519476-2.659083a84.394213 84.394213 0 0 0-144.793372 0l-1.519476 2.659083z" /></svg>