<?xml version="1.0" standalone="no"?><!DOCTYPE svg PUBLIC "-//W3C//DTD SVG 1.1//EN" "http://www.w3.org/Graphics/SVG/1.1/DTD/svg11.dtd"><svg class="icon" width="200px" height="200.00px" viewBox="0 0 1024 1024" version="1.1" xmlns="http://www.w3.org/2000/svg"><path d="M512 128a384 384 0 1 0 0 768h42.688v85.312H512A469.312 469.312 0 1 1 692.608 78.72l39.36 16.448-32.832 78.72-39.424-16.384A382.72 382.72 0 0 0 512 128z m487.04 64L512 679.04 259.712 426.688 320 366.336l192 192 426.688-426.688 60.352 60.352z m-145.664 448v128h128v85.312h-128v128H768v-128h-128V768h128v-128h85.376z" /></svg>