<?xml version="1.0" standalone="no"?><!DOCTYPE svg PUBLIC "-//W3C//DTD SVG 1.1//EN" "http://www.w3.org/Graphics/SVG/1.1/DTD/svg11.dtd"><svg class="icon" width="200px" height="200.00px" viewBox="0 0 1024 1024" version="1.1" xmlns="http://www.w3.org/2000/svg"><path d="M298.688 42.688h426.624V128H896v341.312h-85.312v-256h-85.376v85.376H298.688V213.312H213.312V896h256v85.312H128V128h170.688V42.688zM384 213.312h256V128H384v85.312zM768 618.688a149.312 149.312 0 1 0 0 298.624 149.312 149.312 0 0 0 0-298.624zM533.312 768a234.688 234.688 0 1 1 469.376 0 234.688 234.688 0 0 1-469.376 0z m277.376-95.936v78.272l60.352 60.352-60.352 60.352-85.376-85.376v-113.6h85.376z" /></svg>