<?xml version="1.0" standalone="no"?><!DOCTYPE svg PUBLIC "-//W3C//DTD SVG 1.1//EN" "http://www.w3.org/Graphics/SVG/1.1/DTD/svg11.dtd"><svg class="icon" width="200px" height="200.00px" viewBox="0 0 1024 1024" version="1.1" xmlns="http://www.w3.org/2000/svg"><path d="M725.312 42.688H298.688V128H128v853.312h298.688V896H213.312V213.312h85.376v85.376h426.624V213.312h85.376v341.376H896V128h-170.688V42.688zM640 213.312H384V128h256v85.312zM672 853.312V768h106.688v85.312H672zM725.44 1002.688c188.48 0 259.84-192 259.84-192s-71.424-192-259.84-192c-188.48 0-259.84 192-259.84 192s71.296 192 259.84 192z m-0.064-85.376c-111.616 0-165.12-106.624-165.12-106.624S613.504 704 725.376 704c111.808 0 165.12 106.688 165.12 106.688s-53.568 106.624-165.12 106.624z" /></svg>