<?xml version="1.0" standalone="no"?><!DOCTYPE svg PUBLIC "-//W3C//DTD SVG 1.1//EN" "http://www.w3.org/Graphics/SVG/1.1/DTD/svg11.dtd"><svg class="icon" width="200px" height="200.00px" viewBox="0 0 1024 1024" version="1.1" xmlns="http://www.w3.org/2000/svg"><path d="M642.529882 40.176941H321.234824v160.587294h321.295058V40.176941zM240.941176 120.470588H120.470588v803.117177h436.705883A260.999529 260.999529 0 0 1 843.294118 514.529882V120.470588h-120.470589v160.64753H240.941176V120.470588zM803.117176 552.176941v55.235765c28.732235 7.408941 54.332235 22.528 74.450824 43.008l47.887059-27.648 40.176941 69.571765-47.826824 27.648a160.828235 160.828235 0 0 1 0 86.016l47.826824 27.587764-40.176941 69.571765-47.887059-27.648c-20.118588 20.48-45.778824 35.659294-74.450824 43.008v55.296H722.823529v-55.296a160.466824 160.466824 0 0 1-74.450823-43.008l-47.887059 27.648-40.176941-69.571765 47.887059-27.587764a160.768 160.768 0 0 1 0-86.016l-47.887059-27.648 40.176941-69.571765 47.887059 27.708235c20.118588-20.540235 45.778824-35.659294 74.450823-43.068235v-55.235765h80.293647zM692.705882 724.148706a79.932235 79.932235 0 0 0 0 77.703529l1.445647 2.469647a80.233412 80.233412 0 0 0 137.758118 0l1.445647-2.529882a79.932235 79.932235 0 0 0 0-77.643294l-1.445647-2.529882a80.293647 80.293647 0 0 0-137.758118 0l-1.445647 2.529882z" /></svg>