<?xml version="1.0" standalone="no"?><!DOCTYPE svg PUBLIC "-//W3C//DTD SVG 1.1//EN" "http://www.w3.org/Graphics/SVG/1.1/DTD/svg11.dtd"><svg class="icon" width="200px" height="200.00px" viewBox="0 0 1024 1024" version="1.1" xmlns="http://www.w3.org/2000/svg"><path d="M682.688 42.688H341.312v170.624h341.376V42.688zM256 128H128v853.312h380.16a376.512 376.512 0 0 1-23.68-23.424 413.056 413.056 0 0 1-51.84-69.376c-10.624-17.92-18.56-35.84-25.728-52.48l-11.008-25.408 10.944-25.408c7.296-16.896 15.232-34.752 25.792-52.48 11.136-18.688 28.16-43.84 51.84-69.312 47.168-50.816 126.848-108.672 240.768-108.8 69.568 0 126.336 21.504 170.752 49.856V128h-128v170.688H256V128zM919.424 706.944c-39.68-42.752-103.616-88.32-194.048-88.32-90.432 0.064-154.24 45.632-193.92 88.32a349.248 349.248 0 0 0-54.528 78.208 286.528 286.528 0 0 0-7.04 15.616l-4.224 9.856 4.224 9.92c2.048 4.8 4.352 10.24 7.04 15.616a349.248 349.248 0 0 0 54.464 78.208c39.68 42.752 103.616 88.32 193.984 88.32 90.496 0 154.368-45.568 194.048-88.32a349.056 349.056 0 0 0 54.4-78.272c2.752-5.312 5.056-10.752 7.04-15.552l4.288-9.92-4.224-9.856c-2.048-4.8-4.352-10.24-7.04-15.616a348.928 348.928 0 0 0-54.464-78.272z m-140.8 61.056v85.312H672V768h106.688z" /></svg>