<?xml version="1.0" standalone="no"?><!DOCTYPE svg PUBLIC "-//W3C//DTD SVG 1.1//EN" "http://www.w3.org/Graphics/SVG/1.1/DTD/svg11.dtd"><svg class="icon" width="200px" height="200.00px" viewBox="0 0 1024 1024" version="1.1" xmlns="http://www.w3.org/2000/svg"><path d="M682.688 42.688H341.312v170.624h341.376V42.688zM128 128h128v170.688h512V128h128v337.792a266.688 266.688 0 0 0-362.688 248.832c0 109.44 61.632 195.84 107.776 246.528 6.464 7.104 12.928 13.888 19.264 20.16H128V128zM800 1011.2l-8.64-5.696a490.688 490.688 0 0 1-43.2-31.168 547.584 547.584 0 0 1-59.712-56.256c-42.432-46.72-91.136-118.016-91.136-203.392a202.688 202.688 0 0 1 405.376 0c0 85.376-48.64 156.736-91.136 203.392A547.584 547.584 0 0 1 832 989.632a602.88 602.88 0 0 1-23.36 15.872l-8.64 5.76z m-53.312-328.512V768h106.624v-85.312h-106.624z" /></svg>