<?xml version="1.0" standalone="no"?><!DOCTYPE svg PUBLIC "-//W3C//DTD SVG 1.1//EN" "http://www.w3.org/Graphics/SVG/1.1/DTD/svg11.dtd"><svg class="icon" width="200px" height="200.00px" viewBox="0 0 1024 1024" version="1.1" xmlns="http://www.w3.org/2000/svg"><path d="M341.312 85.312V128h341.312v-42.688H768V128h42.624v85.312H768v71.168l106.624 142.208h64V512H896v341.376h42.624v85.312H85.312v-85.312H128V512h-42.688V426.688h64L256 284.48V213.312h-42.688V128H256v-42.688h85.312z m0 128V256h341.312v-42.688H341.312zM810.624 512h-128v341.376h128V512z m-213.312 341.376V512H426.624v341.376h170.688z m-256 0V512h-128v341.376h128z" /></svg>