<?xml version="1.0" standalone="no"?><!DOCTYPE svg PUBLIC "-//W3C//DTD SVG 1.1//EN" "http://www.w3.org/Graphics/SVG/1.1/DTD/svg11.dtd"><svg class="icon" width="200px" height="200.00px" viewBox="0 0 1024 1024" version="1.1" xmlns="http://www.w3.org/2000/svg"><path d="M938.624 938.688H85.312V85.312h853.312v853.376z m-85.312-768h-106.688v106.624h106.688V170.688z m0 192h-106.688v106.624h106.688V362.688z m0 192h-106.688v106.624h106.688V554.688z m-106.688 192v106.624h106.688v-106.624h-106.688z m-85.312-85.376V554.688H640V469.312h21.312V362.688H640V277.312h21.312V170.688H362.624v106.624H384v85.376h-21.376v106.624H384v85.376h-21.376v106.624H384v85.376h-21.376v106.624h298.688v-106.624H640v-85.376h21.312z m-384-490.624H170.624v106.624h106.688V170.688z m0 192H170.624v106.624h106.688V362.688z m0 192H170.624v106.624h106.688V554.688z m0 192H170.624v106.624h106.688v-106.624z" /></svg>