<?xml version="1.0" standalone="no"?><!DOCTYPE svg PUBLIC "-//W3C//DTD SVG 1.1//EN" "http://www.w3.org/Graphics/SVG/1.1/DTD/svg11.dtd"><svg class="icon" width="200px" height="200.00px" viewBox="0 0 1024 1024" version="1.1" xmlns="http://www.w3.org/2000/svg"><path d="M450.304 75.264l73.216 24.384a157.888 157.888 0 0 1 107.904 149.76v104.704h165.12a128 128 0 0 1 126.464 147.456l-50.56 328.576a128 128 0 0 1-126.464 108.544H85.312V430.912h206.912l158.08-355.648z m-172.992 440.96H170.624v337.088h106.688V516.288z m85.312 337.088h383.36c21.056 0 38.976-15.36 42.176-36.16l50.56-328.512a42.688 42.688 0 0 0-42.24-49.152H546.176v-190.08c0-31.104-19.84-58.688-49.28-68.672L362.624 482.56v370.688z" /></svg>