<?xml version="1.0" standalone="no"?><!DOCTYPE svg PUBLIC "-//W3C//DTD SVG 1.1//EN" "http://www.w3.org/Graphics/SVG/1.1/DTD/svg11.dtd"><svg class="icon" width="200px" height="200.00px" viewBox="0 0 1024 1024" version="1.1" xmlns="http://www.w3.org/2000/svg"><path d="M450.368 75.264l73.152 24.384a157.888 157.888 0 0 1 107.968 149.76v104.704h165.056a128 128 0 0 1 126.528 147.456l-50.56 328.576a128 128 0 0 1-126.528 108.544H128V430.912h164.288l158.08-355.648z m46.464 105.472l-149.12 335.552h-134.4v337.024h532.672c21.12 0 38.976-15.36 42.176-36.16l50.56-328.512a42.688 42.688 0 0 0-42.24-49.152H546.176v-190.08c0-31.104-19.84-58.688-49.28-68.672z" /></svg>