<?xml version="1.0" standalone="no"?><!DOCTYPE svg PUBLIC "-//W3C//DTD SVG 1.1//EN" "http://www.w3.org/Graphics/SVG/1.1/DTD/svg11.dtd"><svg class="icon" width="200px" height="200.00px" viewBox="0 0 1024 1024" version="1.1" xmlns="http://www.w3.org/2000/svg"><path d="M573.632 948.736l-73.152-24.384a157.888 157.888 0 0 1-107.968-149.76v-104.704H227.456a128 128 0 0 1-126.528-147.456l50.56-328.576a128 128 0 0 1 126.528-108.544h660.672v507.776h-206.976l-158.08 355.648z m173.056-440.96h106.624V170.624h-106.624v337.024z m-85.376-337.088h-383.36a42.688 42.688 0 0 0-42.112 36.16l-50.56 328.512a42.688 42.688 0 0 0 42.24 49.152h250.368v190.08c0 31.104 19.84 58.752 49.28 68.672l134.144-301.888V170.688z" /></svg>