<?xml version="1.0" standalone="no"?><!DOCTYPE svg PUBLIC "-//W3C//DTD SVG 1.1//EN" "http://www.w3.org/Graphics/SVG/1.1/DTD/svg11.dtd"><svg class="icon" width="200px" height="200.00px" viewBox="0 0 1024 1024" version="1.1" xmlns="http://www.w3.org/2000/svg"><path d="M42.688 170.688h938.688v233.344l-24.32 11.52a106.688 106.688 0 0 0 0 192.896l24.32 11.52v233.344H42.688V619.968l24.32-11.52a106.688 106.688 0 0 0 0-192.896l-24.32-11.52V170.688zM128 256v96.32A191.808 191.808 0 0 1 213.376 512c0 66.624-33.92 125.248-85.376 159.68V768h768v-96.32A191.808 191.808 0 0 1 810.688 512c0-66.56 33.92-125.248 85.312-159.68V256H128z m213.376 128h341.312v85.312H341.376V384z m0 170.688h341.312V640H341.376V554.688z" /></svg>