<?xml version="1.0" standalone="no"?><!DOCTYPE svg PUBLIC "-//W3C//DTD SVG 1.1//EN" "http://www.w3.org/Graphics/SVG/1.1/DTD/svg11.dtd"><svg class="icon" width="200px" height="200.00px" viewBox="0 0 1024 1024" version="1.1" xmlns="http://www.w3.org/2000/svg"><path d="M278.784 79.616a362.752 362.752 0 0 1 490.112 417.792l219.904 219.904-60.352 60.352-255.488-255.488 7.616-24.576c29.312-95.232 6.336-202.88-68.928-278.08A277.12 277.12 0 0 0 355.84 144.64L536.32 325.12l-211.2 211.2L144.64 355.84A277.12 277.12 0 0 0 219.52 611.776a277.248 277.248 0 0 0 278.144 68.864l24.512-7.552 255.488 255.488-60.352 60.352-219.84-219.904a362.752 362.752 0 0 1-417.856-490.112l10.88-26.624h71.296l163.328 163.392L415.552 325.12 252.224 161.792 252.16 90.432l26.624-10.88zM672 611.712l211.2 211.2-60.352 60.352-211.2-211.2 60.352-60.352z" /></svg>