<?xml version="1.0" standalone="no"?><!DOCTYPE svg PUBLIC "-//W3C//DTD SVG 1.1//EN" "http://www.w3.org/Graphics/SVG/1.1/DTD/svg11.dtd"><svg class="icon" width="200px" height="200.00px" viewBox="0 0 1024 1024" version="1.1" xmlns="http://www.w3.org/2000/svg"><path d="M159.36 280.192l-80.896-2.688-9.6 31.168a362.624 362.624 0 0 0 90.24 363.392 362.56 362.56 0 0 0 362.048 90.56l225.92 225.92 90.56-90.56-183.296-183.232 60.352-60.352 183.296 183.296 90.432-90.496-225.92-225.856a362.56 362.56 0 0 0-90.56-362.112 362.624 362.624 0 0 0-363.392-90.24l-31.232 9.6 2.752 80.96 150.528 150.528L309.888 430.72 159.36 280.192z" /></svg>