<?xml version="1.0" standalone="no"?><!DOCTYPE svg PUBLIC "-//W3C//DTD SVG 1.1//EN" "http://www.w3.org/Graphics/SVG/1.1/DTD/svg11.dtd"><svg class="icon" width="200px" height="200.00px" viewBox="0 0 1024 1024" version="1.1" xmlns="http://www.w3.org/2000/svg"><path d="M512 896A384 384 0 1 0 512 128a384 384 0 0 0 0 768z m469.376-384A469.312 469.312 0 1 1 42.688 512a469.312 469.312 0 0 1 938.688 0z m-311.872 308.288l-179.52-179.52a213.376 213.376 0 0 1-251.136-290.752l13.568-31.488 57.856 11.2L388.864 408.32l19.584-19.52-78.592-78.656-11.264-57.792 31.552-13.568a213.376 213.376 0 0 1 290.688 251.136l179.52 179.52-150.848 150.848z m30.144-150.848L541.44 511.168l11.2-26.496a128 128 0 0 0-104.96-177.344l81.536 81.472-140.288 140.224-81.472-81.536a128 128 0 0 0 177.344 105.024l26.496-11.2 158.272 158.272 30.144-30.144z" /></svg>