<?xml version="1.0" standalone="no"?><!DOCTYPE svg PUBLIC "-//W3C//DTD SVG 1.1//EN" "http://www.w3.org/Graphics/SVG/1.1/DTD/svg11.dtd"><svg class="icon" width="200px" height="200.00px" viewBox="0 0 1024 1024" version="1.1" xmlns="http://www.w3.org/2000/svg"><path d="M235.84 170.688A21.952 21.952 0 0 0 213.312 192c0 11.072 9.344 21.312 22.528 21.312h574.848v85.376H235.84C177.024 298.688 128 251.648 128 192s49.024-106.688 107.84-106.688h105.472v85.376H235.84zM896 341.376v85.312H256V341.376h640z m-554.688 128h469.376v85.312H341.312V469.376zM256 597.376h384v85.312H256V597.376z m-42.688 128h341.376v85.312H213.312v-85.312z m128 128H640v85.312H341.312v-85.312z" /></svg>