<?xml version="1.0" standalone="no"?><!DOCTYPE svg PUBLIC "-//W3C//DTD SVG 1.1//EN" "http://www.w3.org/Graphics/SVG/1.1/DTD/svg11.dtd"><svg class="icon" width="200px" height="200.00px" viewBox="0 0 1024 1024" version="1.1" xmlns="http://www.w3.org/2000/svg"><path d="M554.688 42.688v42.624h128v256h-41.728c3.392 79.872 15.808 185.728 38.528 287.232 13.568 60.288 30.528 118.08 50.88 167.424 15.168 36.672 31.616 67.2 48.896 90.368l8.576 9.6h65.536v85.376h-256V896h71.424c-3.84-3.52-7.68-7.04-11.712-10.496a424.64 424.64 0 0 0-74.624-53.312c-26.24-14.144-50.112-21.568-70.4-21.568-20.352 0-44.16 7.424-70.464 21.568a424.576 424.576 0 0 0-74.624 53.312c-4.032 3.52-7.936 7.04-11.712 10.496h71.424v85.312h-256V896h65.536l8.576-9.664c17.28-23.168 33.664-53.696 48.832-90.368 20.416-49.344 37.376-107.136 50.88-167.424 22.784-101.504 35.2-207.36 38.528-287.232h-41.664v-256h128V42.688h85.312zM468.48 341.312a1793.536 1793.536 0 0 1-40.704 305.92 1309.312 1309.312 0 0 1-29.952 111.68l3.2-1.792c33.024-17.856 71.232-31.808 110.976-31.808 39.808 0 77.952 13.952 110.976 31.808l3.2 1.792a1309.056 1309.056 0 0 1-29.952-111.744 1793.472 1793.472 0 0 1-40.64-305.856H468.48zM426.688 256h170.688V170.688H426.688V256z" /></svg>