<?xml version="1.0" standalone="no"?><!DOCTYPE svg PUBLIC "-//W3C//DTD SVG 1.1//EN" "http://www.w3.org/Graphics/SVG/1.1/DTD/svg11.dtd"><svg class="icon" width="200px" height="200.00px" viewBox="0 0 1024 1024" version="1.1" xmlns="http://www.w3.org/2000/svg"><path d="M458.624 469.312a53.312 53.312 0 1 1 106.688 0 53.312 53.312 0 0 1-106.688 0zM737.6 124.352L512 39.744 286.4 124.352l29.952 79.872 24.96-9.344v18.432h-128v512h85.312v256h426.688v-256h85.312v-512h-128v-18.432l24.96 9.344 30.016-79.872z m-268.288 728.96v-128h85.312v128H469.312zM512 330.688A138.688 138.688 0 1 1 512 608a138.688 138.688 0 0 1 0-277.312z" /></svg>