<?xml version="1.0" standalone="no"?><!DOCTYPE svg PUBLIC "-//W3C//DTD SVG 1.1//EN" "http://www.w3.org/Graphics/SVG/1.1/DTD/svg11.dtd"><svg class="icon" width="200px" height="200.00px" viewBox="0 0 1024 1024" version="1.1" xmlns="http://www.w3.org/2000/svg"><path d="M554.624 42.688v42.624h128v256h-40c8.512 76.16 37.248 179.2 77.568 280.832 45.056 113.536 101.12 216.96 151.552 273.856h66.88v85.312H603.84l-5.888-35.456-0.128-0.512a163.136 163.136 0 0 0-3.648-14.272 167.872 167.872 0 0 0-15.04-34.944c-14.336-24.576-34.56-42.816-67.2-42.816-32.512 0-52.736 18.24-67.136 42.88a167.872 167.872 0 0 0-18.688 49.152l-0.064 0.448-5.888 35.52H85.312V896h66.88c50.432-56.96 106.56-160.32 151.616-273.92 40.32-101.632 69.056-204.608 77.568-280.768h-40.064v-256h128V42.688h85.312zM467.2 341.312c-8.576 89.6-41.472 204.928-84.032 312.32-34.816 87.808-78.08 175.232-123.648 242.368h92.032c4.48-12.544 10.752-27.584 19.648-42.88 22.976-39.36 66.688-85.12 140.8-85.12 74.176 0 117.952 45.76 140.928 85.12 8.896 15.296 15.168 30.336 19.584 42.88h92.032c-45.568-67.2-88.768-154.56-123.648-242.432C598.272 546.24 565.376 430.976 556.8 341.312H467.2zM426.624 256h170.688V170.688H426.624V256z" /></svg>