<?xml version="1.0" standalone="no"?><!DOCTYPE svg PUBLIC "-//W3C//DTD SVG 1.1//EN" "http://www.w3.org/Graphics/SVG/1.1/DTD/svg11.dtd"><svg class="icon" width="200px" height="200.00px" viewBox="0 0 1024 1024" version="1.1" xmlns="http://www.w3.org/2000/svg"><path d="M512 39.744l225.6 84.608-30.016 79.872-24.96-9.344v18.432h128v512h-85.312v256H298.624v-256H213.312v-512h128v-18.432l-24.96 9.344-29.952-79.872L512 39.744zM426.624 162.88v50.432h170.688v-50.432L512 130.88l-85.376 32zM384 725.312V896h256v-170.688H554.624v128H469.312v-128H384zM725.312 640V298.624H298.624V640h426.688zM512 426.624A42.688 42.688 0 1 0 512 512a42.688 42.688 0 0 0 0-85.376z m-128 42.688a128 128 0 1 1 256 0 128 128 0 0 1-256 0z" /></svg>