<?xml version="1.0" standalone="no"?><!DOCTYPE svg PUBLIC "-//W3C//DTD SVG 1.1//EN" "http://www.w3.org/Graphics/SVG/1.1/DTD/svg11.dtd"><svg class="icon" width="200px" height="200.00px" viewBox="0 0 1024 1024" version="1.1" xmlns="http://www.w3.org/2000/svg"><path d="M85.312 85.312h232.192l151.808 167.04v-167.04h233.344l235.968 283.264v570.112H85.312V85.376z m469.312 85.376v682.624h298.688V399.552l-190.656-228.8H554.624zM469.312 853.312V379.264L279.744 170.688H170.624v682.624h298.688zM256 341.376h85.504v85.44H256V341.248z m384 0h85.504v85.44H640V341.248zM256 511.872h85.504v85.504H256V511.936z m384 0h85.504v85.504H640V511.936z m-384 170.688h85.504V768H256v-85.44z m384 0h85.504V768H640v-85.44z" /></svg>