<?xml version="1.0" standalone="no"?><!DOCTYPE svg PUBLIC "-//W3C//DTD SVG 1.1//EN" "http://www.w3.org/Graphics/SVG/1.1/DTD/svg11.dtd"><svg class="icon" width="200px" height="200.00px" viewBox="0 0 1024 1024" version="1.1" xmlns="http://www.w3.org/2000/svg"><path d="M256 85.312h512V256h128v85.312h-128v128h128v85.376h-128v128h128V768h-128v170.688H256V768H128v-85.312h128v-128H128V469.376h128v-128H128V256h128V85.312z m85.312 85.376v682.624h341.376V170.752H341.312z m85.376 128a85.312 85.312 0 1 1 170.624 0 85.312 85.312 0 0 1-170.624 0z m0 213.312a85.312 85.312 0 1 1 170.624 0 85.312 85.312 0 0 1-170.624 0z m0 213.376a85.312 85.312 0 1 1 170.624 0 85.312 85.312 0 0 1-170.624 0z" /></svg>