<?xml version="1.0" standalone="no"?><!DOCTYPE svg PUBLIC "-//W3C//DTD SVG 1.1//EN" "http://www.w3.org/Graphics/SVG/1.1/DTD/svg11.dtd"><svg class="icon" width="200px" height="200.00px" viewBox="0 0 1024 1024" version="1.1" xmlns="http://www.w3.org/2000/svg"><path d="M768 85.312H256V256H128v85.312h128v128H128v85.376h128v128H128V768h128v170.688h512V768h128v-85.312h-128v-128h128V469.376h-128v-128h128V256h-128V85.312zM426.688 298.752a85.312 85.312 0 1 1 170.624 0 85.312 85.312 0 0 1-170.624 0z m0 213.312a85.312 85.312 0 1 1 170.624 0 85.312 85.312 0 0 1-170.624 0zM512 640a85.312 85.312 0 1 1 0 170.688A85.312 85.312 0 0 1 512 640z" /></svg>