<?xml version="1.0" standalone="no"?><!DOCTYPE svg PUBLIC "-//W3C//DTD SVG 1.1//EN" "http://www.w3.org/Graphics/SVG/1.1/DTD/svg11.dtd"><svg class="icon" width="200px" height="200.00px" viewBox="0 0 1024 1024" version="1.1" xmlns="http://www.w3.org/2000/svg"><path d="M85.312 85.312h256v85.376h341.312V85.376h256v256h-85.312v341.312h85.312v256h-256v-85.312H341.312v85.312h-256v-256h85.312V341.376H85.312v-256z m170.688 256v341.376h85.312V768h341.312v-85.312H768V341.376h-85.376V256H341.312v85.312H256z m0-170.624H170.624V256H256V170.688zM853.312 256V170.688H768V256h85.312zM768 768v85.376h85.312V768H768z m-512 85.376V768H170.624v85.376H256z" /></svg>