<?xml version="1.0" standalone="no"?><!DOCTYPE svg PUBLIC "-//W3C//DTD SVG 1.1//EN" "http://www.w3.org/Graphics/SVG/1.1/DTD/svg11.dtd"><svg class="icon" width="200px" height="200.00px" viewBox="0 0 1024 1024" version="1.1" xmlns="http://www.w3.org/2000/svg"><path d="M170.688 128a42.688 42.688 0 1 0 0 85.312 42.688 42.688 0 0 0 0-85.312z m-128 42.688A128 128 0 0 1 291.392 128h441.216A128 128 0 1 1 896 291.392v441.216A128 128 0 1 1 732.608 896H291.392A128 128 0 1 1 128 732.608V291.392A128 128 0 0 1 42.688 170.688z m170.688 120.704v441.216c36.352 12.864 65.152 41.728 78.08 78.08h441.152c12.864-36.416 41.728-65.216 78.08-78.08V291.392a128.32 128.32 0 0 1-78.08-78.08H291.392a128.384 128.384 0 0 1-78.08 78.08z m640-163.392a42.688 42.688 0 1 0 0 85.312 42.688 42.688 0 0 0 0-85.312zM170.688 810.688a42.688 42.688 0 1 0 0 85.312 42.688 42.688 0 0 0 0-85.312z m682.688 0a42.688 42.688 0 1 0 0 85.312 42.688 42.688 0 0 0 0-85.312z" /></svg>