<?xml version="1.0" standalone="no"?><!DOCTYPE svg PUBLIC "-//W3C//DTD SVG 1.1//EN" "http://www.w3.org/Graphics/SVG/1.1/DTD/svg11.dtd"><svg class="icon" width="200px" height="200.00px" viewBox="0 0 1024 1024" version="1.1" xmlns="http://www.w3.org/2000/svg"><path d="M277.312 85.312V192h-192v85.312h318.272a639.232 639.232 0 0 1-88.96 156.416 640.64 640.64 0 0 1-62.464-98.048l-19.584-37.888-75.84 39.104 19.584 37.888c22.72 44.16 49.92 85.568 80.832 123.776a642.88 642.88 0 0 1-129.216 98.56l-36.928 21.312 42.752 73.856 36.928-21.376a728.32 728.32 0 0 0 143.936-109.248c43.136 42.112 91.52 78.912 144 109.312l36.928 21.312 42.752-73.856-36.992-21.376A642.496 642.496 0 0 1 372.16 498.56a724.032 724.032 0 0 0 122.304-221.248h60.16V192h-192V85.312H277.312zM704 391.04l-248.832 525.312 77.12 36.48 47.104-99.456h249.152l47.168 99.52 77.12-36.48L704 390.912zM788.16 768h-168.32L704 590.336 788.16 768z" /></svg>