<?xml version="1.0" standalone="no"?><!DOCTYPE svg PUBLIC "-//W3C//DTD SVG 1.1//EN" "http://www.w3.org/Graphics/SVG/1.1/DTD/svg11.dtd"><svg class="icon" width="200px" height="200.00px" viewBox="0 0 1024 1024" version="1.1" xmlns="http://www.w3.org/2000/svg"><path d="M85.312 213.312a128 128 0 0 1 128-128h85.312a128 128 0 0 1 128 128v256H341.312V362.688H170.624v106.624H85.312v-256z m85.312 64h170.688v-64a42.688 42.688 0 0 0-42.688-42.624H213.312a42.688 42.688 0 0 0-42.688 42.624v64z m341.376-128h256a128 128 0 0 1 128 128V384h-85.376V277.312A42.688 42.688 0 0 0 768 234.688H512V149.312z m256 341.376v64h170.624V640h-45.312a340.288 340.288 0 0 1-93.44 194.688c29.696 12.032 62.144 18.624 96.128 18.624h42.624v85.376H896c-62.208 0-120.512-16.64-170.688-45.696a339.776 339.776 0 0 1-170.688 45.696H512v-85.376h42.624a255.36 255.36 0 0 0 96.064-18.56 342.08 342.08 0 0 1-63.168-91.136l-18.304-38.528 77.056-36.608 18.304 38.528c14.72 30.976 35.456 58.56 60.736 81.152A255.552 255.552 0 0 0 807.04 640H512V554.688h170.624v-64H768z m-512 64v256c0 23.552 19.072 42.624 42.624 42.624h106.688v85.376H298.624a128 128 0 0 1-128-128v-256H256z" /></svg>