<?xml version="1.0" standalone="no"?><!DOCTYPE svg PUBLIC "-//W3C//DTD SVG 1.1//EN" "http://www.w3.org/Graphics/SVG/1.1/DTD/svg11.dtd"><svg class="icon" width="200px" height="200.00px" viewBox="0 0 1024 1024" version="1.1" xmlns="http://www.w3.org/2000/svg"><path d="M512 128a85.312 85.312 0 1 0 0 170.688A85.312 85.312 0 0 0 512 128z m-42.624 250.624a170.752 170.752 0 1 1 85.312 0v90.688h170.688a128 128 0 0 1 128 128v48.064a170.752 170.752 0 1 1-85.376 0v-48a42.688 42.688 0 0 0-42.624-42.688H298.688A42.688 42.688 0 0 0 256 597.312v48.064a170.752 170.752 0 1 1-85.312 0v-48a128 128 0 0 1 128-128h170.688V378.56z m341.44 346.688h-0.256a85.312 85.312 0 1 0 0.256 0z m-597.44 0a85.312 85.312 0 1 0 0 170.688 85.312 85.312 0 0 0 0-170.688z" /></svg>