<?xml version="1.0" standalone="no"?><!DOCTYPE svg PUBLIC "-//W3C//DTD SVG 1.1//EN" "http://www.w3.org/Graphics/SVG/1.1/DTD/svg11.dtd"><svg class="icon" width="200px" height="200.00px" viewBox="0 0 1024 1024" version="1.1" xmlns="http://www.w3.org/2000/svg"><path d="M645.376 170.688a170.752 170.752 0 1 1 0 85.312h-48a42.688 42.688 0 0 0-42.688 42.688v426.624c0 23.616 19.072 42.688 42.688 42.688h48a170.752 170.752 0 1 1 0 85.312h-48a128 128 0 0 1-128-128V554.688H378.624a170.752 170.752 0 1 1 0-85.376h90.752V298.688a128 128 0 0 1 128-128h48zM810.688 128a85.312 85.312 0 1 0 0 170.688 85.312 85.312 0 0 0 0-170.688zM213.376 426.688a85.312 85.312 0 1 0 0 170.624 85.312 85.312 0 0 0 0-170.624z m597.312 298.624a85.312 85.312 0 1 0 0 170.688 85.312 85.312 0 0 0 0-170.688z" /></svg>