<?xml version="1.0" standalone="no"?><!DOCTYPE svg PUBLIC "-//W3C//DTD SVG 1.1//EN" "http://www.w3.org/Graphics/SVG/1.1/DTD/svg11.dtd"><svg class="icon" width="200px" height="200.00px" viewBox="0 0 1024 1024" version="1.1" xmlns="http://www.w3.org/2000/svg"><path d="M981.376 192a149.312 149.312 0 0 1-292.48 42.688h-91.52a42.688 42.688 0 0 0-42.688 42.624v469.376c0 42.88 17.408 42.752 39.488 42.688h94.72a149.376 149.376 0 1 1 0 85.312h-91.52a128 128 0 0 1-128-128v-192H335.168a149.376 149.376 0 1 1 0-85.376h134.208v-192a128 128 0 0 1 128-128h91.52a149.376 149.376 0 0 1 292.48 42.688z" /></svg>