<?xml version="1.0" standalone="no"?><!DOCTYPE svg PUBLIC "-//W3C//DTD SVG 1.1//EN" "http://www.w3.org/Graphics/SVG/1.1/DTD/svg11.dtd"><svg class="icon" width="200px" height="200.00px" viewBox="0 0 1024 1024" version="1.1" xmlns="http://www.w3.org/2000/svg"><path d="M832 981.312a149.312 149.312 0 0 1-42.624-292.48v-91.52a42.688 42.688 0 0 0-42.688-42.624H277.376a42.688 42.688 0 0 0-42.688 42.624v91.52a149.376 149.376 0 1 1-85.312 0v-91.52a128 128 0 0 1 128-128h192V335.168a149.376 149.376 0 1 1 85.312 0v134.144h192a128 128 0 0 1 128 128v91.52a149.376 149.376 0 0 1-42.688 292.48z" /></svg>