<?xml version="1.0" standalone="no"?><!DOCTYPE svg PUBLIC "-//W3C//DTD SVG 1.1//EN" "http://www.w3.org/Graphics/SVG/1.1/DTD/svg11.dtd"><svg class="icon" width="200px" height="200.00px" viewBox="0 0 1024 1024" version="1.1" xmlns="http://www.w3.org/2000/svg"><path d="M877.12 577.088a109.76 109.76 0 0 1 50.56 21.248 109.12 109.12 0 0 1-17.344 184.32l-1.152 0.512-159.552 68.096-264.32 66.048H0V608h174.336l87.552-87.552a138.688 138.688 0 0 1 53.376-33.088 228.608 228.608 0 0 1 324.8-318.272 228.608 228.608 0 0 1 307.648 337.472l-70.592 70.528zM149.312 693.312h-64V832h64v-138.688zM234.688 832h240l247.68-61.888 150.72-64.32a23.68 23.68 0 0 0-7.04-44.032 23.744 23.744 0 0 0-10.752 0.448l-0.896 0.192-273.536 62.912H426.688V640H560a37.504 37.504 0 0 0 37.312-37.312 37.312 37.312 0 0 0-37.312-37.376H359.872a53.312 53.312 0 0 0-37.76 15.552l-87.424 87.488V832z" /></svg>