<?xml version="1.0" standalone="no"?><!DOCTYPE svg PUBLIC "-//W3C//DTD SVG 1.1//EN" "http://www.w3.org/Graphics/SVG/1.1/DTD/svg11.dtd"><svg class="icon" width="200px" height="200.00px" viewBox="0 0 1024 1024" version="1.1" xmlns="http://www.w3.org/2000/svg"><path d="M378.112 374.464a58.88 58.88 0 0 0-41.664 17.152L243.2 484.864v176.448h256.64l262.272-65.536 159.616-68.096a27.52 27.52 0 0 0-20.48-50.688l-0.896 0.192-288.96 66.496H451.2V458.24h138.496a41.92 41.92 0 0 0 0-83.84H378.112z m337.856 57.6l163.648-37.632a112.96 112.96 0 0 1 79.36 210.048l-1.152 0.576-168.448 71.872-279.04 69.76H0V424.512h182.912l93.248-93.312a144.192 144.192 0 0 1 102.08-42.048h211.392a127.232 127.232 0 0 1 126.336 142.912z m-558.08 77.76H85.312v151.488h72.576V509.824z" /></svg>