<?xml version="1.0" standalone="no"?><!DOCTYPE svg PUBLIC "-//W3C//DTD SVG 1.1//EN" "http://www.w3.org/Graphics/SVG/1.1/DTD/svg11.dtd"><svg class="icon" width="200px" height="200.00px" viewBox="0 0 1024 1024" version="1.1" xmlns="http://www.w3.org/2000/svg"><path d="M618.688 128a106.688 106.688 0 1 0 0 213.312 106.688 106.688 0 0 0 0-213.312z m-192 106.688A192 192 0 0 1 704 62.656a192 192 0 1 1 0 344.064 192 192 0 0 1-277.312-172.032z m352 106.112a106.688 106.688 0 1 0 0-212.288c20.16 30.4 32 66.88 32 106.176 0 39.232-11.84 75.712-32 106.112zM359.872 565.312a53.312 53.312 0 0 0-37.76 15.552l-87.424 87.488V832h240l247.68-61.888 150.72-64.32a23.68 23.68 0 0 0-7.04-44.032 23.744 23.744 0 0 0-10.752 0.448l-0.896 0.192-273.536 62.912H426.688V640H560a37.312 37.312 0 0 0 0-74.688H359.872z m322.24 49.152l151.552-34.816a109.12 109.12 0 0 1 76.672 202.944l-1.152 0.576-159.552 68.096-264.32 66.048H0V608h174.336l87.552-87.552A138.688 138.688 0 0 1 360.064 480h-0.064H560a122.688 122.688 0 0 1 122.112 134.464z m-532.8 78.848h-64V832h64v-138.688z" /></svg>