<?xml version="1.0" standalone="no"?><!DOCTYPE svg PUBLIC "-//W3C//DTD SVG 1.1//EN" "http://www.w3.org/Graphics/SVG/1.1/DTD/svg11.dtd"><svg class="icon" width="200px" height="200.00px" viewBox="0 0 1024 1024" version="1.1" xmlns="http://www.w3.org/2000/svg"><path d="M725.312 24.32c-12.288 12.608-24.832 24.96-36.8 37.824a755.52 755.52 0 0 0-62.144 77.056c-32.384 46.208-71.68 114.432-71.68 180.8A170.688 170.688 0 1 0 896 320c0-66.304-39.296-134.592-71.68-180.8A755.2 755.2 0 0 0 762.048 62.08c-11.904-12.864-24.512-25.216-36.8-37.76z m-365.44 540.992a53.312 53.312 0 0 0-37.76 15.552l-87.424 87.488V832h240l247.68-61.888 150.72-64.32a23.68 23.68 0 0 0-7.04-44.032 23.744 23.744 0 0 0-10.752 0.384l-0.896 0.256-273.536 62.912h-154.24V640H560a37.312 37.312 0 0 0 0-74.688H359.872z m322.24 49.152l151.552-34.88a109.12 109.12 0 0 1 76.672 203.008l-1.152 0.576-159.552 68.032-264.32 66.112H0V608h174.336l87.552-87.552A138.688 138.688 0 0 1 360.064 480h-0.064H560A122.688 122.688 0 0 1 682.112 614.4z m-532.8 78.848h-64V832h64v-138.688z" /></svg>