<?xml version="1.0" standalone="no"?><!DOCTYPE svg PUBLIC "-//W3C//DTD SVG 1.1//EN" "http://www.w3.org/Graphics/SVG/1.1/DTD/svg11.dtd"><svg class="icon" width="200px" height="200.00px" viewBox="0 0 1024 1024" version="1.1" xmlns="http://www.w3.org/2000/svg"><path d="M917.312 85.312H320v334.656c13.184-2.688 26.624-3.968 40.128-3.968H560a186.688 186.688 0 0 1 174.656 120.704l83.84-19.2a173.12 173.12 0 0 1 98.816 3.712v-435.84z m-384 85.376H704v170.624l-85.312-64-85.376 64V170.688zM833.664 579.648l-151.552 34.816a122.944 122.944 0 0 0-35.392-98.56A122.688 122.688 0 0 0 560 480H360.064a138.688 138.688 0 0 0-98.176 40.448L174.336 608H0v309.312h485.248l264.384-66.048 159.552-68.096 1.152-0.576a108.992 108.992 0 0 0-76.672-202.944z m-494.208-10.24a53.312 53.312 0 0 1 20.48-4.096H560a37.312 37.312 0 1 1 0 74.688H426.688v85.312h154.176l273.536-62.912 0.896-0.192a23.744 23.744 0 0 1 17.792 43.584l-150.72 64.32-247.68 61.888h-240v-163.648l87.424-87.488a53.312 53.312 0 0 1 17.344-11.52z m-254.08 123.904h64V832h-64v-138.688z" /></svg>