<?xml version="1.0" standalone="no"?><!DOCTYPE svg PUBLIC "-//W3C//DTD SVG 1.1//EN" "http://www.w3.org/Graphics/SVG/1.1/DTD/svg11.dtd"><svg class="icon" width="200px" height="200.00px" viewBox="0 0 1024 1024" version="1.1" xmlns="http://www.w3.org/2000/svg"><path d="M725.312 149.888c8.96 10.944 19.072 23.936 29.056 38.272 31.616 45.056 56.32 94.208 56.32 131.84A85.312 85.312 0 0 1 640 320c0-37.696 24.704-86.784 56.32-131.84 9.984-14.336 20.032-27.328 28.992-38.272z m0-125.504l-30.464 31.104h-0.064l-0.128 0.192-0.384 0.384-1.28 1.28-4.48 4.8a755.52 755.52 0 0 0-62.144 77.056c-32.384 46.208-71.68 114.496-71.68 180.8A170.688 170.688 0 1 0 896 320c0-66.304-39.296-134.528-71.68-180.8A755.2 755.2 0 0 0 757.568 57.344l-1.28-1.28-0.32-0.384-0.128-0.128-0.064-0.064-30.528-31.104z m-365.44 540.928a53.312 53.312 0 0 0-37.76 15.552l-87.424 87.488V832h240l247.68-61.888 150.72-64.32a23.68 23.68 0 0 0-17.792-43.584l-0.896 0.192-273.536 62.912H426.688V640H560a37.312 37.312 0 0 0 0-74.688H359.872z m322.24 49.152l151.552-34.816a109.12 109.12 0 0 1 76.672 202.944l-1.152 0.576-159.552 68.096-264.32 66.048H0V608h174.336l87.552-87.552A138.688 138.688 0 0 1 360.064 480h-0.064H560a122.688 122.688 0 0 1 122.112 134.464z m-532.8 78.848h-64V832h64v-138.688z" /></svg>