<?xml version="1.0" standalone="no"?><!DOCTYPE svg PUBLIC "-//W3C//DTD SVG 1.1//EN" "http://www.w3.org/Graphics/SVG/1.1/DTD/svg11.dtd"><svg class="icon" width="200px" height="200.00px" viewBox="0 0 1024 1024" version="1.1" xmlns="http://www.w3.org/2000/svg"><path d="M642.368 85.12l294.848 1.664 1.664 294.848-85.312 0.448-0.896-150.4-214.4 214.4-60.416-60.288 214.528-214.528-150.528-0.832 0.512-85.312z m-557.056 0.192H512v85.376H170.624v256H85.312V85.312z m0 426.688H256v85.312H170.624v85.376H85.312V512z m256 0H512v170.688H426.624V597.312H341.312V512z m597.312 0v426.688H597.312v-85.376h256V512h85.312z m-768 256v85.312H256v85.376H85.312V768h85.312zM512 768v170.688H341.312v-85.376h85.312V768H512z" /></svg>