<?xml version="1.0" standalone="no"?><!DOCTYPE svg PUBLIC "-//W3C//DTD SVG 1.1//EN" "http://www.w3.org/Graphics/SVG/1.1/DTD/svg11.dtd"><svg class="icon" width="200px" height="200.00px" viewBox="0 0 1024 1024" version="1.1" xmlns="http://www.w3.org/2000/svg"><path d="M490.624 170.688a149.312 149.312 0 1 0 0 298.624 149.312 149.312 0 0 0 0-298.624zM256 320a234.688 234.688 0 1 1 469.312 0A234.688 234.688 0 0 1 256 320z m554.624 234.688v170.688h170.688v85.312h-170.688v170.688h-85.312v-170.688H554.624v-85.312h170.688V554.688h85.312z m-469.312 128a170.688 170.688 0 0 0-170.688 170.688h343.552v85.312H85.312v-85.312a256 256 0 0 1 256-256H512v85.312H341.312z" /></svg>