<?xml version="1.0" standalone="no"?><!DOCTYPE svg PUBLIC "-//W3C//DTD SVG 1.1//EN" "http://www.w3.org/Graphics/SVG/1.1/DTD/svg11.dtd"><svg class="icon" width="200px" height="200.00px" viewBox="0 0 1024 1024" version="1.1" xmlns="http://www.w3.org/2000/svg"><path d="M490.624 85.312a234.688 234.688 0 1 0 0 469.376 234.688 234.688 0 0 0 0-469.376zM805.184 618.432l-105.792 107.008h303.36v85.312h-303.36l105.792 107.008-60.672 59.968-207.296-209.664 207.36-209.664 60.608 60.032zM549.376 597.312A276.16 276.16 0 0 0 490.624 768c0 64.384 21.952 123.584 58.752 170.688H85.312v-85.376a256 256 0 0 1 256-256h208z" /></svg>