<?xml version="1.0" standalone="no"?><!DOCTYPE svg PUBLIC "-//W3C//DTD SVG 1.1//EN" "http://www.w3.org/Graphics/SVG/1.1/DTD/svg11.dtd"><svg class="icon" width="200px" height="200.00px" viewBox="0 0 1024 1024" version="1.1" xmlns="http://www.w3.org/2000/svg"><path d="M490.624 170.688a149.312 149.312 0 1 0 0 298.624 149.312 149.312 0 0 0 0-298.624zM256 320a234.688 234.688 0 1 1 469.312 0A234.688 234.688 0 0 1 256 320z m553.92 233.92l25.728 34.048a298.688 298.688 0 0 1-0.128 360.128l-25.728 34.048-68.096-51.52 25.728-33.984a213.312 213.312 0 0 0 0.128-257.28l-25.728-34.048 68.096-51.392z m-468.608 128.768a170.688 170.688 0 0 0-170.688 170.688H556.8v85.312H85.312v-85.312a256 256 0 0 1 256-256h213.312v85.312H341.312z m349.44-38.784l25.728 34.048a149.312 149.312 0 0 1 0 180.032l-25.792 34.048-68.032-51.456 25.728-34.048a64 64 0 0 0 0-77.184l-25.728-34.048 68.096-51.392z" /></svg>