<?xml version="1.0" standalone="no"?><!DOCTYPE svg PUBLIC "-//W3C//DTD SVG 1.1//EN" "http://www.w3.org/Graphics/SVG/1.1/DTD/svg11.dtd"><svg class="icon" width="200px" height="200.00px" viewBox="0 0 1024 1024" version="1.1" xmlns="http://www.w3.org/2000/svg"><path d="M490.624 170.688a149.312 149.312 0 1 0 0 298.624 149.312 149.312 0 0 0 0-298.624zM256 320a234.688 234.688 0 1 1 469.312 0A234.688 234.688 0 0 1 256 320z m85.312 362.688a170.688 170.688 0 0 0-170.688 170.624h300.8v85.376H85.312v-85.376a256 256 0 0 1 256-256h128v85.376h-128zM693.184 810.688v-85.376h106.688v85.376h-106.688zM746.624 960c188.544 0 259.84-192 259.84-192s-71.424-192-259.84-192c-188.416 0-259.84 192-259.84 192s71.36 192 259.84 192z m-0.064-85.312c-111.616 0-165.12-106.688-165.12-106.688s53.312-106.688 165.12-106.688S911.68 768 911.68 768s-53.504 106.688-165.12 106.688z" /></svg>