<?xml version="1.0" standalone="no"?><!DOCTYPE svg PUBLIC "-//W3C//DTD SVG 1.1//EN" "http://www.w3.org/Graphics/SVG/1.1/DTD/svg11.dtd"><svg class="icon" width="200px" height="200.00px" viewBox="0 0 1024 1024" version="1.1" xmlns="http://www.w3.org/2000/svg"><path d="M85.312 85.312h853.312v853.376H85.312V85.312z m746.688 768h21.312V170.752H170.624v682.624H192A213.312 213.312 0 0 1 405.312 640h213.312A213.312 213.312 0 0 1 832 853.376zM512 298.752A106.688 106.688 0 1 0 512 512a106.688 106.688 0 0 0 0-213.312zM320 405.376a192 192 0 1 1 384 0 192 192 0 0 1-384 0z m85.312 320a128 128 0 0 0-128 128h469.312a128 128 0 0 0-128-128H405.312z" /></svg>