<?xml version="1.0" standalone="no"?><!DOCTYPE svg PUBLIC "-//W3C//DTD SVG 1.1//EN" "http://www.w3.org/Graphics/SVG/1.1/DTD/svg11.dtd"><svg class="icon" width="200px" height="200.00px" viewBox="0 0 1024 1024" version="1.1" xmlns="http://www.w3.org/2000/svg"><path d="M768 213.312c39.36 0 80.768 9.92 114.176 32.192 33.792 22.464 56.512 56.32 56.512 95.808 0 39.488-22.72 73.344-56.512 95.872-33.408 22.272-74.88 32.128-114.176 32.128-39.296 0-80.768-9.856-114.176-32.128-33.728-22.528-56.448-56.384-56.448-95.872s22.72-73.344 56.448-95.808c33.408-22.272 74.88-32.192 114.176-32.192zM256 462.08a128 128 0 1 0-85.312 0V512H85.376v85.376h85.312v67.648L67.648 768l60.352 60.352 85.376-85.312 85.44 85.312 60.288-60.416-103.04-102.912V597.312h85.312V512H256v-49.92z m149.376-163.328h128V384h-128V298.688z m362.624 256c39.36 0 80.768 9.856 114.176 32.128 33.792 22.528 56.512 56.32 56.512 95.872 0 39.424-22.72 73.344-56.512 95.808-33.408 22.272-74.88 32.192-114.176 32.192-39.296 0-80.768-9.92-114.176-32.192-33.728-22.464-56.448-56.32-56.448-95.808 0-39.488 22.72-73.344 56.448-95.872 33.408-22.272 74.88-32.128 114.176-32.128zM405.376 640h128v85.312h-128V640z" /></svg>