<?xml version="1.0" standalone="no"?><!DOCTYPE svg PUBLIC "-//W3C//DTD SVG 1.1//EN" "http://www.w3.org/Graphics/SVG/1.1/DTD/svg11.dtd"><svg class="icon" width="200px" height="200.00px" viewBox="0 0 1024 1024" version="1.1" xmlns="http://www.w3.org/2000/svg"><path d="M490.624 170.688a149.312 149.312 0 1 0 0 298.624 149.312 149.312 0 0 0 0-298.624zM256 320a234.688 234.688 0 1 1 469.312 0A234.688 234.688 0 0 1 256 320z m549.184 298.368l-105.792 107.008h303.36v85.376h-303.36l105.792 107.008-60.672 59.968-207.296-209.664 207.296-209.664 60.672 60.032z m-463.872 64.32a170.688 170.688 0 0 0-170.688 170.624h343.552v85.376H85.312v-85.376a256 256 0 0 1 256-256H512v85.376H341.312z" /></svg>