<?xml version="1.0" standalone="no"?><!DOCTYPE svg PUBLIC "-//W3C//DTD SVG 1.1//EN" "http://www.w3.org/Graphics/SVG/1.1/DTD/svg11.dtd"><svg class="icon" width="200px" height="200.00px" viewBox="0 0 1024 1024" version="1.1" xmlns="http://www.w3.org/2000/svg"><path d="M490.624 170.688a149.312 149.312 0 1 0 0 298.624 149.312 149.312 0 0 0 0-298.624zM256 320a234.688 234.688 0 1 1 469.312 0A234.688 234.688 0 0 1 256 320z m512 277.312a53.312 53.312 0 0 0-53.376 53.376v32H960V960h-384v-277.312h53.376v-32a138.688 138.688 0 0 1 236.416-98.368L896 582.4l-60.16 60.544-30.272-30.08A53.056 53.056 0 0 0 768 597.248zM661.248 768v106.688h213.312V768h-213.312z m-319.936-85.312a170.688 170.688 0 0 0-170.688 170.624H492.8v85.376H85.312v-85.376a256 256 0 0 1 256-256h149.312v85.376H341.312z" /></svg>