<?xml version="1.0" standalone="no"?><!DOCTYPE svg PUBLIC "-//W3C//DTD SVG 1.1//EN" "http://www.w3.org/Graphics/SVG/1.1/DTD/svg11.dtd"><svg class="icon" width="200px" height="200.00px" viewBox="0 0 1024 1024" version="1.1" xmlns="http://www.w3.org/2000/svg"><path d="M384 213.312a128 128 0 0 0 0 256v85.376A213.312 213.312 0 0 0 170.624 768v170.688H85.312V768a298.624 298.624 0 0 1 160-264.576A213.312 213.312 0 0 1 384 128h42.624v85.312H384z m256 0a128 128 0 1 0 0 256 128 128 0 0 0 0-256z m-213.376 128a213.312 213.312 0 1 1 426.688 0 213.312 213.312 0 0 1-426.688 0z m-128 469.376A213.312 213.312 0 0 1 512 597.312h128v85.376H512a128 128 0 0 0-128 128v42.624h256v85.376H298.624v-128z m464.192-193.536l90.496 90.496 90.496-90.496 60.352 60.352L913.664 768l90.496 90.496-60.352 60.352-90.496-90.496-90.496 90.496-60.352-60.352L792.96 768l-90.496-90.496 60.352-60.352z" /></svg>