<?xml version="1.0" standalone="no"?><!DOCTYPE svg PUBLIC "-//W3C//DTD SVG 1.1//EN" "http://www.w3.org/Graphics/SVG/1.1/DTD/svg11.dtd"><svg class="icon" width="200px" height="200.00px" viewBox="0 0 1024 1024" version="1.1" xmlns="http://www.w3.org/2000/svg"><path d="M512 128a384 384 0 0 0-308.288 612.928 213.44 213.44 0 0 1 201.6-143.616h213.376c93.44 0 172.8 60.032 201.664 143.616A384 384 0 0 0 512 128z m234.688 688v-5.376a128 128 0 0 0-128-128H405.376a128 128 0 0 0-128 128v5.312A382.144 382.144 0 0 0 512 896a382.144 382.144 0 0 0 234.688-80zM42.688 512a469.312 469.312 0 1 1 938.688 0A469.312 469.312 0 0 1 42.688 512zM512 256a106.688 106.688 0 1 0 0 213.312A106.688 106.688 0 0 0 512 256zM320 362.688a192 192 0 1 1 384 0 192 192 0 0 1-384 0z" /></svg>