<?xml version="1.0" standalone="no"?><!DOCTYPE svg PUBLIC "-//W3C//DTD SVG 1.1//EN" "http://www.w3.org/Graphics/SVG/1.1/DTD/svg11.dtd"><svg class="icon" width="200px" height="200.00px" viewBox="0 0 1024 1024" version="1.1" xmlns="http://www.w3.org/2000/svg"><path d="M384 213.312a128 128 0 1 0 0 256v85.376A213.312 213.312 0 0 0 170.624 768v170.688H85.312V768a298.624 298.624 0 0 1 160-264.576A213.312 213.312 0 0 1 384 128h42.624v85.312H384zM426.624 341.312a213.312 213.312 0 1 1 426.688 0 213.312 213.312 0 0 1-426.688 0zM692.224 597.312A233.984 233.984 0 0 0 618.624 768c0 67.2 28.288 127.872 73.6 170.688h-393.6v-128A213.312 213.312 0 0 1 512 597.312h180.224zM1024 810.688v-85.376h-128v-128h-85.312v128h-128v85.376h128v128H896v-128h128z" /></svg>