<?xml version="1.0" standalone="no"?><!DOCTYPE svg PUBLIC "-//W3C//DTD SVG 1.1//EN" "http://www.w3.org/Graphics/SVG/1.1/DTD/svg11.dtd"><svg class="icon" width="200px" height="200.00px" viewBox="0 0 1024 1024" version="1.1" xmlns="http://www.w3.org/2000/svg"><path d="M490.624 170.688a149.312 149.312 0 1 0 0 298.624 149.312 149.312 0 0 0 0-298.624zM256 320a234.688 234.688 0 1 1 469.312 0A234.688 234.688 0 0 1 256 320z m373.312 256H992v439.232l-181.248-111.616-181.44 111.552V576z m85.312 85.312v201.216l96.192-59.136 95.808 59.008v-201.088h-192z m-373.312 21.376a170.688 170.688 0 0 0-170.688 170.624H544v85.376H85.312v-85.376a256 256 0 0 1 256-256H544v85.376H341.312z" /></svg>