<?xml version="1.0" standalone="no"?><!DOCTYPE svg PUBLIC "-//W3C//DTD SVG 1.1//EN" "http://www.w3.org/Graphics/SVG/1.1/DTD/svg11.dtd"><svg class="icon" width="200px" height="200.00px" viewBox="0 0 1024 1024" version="1.1" xmlns="http://www.w3.org/2000/svg"><path d="M490.624 85.312a234.688 234.688 0 1 0 0 469.376 234.688 234.688 0 0 0 0-469.376zM1006.464 768s-71.296 192-259.84 192c-188.48 0-259.84-192-259.84-192s71.424-192 259.84-192c188.48 0 259.84 192 259.84 192z m-206.592-42.688h-106.624v85.376h106.624v-85.376zM406.848 797.76L395.776 768l11.072-29.824v-0.064l0.064-0.192 0.192-0.384 0.384-0.96a203.84 203.84 0 0 1 4.736-11.328 453.504 453.504 0 0 1 86.656-127.936H341.248a256 256 0 0 0-256 256v85.376h413.44a453.12 453.12 0 0 1-86.656-128 295.808 295.808 0 0 1-4.672-11.328l-0.32-0.96-0.192-0.384v-0.128l-0.064-0.128z" /></svg>