<?xml version="1.0" standalone="no"?><!DOCTYPE svg PUBLIC "-//W3C//DTD SVG 1.1//EN" "http://www.w3.org/Graphics/SVG/1.1/DTD/svg11.dtd"><svg class="icon" width="200px" height="200.00px" viewBox="0 0 1024 1024" version="1.1" xmlns="http://www.w3.org/2000/svg"><path d="M490.624 85.312a234.688 234.688 0 1 0 0 469.376 234.688 234.688 0 0 0 0-469.376zM554.624 757.312a202.688 202.688 0 1 1 372.928 110.016l71.424 71.296-60.288 60.352-71.488-71.36a202.688 202.688 0 0 1-312.576-170.304zM757.312 640a117.312 117.312 0 1 0 0 234.688 117.312 117.312 0 0 0 0-234.688zM544 597.312a265.472 265.472 0 0 0-53.376 160c0 70.016 27.008 133.76 71.168 181.376H85.312v-85.376a256 256 0 0 1 256-256h202.624z" /></svg>