<?xml version="1.0" standalone="no"?><!DOCTYPE svg PUBLIC "-//W3C//DTD SVG 1.1//EN" "http://www.w3.org/Graphics/SVG/1.1/DTD/svg11.dtd"><svg class="icon" width="200px" height="200.00px" viewBox="0 0 1024 1024" version="1.1" xmlns="http://www.w3.org/2000/svg"><path d="M490.624 85.312a234.688 234.688 0 1 0 0 469.376 234.688 234.688 0 0 0 0-469.376zM341.312 320A149.312 149.312 0 1 1 640 320a149.312 149.312 0 0 1-298.688 0zM170.624 853.312a170.688 170.688 0 0 1 170.688-170.624h128V597.312h-128a256 256 0 0 0-256 256v85.376h386.112v-85.376h-300.8zM1006.464 768s-71.296 192-259.84 192a249.152 249.152 0 0 1-107.84-23.808l-41.472 41.472-60.352-60.352 30.656-30.592C510.72 832.512 486.784 768 486.784 768s71.424-192 259.84-192c41.472 0 77.248 9.28 107.904 23.808L896 558.336l60.352 60.352-30.72 30.656A354.56 354.56 0 0 1 1006.528 768z m-140.928-58.56l-160.128 160.128c12.736 3.2 26.432 5.12 41.152 5.12 111.616 0 165.12-106.688 165.12-106.688s-15.104-30.272-46.08-58.56z m-77.632-43.008c-12.8-3.2-26.56-5.12-41.344-5.12-111.808 0-165.12 106.688-165.12 106.688s15.232 30.272 46.272 58.56l160.192-160.128z" /></svg>