<?xml version="1.0" standalone="no"?><!DOCTYPE svg PUBLIC "-//W3C//DTD SVG 1.1//EN" "http://www.w3.org/Graphics/SVG/1.1/DTD/svg11.dtd"><svg class="icon" width="200px" height="200.00px" viewBox="0 0 1024 1024" version="1.1" xmlns="http://www.w3.org/2000/svg"><path d="M85.504 25.152L85.312 25.024l-60.288 60.288L163.008 223.36a213.312 213.312 0 0 0 274.944 274.944L538.624 599.04A215.424 215.424 0 0 0 512 597.312H213.312A213.312 213.312 0 0 0 0 810.688V896h725.312v-85.312c0-9.024-0.512-17.92-1.6-26.688l214.976 215.04 60.16-60.16L85.312 25.344l0.192-0.192zM678.912 498.304l-3.968-4.032 20.48-35.712a63.936 63.936 0 0 0 0.064-63.744l-21.248-36.992 74.048-42.496 21.248 36.992a149.376 149.376 0 0 1-0.064 148.8l-21.312 36.992-69.248-39.808zM560.128 379.52L281.856 101.12A213.312 213.312 0 0 1 560.192 379.52zM899.008 277.952l-21.248-36.992-73.984 42.496 21.248 36.992a213.312 213.312 0 0 1-0.128 212.608l-21.248 36.928 73.984 42.56 21.248-36.992a298.688 298.688 0 0 0 0.128-297.6z" /></svg>