<?xml version="1.0" standalone="no"?><!DOCTYPE svg PUBLIC "-//W3C//DTD SVG 1.1//EN" "http://www.w3.org/Graphics/SVG/1.1/DTD/svg11.dtd"><svg class="icon" width="200px" height="200.00px" viewBox="0 0 1024 1024" version="1.1" xmlns="http://www.w3.org/2000/svg"><path d="M490.624 85.312a234.688 234.688 0 1 0 0 469.376 234.688 234.688 0 0 0 0-469.376zM768 597.312c-39.68 0-64 28.032-64 53.312v42.624H618.624v-42.624C618.624 569.92 689.92 512 768 512c78.08 0 149.312 57.92 149.312 138.624 0 39.04-17.344 73.6-43.776 98.112l-62.912 59.328v29.12h-85.312v-65.92l90.112-85.056a48.32 48.32 0 0 0 16.576-35.584c0-25.28-24.32-53.312-64-53.312zM725.248 895.808h85.504v85.504h-85.504v-85.504zM549.376 597.312A276.16 276.16 0 0 0 490.624 768c0 64.384 21.952 123.584 58.752 170.688H85.312v-85.376a256 256 0 0 1 256-256h208z" /></svg>