<?xml version="1.0" standalone="no"?><!DOCTYPE svg PUBLIC "-//W3C//DTD SVG 1.1//EN" "http://www.w3.org/Graphics/SVG/1.1/DTD/svg11.dtd"><svg class="icon" width="200px" height="200.00px" viewBox="0 0 1024 1024" version="1.1" xmlns="http://www.w3.org/2000/svg"><path d="M490.624 85.312a234.688 234.688 0 1 0 0 469.376 234.688 234.688 0 0 0 0-469.376zM768 537.344l209.664 207.296-60.032 60.672-107.008-105.792v303.36h-85.312v-303.36l-107.008 105.792-59.968-60.672L768 537.28zM549.376 597.312A276.16 276.16 0 0 0 490.624 768c0 64.384 21.952 123.584 58.752 170.688H85.312v-85.376a256 256 0 0 1 256-256h208z" /></svg>