<?xml version="1.0" standalone="no"?><!DOCTYPE svg PUBLIC "-//W3C//DTD SVG 1.1//EN" "http://www.w3.org/Graphics/SVG/1.1/DTD/svg11.dtd"><svg class="icon" width="200px" height="200.00px" viewBox="0 0 1024 1024" version="1.1" xmlns="http://www.w3.org/2000/svg"><path d="M490.624 170.688a149.312 149.312 0 1 0 0 298.624 149.312 149.312 0 0 0 0-298.624zM256 320a234.688 234.688 0 1 1 469.312 0A234.688 234.688 0 0 1 256 320z m501.312 320a117.312 117.312 0 1 0 0 234.688 117.312 117.312 0 0 0 0-234.688z m-202.688 117.312a202.688 202.688 0 1 1 372.928 110.016l71.424 71.296-60.288 60.352-71.488-71.36a202.688 202.688 0 0 1-312.576-170.304z m-213.312-74.624a170.688 170.688 0 0 0-170.688 170.624H492.8v85.376H85.312v-85.376a256 256 0 0 1 256-256h149.312v85.376H341.312z" /></svg>