<?xml version="1.0" standalone="no"?><!DOCTYPE svg PUBLIC "-//W3C//DTD SVG 1.1//EN" "http://www.w3.org/Graphics/SVG/1.1/DTD/svg11.dtd"><svg class="icon" width="200px" height="200.00px" viewBox="0 0 1024 1024" version="1.1" xmlns="http://www.w3.org/2000/svg"><path d="M490.624 85.312a234.688 234.688 0 1 0 0 469.376 234.688 234.688 0 0 0 0-469.376zM533.312 768a234.688 234.688 0 1 1 469.312 0 234.688 234.688 0 0 1-469.312 0zM768 618.688a149.312 149.312 0 0 0-131.392 220.352l202.432-202.432a148.544 148.544 0 0 0-71.04-17.92z m131.392 78.272l-202.496 202.432a149.312 149.312 0 0 0 202.432-202.432zM522.88 597.312A297.28 297.28 0 0 0 469.248 768c0 63.424 19.84 122.24 53.504 170.688H85.312v-85.376a256 256 0 0 1 256-256h181.504z" /></svg>