<?xml version="1.0" standalone="no"?><!DOCTYPE svg PUBLIC "-//W3C//DTD SVG 1.1//EN" "http://www.w3.org/Graphics/SVG/1.1/DTD/svg11.dtd"><svg class="icon" width="200px" height="200.00px" viewBox="0 0 1024 1024" version="1.1" xmlns="http://www.w3.org/2000/svg"><path d="M768 298.688c-26.24 0-50.24 6.72-66.816 17.792-16.256 10.88-18.496 20.672-18.496 24.832 0 4.224 2.24 14.08 18.496 24.832 16.576 11.072 40.64 17.856 66.816 17.856 26.24 0 50.304-6.784 66.88-17.856 16.192-10.816 18.496-20.608 18.496-24.832 0-4.16-2.304-14.016-18.56-24.832-16.512-11.072-40.576-17.792-66.816-17.792z m0-85.376c39.36 0 80.768 9.92 114.176 32.192 33.792 22.464 56.512 56.32 56.512 95.808 0 39.488-22.72 73.344-56.512 95.872-33.408 22.272-74.88 32.128-114.176 32.128-39.296 0-80.768-9.856-114.176-32.128-33.728-22.528-56.448-56.384-56.448-95.872s22.72-73.344 56.448-95.808c33.408-22.272 74.88-32.192 114.176-32.192zM243.52 311.168A42.688 42.688 0 0 1 213.44 384h-0.128a42.688 42.688 0 1 1 30.208-72.832zM256 462.016a128 128 0 1 0-85.312 0V512H85.376v85.376h85.312v67.648L67.648 768l60.352 60.352 85.376-85.312 85.44 85.312 60.288-60.416-103.04-102.912V597.312h85.312V512H256v-49.92z m149.376-163.328h128V384h-128V298.688zM768 640c-26.24 0-50.24 6.784-66.816 17.792-16.256 10.88-18.496 20.672-18.496 24.896 0 4.16 2.24 14.016 18.496 24.832 16.576 11.008 40.64 17.792 66.816 17.792 26.24 0 50.304-6.784 66.88-17.792 16.192-10.88 18.496-20.672 18.496-24.832 0-4.224-2.304-14.08-18.56-24.896C818.368 646.784 794.24 640 768 640z m0-85.312c39.36 0 80.768 9.856 114.176 32.128 33.792 22.528 56.512 56.32 56.512 95.872 0 39.424-22.72 73.344-56.512 95.808-33.408 22.272-74.88 32.192-114.176 32.192-39.296 0-80.768-9.92-114.176-32.192-33.728-22.464-56.448-56.32-56.448-95.808 0-39.488 22.72-73.344 56.448-95.872 33.408-22.272 74.88-32.128 114.176-32.128zM405.376 640h128v85.312h-128V640z" /></svg>