<?xml version="1.0" standalone="no"?><!DOCTYPE svg PUBLIC "-//W3C//DTD SVG 1.1//EN" "http://www.w3.org/Graphics/SVG/1.1/DTD/svg11.dtd"><svg class="icon" width="200px" height="200.00px" viewBox="0 0 1024 1024" version="1.1" xmlns="http://www.w3.org/2000/svg"><path d="M490.624 170.688a149.312 149.312 0 1 0 0 298.624 149.312 149.312 0 0 0 0-298.624zM256 320a234.688 234.688 0 1 1 469.312 0A234.688 234.688 0 0 1 256 320z m536.64 238.72l156.8 122.944v65.088H586.56v-85.312h198.592l-45.248-35.52 52.672-67.2z m-451.328 123.968a170.688 170.688 0 0 0-170.688 170.624h332.8v85.376H85.376v-85.376a256 256 0 0 1 256-256h160v85.376h-160z m245.44 106.56h362.752v85.312h-198.656l45.312 35.52-52.672 67.2-156.8-122.944v-65.088z" /></svg>