<?xml version="1.0" standalone="no"?><!DOCTYPE svg PUBLIC "-//W3C//DTD SVG 1.1//EN" "http://www.w3.org/Graphics/SVG/1.1/DTD/svg11.dtd"><svg class="icon" width="200px" height="200.00px" viewBox="0 0 1024 1024" version="1.1" xmlns="http://www.w3.org/2000/svg"><path d="M490.624 170.688a149.312 149.312 0 1 0 0 298.624 149.312 149.312 0 0 0 0-298.624zM256 320a234.688 234.688 0 1 1 469.312 0A234.688 234.688 0 0 1 256 320z m512 298.688a149.312 149.312 0 1 0 0 298.624 149.312 149.312 0 0 0 0-298.624zM533.312 768a234.688 234.688 0 1 1 469.312 0 234.688 234.688 0 0 1-469.312 0z m-192-85.312a170.688 170.688 0 0 0-170.688 170.624h300.8v85.376H85.376v-85.376a256 256 0 0 1 256-256h128v85.376h-128z m469.312-10.624v78.272l60.352 60.352-60.352 60.288-85.312-85.312v-113.6h85.312z" /></svg>