<?xml version="1.0" standalone="no"?><!DOCTYPE svg PUBLIC "-//W3C//DTD SVG 1.1//EN" "http://www.w3.org/Graphics/SVG/1.1/DTD/svg11.dtd"><svg class="icon" width="200px" height="200.00px" viewBox="0 0 1024 1024" version="1.1" xmlns="http://www.w3.org/2000/svg"><path d="M490.624 170.688a149.312 149.312 0 1 0 0 298.624 149.312 149.312 0 0 0 0-298.624zM256 320a234.688 234.688 0 1 1 469.312 0A234.688 234.688 0 0 1 256 320z m357.632 256h308.736l88.768 177.6-243.2 270.144L524.8 753.6 613.632 576z m52.736 85.312l-39.232 78.4 140.8 156.48 140.864-156.48-39.168-78.4h-203.264z m-325.056 21.376a170.688 170.688 0 0 0-170.688 170.624h300.8v85.376H85.376v-85.376a256 256 0 0 1 256-256h128v85.376h-128z" /></svg>