<?xml version="1.0" standalone="no"?><!DOCTYPE svg PUBLIC "-//W3C//DTD SVG 1.1//EN" "http://www.w3.org/Graphics/SVG/1.1/DTD/svg11.dtd"><svg class="icon" width="200px" height="200.00px" viewBox="0 0 1024 1024" version="1.1" xmlns="http://www.w3.org/2000/svg"><path d="M128 67.648L956.352 896l-60.352 60.352-172.288-172.352c1.088 8.768 1.6 17.664 1.6 26.688V896H640v-85.312a128 128 0 0 0-128-128H213.312a128 128 0 0 0-128 128V896H0v-85.312a213.312 213.312 0 0 1 213.312-213.376H512c9.024 0 17.92 0.576 26.624 1.664L437.952 498.304A213.312 213.312 0 0 1 163.008 223.36L67.648 128 128 67.648zM234.688 295.04v3.648a128 128 0 0 0 131.584 127.936L234.688 295.04z m128-124.352c-5.184 0-10.24 0.256-15.232 0.832l-42.368 4.992-9.92-84.736 42.368-4.992A213.312 213.312 0 0 1 574.528 323.84l-4.992 42.432-84.736-9.984 4.992-42.368a128 128 0 0 0-127.104-143.168z m515.2 70.272l21.248 36.992a298.688 298.688 0 0 1-0.128 297.6l-21.248 36.992-73.984-42.56 21.248-36.928a213.312 213.312 0 0 0 0.064-212.608l-21.248-36.992 74.048-42.496z m-129.536 74.368l21.248 36.992a149.376 149.376 0 0 1 0 148.8l-21.312 36.992-73.984-42.56 21.312-36.992a63.936 63.936 0 0 0 0-63.744l-21.248-36.992 73.984-42.496z" /></svg>