<?xml version="1.0" standalone="no"?><!DOCTYPE svg PUBLIC "-//W3C//DTD SVG 1.1//EN" "http://www.w3.org/Graphics/SVG/1.1/DTD/svg11.dtd"><svg class="icon" width="200px" height="200.00px" viewBox="0 0 1024 1024" version="1.1" xmlns="http://www.w3.org/2000/svg"><path d="M490.624 170.688a149.312 149.312 0 1 0 0 298.624 149.312 149.312 0 0 0 0-298.624zM256 320a234.688 234.688 0 1 1 469.312 0A234.688 234.688 0 0 1 256 320z m469.312 192H896v85.312h-85.376v85.44h83.328l66.048 48.512V960H576v-228.736l65.984-48.512h83.328V512z m-384 170.688a170.688 170.688 0 0 0-170.688 170.624H492.8v85.376H85.312v-85.376a256 256 0 0 1 256-256h149.312v85.376H341.312z m320 91.776v100.224h213.312V774.4l-8.64-6.4h-196.032l-8.64 6.4z" /></svg>