<?xml version="1.0" standalone="no"?><!DOCTYPE svg PUBLIC "-//W3C//DTD SVG 1.1//EN" "http://www.w3.org/Graphics/SVG/1.1/DTD/svg11.dtd"><svg class="icon" width="200px" height="200.00px" viewBox="0 0 1024 1024" version="1.1" xmlns="http://www.w3.org/2000/svg"><path d="M490.624 85.312a234.688 234.688 0 1 0 0 469.376 234.688 234.688 0 0 0 0-469.376zM768 533.312a234.688 234.688 0 1 0 0 469.376 234.688 234.688 0 0 0 0-469.376z m42.624 337.664l-85.312-85.312v-113.6h85.312v78.272l60.352 60.352-60.352 60.288zM522.88 597.312A297.28 297.28 0 0 0 469.248 768c0 63.424 19.84 122.24 53.504 170.688H85.312v-85.376a256 256 0 0 1 256-256h181.504z" /></svg>