<?xml version="1.0" standalone="no"?><!DOCTYPE svg PUBLIC "-//W3C//DTD SVG 1.1//EN" "http://www.w3.org/Graphics/SVG/1.1/DTD/svg11.dtd"><svg class="icon" width="200px" height="200.00px" viewBox="0 0 1024 1024" version="1.1" xmlns="http://www.w3.org/2000/svg"><path d="M981.376 512c0 142.72-63.744 270.592-164.288 356.672A467.456 467.456 0 0 1 512 981.312a467.456 467.456 0 0 1-305.024-112.64A469.312 469.312 0 1 1 981.376 512z m-298.688-149.312a170.688 170.688 0 1 0-341.312 0 170.688 170.688 0 0 0 341.312 0z m106.688 414.912V768a170.688 170.688 0 0 0-170.688-170.688H405.376A170.688 170.688 0 0 0 234.688 768v9.6A382.336 382.336 0 0 0 512 896a382.336 382.336 0 0 0 277.376-118.4z" /></svg>