<?xml version="1.0" standalone="no"?><!DOCTYPE svg PUBLIC "-//W3C//DTD SVG 1.1//EN" "http://www.w3.org/Graphics/SVG/1.1/DTD/svg11.dtd"><svg class="icon" width="200px" height="200.00px" viewBox="0 0 1024 1024" version="1.1" xmlns="http://www.w3.org/2000/svg"><path d="M512 170.688a149.312 149.312 0 1 0 0 298.624 149.312 149.312 0 0 0 0-298.624zM277.312 320a234.688 234.688 0 1 1 469.376 0 234.688 234.688 0 0 1-469.376 0zM128 810.688a213.312 213.312 0 0 1 213.312-213.312h341.376A213.312 213.312 0 0 1 896 810.688v128H128v-128z m213.312-128a128 128 0 0 0-128 128v42.688h597.376v-42.688a128 128 0 0 0-128-128H341.312z" /></svg>