<?xml version="1.0" standalone="no"?><!DOCTYPE svg PUBLIC "-//W3C//DTD SVG 1.1//EN" "http://www.w3.org/Graphics/SVG/1.1/DTD/svg11.dtd"><svg class="icon" width="200px" height="200.00px" viewBox="0 0 1024 1024" version="1.1" xmlns="http://www.w3.org/2000/svg"><path d="M490.624 170.688a149.312 149.312 0 1 0 0 298.624 149.312 149.312 0 0 0 0-298.624zM256 320a234.688 234.688 0 1 1 469.312 0A234.688 234.688 0 0 1 256 320z m753.28 323.84l-301.632 301.696-181.056-181.056 60.352-60.288 120.704 120.64 241.344-241.28 60.352 60.288z m-667.968 38.848a170.688 170.688 0 0 0-170.688 170.624h343.552v85.376H85.312v-85.376a256 256 0 0 1 256-256H512v85.376H341.312z" /></svg>