<?xml version="1.0" standalone="no"?><!DOCTYPE svg PUBLIC "-//W3C//DTD SVG 1.1//EN" "http://www.w3.org/Graphics/SVG/1.1/DTD/svg11.dtd"><svg class="icon" width="200px" height="200.00px" viewBox="0 0 1024 1024" version="1.1" xmlns="http://www.w3.org/2000/svg"><path d="M490.624 170.688a149.312 149.312 0 1 0 0 298.624 149.312 149.312 0 0 0 0-298.624zM256 320a234.688 234.688 0 1 1 469.312 0A234.688 234.688 0 0 1 256 320z m448 341.312v155.072c0 14.4 7.232 27.84 19.328 35.712l87.296 57.024 87.36-57.024a42.688 42.688 0 0 0 19.328-35.712v-155.072H704zM618.624 576h384v240.384a128 128 0 0 1-57.984 107.136l-134.016 87.552-134.016-87.552a128 128 0 0 1-57.984-107.136V576z m-277.312 106.688a170.688 170.688 0 0 0-170.688 170.624h364.8v85.376H85.376v-85.376a256 256 0 0 1 256-256h192v85.376h-192z" /></svg>