<?xml version="1.0" standalone="no"?><!DOCTYPE svg PUBLIC "-//W3C//DTD SVG 1.1//EN" "http://www.w3.org/Graphics/SVG/1.1/DTD/svg11.dtd"><svg class="icon" width="200px" height="200.00px" viewBox="0 0 1024 1024" version="1.1" xmlns="http://www.w3.org/2000/svg"><path d="M362.688 170.688a128 128 0 1 0 0 256 128 128 0 0 0 0-256z m-213.376 128a213.312 213.312 0 1 1 426.688 0 213.312 213.312 0 0 1-426.688 0z m728.448-57.728l21.248 36.992a298.688 298.688 0 0 1-0.128 297.6l-21.248 36.992-73.984-42.56 21.248-36.928a213.312 213.312 0 0 0 0.128-212.608l-21.248-36.992 73.984-42.496z m-129.472 74.368l21.248 36.992a149.312 149.312 0 0 1-0.064 148.8l-21.312 36.992-73.92-42.56 21.248-36.992a64 64 0 0 0 0-63.744l-21.248-36.992 74.048-42.496zM0 810.688a213.312 213.312 0 0 1 213.312-213.376H512a213.312 213.312 0 0 1 213.312 213.376V896H640v-85.312a128 128 0 0 0-128-128H213.312a128 128 0 0 0-128 128V896H0v-85.312z" /></svg>