<?xml version="1.0" standalone="no"?><!DOCTYPE svg PUBLIC "-//W3C//DTD SVG 1.1//EN" "http://www.w3.org/Graphics/SVG/1.1/DTD/svg11.dtd"><svg class="icon" width="200px" height="200.00px" viewBox="0 0 1024 1024" version="1.1" xmlns="http://www.w3.org/2000/svg"><path d="M512 170.688a128 128 0 1 0 0 256 128 128 0 0 0 0-256z m-213.376 128a213.312 213.312 0 1 1 426.688 0 213.312 213.312 0 0 1-426.688 0z m-149.312 512a213.312 213.312 0 0 1 213.312-213.376h298.688a213.312 213.312 0 0 1 213.312 213.376V896h-85.312v-85.312a128 128 0 0 0-128-128H362.624a128 128 0 0 0-128 128V896H149.312v-85.312z" /></svg>