<?xml version="1.0" standalone="no"?><!DOCTYPE svg PUBLIC "-//W3C//DTD SVG 1.1//EN" "http://www.w3.org/Graphics/SVG/1.1/DTD/svg11.dtd"><svg class="icon" width="200px" height="200.00px" viewBox="0 0 1024 1024" version="1.1" xmlns="http://www.w3.org/2000/svg"><path d="M490.624 170.688a149.312 149.312 0 1 0 0 298.624 149.312 149.312 0 0 0 0-298.624zM256 320a234.688 234.688 0 1 1 469.312 0A234.688 234.688 0 0 1 256 320z m85.312 362.688a170.688 170.688 0 0 0-170.688 170.624h343.488v85.376h-428.8v-85.376a256 256 0 0 1 256-256H512v85.376H341.312zM832 544v58.688c30.464 7.872 57.664 23.936 79.104 45.76l50.88-29.44 42.624 73.92-50.816 29.376a170.88 170.88 0 0 1 0 91.392l50.816 29.376-42.624 73.856-50.88-29.376c-21.44 21.76-48.64 37.888-79.104 45.76v58.688h-85.376v-58.688a170.496 170.496 0 0 1-79.104-45.76l-50.88 29.44-42.624-73.92 50.816-29.44a170.88 170.88 0 0 1 0-91.328l-50.816-29.376 42.624-73.856 50.88 29.376c21.44-21.76 48.64-37.888 79.104-45.76V544H832z m-117.44 182.72a84.928 84.928 0 0 0 0 82.56l1.6 2.688a85.312 85.312 0 0 0 146.304 0l1.536-2.752a84.992 84.992 0 0 0 0-82.496l-1.536-2.688a85.248 85.248 0 0 0-146.304 0l-1.536 2.688z" /></svg>