<?xml version="1.0" standalone="no"?><!DOCTYPE svg PUBLIC "-//W3C//DTD SVG 1.1//EN" "http://www.w3.org/Graphics/SVG/1.1/DTD/svg11.dtd"><svg class="icon" width="200px" height="200.00px" viewBox="0 0 1024 1024" version="1.1" xmlns="http://www.w3.org/2000/svg"><path d="M490.624 85.312a234.688 234.688 0 1 0 0 469.376 234.688 234.688 0 0 0 0-469.376zM809.92 553.92l25.728 34.048a298.688 298.688 0 0 1-0.128 360.128l-25.728 34.048-68.032-51.52 25.728-33.984a213.312 213.312 0 0 0 0.064-257.28l-25.728-34.048 68.16-51.392zM690.816 643.84l25.664 34.112a149.312 149.312 0 0 1 0 180.032l-25.792 34.048-68.032-51.456 25.728-34.048a64 64 0 0 0 0-77.184l-25.664-34.048 68.096-51.392zM549.376 597.312A276.16 276.16 0 0 0 490.624 768c0 64.384 21.952 123.584 58.752 170.688H85.312v-85.376a256 256 0 0 1 256-256h208z" /></svg>