<?xml version="1.0" standalone="no"?><!DOCTYPE svg PUBLIC "-//W3C//DTD SVG 1.1//EN" "http://www.w3.org/Graphics/SVG/1.1/DTD/svg11.dtd"><svg class="icon" width="200px" height="200.00px" viewBox="0 0 1024 1024" version="1.1" xmlns="http://www.w3.org/2000/svg"><path d="M490.624 170.688a149.312 149.312 0 1 0 0 298.624 149.312 149.312 0 0 0 0-298.624zM256 320a234.688 234.688 0 1 1 469.312 0A234.688 234.688 0 0 1 256 320z m391.296 267.008L768 707.648l120.64-120.64 60.352 60.288L828.352 768l120.64 120.704-60.352 60.352L768 828.352l-120.704 120.704-60.352-60.352L707.648 768 586.88 647.296l60.352-60.288z m-305.984 95.68a170.688 170.688 0 0 0-170.688 170.688h343.552v85.312H85.312v-85.312a256 256 0 0 1 256-256H512v85.312H341.312z" /></svg>