<?xml version="1.0" standalone="no"?><!DOCTYPE svg PUBLIC "-//W3C//DTD SVG 1.1//EN" "http://www.w3.org/Graphics/SVG/1.1/DTD/svg11.dtd"><svg class="icon" width="200px" height="200.00px" viewBox="0 0 1024 1024" version="1.1" xmlns="http://www.w3.org/2000/svg"><path d="M0 213.312C0 166.208 38.208 128 85.312 128h469.376C601.792 128 640 166.208 640 213.312v85.376H554.688V213.312H85.312V512h256v85.312h-256V768h256v85.312H231.04L149.312 935.04l-60.288-60.352 21.312-21.376h-24.96A85.312 85.312 0 0 1 0 768V213.312z m483.136 128h441.728L1024 589.12v328.192h-85.312v-64H469.312v64H384V589.12l99.136-247.808zM469.312 768h469.376V605.568l-3.328-8.256h-462.72l-3.328 8.256V768z m37.44-256h394.496l-34.112-85.312H540.8L506.752 512zM128 640h85.504v85.504H128V640z m384 0h85.504v85.504H512V640z m298.688 0h85.504v85.504h-85.504V640z" /></svg>