<?xml version="1.0" standalone="no"?><!DOCTYPE svg PUBLIC "-//W3C//DTD SVG 1.1//EN" "http://www.w3.org/Graphics/SVG/1.1/DTD/svg11.dtd"><svg class="icon" width="200px" height="200.00px" viewBox="0 0 1024 1024" version="1.1" xmlns="http://www.w3.org/2000/svg"><path d="M85.312 128C38.208 128 0 166.208 0 213.312V768c0 47.104 38.208 85.312 85.312 85.312h24.96l-21.248 21.376 60.288 60.352 81.664-81.728h110.336V512h-256V213.312h469.376v85.376H640V213.312C640 166.208 601.792 128 554.688 128H85.312zM128 640h85.504v85.504H128V640zM924.864 341.312H483.2L384 589.12v328.192h85.312v-64h469.376v64H1024V589.12l-99.136-247.808zM901.248 512H506.752l34.112-85.312h326.272L901.248 512zM512 640h85.504v85.504H512V640z m384.192 0v85.504h-85.504V640h85.504z" /></svg>