<?xml version="1.0" standalone="no"?><!DOCTYPE svg PUBLIC "-//W3C//DTD SVG 1.1//EN" "http://www.w3.org/Graphics/SVG/1.1/DTD/svg11.dtd"><svg class="icon" width="200px" height="200.00px" viewBox="0 0 1024 1024" version="1.1" xmlns="http://www.w3.org/2000/svg"><path d="M42.688 128h938.688v768H42.688V128zM128 213.312v597.376h768V213.312H128z m533.376 192a42.688 42.688 0 1 1 0 85.376 42.688 42.688 0 0 1 0-85.376z m102.4 119.488a128 128 0 1 0-204.8 0 170.432 170.432 0 0 0-68.288 136.512V704H576v-42.688a85.312 85.312 0 0 1 170.688 0V704H832v-42.688c0-55.808-26.816-105.408-68.224-136.512zM213.376 384h192v85.312h-192V384z m0 170.688h192V640h-192V554.688z" /></svg>