<?xml version="1.0" standalone="no"?><!DOCTYPE svg PUBLIC "-//W3C//DTD SVG 1.1//EN" "http://www.w3.org/Graphics/SVG/1.1/DTD/svg11.dtd"><svg class="icon" width="200px" height="200.00px" viewBox="0 0 1024 1024" version="1.1" xmlns="http://www.w3.org/2000/svg"><path d="M512 7.936L666.24 139.52l202.112 16.128 16.128 202.112L1016.064 512l-131.52 154.304-16.128 202.112-202.112 16.128L512 1016.064 357.696 884.48 155.52 868.48l-16.128-202.112L7.936 512l131.52-154.304 16.128-202.112 202.112-16.128L511.936 7.936z m0 112.128L392 222.336 234.88 234.88l-12.544 157.12L120.064 512l102.272 120 12.544 157.12 157.12 12.544L512 903.936l120-102.272 157.12-12.544 12.544-157.12L903.936 512l-102.272-120-12.544-157.12-157.12-12.544L512 120.064z m252.352 285.248l-295.04 295.04L280.96 512l60.352-60.352 128 128L704 345.024l60.352 60.288z" /></svg>