<?xml version="1.0" standalone="no"?><!DOCTYPE svg PUBLIC "-//W3C//DTD SVG 1.1//EN" "http://www.w3.org/Graphics/SVG/1.1/DTD/svg11.dtd"><svg class="icon" width="200px" height="200.00px" viewBox="0 0 1024 1024" version="1.1" xmlns="http://www.w3.org/2000/svg"><path d="M0 170.56h725.312v189.184L1024 180.544v660.864l-298.688-170.624v182.464H0V170.56z m725.312 401.92l213.376 121.92V331.264l-213.376 128v113.28zM85.312 256v512H640v-512H85.312z m320 42.752v42.624h85.376v85.376H320v42.624h85.312c47.168 0 85.376 38.208 85.376 85.376v42.624c0 47.168-38.208 85.376-85.376 85.376v42.624H320v-42.624H234.688V597.312h170.624v-42.624H320a85.312 85.312 0 0 1-85.312-85.376v-42.624c0-47.168 38.208-85.376 85.312-85.376v-42.624h85.312z" /></svg>