<?xml version="1.0" standalone="no"?><!DOCTYPE svg PUBLIC "-//W3C//DTD SVG 1.1//EN" "http://www.w3.org/Graphics/SVG/1.1/DTD/svg11.dtd"><svg class="icon" width="200px" height="200.00px" viewBox="0 0 1024 1024" version="1.1" xmlns="http://www.w3.org/2000/svg"><path d="M533.376 128a149.312 149.312 0 1 1 0 298.688 149.312 149.312 0 0 1 0-298.688z m180.992 298.688a234.688 234.688 0 1 0-403.2-225.152 170.688 170.688 0 0 0-245.696 225.152H42.752v512H768v-107.648l213.376 85.312V448.96L768 534.4V426.688h-53.632zM768 626.24l128-51.2v215.296l-128-51.2V626.24zM682.688 512v341.312H128V512h554.688zM213.376 426.688a85.312 85.312 0 1 1 0-170.688 85.312 85.312 0 0 1 0 170.688z" /></svg>