<?xml version="1.0" standalone="no"?><!DOCTYPE svg PUBLIC "-//W3C//DTD SVG 1.1//EN" "http://www.w3.org/Graphics/SVG/1.1/DTD/svg11.dtd"><svg class="icon" width="200px" height="200.00px" viewBox="0 0 1024 1024" version="1.1" xmlns="http://www.w3.org/2000/svg"><path d="M64 64h213.312v85.312h-128v128H64V64z m682.688 0H960v213.312h-85.312v-128h-128V64zM512 164.096l301.312 173.952v347.904L512 859.968l-301.312-174.016V337.984L512 164.096zM296 436.48v200.128l173.312 100.096V536.576L296 436.544z m258.688 300.16l173.312-100.032V436.544L554.624 536.576v200.192zM512 462.72l173.312-100.032L512 262.592 338.688 362.624 512 462.72z m-362.688 283.968v128h128V960H64v-213.312h85.312z m810.688 0V960h-213.312v-85.312h128v-128H960z" /></svg>