<?xml version="1.0" standalone="no"?><!DOCTYPE svg PUBLIC "-//W3C//DTD SVG 1.1//EN" "http://www.w3.org/Graphics/SVG/1.1/DTD/svg11.dtd"><svg class="icon" width="200px" height="200.00px" viewBox="0 0 1024 1024" version="1.1" xmlns="http://www.w3.org/2000/svg"><path d="M277.312 64H64v213.312h85.312v-128h128V64zM960 64h-213.312v85.312h128v128H960V64zM770.368 313.216L512 164.096l-258.304 149.12 258.24 149.056 258.432-149.056zM813.312 386.944L554.624 536.192v299.136l258.688-149.376V386.944zM469.312 835.264V536.192l-258.56-149.248-0.064 299.008 258.56 149.312zM149.312 874.688v-128H64V960h213.312v-85.312h-128zM960 960v-213.312h-85.312v128h-128V960H960z" /></svg>