<?xml version="1.0" standalone="no"?><!DOCTYPE svg PUBLIC "-//W3C//DTD SVG 1.1//EN" "http://www.w3.org/Graphics/SVG/1.1/DTD/svg11.dtd"><svg class="icon" width="200px" height="200.00px" viewBox="0 0 1024 1024" version="1.1" xmlns="http://www.w3.org/2000/svg"><path d="M85.312 85.312h853.312V512h-85.312V170.688H170.624v408.96L384 366.336 593.664 576l-60.352 60.352L384 486.976l-213.376 213.376v152.96h554.688v85.376h-640V85.312z m586.56 224a42.688 42.688 0 1 0 0 85.376 42.688 42.688 0 0 0 0-85.376z m-128 42.688a128 128 0 1 1 256 0 128 128 0 0 1-256 0z m138.752 245.312H1024v85.376h-128v298.624h-85.376v-298.624h-128V597.312z" /></svg>