<?xml version="1.0" standalone="no"?><!DOCTYPE svg PUBLIC "-//W3C//DTD SVG 1.1//EN" "http://www.w3.org/Graphics/SVG/1.1/DTD/svg11.dtd"><svg class="icon" width="200px" height="200.00px" viewBox="0 0 1024 1024" version="1.1" xmlns="http://www.w3.org/2000/svg"><path d="M938.624 85.312H85.312v853.376h549.376A276.16 276.16 0 0 1 576 768c0-59.328 18.56-114.304 50.304-159.36L384 366.336 170.624 579.648v-408.96h682.688v320c29.76 0 58.432 4.672 85.312 13.376V85.312zM682.624 224a117.312 117.312 0 1 0 0 234.688 117.312 117.312 0 0 0 0-234.688zM1024 682.688V597.312h-341.376v85.376h128v298.624H896v-298.624h128z" /></svg>