<?xml version="1.0" standalone="no"?><!DOCTYPE svg PUBLIC "-//W3C//DTD SVG 1.1//EN" "http://www.w3.org/Graphics/SVG/1.1/DTD/svg11.dtd"><svg class="icon" width="200px" height="200.00px" viewBox="0 0 1024 1024" version="1.1" xmlns="http://www.w3.org/2000/svg"><path d="M303.68 0h416.64l21.504 171.712a128 128 0 0 1 111.552 126.976V384H896v256h-42.624v85.312a128 128 0 0 1-111.552 126.976L720.384 1024h-416.64l-21.504-171.712a128 128 0 0 1-111.552-126.976V298.688A128 128 0 0 1 282.24 171.712L303.68 0z m64.64 170.688h287.36l-10.624-85.376H378.944l-10.624 85.376zM298.752 768h426.688a42.688 42.688 0 0 0 42.624-42.688V298.688A42.688 42.688 0 0 0 725.376 256H298.688A42.688 42.688 0 0 0 256 298.688v426.624c0 23.552 19.136 42.688 42.688 42.688z m69.696 85.312l10.624 85.376h266.048l10.624-85.376h-287.36z" /></svg>