<?xml version="1.0" standalone="no"?><!DOCTYPE svg PUBLIC "-//W3C//DTD SVG 1.1//EN" "http://www.w3.org/Graphics/SVG/1.1/DTD/svg11.dtd"><svg class="icon" width="200px" height="200.00px" viewBox="0 0 1024 1024" version="1.1" xmlns="http://www.w3.org/2000/svg"><path d="M302.08 128.704l-35.2 24.192a429.312 429.312 0 0 0-109.696 109.824l-24.256 35.072L62.72 249.408l24.256-35.2a514.624 514.624 0 0 1 131.584-131.52l35.136-24.256 48.448 70.272z m183.424 157.248a16.512 16.512 0 0 0-23.36 23.36l223.36 223.488-60.288 60.288-281.728-281.728A16.512 16.512 0 0 0 320 334.784l281.792 281.728-60.352 60.352L318.08 453.44a16.576 16.576 0 0 0-23.424 23.36l88.96 88.96 134.464 134.464-60.352 60.352-134.4-134.464a16.448 16.448 0 0 0-23.296 23.232l184.32 184.32a221.44 221.44 0 0 0 313.152 0l36.032-35.968a221.44 221.44 0 0 0 34.56-268.224L773.248 366.72a6.208 6.208 0 0 0-11.392 4.736l28.544 106.496a42.88 42.88 0 0 1-50.432 52.864 42.688 42.688 0 0 1-20.992-11.52L485.504 285.952zM252.224 555.072l-17.92-17.92A101.888 101.888 0 0 1 248.32 381.44a101.888 101.888 0 0 1 141.888-141.888 101.888 101.888 0 0 1 155.712-13.952l131.328 131.328a91.52 91.52 0 0 1 169.6-33.152L941.888 486.4a306.752 306.752 0 0 1-48 371.584l-36.032 36.032a306.752 306.752 0 0 1-433.792 0l-184.32-184.32a101.76 101.76 0 0 1 12.544-154.688z" /></svg>