<?xml version="1.0" standalone="no"?><!DOCTYPE svg PUBLIC "-//W3C//DTD SVG 1.1//EN" "http://www.w3.org/Graphics/SVG/1.1/DTD/svg11.dtd"><svg class="icon" width="200px" height="200.00px" viewBox="0 0 1024 1024" version="1.1" xmlns="http://www.w3.org/2000/svg"><path d="M769.984 58.432l35.2 24.256a514.56 514.56 0 0 1 131.584 131.584l24.192 35.136-70.272 48.384-24.192-35.072a429.312 429.312 0 0 0-109.76-109.824l-35.2-24.192 48.448-70.272zM586.752 190.4a58.56 58.56 0 0 0-82.944 0.128L279.68 415.872l18.944-46.72c23.872-58.88-42.88-113.088-95.616-77.632-8 5.44-14.72 12.608-19.584 20.928L81.856 486.4a306.752 306.752 0 0 0 48 371.584l36.032 36.032a306.752 306.752 0 0 0 433.792 0l214.784-214.848a58.688 58.688 0 0 0-82.944-82.944l-68.48 68.416-22.592-22.656 157.44-157.44a58.688 58.688 0 0 0-82.944-83.008l-157.44 157.44-22.656-22.592 215.744-215.744a58.688 58.688 0 1 0-82.944-83.008L451.904 453.312l-22.656-22.592 157.504-157.504a58.56 58.56 0 0 0 0-82.816z" /></svg>