<?xml version="1.0" standalone="no"?><!DOCTYPE svg PUBLIC "-//W3C//DTD SVG 1.1//EN" "http://www.w3.org/Graphics/SVG/1.1/DTD/svg11.dtd"><svg class="icon" width="200px" height="200.00px" viewBox="0 0 1024 1024" version="1.1" xmlns="http://www.w3.org/2000/svg"><path d="M769.984 58.432l35.2 24.256a514.624 514.624 0 0 1 131.52 131.584l24.256 35.136-70.272 48.384-24.192-35.072a429.312 429.312 0 0 0-109.824-109.824l-35.072-24.192 48.384-70.272zM477.76 225.6a101.888 101.888 0 0 1 155.712 13.952 101.888 101.888 0 0 1 141.888 141.888 101.888 101.888 0 0 1 13.952 155.712l-17.92 17.92a101.76 101.76 0 0 1 12.544 154.624l-184.32 184.32a306.752 306.752 0 0 1-433.792 0l-36.032-35.968a306.752 306.752 0 0 1-48-371.584l94.976-162.688a91.52 91.52 0 0 1 169.664 33.152l131.328-131.328zM728.96 476.8a16.576 16.576 0 0 0-23.36-23.424l-223.488 223.488-60.288-60.352 281.728-281.728a16.512 16.512 0 0 0-23.424-23.424L398.4 593.088l-60.352-60.288 223.424-223.424a16.512 16.512 0 0 0-23.36-23.424L304.768 519.296a42.752 42.752 0 0 1-71.488-41.28l28.544-106.496a6.208 6.208 0 0 0-11.328-4.736L155.52 529.472a221.44 221.44 0 0 0 34.56 268.16l36.096 36.096a221.44 221.44 0 0 0 313.088 0l184.32-184.32a16.448 16.448 0 0 0-23.232-23.296l-134.464 134.464-60.352-60.352 223.424-223.36z" /></svg>