<?xml version="1.0" standalone="no"?><!DOCTYPE svg PUBLIC "-//W3C//DTD SVG 1.1//EN" "http://www.w3.org/Graphics/SVG/1.1/DTD/svg11.dtd"><svg class="icon" width="200px" height="200.00px" viewBox="0 0 1024 1024" version="1.1" xmlns="http://www.w3.org/2000/svg"><path d="M302.08 128.704l-35.2 24.256a429.312 429.312 0 0 0-109.696 109.76l-24.256 35.072L62.72 249.408l24.256-35.2a514.56 514.56 0 0 1 131.584-131.52l35.136-24.256 48.448 70.272zM437.12 190.528a58.56 58.56 0 0 1 82.88 0.128L744.192 416l-18.944-46.72c-23.872-58.88 42.88-113.088 95.552-77.568 8.064 5.376 14.72 12.544 19.648 20.928L942.08 486.4a306.752 306.752 0 0 1-48 371.584l-36.032 36.032a306.752 306.752 0 0 1-433.792 0L209.28 679.232a58.688 58.688 0 0 1 83.008-82.944l68.416 68.416 22.656-22.656-157.44-157.44a58.624 58.624 0 1 1 82.944-82.944l157.44 157.44 22.656-22.656-215.808-215.744a58.688 58.688 0 0 1 83.008-82.944l215.68 215.68 22.656-22.592-157.44-157.44a58.56 58.56 0 0 1 0-82.88z" /></svg>