<?xml version="1.0" standalone="no"?><!DOCTYPE svg PUBLIC "-//W3C//DTD SVG 1.1//EN" "http://www.w3.org/Graphics/SVG/1.1/DTD/svg11.dtd"><svg class="icon" width="200px" height="200.00px" viewBox="0 0 1024 1024" version="1.1" xmlns="http://www.w3.org/2000/svg"><path d="M767.104 65.92l35.136 24.256a514.56 514.56 0 0 1 131.584 131.584l24.192 35.136-70.208 48.448-24.256-35.2a429.248 429.248 0 0 0-109.76-109.696l-35.136-24.256 48.448-70.272zM488.768 293.44a16.512 16.512 0 0 0-23.424 23.36l223.488 223.488-60.352 60.288-281.728-281.728a16.512 16.512 0 0 0-23.424 23.424L605.056 624l-60.288 60.352L321.28 460.928a16.512 16.512 0 1 0-23.36 23.36l223.424 223.424-60.352 60.352L326.528 633.6a16.448 16.448 0 0 0-23.296 23.296l184.32 184.32a221.44 221.44 0 0 0 313.152 0l36.032-36.032a221.44 221.44 0 0 0 34.688-268.224L776.32 374.272a6.208 6.208 0 0 0-11.328 4.736l28.544 106.496a42.88 42.88 0 0 1-50.432 52.864 42.688 42.688 0 0 1-20.992-11.52L488.768 293.44zM255.488 562.56l-17.92-17.92a101.888 101.888 0 0 1 13.952-155.712A101.888 101.888 0 0 1 393.408 247.04a101.888 101.888 0 0 1 155.712-13.952l131.328 131.328a91.52 91.52 0 0 1 169.6-33.152l95.04 162.688a306.752 306.752 0 0 1-48 371.584l-36.032 36.032a306.752 306.752 0 0 1-433.792 0l-184.32-184.32a101.76 101.76 0 0 1 12.544-154.688z m-119.296 156.16l24.192 35.072a429.312 429.312 0 0 0 109.824 109.76l35.072 24.256-48.384 70.272-35.2-24.256a514.56 514.56 0 0 1-131.52-131.584l-24.256-35.136 70.272-48.448z" /></svg>