<?xml version="1.0" standalone="no"?><!DOCTYPE svg PUBLIC "-//W3C//DTD SVG 1.1//EN" "http://www.w3.org/Graphics/SVG/1.1/DTD/svg11.dtd"><svg class="icon" width="200px" height="200.00px" viewBox="0 0 1024 1024" version="1.1" xmlns="http://www.w3.org/2000/svg"><path d="M440.192 198.016a58.56 58.56 0 0 1 82.944 0.128l224.128 225.344-18.944-46.72c-23.872-58.88 42.88-113.088 95.616-77.632 8 5.44 14.72 12.608 19.584 20.928l101.568 173.888a306.752 306.752 0 0 1-48 371.584l-36.032 36.032a306.752 306.752 0 0 1-433.792 0L212.48 686.72a58.688 58.688 0 0 1 82.944-83.008l68.48 68.48 22.592-22.656-157.44-157.44a58.624 58.624 0 0 1 82.944-83.008l157.44 157.44 22.656-22.592-215.744-215.744A58.688 58.688 0 1 1 359.296 245.12l215.744 215.744 22.656-22.592-157.504-157.504a58.56 58.56 0 0 1 0-82.816zM767.104 65.92l35.136 24.256a514.56 514.56 0 0 1 131.584 131.584l24.192 35.136-70.208 48.448-24.256-35.2a429.248 429.248 0 0 0-109.76-109.696l-35.136-24.256 48.448-70.272z m-630.912 652.8l24.192 35.072a429.312 429.312 0 0 0 109.824 109.76l35.072 24.256-48.384 70.272-35.2-24.256a514.624 514.624 0 0 1-131.52-131.584l-24.256-35.136 70.272-48.448z" /></svg>