<?xml version="1.0" standalone="no"?><!DOCTYPE svg PUBLIC "-//W3C//DTD SVG 1.1//EN" "http://www.w3.org/Graphics/SVG/1.1/DTD/svg11.dtd"><svg class="icon" width="200px" height="200.00px" viewBox="0 0 1024 1024" version="1.1" xmlns="http://www.w3.org/2000/svg"><path d="M288 106.688h448V224c0 67.008-29.44 127.168-76.032 168.192a385.472 385.472 0 0 1 188.16 168.576l9.152 16.576a234.688 234.688 0 0 0-221.952 361.344h-336.64A170.688 170.688 0 0 1 128 768v-21.312a384.128 384.128 0 0 1 236.032-354.496A223.488 223.488 0 0 1 288 224V106.688zM981.312 768v-85.312h-298.624V768h298.624zM981.312 938.688v-85.376h-298.624v85.376h298.624z" /></svg>