<?xml version="1.0" standalone="no"?><!DOCTYPE svg PUBLIC "-//W3C//DTD SVG 1.1//EN" "http://www.w3.org/Graphics/SVG/1.1/DTD/svg11.dtd"><svg class="icon" width="200px" height="200.00px" viewBox="0 0 1024 1024" version="1.1" xmlns="http://www.w3.org/2000/svg"><path d="M448 85.312c80.448 0 155.2 12.48 211.456 34.112 27.904 10.752 53.504 24.576 72.768 42.112 19.328 17.6 35.776 42.24 35.776 73.152v278.272a234.688 234.688 0 1 1-208.96 374.72C524.48 893.12 487.04 896 448 896c-80.448 0-155.2-12.416-211.456-34.048-27.968-10.752-53.504-24.64-72.768-42.24C144.448 802.24 128 777.6 128 746.752v-512c0-30.912 16.448-55.552 35.776-73.152 19.264-17.536 44.8-31.36 72.768-42.112 56.256-21.632 131.008-34.112 211.456-34.112z m281.984 512.96a149.376 149.376 0 1 0 33.472 296.96 149.376 149.376 0 0 0-33.472-296.96z m-516.672 148.224c0.192 0.832 1.408 4.224 7.872 10.112 8.768 8 23.808 17.088 46.016 25.6 44.16 17.024 108.096 28.48 180.8 28.48 25.024 0 49.152-1.408 71.808-3.84a234.88 234.88 0 0 1 20.8-172.608C511.168 638.08 480.064 640 448 640c-80.448 0-155.2-12.416-211.456-34.048a320.96 320.96 0 0 1-23.232-9.984v150.528z m469.376-406.528a321.088 321.088 0 0 1-23.232 9.984C603.2 371.584 528.448 384 448 384c-80.448 0-155.2-12.416-211.456-34.048a320.96 320.96 0 0 1-23.232-9.984v150.528c0.192 0.768 1.408 4.224 7.872 10.112 8.768 8 23.808 17.088 46.016 25.6 44.16 17.024 108.096 28.48 180.8 28.48 72.704 0 136.64-11.456 180.8-28.416 22.208-8.576 37.248-17.664 46.016-25.6 6.464-5.952 7.68-9.408 7.872-10.176V339.968zM448 170.688c-72.704 0-136.64 11.392-180.8 28.352-22.208 8.576-37.248 17.664-46.016 25.6-6.144 5.632-7.552 9.024-7.808 10.048 0.256 1.024 1.728 4.352 7.808 9.92 8.768 8 23.808 17.088 46.016 25.6 44.16 17.024 108.096 28.48 180.8 28.48 72.704 0 136.64-11.456 180.8-28.416 22.208-8.576 37.248-17.664 46.016-25.6 6.08-5.632 7.488-8.96 7.808-9.984-0.256-1.024-1.664-4.416-7.808-9.984-8.768-8-23.808-17.088-46.016-25.6-44.16-17.024-108.096-28.416-180.8-28.416z" /></svg>