<?xml version="1.0" standalone="no"?><!DOCTYPE svg PUBLIC "-//W3C//DTD SVG 1.1//EN" "http://www.w3.org/Graphics/SVG/1.1/DTD/svg11.dtd"><svg class="icon" width="200px" height="200.00px" viewBox="0 0 1024 1024" version="1.1" xmlns="http://www.w3.org/2000/svg"><path d="M705.92 383.104c-70.208 28.096-161.472 43.52-257.92 43.52-96.448 0-187.712-15.424-257.92-43.52A352.512 352.512 0 0 1 128 351.36v139.328c0 70.656 143.296 128 320 128 47.104 0 91.84-4.096 132.096-11.392a276.8 276.8 0 0 1 182.976-94.08 55.232 55.232 0 0 0 4.928-22.528V351.36c-19.328 12.672-40.512 23.04-62.08 31.68zM448 704c26.688 0 52.992-1.152 78.528-3.52A276.992 276.992 0 0 0 512 789.312c0 36.16 6.912 70.656 19.456 102.272C504.832 894.464 476.864 896 448 896c-176.704 0-320-57.344-320-128V628.672c19.328 12.672 40.512 23.104 62.08 31.744C260.224 688.576 351.488 704 448 704zM448 341.312c-176.704 0-320-57.28-320-128 0-70.656 143.296-128 320-128 132.544 0 246.272 32.256 294.848 78.208 16.192 15.36 25.152 32.128 25.152 49.792 0 70.72-143.296 128-320 128zM789.312 981.312a191.936 191.936 0 1 1 0-384 192 192 0 1 1 0 384z" /></svg>