<?xml version="1.0" standalone="no"?><!DOCTYPE svg PUBLIC "-//W3C//DTD SVG 1.1//EN" "http://www.w3.org/Graphics/SVG/1.1/DTD/svg11.dtd"><svg class="icon" width="200px" height="200.00px" viewBox="0 0 1024 1024" version="1.1" xmlns="http://www.w3.org/2000/svg"><path d="M288 106.688h448V224c0 67.008-29.44 127.168-76.032 168.192a385.472 385.472 0 0 1 188.16 168.576l20.608 37.312-74.624 41.408-20.672-37.376a298.688 298.688 0 0 0-560.128 144.512V768c0 47.104 38.208 85.312 85.376 85.312h298.624v85.376H298.688A170.688 170.688 0 0 1 128 768v-21.312a384.128 384.128 0 0 1 236.032-354.496A223.488 223.488 0 0 1 288 224V106.688z m224 256c76.608 0 138.688-62.08 138.688-138.688V192H373.312v32c0 76.608 62.08 138.688 138.688 138.688z m170.688 320h298.624V768h-298.624v-85.312z m0 170.624h298.624v85.376h-298.624v-85.376z" /></svg>