<?xml version="1.0" standalone="no"?><!DOCTYPE svg PUBLIC "-//W3C//DTD SVG 1.1//EN" "http://www.w3.org/Graphics/SVG/1.1/DTD/svg11.dtd"><svg class="icon" width="200px" height="200.00px" viewBox="0 0 1024 1024" version="1.1" xmlns="http://www.w3.org/2000/svg"><path d="M128 67.648L956.352 896l-60.352 60.352-228.736-228.8L512 921.664 25.6 313.6l33.216-26.688c31.872-25.6 65.472-48 100.288-67.456l-91.456-91.52L128 67.712z m94.144 214.848a635.328 635.328 0 0 0-75.84 45.44L512 785.024l94.528-118.144L222.08 282.496z m655.488 45.44a640.128 640.128 0 0 0-476.16-105.024l-41.984 7.296-14.72-84.096 42.048-7.296a724.928 724.928 0 0 1 578.368 148.096l33.28 26.688-233.28 291.52-66.624-53.248 179.072-223.936z" /></svg>