<?xml version="1.0" standalone="no"?><!DOCTYPE svg PUBLIC "-//W3C//DTD SVG 1.1//EN" "http://www.w3.org/Graphics/SVG/1.1/DTD/svg11.dtd"><svg class="icon" width="200px" height="200.00px" viewBox="0 0 1024 1024" version="1.1" xmlns="http://www.w3.org/2000/svg"><path d="M904.192 418.432a554.688 554.688 0 0 0-784.448 0L89.6 448.64l-60.352-60.352 30.144-30.144c249.984-249.984 655.168-249.984 905.152 0l30.144 30.144-60.352 60.352-30.144-30.208z m-196.096 196.16a277.312 277.312 0 0 0-392.256 0l-30.144 30.144-60.352-60.352 30.208-30.144a362.688 362.688 0 0 1 512.832 0l30.208 30.144-60.352 60.352-30.144-30.144z m-256.448 135.68c33.28-33.28 87.36-33.28 120.64 0l30.208 30.208L512 871.04l-90.56-90.56 30.208-30.144z" /></svg>