<?xml version="1.0" standalone="no"?><!DOCTYPE svg PUBLIC "-//W3C//DTD SVG 1.1//EN" "http://www.w3.org/Graphics/SVG/1.1/DTD/svg11.dtd"><svg class="icon" width="200px" height="200.00px" viewBox="0 0 1024 1024" version="1.1" xmlns="http://www.w3.org/2000/svg"><path d="M128 67.648L956.352 896l-60.352 60.352-311.68-311.68L475.456 535.68c-58.368 7.744-114.688 33.984-159.552 78.848l-30.144 30.144-60.352-60.288 30.208-30.208a361.216 361.216 0 0 1 148.48-89.856l-15.744-15.744L257.28 317.696c-49.536 25.6-96 59.136-137.6 100.736l-30.144 30.144-60.352-60.352 30.144-30.08a640.64 640.64 0 0 1 135.04-103.36L67.712 128 128 67.648z m776.192 350.784a553.728 553.728 0 0 0-466.56-157.44l-42.24 5.632-11.328-84.544 42.24-5.696a639.04 639.04 0 0 1 538.24 181.76l30.144 30.08-60.288 60.416-30.208-30.208z m-452.48 331.904c33.28-33.28 87.296-33.28 120.64 0l30.144 30.144L512 871.04l-90.496-90.496 30.144-30.144z" /></svg>