<?xml version="1.0" standalone="no"?><!DOCTYPE svg PUBLIC "-//W3C//DTD SVG 1.1//EN" "http://www.w3.org/Graphics/SVG/1.1/DTD/svg11.dtd"><svg class="icon" width="200px" height="200.00px" viewBox="0 0 1024 1024" version="1.1" xmlns="http://www.w3.org/2000/svg"><path d="M554.624 213.312a42.688 42.688 0 0 0 0 85.376h384V384h-384a128 128 0 1 1 0-256h170.688v85.312H554.624z m-320 128a64 64 0 0 0 0 128h704v85.376h-704a149.312 149.312 0 0 1 0-298.688h106.688v85.312H234.624zM213.312 768a128 128 0 0 1 128-128H768v85.312H341.312a42.688 42.688 0 0 0 0 85.376h192V896h-192a128 128 0 0 1-128-128z" /></svg>