<?xml version="1.0" standalone="no"?><!DOCTYPE svg PUBLIC "-//W3C//DTD SVG 1.1//EN" "http://www.w3.org/Graphics/SVG/1.1/DTD/svg11.dtd"><svg class="icon" width="200px" height="200.00px" viewBox="0 0 1024 1024" version="1.1" xmlns="http://www.w3.org/2000/svg"><path d="M554.624 213.312a42.688 42.688 0 0 0 0 85.376H768V384H554.624a128 128 0 1 1 0-256h170.688v85.312H554.624z m-320 128a64 64 0 0 0 0 128H512v85.376H234.624a149.312 149.312 0 0 1 0-298.688h106.688v85.312H234.624z m618.688-42.816h85.504V384h-85.504V298.496z m0 170.688h85.504v85.504h-85.504V469.12z m-256 0.128H768v85.376H597.312V469.312z m85.312 170.496h85.504v85.504h-85.504V639.808zM213.312 768a128 128 0 0 1 128-128H384v85.312h-42.688a42.688 42.688 0 0 0 0 85.376h192V896h-192a128 128 0 0 1-128-128z m256-128h128v85.312h-128V640z" /></svg>