<?xml version="1.0" standalone="no"?><!DOCTYPE svg PUBLIC "-//W3C//DTD SVG 1.1//EN" "http://www.w3.org/Graphics/SVG/1.1/DTD/svg11.dtd"><svg class="icon" width="200px" height="200.00px" viewBox="0 0 1024 1024" version="1.1" xmlns="http://www.w3.org/2000/svg"><path d="M320 106.688h384v170.624h234.624v192h-85.312V362.688H170.624V832h298.688v85.312h-384v-640H320V106.688z m85.312 170.624h213.312V192H405.312v85.312zM768 618.688a149.312 149.312 0 1 0 0 298.624 149.312 149.312 0 0 0 0-298.624zM533.312 768a234.688 234.688 0 1 1 469.312 0 234.688 234.688 0 0 1-469.312 0z m277.312-95.936v78.272l60.352 60.352-60.352 60.352-85.312-85.376v-113.6h85.312z" /></svg>